<svg version="1.2" xmlns="http://www.w3.org/2000/svg" viewBox="0 0 252 252" width="252" height="252"><style>.a{fill:#ffda7d}</style><path fill-rule="evenodd" class="a" d="m250.8 142.2c0 1.6-1.2 3.5-2.7 3.4-0.5 0-1.1-0.1-1.6-0.1-3.7-0.1-5.5 21.7-7.5 29.6-1.9 9.8-12.5 36.1-24.8 35.9-4.3 0-3.7-5.1-7.2-5.2-2.2 0-3.6 2.3-4.1 3.8-11.3 25.2-42.7 39.9-46.4 39.9-2.6-0.1-5.3-1.4-7.9-1.4-6.4 0.3-12.8 2.7-19.1 2.6-13.5-0.2-10.8-9.9-22-10.1-5.6-0.1-11.6 2.7-16.9 4.2 0 1.5 0.9 3.5-5.4 3.4-7.9-0.1-30.8-12.1-30.6-25.3-22.3-6.9-19.2-19.2-33.4-35.7-4.8-5.5-14.1-9.4-14-16.1 0-2.3 0.8-4.5 0.9-6.6 0-3.4-5.7-9.6-5.6-22.1 0.3-19.1 12.2-21.3 12.3-30.9 0.1-6.7-1.2-13.8-8.1-13.9-2.4 0-5.1 2-5.1-0.9 0.1-9.1 9.9-17.6 13.2-26.8 3.8-14.2-1.3-14.9 17.2-24.7 1.4 0 2 1.4 3.4 1.4 5.7 0.1 4.9-8.4 12.4-8.3 11.5-7.3 4.1-15.3 19-20 31-3.6 35.5-17.7 55.7-17.4 8.6 0.2 13 12.4 25.3 13.1 7.8 2.5 12.2-2.6 19.4 3.5 8.8 7.3 13.6 19.3 19.9 19.4 1.9 0 4-0.5 6-0.5 6.3 0.1 8.5 7.4 13.6 9.7 7.3 3.6 11.4 8.5 17.4 13.3 3.6 2.4 2.3 7.2 4.1 10.8 4.7 12 17.9 20.5 18.3 34.2 1 22.4 4.3 37.8 4.3 37.8zm-208.8-42.3q-0.3 0.6-0.5 1.2c-0.7 1-2.2 1.6-2.7 2.5-4.5 9.8-4.6 20.9-11 30.1-0.7 1.8-1 3.8-1.1 5.8-0.1 9 10.7 22.7 9.7 20.8-1.7-4.2-2.2-8.8-2.1-13.5 0.1-12.9 4.8-5.3 5.8-4.3-0.3-8.1-1.3-16.5-1.2-24.7 0.1-5.7 0.8-11.3 2.6-16.7 0.3-0.3 0.4-0.7 0.5-1.2zm48.9 114.5c-9.8-4.5-20.9-5.9-30.8-10.4 12.6 6.9 16.3 21.7 33.1 22 2 0 4-0.1 6.2-0.4 1.5 0 3.1 0.1 4.6 0.1 4.6 0.1 9.1-0.2 13.3-2.9 9.1-8.9-15.8-4-26.4-8.4zm31.5-21.2c-19.5-7.6-33.7-14.7-46.5-30.9-8.1-9.5-7.2-30.4-7.6-42.3 0-1.7-1.4-5.3-2.5-5.3-1.8 0-1.2 1.9-1.2 3.6 0 7.6-2.6 11.2-2.6 15.8 0 5 2.1 10.1 2.5 14.9q0.7 5.2 2.6 9.9l-1.2-1.3c2.9 10.7 10.4 17.4 16.5 21.6q2.1 1.6 4.4 3.1c4.3 2.4 10.4 0.5 15.2 3.8 9.1 7.2 20.5 11.1 21.9 11.1 4.7 0-0.2-3.6-1.5-4zm66.1-124.1c-3.8-4-16.8-21.8-28.8-23.2-8.5-1.5-15.8-10-33.5-13.6-2.4-2.1-5-4.1-7.8-5.7q0.4 0.1 0.8 0.2l-1.1-0.4c-2.9-1.6-6-2.8-9-3l9 3q0.2 0.1 0.3 0.2-3.2-0.8-6.4-0.9c-11.7-0.1-22.8 6.8-32.4 13.8q-1.6 1.1-3.2 2.4 1.6-1.2 3.2-2.4c9.5-6.4 20.3-8.9 31.4-8.7 5.8 0.1 10.8 0.6 15.2 1.5 5.5 4.9 9.4 10.1 9.9 10.5 7.7 6.1 35.4 16.3 35.4 16.3 1 0.8 9.2 10.9 14.8 10.9 0.8 0.1 1.5-0.2 2.2-0.9zm15 62.6c0.5-3.2 0.8-6.7 0.9-10.4-3.1-0.1-3.9-6.9-6.3-9-3.5-1.8-9.8 17.5 5.4 19.4zm5.9 31c1.8-10 3.7-23 1.1-38.4-0.8 3.9-1.8 7.8-2.8 11.7 0.2 1.3 0.3 2.5 0.3 2.9-0.1 3.6-4.2 12.3-7.4 22.3-1.5 5.7-2.8 11.4-3.4 17q-0.1 0-0.1 0 0 0.6 0 1.3c5.9-4.1 8.3-11.1 12.3-16.8zm15.2-26.8q0.1-2.8-0.4-5.6c-0.7-1.9-0.5-5.1-2.3-6.2 0.3 11-1.7 20.7-4.2 29.9 4.5-5.1 6.8-11.5 6.9-18.1zm5.4-28.5c0 0-1.4-5.7-3.3-20.1-0.4-3.3-3.6-5.6-4.9-9.4q-1 3.9-1 7.7c-0.2 9 3.1 17.9 6.9 26.2 0.1-2.1 2.2-1.5 2.3-4.4z"/></svg>