<svg version="1.2" xmlns="http://www.w3.org/2000/svg" viewBox="0 0 224 234" width="224" height="234"><style>.a{fill:#ef9830}.b{fill:#f9c23a}.c{fill:#ffed4a}.d{fill:#ffe048}</style><path class="a" d="m155.2 210.4c2.3-0.9 2.7-19.4-3.3-20-1.5-0.1-16.8 8.7-18.1 10.8-0.5 0.8 0.8 1.7 1.2 2.7 0.6 1.3 0.5 2.7 1 2.9 0.8 0.4 16.3 4.9 19.2 3.6z"/><path class="b" d="m155.2 210.2c2.2-1 2.6-19-3.3-19.6-1.4-0.1-16.3 8.4-17.6 10.5-0.5 0.8 0.7 1.6 1.2 2.7 0.5 1.2 0.4 2.6 0.9 2.8 0.8 0.4 16 4.8 18.8 3.6z"/><path class="c" d="m154.9 209.5c2-0.9 2.3-17.5-3-17.9-1.3-0.2-15.5 7.7-16.6 9.6-0.5 0.7 1.1 1.5 1.5 2.4 0.5 1.1-0.2 2.2 0.2 2.4 0.8 0.4 15.3 4.7 17.9 3.5z"/><path class="d" d="m139.4 203.6c0.5 1 7.4-1.3 7.6-1.9 0.3-0.6-8 1.3-7.6 1.9z"/><path class="d" d="m144.9 196.2c1.5 0.5 0.9-1.7 3-1 0.4 0.1 0.6 0.5 0.3 0.9-0.1 0.2-0.2 0.4-0.3 0.6-0.3 0.5 0.1 1.1 0.5 1.2 0.4 0.1 0.9 0 1.2-0.4 0.3-0.6 2.8-1.4 3.3-1.3 0.9 0.3 0.1 0.6 0.2 1.2 0.3 0.6 2.3 0.7 1.5 3.1-0.2 0.4 0.2 0.9 0.4 1.5 0.1 0.3-0.3 0.7-0.3 1-0.1 0.2 0 0.5 0 0.6q-0.1 0.1-0.1 0.1c-1.1 0.4-2.8-0.3-3.6 1-0.1 0.3-0.2 0.7-0.4 1-0.6 1.1-1.2 0.1-1.8 1.1-0.1 0.3-0.1 0.6-0.3 0.9-0.1 0.1-0.4 0.3-0.5 0.4q0 0 0 0c0 0.7 1 0.9 1.9 1.2 0.3 0.1 0.8 0.2 1.4 0.3 1.7 0.3 3 0.3 3.6 0 2-0.9 2.4-17.5-3-18-0.6 0-3.6 1.5-7 3.4q0 0-0.1 0.1c-0.2 0.4-0.3 1 0.1 1.1z"/><path class="d" d="m147.3 204.8c0.1 0.2 0.7 0.2 1.3 0 0.6-0.2 1.1-0.6 1-0.8-0.1-0.2-0.7-0.3-1.3-0.1-0.7 0.3-1.1 0.6-1 0.9z"/><path class="d" d="m150.9 197.8c0.1 0.3 0.5 0.5 0.9 0.4 0.4-0.2 0.6-0.5 0.5-0.8-0.1-0.3-0.5-0.5-0.9-0.4-0.3 0.2-0.6 0.5-0.5 0.8z"/><path class="d" d="m143.1 199.1c0.1 0.3 0.9 0.4 1.7 0.1 0.8-0.3 1.4-0.8 1.2-1.1-0.1-0.3-0.8-0.3-1.6 0-0.8 0.2-1.4 0.7-1.3 1z"/><path class="b" d="m136.4 205.1c0.7 0 2.3-0.2 2.2 0.1 0 0.3-2.1 0.4-2.1 0.4z"/><path class="b" d="m134.9 202.2c0.6-0.3 1.7-1.3 1.9-1.1 0.2 0.3-1.4 1.5-1.4 1.5z"/><path class="b" d="m136.1 203.6c0.7-0.1 3.4-0.9 3.4-0.6 0 0.3-3.3 1.1-3.3 1.1z"/><path class="a" d="m100.5 209.2c-1.7 1.9 8.3 20.9 13.8 19.3 1.3-0.3 10.5-13.6 10.7-16.1 0.1-0.9-1.3-1.5-2.2-2.5-1-1.1-1.6-2.6-2.1-2.7-0.9-0.2-18-0.4-20.2 2z"/><path class="b" d="m100.7 209.4c-1.6 1.8 8.1 20.4 13.5 18.9 1.3-0.4 10.3-13.4 10.5-15.8 0.1-0.9-1.3-1.5-2.2-2.4-1-1.1-1.5-2.6-2-2.7-0.9-0.2-17.6-0.4-19.8 2z"/><path class="c" d="m101.2 210.1c-1.5 1.7 7.6 19 12.6 17.6 1.2-0.4 9.9-12.7 10.1-15 0.1-0.8-1.6-1.1-2.4-2-0.9-1-0.8-2.4-1.3-2.5-0.8-0.2-17-0.4-19 1.9z"/><path class="d" d="m119.2 211.5c-0.9-0.8-6 3.8-6 4.5 0.1 0.7 6.7-3.9 6-4.5z"/><path class="d" d="m117.8 220.8c-1.6 0 0 2-2.2 2-0.4 0-0.8-0.2-0.8-0.8 0-0.2 0.1-0.4 0.1-0.7 0-0.6-0.6-0.9-1.1-0.9-0.4 0-0.8 0.2-0.8 0.8 0 0.7-1.9 2.4-2.4 2.4-1 0-0.4-0.6-0.8-1.1-0.6-0.6-2.6 0-3-2.7-0.1-0.5-0.8-0.9-1.3-1.4-0.3-0.3-0.1-0.8-0.3-1.2 0-0.2-0.3-0.5-0.3-0.6q0-0.1 0.1-0.1c0.8-0.8 2.9-0.7 2.9-2.3 0-0.4-0.2-0.8-0.2-1.3 0-1.3 1.1-0.5 1.1-1.7 0-0.5-0.1-0.8-0.1-1.2 0-0.2 0.3-0.4 0.3-0.6q0 0-0.1 0c-0.3-0.8-1.5-0.7-2.6-0.7-0.2 0-0.8 0-1.5 0-1.8 0.3-3.2 0.7-3.7 1.3-1.5 1.7 7.6 19 12.6 17.6 0.6-0.1 2.5-2.6 4.6-5.5q0-0.1 0-0.2c0-0.5-0.1-1.1-0.5-1.1z"/><path class="d" d="m110.7 211c0-0.2-0.3-0.3-0.6-0.3-0.4 0.1-0.6 0.3-0.6 0.4 0 0.2 0.3 0.4 0.7 0.3 0.3 0 0.6-0.2 0.5-0.4z"/><path class="d" d="m116.3 220.4c-0.2-0.1-0.4 0.1-0.6 0.4-0.2 0.3-0.2 0.6 0 0.7 0.1 0.1 0.4-0.1 0.6-0.4 0.2-0.3 0.2-0.6 0-0.7z"/><path class="d" d="m120 214.5c-0.2-0.1-0.6 0.4-1.1 1.1-0.4 0.7-0.6 1.4-0.5 1.5 0.2 0.1 0.7-0.4 1.1-1.1 0.5-0.8 0.7-1.4 0.5-1.5z"/><path class="c" d="m107 214.1c0-0.3-0.5-0.6-1-0.6-0.6 0-1 0.3-1 0.6 0 0.3 0.4 0.6 1 0.6 0.5 0 1-0.3 1-0.6z"/><path class="c" d="m105.9 209.9c0-0.2-0.2-0.4-0.4-0.4-0.3 0-0.5 0.2-0.5 0.4 0 0.3 0.2 0.5 0.5 0.5 0.2 0 0.4-0.2 0.4-0.5z"/><path class="b" d="m122.6 210.9c-0.9 1.2-1.7 2.8-1.7 2.8l2-2.6z"/><path class="b" d="m121.2 210.1c-1.8 1.2-3.7 3.2-3.7 3.2l4.1-2.8z"/><path class="b" d="m121 208.8c-2 0.7-4.4 2.1-4.4 2.1l4.7-1.6z"/><path class="d" d="m111 220.5c0.3-0.3 1.3-0.9 1.1 0.3-0.3 1.1-0.3 1.3-0.9 1.7-0.6 0.3-0.7 0-0.5-0.5 0.1-0.6-0.1-1.3 0.3-1.5z"/><path class="a" d="m152.5 192c1-2.3-14.8-16.9-19.5-13.6-1.1 0.8-5.2 16.4-4.6 18.8 0.2 0.9 1.7 1 2.9 1.6 1.3 0.7 2.4 2 2.9 1.9 0.9-0.2 17.1-5.7 18.3-8.7z"/><path class="b" d="m152.3 191.9c0.9-2.3-14.5-16.5-19.1-13.2-1.1 0.7-5.2 15.9-4.6 18.3 0.3 0.9 1.7 0.9 2.9 1.6 1.3 0.7 2.3 1.9 2.8 1.8 0.9-0.1 16.7-5.6 18-8.5z"/><path class="c" d="m151.6 191.4c0.8-2.1-13.5-15.4-17.8-12.3-1 0.7-5.1 15.2-4.5 17.4 0.2 0.9 1.9 0.6 2.9 1.1 1.2 0.7 1.6 2 2.1 2 0.8-0.2 16.1-5.4 17.3-8.2z"/><path class="d" d="m134.1 196.1c1.1 0.5 4.4-5.6 4.1-6.3-0.2-0.6-4.9 6-4.1 6.3z"/><path class="d" d="m132.4 186.8c1.5-0.5-0.7-1.8 1.4-2.6 0.3-0.1 0.7 0 0.9 0.5 0.1 0.2 0.1 0.5 0.2 0.7 0.2 0.6 0.9 0.7 1.3 0.6 0.4-0.2 0.7-0.6 0.6-1.1-0.3-0.6 0.9-2.9 1.4-3 1-0.4 0.6 0.3 1.1 0.7 0.8 0.3 2.4-0.9 3.7 1.5 0.3 0.5 1.1 0.6 1.7 0.9 0.4 0.2 0.4 0.7 0.7 1.1 0.1 0.1 0.4 0.3 0.5 0.5q0 0 0 0c-0.5 1.1-2.5 1.7-2 3.2 0.2 0.4 0.4 0.7 0.6 1.1 0.4 1.3-0.9 0.9-0.5 2.1 0.2 0.3 0.4 0.6 0.6 1 0 0.2-0.2 0.5-0.1 0.6q0 0 0 0.1c0.6 0.6 1.7 0.1 2.7-0.2 0.3-0.1 0.8-0.3 1.5-0.6 1.5-0.9 2.7-1.7 3-2.4 0.8-2.1-13.5-15.4-17.8-12.4-0.5 0.3-1.5 3.3-2.5 6.7q0.1 0.1 0.1 0.3c0.1 0.3 0.5 0.9 0.9 0.7z"/><path class="d" d="m142.3 193.7c0 0.2 0.4 0.2 0.7 0.1 0.3-0.2 0.5-0.4 0.4-0.6-0.1-0.2-0.4-0.2-0.7-0.1-0.3 0.2-0.5 0.4-0.4 0.6z"/><path class="d" d="m133.9 186.7c0.2 0.1 0.4-0.2 0.4-0.5 0.1-0.4 0-0.7-0.2-0.7-0.2 0-0.4 0.2-0.4 0.6-0.1 0.3 0 0.6 0.2 0.6z"/><path class="d" d="m132.4 193.6c0.2 0 0.5-0.6 0.6-1.5 0.2-0.8 0.2-1.5 0-1.5-0.2-0.1-0.5 0.6-0.7 1.4-0.1 0.8-0.1 1.5 0.1 1.6z"/><path class="c" d="m144.8 189.6c0.1 0.3 0.6 0.4 1.1 0.2 0.5-0.2 0.9-0.6 0.8-0.9-0.1-0.3-0.6-0.4-1.2-0.2-0.5 0.2-0.8 0.6-0.7 0.9z"/><path class="c" d="m147.2 193.1c0.1 0.2 0.3 0.3 0.6 0.3 0.2-0.1 0.3-0.4 0.2-0.6-0.1-0.2-0.3-0.3-0.5-0.3-0.3 0.1-0.4 0.4-0.3 0.6z"/><path class="b" d="m131.2 197.8c0.4-1.4 0.6-3.2 0.6-3.2l-1 3.2z"/><path class="b" d="m132.7 198.1c1.3-1.8 2.4-4.3 2.4-4.3l-2.9 4.1z"/><path class="b" d="m133.4 199.3c1.6-1.4 3.4-3.5 3.4-3.5l-3.9 3.1z"/><path class="d" d="m138.9 184.9c-0.2 0.3-1 1.3-1.2 0.1-0.1-1.2-0.2-1.4 0.3-1.9 0.4-0.5 0.6-0.3 0.7 0.3 0 0.6 0.5 1.1 0.2 1.5z"/><path class="a" d="m141.1 229.6c2.3 1.1 16.2-13.4 13.2-18-0.8-1.1-15.4-6.4-17.9-6.1-0.9 0.2-1 1.6-1.6 2.6-0.8 1.2-2.1 2.1-2.1 2.6 0.1 0.9 5.3 17.5 8.4 18.9z"/><path class="b" d="m141.1 229.4c2.3 1 16-13.2 12.9-17.7-0.7-1-15-6.2-17.4-5.9-0.9 0.1-1 1.5-1.6 2.5-0.8 1.2-2.1 2.1-2 2.6 0.1 0.9 5.1 17.1 8.1 18.5z"/><path class="c" d="m141.6 228.7c2.1 0.9 14.9-12.3 12.1-16.5-0.7-0.9-14.4-6.1-16.6-5.8-0.9 0.2-0.6 1.8-1.2 2.7-0.7 1.1-2.1 1.4-2 1.8 0.1 0.9 4.9 16.5 7.7 17.8z"/><path class="d" d="m137.3 211.1c-0.5 1 5.5 4.7 6.2 4.5 0.6-0.2-5.8-5.3-6.2-4.5z"/><path class="d" d="m146.4 210.2c0.5 1.5 1.8-0.4 2.5 1.6 0.1 0.3 0 0.7-0.5 0.8-0.2 0.1-0.4 0.1-0.6 0.2-0.6 0.1-0.7 0.7-0.6 1.2 0.1 0.3 0.5 0.7 1 0.5 0.6-0.1 2.7 1.2 2.9 1.6 0.3 1-0.3 0.6-0.7 1-0.3 0.7 0.8 2.4-1.4 3.5-0.5 0.2-0.6 0.9-0.9 1.5-0.2 0.4-0.7 0.4-1.1 0.6-0.1 0.1-0.3 0.5-0.5 0.5q0 0 0 0c-1.1-0.6-1.6-2.5-3.1-2.1-0.4 0.1-0.7 0.3-1.1 0.4-1.3 0.4-0.9-0.8-2.1-0.5-0.3 0.1-0.6 0.4-1 0.5-0.2 0-0.5-0.2-0.6-0.1q-0.1 0-0.1 0c-0.6 0.5-0.2 1.6 0.1 2.7 0.1 0.3 0.3 0.8 0.6 1.5 0.9 1.6 1.7 2.8 2.4 3.2 2.1 0.9 14.8-12.3 12-16.5-0.3-0.4-3-1.6-6.2-2.8q-0.1 0-0.2 0c-0.4 0.1-0.9 0.4-0.8 0.7z"/><path class="d" d="m139.5 219.2c-0.2 0.1-0.2 0.4 0 0.7 0.1 0.3 0.4 0.5 0.5 0.5 0.2-0.1 0.2-0.4 0.1-0.7-0.1-0.4-0.4-0.6-0.6-0.5z"/><path class="d" d="m146.5 211.7c0 0.2 0.2 0.4 0.5 0.5 0.3 0.1 0.6 0 0.7-0.2 0-0.2-0.2-0.4-0.5-0.5-0.4-0.1-0.7 0-0.7 0.2z"/><path class="d" d="m139.9 209.7c0 0.1 0.6 0.5 1.4 0.7 0.8 0.2 1.5 0.3 1.5 0.1 0.1-0.2-0.5-0.5-1.3-0.7-0.9-0.3-1.5-0.3-1.6-0.1z"/><path class="c" d="m143.6 221.9c-0.3 0.1-0.4 0.6-0.2 1.2 0.1 0.5 0.5 0.9 0.8 0.8 0.4-0.1 0.5-0.6 0.3-1.2-0.2-0.5-0.6-0.8-0.9-0.8z"/><path class="c" d="m140 224.2c-0.2 0-0.3 0.3-0.3 0.5 0.1 0.2 0.4 0.4 0.6 0.3 0.2-0.1 0.4-0.3 0.3-0.6-0.1-0.2-0.3-0.3-0.6-0.2z"/><path class="b" d="m135.7 208.1c1.4 0.5 3.2 0.9 3.2 0.9l-3.1-1.3z"/><path class="b" d="m135.4 209.6c1.7 1.3 4.2 2.7 4.2 2.7l-4-3.2z"/><path class="b" d="m134.2 210.1c1.4 1.7 3.4 3.6 3.4 3.6l-3-4.1z"/><path class="d" d="m148.2 216.6c-0.3-0.3-1.2-1.1-0.1-1.1 1.1-0.1 1.3-0.2 1.8 0.3 0.5 0.5 0.3 0.7-0.2 0.7-0.6-0.1-1.1 0.3-1.5 0.1z"/><path class="a" d="m107.4 185.2c-2.6-0.2-11.9 19.5-7.3 23 1.1 0.9 17.5 0.2 19.6-1.1 0.8-0.5 0.4-2 0.7-3.3 0.3-1.5 1.2-2.9 1-3.4-0.5-0.8-10.7-14.9-14-15.2z"/><path class="b" d="m107.2 185.6c-2.5-0.2-11.6 19-7 22.4 1 0.8 17 0.2 19.1-1.1 0.8-0.5 0.4-1.9 0.7-3.2 0.2-1.5 1.1-2.8 0.9-3.3-0.4-0.8-10.4-14.5-13.7-14.8z"/><path class="c" d="m107.1 186.5c-2.2-0.2-10.6 17.5-6.5 20.7 1 0.7 16.1 0.3 18-0.9 0.8-0.4 0-1.9 0.2-3.1 0.3-1.4 1.5-2.1 1.3-2.6-0.4-0.7-10-13.8-13-14.1z"/><path class="d" d="m116.8 201.8c0.2-1.2-6.7-2.5-7.2-2.1-0.5 0.5 7.1 3 7.2 2.1z"/><path class="d" d="m108.5 206.3c-1-1.3-1.6 1.2-2.9-0.6-0.3-0.3-0.3-0.7 0.1-1.1 0.2-0.1 0.5-0.2 0.6-0.4 0.5-0.3 0.5-1 0.2-1.4-0.2-0.3-0.7-0.5-1.2-0.2-0.5 0.4-3-0.1-3.3-0.4-0.6-0.9 0.1-0.7 0.4-1.3 0.1-0.8-1.6-2.1 0.3-4 0.4-0.4 0.2-1.2 0.3-1.9 0.1-0.4 0.6-0.6 0.9-0.9 0.1-0.2 0.2-0.6 0.3-0.7q0 0 0.1 0c1.1 0.2 2.3 1.9 3.6 0.9 0.3-0.2 0.5-0.6 0.9-0.8 1.1-0.8 1.1 0.5 2.1-0.2 0.3-0.2 0.5-0.6 0.8-0.8 0.1-0.1 0.5-0.1 0.6-0.1q0-0.1 0-0.1c0.4-0.7-0.3-1.6-1-2.5-0.1-0.2-0.5-0.7-1-1.2-1.3-1.2-2.4-2.1-3.1-2.2-2.3-0.2-10.7 17.5-6.5 20.7 0.4 0.3 3.5 0.4 7.1 0.3q0.1 0 0.2-0.1c0.3-0.2 0.7-0.7 0.5-1z"/><path class="d" d="m111 196.4c0.1-0.3-0.4-0.7-1-0.8-0.7-0.1-1.2 0-1.3 0.3 0 0.3 0.4 0.7 1.1 0.8 0.6 0.1 1.2 0 1.2-0.3z"/><path class="d" d="m104.4 201.6c0.1-0.4-0.2-0.8-0.6-0.8-0.3-0.1-0.7 0.1-0.8 0.5 0 0.4 0.2 0.7 0.6 0.8 0.3 0.1 0.7-0.2 0.8-0.5z"/><path class="d" d="m111.4 204.4c0-0.4-0.5-0.8-1.3-1-0.8-0.1-1.5 0-1.6 0.4 0 0.4 0.5 0.8 1.3 0.9 0.8 0.2 1.5 0 1.6-0.3z"/><path class="b" d="m119.9 202c-0.5-0.4-1.8-1-1.6-1.3 0.2-0.3 1.9 0.7 1.9 0.7z"/><path class="b" d="m119.5 205.5c-0.7 0.1-2.1 0.5-2.1 0.1 0-0.3 1.9-0.7 1.9-0.7z"/><path class="b" d="m119.4 203.6c-0.6-0.2-3.2-0.9-3-1.2 0.1-0.3 3.1 0.6 3.1 0.6z"/><path class="a" d="m132.8 177.4c-1.2-2.2-22.8 0.6-23.3 6.5 0 1.3 9.4 14.7 11.7 15.8 0.9 0.4 1.9-0.8 3.1-1.3 1.5-0.6 3.1-0.6 3.4-1 0.5-0.8 6.6-17.1 5.1-20z"/><path class="b" d="m132.4 177.4c-1.2-2.1-22.3 0.7-22.7 6.4-0.1 1.3 9.2 14.4 11.4 15.4 0.9 0.4 1.8-0.7 3-1.2 1.5-0.5 3-0.5 3.3-1 0.5-0.8 6.5-16.7 5-19.6z"/><path class="c" d="m131.5 177.9c-1-2-20.4 0.6-20.8 5.8-0.1 1.3 8.5 13.7 10.6 14.6 0.7 0.4 1.6-1.1 2.7-1.5 1.3-0.5 2.5 0 2.8-0.4 0.4-0.7 6.2-15.8 4.7-18.5z"/><path class="d" d="m124 194.4c1.1-0.6-1.5-7-2.2-7.2-0.6-0.2 1.4 7.6 2.2 7.2z"/><path class="d" d="m115.8 189.8c0.5-1.5-1.9-0.7-1.2-2.8 0.2-0.3 0.5-0.6 1-0.4 0.2 0.1 0.5 0.2 0.7 0.3 0.5 0.2 1.1-0.2 1.3-0.6 0.1-0.4 0-0.9-0.5-1.1-0.7-0.3-1.6-2.6-1.4-3.1 0.3-0.9 0.6-0.2 1.2-0.4 0.8-0.3 0.9-2.4 3.6-1.9 0.5 0.1 1.1-0.4 1.7-0.7 0.4-0.1 0.8 0.2 1.3 0.2 0.2 0 0.5-0.1 0.7-0.1q0 0 0 0.1c0.5 1-0.3 2.9 1.2 3.5 0.4 0.1 0.8 0.1 1.2 0.3 1.3 0.5 0.2 1.2 1.3 1.6 0.4 0.2 0.8 0.1 1.1 0.2 0.2 0.1 0.4 0.5 0.5 0.5q0 0 0 0c0.9 0 1.2-1.1 1.6-2.2 0.1-0.2 0.3-0.8 0.5-1.5 0.3-1.8 0.4-3.2 0-3.8-1-2-20.4 0.5-20.8 5.8-0.1 0.5 1.6 3.2 3.6 6.2q0.1 0 0.2 0.1c0.4 0.1 1 0.2 1.2-0.2z"/><path class="d" d="m125.5 186.5c0.2-0.1 0.3-0.7 0-1.3-0.2-0.6-0.7-1-0.9-0.9-0.3 0.2-0.4 0.7-0.1 1.4 0.2 0.6 0.7 1 1 0.8z"/><path class="d" d="m117.5 183.8c0.3-0.1 0.5-0.5 0.3-0.9-0.1-0.3-0.5-0.5-0.9-0.4-0.3 0.2-0.5 0.6-0.3 0.9 0.1 0.4 0.5 0.5 0.9 0.4z"/><path class="d" d="m118.9 191.2c0.4-0.2 0.4-0.9 0.1-1.6-0.3-0.8-0.8-1.2-1.2-1.1-0.3 0.1-0.3 0.9 0 1.6 0.3 0.7 0.8 1.2 1.1 1.1z"/><path class="b" d="m125.6 197c0-0.6-0.2-2 0.2-2 0.3 0 0.4 2 0.4 2z"/><path class="b" d="m122.4 198.6c-0.4-0.5-1.5-1.5-1.3-1.7 0.3-0.2 1.7 1.3 1.7 1.3z"/><path class="b" d="m123.9 197.5c-0.1-0.7-0.9-3.2-0.6-3.2 0.4-0.1 1.2 3 1.2 3z"/><path class="a" d="m115.2 230.1c0.5 2.5 22.1 5.5 24.1 0 0.4-1.3-5.1-16.7-7-18.3-0.7-0.7-2 0.2-3.3 0.3-1.6 0.2-3.2-0.3-3.5 0.1-0.7 0.7-11.1 14.6-10.3 17.9z"/><path class="b" d="m115.5 230.1c0.5 2.5 21.6 5.4 23.6 0 0.4-1.2-4.9-16.3-6.8-17.9-0.7-0.6-2 0.2-3.3 0.3-1.5 0.2-3-0.2-3.4 0.1-0.7 0.7-10.8 14.4-10.1 17.5z"/><path class="c" d="m116.5 229.9c0.5 2.2 19.8 5 21.6 0 0.4-1.1-4.5-15.4-6.2-16.9-0.7-0.5-1.9 0.6-3 0.8-1.4 0.1-2.5-0.7-2.8-0.4-0.7 0.6-10.3 13.6-9.6 16.5z"/><path class="d" d="m128.2 216.1c-1.2 0.2-0.5 7.2 0.1 7.5 0.6 0.4 0.7-7.7-0.1-7.5z"/><path class="d" d="m134.9 222.7c-1 1.3 1.6 1.2 0.3 3-0.2 0.3-0.6 0.4-1.1 0.1-0.1-0.1-0.3-0.3-0.5-0.4-0.5-0.4-1.1-0.1-1.4 0.3-0.2 0.3-0.3 0.8 0.2 1.1 0.5 0.4 0.8 3 0.5 3.4-0.6 0.8-0.7 0-1.3 0-0.8 0.1-1.5 2.1-3.9 0.9-0.5-0.3-1.2 0.1-1.9 0.2-0.5 0-0.8-0.4-1.2-0.5-0.2-0.1-0.6-0.1-0.7-0.1q0-0.1 0-0.1c-0.2-1.2 1.1-2.7-0.2-3.7-0.4-0.2-0.7-0.4-1.1-0.6-1.1-0.8 0.2-1.3-0.8-2-0.3-0.2-0.7-0.3-1-0.5-0.2-0.1-0.2-0.5-0.3-0.6q-0.1 0-0.1 0c-0.8-0.1-1.4 0.8-2.1 1.7-0.1 0.2-0.5 0.7-0.8 1.3-0.8 1.7-1.3 3-1.1 3.7 0.4 2.2 19.8 5 21.6 0.1 0.2-0.5-0.6-3.6-1.8-7q-0.1 0-0.2-0.1c-0.3-0.3-0.9-0.5-1.1-0.2z"/><path class="d" d="m124.7 223.2c-0.3 0.1-0.5 0.6-0.5 1.3 0.1 0.6 0.4 1.1 0.7 1.1 0.3 0 0.5-0.6 0.5-1.2-0.1-0.7-0.4-1.2-0.7-1.2z"/><path class="d" d="m131.6 228.1c-0.3 0-0.6 0.3-0.6 0.7 0.1 0.4 0.4 0.7 0.8 0.6 0.4 0 0.6-0.4 0.6-0.7-0.1-0.4-0.4-0.7-0.8-0.6z"/><path class="d" d="m132.2 220.6c-0.4 0-0.6 0.7-0.5 1.5 0.1 0.8 0.5 1.4 0.8 1.3 0.4 0 0.6-0.7 0.5-1.5-0.1-0.8-0.4-1.4-0.8-1.3z"/><path class="b" d="m127.3 213.1c-0.1 0.6-0.3 2-0.7 1.9-0.3-0.1 0.2-2 0.2-2z"/><path class="b" d="m130.9 212.5c0.3 0.6 1 1.8 0.7 1.9-0.3 0.1-1.2-1.6-1.2-1.6z"/><path class="b" d="m129.1 213.2c0 0.6 0.1 3.2-0.3 3.2-0.3-0.1-0.3-3.2-0.3-3.2z"/><path class="a" d="m221.5 140.6c2.2-1 2.6-19.5-3.4-20-1.4-0.2-16.7 8.6-18 10.7-0.5 0.8 0.7 1.7 1.2 2.8 0.5 1.2 0.5 2.6 0.9 2.8 0.9 0.5 16.4 5 19.3 3.7z"/><path class="b" d="m221.5 140.3c2.2-1 2.5-19-3.3-19.5-1.4-0.2-16.4 8.4-17.7 10.4-0.4 0.8 0.8 1.7 1.2 2.7 0.6 1.2 0.5 2.6 0.9 2.8 0.9 0.4 16 4.8 18.9 3.6z"/><path class="c" d="m221.2 139.6c2-0.8 2.3-17.4-3.1-17.9-1.3-0.1-15.4 7.8-16.6 9.7-0.4 0.6 1.1 1.4 1.5 2.3 0.5 1.2-0.1 2.3 0.3 2.5 0.7 0.3 15.2 4.6 17.9 3.4z"/><path class="d" d="m205.6 133.8c0.5 0.9 7.4-1.4 7.7-2 0.2-0.6-8 1.3-7.7 2z"/><path class="d" d="m211.1 126.3c1.6 0.6 1-1.7 3.1-1 0.3 0.2 0.5 0.5 0.3 1-0.1 0.2-0.3 0.4-0.4 0.6-0.2 0.5 0.1 1 0.6 1.1 0.3 0.1 0.9 0 1.1-0.4 0.3-0.6 2.9-1.4 3.3-1.3 1 0.4 0.2 0.6 0.3 1.2 0.2 0.7 2.3 0.8 1.4 3.1-0.2 0.5 0.3 1 0.5 1.5 0 0.3-0.3 0.7-0.4 1.1 0 0.1 0.1 0.4 0 0.5q0 0.1 0 0.1c-1.1 0.4-2.9-0.3-3.6 1-0.2 0.3-0.3 0.7-0.5 1-0.6 1.1-1.2 0.2-1.7 1.1-0.2 0.3-0.2 0.6-0.3 0.9-0.1 0.2-0.5 0.3-0.6 0.4q0 0 0 0c0 0.7 1.1 1 2 1.2 0.2 0.1 0.7 0.2 1.4 0.4 1.6 0.2 2.9 0.2 3.6-0.1 2-0.9 2.3-17.5-3.1-17.9-0.5-0.1-3.6 1.4-6.9 3.3q-0.1 0.1-0.1 0.2c-0.2 0.3-0.4 0.9 0 1z"/><path class="d" d="m213.5 134.9c0.1 0.2 0.7 0.3 1.3 0 0.7-0.2 1.1-0.5 1-0.8-0.1-0.2-0.6-0.2-1.3 0-0.6 0.2-1 0.6-1 0.8z"/><path class="d" d="m217.2 127.9c0.1 0.4 0.5 0.5 0.9 0.4 0.3-0.1 0.6-0.5 0.5-0.8-0.1-0.3-0.5-0.5-0.9-0.3-0.4 0.1-0.6 0.4-0.5 0.7z"/><path class="d" d="m209.4 129.2c0.1 0.3 0.8 0.4 1.6 0.1 0.9-0.3 1.4-0.7 1.3-1-0.1-0.4-0.9-0.4-1.7-0.1-0.8 0.3-1.3 0.7-1.2 1z"/><path class="b" d="m202.7 135.2c0.7 0 2.2-0.2 2.2 0.1-0.1 0.3-2.2 0.4-2.2 0.4z"/><path class="b" d="m201.2 132.3c0.5-0.3 1.6-1.3 1.9-1.1 0.2 0.3-1.5 1.5-1.5 1.5z"/><path class="b" d="m202.3 133.7c0.7-0.1 3.4-0.8 3.4-0.5 0.1 0.3-3.2 1-3.2 1z"/><path class="a" d="m166.7 139.4c-1.6 1.8 8.3 20.9 13.9 19.3 1.3-0.4 10.4-13.7 10.6-16.2 0.1-0.9-1.3-1.5-2.1-2.4-1.1-1.2-1.6-2.7-2.1-2.8-1-0.2-18.1-0.4-20.3 2.1z"/><path class="b" d="m167 139.5c-1.7 1.8 8.1 20.4 13.5 18.9 1.3-0.4 10.2-13.3 10.4-15.8 0.1-0.9-1.3-1.4-2.1-2.4-1-1.1-1.5-2.6-2-2.7-0.9-0.2-17.7-0.4-19.8 2z"/><path class="c" d="m167.5 140.2c-1.6 1.7 7.5 19 12.6 17.6 1.1-0.4 9.9-12.6 10.1-14.9 0.1-0.9-1.6-1.2-2.4-2.1-0.9-1-0.9-2.4-1.3-2.5-0.9-0.1-17-0.3-19 1.9z"/><path class="d" d="m185.5 141.6c-0.9-0.8-6.1 3.9-6 4.6 0 0.6 6.6-4 6-4.6z"/><path class="d" d="m184 151c-1.6 0 0 2-2.2 2-0.4 0-0.7-0.3-0.7-0.8 0-0.3 0-0.5 0-0.7 0-0.6-0.6-1-1-1-0.4 0-0.9 0.3-0.9 0.8 0 0.7-1.9 2.4-2.3 2.4-1.1 0-0.5-0.5-0.9-1.1-0.5-0.6-2.5 0-3-2.6 0-0.6-0.7-0.9-1.2-1.4-0.3-0.4-0.2-0.9-0.3-1.3-0.1-0.2-0.3-0.5-0.3-0.6q0-0.1 0-0.1c0.9-0.8 2.9-0.7 2.9-2.3 0-0.4-0.1-0.8-0.1-1.2 0-1.4 1.1-0.6 1.1-1.8 0-0.4-0.2-0.8-0.2-1.2 0-0.2 0.3-0.4 0.3-0.5q0-0.1 0-0.1c-0.3-0.8-1.5-0.7-2.6-0.7-0.3 0-0.9 0-1.6 0.1-1.8 0.3-3.1 0.7-3.6 1.2-1.5 1.7 7.5 19.1 12.6 17.6 0.5-0.1 2.5-2.6 4.6-5.5q0-0.1 0-0.2c0-0.4-0.1-1-0.6-1z"/><path class="d" d="m177 141.2c0-0.2-0.3-0.4-0.7-0.3-0.3 0-0.6 0.2-0.5 0.4 0 0.2 0.3 0.3 0.6 0.3 0.4-0.1 0.6-0.3 0.6-0.4z"/><path class="d" d="m182.6 150.5c-0.2-0.1-0.5 0.1-0.7 0.4-0.1 0.3-0.1 0.6 0 0.7 0.2 0.1 0.5 0 0.6-0.3 0.2-0.3 0.2-0.7 0.1-0.8z"/><path class="d" d="m186.3 144.6c-0.2-0.1-0.7 0.4-1.1 1.1-0.5 0.8-0.7 1.4-0.5 1.5 0.2 0.1 0.7-0.4 1.1-1.1 0.4-0.7 0.6-1.4 0.5-1.5z"/><path class="c" d="m173.2 144.2c0-0.3-0.4-0.6-1-0.6-0.5 0-1 0.3-1 0.6 0 0.3 0.5 0.6 1 0.6 0.6 0 1-0.3 1-0.6z"/><path class="c" d="m172.2 140.1c0-0.3-0.2-0.5-0.5-0.5-0.2 0-0.4 0.2-0.4 0.5 0 0.2 0.2 0.4 0.4 0.4 0.3 0 0.5-0.2 0.5-0.4z"/><path class="b" d="m188.8 141c-0.8 1.2-1.6 2.8-1.6 2.8l2-2.6z"/><path class="b" d="m187.5 140.2c-1.8 1.3-3.7 3.3-3.7 3.3l4.1-2.9z"/><path class="b" d="m187.3 138.9c-2.1 0.8-4.5 2.2-4.5 2.2l4.8-1.6z"/><path class="d" d="m177.2 150.6c0.3-0.3 1.4-0.9 1.1 0.3-0.2 1.1-0.2 1.3-0.8 1.7-0.6 0.4-0.7 0.1-0.6-0.5 0.2-0.6-0.1-1.2 0.3-1.5z"/><path class="a" d="m218.8 122.1c1-2.3-14.8-16.9-19.5-13.6-1.1 0.8-5.3 16.4-4.7 18.8 0.3 0.9 1.8 1 2.9 1.6 1.4 0.7 2.4 2 2.9 1.9 1-0.1 17.2-5.7 18.4-8.7z"/><path class="b" d="m218.5 122c1-2.3-14.5-16.5-19-13.2-1.1 0.7-5.2 16-4.6 18.3 0.2 0.9 1.7 1 2.8 1.6 1.3 0.7 2.3 1.9 2.8 1.8 1-0.1 16.8-5.5 18-8.5z"/><path class="c" d="m217.8 121.5c0.9-2.1-13.5-15.4-17.7-12.3-1.1 0.7-5.1 15.2-4.6 17.5 0.3 0.8 1.9 0.5 2.9 1.1 1.3 0.6 1.7 1.9 2.1 1.9 0.9-0.1 16.2-5.4 17.3-8.2z"/><path class="d" d="m200.4 126.2c1.1 0.5 4.4-5.6 4.1-6.2-0.3-0.7-4.9 5.9-4.1 6.2z"/><path class="d" d="m198.6 117c1.5-0.6-0.7-1.9 1.4-2.7 0.4-0.1 0.8 0 1 0.5 0 0.2 0.1 0.5 0.2 0.7 0.2 0.6 0.9 0.7 1.3 0.6 0.4-0.1 0.7-0.6 0.5-1.1-0.2-0.6 1-2.9 1.5-3 0.9-0.4 0.5 0.3 1.1 0.7 0.7 0.4 2.4-0.9 3.7 1.5 0.2 0.5 1 0.6 1.6 0.9 0.4 0.2 0.5 0.7 0.7 1.1 0.1 0.1 0.5 0.4 0.5 0.5q0.1 0 0 0.1c-0.5 1-2.5 1.6-1.9 3.1 0.1 0.4 0.4 0.7 0.5 1.1 0.5 1.3-0.8 0.9-0.4 2.1 0.1 0.4 0.4 0.6 0.5 1 0.1 0.2-0.1 0.5-0.1 0.6q0.1 0.1 0.1 0.1c0.6 0.6 1.6 0.2 2.7-0.2 0.2-0.1 0.8-0.3 1.4-0.6 1.6-0.9 2.7-1.7 3-2.4 0.9-2.1-13.5-15.4-17.8-12.4-0.4 0.3-1.4 3.3-2.4 6.8q0 0.1 0 0.2c0.2 0.4 0.5 0.9 0.9 0.8z"/><path class="d" d="m208.5 123.8c0.1 0.2 0.4 0.2 0.7 0.1 0.3-0.2 0.5-0.4 0.4-0.6 0-0.2-0.4-0.2-0.7 0-0.3 0.1-0.5 0.4-0.4 0.5z"/><path class="d" d="m200.1 116.9c0.2 0 0.4-0.2 0.5-0.6 0.1-0.3 0-0.6-0.2-0.7-0.2 0-0.4 0.2-0.5 0.6 0 0.3 0.1 0.6 0.2 0.7z"/><path class="d" d="m198.6 123.7c0.2 0 0.5-0.6 0.7-1.4 0.1-0.9 0.1-1.6-0.1-1.6-0.2 0-0.4 0.6-0.6 1.4-0.2 0.9-0.1 1.6 0 1.6z"/><path class="c" d="m211 119.7c0.1 0.3 0.7 0.4 1.2 0.2 0.5-0.2 0.8-0.6 0.7-0.9-0.1-0.3-0.6-0.4-1.1-0.2-0.5 0.2-0.9 0.6-0.8 0.9z"/><path class="c" d="m213.5 123.2c0 0.3 0.3 0.4 0.5 0.3 0.2-0.1 0.4-0.3 0.3-0.6-0.1-0.2-0.4-0.3-0.6-0.2-0.2 0.1-0.3 0.3-0.2 0.5z"/><path class="b" d="m197.4 127.9c0.4-1.3 0.6-3.1 0.6-3.1l-1 3.1z"/><path class="b" d="m199 128.3c1.2-1.8 2.4-4.4 2.4-4.4l-3 4.1z"/><path class="b" d="m199.6 129.4c1.7-1.4 3.5-3.5 3.5-3.5l-4 3.1z"/><path class="d" d="m205.2 115c-0.3 0.4-1.1 1.3-1.2 0.1-0.1-1.1-0.2-1.3 0.2-1.9 0.5-0.5 0.7-0.3 0.7 0.3 0.1 0.6 0.5 1.1 0.3 1.5z"/><path class="a" d="m207.3 159.8c2.3 1 16.3-13.5 13.2-18.1-0.7-1.1-15.4-6.4-17.8-6-0.9 0.1-1 1.5-1.7 2.5-0.8 1.3-2.1 2.1-2 2.6 0.1 1 5.2 17.5 8.3 19z"/><path class="b" d="m207.4 159.5c2.3 1 15.9-13.2 12.9-17.7-0.7-1-15.1-6.2-17.4-5.9-0.9 0.2-1 1.5-1.7 2.5-0.7 1.2-2 2.1-2 2.6 0.1 0.9 5.2 17.1 8.2 18.5z"/><path class="c" d="m207.9 158.8c2.1 0.9 14.8-12.3 12-16.4-0.6-1-14.4-6.1-16.6-5.8-0.8 0.1-0.6 1.7-1.2 2.6-0.7 1.1-2 1.4-2 1.9 0.1 0.8 5 16.4 7.8 17.7z"/><path class="d" d="m203.6 141.2c-0.5 1 5.5 4.7 6.1 4.5 0.6-0.2-5.7-5.2-6.1-4.5z"/><path class="d" d="m212.7 140.4c0.5 1.4 1.8-0.5 2.5 1.5 0.1 0.4 0 0.7-0.5 0.9-0.2 0-0.5 0-0.7 0.1-0.5 0.1-0.7 0.8-0.5 1.2 0.1 0.3 0.5 0.7 1 0.6 0.6-0.2 2.7 1.1 2.8 1.5 0.4 1-0.3 0.6-0.6 1.1-0.4 0.6 0.8 2.3-1.5 3.4-0.5 0.2-0.6 1-0.9 1.6-0.2 0.3-0.7 0.3-1 0.6-0.2 0.1-0.4 0.4-0.5 0.4q0 0-0.1 0c-1-0.5-1.5-2.5-3-2.1-0.4 0.1-0.8 0.4-1.2 0.5-1.3 0.3-0.8-0.9-2-0.6-0.4 0.1-0.7 0.4-1 0.5-0.2 0-0.6-0.2-0.7-0.1q0 0 0 0c-0.7 0.5-0.3 1.6 0.1 2.7 0.1 0.3 0.3 0.8 0.6 1.5 0.8 1.7 1.6 2.9 2.3 3.2 2.1 0.9 14.9-12.3 12.1-16.5-0.3-0.4-3.1-1.6-6.3-2.8q-0.1 0-0.2 0c-0.3 0.1-0.8 0.4-0.7 0.8z"/><path class="d" d="m205.8 149.3c-0.2 0.1-0.2 0.4-0.1 0.7 0.2 0.3 0.4 0.5 0.6 0.5 0.2-0.1 0.2-0.4 0.1-0.7-0.2-0.3-0.4-0.5-0.6-0.5z"/><path class="d" d="m212.8 141.8c-0.1 0.2 0.2 0.4 0.5 0.5 0.3 0.1 0.6 0 0.6-0.2 0.1-0.1-0.2-0.4-0.5-0.4-0.3-0.1-0.6-0.1-0.6 0.1z"/><path class="d" d="m206.2 139.8c-0.1 0.2 0.6 0.5 1.4 0.7 0.8 0.2 1.5 0.3 1.5 0.1 0-0.2-0.6-0.5-1.4-0.7-0.8-0.2-1.5-0.3-1.5-0.1z"/><path class="c" d="m209.9 152.1c-0.3 0.1-0.4 0.6-0.3 1.1 0.2 0.5 0.6 0.9 0.9 0.8 0.3-0.1 0.4-0.6 0.2-1.1-0.1-0.6-0.5-0.9-0.8-0.8z"/><path class="c" d="m206.3 154.3c-0.3 0-0.4 0.3-0.3 0.5 0.1 0.3 0.3 0.4 0.6 0.3 0.2-0.1 0.3-0.3 0.2-0.5 0-0.3-0.3-0.4-0.5-0.3z"/><path class="b" d="m202 138.2c1.4 0.5 3.1 0.9 3.1 0.9l-3-1.3z"/><path class="b" d="m201.6 139.7c1.8 1.4 4.3 2.7 4.3 2.7l-4-3.2z"/><path class="b" d="m200.4 140.2c1.4 1.7 3.5 3.6 3.5 3.6l-3-4z"/><path class="d" d="m214.5 146.7c-0.4-0.3-1.2-1.1-0.1-1.1 1.1-0.1 1.3-0.1 1.8 0.3 0.5 0.5 0.3 0.7-0.3 0.7-0.5 0-1.1 0.4-1.4 0.1z"/><path class="a" d="m173.6 115.4c-2.5-0.3-11.9 19.4-7.2 23 1.1 0.8 17.4 0.1 19.6-1.2 0.8-0.5 0.4-2 0.6-3.3 0.3-1.5 1.2-2.9 1-3.4-0.4-0.8-10.7-14.8-14-15.1z"/><path class="b" d="m173.5 115.7c-2.5-0.2-11.6 19-7.1 22.5 1.1 0.8 17.1 0.1 19.2-1.2 0.8-0.5 0.4-1.9 0.6-3.1 0.3-1.5 1.2-2.9 0.9-3.3-0.4-0.9-10.4-14.6-13.6-14.9z"/><path class="c" d="m173.4 116.7c-2.3-0.2-10.7 17.4-6.5 20.6 1 0.8 16 0.3 18-0.9 0.7-0.4 0-1.9 0.2-3.1 0.3-1.3 1.4-2.1 1.2-2.5-0.4-0.8-9.9-13.9-12.9-14.1z"/><path class="d" d="m183.1 132c0.1-1.3-6.7-2.6-7.3-2.1-0.5 0.4 7.2 2.9 7.3 2.1z"/><path class="d" d="m174.7 136.4c-0.9-1.3-1.6 1.2-2.9-0.6-0.2-0.3-0.2-0.7 0.2-1 0.2-0.2 0.4-0.3 0.6-0.4 0.5-0.4 0.4-1.1 0.1-1.5-0.2-0.3-0.7-0.5-1.1-0.1-0.6 0.4-3.1-0.1-3.4-0.5-0.6-0.8 0.2-0.7 0.4-1.3 0.1-0.8-1.5-2 0.3-4 0.4-0.4 0.3-1.2 0.4-1.8 0.1-0.5 0.6-0.7 0.8-1 0.1-0.2 0.2-0.6 0.4-0.6q0-0.1 0-0.1c1.2 0.2 2.3 1.9 3.6 0.9 0.3-0.2 0.6-0.5 0.9-0.8 1.1-0.8 1.1 0.6 2.1-0.2 0.3-0.2 0.5-0.6 0.8-0.8 0.2-0.1 0.5 0 0.7-0.1q0 0 0-0.1c0.4-0.7-0.3-1.6-1-2.5-0.2-0.2-0.5-0.6-1-1.2-1.3-1.2-2.4-2.1-3.2-2.1-2.3-0.2-10.7 17.4-6.5 20.6 0.4 0.4 3.6 0.5 7.2 0.4q0.1-0.1 0.1-0.2c0.4-0.2 0.8-0.7 0.5-1z"/><path class="d" d="m177.3 126.5c0.1-0.3-0.4-0.7-1.1-0.8-0.6-0.1-1.2 0-1.2 0.3-0.1 0.3 0.4 0.7 1 0.8 0.7 0.1 1.2 0 1.3-0.3z"/><path class="d" d="m170.6 131.7c0.1-0.4-0.1-0.7-0.5-0.8-0.4-0.1-0.8 0.2-0.8 0.5-0.1 0.4 0.2 0.7 0.5 0.8 0.4 0.1 0.8-0.1 0.8-0.5z"/><path class="d" d="m177.6 134.5c0.1-0.4-0.5-0.8-1.3-0.9-0.8-0.2-1.4 0-1.5 0.3-0.1 0.4 0.5 0.8 1.3 1 0.8 0.1 1.5-0.1 1.5-0.4z"/><path class="b" d="m186.2 132.1c-0.5-0.4-1.9-1-1.6-1.3 0.2-0.3 1.9 0.8 1.9 0.8z"/><path class="b" d="m185.7 135.6c-0.6 0.1-2 0.5-2 0.2-0.1-0.4 1.9-0.7 1.9-0.7z"/><path class="b" d="m185.6 133.7c-0.6-0.2-3.1-0.9-3-1.2 0.2-0.3 3.2 0.7 3.2 0.7z"/><path class="a" d="m199 107.5c-1.2-2.2-22.8 0.7-23.2 6.5-0.1 1.4 9.4 14.7 11.7 15.8 0.9 0.4 1.9-0.8 3.1-1.2 1.4-0.6 3.1-0.6 3.3-1.1 0.5-0.8 6.7-17 5.1-20z"/><path class="b" d="m198.7 107.6c-1.2-2.2-22.3 0.6-22.7 6.3-0.1 1.4 9.1 14.4 11.4 15.5 0.8 0.4 1.8-0.8 3-1.2 1.4-0.6 3-0.6 3.3-1.1 0.5-0.8 6.5-16.7 5-19.5z"/><path class="c" d="m197.8 108c-1.1-2-20.5 0.6-20.8 5.9-0.1 1.2 8.4 13.6 10.5 14.6 0.8 0.3 1.6-1.1 2.7-1.6 1.3-0.5 2.6 0.1 2.8-0.3 0.5-0.8 6.2-15.9 4.8-18.6z"/><path class="d" d="m190.3 124.5c1.1-0.6-1.6-7-2.2-7.2-0.7-0.2 1.4 7.6 2.2 7.2z"/><path class="d" d="m182 119.9c0.6-1.5-1.9-0.7-1.1-2.7 0.1-0.4 0.5-0.6 1-0.5 0.2 0.1 0.4 0.2 0.6 0.3 0.6 0.2 1.2-0.2 1.3-0.6 0.1-0.4 0-0.9-0.5-1.1-0.6-0.2-1.6-2.6-1.4-3.1 0.4-0.9 0.6-0.2 1.3-0.4 0.7-0.3 0.8-2.4 3.5-1.9 0.6 0.2 1.1-0.4 1.8-0.7 0.4-0.1 0.8 0.2 1.2 0.2 0.2 0 0.6-0.1 0.7-0.1q0.1 0 0.1 0.1c0.5 1-0.4 2.9 1.2 3.5 0.4 0.1 0.8 0.2 1.2 0.3 1.3 0.5 0.1 1.2 1.3 1.6 0.4 0.2 0.7 0.1 1.1 0.3 0.2 0 0.3 0.4 0.5 0.4q0 0 0 0c0.8 0 1.2-1.1 1.6-2.2 0.1-0.2 0.2-0.8 0.4-1.5 0.4-1.7 0.4-3.1 0.1-3.8-1.1-2-20.5 0.6-20.9 5.8 0 0.6 1.6 3.3 3.7 6.2q0.1 0 0.2 0.1c0.4 0.1 1 0.2 1.1-0.2z"/><path class="d" d="m191.7 116.7c0.3-0.1 0.3-0.7 0.1-1.3-0.3-0.7-0.7-1-1-0.9-0.3 0.1-0.3 0.7-0.1 1.3 0.3 0.6 0.7 1 1 0.9z"/><path class="d" d="m183.7 113.9c0.4-0.1 0.5-0.5 0.4-0.9-0.2-0.3-0.6-0.5-0.9-0.4-0.4 0.2-0.5 0.6-0.4 0.9 0.2 0.4 0.6 0.6 0.9 0.4z"/><path class="d" d="m185.2 121.3c0.3-0.1 0.4-0.8 0.1-1.6-0.3-0.7-0.9-1.2-1.2-1.1-0.4 0.2-0.4 0.9-0.1 1.6 0.3 0.8 0.8 1.2 1.2 1.1z"/><path class="b" d="m191.9 127.2c0-0.7-0.2-2.1 0.1-2.1 0.4 0 0.5 2 0.5 2z"/><path class="b" d="m188.6 128.7c-0.4-0.5-1.5-1.4-1.2-1.6 0.3-0.2 1.6 1.2 1.6 1.2z"/><path class="b" d="m190.2 127.6c-0.1-0.6-1-3.1-0.6-3.2 0.3 0 1.1 3 1.1 3z"/><path class="a" d="m181.4 160.2c0.5 2.5 22.1 5.6 24.1 0 0.5-1.2-5-16.6-7-18.3-0.7-0.6-2 0.2-3.3 0.3-1.5 0.2-3.1-0.2-3.5 0.1-0.7 0.7-11 14.7-10.3 17.9z"/><path class="b" d="m181.8 160.3c0.5 2.4 21.6 5.4 23.5 0 0.5-1.3-4.9-16.3-6.8-18-0.7-0.6-1.9 0.2-3.2 0.4-1.5 0.1-3.1-0.3-3.4 0.1-0.7 0.6-10.8 14.3-10.1 17.5z"/><path class="c" d="m182.7 160c0.5 2.3 19.9 5 21.7 0.1 0.4-1.2-4.5-15.4-6.3-17-0.6-0.5-1.8 0.7-3 0.8-1.4 0.1-2.4-0.7-2.8-0.4-0.6 0.6-10.2 13.6-9.6 16.5z"/><path class="d" d="m194.4 146.2c-1.2 0.3-0.4 7.2 0.2 7.5 0.6 0.4 0.7-7.6-0.2-7.5z"/><path class="d" d="m201.1 152.9c-0.9 1.3 1.7 1.1 0.4 2.9-0.3 0.3-0.7 0.5-1.1 0.2-0.2-0.2-0.4-0.4-0.5-0.5-0.5-0.3-1.2-0.1-1.5 0.3-0.2 0.3-0.2 0.8 0.2 1.1 0.6 0.4 0.8 3 0.6 3.4-0.6 0.8-0.7 0-1.4 0-0.8 0.2-1.5 2.1-3.9 0.9-0.5-0.3-1.2 0.1-1.9 0.2-0.4 0-0.7-0.4-1.1-0.5-0.2 0-0.6 0-0.7-0.1q-0.1 0-0.1-0.1c-0.2-1.1 1.2-2.7-0.2-3.7-0.3-0.2-0.7-0.4-1-0.6-1.2-0.8 0.2-1.2-0.8-1.9-0.4-0.3-0.8-0.3-1.1-0.6-0.1-0.1-0.2-0.4-0.3-0.5q0 0 0-0.1c-0.8-0.1-1.5 0.9-2.1 1.7-0.2 0.3-0.5 0.7-0.9 1.4-0.8 1.6-1.2 2.9-1.1 3.6 0.5 2.3 19.9 5 21.7 0.1 0.2-0.5-0.7-3.6-1.8-6.9q-0.1-0.1-0.2-0.2c-0.3-0.2-0.9-0.5-1.2-0.1z"/><path class="d" d="m190.9 153.4c-0.3 0-0.5 0.6-0.4 1.2 0.1 0.7 0.4 1.2 0.7 1.1 0.3 0 0.5-0.6 0.4-1.2-0.1-0.7-0.4-1.2-0.7-1.1z"/><path class="d" d="m197.9 158.2c-0.4 0-0.7 0.4-0.6 0.7 0 0.4 0.4 0.7 0.7 0.7 0.4-0.1 0.7-0.4 0.6-0.8 0-0.4-0.3-0.7-0.7-0.6z"/><path class="d" d="m198.5 150.7c-0.4 0-0.6 0.7-0.5 1.5 0 0.8 0.4 1.4 0.8 1.4 0.4-0.1 0.6-0.8 0.5-1.6-0.1-0.8-0.5-1.4-0.8-1.3z"/><path class="b" d="m193.6 143.2c-0.2 0.6-0.4 2.1-0.7 2-0.3-0.2 0.1-2.1 0.1-2.1z"/><path class="b" d="m197.2 142.6c0.2 0.6 1 1.8 0.7 1.9-0.3 0.2-1.3-1.6-1.3-1.6z"/><path class="b" d="m195.4 143.3c-0.1 0.6 0 3.2-0.3 3.2-0.4-0.1-0.3-3.2-0.3-3.2z"/><path class="a" d="m198.3 39.5c2.2-1 2.6-19.4-3.4-20-1.5-0.1-16.8 8.6-18.1 10.8-0.4 0.7 0.8 1.6 1.3 2.7 0.5 1.3 0.4 2.7 0.9 2.9 0.8 0.4 16.3 4.9 19.3 3.6z"/><path class="b" d="m198.3 39.2c2.1-0.9 2.5-19-3.4-19.5-1.4-0.2-16.3 8.4-17.6 10.5-0.5 0.7 0.7 1.6 1.2 2.6 0.5 1.3 0.5 2.6 0.9 2.8 0.8 0.4 16 4.9 18.9 3.6z"/><path class="c" d="m197.9 38.6c2-0.9 2.3-17.5-3-18-1.3-0.1-15.4 7.8-16.6 9.7-0.4 0.7 1.1 1.4 1.5 2.4 0.5 1.1-0.2 2.2 0.3 2.4 0.7 0.4 15.2 4.6 17.8 3.5z"/><path class="d" d="m182.4 32.7c0.5 0.9 7.4-1.4 7.6-2 0.3-0.5-8 1.3-7.6 2z"/><path class="d" d="m187.9 25.3c1.5 0.5 0.9-1.8 3-1 0.4 0.1 0.6 0.4 0.4 0.9-0.1 0.2-0.3 0.4-0.4 0.6-0.3 0.5 0.1 1 0.5 1.1 0.4 0.2 0.9 0.1 1.2-0.4 0.3-0.6 2.9-1.4 3.3-1.2 0.9 0.3 0.2 0.5 0.2 1.1 0.3 0.7 2.3 0.8 1.5 3.1-0.2 0.5 0.2 1 0.4 1.5 0.1 0.4-0.2 0.7-0.3 1.1 0 0.1 0 0.5 0 0.6q0 0-0.1 0c-1.1 0.4-2.8-0.2-3.5 1.1-0.2 0.3-0.3 0.6-0.5 0.9-0.6 1.1-1.2 0.2-1.7 1.1-0.2 0.3-0.2 0.7-0.4 1-0.1 0.1-0.4 0.2-0.5 0.3q0 0 0 0.1c0 0.6 1 0.9 2 1.2 0.2 0 0.7 0.2 1.4 0.3 1.6 0.2 2.9 0.2 3.6-0.1 2-0.8 2.3-17.4-3.1-17.9-0.6-0.1-3.6 1.4-7 3.3q0 0.1-0.1 0.2c-0.2 0.4-0.3 0.9 0.1 1.1z"/><path class="d" d="m190.3 33.8c0.1 0.3 0.7 0.3 1.3 0.1 0.6-0.3 1.1-0.6 1-0.9-0.1-0.2-0.7-0.2-1.3 0-0.6 0.2-1.1 0.6-1 0.8z"/><path class="d" d="m194 26.9c0.1 0.3 0.4 0.4 0.8 0.3 0.4-0.1 0.6-0.5 0.5-0.8-0.1-0.3-0.5-0.4-0.8-0.3-0.4 0.1-0.6 0.5-0.5 0.8z"/><path class="d" d="m186.1 28.2c0.2 0.3 0.9 0.3 1.7 0 0.8-0.2 1.4-0.7 1.3-1-0.2-0.3-0.9-0.4-1.7-0.1-0.8 0.3-1.4 0.8-1.3 1.1z"/><path class="b" d="m179.5 34.1c0.6 0 2.2-0.2 2.1 0.1 0 0.3-2.1 0.4-2.1 0.4z"/><path class="b" d="m178 31.3c0.5-0.4 1.6-1.4 1.8-1.1 0.2 0.2-1.4 1.4-1.4 1.4z"/><path class="b" d="m179.1 32.6c0.7-0.1 3.4-0.8 3.4-0.5 0 0.3-3.2 1-3.2 1z"/><path class="a" d="m143.5 38.3c-1.7 1.8 8.3 20.9 13.8 19.3 1.3-0.4 10.5-13.6 10.7-16.2 0.1-0.9-1.3-1.4-2.2-2.4-1-1.2-1.6-2.7-2.1-2.8-0.9-0.2-18-0.4-20.2 2.1z"/><path class="b" d="m143.7 38.4c-1.6 1.9 8.1 20.5 13.6 18.9 1.2-0.4 10.2-13.3 10.4-15.8 0.1-0.9-1.3-1.4-2.1-2.4-1-1.1-1.6-2.5-2.1-2.6-0.9-0.2-17.6-0.4-19.8 1.9z"/><path class="c" d="m144.2 39.1c-1.5 1.7 7.6 19.1 12.6 17.6 1.2-0.3 9.9-12.6 10.1-14.9 0.1-0.9-1.5-1.1-2.3-2-1-1.1-0.9-2.5-1.4-2.5-0.8-0.2-17-0.4-19 1.8z"/><path class="d" d="m162.3 40.6c-0.9-0.9-6.1 3.8-6.1 4.5 0.1 0.7 6.7-3.9 6.1-4.5z"/><path class="d" d="m160.8 49.9c-1.6 0 0 2-2.2 2-0.4 0-0.7-0.3-0.7-0.8 0-0.2 0-0.5 0-0.7 0-0.6-0.6-1-1.1-1-0.3 0-0.8 0.3-0.8 0.8 0 0.7-1.9 2.4-2.4 2.4-1 0-0.4-0.5-0.8-1.1-0.6-0.5-2.6 0.1-3-2.6-0.1-0.6-0.8-0.9-1.3-1.4-0.2-0.4-0.1-0.8-0.2-1.3-0.1-0.1-0.3-0.5-0.3-0.6q0 0 0-0.1c0.8-0.8 2.9-0.7 2.9-2.3 0-0.4-0.1-0.8-0.1-1.2 0-1.4 1.1-0.6 1.1-1.8 0-0.4-0.2-0.7-0.2-1.1 0-0.2 0.3-0.5 0.3-0.6q0 0 0-0.1c-0.4-0.7-1.5-0.7-2.6-0.7-0.3 0-0.9 0-1.6 0.1-1.8 0.3-3.2 0.7-3.6 1.2-1.6 1.7 7.5 19.1 12.6 17.6 0.5-0.1 2.5-2.6 4.5-5.5q0-0.1 0-0.2c0-0.4-0.1-1-0.5-1z"/><path class="d" d="m153.8 40.1c0-0.2-0.3-0.3-0.7-0.3-0.3 0-0.6 0.2-0.6 0.4 0 0.2 0.3 0.3 0.7 0.3 0.3-0.1 0.6-0.2 0.6-0.4z"/><path class="d" d="m159.3 49.5c-0.1-0.1-0.4 0-0.6 0.3-0.2 0.3-0.2 0.6 0 0.7 0.1 0.1 0.4 0 0.6-0.3 0.2-0.3 0.2-0.6 0-0.7z"/><path class="d" d="m163 43.5c-0.1-0.1-0.6 0.4-1.1 1.2-0.4 0.7-0.6 1.4-0.4 1.5 0.1 0 0.6-0.5 1-1.2 0.5-0.7 0.7-1.4 0.5-1.5z"/><path class="c" d="m150 43.1c0-0.3-0.4-0.5-1-0.5-0.6 0-1 0.2-1 0.5 0 0.4 0.4 0.6 1 0.6 0.6 0 1-0.2 1-0.6z"/><path class="c" d="m148.9 39c0-0.2-0.2-0.4-0.4-0.4-0.3 0-0.5 0.2-0.5 0.4 0 0.2 0.2 0.4 0.5 0.4 0.2 0 0.4-0.2 0.4-0.4z"/><path class="b" d="m165.6 40c-0.8 1.1-1.6 2.7-1.6 2.7l2-2.6z"/><path class="b" d="m164.2 39.1c-1.8 1.3-3.7 3.3-3.7 3.3l4.2-2.8z"/><path class="b" d="m164 37.8c-2 0.8-4.4 2.2-4.4 2.2l4.7-1.6z"/><path class="d" d="m154 49.5c0.3-0.2 1.4-0.8 1.1 0.3-0.3 1.1-0.2 1.4-0.8 1.7-0.6 0.4-0.8 0.1-0.6-0.5 0.1-0.5-0.1-1.2 0.3-1.5z"/><path class="a" d="m195.6 21c0.9-2.3-14.9-16.9-19.5-13.5-1.2 0.7-5.3 16.3-4.7 18.8 0.2 0.9 1.8 0.9 2.9 1.5 1.3 0.8 2.4 2 2.9 1.9 0.9-0.1 17.1-5.6 18.4-8.7z"/><path class="b" d="m195.3 20.9c0.9-2.2-14.5-16.5-19.1-13.2-1.1 0.8-5.1 16-4.5 18.4 0.2 0.9 1.7 0.9 2.8 1.5 1.3 0.7 2.3 1.9 2.8 1.9 0.9-0.2 16.8-5.6 18-8.6z"/><path class="c" d="m194.6 20.5c0.9-2.1-13.5-15.4-17.8-12.4-1 0.7-5.1 15.3-4.5 17.5 0.2 0.8 1.9 0.5 2.9 1.1 1.2 0.7 1.6 2 2.1 1.9 0.9-0.1 16.2-5.4 17.3-8.1z"/><path class="d" d="m177.1 25.2c1.1 0.5 4.4-5.7 4.2-6.3-0.3-0.7-5 5.9-4.2 6.3z"/><path class="d" d="m175.4 15.9c1.5-0.6-0.7-1.9 1.4-2.6 0.3-0.2 0.8 0 0.9 0.5 0.1 0.2 0.2 0.4 0.2 0.6 0.2 0.6 0.9 0.8 1.3 0.6 0.4-0.1 0.7-0.5 0.6-1-0.3-0.7 1-2.9 1.4-3.1 1-0.3 0.6 0.3 1.1 0.7 0.8 0.4 2.4-0.8 3.8 1.5 0.2 0.5 1 0.6 1.6 0.9 0.4 0.3 0.4 0.8 0.7 1.1 0.1 0.2 0.5 0.4 0.5 0.5q0 0 0 0.1c-0.5 1-2.5 1.6-1.9 3.1 0.1 0.4 0.3 0.8 0.5 1.2 0.4 1.3-0.9 0.9-0.5 2 0.2 0.4 0.5 0.7 0.6 1 0 0.2-0.1 0.5-0.1 0.7q0 0 0 0c0.6 0.6 1.7 0.2 2.7-0.2 0.3-0.1 0.8-0.3 1.5-0.6 1.6-0.9 2.7-1.7 3-2.4 0.9-2.1-13.5-15.4-17.8-12.3-0.4 0.3-1.5 3.3-2.5 6.7q0.1 0.1 0.1 0.2c0.1 0.4 0.5 0.9 0.9 0.8z"/><path class="d" d="m185.3 22.8c0.1 0.1 0.4 0.2 0.7 0 0.3-0.1 0.5-0.4 0.4-0.6-0.1-0.1-0.4-0.2-0.7 0-0.3 0.1-0.5 0.4-0.4 0.6z"/><path class="d" d="m176.9 15.8c0.2 0 0.4-0.2 0.5-0.6 0-0.3-0.1-0.6-0.3-0.6-0.1-0.1-0.4 0.2-0.4 0.5-0.1 0.3 0 0.6 0.2 0.7z"/><path class="d" d="m175.4 22.6c0.2 0.1 0.5-0.6 0.6-1.4 0.2-0.8 0.2-1.5 0-1.6-0.2 0-0.5 0.6-0.6 1.5-0.2 0.8-0.2 1.5 0 1.5z"/><path class="c" d="m187.8 18.6c0.1 0.3 0.6 0.4 1.1 0.2 0.6-0.2 0.9-0.6 0.8-0.9-0.1-0.3-0.6-0.4-1.2-0.2-0.5 0.2-0.8 0.6-0.7 0.9z"/><path class="c" d="m190.2 22.2c0.1 0.2 0.3 0.3 0.6 0.2 0.2-0.1 0.3-0.3 0.2-0.5 0-0.3-0.3-0.4-0.5-0.3-0.3 0.1-0.4 0.3-0.3 0.6z"/><path class="b" d="m174.2 26.9c0.4-1.4 0.6-3.2 0.6-3.2l-1 3.1z"/><path class="b" d="m175.8 27.2c1.2-1.8 2.3-4.3 2.3-4.3l-2.9 4z"/><path class="b" d="m176.4 28.3c1.7-1.4 3.4-3.5 3.4-3.5l-3.9 3.1z"/><path class="d" d="m181.9 14c-0.2 0.3-1 1.2-1.1 0-0.2-1.1-0.3-1.3 0.2-1.9 0.4-0.5 0.7-0.3 0.7 0.3 0 0.6 0.5 1.2 0.2 1.6z"/><path class="a" d="m184.1 58.7c2.3 1 16.3-13.5 13.2-18.1-0.7-1-15.4-6.3-17.9-6-0.9 0.1-1 1.5-1.6 2.6-0.8 1.2-2.1 2.1-2.1 2.6 0.1 0.9 5.3 17.5 8.4 18.9z"/><path class="b" d="m184.2 58.4c2.2 1 15.9-13.1 12.9-17.6-0.7-1.1-15.1-6.3-17.5-6-0.9 0.2-1 1.6-1.6 2.6-0.8 1.2-2 2-2 2.5 0.1 0.9 5.2 17.1 8.2 18.5z"/><path class="c" d="m184.6 57.7c2.1 1 14.9-12.2 12.1-16.4-0.7-1-14.4-6.1-16.6-5.8-0.8 0.1-0.6 1.7-1.2 2.7-0.7 1.1-2.1 1.3-2 1.8 0.1 0.8 4.9 16.4 7.7 17.7z"/><path class="d" d="m180.4 40.1c-0.6 1.1 5.5 4.7 6.1 4.5 0.6-0.2-5.8-5.2-6.1-4.5z"/><path class="d" d="m189.5 39.3c0.5 1.4 1.7-0.5 2.4 1.5 0.1 0.4 0 0.8-0.5 0.9-0.2 0-0.4 0.1-0.6 0.1-0.5 0.1-0.7 0.8-0.6 1.2 0.2 0.4 0.6 0.7 1 0.6 0.6-0.2 2.8 1.1 2.9 1.6 0.3 0.9-0.3 0.5-0.7 1-0.3 0.7 0.8 2.3-1.4 3.4-0.5 0.2-0.6 1-0.9 1.6-0.2 0.3-0.7 0.3-1 0.6-0.2 0.1-0.4 0.4-0.5 0.5q-0.1 0-0.1-0.1c-1-0.5-1.6-2.5-3.1-2-0.3 0.1-0.7 0.3-1.1 0.4-1.3 0.4-0.9-0.9-2-0.6-0.4 0.1-0.7 0.4-1.1 0.5-0.2 0.1-0.5-0.1-0.6-0.1q-0.1 0-0.1 0c-0.6 0.6-0.2 1.7 0.2 2.7 0 0.3 0.2 0.9 0.5 1.5 0.9 1.7 1.7 2.9 2.4 3.2 2.1 1 14.9-12.3 12-16.4-0.2-0.5-3-1.7-6.2-2.9q-0.1 0-0.2 0.1c-0.4 0.1-0.9 0.3-0.7 0.7z"/><path class="d" d="m182.5 48.2c-0.1 0.1-0.2 0.4 0 0.8 0.1 0.3 0.4 0.5 0.6 0.4 0.1-0.1 0.2-0.4 0-0.7-0.1-0.3-0.4-0.5-0.6-0.5z"/><path class="d" d="m189.5 40.7c0 0.2 0.2 0.4 0.5 0.5 0.4 0.1 0.7 0 0.7-0.1 0-0.2-0.2-0.4-0.5-0.5-0.3-0.1-0.6 0-0.7 0.1z"/><path class="d" d="m182.9 38.7c0 0.2 0.6 0.5 1.4 0.7 0.8 0.3 1.5 0.3 1.6 0.1 0-0.1-0.6-0.5-1.4-0.7-0.8-0.2-1.5-0.3-1.6-0.1z"/><path class="c" d="m186.6 51c-0.3 0.1-0.4 0.6-0.2 1.1 0.2 0.5 0.6 0.9 0.9 0.8 0.3-0.1 0.4-0.6 0.2-1.1-0.2-0.5-0.6-0.9-0.9-0.8z"/><path class="c" d="m183 53.2c-0.2 0.1-0.3 0.3-0.2 0.5 0 0.3 0.3 0.4 0.5 0.3 0.2 0 0.4-0.3 0.3-0.5-0.1-0.2-0.3-0.4-0.6-0.3z"/><path class="b" d="m178.8 37.2c1.3 0.5 3.1 0.8 3.1 0.8l-3.1-1.2z"/><path class="b" d="m178.4 38.6c1.8 1.4 4.2 2.7 4.2 2.7l-3.9-3.2z"/><path class="b" d="m177.2 39.1c1.4 1.8 3.4 3.7 3.4 3.7l-3-4.1z"/><path class="d" d="m191.2 45.6c-0.3-0.2-1.2-1.1-0.1-1.1 1.1 0 1.3-0.1 1.8 0.4 0.5 0.4 0.3 0.6-0.2 0.6-0.6 0-1.1 0.4-1.5 0.1z"/><path class="a" d="m150.4 14.3c-2.5-0.2-11.9 19.4-7.3 23 1.1 0.8 17.5 0.1 19.7-1.2 0.8-0.5 0.3-2 0.6-3.3 0.3-1.5 1.2-2.9 1-3.3-0.4-0.9-10.7-14.9-14-15.2z"/><path class="b" d="m150.2 14.6c-2.4-0.2-11.6 19-7 22.5 1.1 0.8 17 0.2 19.1-1.1 0.8-0.5 0.4-2 0.7-3.2 0.3-1.5 1.1-2.9 0.9-3.3-0.4-0.9-10.4-14.6-13.7-14.9z"/><path class="c" d="m150.2 15.6c-2.3-0.2-10.7 17.5-6.5 20.6 0.9 0.8 16 0.4 18-0.8 0.7-0.5-0.1-2 0.2-3.1 0.2-1.4 1.4-2.2 1.2-2.6-0.4-0.8-10-13.8-12.9-14.1z"/><path class="d" d="m159.8 30.9c0.2-1.2-6.7-2.6-7.2-2.1-0.5 0.4 7.1 2.9 7.2 2.1z"/><path class="d" d="m151.5 35.3c-1-1.3-1.6 1.2-2.9-0.6-0.3-0.3-0.3-0.7 0.2-1 0.1-0.2 0.4-0.3 0.6-0.4 0.4-0.4 0.4-1.1 0.1-1.4-0.2-0.3-0.7-0.5-1.1-0.2-0.6 0.4-3.1-0.1-3.4-0.5-0.6-0.8 0.2-0.7 0.4-1.3 0.1-0.8-1.6-2 0.3-4 0.4-0.4 0.3-1.1 0.4-1.8 0.1-0.5 0.5-0.6 0.8-1 0.1-0.1 0.2-0.5 0.3-0.6q0-0.1 0.1 0c1.1 0.1 2.3 1.8 3.6 0.9 0.3-0.3 0.6-0.6 0.9-0.9 1.1-0.8 1.1 0.6 2.1-0.1 0.3-0.3 0.5-0.6 0.8-0.9 0.1-0.1 0.5 0 0.6-0.1q0 0 0.1 0c0.4-0.8-0.4-1.7-1-2.5-0.2-0.3-0.6-0.7-1-1.2-1.3-1.3-2.5-2.1-3.2-2.2-2.3-0.2-10.7 17.5-6.5 20.6 0.4 0.4 3.6 0.5 7.1 0.4q0.1-0.1 0.2-0.1c0.3-0.3 0.7-0.8 0.5-1.1z"/><path class="d" d="m154.1 25.4c0-0.3-0.5-0.6-1.1-0.8-0.6-0.1-1.2 0.1-1.3 0.4 0 0.3 0.4 0.6 1.1 0.7 0.6 0.2 1.2 0 1.3-0.3z"/><path class="d" d="m147.4 30.6c0.1-0.3-0.2-0.7-0.6-0.8-0.3 0-0.7 0.2-0.8 0.6 0 0.3 0.2 0.7 0.6 0.7 0.4 0.1 0.7-0.1 0.8-0.5z"/><path class="d" d="m154.4 33.4c0.1-0.4-0.5-0.8-1.3-0.9-0.8-0.2-1.5 0-1.6 0.4 0 0.3 0.6 0.7 1.3 0.9 0.8 0.1 1.5 0 1.6-0.4z"/><path class="b" d="m163 31c-0.6-0.3-1.9-1-1.7-1.3 0.2-0.2 1.9 0.8 1.9 0.8z"/><path class="b" d="m162.5 34.6c-0.6 0-2.1 0.4-2.1 0.1 0-0.4 1.9-0.7 1.9-0.7z"/><path class="b" d="m162.4 32.7c-0.6-0.3-3.1-1-3-1.3 0.1-0.3 3.1 0.7 3.1 0.7z"/><path class="a" d="m175.8 6.4c-1.2-2.2-22.8 0.7-23.2 6.5-0.1 1.4 9.3 14.7 11.7 15.8 0.8 0.4 1.8-0.7 3-1.2 1.5-0.6 3.1-0.6 3.4-1.1 0.5-0.8 6.6-17 5.1-20z"/><path class="b" d="m175.4 6.5c-1.1-2.2-22.2 0.6-22.6 6.3-0.1 1.4 9.1 14.4 11.3 15.5 0.9 0.4 1.9-0.7 3.1-1.2 1.4-0.6 3-0.6 3.2-1 0.5-0.8 6.5-16.7 5-19.6z"/><path class="c" d="m174.6 7c-1.1-2-20.5 0.5-20.9 5.8-0.1 1.2 8.5 13.6 10.6 14.6 0.8 0.4 1.6-1.1 2.7-1.5 1.3-0.6 2.6 0 2.8-0.4 0.4-0.8 6.2-15.9 4.8-18.5z"/><path class="d" d="m167 23.4c1.1-0.5-1.5-7-2.2-7.2-0.6-0.2 1.5 7.6 2.2 7.2z"/><path class="d" d="m158.8 18.8c0.5-1.5-1.9-0.6-1.1-2.7 0.1-0.4 0.4-0.6 0.9-0.4 0.3 0 0.5 0.2 0.7 0.3 0.6 0.2 1.1-0.3 1.3-0.7 0.1-0.4 0-0.9-0.5-1.1-0.6-0.2-1.6-2.6-1.4-3 0.3-1 0.6-0.3 1.3-0.4 0.7-0.4 0.8-2.4 3.5-1.9 0.5 0.1 1.1-0.5 1.7-0.7 0.4-0.2 0.8 0.1 1.3 0.1 0.2 0 0.6-0.1 0.7 0q0 0 0 0c0.5 1.1-0.3 2.9 1.2 3.5 0.4 0.1 0.8 0.2 1.2 0.3 1.3 0.5 0.2 1.3 1.3 1.7 0.4 0.1 0.8 0.1 1.2 0.2 0.1 0.1 0.3 0.4 0.4 0.5q0 0 0.1 0c0.8-0.1 1.1-1.2 1.5-2.2 0.1-0.3 0.3-0.8 0.5-1.5 0.3-1.8 0.4-3.2 0.1-3.9-1.1-2-20.5 0.6-20.9 5.8 0 0.6 1.6 3.3 3.6 6.2q0.1 0.1 0.2 0.1c0.4 0.2 1 0.2 1.2-0.2z"/><path class="d" d="m168.5 15.6c0.3-0.1 0.3-0.7 0-1.3-0.2-0.6-0.6-1-0.9-0.9-0.3 0.1-0.3 0.7-0.1 1.3 0.3 0.6 0.7 1 1 0.9z"/><path class="d" d="m160.5 12.8c0.3-0.1 0.5-0.5 0.3-0.8-0.1-0.4-0.5-0.6-0.8-0.4-0.4 0.1-0.6 0.5-0.4 0.9 0.1 0.3 0.5 0.5 0.9 0.3z"/><path class="d" d="m161.9 20.2c0.4-0.1 0.4-0.8 0.1-1.6-0.3-0.7-0.8-1.2-1.1-1.1-0.4 0.2-0.4 0.9-0.1 1.6 0.3 0.8 0.8 1.3 1.1 1.1z"/><path class="b" d="m168.6 26.1c0-0.6-0.2-2.1 0.2-2.1 0.3 0.1 0.4 2 0.4 2z"/><path class="b" d="m165.4 27.6c-0.4-0.4-1.5-1.4-1.2-1.6 0.2-0.2 1.6 1.2 1.6 1.2z"/><path class="b" d="m166.9 26.5c-0.1-0.6-0.9-3.1-0.6-3.2 0.4 0 1.2 3 1.2 3z"/><path class="a" d="m158.2 59.1c0.5 2.5 22.1 5.6 24.1 0.1 0.4-1.3-5.1-16.7-7-18.4-0.7-0.6-2 0.2-3.3 0.4-1.6 0.1-3.1-0.3-3.5 0-0.7 0.7-11 14.7-10.3 17.9z"/><path class="b" d="m158.5 59.2c0.6 2.4 21.6 5.4 23.6 0 0.4-1.3-4.9-16.3-6.8-18-0.7-0.6-2 0.3-3.2 0.4-1.6 0.2-3.1-0.3-3.5 0.1-0.7 0.6-10.8 14.3-10.1 17.5z"/><path class="c" d="m159.5 59c0.5 2.2 19.9 4.9 21.6 0 0.4-1.2-4.5-15.4-6.2-16.9-0.6-0.6-1.8 0.6-3 0.7-1.4 0.2-2.5-0.7-2.8-0.4-0.7 0.6-10.3 13.6-9.6 16.6z"/><path class="d" d="m171.2 45.2c-1.2 0.2-0.4 7.1 0.1 7.5 0.6 0.3 0.7-7.7-0.1-7.5z"/><path class="d" d="m177.9 51.8c-0.9 1.3 1.6 1.2 0.3 2.9-0.2 0.4-0.6 0.5-1 0.2-0.2-0.2-0.4-0.3-0.6-0.5-0.5-0.3-1.1-0.1-1.4 0.3-0.2 0.3-0.2 0.9 0.2 1.2 0.5 0.4 0.8 2.9 0.5 3.3-0.6 0.8-0.7 0.1-1.3 0-0.8 0.2-1.5 2.1-3.9 0.9-0.5-0.2-1.2 0.1-1.9 0.2-0.4 0.1-0.7-0.3-1.2-0.5-0.1 0-0.6 0-0.7-0.1q0 0 0 0c-0.2-1.2 1.1-2.8-0.2-3.8-0.3-0.2-0.7-0.3-1.1-0.6-1.1-0.8 0.2-1.2-0.8-1.9-0.3-0.2-0.7-0.3-1-0.5-0.2-0.1-0.2-0.5-0.3-0.6q0 0-0.1 0c-0.8-0.2-1.4 0.8-2.1 1.7-0.1 0.2-0.4 0.7-0.8 1.3-0.8 1.6-1.3 2.9-1.1 3.7 0.5 2.2 19.9 5 21.6 0 0.2-0.5-0.6-3.5-1.8-6.9q-0.1-0.1-0.1-0.2c-0.4-0.2-0.9-0.5-1.2-0.1z"/><path class="d" d="m167.7 52.3c-0.3 0-0.5 0.6-0.4 1.2 0 0.7 0.3 1.2 0.7 1.2 0.3-0.1 0.4-0.6 0.4-1.3-0.1-0.6-0.4-1.1-0.7-1.1z"/><path class="d" d="m174.6 57.1c-0.3 0-0.6 0.4-0.5 0.8 0 0.3 0.3 0.6 0.7 0.6 0.4-0.1 0.6-0.4 0.6-0.8-0.1-0.4-0.4-0.6-0.8-0.6z"/><path class="d" d="m175.2 49.6c-0.3 0-0.6 0.7-0.5 1.5 0.1 0.8 0.5 1.4 0.8 1.4 0.4-0.1 0.6-0.7 0.6-1.5-0.1-0.8-0.5-1.4-0.9-1.4z"/><path class="b" d="m170.4 42.1c-0.2 0.6-0.4 2.1-0.7 2-0.4-0.1 0.1-2.1 0.1-2.1z"/><path class="b" d="m173.9 41.5c0.3 0.6 1.1 1.8 0.7 2-0.3 0.1-1.2-1.7-1.2-1.7z"/><path class="b" d="m172.1 42.2c0 0.6 0.1 3.3-0.3 3.2-0.3 0-0.3-3.2-0.3-3.2z"/><path class="a" d="m89.7 33.7c2.3-0.9 2.7-19.4-3.3-19.9-1.5-0.2-16.8 8.6-18.1 10.7-0.5 0.8 0.8 1.7 1.2 2.7 0.6 1.3 0.5 2.7 1 2.9 0.8 0.4 16.3 4.9 19.2 3.6z"/><path class="b" d="m89.7 33.5c2.2-1 2.6-19-3.3-19.6-1.4-0.1-16.3 8.4-17.6 10.5-0.5 0.8 0.7 1.6 1.2 2.7 0.5 1.2 0.4 2.6 0.9 2.8 0.8 0.4 16 4.8 18.8 3.6z"/><path class="c" d="m89.4 32.8c2-0.9 2.3-17.4-3-17.9-1.3-0.1-15.5 7.7-16.6 9.6-0.5 0.7 1.1 1.5 1.5 2.4 0.5 1.2-0.2 2.2 0.2 2.4 0.8 0.4 15.3 4.7 17.9 3.5z"/><path class="d" d="m73.9 26.9c0.5 1 7.4-1.3 7.6-1.9 0.3-0.6-8 1.3-7.6 1.9z"/><path class="d" d="m79.4 19.5c1.5 0.5 0.9-1.7 3-1 0.4 0.1 0.6 0.5 0.3 0.9-0.1 0.2-0.2 0.4-0.3 0.6-0.3 0.5 0.1 1.1 0.5 1.2 0.4 0.1 0.9 0 1.2-0.4 0.3-0.6 2.8-1.4 3.3-1.3 0.9 0.3 0.1 0.6 0.2 1.2 0.3 0.6 2.3 0.8 1.5 3.1-0.2 0.4 0.2 0.9 0.4 1.5 0.1 0.3-0.3 0.7-0.3 1-0.1 0.2 0 0.5 0 0.6q-0.1 0.1-0.1 0.1c-1.1 0.4-2.8-0.3-3.6 1-0.1 0.3-0.2 0.7-0.4 1-0.6 1.1-1.2 0.1-1.8 1.1-0.1 0.3-0.1 0.6-0.3 0.9-0.1 0.2-0.4 0.3-0.5 0.4q0 0 0 0c0 0.7 1 0.9 1.9 1.2 0.3 0.1 0.8 0.2 1.4 0.3 1.7 0.3 3 0.3 3.6 0 2-0.9 2.4-17.5-3-18-0.6 0-3.6 1.5-7 3.4q0 0-0.1 0.1c-0.2 0.4-0.3 1 0.1 1.1z"/><path class="d" d="m81.8 28.1c0.1 0.2 0.7 0.2 1.3 0 0.6-0.2 1.1-0.6 1-0.8-0.1-0.2-0.7-0.3-1.3-0.1-0.7 0.3-1.1 0.6-1 0.9z"/><path class="d" d="m85.4 21.1c0.1 0.3 0.5 0.5 0.9 0.4 0.4-0.2 0.6-0.5 0.5-0.8-0.1-0.3-0.5-0.5-0.9-0.4-0.3 0.2-0.6 0.5-0.5 0.8z"/><path class="d" d="m77.6 22.4c0.1 0.3 0.9 0.4 1.7 0.1 0.8-0.3 1.4-0.8 1.2-1.1-0.1-0.3-0.8-0.3-1.6 0-0.8 0.2-1.4 0.7-1.3 1z"/><path class="b" d="m71 28.4c0.6 0 2.2-0.2 2.1 0.1 0 0.3-2.1 0.4-2.1 0.4z"/><path class="b" d="m69.4 25.5c0.6-0.3 1.7-1.3 1.9-1.1 0.2 0.3-1.4 1.5-1.4 1.5z"/><path class="b" d="m70.6 26.9c0.7-0.1 3.4-0.9 3.4-0.6 0 0.3-3.3 1.1-3.3 1.1z"/><path class="a" d="m35 32.5c-1.7 1.9 8.3 20.9 13.8 19.3 1.3-0.3 10.5-13.6 10.7-16.1 0.1-0.9-1.3-1.5-2.2-2.5-1-1.1-1.6-2.6-2.1-2.7-0.9-0.2-18-0.4-20.2 2z"/><path class="b" d="m35.2 32.7c-1.6 1.8 8.1 20.4 13.5 18.9 1.3-0.4 10.3-13.4 10.5-15.8 0.1-0.9-1.3-1.5-2.2-2.4-1-1.1-1.5-2.6-2-2.7-0.9-0.2-17.6-0.4-19.8 2z"/><path class="c" d="m35.7 33.4c-1.5 1.7 7.6 19 12.6 17.6 1.2-0.4 9.9-12.7 10.1-15 0.1-0.8-1.6-1.1-2.4-2-0.9-1-0.8-2.4-1.3-2.5-0.8-0.2-17-0.4-19 1.9z"/><path class="d" d="m53.7 34.8c-0.8-0.8-6 3.8-6 4.5 0.1 0.7 6.7-3.9 6-4.5z"/><path class="d" d="m52.3 44.1c-1.6 0 0 2-2.2 2-0.4 0-0.8-0.2-0.8-0.7 0-0.3 0.1-0.5 0.1-0.8 0-0.6-0.6-0.9-1.1-0.9-0.4 0-0.8 0.2-0.8 0.8 0 0.7-1.9 2.4-2.4 2.4-1 0-0.4-0.5-0.8-1.1-0.6-0.6-2.6 0-3-2.7-0.1-0.5-0.8-0.9-1.3-1.4-0.3-0.3-0.1-0.8-0.3-1.2 0-0.2-0.3-0.5-0.3-0.6q0-0.1 0.1-0.1c0.8-0.8 2.9-0.7 2.9-2.3 0-0.4-0.2-0.8-0.2-1.3 0-1.3 1.1-0.5 1.1-1.7 0-0.4-0.1-0.8-0.1-1.2 0-0.2 0.3-0.4 0.3-0.6q0 0-0.1 0c-0.3-0.8-1.5-0.7-2.6-0.7-0.2 0-0.8 0-1.5 0.1-1.8 0.2-3.2 0.6-3.7 1.2-1.5 1.7 7.6 19 12.6 17.6 0.6-0.1 2.5-2.6 4.6-5.5q0-0.1 0-0.2c0-0.5-0.1-1.1-0.5-1.1z"/><path class="d" d="m45.3 34.3c-0.1-0.2-0.4-0.3-0.7-0.3-0.3 0.1-0.6 0.3-0.6 0.5 0 0.1 0.3 0.3 0.7 0.2 0.3 0 0.6-0.2 0.6-0.4z"/><path class="d" d="m50.8 43.7c-0.2-0.1-0.4 0.1-0.6 0.4-0.2 0.3-0.2 0.6 0 0.7 0.1 0.1 0.4-0.1 0.6-0.4 0.2-0.3 0.2-0.6 0-0.7z"/><path class="d" d="m54.5 37.8c-0.2-0.1-0.6 0.4-1.1 1.1-0.4 0.7-0.6 1.4-0.5 1.5 0.2 0.1 0.7-0.4 1.1-1.1 0.5-0.8 0.7-1.4 0.5-1.5z"/><path class="c" d="m41.5 37.4c0-0.3-0.5-0.6-1-0.6-0.6 0-1 0.3-1 0.6 0 0.3 0.4 0.6 1 0.6 0.5 0 1-0.3 1-0.6z"/><path class="c" d="m40.4 33.2c0-0.2-0.2-0.4-0.4-0.4-0.3 0-0.5 0.2-0.5 0.4 0 0.3 0.2 0.5 0.5 0.5 0.2 0 0.4-0.2 0.4-0.5z"/><path class="b" d="m57.1 34.2c-0.9 1.2-1.7 2.8-1.7 2.8l2-2.6z"/><path class="b" d="m55.7 33.4c-1.8 1.2-3.7 3.2-3.7 3.2l4.2-2.8z"/><path class="b" d="m55.5 32.1c-2 0.7-4.4 2.1-4.4 2.1l4.7-1.6z"/><path class="d" d="m45.5 43.8c0.3-0.3 1.3-0.9 1.1 0.3-0.3 1.1-0.3 1.3-0.9 1.7-0.6 0.3-0.7 0-0.5-0.5 0.1-0.6-0.1-1.3 0.3-1.5z"/><path class="a" d="m87 15.3c1-2.3-14.8-16.9-19.5-13.6-1.1 0.8-5.2 16.4-4.6 18.8 0.2 0.9 1.7 1 2.9 1.6 1.3 0.7 2.4 2 2.9 1.9 0.9-0.2 17.1-5.7 18.3-8.7z"/><path class="b" d="m86.8 15.2c0.9-2.3-14.5-16.5-19.1-13.2-1.1 0.7-5.2 15.9-4.5 18.3 0.2 0.9 1.6 0.9 2.8 1.6 1.3 0.7 2.3 1.9 2.8 1.8 0.9-0.1 16.8-5.5 18-8.5z"/><path class="c" d="m86.1 14.7c0.8-2.1-13.5-15.4-17.8-12.3-1 0.7-5.1 15.2-4.5 17.4 0.2 0.9 1.9 0.6 2.9 1.1 1.2 0.7 1.6 2 2.1 2 0.8-0.2 16.1-5.4 17.3-8.2z"/><path class="d" d="m68.6 19.4c1.1 0.5 4.4-5.6 4.1-6.3-0.2-0.6-4.9 6-4.1 6.3z"/><path class="d" d="m66.9 10.1c1.5-0.5-0.7-1.8 1.4-2.6 0.3-0.1 0.7 0 0.9 0.5 0.1 0.2 0.1 0.5 0.2 0.7 0.2 0.6 0.9 0.7 1.3 0.6 0.4-0.2 0.7-0.6 0.6-1.1-0.3-0.6 0.9-2.9 1.4-3 1-0.4 0.6 0.3 1.1 0.7 0.8 0.3 2.4-0.9 3.7 1.5 0.3 0.5 1.1 0.6 1.7 0.9 0.4 0.2 0.4 0.7 0.7 1.1 0.1 0.1 0.4 0.3 0.5 0.5q0 0 0 0c-0.5 1.1-2.5 1.7-2 3.2 0.2 0.4 0.4 0.7 0.6 1.1 0.4 1.3-0.9 0.9-0.5 2.1 0.2 0.3 0.4 0.6 0.6 1 0 0.2-0.2 0.5-0.1 0.6q0 0 0 0.1c0.6 0.6 1.7 0.1 2.7-0.2 0.3-0.1 0.8-0.3 1.5-0.6 1.5-0.9 2.7-1.7 3-2.4 0.8-2.1-13.5-15.4-17.8-12.4-0.5 0.3-1.5 3.3-2.5 6.7q0.1 0.1 0.1 0.3c0.1 0.4 0.5 0.9 0.9 0.7z"/><path class="d" d="m76.8 17c0 0.2 0.4 0.2 0.7 0.1 0.3-0.2 0.5-0.4 0.4-0.6-0.1-0.2-0.4-0.2-0.7-0.1-0.3 0.2-0.5 0.4-0.4 0.6z"/><path class="d" d="m68.4 10c0.2 0.1 0.4-0.2 0.4-0.5 0.1-0.3 0-0.7-0.2-0.7-0.2 0-0.4 0.2-0.4 0.6-0.1 0.3 0 0.6 0.2 0.6z"/><path class="d" d="m66.9 16.9c0.2 0 0.5-0.6 0.6-1.5 0.2-0.8 0.2-1.5 0-1.5-0.2-0.1-0.5 0.6-0.7 1.4-0.1 0.8-0.1 1.5 0.1 1.6z"/><path class="c" d="m79.3 12.9c0.1 0.3 0.6 0.4 1.1 0.2 0.5-0.2 0.9-0.6 0.8-0.9-0.1-0.3-0.6-0.4-1.2-0.2-0.5 0.2-0.8 0.6-0.7 0.9z"/><path class="c" d="m81.7 16.4c0.1 0.2 0.3 0.4 0.6 0.3 0.2-0.1 0.3-0.4 0.2-0.6-0.1-0.2-0.3-0.3-0.5-0.2-0.3 0-0.4 0.3-0.3 0.5z"/><path class="b" d="m65.7 21.1c0.4-1.4 0.6-3.2 0.6-3.2l-1 3.2z"/><path class="b" d="m67.2 21.4c1.3-1.8 2.4-4.3 2.4-4.3l-2.9 4.1z"/><path class="b" d="m67.9 22.6c1.6-1.4 3.4-3.5 3.4-3.5l-3.9 3.1z"/><path class="d" d="m73.4 8.2c-0.2 0.3-1 1.3-1.2 0.1-0.1-1.2-0.2-1.4 0.3-1.9 0.4-0.5 0.6-0.3 0.7 0.3 0 0.6 0.5 1.1 0.2 1.5z"/><path class="a" d="m75.6 52.9c2.3 1.1 16.2-13.4 13.2-18-0.8-1.1-15.4-6.4-17.9-6.1-0.9 0.2-1 1.6-1.6 2.6-0.8 1.2-2.1 2.1-2.1 2.6 0.1 0.9 5.3 17.5 8.4 18.9z"/><path class="b" d="m75.6 52.7c2.3 1 15.9-13.2 12.9-17.7-0.7-1-15-6.2-17.4-5.9-0.9 0.1-1 1.5-1.6 2.5-0.8 1.2-2.1 2.1-2 2.6 0.1 0.9 5.1 17.1 8.1 18.5z"/><path class="c" d="m76.1 52c2.1 0.9 14.9-12.3 12.1-16.5-0.7-0.9-14.4-6.1-16.6-5.7-0.9 0.1-0.6 1.7-1.2 2.6-0.7 1.1-2.1 1.4-2 1.8 0.1 0.9 4.9 16.5 7.7 17.8z"/><path class="d" d="m71.8 34.4c-0.5 1 5.5 4.7 6.2 4.5 0.6-0.2-5.8-5.3-6.2-4.5z"/><path class="d" d="m80.9 33.5c0.5 1.5 1.8-0.4 2.5 1.6 0.1 0.3 0 0.7-0.5 0.8-0.2 0.1-0.4 0.1-0.6 0.2-0.6 0.1-0.7 0.7-0.6 1.2 0.1 0.3 0.5 0.7 1 0.5 0.6-0.1 2.7 1.2 2.9 1.6 0.3 1-0.3 0.6-0.7 1-0.3 0.7 0.8 2.4-1.4 3.5-0.5 0.2-0.6 0.9-0.9 1.5-0.2 0.4-0.7 0.4-1.1 0.6-0.1 0.1-0.3 0.5-0.5 0.5q0 0 0 0c-1.1-0.6-1.6-2.5-3.1-2.1-0.4 0.1-0.7 0.3-1.1 0.4-1.3 0.4-0.9-0.8-2.1-0.5-0.3 0.1-0.6 0.4-1 0.5-0.2 0-0.5-0.2-0.6-0.1q-0.1 0-0.1 0c-0.6 0.5-0.2 1.6 0.1 2.7 0.1 0.3 0.3 0.8 0.6 1.5 0.9 1.6 1.7 2.8 2.4 3.2 2.1 0.9 14.8-12.3 12-16.5-0.3-0.4-3-1.6-6.2-2.8q-0.1 0-0.2 0c-0.4 0.1-0.9 0.4-0.8 0.7z"/><path class="d" d="m74 42.5c-0.2 0.1-0.2 0.4 0 0.7 0.1 0.3 0.4 0.5 0.5 0.5 0.2-0.1 0.2-0.4 0.1-0.7-0.1-0.4-0.4-0.6-0.6-0.5z"/><path class="d" d="m81 35c0 0.2 0.2 0.4 0.5 0.5 0.3 0.1 0.6 0 0.7-0.2 0-0.2-0.2-0.4-0.5-0.5-0.4-0.1-0.7 0-0.7 0.2z"/><path class="d" d="m74.4 33c0 0.1 0.6 0.5 1.4 0.7 0.8 0.2 1.5 0.3 1.5 0.1 0.1-0.2-0.5-0.5-1.3-0.7-0.8-0.3-1.5-0.3-1.6-0.1z"/><path class="c" d="m78.1 45.2c-0.3 0.1-0.4 0.6-0.2 1.2 0.2 0.5 0.5 0.9 0.8 0.8 0.4-0.1 0.5-0.6 0.3-1.2-0.2-0.5-0.6-0.8-0.9-0.8z"/><path class="c" d="m74.5 47.5c-0.2 0-0.3 0.3-0.3 0.5 0.1 0.2 0.4 0.4 0.6 0.3 0.2-0.1 0.4-0.3 0.3-0.6-0.1-0.2-0.3-0.3-0.6-0.2z"/><path class="b" d="m70.2 31.4c1.4 0.5 3.2 0.9 3.2 0.9l-3.1-1.3z"/><path class="b" d="m69.9 32.9c1.7 1.3 4.2 2.7 4.2 2.7l-4-3.2z"/><path class="b" d="m68.7 33.4c1.4 1.7 3.4 3.6 3.4 3.6l-3-4.1z"/><path class="d" d="m82.7 39.9c-0.3-0.3-1.2-1.1-0.1-1.1 1.1-0.1 1.3-0.2 1.8 0.3 0.5 0.5 0.3 0.7-0.2 0.7-0.6 0-1.1 0.4-1.5 0.1z"/><path class="a" d="m41.9 8.5c-2.6-0.2-11.9 19.5-7.3 23 1.1 0.9 17.5 0.2 19.6-1.1 0.8-0.5 0.4-2 0.7-3.3 0.3-1.5 1.2-2.9 1-3.4-0.5-0.8-10.7-14.9-14-15.2z"/><path class="b" d="m41.7 8.9c-2.5-0.2-11.6 19-7 22.4 1 0.8 17 0.2 19.1-1.1 0.8-0.5 0.4-1.9 0.7-3.2 0.2-1.5 1.1-2.8 0.9-3.3-0.4-0.8-10.4-14.5-13.7-14.8z"/><path class="c" d="m41.6 9.8c-2.2-0.2-10.6 17.5-6.5 20.7 1 0.7 16.1 0.3 18-0.9 0.8-0.4 0-1.9 0.2-3.1 0.3-1.4 1.5-2.1 1.3-2.6-0.4-0.7-10-13.8-13-14.1z"/><path class="d" d="m51.3 25.1c0.2-1.2-6.7-2.5-7.2-2.1-0.5 0.5 7.1 3 7.2 2.1z"/><path class="d" d="m43 29.6c-1-1.3-1.6 1.2-2.9-0.6-0.3-0.3-0.3-0.7 0.1-1.1 0.2-0.1 0.5-0.2 0.6-0.4 0.5-0.3 0.5-1 0.2-1.4-0.2-0.3-0.7-0.5-1.2-0.2-0.5 0.4-3 0-3.3-0.4-0.6-0.9 0.1-0.7 0.4-1.3 0.1-0.8-1.6-2.1 0.3-4 0.4-0.4 0.2-1.2 0.3-1.9 0.1-0.4 0.6-0.6 0.9-0.9 0.1-0.2 0.2-0.6 0.3-0.7q0 0 0.1 0c1.1 0.2 2.3 1.9 3.6 0.9 0.3-0.2 0.5-0.6 0.9-0.8 1.1-0.8 1.1 0.5 2.1-0.2 0.3-0.2 0.5-0.6 0.8-0.8 0.1-0.1 0.5-0.1 0.6-0.1q0-0.1 0-0.1c0.4-0.7-0.3-1.6-1-2.5-0.1-0.2-0.5-0.7-1-1.2-1.3-1.2-2.4-2.1-3.1-2.2-2.3-0.2-10.7 17.5-6.5 20.7 0.4 0.3 3.5 0.4 7.1 0.3q0.1 0 0.2-0.1c0.3-0.2 0.7-0.7 0.5-1z"/><path class="d" d="m45.5 19.7c0.1-0.3-0.4-0.7-1-0.8-0.7-0.1-1.2 0-1.3 0.3 0 0.3 0.4 0.7 1.1 0.8 0.6 0.1 1.2 0 1.2-0.3z"/><path class="d" d="m38.9 24.9c0.1-0.4-0.2-0.8-0.6-0.8-0.3-0.1-0.7 0.1-0.8 0.5 0 0.4 0.2 0.7 0.6 0.8 0.4 0.1 0.7-0.2 0.8-0.5z"/><path class="d" d="m45.9 27.7c0-0.4-0.5-0.8-1.3-1-0.8-0.1-1.5 0.1-1.6 0.4 0 0.4 0.5 0.8 1.3 0.9 0.8 0.2 1.5 0 1.6-0.3z"/><path class="b" d="m54.4 25.3c-0.5-0.4-1.8-1-1.6-1.3 0.2-0.3 1.9 0.7 1.9 0.7z"/><path class="b" d="m54 28.8c-0.7 0.1-2.1 0.5-2.1 0.1 0-0.3 1.9-0.7 1.9-0.7z"/><path class="b" d="m53.9 26.9c-0.6-0.2-3.2-0.9-3-1.2 0.1-0.3 3.1 0.6 3.1 0.6z"/><path class="a" d="m67.3 0.7c-1.2-2.2-22.8 0.6-23.2 6.5-0.1 1.3 9.3 14.7 11.6 15.8 0.9 0.4 1.9-0.8 3.1-1.3 1.5-0.5 3.1-0.6 3.4-1 0.5-0.8 6.6-17.1 5.1-20z"/><path class="b" d="m66.9 0.7c-1.2-2.1-22.2 0.7-22.7 6.4-0.1 1.3 9.2 14.4 11.4 15.4 0.9 0.4 1.8-0.7 3-1.2 1.5-0.5 3.1-0.5 3.3-1 0.5-0.8 6.5-16.7 5-19.6z"/><path class="c" d="m66 1.2c-1-2-20.4 0.6-20.8 5.8-0.1 1.3 8.5 13.7 10.6 14.6 0.7 0.4 1.6-1.1 2.7-1.5 1.3-0.5 2.5 0 2.8-0.4 0.4-0.7 6.2-15.8 4.7-18.5z"/><path class="d" d="m58.5 17.7c1.1-0.6-1.5-7-2.2-7.2-0.6-0.2 1.4 7.6 2.2 7.2z"/><path class="d" d="m50.3 13.1c0.5-1.5-1.9-0.7-1.2-2.8 0.2-0.3 0.5-0.6 1-0.4 0.2 0.1 0.5 0.2 0.7 0.3 0.5 0.2 1.1-0.2 1.3-0.6 0.1-0.4 0-0.9-0.5-1.1-0.7-0.3-1.6-2.6-1.4-3.1 0.3-0.9 0.6-0.2 1.2-0.4 0.8-0.3 0.9-2.4 3.6-1.9 0.5 0.1 1.1-0.4 1.7-0.7 0.4-0.1 0.8 0.2 1.3 0.2 0.2 0 0.5-0.1 0.7-0.1q0 0 0 0.1c0.5 1-0.3 2.9 1.2 3.5 0.4 0.1 0.8 0.1 1.2 0.3 1.3 0.5 0.2 1.2 1.3 1.6 0.4 0.2 0.8 0.1 1.1 0.2 0.2 0.1 0.4 0.5 0.5 0.5q0 0 0 0c0.9 0 1.2-1.1 1.6-2.2 0.1-0.2 0.3-0.8 0.5-1.5 0.3-1.8 0.4-3.2 0-3.8-1-2-20.4 0.5-20.8 5.8-0.1 0.5 1.6 3.2 3.6 6.2q0.1 0 0.2 0.1c0.4 0.1 1 0.2 1.2-0.2z"/><path class="d" d="m59.9 9.8c0.3-0.1 0.4-0.7 0.1-1.3-0.2-0.6-0.7-1-0.9-0.9-0.3 0.2-0.4 0.7-0.1 1.4 0.2 0.6 0.7 1 0.9 0.8z"/><path class="d" d="m52 7.1c0.3-0.1 0.5-0.5 0.3-0.9-0.1-0.3-0.5-0.5-0.9-0.4-0.3 0.2-0.5 0.6-0.3 0.9 0.1 0.4 0.5 0.5 0.9 0.4z"/><path class="d" d="m53.4 14.5c0.4-0.2 0.4-0.9 0.1-1.6-0.3-0.8-0.8-1.2-1.2-1.1-0.3 0.1-0.3 0.9 0 1.6 0.3 0.7 0.8 1.2 1.1 1.1z"/><path class="b" d="m60.1 20.3c0-0.6-0.2-2 0.2-2 0.3 0 0.4 2 0.4 2z"/><path class="b" d="m56.9 21.9c-0.4-0.5-1.5-1.5-1.3-1.7 0.3-0.2 1.7 1.3 1.7 1.3z"/><path class="b" d="m58.4 20.8c-0.1-0.6-0.9-3.2-0.6-3.2 0.4 0 1.2 3 1.2 3z"/><path class="a" d="m49.7 53.4c0.5 2.5 22.1 5.5 24.1 0 0.4-1.3-5.1-16.7-7-18.3-0.7-0.7-2 0.2-3.3 0.3-1.6 0.2-3.2-0.3-3.5 0.1-0.7 0.7-11.1 14.6-10.3 17.9z"/><path class="b" d="m50 53.4c0.5 2.5 21.6 5.4 23.6 0 0.4-1.2-4.9-16.3-6.8-17.9-0.7-0.6-2 0.2-3.3 0.4-1.5 0.1-3-0.3-3.4 0-0.7 0.7-10.8 14.4-10.1 17.5z"/><path class="c" d="m51 53.2c0.5 2.2 19.8 5 21.6 0 0.4-1.1-4.5-15.4-6.2-16.9-0.7-0.5-1.9 0.6-3 0.8-1.4 0.1-2.5-0.7-2.8-0.4-0.7 0.6-10.3 13.6-9.6 16.5z"/><path class="d" d="m62.7 39.4c-1.2 0.2-0.5 7.2 0.1 7.5 0.6 0.4 0.7-7.7-0.1-7.5z"/><path class="d" d="m69.4 46c-0.9 1.3 1.6 1.2 0.3 3-0.2 0.3-0.6 0.4-1.1 0.1-0.1-0.1-0.3-0.3-0.5-0.4-0.5-0.4-1.1-0.1-1.4 0.3-0.2 0.3-0.3 0.8 0.2 1.1 0.5 0.4 0.8 3 0.5 3.4-0.6 0.8-0.7 0-1.3 0-0.8 0.1-1.5 2.1-3.9 0.9-0.5-0.3-1.2 0.1-1.9 0.2-0.5 0-0.8-0.4-1.2-0.5-0.2-0.1-0.6-0.1-0.7-0.1q0-0.1 0-0.1c-0.2-1.2 1.1-2.7-0.2-3.7-0.3-0.2-0.7-0.4-1.1-0.6-1.1-0.8 0.2-1.2-0.8-2-0.3-0.2-0.7-0.3-1-0.5-0.2-0.1-0.2-0.5-0.3-0.6q-0.1 0-0.1 0c-0.8-0.1-1.4 0.8-2.1 1.7-0.1 0.2-0.5 0.7-0.8 1.3-0.8 1.7-1.3 3-1.1 3.7 0.4 2.3 19.8 5 21.6 0.1 0.2-0.5-0.6-3.6-1.8-7q-0.1 0-0.2-0.1c-0.3-0.3-0.9-0.5-1.1-0.2z"/><path class="d" d="m59.2 46.6c-0.3 0-0.5 0.5-0.4 1.2 0 0.6 0.3 1.1 0.6 1.1 0.3 0 0.5-0.6 0.5-1.2-0.1-0.7-0.4-1.2-0.7-1.1z"/><path class="d" d="m66.1 51.4c-0.3 0-0.6 0.3-0.6 0.7 0.1 0.4 0.4 0.7 0.8 0.6 0.4 0 0.6-0.4 0.6-0.7-0.1-0.4-0.4-0.7-0.8-0.6z"/><path class="d" d="m66.7 43.9c-0.4 0-0.6 0.7-0.5 1.5 0.1 0.8 0.5 1.4 0.8 1.3 0.4 0 0.6-0.7 0.5-1.5-0.1-0.8-0.4-1.4-0.8-1.3z"/><path class="b" d="m61.8 36.4c-0.1 0.6-0.3 2.1-0.7 1.9-0.3-0.1 0.2-2 0.2-2z"/><path class="b" d="m65.4 35.8c0.3 0.6 1 1.8 0.7 1.9-0.3 0.1-1.2-1.6-1.2-1.6z"/><path class="b" d="m63.6 36.5c0 0.6 0.1 3.2-0.3 3.2-0.3-0.1-0.3-3.2-0.3-3.2z"/><path class="a" d="m57.3 154.3c2.2-0.9 2.6-19.4-3.4-20-1.4-0.1-16.7 8.7-18 10.8-0.5 0.8 0.7 1.7 1.2 2.7 0.6 1.3 0.5 2.7 1 2.9 0.8 0.4 16.3 4.9 19.2 3.6z"/><path class="b" d="m57.3 154c2.2-0.9 2.6-18.9-3.3-19.5-1.4-0.1-16.3 8.4-17.6 10.5-0.5 0.7 0.7 1.6 1.2 2.7 0.5 1.2 0.4 2.6 0.9 2.8 0.8 0.4 16 4.8 18.8 3.5z"/><path class="c" d="m57 153.4c2-0.9 2.3-17.5-3.1-18-1.2-0.1-15.4 7.8-16.6 9.7-0.4 0.7 1.2 1.4 1.6 2.4 0.5 1.1-0.2 2.2 0.2 2.4 0.8 0.4 15.3 4.7 17.9 3.5z"/><path class="d" d="m41.5 147.5c0.5 1 7.3-1.4 7.6-1.9 0.3-0.6-8 1.2-7.6 1.9z"/><path class="d" d="m47 140.1c1.5 0.5 0.9-1.7 3-1 0.4 0.1 0.6 0.5 0.3 0.9-0.1 0.2-0.2 0.4-0.3 0.6-0.3 0.5 0.1 1 0.5 1.2 0.4 0.1 0.9 0 1.2-0.4 0.3-0.6 2.8-1.5 3.3-1.3 0.9 0.3 0.1 0.6 0.2 1.2 0.3 0.6 2.3 0.7 1.4 3.1-0.2 0.4 0.3 0.9 0.5 1.4 0.1 0.4-0.3 0.7-0.3 1.1-0.1 0.2 0 0.5-0.1 0.6q0 0 0 0c-1.1 0.5-2.8-0.2-3.6 1.1-0.2 0.3-0.2 0.6-0.4 1-0.6 1-1.2 0.1-1.8 1.1-0.2 0.3-0.1 0.6-0.3 0.9-0.1 0.1-0.5 0.2-0.5 0.4q0 0 0 0c-0.1 0.7 1 0.9 1.9 1.2 0.3 0.1 0.8 0.2 1.4 0.3 1.7 0.2 3 0.3 3.6 0 2-0.9 2.3-17.5-3-18-0.6 0-3.6 1.5-7 3.3q-0.1 0.1-0.1 0.2c-0.2 0.4-0.3 1 0.1 1.1z"/><path class="d" d="m49.4 148.7c0.1 0.2 0.6 0.2 1.3 0 0.6-0.2 1-0.6 1-0.8-0.1-0.3-0.7-0.3-1.3-0.1-0.7 0.2-1.1 0.6-1 0.9z"/><path class="d" d="m53 141.7c0.1 0.3 0.5 0.5 0.9 0.3 0.4-0.1 0.6-0.4 0.5-0.8-0.1-0.3-0.5-0.4-0.9-0.3-0.3 0.1-0.6 0.5-0.5 0.8z"/><path class="d" d="m45.2 143c0.1 0.3 0.9 0.3 1.7 0.1 0.8-0.3 1.3-0.8 1.2-1.1-0.1-0.3-0.8-0.3-1.6-0.1-0.9 0.3-1.4 0.8-1.3 1.1z"/><path class="b" d="m38.5 148.9c0.7 0 2.2-0.2 2.2 0.1 0 0.3-2.1 0.4-2.1 0.4z"/><path class="b" d="m37 146.1c0.6-0.4 1.7-1.4 1.9-1.1 0.2 0.2-1.4 1.5-1.4 1.5z"/><path class="b" d="m38.2 147.5c0.6-0.2 3.4-0.9 3.4-0.6 0 0.3-3.3 1.1-3.3 1.1z"/><path class="a" d="m2.6 153.1c-1.7 1.9 8.2 20.9 13.8 19.3 1.3-0.3 10.4-13.6 10.7-16.1 0.1-1-1.3-1.5-2.2-2.5-1-1.1-1.6-2.6-2.1-2.7-0.9-0.2-18-0.4-20.2 2z"/><path class="b" d="m2.8 153.3c-1.6 1.8 8.1 20.4 13.5 18.8 1.3-0.3 10.2-13.3 10.5-15.7 0.1-0.9-1.3-1.5-2.2-2.4-1-1.1-1.5-2.6-2-2.7-0.9-0.2-17.7-0.4-19.8 2z"/><path class="c" d="m3.3 153.9c-1.5 1.7 7.5 19.1 12.6 17.6 1.2-0.3 9.9-12.6 10.1-14.9 0.1-0.8-1.6-1.1-2.4-2-0.9-1-0.8-2.4-1.3-2.5-0.8-0.2-17-0.4-19 1.8z"/><path class="d" d="m21.3 155.4c-0.9-0.9-6 3.8-6 4.5 0.1 0.7 6.7-3.9 6-4.5z"/><path class="d" d="m19.9 164.7c-1.6 0 0 2-2.2 2-0.4 0-0.8-0.2-0.8-0.8 0-0.2 0.1-0.5 0.1-0.7 0-0.6-0.6-1-1.1-1-0.4 0-0.8 0.3-0.8 0.8 0 0.7-1.9 2.4-2.4 2.4-1 0-0.5-0.5-0.8-1-0.6-0.6-2.6 0-3-2.7-0.1-0.5-0.8-0.9-1.3-1.4-0.3-0.3-0.1-0.8-0.3-1.2 0-0.2-0.3-0.5-0.3-0.7q0 0 0.1 0c0.8-0.9 2.8-0.7 2.8-2.4 0-0.3-0.1-0.8-0.1-1.2 0-1.4 1.1-0.6 1.1-1.8 0-0.4-0.1-0.7-0.1-1.1 0-0.2 0.2-0.4 0.2-0.6q0 0 0 0c-0.3-0.8-1.5-0.8-2.6-0.8-0.3 0-0.8 0.1-1.5 0.1-1.8 0.3-3.2 0.7-3.7 1.3-1.5 1.7 7.6 19 12.6 17.6 0.6-0.2 2.5-2.6 4.6-5.5q0-0.1 0-0.3c0-0.4-0.1-1-0.5-1z"/><path class="d" d="m12.8 154.9c0-0.2-0.3-0.3-0.6-0.3-0.4 0.1-0.6 0.2-0.6 0.4 0 0.2 0.3 0.3 0.6 0.3 0.4 0 0.7-0.2 0.6-0.4z"/><path class="d" d="m18.4 164.3c-0.2-0.1-0.5 0.1-0.6 0.4-0.2 0.3-0.2 0.6-0.1 0.7 0.2 0.1 0.5-0.1 0.7-0.4 0.1-0.3 0.2-0.6 0-0.7z"/><path class="d" d="m22.1 158.4c-0.2-0.1-0.7 0.4-1.1 1.1-0.4 0.7-0.6 1.4-0.5 1.5 0.2 0.1 0.7-0.4 1.1-1.2 0.4-0.7 0.7-1.3 0.5-1.4z"/><path class="c" d="m9.1 158c0-0.4-0.5-0.6-1-0.6-0.6 0-1 0.2-1 0.6 0 0.3 0.4 0.6 1 0.6 0.5 0 1-0.3 1-0.6z"/><path class="c" d="m8 153.8c0-0.2-0.2-0.4-0.5-0.4-0.2 0-0.4 0.2-0.4 0.4 0 0.3 0.2 0.5 0.4 0.5 0.3 0 0.5-0.2 0.5-0.5z"/><path class="b" d="m24.7 154.8c-0.9 1.1-1.7 2.8-1.7 2.8l2-2.6z"/><path class="b" d="m23.3 153.9c-1.8 1.3-3.7 3.3-3.7 3.3l4.1-2.8z"/><path class="b" d="m23.1 152.7c-2.1 0.7-4.4 2.1-4.4 2.1l4.7-1.6z"/><path class="d" d="m13 164.3c0.4-0.2 1.4-0.8 1.2 0.3-0.3 1.2-0.3 1.4-0.9 1.8-0.6 0.3-0.7 0-0.6-0.5 0.2-0.6 0-1.3 0.3-1.6z"/><path class="a" d="m54.6 135.8c1-2.3-14.8-16.9-19.5-13.5-1.1 0.8-5.2 16.3-4.6 18.8 0.2 0.9 1.7 0.9 2.9 1.6 1.3 0.7 2.3 1.9 2.9 1.9 0.9-0.2 17.1-5.7 18.3-8.8z"/><path class="b" d="m54.4 135.8c0.9-2.3-14.5-16.5-19.1-13.3-1.1 0.8-5.2 16-4.6 18.4 0.3 0.9 1.7 0.9 2.8 1.5 1.4 0.8 2.4 2 2.9 1.9 0.9-0.1 16.7-5.6 18-8.5z"/><path class="c" d="m53.7 135.3c0.8-2.1-13.5-15.4-17.8-12.3-1 0.7-5.1 15.2-4.5 17.4 0.2 0.8 1.8 0.5 2.9 1.1 1.2 0.7 1.6 2 2.1 1.9 0.8-0.1 16.1-5.3 17.3-8.1z"/><path class="d" d="m36.2 140c1.1 0.5 4.4-5.7 4.1-6.3-0.2-0.6-4.9 5.9-4.1 6.3z"/><path class="d" d="m34.4 130.7c1.5-0.5-0.6-1.9 1.4-2.6 0.4-0.1 0.8 0 1 0.5 0.1 0.2 0.1 0.5 0.2 0.7 0.2 0.5 0.9 0.7 1.3 0.5 0.4-0.1 0.7-0.5 0.5-1-0.2-0.7 1-2.9 1.5-3.1 0.9-0.3 0.6 0.4 1.1 0.8 0.8 0.3 2.4-0.9 3.7 1.5 0.3 0.5 1.1 0.6 1.7 0.9 0.4 0.2 0.4 0.7 0.7 1 0.1 0.2 0.4 0.4 0.5 0.5q0 0.1 0 0.1c-0.5 1.1-2.5 1.6-2 3.2 0.2 0.3 0.4 0.7 0.5 1.1 0.5 1.3-0.8 0.9-0.4 2 0.1 0.4 0.4 0.7 0.6 1.1 0 0.1-0.2 0.5-0.1 0.6q0 0 0 0c0.6 0.6 1.7 0.2 2.7-0.2 0.3-0.1 0.8-0.3 1.4-0.6 1.6-0.8 2.8-1.7 3.1-2.4 0.8-2.1-13.6-15.4-17.8-12.3-0.5 0.3-1.5 3.3-2.5 6.7q0 0.1 0.1 0.2c0.1 0.4 0.4 1 0.8 0.8z"/><path class="d" d="m44.3 137.6c0.1 0.2 0.4 0.2 0.8 0 0.3-0.1 0.5-0.4 0.4-0.5-0.1-0.2-0.4-0.2-0.7-0.1-0.3 0.2-0.5 0.4-0.5 0.6z"/><path class="d" d="m36 130.6c0.2 0.1 0.4-0.2 0.4-0.5 0.1-0.4 0-0.7-0.2-0.7-0.2 0-0.4 0.2-0.5 0.5 0 0.4 0.1 0.7 0.3 0.7z"/><path class="d" d="m34.5 137.4c0.2 0.1 0.4-0.6 0.6-1.4 0.2-0.8 0.1-1.5 0-1.5-0.2-0.1-0.5 0.6-0.7 1.4-0.1 0.8-0.1 1.5 0.1 1.5z"/><path class="c" d="m46.9 133.4c0.1 0.4 0.6 0.5 1.1 0.3 0.5-0.2 0.9-0.6 0.8-0.9-0.1-0.3-0.7-0.4-1.2-0.2-0.5 0.1-0.9 0.5-0.7 0.8z"/><path class="c" d="m49.3 137c0.1 0.2 0.3 0.3 0.5 0.2 0.3 0 0.4-0.3 0.3-0.5-0.1-0.2-0.3-0.4-0.6-0.3-0.2 0.1-0.3 0.4-0.2 0.6z"/><path class="b" d="m33.3 141.7c0.4-1.4 0.6-3.2 0.6-3.2l-1.1 3.1z"/><path class="b" d="m34.8 142c1.3-1.8 2.4-4.3 2.4-4.3l-2.9 4z"/><path class="b" d="m35.4 143.2c1.7-1.5 3.5-3.6 3.5-3.6l-3.9 3.1z"/><path class="d" d="m41 128.8c-0.2 0.3-1 1.2-1.2 0.1-0.1-1.2-0.2-1.4 0.2-1.9 0.5-0.6 0.7-0.3 0.8 0.3 0 0.5 0.5 1.1 0.2 1.5z"/><path class="a" d="m43.1 173.5c2.4 1.1 16.3-13.4 13.3-18-0.8-1.1-15.5-6.4-17.9-6.1-0.9 0.1-1 1.6-1.7 2.6-0.8 1.2-2.1 2.1-2 2.6 0.1 0.9 5.3 17.5 8.3 18.9z"/><path class="b" d="m43.2 173.2c2.3 1.1 15.9-13.1 12.9-17.6-0.7-1-15-6.3-17.4-5.9-0.9 0.1-1 1.5-1.6 2.5-0.8 1.2-2.1 2.1-2 2.5 0.1 1 5.1 17.2 8.1 18.5z"/><path class="c" d="m43.7 172.5c2.1 1 14.9-12.2 12-16.4-0.6-1-14.3-6.1-16.5-5.8-0.9 0.1-0.6 1.8-1.2 2.7-0.8 1.1-2.1 1.4-2.1 1.8 0.1 0.9 5 16.5 7.8 17.7z"/><path class="d" d="m39.4 155c-0.5 1 5.5 4.7 6.2 4.4 0.6-0.2-5.8-5.2-6.2-4.4z"/><path class="d" d="m48.5 154.1c0.5 1.5 1.8-0.4 2.5 1.6 0.1 0.3 0 0.7-0.5 0.8-0.2 0.1-0.4 0.1-0.6 0.1-0.6 0.2-0.7 0.8-0.6 1.2 0.1 0.4 0.5 0.7 1 0.6 0.6-0.2 2.7 1.2 2.9 1.6 0.3 0.9-0.3 0.5-0.7 1-0.4 0.7 0.8 2.4-1.4 3.5-0.5 0.2-0.6 0.9-0.9 1.5-0.2 0.4-0.7 0.4-1.1 0.6-0.1 0.1-0.3 0.4-0.5 0.5q0 0 0 0c-1.1-0.6-1.6-2.6-3.1-2.1-0.4 0.1-0.7 0.3-1.1 0.4-1.3 0.4-0.9-0.9-2.1-0.5-0.4 0.1-0.6 0.3-1 0.4-0.2 0.1-0.5-0.1-0.7-0.1q0 0 0 0.1c-0.6 0.5-0.2 1.6 0.1 2.7 0.1 0.2 0.3 0.8 0.6 1.5 0.9 1.6 1.7 2.8 2.4 3.1 2.1 1 14.8-12.2 12-16.4-0.3-0.4-3-1.6-6.2-2.8q-0.1 0-0.2 0c-0.4 0.1-0.9 0.3-0.8 0.7z"/><path class="d" d="m41.6 163.1c-0.2 0.1-0.2 0.4-0.1 0.7 0.2 0.3 0.4 0.5 0.6 0.4 0.2 0 0.2-0.4 0.1-0.7-0.2-0.3-0.4-0.5-0.6-0.4z"/><path class="d" d="m48.6 155.6c0 0.1 0.2 0.4 0.5 0.4 0.3 0.1 0.6 0.1 0.7-0.1 0-0.2-0.2-0.4-0.6-0.5-0.3-0.1-0.6 0-0.6 0.2z"/><path class="d" d="m42 153.5c0 0.2 0.6 0.6 1.4 0.8 0.8 0.2 1.5 0.2 1.5 0.1 0.1-0.2-0.6-0.5-1.4-0.8-0.8-0.2-1.5-0.2-1.5-0.1z"/><path class="c" d="m45.7 165.8c-0.3 0.1-0.4 0.6-0.2 1.1 0.1 0.6 0.5 0.9 0.8 0.8 0.3-0.1 0.4-0.6 0.3-1.1-0.2-0.5-0.6-0.9-0.9-0.8z"/><path class="c" d="m42.1 168c-0.2 0.1-0.4 0.3-0.3 0.6 0.1 0.2 0.4 0.3 0.6 0.3 0.2-0.1 0.3-0.3 0.3-0.6-0.1-0.2-0.4-0.3-0.6-0.3z"/><path class="b" d="m37.8 152c1.4 0.5 3.2 0.9 3.2 0.9l-3.1-1.3z"/><path class="b" d="m37.4 153.5c1.8 1.3 4.3 2.6 4.3 2.6l-4-3.2z"/><path class="b" d="m36.3 153.9c1.3 1.8 3.4 3.7 3.4 3.7l-3-4.1z"/><path class="d" d="m50.3 160.4c-0.3-0.2-1.2-1-0.1-1.1 1.1 0 1.3-0.1 1.8 0.4 0.5 0.4 0.3 0.6-0.3 0.6-0.5 0-1 0.4-1.4 0.1z"/><path class="a" d="m9.5 129.1c-2.6-0.2-12 19.5-7.3 23 1.1 0.8 17.4 0.2 19.6-1.2 0.8-0.5 0.4-1.9 0.7-3.2 0.3-1.6 1.2-2.9 0.9-3.4-0.4-0.9-10.6-14.9-13.9-15.2z"/><path class="b" d="m9.3 129.5c-2.5-0.3-11.6 19-7 22.4 1 0.8 17 0.2 19.1-1.1 0.8-0.5 0.4-1.9 0.6-3.2 0.3-1.5 1.2-2.8 1-3.3-0.4-0.8-10.5-14.6-13.7-14.8z"/><path class="c" d="m9.2 130.4c-2.2-0.2-10.7 17.5-6.5 20.7 1 0.7 16.1 0.3 18-0.9 0.8-0.5 0-2 0.2-3.1 0.3-1.4 1.4-2.2 1.2-2.6-0.3-0.8-9.9-13.8-12.9-14.1z"/><path class="d" d="m18.9 145.7c0.1-1.2-6.7-2.5-7.2-2.1-0.5 0.5 7.1 3 7.2 2.1z"/><path class="d" d="m10.6 150.1c-1-1.2-1.6 1.2-3-0.5-0.2-0.3-0.2-0.8 0.2-1.1 0.2-0.1 0.4-0.2 0.6-0.4 0.5-0.3 0.5-1 0.2-1.4-0.3-0.3-0.8-0.5-1.2-0.2-0.5 0.4-3-0.1-3.3-0.5-0.6-0.8 0.1-0.6 0.3-1.3 0.2-0.8-1.5-2 0.4-3.9 0.4-0.4 0.2-1.2 0.3-1.9 0.1-0.4 0.6-0.6 0.9-1 0.1-0.1 0.2-0.5 0.3-0.6q0 0 0 0c1.2 0.2 2.3 1.9 3.6 0.9 0.4-0.2 0.6-0.6 1-0.8 1.1-0.9 1.1 0.5 2-0.2 0.4-0.3 0.5-0.6 0.9-0.8 0.1-0.2 0.5-0.1 0.6-0.2q0 0 0 0c0.4-0.7-0.3-1.6-1-2.5-0.1-0.2-0.5-0.7-1-1.2-1.3-1.3-2.4-2.1-3.2-2.2-2.2-0.2-10.7 17.5-6.5 20.7 0.5 0.3 3.6 0.4 7.2 0.3q0.1 0 0.2-0.1c0.3-0.3 0.7-0.7 0.5-1.1z"/><path class="d" d="m13.1 140.2c0.1-0.3-0.4-0.6-1-0.7-0.7-0.2-1.2 0-1.3 0.3-0.1 0.3 0.4 0.6 1.1 0.8 0.6 0.1 1.2-0.1 1.2-0.4z"/><path class="d" d="m6.5 145.4c0-0.3-0.2-0.7-0.6-0.7-0.4-0.1-0.7 0.1-0.8 0.5-0.1 0.3 0.2 0.7 0.6 0.8 0.3 0 0.7-0.2 0.8-0.6z"/><path class="d" d="m13.5 148.2c0-0.3-0.6-0.7-1.3-0.9-0.8-0.1-1.5 0-1.6 0.4-0.1 0.4 0.5 0.8 1.3 0.9 0.8 0.2 1.5 0 1.6-0.4z"/><path class="b" d="m22 145.8c-0.5-0.3-1.8-0.9-1.6-1.2 0.2-0.3 1.9 0.7 1.9 0.7z"/><path class="b" d="m21.5 149.4c-0.6 0.1-2 0.5-2 0.1 0-0.3 1.9-0.7 1.9-0.7z"/><path class="b" d="m21.4 147.5c-0.5-0.2-3.1-0.9-2.9-1.3 0.1-0.3 3.1 0.7 3.1 0.7z"/><path class="a" d="m34.9 121.3c-1.2-2.3-22.8 0.6-23.3 6.4-0.1 1.4 9.4 14.7 11.7 15.8 0.9 0.4 1.9-0.7 3.1-1.2 1.5-0.6 3.1-0.6 3.4-1 0.5-0.8 6.6-17.1 5.1-20z"/><path class="b" d="m34.5 121.3c-1.2-2.2-22.3 0.7-22.7 6.4-0.1 1.3 9.2 14.4 11.4 15.4 0.9 0.4 1.8-0.7 3-1.2 1.4-0.6 3-0.6 3.3-1 0.5-0.8 6.5-16.7 5-19.6z"/><path class="c" d="m33.6 121.8c-1-2-20.4 0.6-20.8 5.8-0.1 1.2 8.5 13.6 10.6 14.6 0.7 0.4 1.6-1.1 2.7-1.5 1.3-0.5 2.5 0 2.8-0.4 0.4-0.7 6.1-15.9 4.7-18.5z"/><path class="d" d="m26.1 138.2c1.1-0.5-1.5-7-2.2-7.1-0.7-0.2 1.4 7.5 2.2 7.1z"/><path class="d" d="m17.8 133.7c0.6-1.5-1.8-0.7-1.1-2.8 0.2-0.3 0.5-0.6 1-0.4 0.2 0.1 0.4 0.2 0.7 0.3 0.5 0.2 1.1-0.2 1.2-0.7 0.2-0.3 0.1-0.9-0.4-1-0.7-0.3-1.6-2.6-1.5-3.1 0.4-1 0.7-0.2 1.3-0.4 0.8-0.3 0.9-2.4 3.5-1.9 0.6 0.1 1.2-0.4 1.8-0.7 0.4-0.2 0.8 0.1 1.3 0.2 0.1 0 0.5-0.2 0.7-0.1q0 0 0 0c0.5 1.1-0.3 3 1.2 3.5 0.4 0.2 0.8 0.2 1.2 0.4 1.3 0.4 0.2 1.2 1.3 1.6 0.4 0.1 0.8 0.1 1.1 0.2 0.2 0.1 0.3 0.4 0.5 0.5q0 0 0 0c0.9-0.1 1.2-1.2 1.6-2.2 0.1-0.3 0.3-0.8 0.5-1.5 0.3-1.8 0.4-3.2 0-3.8-1-2.1-20.5 0.5-20.8 5.8-0.1 0.5 1.6 3.2 3.6 6.2q0.1 0 0.2 0c0.4 0.2 1 0.3 1.1-0.1z"/><path class="d" d="m27.5 130.4c0.3-0.1 0.4-0.7 0.1-1.3-0.2-0.6-0.7-1-1-0.9-0.2 0.1-0.3 0.7 0 1.3 0.2 0.6 0.7 1 0.9 0.9z"/><path class="d" d="m19.5 127.7c0.4-0.2 0.5-0.6 0.4-0.9-0.1-0.4-0.5-0.5-0.9-0.4-0.3 0.1-0.5 0.5-0.3 0.9 0.1 0.3 0.5 0.5 0.8 0.4z"/><path class="d" d="m21 135.1c0.4-0.2 0.4-0.9 0.1-1.6-0.3-0.8-0.8-1.3-1.2-1.1-0.3 0.1-0.4 0.8-0.1 1.6 0.3 0.7 0.9 1.2 1.2 1.1z"/><path class="b" d="m27.7 140.9c0-0.6-0.2-2.1 0.2-2 0.3 0 0.4 2 0.4 2z"/><path class="b" d="m24.5 142.5c-0.4-0.5-1.5-1.5-1.3-1.7 0.3-0.2 1.7 1.3 1.7 1.3z"/><path class="b" d="m26 141.3c-0.1-0.6-0.9-3.1-0.6-3.1 0.4-0.1 1.2 3 1.2 3z"/><path class="a" d="m17.2 174c0.6 2.4 22.2 5.5 24.1 0 0.5-1.3-5-16.7-6.9-18.4-0.8-0.6-2 0.3-3.3 0.4-1.6 0.2-3.2-0.3-3.6 0.1-0.7 0.6-11 14.6-10.3 17.9z"/><path class="b" d="m17.6 174c0.5 2.4 21.6 5.4 23.5 0 0.5-1.2-4.9-16.3-6.8-17.9-0.6-0.6-1.9 0.2-3.2 0.3-1.5 0.2-3-0.2-3.4 0.1-0.7 0.7-10.8 14.3-10.1 17.5z"/><path class="c" d="m18.6 173.8c0.4 2.2 19.8 5 21.6 0 0.4-1.1-4.5-15.4-6.2-16.9-0.7-0.6-1.9 0.6-3 0.8-1.4 0.1-2.5-0.8-2.9-0.4-0.6 0.5-10.2 13.6-9.5 16.5z"/><path class="d" d="m30.2 160c-1.2 0.2-0.4 7.1 0.2 7.5 0.6 0.4 0.7-7.7-0.2-7.5z"/><path class="d" d="m37 166.6c-1 1.3 1.6 1.2 0.3 3-0.2 0.3-0.6 0.4-1.1 0.1-0.1-0.1-0.3-0.3-0.5-0.4-0.5-0.4-1.2-0.1-1.4 0.2-0.3 0.4-0.3 0.9 0.1 1.2 0.6 0.4 0.9 2.9 0.6 3.3-0.6 0.9-0.7 0.1-1.4 0.1-0.8 0.1-1.4 2.1-3.9 0.9-0.4-0.3-1.1 0.1-1.8 0.2-0.5 0-0.8-0.4-1.2-0.5-0.2-0.1-0.6-0.1-0.7-0.2q0 0 0 0c-0.2-1.2 1.1-2.8-0.2-3.7-0.4-0.2-0.8-0.4-1.1-0.6-1.1-0.9 0.2-1.3-0.8-2-0.3-0.2-0.7-0.3-1-0.5-0.2-0.1-0.2-0.5-0.3-0.6q-0.1 0-0.1 0c-0.8-0.2-1.4 0.8-2.1 1.7-0.2 0.2-0.5 0.7-0.8 1.3-0.8 1.6-1.3 3-1.2 3.7 0.5 2.2 19.9 5 21.7 0 0.2-0.5-0.7-3.5-1.8-6.9q-0.1-0.1-0.2-0.1c-0.3-0.3-0.9-0.5-1.1-0.2z"/><path class="d" d="m26.8 167.1c-0.3 0.1-0.5 0.6-0.5 1.3 0.1 0.6 0.4 1.1 0.7 1.1 0.3 0 0.5-0.6 0.4-1.3 0-0.6-0.3-1.1-0.6-1.1z"/><path class="d" d="m33.7 171.9c-0.4 0.1-0.6 0.4-0.6 0.8 0.1 0.4 0.4 0.6 0.8 0.6 0.3 0 0.6-0.4 0.6-0.8-0.1-0.3-0.4-0.6-0.8-0.6z"/><path class="d" d="m34.3 164.4c-0.4 0.1-0.6 0.7-0.5 1.5 0.1 0.8 0.4 1.4 0.8 1.4 0.4 0 0.6-0.7 0.5-1.5-0.1-0.8-0.4-1.4-0.8-1.4z"/><path class="b" d="m29.4 157c-0.1 0.6-0.3 2-0.7 1.9-0.3-0.1 0.2-2 0.2-2z"/><path class="b" d="m33 156.4c0.2 0.5 1 1.8 0.7 1.9-0.3 0.1-1.2-1.6-1.2-1.6z"/><path class="b" d="m31.2 157c-0.1 0.7 0 3.3-0.3 3.2-0.4 0-0.3-3.2-0.3-3.2z"/><path class="a" d="m138.5 118.2c2.2-0.9 2.6-19.4-3.4-20-1.4-0.1-16.7 8.7-18 10.8-0.5 0.8 0.7 1.7 1.2 2.7 0.6 1.3 0.5 2.7 0.9 2.9 0.9 0.4 16.4 4.9 19.3 3.6z"/><path class="b" d="m138.5 118c2.2-1 2.5-19-3.3-19.6-1.4-0.1-16.4 8.4-17.6 10.5-0.5 0.8 0.7 1.6 1.1 2.7 0.6 1.2 0.5 2.6 1 2.8 0.8 0.4 15.9 4.8 18.8 3.6z"/><path class="c" d="m138.2 117.3c2-0.9 2.3-17.5-3.1-17.9-1.3-0.2-15.4 7.7-16.6 9.6-0.4 0.7 1.1 1.5 1.6 2.4 0.4 1.1-0.2 2.2 0.2 2.4 0.8 0.4 15.2 4.7 17.9 3.5z"/><path class="d" d="m122.6 111.4c0.5 1 7.4-1.4 7.7-1.9 0.2-0.6-8 1.3-7.7 1.9z"/><path class="d" d="m128.1 104c1.6 0.5 1-1.7 3.1-1 0.3 0.1 0.6 0.5 0.3 0.9-0.1 0.2-0.3 0.4-0.4 0.6-0.2 0.5 0.1 1 0.6 1.2 0.3 0.1 0.9 0 1.1-0.4 0.4-0.6 2.9-1.5 3.4-1.3 0.9 0.3 0.1 0.6 0.2 1.2 0.2 0.6 2.3 0.7 1.4 3.1-0.2 0.4 0.3 0.9 0.5 1.5 0.1 0.3-0.3 0.7-0.4 1 0 0.2 0.1 0.5 0 0.6q0 0 0 0.1c-1.1 0.4-2.9-0.3-3.6 1-0.2 0.3-0.3 0.7-0.4 1-0.7 1-1.3 0.1-1.8 1.1-0.2 0.3-0.2 0.6-0.3 0.9-0.1 0.1-0.5 0.3-0.5 0.4q0 0-0.1 0c0 0.7 1.1 0.9 2 1.2 0.3 0.1 0.8 0.2 1.4 0.3 1.6 0.2 2.9 0.3 3.6 0 2-0.9 2.3-17.5-3-18-0.6 0-3.7 1.5-7 3.3q-0.1 0.1-0.1 0.2c-0.2 0.4-0.4 1 0 1.1z"/><path class="d" d="m130.6 112.6c0 0.2 0.6 0.2 1.3 0 0.6-0.2 1-0.6 0.9-0.8 0-0.3-0.6-0.3-1.3-0.1-0.6 0.3-1 0.6-0.9 0.9z"/><path class="d" d="m134.2 105.6c0.1 0.3 0.5 0.5 0.9 0.3 0.3-0.1 0.6-0.4 0.5-0.7-0.1-0.4-0.5-0.5-0.9-0.4-0.4 0.2-0.6 0.5-0.5 0.8z"/><path class="d" d="m126.4 106.9c0.1 0.3 0.9 0.3 1.7 0.1 0.8-0.3 1.3-0.8 1.2-1.1-0.1-0.3-0.9-0.3-1.7 0-0.8 0.2-1.3 0.7-1.2 1z"/><path class="b" d="m119.7 112.9c0.7-0.1 2.2-0.2 2.2 0.1-0.1 0.3-2.2 0.4-2.2 0.4z"/><path class="b" d="m118.2 110c0.5-0.3 1.7-1.3 1.9-1.1 0.2 0.3-1.5 1.5-1.5 1.5z"/><path class="b" d="m119.4 111.4c0.6-0.1 3.3-0.9 3.4-0.6 0 0.3-3.3 1.1-3.3 1.1z"/><path class="a" d="m83.7 117c-1.6 1.9 8.3 20.9 13.9 19.3 1.3-0.3 10.4-13.6 10.7-16.1 0-1-1.4-1.5-2.2-2.5-1.1-1.1-1.6-2.6-2.1-2.7-0.9-0.2-18.1-0.4-20.3 2z"/><path class="b" d="m84 117.2c-1.7 1.8 8.1 20.4 13.5 18.9 1.3-0.4 10.2-13.4 10.4-15.8 0.1-0.9-1.2-1.5-2.1-2.4-1-1.1-1.5-2.6-2-2.7-0.9-0.2-17.7-0.4-19.8 2z"/><path class="c" d="m84.5 117.9c-1.6 1.7 7.5 19 12.6 17.6 1.2-0.4 9.9-12.7 10.1-15 0.1-0.8-1.6-1.1-2.4-2-0.9-1-0.8-2.4-1.3-2.5-0.9-0.2-17-0.4-19 1.9z"/><path class="d" d="m102.5 119.3c-0.9-0.8-6 3.8-6 4.5 0 0.7 6.6-3.9 6-4.5z"/><path class="d" d="m101 128.6c-1.6 0 0 2-2.2 2-0.4 0-0.7-0.2-0.7-0.8 0-0.2 0-0.4 0-0.7 0-0.6-0.5-0.9-1-0.9-0.4 0-0.8 0.2-0.8 0.8 0 0.7-2 2.4-2.4 2.4-1.1 0-0.5-0.6-0.9-1.1-0.5-0.6-2.5 0-3-2.7 0-0.5-0.7-0.9-1.2-1.4-0.3-0.3-0.1-0.8-0.3-1.2 0-0.2-0.3-0.5-0.3-0.7q0 0 0 0c0.9-0.8 2.9-0.7 2.9-2.3 0-0.4-0.1-0.9-0.1-1.3 0-1.4 1.1-0.5 1.1-1.7 0-0.5-0.2-0.8-0.2-1.2 0-0.2 0.3-0.4 0.3-0.6q0 0 0 0c-0.3-0.8-1.5-0.7-2.6-0.7-0.3 0-0.8 0-1.6 0-1.7 0.3-3.1 0.7-3.6 1.3-1.5 1.7 7.6 19 12.6 17.6 0.5-0.2 2.5-2.6 4.6-5.5q0-0.1 0-0.2c0-0.5-0.1-1.1-0.6-1.1z"/><path class="d" d="m94 118.8c0-0.2-0.3-0.3-0.6-0.3-0.4 0.1-0.6 0.2-0.6 0.4 0 0.2 0.3 0.4 0.6 0.3 0.4 0 0.6-0.2 0.6-0.4z"/><path class="d" d="m99.6 128.2c-0.2-0.1-0.5 0.1-0.7 0.4-0.1 0.3-0.1 0.6 0 0.7 0.2 0.1 0.5-0.1 0.6-0.4 0.2-0.3 0.2-0.6 0.1-0.7z"/><path class="d" d="m103.3 122.3c-0.2-0.1-0.7 0.4-1.1 1.1-0.4 0.7-0.7 1.4-0.5 1.5 0.2 0.1 0.7-0.4 1.1-1.1 0.4-0.8 0.6-1.4 0.5-1.5z"/><path class="c" d="m90.3 121.9c0-0.3-0.5-0.6-1-0.6-0.6 0-1.1 0.3-1.1 0.6 0 0.3 0.5 0.6 1.1 0.6 0.5 0 1-0.3 1-0.6z"/><path class="c" d="m89.2 117.7c0-0.2-0.2-0.4-0.5-0.4-0.2 0-0.4 0.2-0.4 0.4 0 0.3 0.2 0.5 0.4 0.5 0.3 0 0.5-0.2 0.5-0.5z"/><path class="b" d="m105.8 118.7c-0.8 1.2-1.6 2.8-1.6 2.8l2-2.6z"/><path class="b" d="m104.5 117.8c-1.8 1.3-3.7 3.3-3.7 3.3l4.1-2.8z"/><path class="b" d="m104.3 116.6c-2.1 0.7-4.5 2.1-4.5 2.1l4.8-1.6z"/><path class="d" d="m94.2 128.3c0.4-0.3 1.4-0.9 1.1 0.2-0.2 1.2-0.2 1.4-0.8 1.8-0.6 0.3-0.7 0-0.6-0.5 0.2-0.6-0.1-1.3 0.3-1.5z"/><path class="a" d="m135.8 99.8c1-2.4-14.8-17-19.5-13.6-1.1 0.8-5.3 16.4-4.6 18.8 0.2 0.9 1.7 1 2.8 1.6 1.4 0.7 2.4 1.9 2.9 1.9 1-0.2 17.2-5.7 18.4-8.7z"/><path class="b" d="m135.5 99.7c1-2.3-14.4-16.5-19-13.3-1.1 0.8-5.2 16-4.6 18.4 0.2 0.9 1.7 0.9 2.8 1.5 1.3 0.8 2.4 2 2.9 1.9 0.9-0.1 16.7-5.6 17.9-8.5z"/><path class="c" d="m134.8 99.2c0.9-2.1-13.5-15.4-17.7-12.3-1 0.7-5.1 15.2-4.6 17.4 0.3 0.8 1.9 0.6 3 1.1 1.2 0.7 1.6 2 2 1.9 0.9-0.1 16.2-5.3 17.3-8.1z"/><path class="d" d="m117.4 103.9c1.1 0.5 4.4-5.6 4.1-6.3-0.3-0.6-4.9 6-4.1 6.3z"/><path class="d" d="m115.6 94.6c1.5-0.5-0.6-1.9 1.4-2.6 0.4-0.1 0.8 0 1 0.5 0.1 0.2 0.1 0.5 0.2 0.7 0.2 0.5 0.9 0.7 1.3 0.6 0.4-0.2 0.7-0.6 0.5-1.1-0.2-0.6 1-2.9 1.5-3 0.9-0.4 0.6 0.3 1.1 0.7 0.7 0.3 2.4-0.9 3.7 1.5 0.3 0.5 1 0.6 1.7 0.9 0.3 0.2 0.4 0.7 0.6 1.1 0.2 0.1 0.5 0.3 0.5 0.5q0.1 0 0 0c-0.5 1.1-2.4 1.6-1.9 3.2 0.1 0.4 0.4 0.7 0.5 1.1 0.5 1.3-0.8 0.9-0.4 2 0.1 0.4 0.4 0.7 0.5 1.1 0.1 0.1-0.1 0.5 0 0.6q0 0 0 0.1c0.6 0.6 1.6 0.1 2.7-0.2 0.2-0.1 0.8-0.4 1.4-0.7 1.6-0.8 2.8-1.7 3-2.3 0.9-2.1-13.5-15.5-17.8-12.4-0.4 0.3-1.4 3.3-2.4 6.7q0 0.1 0 0.2c0.2 0.4 0.5 1 0.9 0.8z"/><path class="d" d="m125.5 101.5c0.1 0.2 0.4 0.2 0.7 0.1 0.4-0.2 0.5-0.4 0.5-0.6-0.1-0.2-0.4-0.2-0.8-0.1-0.3 0.2-0.5 0.4-0.4 0.6z"/><path class="d" d="m117.1 94.5c0.2 0.1 0.4-0.2 0.5-0.5 0.1-0.4 0-0.7-0.2-0.7-0.2 0-0.4 0.2-0.5 0.6 0 0.3 0.1 0.6 0.2 0.6z"/><path class="d" d="m115.7 101.4c0.1 0 0.4-0.6 0.6-1.5 0.1-0.8 0.1-1.5-0.1-1.5-0.2-0.1-0.4 0.6-0.6 1.4-0.2 0.8-0.1 1.5 0.1 1.6z"/><path class="c" d="m128 97.4c0.1 0.3 0.7 0.4 1.2 0.2 0.5-0.2 0.8-0.6 0.7-0.9-0.1-0.3-0.6-0.4-1.1-0.2-0.5 0.2-0.9 0.6-0.8 0.9z"/><path class="c" d="m130.5 100.9c0 0.2 0.3 0.3 0.5 0.3 0.2-0.1 0.4-0.4 0.3-0.6-0.1-0.2-0.3-0.3-0.6-0.3-0.2 0.1-0.3 0.4-0.2 0.6z"/><path class="b" d="m114.4 105.6c0.4-1.4 0.6-3.2 0.6-3.2l-1 3.2z"/><path class="b" d="m116 105.9c1.2-1.8 2.4-4.3 2.4-4.3l-3 4.1z"/><path class="b" d="m116.6 107.1c1.7-1.4 3.5-3.6 3.5-3.6l-4 3.2z"/><path class="d" d="m122.2 92.7c-0.3 0.3-1.1 1.3-1.2 0.1-0.1-1.2-0.2-1.4 0.2-1.9 0.5-0.5 0.7-0.3 0.7 0.3 0.1 0.6 0.5 1.1 0.3 1.5z"/><path class="a" d="m124.3 137.4c2.3 1.1 16.3-13.4 13.2-18-0.7-1.1-15.4-6.4-17.8-6.1-0.9 0.2-1 1.6-1.7 2.6-0.8 1.2-2.1 2.1-2 2.6 0.1 0.9 5.2 17.5 8.3 18.9z"/><path class="b" d="m124.4 137.2c2.3 1 15.9-13.2 12.9-17.7-0.7-1-15.1-6.2-17.4-5.9-0.9 0.1-1 1.5-1.7 2.5-0.7 1.2-2 2.1-1.9 2.6 0.1 0.9 5.1 17.1 8.1 18.5z"/><path class="c" d="m124.9 136.5c2.1 0.9 14.8-12.3 12-16.5-0.6-0.9-14.3-6.1-16.6-5.8-0.8 0.2-0.5 1.8-1.1 2.7-0.8 1.1-2.1 1.4-2.1 1.8 0.1 0.9 5 16.5 7.8 17.8z"/><path class="d" d="m120.6 118.9c-0.5 1 5.5 4.7 6.1 4.5 0.6-0.2-5.7-5.3-6.1-4.5z"/><path class="d" d="m129.7 118c0.5 1.5 1.8-0.4 2.5 1.6 0.1 0.3 0 0.7-0.5 0.8-0.2 0.1-0.5 0.1-0.7 0.2-0.5 0.1-0.7 0.7-0.5 1.1 0.1 0.4 0.5 0.7 1 0.6 0.6-0.1 2.7 1.2 2.9 1.6 0.3 0.9-0.4 0.5-0.7 1-0.4 0.7 0.8 2.4-1.5 3.5-0.5 0.2-0.6 0.9-0.8 1.5-0.3 0.4-0.8 0.4-1.1 0.6-0.1 0.1-0.4 0.5-0.5 0.5q0 0-0.1 0c-1-0.6-1.5-2.5-3-2.1-0.4 0.1-0.8 0.3-1.2 0.4-1.3 0.4-0.8-0.9-2-0.5-0.4 0.1-0.7 0.4-1 0.5-0.2 0-0.5-0.2-0.7-0.1q0 0 0 0c-0.7 0.5-0.2 1.6 0.1 2.7 0.1 0.3 0.3 0.8 0.6 1.5 0.8 1.6 1.7 2.8 2.3 3.2 2.2 0.9 14.9-12.3 12.1-16.5-0.3-0.4-3-1.6-6.2-2.8q-0.1 0-0.3 0c-0.3 0.1-0.8 0.4-0.7 0.7z"/><path class="d" d="m122.8 127c-0.2 0.1-0.2 0.4-0.1 0.7 0.2 0.3 0.4 0.5 0.6 0.4 0.2 0 0.2-0.3 0.1-0.7-0.2-0.3-0.4-0.5-0.6-0.4z"/><path class="d" d="m129.8 119.5c-0.1 0.2 0.2 0.4 0.5 0.5 0.3 0 0.6 0 0.6-0.2 0.1-0.2-0.2-0.4-0.5-0.5-0.3-0.1-0.6 0-0.6 0.2z"/><path class="d" d="m123.2 117.5c-0.1 0.1 0.6 0.5 1.4 0.7 0.8 0.2 1.5 0.3 1.5 0.1 0-0.2-0.6-0.5-1.4-0.7-0.8-0.3-1.5-0.3-1.5-0.1z"/><path class="c" d="m126.9 129.7c-0.3 0.1-0.4 0.6-0.3 1.2 0.2 0.5 0.6 0.8 0.9 0.8 0.3-0.1 0.4-0.6 0.2-1.2-0.1-0.5-0.5-0.9-0.8-0.8z"/><path class="c" d="m123.3 131.9c-0.2 0.1-0.4 0.4-0.3 0.6 0.1 0.2 0.3 0.4 0.6 0.3 0.2-0.1 0.3-0.3 0.2-0.6 0-0.2-0.3-0.3-0.5-0.3z"/><path class="b" d="m119 115.9c1.4 0.5 3.2 0.9 3.2 0.9l-3.1-1.3z"/><path class="b" d="m118.6 117.4c1.8 1.3 4.3 2.6 4.3 2.6l-4-3.1z"/><path class="b" d="m117.4 117.9c1.4 1.7 3.5 3.6 3.5 3.6l-3-4.1z"/><path class="d" d="m131.5 124.4c-0.4-0.3-1.2-1.1-0.1-1.1 1.1-0.1 1.3-0.2 1.8 0.3 0.5 0.5 0.3 0.7-0.3 0.6-0.5 0-1.1 0.4-1.4 0.2z"/><path class="a" d="m90.6 93c-2.5-0.2-11.9 19.5-7.2 23 1.1 0.8 17.4 0.2 19.6-1.2 0.8-0.5 0.4-1.9 0.7-3.2 0.3-1.5 1.1-2.9 0.9-3.4-0.4-0.9-10.7-14.9-14-15.2z"/><path class="b" d="m90.5 93.4c-2.5-0.3-11.6 19-7.1 22.4 1.1 0.8 17.1 0.2 19.2-1.1 0.8-0.5 0.4-1.9 0.6-3.2 0.3-1.5 1.2-2.8 1-3.3-0.5-0.8-10.5-14.5-13.7-14.8z"/><path class="c" d="m90.4 94.3c-2.3-0.2-10.7 17.5-6.5 20.7 1 0.7 16.1 0.3 18-0.9 0.7-0.4 0-1.9 0.2-3.1 0.3-1.4 1.4-2.1 1.2-2.6-0.4-0.7-9.9-13.8-12.9-14.1z"/><path class="d" d="m100.1 109.6c0.1-1.2-6.7-2.5-7.2-2.1-0.6 0.5 7.1 3 7.2 2.1z"/><path class="d" d="m91.7 114.1c-0.9-1.3-1.6 1.1-2.9-0.6-0.2-0.3-0.2-0.7 0.2-1.1 0.2-0.1 0.4-0.2 0.6-0.4 0.5-0.3 0.4-1 0.2-1.4-0.3-0.3-0.8-0.5-1.2-0.2-0.5 0.4-3.1-0.1-3.3-0.4-0.7-0.9 0.1-0.7 0.3-1.3 0.1-0.9-1.5-2.1 0.3-4 0.4-0.4 0.3-1.2 0.4-1.9 0.1-0.4 0.6-0.6 0.8-1 0.1-0.1 0.2-0.5 0.4-0.6q0 0 0 0c1.2 0.2 2.3 1.9 3.6 0.9 0.3-0.2 0.6-0.6 0.9-0.8 1.1-0.8 1.2 0.5 2.1-0.2 0.3-0.2 0.5-0.6 0.8-0.8 0.2-0.1 0.6-0.1 0.7-0.2q0 0 0 0c0.4-0.7-0.3-1.6-1-2.5-0.2-0.2-0.5-0.7-1-1.2-1.3-1.3-2.4-2.1-3.2-2.2-2.2-0.2-10.7 17.5-6.5 20.7 0.4 0.3 3.6 0.4 7.2 0.3q0.1 0 0.2-0.1c0.3-0.2 0.7-0.7 0.4-1z"/><path class="d" d="m94.3 104.2c0.1-0.3-0.4-0.7-1.1-0.8-0.6-0.1-1.2 0-1.2 0.3-0.1 0.3 0.4 0.7 1 0.8 0.7 0.1 1.3 0 1.3-0.3z"/><path class="d" d="m87.6 109.4c0.1-0.4-0.1-0.8-0.5-0.8-0.4-0.1-0.7 0.1-0.8 0.5-0.1 0.4 0.2 0.7 0.5 0.8 0.4 0.1 0.8-0.2 0.8-0.5z"/><path class="d" d="m94.6 112.2c0.1-0.4-0.5-0.8-1.3-1-0.7-0.1-1.4 0-1.5 0.4-0.1 0.4 0.5 0.8 1.3 0.9 0.8 0.2 1.5 0 1.5-0.3z"/><path class="b" d="m103.2 109.7c-0.5-0.3-1.8-0.9-1.6-1.2 0.2-0.3 1.9 0.7 1.9 0.7z"/><path class="b" d="m102.7 113.3c-0.6 0.1-2 0.5-2 0.1-0.1-0.3 1.9-0.7 1.9-0.7z"/><path class="b" d="m102.6 111.4c-0.6-0.2-3.1-0.9-3-1.2 0.2-0.4 3.2 0.6 3.2 0.6z"/><path class="a" d="m116 85.2c-1.2-2.3-22.8 0.6-23.2 6.5-0.1 1.3 9.4 14.7 11.7 15.8 0.9 0.4 1.9-0.8 3.1-1.3 1.4-0.6 3.1-0.6 3.3-1 0.5-0.8 6.7-17.1 5.1-20z"/><path class="b" d="m115.7 85.2c-1.2-2.1-22.3 0.7-22.7 6.4-0.1 1.3 9.1 14.4 11.4 15.4 0.8 0.4 1.8-0.7 3-1.2 1.4-0.5 3-0.6 3.3-1 0.5-0.8 6.5-16.7 5-19.6z"/><path class="c" d="m114.8 85.7c-1.1-2-20.5 0.6-20.8 5.8-0.1 1.3 8.4 13.7 10.5 14.6 0.8 0.4 1.6-1.1 2.7-1.5 1.3-0.5 2.6 0 2.8-0.4 0.5-0.7 6.2-15.8 4.8-18.5z"/><path class="d" d="m107.3 102.2c1.1-0.6-1.5-7-2.2-7.2-0.7-0.2 1.4 7.6 2.2 7.2z"/><path class="d" d="m99 97.6c0.6-1.5-1.8-0.7-1.1-2.8 0.1-0.3 0.5-0.6 1-0.4 0.2 0.1 0.4 0.2 0.6 0.3 0.6 0.2 1.2-0.2 1.3-0.7 0.2-0.3 0-0.8-0.4-1-0.7-0.3-1.6-2.6-1.5-3.1 0.4-0.9 0.7-0.2 1.3-0.4 0.7-0.3 0.9-2.4 3.5-1.9 0.6 0.1 1.1-0.4 1.8-0.7 0.4-0.1 0.8 0.2 1.2 0.2 0.2 0 0.6-0.2 0.7-0.1q0.1 0 0.1 0c0.5 1.1-0.3 3 1.2 3.6 0.4 0.1 0.8 0.1 1.2 0.3 1.3 0.4 0.1 1.2 1.3 1.6 0.4 0.2 0.7 0.1 1.1 0.2 0.2 0.1 0.3 0.5 0.5 0.5q0 0 0 0c0.8 0 1.2-1.1 1.6-2.2 0.1-0.2 0.2-0.8 0.4-1.5 0.4-1.8 0.5-3.2 0.1-3.8-1.1-2-20.5 0.5-20.9 5.8 0 0.5 1.6 3.2 3.7 6.2q0.1 0 0.2 0.1c0.4 0.1 1 0.2 1.1-0.2z"/><path class="d" d="m108.7 94.3c0.3-0.1 0.3-0.7 0.1-1.3-0.3-0.6-0.7-1-1-0.9-0.3 0.2-0.3 0.7 0 1.3 0.2 0.7 0.6 1.1 0.9 0.9z"/><path class="d" d="m100.7 91.6c0.4-0.1 0.5-0.5 0.4-0.9-0.2-0.4-0.6-0.5-0.9-0.4-0.3 0.2-0.5 0.6-0.4 0.9 0.2 0.4 0.6 0.5 0.9 0.4z"/><path class="d" d="m102.2 99c0.3-0.2 0.4-0.9 0.1-1.6-0.3-0.8-0.9-1.2-1.2-1.1-0.3 0.1-0.4 0.8-0.1 1.6 0.3 0.7 0.8 1.2 1.2 1.1z"/><path class="b" d="m108.9 104.8c0-0.6-0.2-2 0.1-2 0.4 0 0.5 2 0.5 2z"/><path class="b" d="m105.6 106.4c-0.4-0.5-1.5-1.5-1.2-1.7 0.3-0.2 1.6 1.3 1.6 1.3z"/><path class="b" d="m107.2 105.3c-0.1-0.7-0.9-3.2-0.6-3.2 0.3-0.1 1.1 3 1.1 3z"/><path class="a" d="m98.4 137.9c0.6 2.5 22.1 5.5 24.1 0 0.5-1.3-5-16.7-7-18.3-0.7-0.7-2 0.2-3.3 0.3-1.5 0.2-3.1-0.3-3.5 0.1-0.7 0.6-11 14.6-10.3 17.9z"/><path class="b" d="m98.8 137.9c0.5 2.4 21.6 5.4 23.5 0 0.5-1.2-4.9-16.3-6.8-17.9-0.7-0.6-1.9 0.2-3.2 0.3-1.5 0.2-3.1-0.2-3.4 0.1-0.7 0.7-10.8 14.3-10.1 17.5z"/><path class="c" d="m99.7 137.7c0.5 2.2 19.9 5 21.7 0 0.4-1.1-4.5-15.4-6.2-16.9-0.7-0.5-1.9 0.6-3.1 0.8-1.4 0.1-2.4-0.8-2.8-0.4-0.6 0.6-10.2 13.6-9.6 16.5z"/><path class="d" d="m111.4 123.9c-1.2 0.2-0.4 7.2 0.2 7.5 0.6 0.4 0.7-7.7-0.2-7.5z"/><path class="d" d="m118.2 130.5c-1 1.3 1.6 1.2 0.3 3-0.2 0.3-0.7 0.4-1.1 0.1-0.2-0.1-0.3-0.3-0.5-0.4-0.5-0.4-1.2-0.1-1.4 0.3-0.3 0.3-0.3 0.8 0.1 1.1 0.6 0.4 0.9 3 0.6 3.4-0.6 0.8-0.7 0-1.4 0-0.8 0.1-1.4 2.1-3.9 0.9-0.5-0.3-1.2 0.1-1.8 0.2-0.5 0-0.8-0.4-1.2-0.5-0.2-0.1-0.6-0.1-0.7-0.1q-0.1-0.1-0.1-0.1c-0.1-1.2 1.2-2.8-0.2-3.7-0.3-0.2-0.7-0.4-1-0.6-1.1-0.8 0.2-1.3-0.8-2-0.4-0.2-0.7-0.3-1.1-0.5-0.1-0.1-0.1-0.5-0.3-0.6q0 0 0 0c-0.8-0.2-1.5 0.8-2.1 1.7-0.2 0.2-0.5 0.7-0.9 1.3-0.8 1.7-1.2 3-1.1 3.7 0.5 2.2 19.9 5 21.7 0.1 0.2-0.6-0.7-3.6-1.8-7q-0.1 0-0.2-0.1c-0.3-0.3-0.9-0.5-1.1-0.2z"/><path class="d" d="m107.9 131c-0.3 0.1-0.5 0.6-0.4 1.3 0.1 0.6 0.4 1.1 0.7 1.1 0.3 0 0.5-0.6 0.4-1.2-0.1-0.7-0.4-1.2-0.7-1.2z"/><path class="d" d="m114.9 135.8c-0.4 0.1-0.6 0.4-0.6 0.8 0 0.4 0.4 0.7 0.7 0.6 0.4 0 0.7-0.4 0.6-0.7 0-0.4-0.3-0.7-0.7-0.7z"/><path class="d" d="m115.5 128.3c-0.4 0.1-0.6 0.8-0.5 1.6 0.1 0.8 0.4 1.4 0.8 1.3 0.4 0 0.6-0.7 0.5-1.5-0.1-0.8-0.5-1.4-0.8-1.4z"/><path class="b" d="m110.6 120.9c-0.2 0.6-0.4 2-0.7 1.9-0.3-0.1 0.1-2 0.1-2z"/><path class="b" d="m114.2 120.3c0.2 0.5 1 1.8 0.7 1.9-0.3 0.1-1.3-1.6-1.3-1.6z"/><path class="b" d="m112.4 120.9c-0.1 0.7 0 3.3-0.3 3.3-0.4-0.1-0.3-3.2-0.3-3.2z"/></svg>