<svg version="1.2" xmlns="http://www.w3.org/2000/svg" viewBox="0 0 254 216" width="254" height="216"><style>.a{fill:#9cbc3b}.b{fill:#839b2a}.c{opacity:.3;mix-blend-mode:overlay;fill:#f9ffb5}.d{fill:#b52424}.e{fill:#ce322e}.f{fill:#ef5848}.g{fill:#ffd2bb}.h{fill:#565e24}.i{fill:#90a33e}.j{fill:#6d7f36}</style><path class="a" d="m44 135.9c2.2 2.1 4.4 2 5.8-0.4 1.3-2.2 2.3-4.2 0.8-5.7-1.5-1.4-4.1-1.7-6.4 0.9-2.3 2.6-1.7 3.8-0.2 5.2z"/><path class="b" d="m49.8 135.5q0 0 0-0.1c-1 0.5-2.2 0.1-3.6-1.1-1.3-1.3-1.8-2.3-0.1-4.3 0.6-0.6 1.2-1 1.8-1.2-1.2 0-2.5 0.6-3.7 1.9-2.3 2.6-1.7 3.8-0.2 5.2 2.2 2.1 4.4 2 5.8-0.4z"/><path class="b" d="m49.1 129.3c0.1 0.2-1.1 0.3-2.1 0.7-0.8 0.3-1.4 0.9-1.7 0.9-0.5 0 0.2-0.9 1.2-1.3 1-0.5 2.5-0.5 2.6-0.3z"/><path class="b" d="m47.8 131.4c0.1 0-0.9 0.7-1.8 1.4-0.6 0.5-1.1 1.2-1.4 1.3-0.3 0.2 0.1-0.6 1-1.4 0.8-0.8 2-1.4 2.2-1.3z"/><path class="b" d="m48 136.6c-0.1-0.1 0.6-0.7 1.2-1.4 0.5-0.8 1-1.7 1.3-2 0.4-0.2-0.1 1.1-0.9 2.1-0.5 0.8-1.4 1.3-1.6 1.3z"/><path class="c" d="m49.8 135.5c1.3-2.2 2.3-4.2 0.8-5.7-0.7-0.6-1.7-1-2.7-1q-0.6 0.9-1.1 2c-1 2.7-0.9 5.4 0.2 6.6 1.1 0 2-0.6 2.8-1.9z"/><path class="c" d="m48.6 132c0.4 0.9 1.6 1.5 2 1 0.4-0.6 0.3-1.7-0.1-2.6-0.4-0.9-1-1.2-1.4-0.7-0.3 0.5-0.9 1.4-0.5 2.3z"/><path class="a" d="m114 38.9c3.1 0.1 4.6-1.4 4.2-4.1-0.5-2.5-1-4.7-3.1-4.8-2.1-0.1-4.2 1.3-4.3 4.8-0.1 3.4 1.1 4 3.2 4.1z"/><path class="b" d="m118.2 34.8q0 0-0.1-0.1c-0.4 1-1.6 1.6-3.5 1.5-1.8-0.1-2.8-0.6-2.8-3.2 0-0.8 0.2-1.5 0.5-2.1-0.9 0.8-1.5 2.1-1.5 3.9-0.1 3.4 1.1 4 3.2 4.1 3.1 0.1 4.6-1.4 4.2-4.1z"/><path class="b" d="m113.7 30.6c0.2 0-0.7 0.9-1.2 1.8-0.4 0.8-0.5 1.6-0.8 1.9-0.3 0.2-0.4-0.9 0.1-1.9 0.5-1 1.6-1.9 1.9-1.8z"/><path class="b" d="m113.9 33c0.2 0-0.2 1.1-0.4 2.2-0.1 0.8 0 1.6-0.2 1.9-0.1 0.4-0.3-0.6-0.2-1.7 0.2-1.1 0.7-2.4 0.8-2.4z"/><path class="b" d="m117.5 36.8c-0.2 0 0-0.9 0-1.8-0.1-1-0.4-2-0.3-2.4 0.2-0.4 0.7 0.9 0.7 2.2 0.1 0.9-0.2 1.9-0.4 2z"/><path class="c" d="m118.2 34.8c-0.5-2.5-1-4.7-3.1-4.8-1-0.1-2 0.2-2.8 0.9q0.2 1.1 0.5 2.2c1 2.8 2.8 4.7 4.4 5 0.9-0.7 1.2-1.8 1-3.3z"/><path class="c" d="m114.9 32.9c0.9 0.4 2.3 0.1 2.2-0.6 0-0.6-0.8-1.5-1.7-1.9-0.9-0.4-1.6-0.2-1.5 0.4 0 0.7 0.2 1.7 1 2.1z"/><path class="a" d="m143.1 151.6c2.3 2 4.5 1.7 5.7-0.7 1.2-2.2 2.1-4.3 0.6-5.7-1.6-1.4-4.2-1.5-6.4 1.2-2.1 2.7-1.5 3.8 0.1 5.2z"/><path class="b" d="m148.8 150.9q0.1-0.1 0.1-0.1c-1 0.6-2.3 0.2-3.7-1-1.4-1.2-1.9-2.1-0.3-4.2 0.5-0.7 1.1-1.1 1.7-1.3-1.2 0-2.5 0.7-3.6 2.1-2.1 2.7-1.5 3.8 0.1 5.2 2.3 2 4.5 1.7 5.7-0.7z"/><path class="b" d="m147.9 144.8c0.1 0.1-1.1 0.3-2.1 0.8-0.8 0.3-1.3 0.9-1.7 0.9-0.4 0.1 0.2-0.9 1.2-1.4 1-0.5 2.4-0.6 2.6-0.3z"/><path class="b" d="m146.6 146.9c0.1 0-0.9 0.7-1.7 1.4-0.6 0.6-1 1.3-1.3 1.5-0.3 0.2 0.1-0.7 0.9-1.5 0.8-0.8 1.9-1.5 2.1-1.4z"/><path class="b" d="m147.1 152c-0.1 0 0.6-0.6 1.1-1.4 0.5-0.8 0.9-1.8 1.3-2 0.3-0.3-0.1 1.1-0.8 2.1-0.6 0.8-1.4 1.4-1.6 1.3z"/><path class="c" d="m148.8 150.9c1.2-2.2 2.1-4.3 0.6-5.7-0.8-0.7-1.8-1-2.8-0.9q-0.6 0.9-1 2c-0.9 2.8-0.6 5.4 0.5 6.6 1.1 0 2.1-0.7 2.7-2z"/><path class="c" d="m147.5 147.4c0.4 0.9 1.7 1.4 2 0.9 0.4-0.5 0.3-1.7-0.2-2.6-0.4-0.8-1.1-1.1-1.4-0.6-0.4 0.6-0.9 1.4-0.4 2.3z"/><path class="a" d="m174.3 199.3c2.4 2 4.5 1.8 5.8-0.7 1.2-2.2 2.1-4.3 0.5-5.7-1.6-1.3-4.2-1.5-6.3 1.2-2.2 2.7-1.6 3.9 0 5.2z"/><path class="b" d="m180.1 198.6q0 0 0-0.1c-0.9 0.6-2.2 0.3-3.6-0.9-1.4-1.2-2-2.2-0.4-4.3 0.6-0.7 1.1-1.1 1.7-1.3-1.2 0.1-2.4 0.7-3.5 2.1-2.2 2.7-1.6 3.9 0 5.2 2.4 2 4.5 1.8 5.8-0.7z"/><path class="b" d="m179.1 192.5c0.1 0.2-1.1 0.3-2.1 0.8-0.8 0.3-1.3 1-1.7 1-0.4 0 0.2-0.9 1.2-1.4 1-0.5 2.4-0.6 2.6-0.4z"/><path class="b" d="m177.8 194.6c0.2 0-0.8 0.7-1.6 1.5-0.6 0.6-1 1.2-1.3 1.4-0.4 0.2 0-0.7 0.8-1.5 0.8-0.8 2-1.5 2.1-1.4z"/><path class="b" d="m178.4 199.8c-0.2-0.1 0.5-0.7 1-1.5 0.6-0.8 1-1.7 1.3-2 0.4-0.3 0 1.1-0.8 2.1-0.5 0.8-1.4 1.4-1.5 1.4z"/><path class="c" d="m180.1 198.6c1.2-2.2 2.1-4.3 0.5-5.7-0.8-0.6-1.7-1-2.8-0.9q-0.5 0.9-0.9 2.1c-0.9 2.7-0.7 5.4 0.5 6.5 1.1 0 2-0.7 2.7-2z"/><path class="c" d="m178.7 195.1c0.5 0.9 1.7 1.5 2.1 0.9 0.3-0.5 0.2-1.7-0.2-2.5-0.5-0.9-1.1-1.2-1.5-0.6-0.3 0.5-0.9 1.4-0.4 2.2z"/><path class="a" d="m233.3 137.2c2.3 2 4.5 1.7 5.8-0.7 1.1-2.3 2.1-4.4 0.5-5.7-1.6-1.4-4.2-1.5-6.4 1.2-2.1 2.7-1.5 3.8 0.1 5.2z"/><path class="b" d="m239.1 136.5q0-0.1 0-0.1c-1 0.5-2.3 0.2-3.7-1-1.4-1.2-1.9-2.2-0.3-4.2 0.5-0.7 1.1-1.1 1.7-1.4-1.2 0.1-2.4 0.7-3.6 2.2-2.1 2.7-1.5 3.8 0.1 5.2 2.3 2 4.5 1.7 5.8-0.7z"/><path class="b" d="m238.1 130.3c0.1 0.2-1.1 0.4-2.1 0.8-0.8 0.4-1.3 1-1.7 1-0.4 0 0.2-0.9 1.2-1.4 1-0.5 2.4-0.6 2.6-0.4z"/><path class="b" d="m236.8 132.4c0.1 0.1-0.9 0.8-1.6 1.5-0.7 0.6-1.1 1.3-1.4 1.4-0.3 0.3 0.1-0.6 0.9-1.4 0.8-0.8 2-1.5 2.1-1.5z"/><path class="b" d="m237.3 137.6c-0.1-0.1 0.6-0.7 1.1-1.4 0.5-0.8 0.9-1.8 1.3-2 0.4-0.3-0.1 1-0.8 2.1-0.5 0.8-1.4 1.4-1.6 1.3z"/><path class="c" d="m239.1 136.5c1.1-2.3 2.1-4.4 0.5-5.7-0.8-0.7-1.8-1-2.8-1q-0.6 1-0.9 2.1c-1 2.8-0.7 5.4 0.4 6.6 1.1-0.1 2.1-0.7 2.8-2z"/><path class="c" d="m237.7 133c0.4 0.9 1.7 1.4 2 0.9 0.4-0.6 0.3-1.7-0.2-2.6-0.4-0.9-1.1-1.1-1.4-0.6-0.3 0.5-0.9 1.4-0.4 2.3z"/><path class="a" d="m167.7 16.6c2.3 2 4.5 1.7 5.8-0.8 1.1-2.2 2.1-4.3 0.5-5.6-1.6-1.4-4.2-1.5-6.3 1.2-2.2 2.6-1.6 3.8 0 5.2z"/><path class="b" d="m173.5 15.8q0 0 0 0c-1 0.5-2.2 0.2-3.7-1-1.4-1.2-1.9-2.2-0.3-4.3 0.5-0.6 1.1-1 1.7-1.3-1.2 0.1-2.4 0.7-3.5 2.2-2.2 2.6-1.6 3.8 0 5.2 2.3 2 4.5 1.7 5.8-0.8z"/><path class="b" d="m172.5 9.7c0.1 0.2-1.1 0.4-2.1 0.8-0.8 0.4-1.3 1-1.7 1-0.4 0 0.2-0.9 1.2-1.4 1-0.5 2.4-0.6 2.6-0.4z"/><path class="b" d="m171.2 11.8c0.1 0.1-0.8 0.8-1.6 1.5-0.6 0.6-1 1.3-1.4 1.4-0.3 0.2 0.1-0.6 0.9-1.4 0.8-0.8 2-1.5 2.1-1.5z"/><path class="b" d="m171.7 17c-0.1-0.1 0.6-0.7 1.1-1.5 0.6-0.7 0.9-1.7 1.3-1.9 0.4-0.3-0.1 1-0.8 2.1-0.5 0.8-1.4 1.4-1.6 1.3z"/><path class="c" d="m173.5 15.8c1.1-2.2 2.1-4.3 0.5-5.6-0.8-0.7-1.7-1-2.8-1q-0.5 1-0.9 2.1c-0.9 2.8-0.7 5.4 0.5 6.6 1-0.1 2-0.7 2.7-2.1z"/><path class="c" d="m172.1 12.4c0.4 0.9 1.7 1.4 2.1 0.9 0.3-0.6 0.2-1.7-0.2-2.6-0.5-0.9-1.1-1.1-1.5-0.6-0.3 0.5-0.9 1.4-0.4 2.3z"/><path class="a" d="m36.1 51.2c2.3 2 4.4 1.7 5.7-0.7 1.2-2.2 2.1-4.4 0.5-5.7-1.6-1.4-4.2-1.5-6.3 1.2-2.1 2.7-1.5 3.8 0.1 5.2z"/><path class="b" d="m41.8 50.5q0-0.1 0.1-0.1c-1 0.5-2.3 0.2-3.7-1-1.4-1.2-2-2.2-0.3-4.2 0.5-0.7 1.1-1.1 1.6-1.3-1.1 0-2.4 0.7-3.5 2.1-2.1 2.7-1.5 3.8 0.1 5.2 2.3 2 4.4 1.7 5.7-0.7z"/><path class="b" d="m40.8 44.4c0.2 0.1-1.1 0.3-2.1 0.7-0.7 0.4-1.3 1-1.6 1-0.5 0.1 0.1-0.9 1.1-1.4 1.1-0.5 2.5-0.6 2.6-0.3z"/><path class="b" d="m39.6 46.5c0.1 0-0.9 0.7-1.7 1.4-0.6 0.6-1 1.3-1.3 1.5-0.4 0.2 0.1-0.7 0.9-1.5 0.8-0.8 1.9-1.5 2.1-1.4z"/><path class="b" d="m40.1 51.6c-0.2 0 0.5-0.7 1.1-1.4 0.5-0.8 0.9-1.8 1.2-2 0.4-0.3 0 1-0.7 2.1-0.6 0.8-1.4 1.4-1.6 1.3z"/><path class="c" d="m41.8 50.5c1.2-2.2 2.1-4.4 0.5-5.7-0.7-0.7-1.7-1-2.8-1q-0.5 1-0.9 2.1c-0.9 2.8-0.6 5.4 0.5 6.6 1.1 0 2-0.7 2.7-2z"/><path class="c" d="m40.4 47c0.5 0.9 1.8 1.4 2.1 0.9 0.3-0.5 0.3-1.7-0.2-2.6-0.4-0.8-1.1-1.1-1.4-0.6-0.4 0.6-0.9 1.4-0.5 2.3z"/><path class="a" d="m202.4 100.5c1.2 2.8 3.3 3.5 5.5 1.9 2-1.5 3.8-3 2.9-4.9-0.8-2-3.1-3.2-6.2-1.7-3.1 1.5-3.1 2.8-2.2 4.7z"/><path class="b" d="m207.9 102.4q0-0.1 0.1-0.1c-1.2 0.1-2.2-0.8-2.9-2.5-0.8-1.6-0.9-2.8 1.5-3.9 0.8-0.4 1.5-0.5 2.1-0.5-1.1-0.4-2.5-0.4-4.1 0.4-3.1 1.5-3.1 2.8-2.2 4.7 1.2 2.8 3.3 3.5 5.5 1.9z"/><path class="b" d="m209.6 96.4c0.1 0.2-1.1-0.1-2.2-0.2-0.8 0-1.6 0.3-1.9 0.2-0.4-0.2 0.5-0.7 1.6-0.8 1.2 0 2.5 0.6 2.5 0.8z"/><path class="b" d="m207.6 97.8c0.1 0.1-1.1 0.2-2.1 0.6-0.8 0.2-1.5 0.7-1.8 0.7-0.5 0 0.3-0.6 1.4-0.9 1-0.4 2.4-0.6 2.5-0.4z"/><path class="b" d="m205.8 102.6c-0.1-0.1 0.8-0.3 1.6-0.8 0.8-0.5 1.6-1.2 2-1.2 0.5-0.1-0.5 0.9-1.6 1.5-0.8 0.5-1.8 0.7-2 0.5z"/><path class="c" d="m207.9 102.4c2-1.5 3.8-3 2.9-4.9-0.4-0.9-1.1-1.7-2.1-2.1q-0.9 0.6-1.7 1.5c-2 2.1-3 4.6-2.4 6.1 1 0.5 2.1 0.2 3.3-0.6z"/><path class="c" d="m208.1 98.6c0.1 1 1 2.1 1.5 1.7 0.6-0.3 1-1.4 1-2.4-0.1-0.9-0.5-1.5-1.1-1.1-0.5 0.3-1.4 0.9-1.4 1.8z"/><path class="a" d="m226.2 43.3c1.2 2.8 3.2 3.5 5.5 1.9 2-1.5 3.7-3 2.9-4.9-0.9-1.9-3.1-3.2-6.2-1.7-3.1 1.5-3.1 2.8-2.2 4.7z"/><path class="b" d="m231.7 45.2q0 0 0-0.1c-1.1 0.1-2.1-0.7-2.8-2.4-0.8-1.7-0.9-2.8 1.5-4 0.8-0.4 1.5-0.5 2.1-0.5-1.1-0.4-2.5-0.4-4.1 0.4-3.1 1.5-3.1 2.8-2.2 4.7 1.2 2.8 3.2 3.5 5.5 1.9z"/><path class="b" d="m233.4 39.3c0.1 0.2-1.1-0.2-2.2-0.2-0.8-0.1-1.6 0.3-1.9 0.1-0.4-0.2 0.5-0.7 1.6-0.7 1.2 0 2.5 0.5 2.5 0.8z"/><path class="b" d="m231.4 40.6c0.1 0.1-1.1 0.3-2.2 0.6-0.8 0.3-1.4 0.7-1.8 0.7-0.4 0.1 0.4-0.5 1.5-0.9 1-0.4 2.4-0.5 2.5-0.4z"/><path class="b" d="m229.6 45.5c-0.1-0.1 0.8-0.4 1.6-0.9 0.8-0.4 1.6-1.1 2-1.2 0.5-0.1-0.5 0.9-1.6 1.6-0.8 0.5-1.9 0.6-2 0.5z"/><path class="c" d="m231.7 45.2c2-1.5 3.7-3 2.9-4.9-0.4-0.9-1.1-1.7-2.1-2.1q-0.9 0.6-1.7 1.5c-2.1 2.1-3 4.6-2.5 6.1 1 0.5 2.2 0.3 3.4-0.6z"/><path class="c" d="m231.9 41.5c0 1 0.9 2 1.5 1.7 0.5-0.4 1-1.4 0.9-2.4 0-1-0.5-1.5-1-1.2-0.5 0.3-1.4 0.9-1.4 1.9z"/><path class="d" d="m116.5 118c-7.1 2.4-8.6 8.7-8.7 10.3l-3.2-1.5c0 0 3.2-12 11.9-8.8z"/><path fill-rule="evenodd" class="e" d="m111.6 130.1c-3.4-1.1-7.6-0.2-7.5-3.1 0.2-2.9 4-10.2 10.4-10 2.7 0 6.3 0.7 6.2 3.8-0.2 3-5.7 10.4-9.1 9.3zm4.9-9.7c0.3-2-2.1-2.3-3.8-2.2-4 0.1-6.2 4.5-6.3 6.1-0.1 1.6 2.2 1.1 4.1 1.7 1.9 0.6 5.7-3.7 6-5.6z"/><path class="f" d="m117.7 120.8c-0.1 1.3-1.6 2.8-3.2 4.5q1.3 1.1 2.9 1.7c1.8-2.1 3.2-4.7 3.3-6.2 0.1-3.1-3.5-3.8-6.2-3.8q-0.8 0-1.5 0.1c2.4 0.3 4.8 1.1 4.7 3.7z"/><path class="g" d="m117.7 120.2c0 0.2 0.5 0.5 1.2 0.6 0.6 0.1 1.2 0 1.2-0.2 0.1-0.2-0.5-0.5-1.1-0.6-0.7-0.1-1.3 0-1.3 0.2z"/><path class="d" d="m120.5 4.8c2.7 7.1 9.1 8.3 10.7 8.3l-1.4 3.3c0 0-12.1-2.7-9.3-11.6z"/><path fill-rule="evenodd" class="e" d="m132.9 9.3c-1 3.4 0.1 7.6-2.9 7.6-2.9-0.1-10.3-3.6-10.4-10 0-2.7 0.4-6.3 3.5-6.3 3.1 0 10.7 5.2 9.8 8.7zm-10-4.5c-2-0.2-2.2 2.2-2 3.9 0.3 3.9 4.8 6 6.4 6 1.5 0 1-2.2 1.5-4.2 0.5-1.9-3.9-5.5-5.9-5.7z"/><path class="f" d="m123.3 3.6c1.3 0 2.8 1.5 4.6 3q1.1-1.3 1.6-2.9c-2.1-1.8-4.8-3.1-6.4-3.1-3.1 0-3.5 3.6-3.5 6.3q0 0.8 0.2 1.5c0.1-2.4 0.9-4.8 3.5-4.8z"/><path class="g" d="m122.7 3.6c0.2 0 0.5-0.5 0.5-1.2 0.1-0.7 0-1.2-0.2-1.3-0.3 0-0.5 0.6-0.6 1.2 0 0.7 0.1 1.3 0.3 1.3z"/><path class="d" d="m224.8 62c2.7 7 9.1 8.3 10.7 8.3l-1.4 3.3c0 0-12.1-2.8-9.3-11.6z"/><path fill-rule="evenodd" class="e" d="m237.1 66.4c-0.9 3.5 0.1 7.7-2.8 7.6-2.9 0-10.3-3.5-10.4-9.9-0.1-2.7 0.4-6.4 3.5-6.3 3.1 0 10.7 5.2 9.7 8.6zm-9.9-4.4c-2-0.2-2.2 2.1-2 3.9 0.3 3.9 4.7 6 6.4 6 1.5 0 0.9-2.3 1.5-4.2 0.5-2-3.9-5.5-5.9-5.7z"/><path class="f" d="m227.5 60.7c1.3 0.1 2.9 1.5 4.7 3q1-1.3 1.6-2.9c-2.2-1.7-4.8-3-6.4-3-3.1-0.1-3.6 3.6-3.5 6.3q0 0.8 0.2 1.5c0.1-2.4 0.9-4.9 3.4-4.9z"/><path class="g" d="m227 60.8c0.2 0 0.4-0.5 0.5-1.2 0.1-0.7 0-1.3-0.3-1.3-0.2 0-0.4 0.5-0.5 1.2 0 0.7 0.1 1.2 0.3 1.3z"/><path class="d" d="m251.5 114.9c-3.7-6.6-10.2-7-11.8-6.8l0.9-3.4c0 0 12.4 1 10.9 10.2z"/><path fill-rule="evenodd" class="e" d="m238.6 112.2c0.5-3.5-1.1-7.5 1.8-7.9 2.8-0.4 10.7 2.1 11.7 8.4 0.4 2.7 0.4 6.4-2.6 6.7-3.1 0.4-11.3-3.6-10.9-7.2zm10.5 3c2 0 1.8-2.4 1.5-4.1-0.9-3.8-5.6-5.3-7.2-5.1-1.5 0.2-0.7 2.4-0.9 4.4-0.2 2 4.6 4.9 6.6 4.8z"/><path class="f" d="m248.9 116.5c-1.3 0.2-3-1.1-5-2.3q-0.9 1.4-1.2 3.1c2.4 1.4 5.2 2.3 6.8 2.1 3-0.3 3-4 2.6-6.7q-0.1-0.8-0.4-1.5c0.2 2.4-0.3 5-2.8 5.3z"/><path class="g" d="m249.5 116.4c-0.3 0-0.4 0.6-0.4 1.3 0 0.6 0.2 1.2 0.5 1.2 0.2 0 0.3-0.6 0.3-1.3 0-0.6-0.2-1.2-0.4-1.2z"/><path class="d" d="m177.3 163.4c2.6 7 9 8.3 10.7 8.3l-1.4 3.2c0 0-12.1-2.7-9.3-11.5z"/><path fill-rule="evenodd" class="e" d="m189.6 167.8c-0.9 3.4 0.1 7.6-2.8 7.6-2.9 0-10.3-3.6-10.4-9.9-0.1-2.8 0.4-6.4 3.5-6.4 3.1 0.1 10.7 5.2 9.7 8.7zm-9.9-4.4c-2-0.3-2.2 2.1-2.1 3.8 0.3 4 4.8 6 6.4 6 1.6 0.1 1-2.2 1.5-4.1 0.5-2-3.9-5.5-5.8-5.7z"/><path class="f" d="m180 162.1c1.3 0 2.9 1.5 4.6 3q1.1-1.3 1.7-2.9c-2.2-1.7-4.9-3.1-6.4-3.1-3.1 0-3.6 3.6-3.5 6.4q0 0.7 0.1 1.4c0.2-2.4 1-4.8 3.5-4.8z"/><path class="g" d="m179.5 162.1c0.2 0 0.4-0.5 0.5-1.2 0-0.6-0.1-1.2-0.3-1.2-0.2 0-0.4 0.5-0.5 1.2-0.1 0.6 0 1.2 0.3 1.2z"/><path class="d" d="m55.7 192c2.6 7.1 9 8.3 10.7 8.3l-1.4 3.3c0 0-12.1-2.7-9.3-11.6z"/><path fill-rule="evenodd" class="e" d="m68 196.4c-0.9 3.5 0.1 7.7-2.8 7.7-2.9-0.1-10.3-3.6-10.5-10 0-2.7 0.5-6.3 3.6-6.3 3.1 0 10.7 5.2 9.7 8.6zm-9.9-4.4c-2-0.2-2.2 2.2-2.1 3.9 0.3 3.9 4.8 6 6.4 6 1.6 0 1-2.3 1.5-4.2 0.5-1.9-3.9-5.5-5.8-5.7z"/><path class="f" d="m58.4 190.8c1.3 0 2.9 1.5 4.6 3q1.1-1.3 1.7-2.9c-2.2-1.8-4.9-3.1-6.4-3.1-3.1 0-3.6 3.6-3.6 6.3q0.1 0.8 0.2 1.5c0.2-2.4 1-4.9 3.5-4.8z"/><path class="g" d="m57.9 190.8c0.2 0 0.4-0.5 0.5-1.2 0-0.7-0.1-1.2-0.3-1.3-0.2 0-0.4 0.5-0.5 1.2-0.1 0.7 0 1.3 0.3 1.3z"/><path class="d" d="m90 77.2c-6.4-3.9-12.2-1-13.5 0l-0.9-3.5c0 0 11.2-5.2 14.4 3.5z"/><path fill-rule="evenodd" class="e" d="m77.5 81.2c-1.3-3.3-4.7-6-2.4-7.7 2.4-1.8 10.4-3.5 14.4 1.5 1.7 2.1 3.5 5.3 1 7.2-2.4 1.8-11.6 2.3-13-1zm10.6-2.5c1.7-1.1 0.4-3-0.7-4.4-2.7-2.9-7.5-1.8-8.8-0.8-1.2 0.9 0.6 2.4 1.4 4.2 0.8 1.9 6.4 2 8.1 1z"/><path class="f" d="m88.6 79.9c-1 0.7-3.2 0.5-5.5 0.4q0 1.7 0.5 3.3c2.8 0.1 5.7-0.5 6.9-1.4 2.5-1.9 0.7-5.1-1-7.2q-0.5-0.6-1.1-1.1c1.4 2 2.2 4.4 0.2 6z"/><path class="g" d="m89 79.5c-0.1 0.1 0 0.7 0.3 1.3 0.4 0.6 0.8 0.9 1 0.8 0.2-0.1 0.1-0.7-0.3-1.2-0.3-0.6-0.8-1-1-0.9z"/><path class="h" d="m32.2 86.5c1.3 0.7 2 1.6 2.4 2.7 0.3 0.9-0.5 6.6-2.1 7.6 0 0 1.6 1.1 2.1 0.6 0.6-0.6 2-3.7 1.9-5.1-0.1-1.4 0.2-3.8-1-4.7-1.3-0.8-3.3-1.1-3.3-1.1z"/><path fill-rule="evenodd" class="i" d="m34.3 97.8c-0.7-0.2-5-1.2-5.9-1.9-0.8-0.6 0.7-2.7 0.9-3.9 0.1-0.5-1.3-3.5-1-4 0.2-0.5 0.7-1.6 1.4-1.9 0.7-0.3 4.3-0.4 5.9 1.1 1.6 1.6 1.2 4.5 1.1 5.6-0.1 1.1-1.6 5.2-2.4 5zm2-5.1c0.1-0.9 0.4-3.5-1-4.9-1.4-1.3-3.1-1.1-3.8-0.8-0.6 0.2-0.9 0-0.2 2 0.9 2.8-1.6 5.1-0.9 6.6 0.5 0.8 3.2 1.3 3.8 1.5 0.6 0.1 2-3.5 2.1-4.4z"/><path class="j" d="m36.7 92.8c0.1-1.1 0.5-4-1.1-5.6q-0.2-0.2-0.5-0.4-0.1 0.3-0.3 0.6 0.3 0.2 0.5 0.4c1.4 1.4 1.1 4 1 4.9-0.1 0.9-1.5 4.5-2.1 4.4-0.6-0.2-3.3-0.7-3.8-1.5-0.3-0.7 0.1-1.6 0.5-2.7q-1.3 1.2-2.7 1.9c-0.1 0.5-0.1 0.9 0.2 1.1 0.9 0.7 5.2 1.7 5.9 1.9 0.8 0.2 2.3-3.9 2.4-5z"/><path class="h" d="m25.6 162.9c1.5-0.1 2.6 0.4 3.5 1.1 0.7 0.6 2.9 6 2 7.7 0 0 1.9 0.1 2.1-0.6 0.2-0.8-0.1-4.2-0.9-5.3-0.8-1.1-1.8-3.5-3.3-3.6-1.5 0-3.4 0.7-3.4 0.7z"/><path fill-rule="evenodd" class="i" d="m33.2 171.6c-0.7 0.2-5 1.5-6 1.4-1.1-0.1-0.9-2.7-1.2-3.8-0.2-0.6-3-2.4-3-3 0-0.6-0.2-1.7 0.3-2.3 0.4-0.6 3.4-2.6 5.6-2.1 2.2 0.6 3.3 3.3 3.8 4.3 0.5 0.9 1.2 5.2 0.5 5.5zm-0.9-5.4c-0.4-0.8-1.4-3.2-3.3-3.7-1.9-0.5-3.3 0.7-3.7 1.2-0.4 0.5-0.8 0.5 0.8 1.8 2.2 2 1.2 5.2 2.6 6.1 0.8 0.5 3.4-0.4 4-0.6 0.7-0.2 0-3.9-0.4-4.8z"/><path class="j" d="m32.7 166.1c-0.5-1-1.6-3.7-3.8-4.3q-0.3 0-0.6 0 0 0.3 0.1 0.6 0.3 0 0.6 0.1c1.9 0.5 2.9 2.9 3.3 3.7 0.4 0.9 1.1 4.6 0.4 4.8-0.6 0.2-3.2 1.1-4 0.6-0.7-0.4-0.8-1.3-1-2.4q-0.5 1.6-1.3 2.9c0.2 0.5 0.4 0.8 0.8 0.9 1 0.1 5.3-1.2 6-1.4 0.7-0.3 0-4.6-0.5-5.5z"/><path class="h" d="m134.4 205c1.5-0.1 2.6 0.3 3.5 1.1 0.7 0.6 2.9 5.9 2 7.6 0 0 1.9 0.2 2.1-0.6 0.2-0.7-0.1-4.2-0.9-5.3-0.8-1.1-1.8-3.4-3.3-3.5-1.5-0.1-3.4 0.7-3.4 0.7z"/><path fill-rule="evenodd" class="i" d="m142 213.6c-0.8 0.2-5 1.5-6 1.4-1.1-0.1-0.9-2.7-1.2-3.8-0.2-0.5-3-2.3-3-2.9-0.1-0.6-0.2-1.7 0.3-2.3 0.4-0.6 3.4-2.6 5.6-2.1 2.2 0.5 3.3 3.3 3.8 4.2 0.5 1 1.2 5.3 0.5 5.5zm-0.9-5.3c-0.4-0.9-1.4-3.2-3.3-3.7-1.9-0.5-3.3 0.6-3.7 1.2-0.4 0.5-0.8 0.5 0.8 1.8 2.2 1.9 1.2 5.2 2.6 6.1 0.8 0.5 3.4-0.4 4-0.6 0.7-0.2 0-4-0.4-4.8z"/><path class="j" d="m141.5 208.1c-0.5-0.9-1.6-3.7-3.8-4.2q-0.3-0.1-0.6-0.1 0 0.4 0 0.7 0.4 0 0.7 0.1c1.9 0.5 2.9 2.8 3.3 3.7 0.4 0.8 1.1 4.6 0.4 4.8-0.6 0.2-3.2 1.1-4 0.6-0.7-0.4-0.8-1.4-1-2.5q-0.5 1.7-1.3 2.9c0.2 0.5 0.4 0.9 0.8 0.9 1 0.1 5.2-1.2 6-1.4 0.7-0.2 0-4.5-0.5-5.5z"/><path class="h" d="m164.3 66c1.1-0.9 2.3-1.2 3.5-1.2 0.9 0.1 5.8 3.1 6.1 5 0 0 1.6-1 1.4-1.8-0.3-0.7-2.7-3.2-4-3.6-1.3-0.5-3.4-1.8-4.7-0.9-1.2 0.8-2.3 2.5-2.3 2.5z"/><path fill-rule="evenodd" class="i" d="m175.5 68.5c-0.5 0.6-3.1 4.1-4 4.7-0.9 0.5-2.3-1.7-3.2-2.4-0.5-0.3-3.8-0.1-4.2-0.6-0.3-0.4-1.1-1.2-1.1-2 0-0.8 1.2-4.1 3.3-5 2.1-0.9 4.6 0.6 5.6 1.1 0.9 0.5 4.1 3.6 3.6 4.2zm-3.9-3.8c-0.8-0.4-3-1.8-4.8-1-1.8 0.7-2.3 2.5-2.3 3.1 0 0.7-0.3 0.9 1.7 1.1 3 0.2 4.1 3.4 5.8 3.3 0.9-0.1 2.4-2.4 2.8-2.9 0.4-0.5-2.3-3.2-3.2-3.6z"/><path class="j" d="m171.9 64.3c-1-0.5-3.5-2-5.6-1.1q-0.3 0.1-0.6 0.3 0.3 0.2 0.5 0.5 0.2-0.2 0.6-0.3c1.8-0.8 4 0.6 4.8 1 0.9 0.4 3.6 3.1 3.2 3.6-0.4 0.5-1.9 2.8-2.8 2.9-0.8 0-1.5-0.6-2.3-1.4q0.6 1.6 0.7 3.1c0.4 0.3 0.8 0.5 1.1 0.3 0.9-0.6 3.5-4.1 4-4.7 0.5-0.6-2.7-3.7-3.6-4.2z"/><path class="h" d="m90.6 175.3c-0.1 1.5-0.7 2.6-1.5 3.5-0.7 0.6-6.4 2.2-8 1.2 0 0-0.3 1.9 0.4 2.2 0.7 0.2 4.3 0.3 5.5-0.4 1.2-0.7 3.6-1.4 3.9-2.9 0.2-1.5-0.3-3.6-0.3-3.6z"/><path fill-rule="evenodd" class="i" d="m81 182c-0.1-0.7-1-5.1-0.8-6.2 0.3-1.1 2.9-0.5 4-0.8 0.6-0.1 2.8-2.7 3.3-2.7 0.6 0.1 1.8 0 2.4 0.6 0.5 0.5 2.2 3.8 1.4 5.9-0.8 2.2-3.7 3-4.7 3.4-1 0.3-5.5 0.6-5.6-0.2zm5.5-0.3c0.9-0.3 3.4-1 4.1-2.9 0.7-1.9-0.3-3.4-0.8-3.8-0.4-0.5-0.4-0.9-1.9 0.5-2.2 2.1-5.4 0.7-6.5 2-0.6 0.8 0.1 3.5 0.2 4.1 0.1 0.7 4 0.5 4.9 0.1z"/><path class="j" d="m86.6 182.2c1-0.4 3.9-1.2 4.7-3.4q0.1-0.3 0.2-0.6-0.4 0-0.7 0-0.1 0.3-0.2 0.6c-0.7 1.9-3.2 2.6-4.1 2.9-0.9 0.4-4.8 0.6-4.9-0.1-0.1-0.6-0.8-3.3-0.2-4.1 0.5-0.6 1.5-0.6 2.6-0.7q-1.6-0.7-2.8-1.7c-0.5 0.1-0.9 0.3-1 0.7-0.2 1.1 0.7 5.5 0.8 6.2 0.1 0.8 4.6 0.5 5.6 0.2z"/><path class="h" d="m11 128.7c-0.1 1.5-0.7 2.6-1.6 3.5-0.6 0.6-6.3 2.2-7.9 1.1 0 0-0.4 2 0.4 2.2 0.7 0.3 4.2 0.4 5.5-0.3 1.2-0.7 3.6-1.4 3.9-2.9 0.2-1.5-0.3-3.6-0.3-3.6z"/><path fill-rule="evenodd" class="i" d="m1.4 135.4c-0.2-0.7-1-5.1-0.8-6.2 0.2-1.1 2.8-0.5 4-0.8 0.6-0.1 2.7-2.7 3.3-2.7 0.6 0 1.8 0 2.4 0.6 0.5 0.5 2.2 3.8 1.4 5.9-0.8 2.1-3.7 3-4.7 3.4-1 0.3-5.5 0.6-5.6-0.2zm5.5-0.3c0.9-0.3 3.4-1 4.1-2.9 0.7-1.9-0.3-3.4-0.8-3.8-0.5-0.5-0.4-0.9-1.9 0.5-2.2 2.1-5.4 0.7-6.5 2-0.6 0.8 0.1 3.5 0.2 4.1 0.1 0.7 4 0.5 4.9 0.1z"/><path class="j" d="m7 135.6c1-0.4 3.9-1.3 4.7-3.4q0.1-0.3 0.2-0.6-0.4 0-0.7 0-0.1 0.3-0.2 0.6c-0.7 1.9-3.2 2.6-4.1 2.9-0.9 0.4-4.8 0.6-4.9-0.1-0.1-0.6-0.8-3.3-0.2-4.1 0.5-0.6 1.5-0.6 2.6-0.7q-1.6-0.7-2.8-1.7c-0.5 0.1-0.9 0.3-1 0.7-0.2 1.1 0.6 5.5 0.8 6.2 0.1 0.8 4.6 0.5 5.6 0.2z"/><path class="h" d="m72.4 3c-0.1 1.5-0.7 2.6-1.5 3.4-0.7 0.7-6.4 2.3-8 1.2 0 0-0.3 1.9 0.4 2.2 0.7 0.3 4.3 0.3 5.5-0.4 1.2-0.7 3.6-1.4 3.9-2.9 0.2-1.5-0.3-3.5-0.3-3.5z"/><path fill-rule="evenodd" class="i" d="m62.8 9.7c-0.1-0.8-1-5.2-0.8-6.2 0.3-1.1 2.9-0.6 4-0.8 0.6-0.2 2.8-2.7 3.3-2.7 0.6 0 1.8 0 2.4 0.5 0.5 0.6 2.2 3.8 1.4 6-0.8 2.1-3.7 3-4.7 3.3-1 0.4-5.5 0.7-5.6-0.1zm5.5-0.3c0.9-0.3 3.4-1.1 4.1-2.9 0.7-1.9-0.3-3.4-0.8-3.9-0.4-0.4-0.4-0.8-1.9 0.6-2.2 2.1-5.4 0.6-6.5 2-0.6 0.7 0.1 3.4 0.2 4.1 0.1 0.7 4 0.4 4.9 0.1z"/><path class="j" d="m68.4 9.8c1-0.3 3.9-1.2 4.7-3.3q0.1-0.3 0.2-0.7-0.4 0-0.7 0-0.1 0.3-0.2 0.7c-0.7 1.8-3.2 2.6-4.1 2.9-0.9 0.3-4.8 0.6-4.9-0.1-0.1-0.7-0.8-3.4-0.2-4.1 0.5-0.7 1.5-0.7 2.6-0.7q-1.6-0.7-2.8-1.7c-0.5 0.1-0.9 0.3-1 0.7-0.2 1 0.7 5.4 0.8 6.2 0.1 0.8 4.6 0.5 5.6 0.1z"/></svg>