<svg version="1.2" xmlns="http://www.w3.org/2000/svg" viewBox="0 0 210 182" width="210" height="182"><style>.a{fill:#bdc646}.b{fill:#b2b53c}.c{fill:#d8db49}.d{fill:#667c21}.e{fill:#8daa30}.f{fill:#769328}.g{fill:#c4c43d}.h{fill:#ddd943}.i{fill:#afac31}.j{fill:#e0dc44}</style><path class="a" d="m52.1 109.2c-4.7-7.4-9.1-24.9-11-25.1-2-0.2-0.3 8.2-2 7.7-4.6-1.7-1.1-13.5-6.6-15.9-2.7-1.2 0.2 5.1-2.4 4.3-2.7-0.7-1.2-17.1-4.9-17.7-5.8-1 1.9 11.3-4.9 7.6-1.6-0.9-1.2-13.5-3.4-15.4-2.2-1.9-2 3.5-2.9 2.9-0.9-0.7-0.3-4.8-3.5-6.1-2-0.7-2 2.7-4.9-1-1.1-1.4-2.2-1.5-3.3-0.8-1 0.8 0.1 2.1 0.4 4.4 0.1 1.3-0.4 3.9 0 5.9 0.4 1.9 3.8 3.3 3.6 4.8-0.2 1.5-3.3 0.4-3 2.2 0.2 1.7 9.9 5.7 9.9 8.2-0.1 2.6-9.3 0.9-8.6 3.5 1.2 3.8 16 6.4 19.7 5.9 1.6-0.1 1.3 0.7 0.1 0.7-2.9 0.1-2.7 1.9-2.9 3.1-0.2 1.5-6.3-1.2-5.5 0.7 2.6 6.3 17.4 3.4 19.3 7.8 1.1 2.5-4.4 2-4.1 3.2 0.6 3.3 10.2 2.1 11.1 3.9 0.8 1.8-1.3 1.7-0.6 3 0.8 1.2 10.4 2.2 10.4 2.2z"/><path class="b" d="m41.1 84.1c-2-0.2-0.3 8.2-2 7.7-4.6-1.7-1.1-13.5-6.6-15.9-2.7-1.2 0.2 5.1-2.4 4.3-2.6-0.7-1.3-15.8-4.5-17.6 1.5 5.2 2.4 11 2.5 17.2 0.1 5-0.3 9.7-1.1 14.1 3.9 0.5 7.5 1 8.3 3 1.1 2.5-4.4 2-4.1 3.2 0.6 3.3 10.2 2.1 11.1 3.9 0.8 1.8-1.3 1.7-0.6 3 0.8 1.2 10.4 2.2 10.4 2.2-4.7-7.4-9.1-24.9-11-25.1z"/><path class="c" d="m47.6 105.7c-2.7-4.1-4.9-9.9-3.1-10.4 1.8-0.5 3.1 10.4 3.1 10.4z"/><path class="c" d="m43.5 96.6c-1.9-3.8-3.3-9-1.7-9.3 1.6-0.2 1.7 9.3 1.7 9.3z"/><path class="c" d="m43.8 100.1c-3.1-2.7-6.2-6.8-4.9-7.6 1.3-0.8 4.9 7.6 4.9 7.6z"/><path class="c" d="m38.9 99.7c-1.8 0-3.1-0.8-2.1-1.6 0.7-0.6 2.1 1.6 2.1 1.6z"/><path class="c" d="m37.2 93.2c-1.6-0.7-2.4-2-1.2-2.3 0.9-0.2 1.2 2.3 1.2 2.3z"/><path class="c" d="m29.7 92.3c-4.9 0.3-11.3-0.5-10.7-2.2 0.5-1.3 10.7 2.2 10.7 2.2z"/><path class="c" d="m35.7 88.3c-2.5-4.2-4.5-10.3-2.7-10.5 1.3-0.2 2.7 10.5 2.7 10.5z"/><path class="c" d="m35.4 87.8c-4.2-2.4-7-5.1-6.1-6.3 0.7-1 6.1 6.3 6.1 6.3z"/><path class="c" d="m30.2 92.4c-4.6-1.4-7.9-3.5-7.3-4.9 0.4-1.1 7.3 4.9 7.3 4.9z"/><path class="c" d="m27.7 82.2c-3.4-1.8-5.5-4.1-4.5-5.3 0.8-0.9 4.5 5.3 4.5 5.3z"/><path class="c" d="m36 89.5c-3.2-0.8-5.5-2.1-5-3.2 0.4-0.9 5 3.2 5 3.2z"/><path class="c" d="m20.2 81.1c-4.8-1.4-12.7 0.7-14-2.5-0.8-2.3 14 2.5 14 2.5z"/><path class="c" d="m11.7 67.8c-2.2-3.7-9.1-7.1-7.7-9.8 1.1-2 7.7 9.8 7.7 9.8z"/><path class="c" d="m14.4 64.7c-1.2-4.4-8.3-10.7-4.9-12.1 2.3-0.9 4.9 12.1 4.9 12.1z"/><path class="c" d="m12.9 66.8c-1.8-4.6-12.1-14.3-8.9-16 2.1-1.2 8.9 16 8.9 16z"/><path class="c" d="m18.2 79.8c-2-0.8-5.7-1.4-5-2.8 1.2-2.3 5 2.8 5 2.8z"/><path class="c" d="m13.7 72.2c-3.2-1.6-8.7-3.6-8.1-5 1-2.5 8.1 5 8.1 5z"/><path class="c" d="m23.7 82.7c-4.7 0.2-9.3 0.9-9-0.4 0.6-2.6 9 0.4 9 0.4z"/><path class="c" d="m27.1 76.4c-0.9-2.8-4.1-11.5-2.6-11.9 2.5-0.7 2.6 11.9 2.6 11.9z"/><path class="c" d="m17.9 69.2c-0.8-2.8-3.6-11.7-2-12 2.5-0.6 2 12 2 12z"/><path class="c" d="m27.4 78.2c-2.3-2-6.7-4.9-5.7-6.1 1.8-2 5.7 6.1 5.7 6.1z"/><path class="c" d="m42.1 102c-4.3 0.2-9-0.3-8.6-1.9 0.4-1.6 8.6 1.9 8.6 1.9z"/><path class="c" d="m49 106.8c-2.8 0.3-6.3 0.1-6.2-1 0.2-1 6.2 1 6.2 1z"/><path class="c" d="m66.4 119.5c-22.2-14.4-50.5-40.5-58.7-63.3l0.5-0.3c8.1 22.6 36.2 47.9 58.2 62.3z"/><path class="a" d="m5.6 52.8c-0.3-0.8-0.8-1.4-1.1-1.2-0.4 0.1-0.4 0.8-0.2 1.6 0.3 0.8 0.9 1.4 1.2 1.2 0.4-0.1 0.4-0.9 0.1-1.6z"/><path class="a" d="m10.6 54.5c-0.3-0.7-0.8-1.3-1.2-1.1-0.3 0.1-0.4 0.8-0.1 1.6 0.3 0.8 0.8 1.3 1.2 1.2 0.4-0.1 0.4-0.9 0.1-1.7z"/><path class="a" d="m16.8 58.9c0-0.4-0.3-0.7-0.6-0.7-0.2 0-0.4 0.4-0.3 0.9 0.1 0.4 0.3 0.8 0.6 0.7 0.2 0 0.4-0.4 0.3-0.9z"/><path class="a" d="m7.3 67.6c-0.3-0.4-0.7-0.5-0.9-0.3-0.2 0.1-0.1 0.5 0.2 0.9 0.3 0.3 0.7 0.5 0.9 0.3 0.2-0.1 0.1-0.6-0.2-0.9z"/><path class="a" d="m8.2 78.7c-0.5-0.3-1-0.3-1.2-0.1-0.1 0.2 0.1 0.6 0.6 0.8 0.5 0.3 1 0.3 1.1 0.1 0.2-0.2-0.1-0.6-0.5-0.8z"/><path class="a" d="m14.9 77.2c-0.5-0.2-1-0.3-1.2-0.1-0.1 0.2 0.1 0.6 0.6 0.8 0.5 0.3 1 0.3 1.1 0.1 0.2-0.2-0.1-0.5-0.5-0.8z"/><path class="a" d="m16.6 81.6c-0.6 0-1 0.2-1.1 0.5 0 0.2 0.4 0.5 0.9 0.4 0.6 0 1-0.2 1.1-0.4 0-0.3-0.4-0.5-0.9-0.5z"/><path class="a" d="m23.2 72.8c-0.3-0.4-0.7-0.7-0.9-0.7-0.3 0.1-0.2 0.6 0 1 0.3 0.5 0.7 0.8 0.9 0.7 0.3 0 0.3-0.5 0-1z"/><path class="a" d="m25.7 65.9c-0.3-0.5-0.7-0.8-0.9-0.7-0.3 0-0.3 0.5-0.1 1 0.3 0.5 0.7 0.8 0.9 0.7 0.3 0 0.3-0.5 0.1-1z"/><path class="a" d="m24.5 78c-0.3-0.5-0.7-0.8-0.9-0.7-0.3 0-0.3 0.5 0 1 0.2 0.4 0.6 0.8 0.8 0.7 0.3 0 0.3-0.5 0.1-1z"/><path class="a" d="m33.9 79.4c-0.2-0.5-0.6-0.9-0.8-0.8-0.3 0-0.3 0.5-0.2 1 0.2 0.5 0.6 0.9 0.8 0.8 0.3 0 0.3-0.5 0.2-1z"/><path class="a" d="m30.9 82.6c-0.3-0.4-0.8-0.6-1-0.5-0.2 0.1-0.2 0.5 0.1 1 0.4 0.4 0.8 0.6 1 0.5 0.3-0.1 0.2-0.5-0.1-1z"/><path class="a" d="m24.6 88.5c-0.4-0.5-0.8-0.7-1-0.6-0.3 0.1-0.2 0.5 0.1 1 0.4 0.4 0.8 0.7 1 0.5 0.3-0.1 0.2-0.5-0.1-0.9z"/><path class="a" d="m20.9 90.2c-0.4-0.2-0.9-0.2-1.1 0-0.1 0.2 0.1 0.5 0.5 0.7 0.4 0.2 0.9 0.2 1.1 0 0.1-0.2-0.1-0.5-0.5-0.7z"/><path class="a" d="m35.3 100.1c-0.5-0.2-0.9-0.2-1.1 0-0.2 0.2 0.1 0.6 0.5 0.8 0.4 0.2 0.9 0.2 1.1 0 0.1-0.2-0.1-0.6-0.5-0.8z"/><path class="a" d="m40.2 93.8c-0.2-0.4-0.5-0.7-0.8-0.7-0.2 0.1-0.3 0.5-0.1 0.9 0.2 0.5 0.6 0.8 0.8 0.7 0.3 0 0.3-0.4 0.1-0.9z"/><path class="a" d="m32.7 87.1c-0.3-0.3-0.8-0.5-1-0.4-0.2 0.2-0.1 0.6 0.2 0.9 0.3 0.3 0.7 0.5 1 0.4 0.2-0.2 0.1-0.5-0.2-0.9z"/><path class="a" d="m42.5 88.7c-0.1-0.4-0.4-0.8-0.6-0.8-0.3 0-0.4 0.4-0.3 0.9 0.1 0.4 0.4 0.8 0.7 0.8 0.2 0 0.4-0.4 0.2-0.9z"/><path class="a" d="m45.2 96.9c-0.1-0.5-0.4-0.9-0.6-0.9-0.3 0-0.4 0.4-0.3 0.9 0.1 0.4 0.4 0.8 0.7 0.8 0.2 0 0.3-0.4 0.2-0.8z"/><path class="a" d="m44.3 105.8c-0.2-0.1-0.5-0.1-0.7 0-0.1 0.1 0 0.4 0.2 0.5 0.3 0.1 0.6 0.1 0.7 0 0.1-0.1 0-0.4-0.2-0.5z"/><path class="d" d="m76.9 80.8l-0.8 0.4c-0.1 0.1-4 2.1-11.2 1.6-0.3 0-0.4-0.2-0.4-0.4 0-0.3 0.2-0.5 0.4-0.4 5.1 0.3 8.5-0.7 10-1.2-4.9-2.1-15.8-3-15.9-3-0.2 0-0.4-0.2-0.4-0.5 0-0.2 0.2-0.4 0.5-0.4 0.5 0.1 12.6 1.1 17 3.5z"/><path class="d" d="m65.9 78.6q-0.1 0-0.1 0l-4.2 2.3c-0.2 0.1-0.5 0-0.6-0.2-0.1-0.2 0-0.5 0.2-0.6l4.2-2.2c0.2-0.1 0.5 0 0.6 0.2 0 0.1 0 0.3-0.1 0.5z"/><path class="d" d="m76.1 85.4q0.1 0 0.1 0l4.8 0.7c0.2 0 0.4 0.2 0.3 0.5 0 0.2-0.2 0.4-0.4 0.3l-4.8-0.6c-0.2-0.1-0.4-0.3-0.3-0.5 0-0.2 0.2-0.3 0.3-0.4z"/><path class="d" d="m77.9 57.4q0.1 0 0.1 0l3.9 2.8c0.2 0.2 0.2 0.4 0.1 0.6-0.1 0.2-0.4 0.2-0.6 0.1l-3.9-2.8c-0.2-0.1-0.2-0.4-0.1-0.6 0.1-0.1 0.3-0.2 0.5-0.1z"/><path class="d" d="m81.5 70q0 0 0.1 0l3 3.7c0.2 0.2 0.1 0.4 0 0.6-0.2 0.1-0.5 0.1-0.6-0.1l-3.1-3.6c-0.1-0.2-0.1-0.5 0.1-0.6 0.1-0.1 0.3-0.1 0.5 0z"/><path class="d" d="m98.7 77.2c0 0.2-0.2 0.2-0.4 0.2-0.2-0.1-0.3-0.3-0.2-0.5 0.7-2.7 1.3-10.5 1.3-10.6 0.1-0.2 0.2-0.3 0.4-0.3 0.3 0 0.4 0.2 0.4 0.4 0 0.3-0.6 8-1.4 10.7q0 0.1-0.1 0.1z"/><path class="e" d="m114.2 80.4q-0.1 0.2-0.4 0.2c-0.1 0-13.1 0.6-18.9 2.8 1.8 0.7 5.9 2 12 1.9 0.2 0 0.5 0.2 0.5 0.5 0 0.2-0.2 0.5-0.5 0.5-8.6 0.2-13.3-2.4-13.5-2.5l-0.8-0.5 0.8-0.4c5.3-2.7 19.7-3.3 20.4-3.3 0.2 0 0.5 0.2 0.5 0.5q0 0.1-0.1 0.3z"/><path class="e" d="m111.4 83.9c-0.1 0.2-0.4 0.3-0.6 0.2l-5.3-3c-0.3-0.1-0.3-0.4-0.2-0.7 0.1-0.2 0.4-0.3 0.7-0.2l5.3 3c0.2 0.1 0.3 0.5 0.2 0.7q0 0-0.1 0z"/><path class="d" d="m90.8 69c-2.9 2.7-5.1 3.7-5.2 3.8l-0.9 0.4 0.2-0.9c1-5.9 9.1-17.8 9.5-18.3 0.1-0.2 0.4-0.3 0.7-0.1 0.2 0.1 0.2 0.4 0.1 0.7-0.1 0.1-7.4 10.8-9.1 16.8 1.6-1 5.1-3.5 8.7-8.5 0.1-0.2 0.5-0.3 0.7-0.1 0.2 0.2 0.3 0.5 0.1 0.7-1.7 2.3-3.3 4.1-4.8 5.5z"/><path class="f" d="m95.3 58.9q0 0-0.1 0l-3.8 1.7c-0.2 0.1-0.4 0-0.4-0.2-0.1-0.1 0-0.3 0.1-0.4l3.9-1.7c0.1-0.1 0.3 0 0.4 0.2 0.1 0.1 0 0.3-0.1 0.4z"/><path class="d" d="m90.3 86.8q-0.1 0.1-0.3 0.1c-0.2 0.1-0.5-0.1-0.5-0.3-0.1-0.4-1.8-9.4 0-12.7 0.1-0.2 0.4-0.3 0.6-0.2 0.2 0.1 0.3 0.4 0.2 0.6-1.7 3 0 12 0.1 12.1q0 0.2-0.1 0.4z"/><path class="f" d="m84.1 105.6q-0.2 0.1-0.4 0.1c-0.3 0-0.5-0.3-0.5-0.5 0.6-5.4 0.7-13.5 0.8-22.1 0.2-10.1 0.3-20.6 1.2-26.9 0.1-0.3 0.3-0.5 0.6-0.4 0.3 0 0.5 0.3 0.4 0.6-0.9 6.2-1 16.6-1.2 26.7-0.1 8.6-0.2 16.7-0.8 22.2q0 0.2-0.1 0.3z"/><path class="e" d="m86.2 56.4c0.1-0.3-0.1-0.6-0.4-0.6-0.3-0.1-0.5 0.1-0.6 0.4-0.8 5.7-1 14.9-1.1 24.1q0.5 0 1 0c0.1-9.2 0.3-18.3 1.1-23.9z"/><path class="f" d="m84.7 91.9q-0.1 0-0.1 0c-0.2 0.2-0.5 0.1-0.7-0.1-0.1-0.2-10.4-15.8-15.2-17.9-5.1-2.2-7.9-4.7-8.9-6.4-0.2-0.2-0.1-0.5 0.1-0.6 0.3-0.2 0.6-0.1 0.7 0.1 0.9 1.4 3.6 3.8 8.5 5.9 5.1 2.3 15.2 17.7 15.7 18.3 0.1 0.2 0.1 0.5-0.1 0.7z"/><path class="f" d="m109.5 70.6c-1.1 1.6-3.9 3.6-9 5.6-4.9 2-15.7 18.8-15.8 19q0 0 0 0c-0.2 0.2-0.5 0.3-0.7 0.2-0.3-0.2-0.3-0.5-0.2-0.7 0.5-0.7 11-17 16.3-19 4.9-2 7.7-4.4 8.6-5.8 0.1-0.2 0.4-0.3 0.7-0.1 0.2 0.1 0.3 0.4 0.1 0.7q0 0 0 0.1z"/><path class="d" d="m83.9 91.6c-0.1 5.2-0.3 10-0.7 13.6 0 0.2 0.2 0.5 0.5 0.5q0.2 0 0.4-0.1 0.1-0.1 0.1-0.3c0.4-3.6 0.6-8.3 0.7-13.5q-0.5-0.1-1-0.2z"/><path class="e" d="m85.1 68.8q-0.1 0-0.1 0.1c-0.2 0.1-0.5 0-0.6-0.2-1.5-2.9-4.1-11-4.2-11.4 0-0.2 0.1-0.4 0.3-0.5 0.2 0 0.5 0.1 0.5 0.3 0.1 0.1 2.6 8.4 4.1 11.2 0.1 0.2 0.1 0.4 0 0.5z"/><path class="e" d="m71 74.7q-0.1 0-0.2 0.1c-0.3 0-0.6-0.1-0.6-0.4-1.1-3.6-2-13.4-2.1-13.8 0-0.3 0.2-0.5 0.5-0.5 0.3-0.1 0.5 0.1 0.5 0.4 0 0.1 1 10.1 2 13.6 0.1 0.2 0 0.4-0.1 0.6z"/><path class="e" d="m79.4 84.2q-0.2 0.2-0.4 0.2c-0.2-0.1-0.4-0.3-0.3-0.5 0-0.1 1.4-8.5-0.2-11.4-0.1-0.2 0-0.4 0.2-0.5 0.2-0.2 0.5-0.1 0.6 0.1 1.7 3.2 0.3 11.6 0.2 11.9q0 0.2-0.1 0.2z"/><path class="g" d="m158.6 152c-9-7.5-19.8-8-21.8-7.4l0.1 0.7c1.2-0.3 11.7-0.6 21.1 7.3z"/><path class="g" d="m157.9 152.6c7.8-8.5 17.2-10.2 19-9.9l-0.1 0.7c-1-0.1-10.3 0.9-18.3 9.7z"/><path class="g" d="m158.3 141.7c-11.7-3.8-20.8-21.3-14.5-29.1 6.3-7.8 13.6 2.2 13.6 2.2 0 0-0.7-3.8 2.7-3.6 3.4 0.3 4.2 4.1 4.2 4.1 0 0 3.7-7.7 6.8-5 3.1 2.7 0.4 6.7 0.4 6.7 0 0 8.8-0.1 11.1 4.7 2.2 4.7-14.3 23.2-24.3 20z"/><path class="g" d="m154.1 146.7c-4.1-8.1-20.5-17.8-26.9-10.8-6.4 6.9 3.8 11.5 3.8 11.5 0 0-3.4 2.6-1.7 4.3 1.6 1.6 11.5-0.6 11.5-0.6 0 0-10.5 5.4-5.7 7.9 4.8 2.5 23.8-2.9 19-12.3z"/><path class="h" d="m153 146.4c-4.1-7.9-20.4-17.6-26.7-10.7-6.4 6.9 3.8 11.5 3.8 11.5 0 0-3.4 2.5-1.8 4.2 1.6 1.6 11.5-0.6 11.5-0.6 0 0-10.4 5.3-5.6 7.8 4.7 2.5 23.5-2.9 18.8-12.2z"/><path class="g" d="m162 150.2c-0.7-3 13.6-14.6 19.4-13.2 5.8 1.4 13.4 6.7 12.7 9.2-0.6 2.5-6 9-10.5 6.1 0 0 3.4 2 1.3 4.5-2.1 2.4-8.3-0.6-8.3-0.6 0 0 5.6 4.3 2.6 9.3-3.1 4.9-13.9-0.5-17.2-15.3z"/><path class="h" d="m163.4 150.5c-0.7-2.9 13-14 18.5-12.6 5.5 1.3 12.7 6.4 12.1 8.7-0.7 2.4-5.8 8.7-10 5.9 0 0 3.2 1.9 1.2 4.2-2 2.3-8-0.5-8-0.5 0 0 5.4 4.1 2.5 8.8-2.9 4.7-13.2-0.5-16.3-14.5z"/><path class="g" d="m163.4 181.8c-9.4-19.9-5.6-37.8-3.8-40.8l0.6 0.2c-1 1.7-5.4 19.3 4.4 40z"/><path class="h" d="m158.6 139.9c-11-3.5-19.4-19.9-13.5-27.2 5.9-7.2 12.7 2.1 12.7 2.1 0 0-0.7-3.6 2.5-3.3 3.2 0.2 3.9 3.8 3.9 3.8 0 0 3.1-6.7 6-4.2 2.9 2.5 0.7 5.8 0.7 5.8 0 0 8.2-0.1 10.4 4.3 2.1 4.4-13.4 21.7-22.7 18.7z"/><path class="g" d="m152.5 137.3c-1.6-1.6 3.4 0 3-4.2-0.4-4.3 1.4-15.8 1.4-15.8 0 0 0.1 15.7 1.9 15.6 1.8 0 4.8-3.1 8.7-8.6 3.9-5.5-3.4 8.9-2.6 10.1 0.8 1.1 4.6 2.6 8.3-0.1 0 0-10.2 13.3-20.7 3z"/><path class="g" d="m180.7 137.6c-4 1.1-14.2 6.7-8.1 9 6 2.4 9.3 4 9.3 4 0 0-10-3.4-11.3-1-1.3 2.4 5.5 7.3 5.5 7.3 0 0-7.9-6.8-10.7-5.9-1.1 0.4-0.5 4.5 0.2 6.6 0 0-4.8-5.7-2.5-8.7 8.2-10.6 17.6-11.3 17.6-11.3z"/><path class="g" d="m142.3 136.7c3.2 2 9.9 8.1 3.5 8.6-6.3 0.4-9.9 0.9-9.9 0.9 0 0 10.4-0.9 10.7 1.4 0.2 2.3-7 3.5-7 3.5 0 0 8.8-1.7 11-0.3 0.9 0.6-1.1 4.9-2.5 6.5 0 0 7.4-5 6.5-8.1-3.2-10.9-12.3-12.5-12.3-12.5z"/><path class="g" d="m155.6 136.1c-3.5-5.2-6.4-15.3-8.3-19.3 0 0 4.8 16.4 8 19.7z"/><path class="g" d="m162.6 138.3c3.5-5.3 11.7-11.8 14.7-15.1 0 0-13.4 10.7-15.2 14.9z"/><path class="g" d="m159.6 137.8c-0.2-6.3 2.6-16.4 3-20.9 0 0-4.5 16.6-3.4 21z"/><path class="g" d="m166.8 132.8c0.9-0.4 5-1 6.9-0.8 0 0-6.4 0.9-7.4 1.7z"/><path class="g" d="m170.2 129.5c0.2-0.7 0.3-4 0-5.5 0 0-0.1 5.2-0.6 6.1z"/><path class="g" d="m172.5 127.4c0.6-0.3 3.5-0.8 4.9-0.7 0 0-4.6 0.8-5.4 1.3z"/><path class="g" d="m160 129.6c0.5-0.8 3.5-3.7 5.1-4.6 0 0-4.7 4.4-5.1 5.7z"/><path class="g" d="m160.9 125c-0.3-0.7-2.1-3.4-3.2-4.5 0 0 2.9 4.3 3 5.3z"/><path class="g" d="m161.5 122c0.3-0.6 2.4-2.7 3.6-3.4 0 0-3.3 3.3-3.6 4.2z"/><path class="g" d="m152.2 130.6c0-0.9 1.1-5 2-6.7 0 0-1.7 6.3-1.4 7.6z"/><path class="g" d="m150.6 126.2c-0.6-0.4-3.6-1.8-5.1-2.1 0 0 4.7 2.1 5.3 2.9z"/><path class="g" d="m149.5 123.3c0-0.6 0.6-3.6 1.2-4.8 0 0-1 4.6-0.8 5.5z"/><path class="g" d="m148.8 143.5c-5.2-1.2-13-5.8-16.6-7.1 0 0 12.8 7.4 16.6 7.5z"/><path class="g" d="m151.7 145.6c-5 2-14 2.8-17.7 3.7 0 0 14.7-1.3 17.9-3.4z"/><path class="g" d="m143.4 142c-0.5-0.5-2.3-3.6-2.7-5.2 0 0 2.7 4.8 3.6 5.4z"/><path class="g" d="m139.8 140.3c-0.6 0.1-3.3 1-4.4 1.7 0 0 4.2-1.5 5-1.3z"/><path class="g" d="m139.9 148.4c-0.4 0.2-2.3 1.2-3 1.8 0 0 2.9-1.6 3.5-1.6z"/><path class="g" d="m137.4 139.2c-0.4-0.5-1.7-2.7-2.1-3.8 0 0 2.1 3.5 2.8 3.9z"/><path class="g" d="m153.2 149.4c-4.4 3.1-13.1 5.6-16.5 7.4 0 0 14.1-4.3 16.8-7.1z"/><path class="g" d="m148.5 152.4c-0.8 0-4.3-0.8-5.7-1.6 0 0 5.4 1.4 6.4 1.1z"/><path class="g" d="m144.8 153.9c-0.4 0.5-1.6 3.1-1.8 4.4 0 0 1.8-4.1 2.5-4.7z"/><path class="g" d="m142.3 154.8c-0.6 0-3.1-0.5-4.2-1 0 0 4 0.9 4.7 0.6z"/><path class="g" d="m142.9 147.9c-0.3 0-1.8-0.3-2.4-0.7 0 0 2.3 0.6 2.7 0.4z"/><path class="g" d="m169.4 144.7c5.3-1 14.3 0.1 18.1-0.1 0 0-14.6-1.7-18.2-0.3z"/><path class="g" d="m174.9 143.9c0.7 0.3 3.6 2.4 4.6 3.7 0 0-4.4-3.4-5.5-3.5z"/><path class="g" d="m173.6 151.2c0.7 0.5 3.2 3 4 4.4 0 0-3.8-4-4.9-4.3z"/><path class="g" d="m179 144c0.5-0.3 2.6-2.2 3.3-3.3 0 0-3.2 3-4.1 3.2z"/><path class="g" d="m177.4 152.7c0.5 0 2.3-0.6 3.1-1.1 0 0-2.9 1-3.5 0.9z"/><path class="g" d="m181.6 144.1c0.5 0.2 2.6 1.7 3.4 2.6 0 0-3.2-2.3-4-2.4z"/><path class="g" d="m165.3 148.7c2.1 5 8 12 9.9 15.4 0 0-9.5-11.5-10.3-15.3z"/><path class="g" d="m167.2 148.1c4.6 2.9 13.5 5.2 17 6.8 0 0-14.5-3.8-17.3-6.5z"/><path class="g" d="m167.6 153.8c0.7 0.4 4.2 1.7 5.8 1.9 0 0-5.3-1.9-6.1-2.7z"/><path class="g" d="m170 157.1c0 0.7-0.4 3.5-1 4.7 0 0 0.8-4.4 0.5-5.2z"/><path class="g" d="m171.6 159.3c0.4 0.4 2.9 1.4 4.1 1.5 0 0-3.8-1.5-4.4-2.1z"/><path class="g" d="m192.3 12.6l0.3 0.2c0.3-0.7 0.9-2.2 1.1-4.4l-0.3 0.2c-0.4 2.6-0.9 3.4-1.1 4z"/><path class="g" d="m182 14.5l0.4 0.2c0.2-0.7 0.8-2.3 1.1-4.5l-0.4 0.2c-0.4 2.7-0.9 3.5-1.1 4.1z"/><path class="g" d="m171.9 18.5l0.4 0.1c0.2-0.6 0.8-2.2 1.1-4.4l-0.3 0.2c-0.4 2.6-0.9 3.5-1.2 4.1z"/><path class="g" d="m164.3 24.3l0.4 0.1c0.1-0.7 0.2-2.4-0.1-4.6l-0.3 0.3c0.4 2.7 0.1 3.6 0 4.2z"/><path class="g" d="m198 12.4l0.5-0.4c0.7 0.3 1.9 0.9 3.7 2.3l-0.4 0.2c-2.2-1.7-3.2-1.8-3.8-2.1z"/><path class="g" d="m189.1 13.2l0.1-0.4c0.7 0.2 2.2 0.9 4 2.3l-0.3 0.2c-2.2-1.7-3.2-1.8-3.8-2.1z"/><path class="g" d="m179.3 15.7v-0.5c0.7 0.2 2.4 0.6 4.4 1.7l-0.4 0.2c-2.4-1.3-3.4-1.3-4-1.4z"/><path class="g" d="m169.9 20.6l-0.1-0.5c0.8 0.1 2.5 0.3 4.6 1.1l-0.3 0.2c-2.6-0.9-3.6-0.8-4.2-0.8z"/><path class="g" d="m162.1 28.2l-0.2-0.4c0.7-0.2 2.4-0.6 4.6-0.5l-0.2 0.3c-2.7 0-3.6 0.5-4.2 0.6z"/><path class="g" d="m157.4 34.6l0.4-0.1c-0.2-0.7-0.6-2.3-1.6-4.3l-0.2 0.4c1.2 2.4 1.2 3.4 1.4 4z"/><path class="g" d="m156.4 39l-0.3-0.4c0.6-0.4 2.1-1.2 4.3-1.9l-0.1 0.4c-2.6 0.8-3.3 1.5-3.9 1.9z"/><path class="g" d="m149.9 59.3l0.4-2c3.5-17.7 8.8-44.5 48.3-45.3v0.5c-38.4 0.8-43.5 27.8-47 45.1l-0.4 2z"/><path class="g" d="m200.8 13.6c-0.6 2.5 7.4 8 8.1 5.9 1.8-5.3-7.7-7.4-8.1-5.9z"/><path class="i" d="m204.5 13.9q0.2-0.1 0.3-0.2c-1.9-0.7-3.8-0.8-4-0.1-0.5 1.8 3.8 5.3 6.3 6.2-2.4-2.2-3.6-4.8-2.6-5.9z"/><path class="j" d="m203.1 14.8c-1.2 1.1 4.1 5.5 5.1 4.1 2-2.8-4.5-4.7-5.1-4.1z"/><path class="g" d="m191.8 15.2c-0.9 2.5 6.8 8.7 7.7 6.7 2.2-5.3-7.2-8.1-7.7-6.7z"/><path class="i" d="m195.5 15.8q0.1-0.1 0.3-0.2c-1.9-0.8-3.8-1-4-0.4-0.7 1.8 3.3 5.7 5.8 6.8-2.2-2.4-3.2-5.1-2.1-6.2z"/><path class="j" d="m193.9 16.6c-1.3 1 3.8 5.9 4.9 4.6 2.3-2.7-4.2-5.1-4.9-4.6z"/><path class="g" d="m192.6 9.9c-1.4-2.3 4.9-10 6.3-8.1 3.4 4.9-5.5 9.4-6.3 8.1z"/><path class="i" d="m196.2 8.6q0.2 0.1 0.4 0.1c-1.8 1.2-3.6 1.8-4 1.2-1-1.7 2.1-6.3 4.4-7.9-1.8 2.8-2.1 5.7-0.8 6.6z"/><path class="j" d="m194.5 8.1c-1.6-0.8 2.4-6.6 3.8-5.5 2.9 2.3-3 5.9-3.8 5.5z"/><path class="g" d="m182.4 12.1c-1.9-2 2.7-10.8 4.4-9.2 4.4 4-3.3 10.3-4.4 9.2z"/><path class="i" d="m185.6 10.1q0.2 0.1 0.4 0.1c-1.4 1.5-3.1 2.4-3.6 1.9-1.4-1.5 0.7-6.6 2.6-8.6-1.1 3.1-0.9 6 0.6 6.6z"/><path class="j" d="m183.8 10c-1.6-0.5 1-7 2.6-6.2 3.3 1.7-1.7 6.4-2.6 6.2z"/><path class="g" d="m172.4 15.9c-1.9-2 2.7-10.8 4.4-9.2 4.4 4.1-3.3 10.4-4.4 9.2z"/><path class="i" d="m175.6 13.9q0.2 0.1 0.4 0.1c-1.4 1.5-3.1 2.4-3.6 1.9-1.4-1.4 0.7-6.6 2.6-8.5-1.1 3-0.9 5.9 0.6 6.5z"/><path class="j" d="m173.8 13.8c-1.6-0.4 1-7 2.6-6.1 3.3 1.6-1.7 6.3-2.6 6.1z"/><path class="g" d="m164.1 22c-2.2-0.9-1.6-9.7 0.3-9 5 1.7 1 9.5-0.3 9z"/><path class="i" d="m166 19.2q0.2 0 0.4-0.1c-0.6 1.8-1.7 3.1-2.3 2.9-1.6-0.7-1.7-5.6-0.9-7.9 0.2 2.9 1.4 5.2 2.8 5.1z"/><path class="j" d="m164.5 19.8c-1.5 0.2-1.6-6 0-5.9 3.2 0.1 0.8 5.7 0 5.9z"/><path class="g" d="m156.3 32.3c-2.2-0.3-3.7-8.1-1.8-8 4.7 0.4 3 8.1 1.8 8z"/><path class="i" d="m157.3 29.4q0.2 0 0.3-0.1c-0.2 1.6-0.8 3-1.3 3-1.6-0.3-2.8-4.5-2.6-6.7 0.8 2.5 2.4 4.2 3.6 3.8z"/><path class="j" d="m156.1 30.2c-1.2 0.6-2.8-4.8-1.4-5.1 2.9-0.6 2.1 4.8 1.4 5.1z"/><path class="g" d="m182.5 17.1c-0.9 2.3 6.5 8.3 7.4 6.3 2.1-5-7-7.7-7.4-6.3z"/><path class="i" d="m186 17.7q0.1-0.2 0.3-0.3c-1.8-0.8-3.6-0.9-3.8-0.3-0.7 1.7 3.2 5.4 5.6 6.4-2.2-2.2-3.1-4.8-2.1-5.8z"/><path class="j" d="m184.5 18.4c-1.2 1 3.6 5.6 4.7 4.4 2.2-2.6-4-4.9-4.7-4.4z"/><path class="g" d="m172.5 20.6c-0.3 2.5 8.3 6.8 8.7 4.7 1-5.5-8.6-6.2-8.7-4.7z"/><path class="i" d="m176.1 20.4q0.1-0.2 0.3-0.3c-2-0.4-3.9-0.1-3.9 0.5-0.3 1.8 4.3 4.6 6.9 5.2-2.6-1.8-4.1-4.2-3.3-5.4z"/><path class="j" d="m174.8 21.5c-1 1.2 4.8 4.8 5.6 3.3 1.5-3.1-5.1-4-5.6-3.3z"/><path class="g" d="m165.4 27.6c0.2 2.5 9.3 4.8 9.2 2.7-0.1-5.4-9.3-4.1-9.2-2.7z"/><path class="i" d="m168.8 26.7q0.1-0.2 0.2-0.3c-1.9 0-3.7 0.6-3.6 1.2 0.2 1.8 5.1 3.5 7.7 3.5-2.9-1.1-4.8-3.1-4.3-4.4z"/><path class="j" d="m167.8 28c-0.7 1.3 5.5 3.6 5.9 2 0.9-3.2-5.5-2.8-5.9-2z"/><path class="g" d="m159.4 37.5c0.9 2 9.4 1.6 8.8-0.2-1.6-4.7-9.3-1-8.8 0.2z"/><path class="i" d="m162.1 35.7q0.1-0.1 0.1-0.3c-1.7 0.6-3 1.5-2.8 2.1 0.7 1.5 5.4 1.6 7.7 0.9-2.8-0.2-5-1.4-5-2.7z"/><path class="j" d="m161.6 37.1c-0.2 1.4 5.8 1.6 5.7 0.1-0.1-3-5.5-0.8-5.7-0.1z"/></svg>