<svg version="1.2" xmlns="http://www.w3.org/2000/svg" viewBox="0 0 52 66" width="52" height="66"><style>.a{fill:#e09b92}.b{fill:#ffdad4}.c{fill:#f4bab0}.d{opacity:.4;fill:#f9dcd7}.e{fill:#f9dcd7}.f{fill:#ce715b}.g{fill:#ffc8bd}.h{opacity:.4;fill:#f7bab0}.i{fill:#ed9e91}.j{opacity:.5;fill:#ed9e91}</style><path class="a" d="m32.2 61.4c-2.2 0.3-10.3-20.7-14.6-26.5-3.3-4.5-14.1-19.4-16.6-23.6-1.6-2.7 22.1-25.8 43.5 3.8 16.2 22.4-8.8 45.8-12.3 46.3z"/><path class="b" d="m32 60.4c-2.2 0.3-10.1-20.2-14.3-25.9-3.2-4.4-13.8-19-16.3-23.1-1.5-2.6 21.2-24.8 40.3 2.9 1.3 1.9-6.3 45.6-9.7 46.1z"/><path class="c" d="m32.5 60.8c-2.1 0.3-10.1-20.2-14.2-25.9-3.2-4.3-13.8-18.9-16.3-23-1.5-2.6 21.2-24.9 40.3 2.9 1.3 1.9-6.4 45.5-9.8 46z"/><path class="d" d="m10.3 9.2c0.6 2 2.4 3.6 7.6 2.1 0.9-0.3 1.7-0.8 2.6-1.1 1.8-0.5 3.4 0.5 5 1.1 0.7 1.7 3.4 4.8 4 5.2 1.4 0.8 5.1-0.3 5.9-1.6q0.2-0.4 0.4-0.9c0.4-0.9 0.8-1.9 0.9-3 0-0.1 0-0.4-0.2-0.5-0.3-0.2-1.1-0.4-2.1-0.7q0.3-0.2 0.5-0.4c0.1-0.1 0.3-0.3 0.2-0.5-0.3-1.2-5.1-3.4-7.9-2.7q-0.3 0.1-0.5 0.2c-1-0.4-2.4-0.5-2.7-1.6-0.1-0.4 0-0.9-0.1-1.3-0.4-1.2-3.3-1.2-5.9-0.4q-0.7 0.2-1.4 0.4c0 0-0.6-1.3-3.1-0.5-2.1 0.6-1.8 0.9-1.2 3.1-0.4 0.1-0.9 0.2-1.4 0.3-1.1 0.4-0.9 1.7-0.6 2.8z"/><path class="d" d="m21.1 12.5q-0.5 0.2-0.9 0.4c-0.9 0.4-1.9 0.9-2.6 1.7-0.1 0.1-0.3 0.3-0.2 0.5 0.3 1.1 5.2 3.2 8 2.4 1.1-0.3 1.4-1.4 1.1-2.3-0.4-1.5-3.9-3.1-5.4-2.7z"/><path class="e" d="m30.8 14.8c0.4 0.1 1.4 0.1 1.8-0.4 0.3-0.5-0.3-0.9-0.6-1.1 0-0.2-0.2-0.2-0.2-0.3-2.2-0.6-2.3 1.4-1 1.8z"/><path class="e" d="m28.4 9.8c1.1 3.7 2.6 2.1 3.1 1.7 2.1-1.7-1.6-3-1.9-3.2 0-0.2-0.2-0.2-0.3-0.2-2.1-0.6-1.3 0.4-0.9 1.7z"/><path class="f" d="m32 60.5c-2.2 0.3-9.8-19.5-13.8-25-3.1-4.2-14.3-20.2-16.7-24.2-1.4-2.5 30.4-11.5 45.6 11.3 14.4 21.7-11.9 37.4-15.1 37.9z"/><path class="b" d="m1.1 10.9c-2.2-0.8 14 21.3 17.8 27.3 2.8 4.6 11 24.1 14.9 26.8 1.4 1 26.7-18.3 12.8-41.6-14-23.3-43.1-11.6-45.5-12.5z"/><path class="g" d="m2.9 11.4c-2.1-0.8 13.6 21 17.2 27 2.8 4.5 10.7 23.8 14.4 26.5 1.4 1 25.7-18 12.2-41.1-13.5-23-41.5-11.5-43.8-12.4z"/><path class="h" d="m46.7 23.8c-2.7-4.7-6.1-7.9-9.7-10.2q0.4 3.2 0.5 6.6c0 12.2-4.9 22.8-12.2 28.6 3.2 6.9 7 14.5 9.2 16.1 1.4 1 25.7-18 12.2-41.1z"/><g style="opacity:.5"><path class="i" d="m47.5 29.5c-1.1-1.7-3.2-1.7-4.6-0.7-1.8 1.2-2.9 5.6-2.6 8.7-0.7 0.9-0.9 2.6-2.2 2.7-0.4 0.1-0.9-0.1-1.3-0.1-1.3 0.2-1.7 3.1-1.4 5.7q0.1 0.8 0.2 1.5c0 0-1.3 0.5-1 3 0.3 2.2 0.6 2 2.9 1.7 0.1 0.4 0 0.9 0.1 1.4 0.1 1.2 1.5 1.2 2.6 1 2.1-0.2 4-1.7 3.3-7.1-0.1-0.9-2.4-3.8-2.5-4.7-0.3-2.7 4-2.6 4.4-5 0.1 1 0 1.9 1.2 2.5 0.3 0.1 0.6 5.1 0.9 4.9 1.9-1.2 3-11 0-15.5z"/><path class="i" d="m33.8 53.3q-0.3-0.1-0.7-0.1c-0.9-0.1-1.8-0.2-2.6 0.1-0.1 0-0.3 0.1-0.4 0.2-0.2 1 2.3 4.6 4.6 5.2 0.9 0.2 1.6-0.4 1.8-1.2 0.3-1.2-1.4-3.8-2.7-4.2z"/><path class="i" d="m37.9 30.1c-0.3-0.1-2.2-2-2.5-1.9-0.9-0.1 0.8 2.4-0.3 3-0.2 0.1 0 2.3-0.2 2.6-0.3 0.6-0.6 1.4-0.7 2.2q0 0 0 0c0-0.1 0-0.2-0.1-0.2-0.5-0.4-2.4-0.6-2.8 0-0.1 0.2 0.3 0.6 0.7 0.9 0.6 0.5 2 0.8 2.2 0.4q0 0 0 0c0.1 1 0.5 1.8 1.6 2 0.9 0.3 2-0.9 2.7-2.3 1.1-2.1 0.6-6.4-0.6-6.7z"/></g><path class="j" d="m43.6 26.4c0.3-0.1 0.5-0.7 0.5-1.2 0-0.9-0.8-2.1-1.3-2q-0.1 0-0.2 0.1c-0.3 0.1-0.6 0.3-0.9 0.7 0 0-0.1 0.1-0.1 0.2 0 0.7 1.2 2.3 2 2.2z"/><path class="d" d="m38.4 21.6c-0.2-2.1-1.6-4-7-3.4-0.9 0.1-1.9 0.5-2.8 0.6-1.9 0.2-3.2-1.1-4.7-2-0.4-1.8-2.5-5.3-3-5.8-1.2-1.1-5-0.7-6.1 0.4q-0.3 0.4-0.5 0.8c-0.6 0.9-1.2 1.8-1.5 2.9 0 0.1 0 0.3 0.1 0.5 0.3 0.2 1 0.6 2 1q-0.3 0.2-0.6 0.4c-0.1 0.1-0.3 0.2-0.3 0.4 0.1 1.2 4.4 4.3 7.4 4.1q0.2-0.1 0.4-0.1c1 0.6 2.3 0.9 2.4 2 0 0.5-0.2 0.9-0.1 1.4 0.1 1.2 3 1.7 5.6 1.4q0.8 0 1.5-0.1c0 0 0.4 1.3 3 1.1 2.2-0.3 2-0.6 1.7-2.9 0.4-0.1 0.9 0 1.4-0.1 1.2-0.1 1.3-1.4 1.1-2.6z"/><path class="d" d="m28.4 16.4q0.5-0.1 1-0.2c1-0.3 2-0.6 2.9-1.2 0.1-0.1 0.3-0.3 0.3-0.5-0.1-1.2-4.6-4.1-7.5-3.8-1.1 0.1-1.6 1.1-1.5 2.1 0.2 1.5 3.3 3.8 4.8 3.6z"/><path class="e" d="m34.2 19.8c-0.9 0.1-2.8 0.8-3.1 2.1-0.3 1.2 1.1 1.5 2 1.6 0.1 0.4 0.4 0.2 0.6 0.3 4.5-0.4 3.3-4.3 0.5-4z"/><path class="e" d="m30.6 21.2c-0.7 0.3-2 1.2-2 2.3 0 0.9 1.2 0.9 1.8 0.8 0.2 0.3 0.4 0.1 0.6 0.2 3.4-1.3 1.7-4.1-0.4-3.3z"/><path class="e" d="m28.8 32.3c-0.6 0.4-1.7 1.6-1.5 2.6 0.2 1 1.4 0.7 2 0.4 1.1-0.6 0.3-1.5 0.4-1.5 3.1-1.9 1-2.7-0.9-1.5z"/><path class="d" d="m45.9 44.8c-0.1-1.2-0.6-3.7-1.6-4-0.9-0.4-1.2 1.6-1.3 2.7 0.1 2 1.2 1.4 1.1 1.7 0.2 6 1.9 3.4 1.8-0.4z"/><path class="d" d="m39.7 50.1c0.8-0.8 1.6-3 0.4-4.9-1.2-1.7-3-1.1-3.9-0.6-1.3 1.2 0.9 2.8 0.6 2.8-3.8 3.8 0.5 5 2.9 2.7z"/><path class="e" d="m28.4 12.3c-0.7-0.3-2.3-0.3-2.9 0.5-0.6 0.8 0.3 1.5 0.9 1.8 0 0.3 0.3 0.3 0.4 0.5 3.4 1.1 3.8-2.1 1.6-2.8z"/><path class="e" d="m29.6 19.6c-0.5 0.1-1.4 0.4-1.5 1-0.2 0.6 0.5 0.8 0.9 0.8 0.1 0.2 0.2 0.1 0.3 0.2 2.2-0.3 1.6-2.1 0.3-2z"/><path class="e" d="m27.7 23.7c-0.4-0.2-1.3-0.4-1.8 0.1-0.4 0.4 0.1 0.9 0.4 1.1-0.1 0.2 0.1 0.2 0.2 0.3 1.9 1 2.5-0.9 1.2-1.5z"/><path class="e" d="m19.3 12.4c-0.4-0.2-1.3-0.3-1.8 0.1-0.4 0.4 0.1 0.9 0.4 1.1-0.1 0.2 0.1 0.3 0.2 0.4 1.9 0.9 2.4-1 1.2-1.6z"/></svg>