<svg version="1.2" xmlns="http://www.w3.org/2000/svg" viewBox="0 0 66 42" width="66" height="42"><style>.a{fill:#e09b92}.b{fill:#ffdad4}.c{fill:#f4bab0}.d{opacity:.4;fill:#f9dcd7}.e{fill:#f9dcd7}.f{fill:#ce715b}.g{fill:#ffc8bd}.h{opacity:.4;fill:#f7bab0}.i{fill:#ed9e91}.j{opacity:.5;fill:#ed9e91}</style><path class="a" d="m60.2 40.6c-1.2 1.8-22.2-6.3-29.4-7-5.5-0.6-23.9-2.5-28.7-3.5-3-0.6-4.2-33.7 32.1-29.7 27.5 3 28 37.2 26 40.2z"/><path class="b" d="m59.3 40.1c-1.2 1.8-21.7-6.1-28.7-6.8-5.4-0.6-23.4-2.5-28-3.5-3-0.6-4.3-32.3 29.1-27.8 2.3 0.3 29.6 35.2 27.6 38.1z"/><path class="c" d="m60.1 39.9c-1.3 1.9-21.8-6-28.8-6.7-5.4-0.6-23.3-2.5-28-3.5-3-0.6-4.2-32.3 29.1-27.9 2.3 0.3 29.6 35.3 27.7 38.1z"/><path class="d" d="m6.9 21.8c1.9 0.8 4.2 0.7 6.6-4.2 0.4-0.9 0.6-1.9 1-2.7 0.8-1.7 2.6-2.2 4.1-3 1.7 0.6 5.8 0.7 6.6 0.5 1.5-0.4 3.2-3.9 2.7-5.4q-0.1-0.4-0.4-0.9c-0.3-0.9-0.8-1.9-1.6-2.7-0.1 0-0.3-0.2-0.5-0.2-0.3 0.1-1 0.5-1.9 1.1q0-0.3 0-0.7c0-0.1 0-0.3-0.2-0.4-1.1-0.6-6 1.5-7.3 4.1q-0.1 0.2-0.2 0.4c-1 0.5-2 1.5-3 1-0.4-0.2-0.7-0.6-1.1-0.8-1.1-0.6-3 1.6-4.2 4q-0.3 0.7-0.6 1.4c0 0-1.4-0.4-2.5 1.9-0.9 2-0.5 2 1.5 3-0.2 0.4-0.5 0.8-0.7 1.2-0.5 1.1 0.6 1.8 1.7 2.4z"/><path class="d" d="m16.6 16q-0.2 0.4-0.3 0.9c-0.4 1-0.6 2.1-0.6 3.1 0.1 0.2 0.1 0.4 0.3 0.5 1 0.5 5.9-1.7 7.2-4.4 0.5-1-0.1-1.9-1-2.3-1.4-0.7-5 0.8-5.6 2.2z"/><path class="e" d="m24.7 10.3c0.4-0.2 1.1-0.9 0.9-1.6-0.1-0.5-0.8-0.4-1.2-0.2-0.1-0.2-0.2 0-0.3-0.1-1.9 1.2-0.5 2.7 0.6 1.9z"/><path class="e" d="m19.4 8.8c3.5 1.7 3.3-0.6 3.4-1.2 0.2-2.6-3.3-0.8-3.7-0.7-0.1-0.1-0.2 0-0.3 0-1.9 1.2-0.6 1.3 0.6 1.9z"/><path class="f" d="m59.4 40.2c-1.2 1.7-21-5.9-27.7-6.6-5.2-0.5-24.6-3-29.2-3.9-2.8-0.6 11.9-30.3 39-26.2 25.8 3.9 19.8 33.9 17.9 36.7z"/><path class="b" d="m1.9 29.8c-2 1.1 25.2 3.8 32.2 5.1 5.4 1 25.2 8 29.9 6.9 1.7-0.3 4.3-32.1-22.3-37.4-26.6-5.2-37.5 24.2-39.8 25.4z"/><path class="g" d="m3.5 28.8c-2 1 24.7 4 31.6 5.3 5.2 1 24.8 8.1 29.3 7.1 1.7-0.3 3.9-31.1-22.3-36.6-26.1-5.5-36.4 23-38.6 24.2z"/><path class="h" d="m42.1 4.6c-5.3-1.1-10-0.8-14.1 0.4q2.7 1.8 5.2 4c9.1 8.2 13.7 19 13.1 28.3 7.2 2.2 15.4 4.5 18.1 3.9 1.7-0.3 3.9-31.1-22.3-36.6z"/><g style="opacity:.5"><path class="i" d="m46.9 7.8c-2-0.3-3.4 1.2-3.7 3-0.3 2.1 2.3 5.9 4.8 7.7 0.2 1.2 1.3 2.4 0.5 3.5-0.2 0.4-0.7 0.6-0.9 0.9-0.8 1.1 1.1 3.3 3.3 4.8q0.6 0.5 1.2 0.9c0 0-0.6 1.3 1.5 2.8 1.8 1.2 1.9 0.8 3.2-1.1 0.4 0.3 0.7 0.6 1.1 0.9 1 0.7 1.9-0.3 2.6-1.3 1.2-1.7 1.4-4-3.1-7.1-0.7-0.6-4.4-0.8-5.1-1.3-2.3-1.6 0.7-4.8-0.8-6.6 0.8 0.5 1.4 1.2 2.6 0.8 0.3-0.2 4.2 2.9 4.3 2.5 0.3-2.2-6.2-9.6-11.5-10.4z"/><path class="i" d="m55.4 34q-0.4 0.2-0.6 0.5c-0.7 0.5-1.3 1.1-1.7 1.9-0.1 0.1-0.2 0.3-0.1 0.4 0.6 0.9 4.9 1.4 6.9 0.1 0.8-0.5 0.8-1.4 0.4-2.1-0.7-1.1-3.9-1.5-4.9-0.8z"/><path class="i" d="m40.9 15.4c-0.3 0.1-2.9 0.2-3.1 0.5-0.6 0.6 2.3 1 2 2.2 0 0.2 1.7 1.6 1.8 1.9 0.3 0.7 0.7 1.4 1.2 2.1q0-0.1 0-0.1c-0.1 0-0.2 0-0.3 0-0.6 0.1-2.1 1.4-1.8 2 0.1 0.3 0.6 0.3 1.1 0.2 0.8-0.2 1.9-1 1.8-1.4q0 0 0 0c0.7 0.6 1.6 0.8 2.6 0.2 0.7-0.5 0.6-2.2 0.1-3.6-0.9-2.2-4.4-4.7-5.4-4z"/></g><path class="j" d="m41.9 8.6c0.2-0.3-0.1-0.8-0.5-1.1-0.6-0.6-2.1-0.8-2.4-0.4q0 0.1 0 0.3c-0.1 0.3-0.2 0.6-0.1 1 0 0.1 0 0.2 0.1 0.3 0.5 0.4 2.5 0.6 2.9-0.1z"/><path class="d" d="m34.9 9.3c-1.6-1.3-4-1.5-7.2 2.9-0.6 0.7-0.9 1.7-1.5 2.4-1.1 1.6-2.9 1.7-4.6 2.2-1.6-0.9-5.6-1.7-6.3-1.7-1.6 0.2-3.9 3.3-3.7 4.8q0 0.5 0.2 1c0.2 1 0.5 2 1.1 2.9 0.1 0.1 0.2 0.3 0.5 0.3 0.3 0 1-0.3 2-0.7q-0.1 0.3-0.1 0.7c0 0.1-0.1 0.3 0.1 0.5 0.9 0.7 6.2-0.5 8-2.8q0.1-0.2 0.2-0.4c1.1-0.3 2.2-1 3.2-0.4 0.3 0.3 0.5 0.8 0.8 1 1.1 0.8 3.4-1 4.9-3.2q0.5-0.6 0.9-1.2c0 0 1.3 0.6 2.8-1.5 1.3-1.7 0.9-1.8-1-3.2 0.3-0.3 0.7-0.7 0.9-1.1 0.7-0.9-0.2-1.8-1.2-2.5z"/><path class="d" d="m24.4 13.2q0.2-0.4 0.4-0.9c0.5-0.9 1-1.9 1.1-2.9 0-0.2 0-0.4-0.1-0.5-1-0.8-6.2 0.6-7.9 2.9-0.7 0.9-0.2 2 0.5 2.5 1.3 0.9 5 0.1 6-1.1z"/><path class="e" d="m30.7 11.2c-0.5 0.7-1.2 2.6-0.5 3.7 0.7 1 1.9 0.2 2.5-0.4 0.4 0.2 0.5-0.2 0.7-0.2 2.7-3.7-1-5.5-2.7-3.1z"/><path class="e" d="m29.4 14.8c-0.3 0.7-0.5 2.3 0.3 3 0.7 0.7 1.5-0.2 1.9-0.8 0.3 0.1 0.3-0.2 0.4-0.3 1.4-3.4-1.8-4-2.6-1.9z"/><path class="e" d="m36.4 23.5c-0.1 0.8 0 2.4 0.9 2.9 0.9 0.5 1.5-0.5 1.7-1.2 0.2-1.1-1-1.2-0.9-1.3 0.7-3.6-1.3-2.6-1.7-0.4z"/><path class="d" d="m57.1 19.3c-0.9-0.8-3.1-2-4-1.6-0.9 0.5 0.4 2 1.2 2.8 1.5 1.4 1.8 0.1 1.9 0.3 4.7 4 3.8 0.9 0.9-1.5z"/><path class="d" d="m56.9 27.4c-0.1-1.1-1.1-3.2-3.3-3.5-2.1-0.3-2.9 1.4-3.1 2.4 0 1.8 2.7 1.3 2.5 1.5 0.2 5.3 4 2.9 3.9-0.4z"/><path class="e" d="m21.3 10.4c-0.6 0.4-1.7 1.5-1.6 2.6 0.2 0.9 1.4 0.7 2 0.5 0.2 0.2 0.4 0 0.6 0 3.1-1.8 1-4.3-1-3.1z"/><path class="e" d="m27.5 14.5c-0.3 0.4-0.6 1.3-0.2 1.8 0.3 0.5 0.9 0.1 1.2-0.2 0.1 0.1 0.2-0.1 0.3-0.1 1.3-1.8-0.5-2.6-1.3-1.5z"/><path class="e" d="m29.3 18.6c-0.4 0.2-1.2 0.8-1.2 1.4 0 0.6 0.8 0.6 1.2 0.5 0.1 0.1 0.2 0 0.3 0.1 2-0.9 1-2.5-0.3-2z"/><path class="e" d="m15.3 17.3c-0.4 0.1-1.2 0.7-1.2 1.4 0 0.6 0.8 0.5 1.2 0.4 0.1 0.2 0.2 0.1 0.3 0.1 2-0.8 1-2.4-0.3-1.9z"/></svg>