<svg version="1.2" xmlns="http://www.w3.org/2000/svg" viewBox="0 0 258 256" width="258" height="256"><style>.a{fill:#c13616}.b{fill:#ce3e17}</style><path class="a" d="m7.8 96.7c0.7-1.7 1.9-3.3 1.1-3.7-0.8-0.3-2 0.9-2.7 2.6-0.7 1.7-0.6 3.4 0.2 3.7 0.8 0.3 0.7-0.8 1.4-2.6z"/><path class="a" d="m71.5 230.3c0.7 0 0.8-1 0.8-1.7-0.2-3.8-5-2.3-7.8-3-0.5 0-1.1-0.2-1.7-0.1-3.7 0.1 7.8 4.9 8.7 4.8z"/><path class="a" d="m59.4 213c-1-0.1-1.6 1.4-1.3 2.4 0.8 3.7 7.6 3.1 10.9 5.9 14.1 11.5 10.3 6.5 4 0.7-4-3.8-12.1-8.9-13.6-9z"/><path class="a" d="m240.7 184c0.6-1.6 0.4-3.2-0.5-3.5-0.9-0.4-2.1 0.6-2.7 2.2-0.7 1.5-2.7 4.9-1.8 5.3 0.9 0.3 4.4-2.5 5-4z"/><path class="a" d="m240 64.1c-5.9-9.9-8.5-21.1-16.9-28.8-12.4-11.5-11.2-12.4-14.3-13.6-1.5-0.6-2.2-0.2-2.2 0.4 0.1 5.7 10.6 3.3 17 21.1 2.1 6.1 2.4 15 9.4 24.3 1.1 1.5 2.1 2.7 3.7 3.3 0.9 0.4 4.2 1.4 4.6 0.5 1-2.7-0.1-5.1-1.3-7.2z"/><path class="b" d="m247.4 118.1c-3.1-14.3-4.1-29.5-3.4-40.6-2.4-7.1-5.4-13.8-9.5-20.3-5.8-5.4-12.2-10.3-19.4-14.8-9.1-6.2-17.9-18.6-26.4-22-7.3-2.9-15.6 0.8-21.3-1.4-1.3-0.5-1.4-1-0.7-2.6 0.6-1.5 1.8-2.9 2.5-4.4 0.9-2.5-2.7-5.2-7.5-8-13.5-3.5-33.8 2.5-47.3 3.7-7.7 0.6-15.9-12.2-17-4.3-0.9 7.2 11.9 11.8 31.9 8 1.4 0 2.8 0 4.1 0.4 0.6 0.3 1.1 0.6 0.9 1.2-1.6 4.1-18.1 8.7-31.8 3.3-2.4-1-4.7-2.4-7-3.3-3.1-1.3-18.3-1.6-19.4-1.5-2.9 0.2-6.7 1.5-10 2.5-10.4 6.1-18.8 14.9-27.2 23.8-5.3 5.7-10.3 11.8-14.7 18.4-2.1 9.9-8.7 19.3-7.8 29.8 7.9-10.8 9.4-25.1 18.9-34.7-0.5 4.9-1.9 9.5-3.7 14-2.1 5.1-4.5 10.1-6.6 15.2-5.6 14.2-8.7 31.9-7.5 41.6 1.2 8.6-3.7 5.5-4-9.8 0.8-7.1 2.2-15.5 0-15.1-2.5 0.4-3.5 17.2-5 16.5-3.5-1.3-0.5-8-2.9-10.9q-0.2-0.1-0.4-0.2c-0.9 4.5-1.6 8.9-2 13.1-1 12.3 2.6 25.8 5 37.5q0.6 2.6 1.1 5.2c0.5 0.7 0.8 1.4 1.1 2 4.4 14.8 9.3 17 12.6 29.2 7.2 15.8 19.8 28.9 35.3 35.1 1.1 0.4 2.1 1.1 1.1-1.2-2.9-5.3-19.2-3.7-25.6-24.3 3 2.5 6.5 4.6 10.6 6.2 10.3 4.1 13.6-4 19.9 6.3 7.1 10.8 16.3 21.7 28.4 26.5 6.2 2.5 17.7 13.4 30 15.6 14.6 2.7 27.1 1.3 43.5-8.3 2.4-1.3-0.1-4.8-10.5 0.7-6.7 3.5-11-1.6-19.9-3.5-10.3-4.1 19.7-2.6 25.8-4.5 9.5-3.1 17.7-7.4 28.1-9.5 1.1-0.1 13.2-6.8 11.6-2.7l-0.9 1.9c-1.3 3.3-18.3 8.8-14.8 11.8 2 3 16.4-9.2 31-18.4 7.9-5 11.5-14.2 15.5-22.8 0.9-5.4-9.3 2.2 0-14.1 1.7-2.9 6.3-7.5 4.1-9.3-1.3-1.2-9.1 11.5-5.6-3.6 2-8.8 8.4-6.2 10.8-12.2 2.5-8.7-2.2-4 4.8-23.6q0.2 0.8 0.2 2c0 2.5-0.9 4.8-0.3 7.1 3.8 8.6-2.7 18.4 0.5 20.7 0.5 0.2 1.4 0.6 1.6 0.1 6-15.3 4.2-32.2-0.8-47.5z"/><path class="a" d="m175.3 14c-1.8 0-3.3-0.7-3.3-1.6 0-0.9 1.5-1.6 3.3-1.6 1.9 0 3.4 0.7 3.4 1.6 0 0.9-1.5 1.6-3.4 1.6z"/><path class="a" d="m181.4 7.9c0.5-0.7-6.1-2.3-7.6-3.4-1.5-1.1-3.6-5.6-6.2-2-1.6 2.2 2.9 3.4 4.4 4.5 1.5 1.1 8.9 1.6 9.4 0.9z"/><path class="a" d="m15.5 179.1c0.8-0.4-6-9.7-7.4-12.7-1.3-3.1-2.4-11.5-6.3-9.4-2.5 1.3 2.2 7.8 3.6 10.8 1.3 3.1 9.4 11.7 10.1 11.3z"/><path class="a" d="m254.6 120.7c-3.7-2-5.2-7.7-4.5-13.6 0.6-5.8 0-21.6 0-21.6 0 0 10.3 38.4 4.5 35.2z"/><path class="a" d="m28.8 41.3c-0.4-2.2 1.5-4.8 4.1-6.5 2.7-1.7 9.1-7.3 9.1-7.3 0 0-12.6 17.3-13.2 13.8z"/><path class="a" d="m247.4 118.1c-3.1-14.3-4.1-29.5-3.4-40.6-2.4-7.1-5.4-13.8-9.5-20.3-5.8-5.4-12.2-10.3-19.4-14.8-9.1-6.2-17.9-18.6-26.4-22-7.3-2.9-15.6 0.8-21.3-1.4-1.3-0.5-1.4-1-0.7-2.6 0.6-1.5 1.8-2.9 2.5-4.4 0.9-2.5-2.7-5.2-7.5-8-13.5-3.5-33.8 2.5-47.3 3.7-7.7 0.6-15.9-12.2-17-4.3-0.9 7.2 11.9 11.8 31.9 8 1.4 0 2.8 0 4.1 0.4 0.6 0.3 1.1 0.6 0.9 1.2-0.9 2.1-5.9 4.5-12.5 5.4q3.2-0.2 6.5-0.2c58.7 0 96.8 48.3 96.8 106.7 0 58.3-36.8 96.8-95.5 96.8-58.7 0-98.8-37.2-98.8-95.5 0-54.7 32.9-101.9 86.4-107.4-4.7 0.1-9.9-0.6-14.7-2.5-2.4-1-4.7-2.4-7-3.3-3.1-1.3-18.3-1.6-19.4-1.5-2.9 0.2-6.7 1.5-10 2.5-10.4 6.1-18.8 14.9-27.2 23.8-5.3 5.7-10.3 11.8-14.7 18.4-2.1 9.9-8.7 19.3-7.8 29.8 7.9-10.8 9.4-25.1 18.9-34.7-0.5 4.9-1.9 9.5-3.7 14-2.1 5.1-4.5 10.1-6.6 15.2-5.6 14.2-8.7 31.9-7.5 41.6 1.2 8.6-3.7 5.5-4-9.8 0.8-7.1 2.2-15.5 0-15.1-2.5 0.4-3.5 17.2-5 16.5-3.5-1.3-0.5-8-2.9-10.9q-0.2-0.1-0.4-0.2c-0.9 4.5-1.6 8.9-2 13.1-1 12.3 2.6 25.8 5 37.5q0.6 2.6 1.1 5.2c0.5 0.7 0.8 1.4 1.1 2 4.4 14.8 9.3 17 12.6 29.2 7.2 15.8 19.8 28.9 35.3 35.1 1.1 0.4 2.1 1.1 1.1-1.2-2.9-5.3-19.2-3.7-25.6-24.3 3 2.5 6.5 4.6 10.6 6.2 10.3 4.1 13.6-4 19.9 6.3 7.1 10.8 16.3 21.7 28.4 26.5 6.2 2.5 17.7 13.4 30 15.6 14.6 2.7 27.1 1.3 43.5-8.3 2.4-1.3-0.1-4.8-10.5 0.7-6.7 3.5-11-1.6-19.9-3.5-10.3-4.1 19.7-2.6 25.8-4.5 9.5-3.1 17.7-7.4 28.1-9.5 1.1-0.1 13.2-6.8 11.6-2.7l-0.9 1.9c-1.3 3.3-18.3 8.8-14.8 11.8 2 3 16.4-9.2 31-18.4 7.9-5 11.5-14.2 15.5-22.8 0.9-5.4-9.3 2.2 0-14.1 1.7-2.9 6.3-7.5 4.1-9.3-1.3-1.2-9.1 11.5-5.6-3.6 2-8.8 8.4-6.2 10.8-12.2 2.5-8.7-2.2-4 4.8-23.6q0.2 0.8 0.2 2c0 2.5-0.9 4.8-0.3 7.1 3.8 8.6-2.7 18.4 0.5 20.7 0.5 0.2 1.4 0.6 1.6 0.1 6-15.3 4.2-32.2-0.8-47.5z"/><path class="a" d="m116 203.6l-1.3 0.6c-26.6-13.8-46.4-40-58.6-67.2-1.9-4.5-2.4-9.6-4.4-14.8-1.6 4.8-2.4 9.7-2.4 14.6 0 14.4 6.1 29.1 12.8 41.6-10-10.1-26.5-33.2-28.9-33.2-5.3 0 10.6 53.2 62.2 67.4l1.2-0.1-9.6 4.4c5.3 1.9 10.6 2.5 15.9 2.5 8 0 16.1-1.4 24.1-2.6 17.1-3.4 2.9-8.6-11-13.2z"/><path class="a" d="m58.8 135.2l-1.2-0.8c-1.1-30 11.9-60.1 29.5-84.2 2.9-3.9 7.1-6.9 10.7-11.1-5 0.9-9.6 2.7-13.9 5.2-12.5 7.1-22.3 19.6-29.8 31.6 3.8-13.7 15.7-39.4 14.5-41.5-2.6-4.7-41 35.4-27.8 87.4l0.6 0.9-8.5-6.1c1 5.4 3.1 10.4 5.7 15.1 4 6.9 9.2 13.2 14.2 19.6 11.4 13.2 8.9-1.7 6-16.1z"/><path class="a" d="m154.2 58.3l1.3-0.5c25.6 15.7 43.4 43.2 53.7 71.2 1.6 4.6 1.7 9.8 3.3 15.1 2-4.7 3.1-9.5 3.4-14.4 1-14.4-4-29.4-9.8-42.4 9.3 10.7 24.1 35 26.5 35.2 5.3 0.3-6.7-53.8-57.2-71.7h-1.2l9.8-3.7c-5-2.2-10.3-3.2-15.6-3.6-8-0.6-16.1 0.3-24.3 0.8-17.2 2.2-3.4 8.4 10.1 14z"/><path class="a" d="m134.1 66.8c6.8 7.1 12.5 15.2 18.1 23.3-5.3-6.2-14.8-17.1-20.2-11.2-31.3 34.3-53.6 8.7-25.5-36.8-40.6 29.5-20.3 114.2-38.3 70.9-16.3 43.9 23.8 69.6 48.7 75.8 7.1 4 14.4 7.7 22.1 11.1 12.7 5.1 48.8-4.7 48.8-46.6 0-34.9-26-66.6-53.7-86.5z"/><path class="b" d="m182.5 112.8q-0.1 1.3-0.1 2.8c0 4.3 0.7 8.8 0.7 13.1 0 10.3-5.9 14.8-7.3 14.8-1 0-1.9-1.6-2.5-2.2-2.1 10-20.1 19.5-26.4 19.5-5.5 0-11.3-2.4-16.7-4 7.9 5.8 35.9 11.6 19.9 17q-0.9 0.1-1.9 0.1c-2.7 0-5.5-0.8-8.3-1.6l-13.5-1.4c6.3 2.6 13.1 4.1 19.9 4.1 27 0 31-14.8 34.3-24 0.9 1.3 1.4 3.9 1.8 3.9q0.1 0 0.1 0c4.5-7 5.8-14.9 5.8-23 0-9.3 0-17-5.8-19.1z"/></svg>