<svg version="1.2" xmlns="http://www.w3.org/2000/svg" viewBox="0 0 244 246" width="244" height="246"><style>.a{fill:#ffa07b}.b{fill:#ef3535}.c{fill:#e02b2b}.d{fill:#bf1d1d}.e{fill:#a51c1c}.f{fill:#e23333}.g{fill:#fc4747}.h{fill:#afac2c}.i{fill:#c4c43d}.j{fill:#eae553}.k{fill:#d8d445}.l{fill:#ff9688}.m{fill:#d84532}.n{fill:#ce4c36}.o{fill:#ba3c2b}.p{fill:#f96a53}.q{fill:#ea6142}.r{fill:#afac31}.s{fill:#ddd54a}</style><path fill-rule="evenodd" class="a" d="m156.1 169.9c-3.4-1.6-3.2-4.5-5.1-6.1-2-1.6-5.5 4-8.6 2.7-3-1.2-5.1-2.7-5.7-21.6-0.5-18.9 10.9-26 18-24.6 6.2 1.3 7.4 8.9 11.2 11.7 3.8 2.7 5.6 0.1 11.3 1.9 5.7 1.9 10 6.9 3.7 22.1-6.4 15.3-21.3 15.5-24.8 13.9zm22.3-15.3c5.1-11.7 0.8-15-4.1-16.7-4.9-1.6-8.7 4.6-12 2.2-3.3-2.4-1.6-10.4-7-11.5-6.1-1.4-14.8 3-14.8 17 0 13 2.1 14.4 4.7 15.5 2.7 1.1 5.8-3.5 7.5-2.1 2.5 2 2.1 6 4.2 7.1 3.1 1.4 16.3 0.7 21.5-11.5z"/><path fill-rule="evenodd" class="b" d="m156.2 170c-3.5-1.6-3.2-4.5-5.2-6-1.9-1.6-5.4 3.9-8.4 2.7-3-1.3-5.1-2.7-5.6-21.4-0.5-18.8 10.8-25.7 17.9-24.3 6.1 1.3 7.2 8.8 11 11.5 3.8 2.7 5.6 0.2 11.3 2 5.6 1.8 9.9 6.8 3.6 21.9-6.3 15.1-21.2 15.3-24.6 13.6zm22.1-15c5.1-11.6 0.8-14.9-4.1-16.6-4.8-1.6-8.6 4.5-11.8 2.2-3.3-2.4-1.6-10.3-6.9-11.4-6.1-1.4-14.8 3-14.8 16.8-0.1 12.8 2 14.2 4.7 15.3 2.6 1.1 5.7-3.4 7.4-2 2.5 1.9 2.1 5.9 4.2 6.9 3 1.5 16.1 0.8 21.3-11.2z"/><path class="c" d="m180.8 156.4c2.4-5.9 3.3-10.2 3.1-13.5q-1.6 1.3-3.3 2.4c0.2 2.4-0.4 5.5-2.3 9.7-5.2 12-18.3 12.7-21.3 11.2-2.1-1-1.7-5-4.2-6.9-1.7-1.4-4.8 3.1-7.4 2-1.2-0.5-2.2-1-3-2.4q-2.3 0-4.4-0.1c1 6.1 2.6 7 4.6 7.9 3 1.2 6.5-4.3 8.4-2.7 2 1.5 1.7 4.4 5.2 6 3.4 1.7 18.3 1.5 24.6-13.6z"/><path fill-rule="evenodd" class="d" d="m156.6 167.7c-3.1-1.4-1.9-6.1-3.7-7.5-1.7-1.3-6.3 3.7-9 2.6-2.7-1.1-4-0.5-4.5-17.2-0.6-16.7 9.3-21.8 15.6-20.5 5.5 1.1 5.1 12.1 8.4 14.5 3.4 2.5 6.6-5 11.7-3.3 5 1.6 8.8 6.1 3.3 19.4-5.5 13.4-18.7 13.5-21.8 12zm19.7-13.3c4.4-10.2 0.5-13.2-3.8-14.7-4.3-1.4-7.6 4-10.6 1.9-2.9-2.2-1.4-9.2-6.2-10.2-5.4-1.2-13.1 2.6-13 14.9 0 11.4 1.9 12.6 4.2 13.6 2.4 1 5.1-3 6.6-1.8 2.3 1.8 1.9 5.3 3.8 6.3 2.7 1.3 14.3 0.7 19-10z"/><path class="e" d="m163.6 142.1c1.1 0.2 6-4 9.4-2.5 3.3 1.5 6.1 3.5 5 9.4q0.9 1.9 1.5 3.9c3.9-11.2 0.3-15.3-4.4-16.6-4.5-1.3-7.8 4.5-10.4 3.8 0.5 0.2-1.6 1.7-1.1 2z"/><path class="e" d="m142.7 147.4q0-0.6 0-1.1c-0.1-12.3 7.6-16.1 13-14.9 3.1 0.7 3.6 3.8 4.3 6.5q1.1 0 2.1 0.2c-2-3.9-2.4-12-7.1-13-6.3-1.3-16.2 3.8-15.6 20.5 0.1 3.8 0.2 6.7 0.5 8.9 0.4-2.5 1.4-4.9 2.8-7.1z"/><path class="a" d="m176.3 154.4c-4.7 10.7-16.3 11.3-19 10-1.9-1-1.5-4.5-3.8-6.3-1.5-1.2-4.2 2.8-6.6 1.8-2.3-1-4.2-2.2-4.2-13.6q-0.1-2.2 0.3-4.1-0.4 1.9-0.4 4.3c0.1 11.4 2 12.6 4.3 13.6 2.3 1 5.1-3 6.6-1.7 2.2 1.7 1.9 5.3 3.8 6.2 2.6 1.3 14.3 0.7 18.9-9.9 1-2.3 1.6-4.3 1.8-5.9-0.2 1.6-0.8 3.4-1.7 5.6z"/><path class="a" d="m155 125.3c5.5 1.2 5 12.1 8.4 14.6 3.4 2.4 6.6-5 11.6-3.4 3.8 1.2 6.9 4 5.9 11 1.1-7.1-2-10-5.8-11.2-5.1-1.7-8.3 5.8-11.7 3.3-3.3-2.4-2.9-13.4-8.4-14.5-5.3-1.1-13.3 2.4-15.2 13.7 2-11.1 9.9-14.6 15.2-13.5z"/><path class="f" d="m172.6 139.2c-4.3-1.5-7.6 3.9-10.5 1.8-3-2.2-1.5-9.1-6.3-10.2-4.7-1.1-11.2 1.7-12.7 10.7 1.7-8.5 8-11.2 12.6-10.1 4.8 1 3.3 8 6.2 10.2 3 2.1 6.3-3.3 10.6-1.9 3.4 1.2 6.5 3.3 5.5 9.2 1.4-6.3-1.9-8.5-5.4-9.7z"/><path class="f" d="m178.4 155.7c1.3-3 2-5.6 2.4-7.8-0.4 2.1-1.1 4.5-2.3 7.2-5.5 13.4-18.7 13.5-21.8 12-3.1-1.4-1.9-6.1-3.7-7.4-1.7-1.4-6.2 3.6-9 2.5-2.7-1.1-4-0.5-4.5-17.2q-0.1-3.8 0.4-6.8c-0.4 2.2-0.6 4.6-0.5 7.4 0.5 16.7 1.8 16.1 4.5 17.2 2.7 1.1 7.3-3.9 9-2.6 1.8 1.4 0.6 6.1 3.7 7.5 3.1 1.5 16.3 1.4 21.8-12z"/><path class="g" d="m165.4 138.2c0.2-0.2 0.2-0.6-0.1-0.8-0.2-0.3-0.6-0.3-0.8 0-0.2 0.2-0.2 0.6 0.1 0.8 0.2 0.2 0.6 0.2 0.8 0z"/><path class="b" d="m156.3 169.2c0.2-0.2 0.2-0.6-0.1-0.8-0.2-0.3-0.6-0.3-0.8 0-0.2 0.2-0.2 0.6 0 0.8 0.3 0.3 0.7 0.2 0.9 0z"/><path class="b" d="m153 162.3c0.2-0.3 0.2-0.7-0.1-0.9-0.2-0.2-0.6-0.2-0.8 0-0.3 0.2-0.2 0.6 0 0.9 0.3 0.2 0.7 0.2 0.9 0z"/><path class="g" d="m164 135.6c0.1-0.2 0.1-0.4-0.1-0.5-0.1-0.2-0.3-0.1-0.5 0-0.1 0.1-0.1 0.3 0.1 0.5 0.1 0.1 0.3 0.1 0.5 0z"/><path class="g" d="m165.1 169.6c0.2-0.1 0.1-0.3 0-0.5-0.1-0.1-0.4-0.1-0.5 0-0.1 0.2-0.1 0.4 0.1 0.5 0.1 0.1 0.3 0.1 0.4 0z"/><path class="g" d="m170.3 167c0.1-0.1 0.1-0.4 0-0.5-0.2-0.1-0.4-0.1-0.5 0-0.1 0.1-0.1 0.4 0 0.5 0.2 0.1 0.4 0.1 0.5 0z"/><path class="g" d="m177.3 159.9c0.2-0.1 0.2-0.3 0-0.5-0.1-0.1-0.3-0.1-0.5 0-0.1 0.2-0.1 0.4 0.1 0.5 0.1 0.1 0.3 0.1 0.4 0z"/><path class="g" d="m181.8 152.1c0.1-0.1 0.1-0.3 0-0.4-0.2-0.2-0.4-0.2-0.5 0-0.1 0.1-0.1 0.3 0 0.4 0.2 0.2 0.4 0.2 0.5 0z"/><path class="g" d="m182.1 141.9c0.1-0.1 0.1-0.3-0.1-0.4-0.1-0.2-0.3-0.2-0.4 0-0.2 0.1-0.1 0.3 0 0.4 0.1 0.2 0.4 0.2 0.5 0z"/><path class="g" d="m180.3 137c0.1-0.1 0.1-0.3-0.1-0.4-0.1-0.2-0.3-0.2-0.4 0-0.1 0.1-0.1 0.3 0 0.4 0.2 0.2 0.4 0.2 0.5 0z"/><path class="g" d="m175 135.7c0.1-0.2 0.1-0.4-0.1-0.5-0.1-0.1-0.3-0.1-0.4 0-0.2 0.1-0.1 0.3 0 0.5 0.1 0.1 0.4 0.1 0.5 0z"/><path class="g" d="m141.5 164.9c0.1-0.2 0.1-0.4 0-0.5-0.2-0.1-0.4-0.1-0.5 0-0.1 0.1-0.1 0.3 0 0.5 0.2 0.1 0.4 0.1 0.5 0z"/><path class="g" d="m144 166.1c0.1-0.1 0.1-0.3-0.1-0.5-0.1-0.1-0.3-0.1-0.4 0-0.2 0.2-0.1 0.4 0 0.5 0.1 0.1 0.4 0.1 0.5 0z"/><path class="g" d="m145.6 163.9c0.1-0.2 0.1-0.4 0-0.5-0.2-0.1-0.4-0.1-0.5 0-0.1 0.1-0.1 0.3 0.1 0.5 0.1 0.1 0.3 0.1 0.4 0z"/><path class="g" d="m138.7 159.5c0.1-0.2 0.1-0.4 0-0.5-0.2-0.1-0.4-0.1-0.5 0-0.1 0.1-0.1 0.3 0 0.5 0.2 0.1 0.4 0.1 0.5 0z"/><path class="g" d="m139.3 156c0.1-0.2 0.1-0.4 0-0.5-0.2-0.1-0.4-0.1-0.5 0-0.1 0.1-0.1 0.4 0.1 0.5 0.1 0.1 0.3 0.1 0.4 0z"/><path class="g" d="m138.1 152.5c0.1-0.1 0.1-0.3 0-0.5-0.2-0.1-0.4-0.1-0.5 0-0.1 0.2-0.1 0.4 0 0.5 0.2 0.1 0.4 0.1 0.5 0z"/><path class="g" d="m138.6 145.2c0.2-0.1 0.1-0.3 0-0.4-0.1-0.2-0.4-0.1-0.5 0-0.1 0.1-0.1 0.3 0.1 0.4 0.1 0.2 0.3 0.2 0.4 0z"/><path class="g" d="m138.9 137.5c0.1-0.1 0.1-0.3-0.1-0.5-0.1-0.1-0.3-0.1-0.4 0-0.2 0.2-0.2 0.4 0 0.5 0.1 0.1 0.3 0.1 0.5 0z"/><path class="g" d="m141.8 130.2c0.1-0.1 0.1-0.3-0.1-0.4-0.1-0.2-0.3-0.2-0.5 0-0.1 0.1-0.1 0.3 0.1 0.4 0.1 0.2 0.3 0.2 0.5 0z"/><path class="g" d="m139.6 136.2c0.1-0.1 0.1-0.3 0-0.4-0.2-0.2-0.4-0.2-0.5 0-0.1 0.1-0.1 0.3 0.1 0.4 0.1 0.2 0.3 0.2 0.4 0z"/><path class="g" d="m169.8 135.3c0.1-0.1 0.1-0.3 0-0.4-0.2-0.2-0.4-0.2-0.5 0-0.1 0.1-0.1 0.3 0.1 0.4 0.1 0.2 0.3 0.2 0.4 0z"/><path class="g" d="m160.5 128.2c0.1-0.2 0.1-0.4 0-0.5-0.2-0.1-0.4-0.1-0.5 0-0.1 0.1-0.1 0.3 0.1 0.5 0.1 0.1 0.3 0.1 0.4 0z"/><path class="g" d="m158 123.4c0.1-0.1 0.1-0.3 0-0.4-0.2-0.2-0.4-0.2-0.5 0-0.1 0.1-0.1 0.3 0 0.4 0.2 0.2 0.4 0.2 0.5 0z"/><path class="g" d="m161.9 132.8c0.1-0.1 0.1-0.4-0.1-0.5-0.1-0.1-0.3-0.1-0.4 0-0.2 0.1-0.1 0.4 0 0.5 0.1 0.1 0.4 0.1 0.5 0z"/><path class="g" d="m165.3 133.2c0.1-0.1 0.1-0.3 0-0.5-0.2-0.1-0.4-0.1-0.5 0-0.1 0.2-0.1 0.4 0 0.5 0.2 0.1 0.4 0.1 0.5 0z"/><path class="g" d="m154.4 122.6c0.1-0.1 0.1-0.4-0.1-0.5-0.1-0.1-0.3-0.1-0.4 0-0.2 0.1-0.2 0.4 0 0.5 0.1 0.1 0.3 0.1 0.5 0z"/><path class="g" d="m148.5 125.3c0.1-0.1 0.1-0.4-0.1-0.5-0.1-0.1-0.3-0.1-0.4 0-0.1 0.1-0.1 0.4 0 0.5 0.2 0.1 0.4 0.1 0.5 0z"/><path class="g" d="m149.9 122.6c0.2-0.2 0.1-0.4 0-0.5-0.1-0.1-0.4-0.1-0.5 0-0.1 0.1-0.1 0.3 0.1 0.5 0.1 0.1 0.3 0.1 0.4 0z"/><path fill-rule="evenodd" class="a" d="m42 126.8c-3.6 1.3-5.4-1-7.9-0.7-2.5 0.3-1.1 6.6-4.2 7.9-3 1.3-5.5 1.7-19.2-11.4-13.7-13.1-10.6-26.1-4.5-30.1 5.3-3.5 11.5 1.2 16.1 0.4 4.6-0.7 4.1-3.8 9.4-6.5 5.3-2.7 12-2.2 18.2 13.1 6.2 15.3-4.2 26-7.9 27.3zm5.1-26.6c-4.6-11.9-10-11.2-14.7-8.9-4.6 2.3-2.9 9.3-6.9 9.9-4.1 0.6-8.5-6.2-13.1-3.3-5.3 3.4-8.4 12.7 1.4 22.6 9.2 9.3 11.6 8.7 14.3 7.7 2.6-1.1 1.7-6.5 3.8-6.8 3.2-0.3 5.8 2.8 8 2.1 3.2-1.1 12-10.9 7.2-23.3z"/><path fill-rule="evenodd" class="b" d="m42.2 126.8c-3.6 1.3-5.5-0.9-7.9-0.6-2.5 0.2-1.2 6.5-4.2 7.8-3 1.2-5.5 1.7-19-11.3-13.5-12.9-10.4-25.8-4.3-29.8 5.2-3.4 11.3 1.2 15.9 0.4 4.6-0.7 4.1-3.8 9.4-6.5 5.3-2.6 11.8-2.1 17.9 13 6.1 15.2-4.2 25.7-7.8 27zm5.1-26.3c-4.5-11.7-9.9-11.1-14.5-8.8-4.6 2.2-3 9.2-7 9.8-4 0.7-8.3-6.1-12.9-3.2-5.2 3.3-8.4 12.5 1.3 22.4 9 9.1 11.5 8.6 14.1 7.5 2.7-1 1.7-6.4 3.9-6.6 3.1-0.4 5.7 2.7 7.9 2 3.1-1.1 11.9-10.8 7.2-23.1z"/><path class="c" d="m50 99.8c-2.3-5.9-4.8-9.6-7.2-11.7q-0.3 2-0.7 4c1.8 1.5 3.6 4.2 5.2 8.4 4.7 12.3-4.1 22-7.2 23.1-2.2 0.7-4.8-2.4-7.9-2-2.2 0.2-1.2 5.6-3.9 6.6-1.1 0.5-2.2 0.8-3.8 0.4q-1.6 1.6-3.2 3.1c5 3.6 6.8 3.1 8.8 2.3 3-1.3 1.7-7.6 4.2-7.8 2.4-0.3 4.3 1.9 7.9 0.6 3.6-1.3 13.9-11.8 7.8-27z"/><path fill-rule="evenodd" class="d" d="m40.8 124.9c-3.2 1.1-5.6-3-7.8-2.7-2.3 0.2-1.9 7-4.6 8.1-2.8 1.1-3.3 2.5-15.4-9-12.1-11.5-8.7-22.1-3.3-25.6 4.7-3 12.1 5.1 16.2 4.4 4.1-0.6 1.2-8.2 5.9-10.6 4.8-2.3 10.6-1.9 16.1 11.5 5.5 13.4-3.8 22.8-7.1 23.9zm4.7-23.3c-4.1-10.4-8.9-9.8-13-7.8-4.2 2-2.7 8.2-6.3 8.7-3.6 0.6-7.4-5.4-11.5-2.8-4.7 2.9-7.6 11 1.1 19.7 8.1 8.1 10.3 7.7 12.6 6.7 2.4-0.9 1.6-5.7 3.5-5.9 2.8-0.3 5.1 2.5 7.1 1.8 2.8-0.9 10.7-9.5 6.5-20.4z"/><path class="e" d="m27.8 101.7c0.9-0.6 1.4-7 4.9-8.3 3.4-1.3 6.8-1.8 10.2 3.2q2 0.6 3.8 1.7c-5.1-10.7-10.6-11.1-14.9-8.8-4 2.3-2.3 8.7-4.6 10.1 0.5-0.2 0 2.3 0.6 2.1z"/><path class="e" d="m16.6 120.2q-0.4-0.4-0.8-0.8c-8.7-8.7-5.8-16.8-1.1-19.7 2.6-1.7 5.1 0.2 7.6 1.6q0.8-0.7 1.6-1.4c-4.2-1.3-10.2-6.8-14.2-4.2-5.4 3.5-8.8 14.1 3.3 25.6 2.8 2.6 4.9 4.5 6.6 6-1.4-2.1-2.4-4.5-3-7.1z"/><path class="a" d="m45.5 101.6c4.2 10.9-3.7 19.5-6.5 20.4-2 0.7-4.3-2.1-7.1-1.8-1.9 0.2-1.1 5-3.5 5.9-2.3 1-4.5 1.4-12.6-6.7q-1.5-1.5-2.6-3 1.1 1.6 2.8 3.2c8 8.1 10.2 7.6 12.6 6.7 2.3-0.9 1.5-5.7 3.4-5.9 2.9-0.3 5.1 2.5 7.1 1.8 2.8-0.9 10.7-9.6 6.5-20.4-0.9-2.3-1.9-4.1-2.8-5.4 0.9 1.3 1.8 3 2.7 5.2z"/><path class="a" d="m9.9 95.9c4.7-3.1 12.1 5.1 16.2 4.4 4.1-0.6 1.1-8.2 5.9-10.6 3.5-1.7 7.7-1.9 11.9 3.7-4.3-5.8-8.5-5.7-12.1-3.9-4.7 2.4-1.8 10-5.9 10.6-4.1 0.7-11.5-7.4-16.2-4.4-4.5 3-7.7 11.1-1.1 20.5-6.4-9.3-3.3-17.4 1.3-20.3z"/><path class="f" d="m32.1 93.3c-4.1 2-2.6 8.2-6.2 8.7-3.6 0.6-7.5-5.4-11.6-2.8-4.1 2.5-6.8 9.1-1.5 16.6-4.8-7.3-2.2-13.6 1.9-16.1 4.1-2.6 7.9 3.4 11.5 2.8 3.6-0.5 2.1-6.7 6.3-8.7 3.2-1.5 6.9-2.2 10.3 2.6-3.5-5.4-7.3-4.7-10.7-3.1z"/><path class="f" d="m47.9 101c-1.2-3-2.5-5.4-3.8-7.2 1.2 1.7 2.3 3.9 3.5 6.7 5.4 13.4-3.9 22.8-7.1 23.9-3.2 1.1-5.6-3-7.9-2.7-2.2 0.2-1.9 7-4.6 8.1-2.7 1.1-3.2 2.5-15.3-9q-2.8-2.6-4.5-5.1c1.2 1.8 2.8 3.7 4.8 5.6 12.1 11.5 12.6 10.1 15.4 9 2.7-1.1 2.3-7.9 4.6-8.1 2.2-0.3 4.6 3.8 7.8 2.7 3.3-1.1 12.6-10.5 7.1-23.9z"/><path class="g" d="m26.3 97.7c0-0.3-0.3-0.6-0.6-0.5-0.4 0-0.6 0.2-0.6 0.6 0 0.3 0.3 0.5 0.6 0.5 0.4 0 0.6-0.3 0.6-0.6z"/><path class="b" d="m41.7 126.2c-0.1-0.3-0.3-0.6-0.7-0.6-0.3 0-0.6 0.3-0.6 0.6 0 0.3 0.3 0.6 0.7 0.6 0.3 0 0.6-0.3 0.6-0.6z"/><path class="b" d="m34.4 123.6c0-0.4-0.3-0.6-0.6-0.6-0.4 0-0.7 0.3-0.6 0.6 0 0.3 0.3 0.6 0.6 0.6 0.3-0.1 0.6-0.3 0.6-0.6z"/><path class="g" d="m23.4 96.9c0-0.2-0.1-0.4-0.3-0.4-0.2 0.1-0.4 0.2-0.4 0.4 0 0.2 0.2 0.3 0.4 0.3 0.2 0 0.3-0.2 0.3-0.3z"/><path class="g" d="m48.2 120.2c0-0.1-0.1-0.3-0.3-0.3-0.2 0-0.4 0.2-0.4 0.4 0 0.1 0.2 0.3 0.4 0.3 0.2 0 0.3-0.2 0.3-0.4z"/><path class="g" d="m50 114.7c0-0.1-0.1-0.3-0.3-0.3-0.2 0-0.3 0.2-0.3 0.4 0 0.1 0.1 0.3 0.3 0.3 0.2 0 0.4-0.2 0.3-0.4z"/><path class="g" d="m50.1 104.7c0-0.1-0.2-0.3-0.4-0.3-0.2 0-0.3 0.2-0.3 0.4 0 0.1 0.2 0.3 0.3 0.3 0.2 0 0.4-0.2 0.4-0.4z"/><path class="g" d="m47.8 96.1c0-0.2-0.2-0.3-0.4-0.3-0.2 0-0.3 0.1-0.3 0.3 0 0.2 0.2 0.3 0.4 0.3 0.1 0 0.3-0.1 0.3-0.3z"/><path class="g" d="m40.8 88.6c0-0.1-0.2-0.3-0.4-0.3-0.1 0-0.3 0.2-0.3 0.4 0 0.1 0.2 0.3 0.4 0.3 0.2 0 0.3-0.2 0.3-0.4z"/><path class="g" d="m36.1 86.4c0-0.2-0.2-0.3-0.4-0.3-0.2 0-0.3 0.2-0.3 0.3 0 0.2 0.1 0.4 0.3 0.3 0.2 0 0.4-0.1 0.4-0.3z"/><path class="g" d="m31.3 89.2c0-0.2-0.1-0.3-0.3-0.3-0.2 0-0.4 0.1-0.4 0.3 0 0.2 0.2 0.3 0.4 0.3 0.2 0 0.3-0.1 0.3-0.3z"/><path class="g" d="m28.1 133.5c0-0.2-0.2-0.3-0.4-0.3-0.1 0-0.3 0.1-0.3 0.3 0 0.2 0.2 0.3 0.4 0.3 0.2 0 0.3-0.1 0.3-0.3z"/><path class="g" d="m30.7 132.6c0-0.2-0.2-0.3-0.4-0.3-0.1 0-0.3 0.2-0.3 0.3 0 0.2 0.2 0.4 0.4 0.4 0.2-0.1 0.3-0.2 0.3-0.4z"/><path class="g" d="m30.3 129.9c0-0.2-0.1-0.3-0.3-0.3-0.2 0-0.4 0.1-0.4 0.3 0 0.2 0.2 0.3 0.4 0.3 0.2 0 0.3-0.1 0.3-0.3z"/><path class="g" d="m22.3 131.6c0-0.2-0.2-0.3-0.3-0.3-0.2 0-0.4 0.2-0.4 0.3 0 0.2 0.2 0.3 0.4 0.3 0.2 0 0.3-0.1 0.3-0.3z"/><path class="g" d="m20.3 128.7c0-0.2-0.2-0.3-0.4-0.3-0.2 0-0.3 0.1-0.3 0.3 0 0.2 0.2 0.3 0.4 0.3 0.1 0 0.3-0.1 0.3-0.3z"/><path class="g" d="m17 127.1c0-0.2-0.2-0.3-0.4-0.3-0.2 0-0.3 0.1-0.3 0.3 0 0.2 0.1 0.3 0.3 0.3 0.2 0 0.4-0.1 0.4-0.3z"/><path class="g" d="m12.3 121.6c-0.1-0.2-0.2-0.4-0.4-0.4-0.2 0.1-0.3 0.2-0.3 0.4 0 0.2 0.1 0.3 0.3 0.3 0.2 0 0.4-0.2 0.4-0.3z"/><path class="g" d="m7 115.9c0-0.2-0.2-0.3-0.4-0.3-0.2 0-0.3 0.1-0.3 0.3 0 0.2 0.1 0.3 0.3 0.3 0.2 0 0.4-0.1 0.4-0.3z"/><path class="g" d="m3.9 108.7c0-0.2-0.1-0.3-0.3-0.3-0.2 0-0.4 0.1-0.4 0.3 0 0.2 0.2 0.3 0.4 0.3 0.2 0 0.3-0.1 0.3-0.3z"/><path class="g" d="m6.6 114.5c0-0.2-0.1-0.4-0.3-0.4-0.2 0.1-0.4 0.2-0.4 0.4 0 0.2 0.2 0.3 0.4 0.3 0.2 0 0.3-0.2 0.3-0.3z"/><path class="g" d="m27.5 92.6c0-0.2-0.2-0.3-0.4-0.3-0.2 0-0.3 0.1-0.3 0.3 0 0.2 0.1 0.3 0.3 0.3 0.2 0 0.4-0.1 0.4-0.3z"/><path class="g" d="m15.8 94c0-0.2-0.2-0.3-0.4-0.3-0.2 0-0.3 0.1-0.3 0.3 0 0.2 0.2 0.3 0.4 0.3 0.1 0 0.3-0.1 0.3-0.3z"/><path class="g" d="m10.7 92.4c0-0.2-0.2-0.3-0.4-0.3-0.2 0-0.3 0.2-0.3 0.3 0 0.2 0.2 0.3 0.3 0.3 0.2 0 0.4-0.1 0.4-0.3z"/><path class="g" d="m20 96.4c0-0.2-0.2-0.4-0.4-0.4-0.1 0-0.3 0.2-0.3 0.4 0 0.2 0.2 0.3 0.4 0.3 0.2 0 0.3-0.2 0.3-0.3z"/><path class="g" d="m22.8 94.2c0-0.1-0.2-0.3-0.4-0.3-0.2 0-0.3 0.2-0.3 0.4 0 0.1 0.1 0.3 0.3 0.3 0.2 0 0.4-0.2 0.4-0.4z"/><path class="g" d="m7.5 94.4c0-0.2-0.2-0.3-0.4-0.3-0.2 0-0.3 0.1-0.3 0.3 0 0.2 0.2 0.3 0.4 0.3 0.1 0 0.3-0.1 0.3-0.3z"/><path class="g" d="m5.2 100.4c0-0.1-0.2-0.3-0.3-0.3-0.2 0-0.4 0.2-0.4 0.4 0 0.1 0.2 0.3 0.4 0.3 0.2 0 0.3-0.2 0.3-0.4z"/><path class="g" d="m4.3 97.5c0-0.2-0.1-0.3-0.3-0.3-0.2 0-0.4 0.1-0.4 0.3 0 0.2 0.2 0.3 0.4 0.3 0.2 0 0.3-0.1 0.3-0.3z"/><path fill-rule="evenodd" class="a" d="m178.6 42.7c-3.6 1.5-5.6-0.7-8.1-0.2-2.5 0.4-0.7 6.7-3.7 8.2-3 1.5-5.5 2.1-20.2-10.3-14.6-12.4-12.2-25.8-6.3-30.2 5.1-3.8 11.7 0.5 16.3-0.5 4.6-1.1 3.9-4.1 9.2-7.2 5.2-3.1 11.9-2.9 19.1 12.2 7.2 15.1-2.7 26.5-6.3 28zm3.6-27.2c-5.4-11.7-10.9-10.7-15.4-8.1-4.6 2.6-2.4 9.6-6.5 10.5-4 0.8-8.9-5.8-13.4-2.6-5.1 3.7-7.7 13.3 2.8 22.8 9.8 8.8 12.3 8.1 14.9 6.8 2.6-1.2 1.3-6.6 3.5-7 3.2-0.5 5.9 2.5 8.2 1.6 3.1-1.3 11.4-11.8 5.9-24z"/><path fill-rule="evenodd" class="b" d="m178.7 42.7c-3.5 1.6-5.5-0.6-8-0.2-2.5 0.5-0.7 6.7-3.7 8.2-3 1.5-5.5 2.1-19.9-10.2-14.5-12.3-12-25.5-6.2-29.9 5.1-3.8 11.6 0.5 16.2-0.5 4.6-1.1 3.9-4.1 9.1-7.2 5.1-3 11.8-2.8 18.9 12.1 7.1 15-2.8 26.2-6.4 27.7zm3.7-26.9c-5.3-11.6-10.7-10.6-15.3-8-4.5 2.5-2.4 9.5-6.4 10.4-4 0.8-8.8-5.8-13.2-2.5-5.1 3.6-7.8 13.1 2.6 22.5 9.7 8.7 12.1 8 14.7 6.8 2.6-1.2 1.3-6.6 3.5-7 3.2-0.5 5.9 2.5 8.1 1.6 3.1-1.3 11.5-11.7 6-23.8z"/><path class="c" d="m185.1 15c-2.8-5.8-5.5-9.4-8.1-11.4q-0.1 2-0.4 4.1c1.9 1.4 3.9 3.9 5.8 8.1 5.5 12.1-2.9 22.5-6 23.8-2.2 0.9-4.9-2.1-8.1-1.6-2.2 0.4-0.9 5.8-3.5 7-1.1 0.5-2.2 0.9-3.8 0.6q-1.5 1.8-3.1 3.3c5.3 3.4 7.1 2.8 9.1 1.8 3-1.5 1.2-7.7 3.7-8.2 2.5-0.4 4.5 1.8 8 0.2 3.6-1.5 13.5-12.7 6.4-27.7z"/><path fill-rule="evenodd" class="d" d="m177.3 40.9c-3.2 1.3-5.9-2.7-8.1-2.3-2.3 0.4-1.5 7.2-4.2 8.5-2.7 1.3-3.1 2.7-16.1-8.2-12.9-10.9-10-21.8-4.8-25.7 4.6-3.3 12.5 4.4 16.6 3.5 4.2-0.9 0.7-8.3 5.4-11 4.6-2.7 10.6-2.6 16.9 10.6 6.3 13.2-2.5 23.2-5.7 24.6zm3.3-23.8c-4.7-10.3-9.6-9.4-13.7-7.1-4 2.2-2.1 8.4-5.7 9.2-3.6 0.7-7.9-5.1-11.9-2.3-4.6 3.3-6.9 11.7 2.4 20 8.6 7.7 10.8 7 13.1 6 2.4-1.1 1.2-5.9 3.2-6.2 2.8-0.5 5.3 2.2 7.2 1.4 2.8-1.2 10.3-10.3 5.4-21z"/><path class="e" d="m162.7 18.3c0.9-0.7 1-7.3 4.5-8.8 3.4-1.4 6.7-2.2 10.5 2.6q2 0.6 3.9 1.5c-5.8-10.5-11.3-10.6-15.5-7.9-4 2.5-1.9 8.9-4.1 10.4 0.5-0.2 0.2 2.4 0.7 2.2z"/><path class="e" d="m152.5 37.6q-0.4-0.4-0.8-0.7c-9.3-8.3-7-16.7-2.4-20 2.6-1.8 5.3 0 7.8 1.3q0.8-0.9 1.6-1.6c-4.4-1-10.7-6.2-14.6-3.4-5.2 3.9-8.1 14.8 4.8 25.7 3 2.5 5.3 4.3 7.1 5.6-1.6-2-2.8-4.3-3.5-6.9z"/><path class="a" d="m180.6 17.1c4.9 10.7-2.6 19.8-5.4 21-1.9 0.8-4.4-1.9-7.2-1.4-2 0.3-0.8 5.1-3.2 6.2-2.3 1-4.5 1.7-13.1-6q-1.7-1.5-2.9-3 1.3 1.6 3 3.1c8.7 7.7 10.8 7.1 13.2 6 2.3-1 1.2-5.8 3.1-6.1 2.9-0.5 5.3 2.2 7.3 1.4 2.7-1.2 10.2-10.3 5.3-21-1-2.3-2.1-4.1-3.2-5.4 1 1.3 2.1 3 3.1 5.2z"/><path class="a" d="m144.2 13.4c4.6-3.4 12.6 4.4 16.7 3.5 4.1-0.9 0.7-8.3 5.3-11 3.5-2 7.7-2.5 12.2 3-4.6-5.7-8.8-5.2-12.3-3.2-4.7 2.7-1.2 10.1-5.4 11-4.1 0.9-12-6.8-16.6-3.5-4.4 3.3-7.2 11.7 0 20.8-7-9-4.3-17.3 0.1-20.6z"/><path class="f" d="m166.6 9.5c-4.1 2.3-2.2 8.4-5.8 9.2-3.6 0.7-7.9-5.1-11.9-2.2-4 2.8-6.3 9.6-0.5 16.8-5.3-7-3-13.6 0.9-16.4 4-2.8 8.3 3 11.9 2.3 3.6-0.8 1.7-7 5.7-9.2 3.2-1.8 6.9-2.7 10.7 2-3.9-5.3-7.7-4.4-11-2.5z"/><path class="f" d="m183 16.3c-1.4-3-2.9-5.3-4.3-7.1 1.3 1.7 2.6 3.9 3.9 6.6 6.4 13.3-2.5 23.3-5.7 24.6-3.2 1.3-5.9-2.7-8.1-2.3-2.2 0.4-1.5 7.2-4.2 8.5-2.7 1.3-3.1 2.7-16-8.2q-2.9-2.4-4.8-4.9c1.3 1.8 3 3.6 5.1 5.4 13 10.9 13.4 9.5 16.1 8.2 2.7-1.3 1.9-8.1 4.2-8.5 2.2-0.4 4.9 3.6 8.1 2.3 3.2-1.4 12-11.4 5.7-24.6z"/><path class="g" d="m161 14.3c0-0.4-0.3-0.6-0.7-0.6-0.3 0.1-0.6 0.4-0.6 0.7 0.1 0.3 0.4 0.5 0.7 0.5 0.4 0 0.6-0.3 0.6-0.6z"/><path class="b" d="m178.2 42.1c0-0.3-0.3-0.5-0.7-0.5-0.3 0-0.6 0.3-0.6 0.6 0.1 0.4 0.4 0.6 0.7 0.6 0.4-0.1 0.6-0.4 0.6-0.7z"/><path class="b" d="m170.7 39.9c0-0.3-0.3-0.6-0.7-0.5-0.3 0-0.6 0.3-0.6 0.6 0.1 0.3 0.4 0.6 0.7 0.5 0.4 0 0.6-0.3 0.6-0.6z"/><path class="g" d="m158 13.6c0-0.2-0.2-0.3-0.4-0.3-0.2 0-0.3 0.2-0.3 0.3 0 0.2 0.2 0.3 0.4 0.3 0.2 0 0.3-0.1 0.3-0.3z"/><path class="g" d="m184.5 35.7c0-0.2-0.2-0.3-0.4-0.3-0.2 0.1-0.3 0.2-0.3 0.4 0 0.2 0.2 0.3 0.4 0.3 0.1 0 0.3-0.2 0.3-0.4z"/><path class="g" d="m186 30.1c0-0.2-0.2-0.4-0.4-0.3-0.2 0-0.3 0.1-0.3 0.3 0 0.2 0.2 0.3 0.4 0.3 0.2 0 0.3-0.2 0.3-0.3z"/><path class="g" d="m185.4 20c0-0.2-0.2-0.4-0.4-0.3-0.2 0-0.3 0.1-0.3 0.3 0 0.2 0.2 0.3 0.4 0.3 0.2 0 0.3-0.2 0.3-0.3z"/><path class="g" d="m182.6 11.3c0-0.1-0.2-0.3-0.4-0.3-0.2 0.1-0.3 0.2-0.3 0.4 0 0.2 0.2 0.3 0.4 0.3 0.2 0 0.3-0.2 0.3-0.4z"/><path class="g" d="m175.1 4.2c0-0.1-0.2-0.3-0.4-0.3-0.2 0.1-0.3 0.2-0.3 0.4 0 0.2 0.2 0.3 0.4 0.3 0.2 0 0.3-0.2 0.3-0.4z"/><path class="g" d="m170.2 2.3c-0.1-0.2-0.2-0.3-0.4-0.3-0.2 0-0.4 0.2-0.3 0.3 0 0.2 0.2 0.3 0.3 0.3 0.2 0 0.4-0.2 0.4-0.3z"/><path class="g" d="m165.5 5.3c0-0.1-0.1-0.3-0.3-0.2-0.2 0-0.4 0.1-0.4 0.3 0.1 0.2 0.2 0.3 0.4 0.3 0.2 0 0.4-0.2 0.3-0.4z"/><path class="g" d="m164.9 50.3c0-0.2-0.2-0.3-0.4-0.3-0.1 0-0.3 0.2-0.3 0.4 0 0.2 0.2 0.3 0.4 0.3 0.2 0 0.3-0.2 0.3-0.4z"/><path class="g" d="m167.5 49.3c0-0.2-0.2-0.3-0.4-0.3-0.2 0-0.3 0.2-0.3 0.4 0 0.1 0.2 0.3 0.4 0.2 0.2 0 0.3-0.1 0.3-0.3z"/><path class="g" d="m167 46.5c-0.1-0.1-0.2-0.3-0.4-0.3-0.2 0.1-0.4 0.2-0.3 0.4 0 0.2 0.1 0.3 0.3 0.3 0.2 0 0.4-0.2 0.4-0.4z"/><path class="g" d="m159 48.8c-0.1-0.2-0.2-0.3-0.4-0.3-0.2 0-0.4 0.2-0.3 0.3 0 0.2 0.1 0.3 0.3 0.3 0.2 0 0.4-0.2 0.4-0.3z"/><path class="g" d="m156.7 45.9c0-0.1-0.1-0.3-0.3-0.2-0.2 0-0.4 0.1-0.4 0.3 0.1 0.2 0.2 0.3 0.4 0.3 0.2 0 0.4-0.2 0.3-0.4z"/><path class="g" d="m153.3 44.5c0-0.2-0.2-0.3-0.4-0.3-0.2 0-0.3 0.2-0.3 0.4 0 0.2 0.2 0.3 0.4 0.3 0.2 0 0.3-0.2 0.3-0.4z"/><path class="g" d="m148.2 39.2c0-0.2-0.2-0.3-0.4-0.3-0.2 0-0.3 0.2-0.3 0.4 0 0.2 0.2 0.3 0.4 0.3 0.2-0.1 0.3-0.2 0.3-0.4z"/><path class="g" d="m142.5 33.8c0-0.2-0.2-0.3-0.4-0.3-0.2 0-0.3 0.2-0.3 0.4 0 0.1 0.2 0.3 0.4 0.3 0.2-0.1 0.3-0.2 0.3-0.4z"/><path class="g" d="m139 26.7c0-0.2-0.2-0.3-0.4-0.3-0.2 0-0.3 0.2-0.3 0.4 0 0.2 0.2 0.3 0.4 0.3 0.2-0.1 0.3-0.2 0.3-0.4z"/><path class="g" d="m142.1 32.4c0-0.2-0.2-0.3-0.4-0.3-0.2 0-0.3 0.2-0.3 0.3 0 0.2 0.2 0.3 0.4 0.3 0.1 0 0.3-0.1 0.3-0.3z"/><path class="g" d="m161.8 9c0-0.2-0.2-0.3-0.4-0.3-0.2 0-0.3 0.2-0.3 0.4 0 0.2 0.2 0.3 0.4 0.3 0.2-0.1 0.3-0.2 0.3-0.4z"/><path class="g" d="m150.1 11.2c0-0.2-0.2-0.4-0.4-0.3-0.2 0-0.3 0.1-0.3 0.3 0 0.2 0.2 0.3 0.4 0.3 0.2 0 0.3-0.2 0.3-0.3z"/><path class="g" d="m144.9 9.8c-0.1-0.1-0.2-0.3-0.4-0.2-0.2 0-0.4 0.1-0.3 0.3 0 0.2 0.1 0.3 0.3 0.3 0.2 0 0.4-0.2 0.4-0.4z"/><path class="g" d="m154.5 13.3c0-0.2-0.2-0.3-0.4-0.3-0.2 0-0.3 0.2-0.3 0.3 0 0.2 0.2 0.3 0.4 0.3 0.2 0 0.3-0.2 0.3-0.3z"/><path class="g" d="m157.2 11c0-0.2-0.2-0.3-0.4-0.3-0.2 0-0.3 0.2-0.3 0.3 0 0.2 0.2 0.3 0.4 0.3 0.1 0 0.3-0.2 0.3-0.3z"/><path class="g" d="m141.8 12c-0.1-0.2-0.2-0.3-0.4-0.3-0.2 0.1-0.4 0.2-0.3 0.4 0 0.2 0.1 0.3 0.3 0.3 0.2 0 0.4-0.2 0.4-0.4z"/><path class="g" d="m139.8 18.3c0-0.2-0.2-0.3-0.4-0.3-0.2 0-0.3 0.2-0.3 0.3 0 0.2 0.2 0.4 0.4 0.3 0.2 0 0.3-0.1 0.3-0.3z"/><path class="g" d="m138.7 15.4c0-0.2-0.1-0.4-0.3-0.3-0.2 0-0.4 0.1-0.4 0.3 0.1 0.2 0.2 0.3 0.4 0.3 0.2 0 0.4-0.2 0.3-0.3z"/><path class="h" d="m139.9 89.2c-2.5 1-6 0.4-6.2 1.9-0.1 1.5 2.9-1 6.5 3.1 0.6 0.7-0.3-5-0.3-5z"/><path class="h" d="m102.2 92.9c2-1.8 5.4-2.6 5-4.1-0.4-1.4-2.9 2.2-5.8-0.5-0.7-0.6 0.8 4.6 0.8 4.6z"/><path fill-rule="evenodd" class="i" d="m145.8 106.2c-5.1 8.5-12 12.2-19.6 9.8-4 7.2-14.8 9.5-25.3-2.7-8-9.3-6-21.2-1.6-23.8 0 0-9-11.5 2.9-19.7 11.3-7.7 21.7-4.7 23.3 3.7 0 0 6.8-4.6 13.2-3.1 6.7 1.5 7.8 16 3.6 19.4 3.2 1.1 7.6 9.6 3.5 16.4zm-3.2-2.8c4.4-6.6-2-11.7-4.9-13.3 3.7-2.3 4.8-15.5-0.4-16.8-6.2-1.6-13.6 3.3-13.6 3.3-1.3-7.1-9.4-9.2-19-2.6-10 6.9-1.8 16.1-1.8 16.1-3.7 2.2-5.5 12.3 1.4 20.2 8.8 10.2 17.7 8.8 21.1 2.6 6.7 2.2 12.1-2 17.2-9.5z"/><path class="h" d="m144 98c0.3 1.6-0.1 3.4-1.4 5.4-5.1 7.5-10.5 11.7-17.2 9.5-3.4 6.2-12.3 7.6-21.1-2.6-2.5-2.9-3.8-5.9-4.4-8.9q-2.3-1-4.5-2.3c0 4.4 1.5 9.6 5.5 14.2 10.5 12.2 21.3 9.9 25.3 2.7 7.6 2.4 14.5-1.3 19.6-9.8 2.1-3.4 2-7.3 1-10.4q-1.3 1.2-2.8 2.2z"/><path fill-rule="evenodd" class="h" d="m143.7 105.7c-4.7 7.8-11.6 9.7-18.5 7.4-3.7 6.7-13 10.3-22.5-0.8-7.4-8.5-3.4-19.3 0.7-21.7 0 0-10.4-10.6 0.4-18.1 10.4-7.1 18.6-0.3 20.8 4.1 0 0 6.8-4.9 12.6-3.6 6.1 1.4 4.7 14.7 0.9 17.8 2.9 0.9 9.3 8.7 5.6 14.9zm-2.9-2.5c3.9-6-1.9-10.7-4.6-12.2 2.9-2.4 4.4-14.2-0.3-15.3-5.7-1.4-12.5 3-12.5 3-1.1-6.5-8.5-8.4-17.3-2.3-9.1 6.2-1.6 14.7-1.6 14.7-3.4 2-5 11.2 1.2 18.4 8.1 9.3 16.2 8 19.3 2.4 6.1 2 11.1-1.8 15.8-8.7z"/><path fill-rule="evenodd" class="j" d="m144.2 105.4c-4.8 7.9-11.9 9.9-19 7.6-3.7 6.8-13.2 10.4-23-0.9-7.5-8.7-3.4-19.7 0.7-22.2 0 0-9.5-10 1.5-17.6 10.6-7.3 18-1.1 20.2 3.3 0 0 7-5 12.9-3.6 6.2 1.4 4.8 15 0.9 18.1 3 1 9.6 9 5.8 15.3zm-3-2.6c4-6.1-1.9-10.9-4.7-12.4 3.5-2.2 4.5-14.5-0.3-15.7-5.8-1.5-12.7 3.1-12.7 3.1-1.2-6.7-8.8-8.6-17.7-2.4-9.4 6.4-1.7 15-1.7 15-3.5 2.1-5.1 11.5 1.2 18.8 8.3 9.6 16.6 8.2 19.8 2.5 6.2 2 11.3-1.9 16.1-8.9z"/><path class="h" d="m127.9 114.9c-1.8-2-1.9-7-3.4-6.6-1.4 0.4 1.5 4.4-1.2 7.3-0.7 0.7 4.6-0.7 4.6-0.7z"/><path class="i" d="m140.6 87.6c-2.1 1.7-7.1 1.7-6.7 3.1 0.3 1.5 4.5-1.4 7.3 1.5 0.6 0.6-0.6-4.6-0.6-4.6z"/><path class="i" d="m123.1 73.5c1.2 2.5-0.6 7.4 0.9 7.4 1.5 0-0.3-4.6 3.1-6.8 0.8-0.4-4-0.6-4-0.6z"/><path class="i" d="m100.9 91.9c2-1.8 6.9-2 6.5-3.5-0.4-1.5-4.4 1.6-7.4-1.1-0.7-0.6 0.9 4.6 0.9 4.6z"/><path class="k" d="m111.9 66.3c-0.3-0.3-5.7 0.4-9.7 3.5-4.1 3.1-5.4 7.3-5.1 7.7 0.3 0.4 1.9-3.7 6-6.7 4.1-3.1 9.1-4.1 8.8-4.5z"/><path class="h" d="m224.8 173.1c-1.9 0.7-4.5 0.3-4.6 1.5-0.1 1.1 2.1-0.8 4.9 2.3 0.4 0.5-0.3-3.8-0.3-3.8z"/><path class="h" d="m196.2 175.9c1.6-1.4 4.2-2 3.9-3.1-0.4-1.1-2.2 1.7-4.5-0.3-0.5-0.5 0.6 3.4 0.6 3.4z"/><path fill-rule="evenodd" class="i" d="m229.3 186c-3.9 6.4-9.1 9.2-14.9 7.4-3 5.5-11.2 7.2-19.1-2-6.1-7.1-4.6-16.1-1.2-18.1 0 0-6.8-8.7 2.1-14.9 8.6-5.9 16.5-3.6 17.7 2.8 0 0 5.2-3.5 10-2.3 5.1 1.1 5.9 12.1 2.8 14.7 2.3 0.8 5.7 7.2 2.6 12.4zm-2.4-2.2c3.3-4.9-1.5-8.8-3.8-10 2.9-1.8 3.7-11.8-0.3-12.8-4.6-1.1-10.3 2.6-10.3 2.6-0.9-5.4-7.1-7-14.3-2-7.6 5.2-1.4 12.2-1.4 12.2-2.8 1.7-4.1 9.3 1 15.3 6.7 7.7 13.5 6.6 16 2 5.1 1.6 9.2-1.5 13.1-7.3z"/><path class="h" d="m228 179.8c0.1 1.2-0.1 2.6-1.1 4-3.9 5.8-8 8.9-13.1 7.3-2.5 4.6-9.3 5.7-16-2-1.8-2.2-2.8-4.5-3.3-6.7q-1.8-0.8-3.4-1.8c0 3.3 1.2 7.3 4.2 10.8 7.9 9.2 16.1 7.5 19.1 2 5.8 1.8 11-1 14.9-7.4 1.6-2.6 1.5-5.5 0.7-7.9q-0.9 0.9-2 1.7z"/><path fill-rule="evenodd" class="h" d="m227.7 185.6c-3.6 5.9-8.8 7.4-14 5.6-2.8 5.1-9.8 7.8-17.1-0.6-5.6-6.4-2.5-14.6 0.5-16.5 0 0-7.8-8 0.4-13.6 7.8-5.4 14-0.3 15.7 3 0 0 5.2-3.7 9.6-2.6 4.6 1 3.5 11.1 0.6 13.4 2.2 0.7 7.1 6.6 4.3 11.3zm-2.2-1.9c3-4.5-1.4-8.1-3.5-9.2 2.2-1.9 3.4-10.8-0.2-11.7-4.3-1-9.5 2.4-9.5 2.4-0.8-5-6.4-6.4-13.1-1.8-6.9 4.7-1.2 11.1-1.2 11.1-2.6 1.6-3.8 8.5 0.9 14 6.2 7.1 12.3 6.1 14.6 1.8 4.7 1.5 8.5-1.4 12-6.6z"/><path fill-rule="evenodd" class="j" d="m228.1 185.4c-3.7 6-9 7.5-14.4 5.7-2.8 5.2-10 7.9-17.4-0.7-5.7-6.5-2.6-14.9 0.5-16.8 0 0-7.2-7.5 1.2-13.3 8-5.5 13.5-0.9 15.2 2.5 0 0 5.3-3.8 9.8-2.7 4.7 1.1 3.7 11.3 0.7 13.7 2.2 0.8 7.2 6.8 4.4 11.6zm-2.3-2c3.1-4.6-1.5-8.2-3.5-9.4 2.6-1.6 3.4-11-0.3-11.9-4.4-1.1-9.6 2.4-9.6 2.4-0.9-5.1-6.6-6.5-13.4-1.9-7.1 4.9-1.3 11.4-1.3 11.4-2.7 1.6-3.9 8.7 0.9 14.3 6.3 7.2 12.6 6.2 15 1.8 4.7 1.6 8.6-1.4 12.2-6.7z"/><path class="h" d="m215.7 192.6c-1.4-1.6-1.4-5.3-2.5-5-1.1 0.3 1.1 3.3-1 5.5-0.5 0.5 3.5-0.5 3.5-0.5z"/><path class="i" d="m225.4 171.9c-1.6 1.3-5.4 1.2-5.1 2.4 0.2 1.1 3.4-1.1 5.5 1.1 0.5 0.5-0.4-3.5-0.4-3.5z"/><path class="i" d="m212.1 161.2c0.9 1.9-0.5 5.6 0.7 5.6 1.1 0-0.3-3.5 2.3-5.1 0.6-0.4-3-0.5-3-0.5z"/><path class="i" d="m195.2 175.2c1.6-1.5 5.3-1.6 5-2.7-0.3-1.1-3.3 1.2-5.6-0.8-0.5-0.5 0.6 3.5 0.6 3.5z"/><path class="k" d="m203.6 155.8c-0.2-0.3-4.3 0.3-7.4 2.6-3.1 2.4-4 5.6-3.8 5.8 0.2 0.3 1.4-2.7 4.5-5.1 3.1-2.3 6.9-3 6.7-3.3z"/><path fill-rule="evenodd" class="l" d="m80.2 181.6c2.6 6.6-0.6 17.3-14.3 17.7-10.5 0.3-17.3-7.4-16.6-11.8 0 0-12.7-4.6-11.7-16.8 1-11.7 13.4-18.5 19.9-14.9 0 0 13.4-11.1 22.6 0.4 9.2 11.5 8 20.3 0.1 25.4zm-2.6-22.5c-7.8-9.6-19-0.3-19-0.3-5.4-3-15.8 2.7-16.7 12.5-0.8 10.3 9.8 14.1 9.8 14.1-0.5 3.6 5.1 10.2 13.9 9.9 11.5-0.3 14.3-9.3 12.1-14.8 6.6-4.3 7.7-11.7-0.1-21.4z"/><path fill-rule="evenodd" class="m" d="m80.6 181.5c2.6 6.5-0.7 17.3-14.3 17.7-10.5 0.3-17.3-7.5-16.6-11.8 0 0-12.7-4.6-11.7-16.8 1-11.7 13.4-18.5 19.8-14.9 0 0 13.5-11.1 22.7 0.4 9.2 11.5 8 20.3 0.1 25.4zm-2.6-22.5c-7.8-9.7-19.1-0.4-19.1-0.4-5.3-3-15.8 2.7-16.6 12.6-0.9 10.2 9.8 14 9.8 14-0.6 3.7 5.1 10.2 13.9 10 11.5-0.4 14.3-9.4 12-14.9 6.7-4.3 7.7-11.7 0-21.3z"/><path fill-rule="evenodd" class="n" d="m78.9 180.7c2.4 5.8-0.5 15.4-12.7 15.7-9.3 0.3-15.3-6.6-14.7-10.5 0 0-11.3-4-10.3-14.9 0.8-10.4 11.9-16.4 17.5-13.2 0 0 12-9.9 20.2 0.3 8.2 10.2 7.1 18.1 0 22.6zm-2.3-20c-6.8-8.6-16.9-0.3-16.9-0.3-4.7-2.7-14 2.4-14.7 11.1-0.8 9.1 8.6 12.5 8.6 12.5-0.4 3.3 4.6 9.1 12.4 8.8 10.2-0.2 12.7-8.3 10.7-13.2 5.9-3.8 6.8-10.3-0.1-18.9z"/><path class="o" d="m80.6 156.1c-9.2-11.5-22.6-0.4-22.6-0.4-2.7-1.5-6.3-1.2-9.7 0.4q1.8 1.1 3.7 2.5c2.5-1 5.1-1 7.1 0 0 0 11.3-9.3 19 0.4 7.8 9.6 6.7 17.1 0.1 21.3 2.1 5.2-0.2 13.3-9.7 14.7q-0.4 2.2-1.2 4.1c12.9-0.8 16-11.2 13.4-17.6 7.9-5.1 9.2-13.9-0.1-25.4z"/><path fill-rule="evenodd" class="p" d="m79.5 180.9c2.4 6.1-0.6 16-13.2 16.3-9.7 0.3-15.9-6.8-15.3-10.9 0 0-11.7-4.2-10.7-15.4 0.9-10.8 12.3-17.1 18.2-13.8 0 0 12.4-10.2 20.9 0.4 8.5 10.6 7.4 18.7 0.1 23.4zm-2.4-20.7c-7.2-8.9-17.6-0.3-17.6-0.3-4.9-2.8-14.5 2.4-15.3 11.5-0.8 9.5 9 13 9 13-0.5 3.4 4.7 9.4 12.9 9.1 10.6-0.3 13.1-8.6 11-13.6 6.2-4 7.1-10.8 0-19.7z"/><path class="n" d="m56.1 159c2.2 2.9 0.8 9.7 4 9.2 2-0.3 0.5-10.6 0.2-11-3.1 2.2-4.2 1.8-4.2 1.8z"/><path class="q" d="m56.3 159c1.9 2.4 1.7 8.1 3.4 7.7 1.7-0.4-1-8.7 2.3-11.8-4.7 2.5-5.7 4.1-5.7 4.1z"/><path class="n" d="m53.3 187.7c0.9-3.6 6.3-7.6 4.8-8.9-1.6-1.3-3.8 5.1-9.1 4.3-1.3-0.2 4.3 4.6 4.3 4.6z"/><path class="q" d="m53 187.4c0.7-3 5.3-6.3 4-7.4-1.3-1.1-3.1 4.3-7.6 3.6-1.1-0.1 3.6 3.8 3.6 3.8z"/><path class="n" d="m79.4 177.8c-3.3 1.3-9.3-1.3-9.5 0.7-0.3 2 5.6 0.8 7.6 5.9-0.6-3.9 1.9-6.6 1.9-6.6z"/><path class="p" d="m79.4 178.6c-2.8 0.8-7.7-1.4-8 0.2-0.3 1.6 5 0.6 6.6 4.6 0.4 0.9 1.4-4.8 1.4-4.8z"/><path class="q" d="m71.6 192.4c-1.5 0.7-3.4 1.1-5.5 1.1-8.2 0.3-13.4-5.7-12.9-9.1 0 0-9.8-3.5-9-13 0.7-8.4 9-13.5 14.2-12q0.5-1.6 1.3-3.1c-0.8 0.5-1.2 0.8-1.2 0.8-5.9-3.3-17.3 3-18.2 13.8-1 11.2 10.7 15.4 10.7 15.4-0.6 4.1 5.6 11.2 15.3 10.9 4.1-0.1 7.2-1.2 9.5-2.9q-2.2-0.8-4.2-1.9z"/><path fill-rule="evenodd" class="l" d="m91.8 41.7c-1.6 7.2-10.8 14.3-22.6 6.5-9.1-6-10.2-16.6-7-19.9 0 0-8-11.4 0.1-21.1 7.8-9.4 22.4-7.7 25.7-0.9 0 0 18-1.3 18.9 13.9 1 15.2-5.3 21.9-15.1 21.5zm11.3-20.6c-0.8-12.8-15.9-11.6-15.9-11.6-2.8-5.8-15-7.1-21.6 0.7-6.8 8.1-0.1 17.7-0.1 17.7-2.7 2.8-1.7 11.7 5.9 16.7 9.9 6.6 17.6 0.6 19-5.4 8.2 0.4 13.5-5.3 12.7-18.1z"/><path fill-rule="evenodd" class="m" d="m92.2 41.8c-1.6 7.2-10.8 14.3-22.6 6.5-9.1-6-10.2-16.6-7-19.9 0 0-8-11.4 0.1-21.1 7.9-9.4 22.4-7.7 25.7-0.9 0 0 18-1.3 18.9 13.9 1 15.2-5.3 21.9-15.1 21.5zm11.3-20.6c-0.8-12.8-15.9-11.6-15.9-11.6-2.8-5.8-15-7.1-21.6 0.7-6.8 8.2-0.1 17.7-0.1 17.7-2.6 2.8-1.7 11.7 5.9 16.7 9.9 6.6 17.6 0.6 19-5.4 8.2 0.4 13.5-5.3 12.7-18.1z"/><path fill-rule="evenodd" class="n" d="m91.3 40.2c-1.4 6.3-9.6 12.7-20.1 5.7-8-5.3-9-14.7-6.2-17.7 0 0-7.1-10.1 0.1-18.7 7-8.3 19.9-6.8 22.8-0.8 0 0 16-1.2 16.8 12.4 0.9 13.5-4.7 19.4-13.4 19.1zm10-18.3c-0.7-11.4-14.1-10.3-14.1-10.3-2.5-5.2-13.3-6.4-19.1 0.6-6.1 7.2-0.2 15.7-0.2 15.7-2.3 2.5-1.5 10.4 5.3 14.9 8.8 5.8 15.6 0.5 16.9-4.8 7.2 0.3 11.9-4.7 11.2-16.1z"/><path class="o" d="m107.4 20.4c-0.9-15.2-18.9-13.9-18.9-13.9-1.4-2.8-4.6-4.7-8.5-5.4q1 2.1 1.7 4.3c2.7 0.7 5 2.2 6 4.3 0 0 15.1-1.2 15.9 11.6 0.8 12.8-4.5 18.5-12.7 18.1-1.3 5.6-8.1 11.2-17 6.6q-1.6 1.7-3.4 2.9c11.4 7 20.2 0 21.8-7 9.8 0.4 16.1-6.3 15.1-21.5z"/><path fill-rule="evenodd" class="p" d="m91.6 40.7c-1.5 6.6-10 13.2-20.8 5.9-8.4-5.5-9.4-15.3-6.5-18.3 0 0-7.4-10.5 0.1-19.5 7.3-8.6 20.7-7 23.7-0.7 0 0 16.6-1.3 17.4 12.8 0.9 14-4.9 20.2-13.9 19.8zm10.4-19c-0.8-11.8-14.7-10.7-14.7-10.7-2.5-5.3-13.8-6.6-19.8 0.6-6.3 7.6-0.1 16.4-0.1 16.4-2.5 2.5-1.6 10.7 5.4 15.4 9.1 6 16.2 0.5 17.5-5 7.5 0.3 12.4-4.9 11.7-16.7z"/><path class="n" d="m84.9 8.2c0.2 3.8-5 8.7-2.1 10.2 1.9 1 6.8-8.7 6.8-9.3-4 0.2-4.7-0.9-4.7-0.9z"/><path class="q" d="m85.1 8.4c0.2 3.1-3.3 7.8-1.7 8.5 1.7 0.7 4.3-8 9-8.7-5.5-0.7-7.3 0.2-7.3 0.2z"/><path class="n" d="m65.5 30.8c2.9-2.5 9.9-2.6 9.3-4.7-0.6-2-6.2 2.2-10.3-1.7-0.9-0.9 1 6.4 1 6.4z"/><path class="q" d="m65.4 30.4c2.4-2.1 8.2-2.2 7.8-3.9-0.5-1.7-5.2 1.8-8.6-1.4-0.8-0.8 0.8 5.3 0.8 5.3z"/><path class="n" d="m93.4 37.9c-3.5-0.8-7-6.5-8.4-4.9-1.4 1.5 4.2 4 2.9 9.4 1.8-3.6 5.5-4.5 5.5-4.5z"/><path class="p" d="m93 38.7c-2.9-1-5.8-5.8-6.9-4.6-1.2 1.2 3.9 3.4 2.8 7.8-0.2 1 4.1-3.2 4.1-3.2z"/><path class="q" d="m78.1 45.8c-1.6-0.4-3.4-1.2-5.3-2.4-7-4.7-7.9-12.9-5.4-15.4 0 0-6.2-8.8 0.1-16.4 5.6-6.7 15.7-6 19.1-1.7q1.5-1 3-1.8c-0.9-0.1-1.5 0-1.5 0-3-6.3-16.4-7.9-23.7 0.7-7.5 9-0.1 19.5-0.1 19.5-2.9 3-1.9 12.8 6.5 18.3 3.5 2.4 6.9 3.3 9.8 3.2q-1.4-1.9-2.5-4z"/><path fill-rule="evenodd" class="j" d="m236.5 107.4c-10.5 13.9-18.6 15.5-23.6 13.3-3.1-1.4-0.3-5.1-5.3-8-2-1.1-4 3.4-11 0.8-5.8-2.2-7-9.4-5.5-19.3 1-7.3 8.4-26.2 15.9-23.2 13.4 5.5 11.2 9.5 14 13.4 2.5 3.4 3.4-6.9 17.9 1.7 1.1 0.7 8.8 6.4-2.4 21.3zm-1.7-17.3c-7-4.3-12.2 1.9-16.4 0.4-4-1.4 1-8.9-9.4-13-4-1.5-11.7 10.9-13.1 16.9-2 8.4-2.1 11.8 3 13.5 4.1 1.5 8.5-0.8 10.2 0.1 4.4 2.5 3.3 8.1 6 9.3 4.4 1.9 8.8 0.4 18.3-11.3 6.4-7.9 3-14.9 1.4-15.9z"/><path fill-rule="evenodd" class="i" d="m236.8 108.1c-10.4 13.9-18.6 15.5-23.6 13.3-3.1-1.3-0.3-5.1-5.3-7.9-2-1.2-4 3.3-11 0.7-5.8-2.2-6.9-9.4-5.5-19.3 1-7.3 8.4-26.2 15.9-23.2 13.4 5.5 10.6 9.5 13.4 13.4 2.5 3.4 4-6.9 18.5 1.7 1.2 0.7 8.8 6.4-2.4 21.3zm-1.7-17.3c-7-4.3-12.2 1.9-16.4 0.4-3.9-1.4 1-8.9-9.4-13-3.9-1.5-11.7 10.9-13.1 16.9-2 8.4-2.1 11.8 3 13.5 4.1 1.5 8.5-0.8 10.3 0.1 4.3 2.5 3.3 8.2 5.9 9.3 4.4 1.9 8.9 0.4 18.3-11.3 6.4-7.9 3.1-14.9 1.4-15.9z"/><path class="r" d="m239.6 87.1q-1.2 2.6-2.9 5-0.2 0.2-0.3 0.4c1.3 2.8 2 8.2-2.8 14.2-9.5 11.7-13.9 13.2-18.3 11.3-2.6-1.2-1.6-6.9-6-9.3-1.7-1-6.1 1.3-10.2-0.1-4.1-1.4-4.9-3.9-3.9-9.3q-2.3-2.2-3.9-4.8 0 0.1 0 0.3c-1.5 9.9-0.3 17.1 5.5 19.3 7 2.6 9-1.8 11-0.7 5 2.8 2.2 6.6 5.3 7.9 5 2.2 13.1 0.7 23.6-13.2 10.2-13.6 4.8-19.5 2.9-21z"/><path fill-rule="evenodd" class="j" d="m234.7 107.3c-8.9 11.9-16 13.1-20.4 11.1-2.7-1.3 0.2-7.1-4.3-9.6-1.7-1-3.9 4.5-10 2.1-5.1-2-6.3-7.4-5.2-15.9 0.8-6.3 7-22.6 13.7-19.8 11.7 4.9 8.5 11 11.1 14.4 2.2 3 4.1-8.5 17-0.7 1 0.6 7.8 5.6-1.9 18.4zm-1.7-15.1c-6.2-3.8-10.7 2.1-14.3 0.7-3.5-1.2 0.7-8.3-8.4-12.1-3.5-1.4-10.1 9.2-11.3 14.4-1.6 7.3-1.6 10.2 2.8 11.9 3.6 1.3 7.5-0.7 9 0.2 3.9 2.2 3 7.1 5.4 8.2 3.8 1.7 7.7 0.5 15.8-9.5 5.5-6.7 2.5-12.9 1-13.8z"/><path fill-rule="evenodd" class="s" d="m235.1 108.1c-9.2 12-16.6 13.3-21.1 11.2-2.8-1.2 0.2-7.1-4.4-9.6-1.8-1-4.1 4.5-10.4 2-5.3-1.9-6.5-7.3-5.3-16 0.8-6.3 7.2-22.8 14.1-19.9 12.1 5 8.8 11.1 11.5 14.5 2.2 3 4.2-8.5 17.5-0.7 1 0.6 8 5.7-1.9 18.5zm-1.8-15.1c-6.4-3.9-11 2-14.8 0.7-3.6-1.3 0.8-8.5-8.6-12.2-3.7-1.5-10.4 9.3-11.7 14.5-1.7 7.3-1.6 10.3 2.9 11.9 3.7 1.3 7.7-0.6 9.3 0.3 4 2.2 3.1 7.1 5.5 8.2 4 1.8 8 0.5 16.4-9.5 5.7-6.8 2.5-13 1-13.9z"/><path class="j" d="m235.1 101.6c-0.5 1.5-1.4 3.2-2.8 4.8-8.3 10.1-12.4 11.3-16.3 9.6-2.4-1.1-1.6-6-5.5-8.3-1.6-0.8-5.6 1.1-9.3-0.2-4.2-1.5-4.6-4.2-3.3-10.3q-2-0.9-4-1.9c-1.1 8.7 0.1 14 5.3 16 6.4 2.4 8.6-3 10.4-2 4.6 2.5 1.6 8.4 4.4 9.6 4.6 2 11.9 0.8 21.1-11.2 2.2-2.7 3.5-5.2 4.3-7.2q-2.1 0.6-4.3 1.1z"/><path class="r" d="m206.6 110.9c1.6-1.4 3.9-5.6 5.4-4.9 1.6 0.6 0.3 8 0.3 8z"/><path class="i" d="m222.4 88.7c-1 1.1-2.3 4-3.4 3.7-1.1-0.4-0.6-5.4-0.6-5.4z"/><path fill-rule="evenodd" class="j" d="m143.7 205.9c6.4 16.2 3.4 23.9-1.1 27.1-2.7 1.9-4.5-2.5-9.5 0.3-2 1.1 0.7 5.2-5.2 9.8-4.8 3.7-11.6 1-19.3-5.4-5.6-4.7-17.9-21-11.4-25.8 11.7-8.5 14-4.5 18.8-4.9 4.2-0.3-4.1-6.4 10.8-14.3 1.2-0.6 10-4.2 16.9 13.2zm-15.6-7.6c-7.4 3.7-4.9 11.4-8.3 14.2-3.3 2.6-7.1-5.6-16 1.1-3.4 2.6 3.1 15.7 7.5 20 6.1 6.2 9 8 13.1 4.6 3.4-2.7 3.8-7.7 5.5-8.7 4.3-2.4 8.6 1.4 11-0.2 3.9-2.7 5-7.3 0-21.5-3.4-9.6-11.1-10.4-12.8-9.5z"/><path fill-rule="evenodd" class="i" d="m144.5 206c6.3 16.2 3.4 23.9-1.1 27.1-2.8 1.9-4.5-2.5-9.6 0.3-1.9 1.1 0.8 5.2-5.1 9.8-4.8 3.7-11.6 1-19.3-5.4-5.7-4.7-17.9-21-11.4-25.8 11.7-8.5 13.6-4 18.4-4.4 4.2-0.3-3.8-6.9 11.2-14.8 1.2-0.6 10-4.2 16.9 13.2zm-15.7-7.6c-7.3 3.7-4.8 11.4-8.2 14.2-3.3 2.6-7.1-5.6-16 1.1-3.4 2.6 3.1 15.7 7.5 20 6.1 6.2 9 8 13.1 4.6 3.3-2.7 3.7-7.7 5.4-8.7 4.4-2.4 8.7 1.5 11.1-0.2 3.9-2.7 5-7.3 0-21.5-3.4-9.6-11.2-10.4-12.9-9.5z"/><path class="r" d="m128 192.6q1.6 2.4 2.7 5.1 0.1 0.3 0.2 0.5c3.1 0.3 8.1 2.5 10.6 9.8 5 14.1 4 18.8 0.1 21.4-2.4 1.7-6.7-2.2-11.1 0.3-1.7 0.9-2.1 5.9-5.4 8.7-3.4 2.7-5.9 2-10-1.5q-3 0.7-6.1 0.7 0.1 0.1 0.3 0.2c7.7 6.4 14.4 9.2 19.3 5.4 5.9-4.6 3.1-8.6 5.1-9.7 5.1-2.9 6.8 1.5 9.6-0.4 4.5-3.1 7.4-10.9 1-27-6.2-15.8-14-14.4-16.3-13.5z"/><path fill-rule="evenodd" class="j" d="m142.7 207.3c5.4 13.9 2.7 20.5-1.3 23.2-2.5 1.7-5.9-3.8-10.4-1.3-1.8 0.9 1.7 5.6-3.5 9.6-4.4 3.3-9.5 1.5-16.2-3.9-5-4-15.6-17.8-9.8-22 10.4-7.4 13.9-1.6 18.2-2 3.7-0.3-5.1-7.9 8.2-14.8 1-0.5 8.9-3.7 14.8 11.2zm-13.8-6.4c-6.5 3.2-3.8 10.2-6.9 12.6-2.9 2.3-6.7-5-14.7 0.8-3 2.2 2.6 13.4 6.4 17.1 5.3 5.2 7.8 6.8 11.5 3.8 3-2.4 3.4-6.7 5-7.5 3.8-2.1 7.6 1.2 9.7-0.3 3.5-2.3 4.5-6.3 0.3-18.4-2.9-8.3-9.7-8.9-11.3-8.1z"/><path fill-rule="evenodd" class="s" d="m143.6 207.5c5.3 14.1 2.5 21-1.6 23.8-2.5 1.8-5.9-3.9-10.5-1.3-1.8 1 1.7 5.8-3.7 10-4.4 3.4-9.6 1.6-16.4-3.9-4.9-4.1-15.6-18.1-9.6-22.5 10.6-7.7 14.1-1.7 18.4-2.1 3.8-0.4-5.1-8.2 8.5-15.4 1.1-0.5 9.1-3.8 14.9 11.4zm-13.9-6.5c-6.7 3.4-4 10.5-7.2 13-2.9 2.4-6.7-5.1-14.9 1-3.1 2.3 2.5 13.7 6.3 17.5 5.4 5.3 7.9 6.8 11.7 3.8 3.1-2.5 3.5-6.9 5.1-7.8 3.9-2.2 7.7 1.1 9.9-0.4 3.5-2.4 4.6-6.5 0.4-18.9-2.8-8.4-9.7-9-11.3-8.2z"/><path class="j" d="m138 204c1 1.3 2 2.9 2.7 4.9 4.2 12.4 3.1 16.5-0.4 18.9-2.2 1.6-6-1.8-10 0.4-1.5 0.9-2 5.3-5 7.8-3.5 2.8-6 1.7-10.5-2.6q-1.8 1.3-3.7 2.4c6.8 5.5 12 7.3 16.4 3.9 5.4-4.2 1.9-8.9 3.7-10 4.6-2.5 8 3.1 10.5 1.3 4.1-2.8 6.9-9.7 1.5-23.8-1.2-3.2-2.6-5.7-3.9-7.4q-0.5 2.1-1.3 4.2z"/><path class="r" d="m131 233.2c-0.4-2.1-2.8-6.3-1.4-7.2 1.4-1 7 3.9 7 3.9z"/><path class="i" d="m120.4 208.1c0.4 1.4 2.2 4.1 1.3 4.8-0.9 0.7-4.9-2.3-4.9-2.3z"/></svg>