<svg version="1.2" xmlns="http://www.w3.org/2000/svg" viewBox="0 0 110 104" width="110" height="104"><style>.a{fill:#f2edd7}.b{fill:#e8ddc1}.c{opacity:.7;fill:#f2edd7}.d{fill:#fcf5e0}.e{opacity:.6;fill:#e8ddc1}.f{opacity:.5;fill:#e8ddc1}.g{opacity:.5;mix-blend-mode:overlay;fill:#f2b8c3}</style><path class="a" d="m71.2 13.2c-5.6-4.6-9.2-12.9-4.2-12.6 5.1 0.2 19.6 5.5 30.4 22z"/><path class="b" d="m70.8 14.6c-5.5-4.6-9.2-12.9-4.1-12.7 5 0.3 19.5 5.5 30.3 22.1z"/><path class="b" d="m105.2 60c1.7-5 2.8-11.9 0.9-20.4-6-25.4-24.9-32.9-36.3-34.2-4-1.2-8.2-2-12.5-2.3-11-0.7-21.3 2.2-29.8 7.6-4.7 1.8-13.3 6.3-19.1 17.7-12.2 24-1.5 42.2 6.5 50.2q2.8 4.1 6.4 7.6c2.3 3.8 9 12.5 23.5 16 27.9 6.6 43.8-8.4 49.7-17.8 5.7-6.8 9.6-15.1 10.7-24.4z"/><path class="c" d="m62.8 102.4c-7.1 0.4-22.5-2.5-19.4-5.6 3.2-3.2 17.4-3.8 23.1-5.2 5.6-1.3 23.8-8.9 26.1-8.9 2.3 0-6.9 18.5-29.8 19.7z"/><path class="a" d="m106.1 39.6c-6-25.4-24.9-32.9-36.3-34.2-4-1.2-8.2-2-12.5-2.3-11-0.7-21.3 2.2-29.8 7.6-1.5 0.6-3.3 1.4-5.3 2.6-8.4 7.6-13.5 17.6-13.5 28.6 0 23.6 20.1 48.3 49.1 48.3 17.6 0 36.5-12.6 46.1-23.4q0.9-3.3 1.3-6.8c1.7-5 2.8-11.9 0.9-20.4z"/><path class="d" d="m100.4 35.4c-5.5-21-22.7-27.1-33.1-28.2-3.6-1-7.4-1.7-11.3-1.9-10.1-0.6-19.4 1.8-27.1 6.3-1.3 0.4-3 1.1-4.8 2.1-7.6 6.2-12.3 14.5-12.2 23.6 0.1 19.4 19.3 29.7 45.7 29.7 27.2 0 41.5-10.4 42.1-14.9 1.5-4 2.5-9.7 0.7-16.7z"/><path class="a" d="m23 63.6c-1.1 4.3 4.8 18 9.4 22.6 0 0-8.8-14.4-3.1-17.8z"/><path class="d" d="m70.4 60.5h0.2-0.3z"/><path class="d" d="m70.7 60.4l-0.2 0.1z"/><path class="d" d="m38.5 69.5l-0.4-0.3 0.1-0.2z"/><path class="d" d="m76.9 77.4h-0.1l0.1-0.2 0.1 0.1z"/><path class="d" d="m39.7 70.3l-0.1 0.1-0.1-0.3z"/><path class="d" d="m79.3 75.9l0.2 0.1-1 0.5z"/><path class="d" d="m38.5 74.2l-0.8-0.1 0.3-0.5z"/><path class="d" d="m58.7 61.1v-0.1l-0.3 1.8 0.2-1.9z"/><path class="d" d="m71.9 52.6l0.1 0.2-0.6 0.9-1-1.5 1.2-0.9z"/><path class="d" d="m57.2 63.3h-0.4z"/><path class="d" d="m58.6 63.6l-0.2 0.2 0.1-0.5z"/><path class="d" d="m58.5 63.6v-0.1z"/><path class="d" d="m59.6 63.6v-0.1z"/><path class="d" d="m51.4 71.8l-0.3-0.2h0.2z"/><path class="d" d="m51.4 73.5l-0.3 0.6-0.3-1.7z"/><path class="d" d="m53.8 75.5l0.4 0.2 0.2-0.4 0.3 1.8-1.4-0.7h0.2l0.1-0.9z"/><path class="d" d="m51.3 79.4l-0.9-1z"/><path class="d" d="m51 79.1l-0.3 0.1 0.1-0.3-0.1 0.3z"/><path class="d" d="m90.4 63.1l0.3-0.2-1.3 3.2z"/><path class="d" d="m51.4 80.9v-0.2l0.2 0.1z"/><path class="d" d="m52.6 82.4v0.3l-0.4 0.2-0.6-0.9h-0.1 0.2l-0.1-0.3z"/><path class="d" d="m52.1 82.4l-0.2-0.3z"/><path class="d" d="m52.7 83.8l1 0.6-0.1 0.5-1.4-1.1z"/><path class="d" d="m53.1 84l-0.1 0.1z"/><path class="d" d="m51 98.3v0.3l-2.6-0.9z"/><path class="d" d="m68.6 90h0.3l-1 0.9v-0.1l-0.4-0.1z"/><path class="d" d="m61.6 91.4h-0.4z"/><path class="d" d="m75.7 87.2v-0.1l-0.3 0.1 1.8-1-1.1 1.2 0.1-0.1h-0.8z"/><path class="d" d="m81.7 85.5l1-0.4-0.8 1.1z"/><path class="d" d="m83.9 85.9l-0.3-0.2 0.4-0.1-0.5 0.5z"/><path class="d" d="m58 59.7l-0.3-0.4z"/><path class="d" d="m87.8 82.4l1.1-0.6-0.7 1.3z"/><path class="d" d="m96.6 73.8l1-1.8v1.7l-0.7 0.5z"/><path class="d" d="m71.7 67.7v-0.1h0.1l-0.2 0.1z"/><path class="d" d="m100.6 72.8l-0.3-0.1 1.3-1.8v2l-0.1-0.1-0.6 0.4-0.3 0.3z"/><path class="d" d="m72.1 67l0.1 0.4-0.2 0.2-0.1-0.2h0.3l-0.2-0.2-0.3 0.2-0.2 0.1z"/><path class="d" d="m79.7 64.7h0.3z"/><path class="d" d="m97.1 63.3h0.2l0.1 0.2-0.4 0.2z"/><path class="d" d="m79.3 60.5v-0.1h0.2z"/><path class="d" d="m79.4 60.3l0.2-0.1-0.3-0.1h0.1-0.3l0.2 0.2v0.1l-0.1-0.5 0.3-0.1v0.5z"/><path class="d" d="m79.7 60.1l-0.2-0.1z"/><path class="d" d="m94.8 46.4l0.5-0.7 1.1 1.3-0.3-0.1 0.2 0.7-0.3-0.2v0.4z"/><path class="d" d="m84.7 56.5v-0.9l0.8 0.6z"/><path class="d" d="m84.7 56v0.2l-0.2-0.1 0.5-0.2 0.3 0.4z"/><path class="d" d="m84.9 55.9l0.3 0.1-0.1 0.1v-0.1l-0.2 0.2z"/><path class="d" d="m98.3 49.2l0.3-0.2 0.6 1-0.4-0.5v0.7z"/><path class="d" d="m82.1 55.6h0.4l-0.2 0.1h0.4l-0.1 0.2v-0.1h-0.1v-0.1l-0.3 0.1 0.2 0.3z"/><path class="d" d="m79.3 33.7l1-0.1-0.8 0.5 1.1-0.3-1.6 1.2 0.3 0.2-1.4 1.1h0.3l-5.9 1.9 3.9-5.4-0.2 0.3 0.2 0.1 0.6-0.8-0.1 0.9 0.9-0.5-0.3 0.3 3-0.3z"/><path class="d" d="m83.1 52.8l0.2-0.1v-0.4l-0.3 0.1 0.1 0.3-0.3-0.4 0.6 0.6z"/><path class="d" d="m81.7 49.6l0.8-1.8 1.1 1.9h-0.2v0.3z"/><path class="d" d="m49.7 61.8l-0.1-0.1 0.6 0.2v-0.3h-0.1l0.4 0.1 0.1-0.1 1.5 1.6-2 2.4-2.5-1.7 0.4 0.2-0.3-0.4 0.3 0.1 0.1-0.2 0.3 0.1 0.1-0.2 0.2 0.1v-1.1l0.3 0.1-0.1-0.4h0.2l-0.1-0.4z"/><path class="d" d="m85.5 44.7l-0.2-0.2z"/><path class="d" d="m60.2 43.4l-0.4 0.8h0.1l-2 0.9 1.1-2.8-0.1 0.2 0.6-0.1v0.2h0.4l-0.1 0.2h0.3z"/><path class="d" d="m58.6 40.8l0.5-0.2z"/><path class="d" d="m39 42.7v0.1l-0.4 0.4z"/><path class="d" d="m39.9 60.3l0.6 1.5-0.7 0.2v-1.9z"/><path class="d" d="m41.4 62.9l-0.4-0.1 0.2-0.4z"/><path class="d" d="m31.7 48.7l-0.9 1.6 0.4-1.5 0.3 0.1z"/><path class="d" d="m31.2 49.5l-0.2 0.2 0.4-0.7z"/><path class="d" d="m38.1 72.4h0.4v-0.2l0.9 0.9 0.3-0.5 2.1 6.7-5.6-4.3 0.6-0.1-0.7-0.6 0.6-0.5-0.6-0.8 0.7 0.3-0.2-0.9 0.6 0.4-0.2-1z"/><path class="d" d="m50 88.2l-0.2-0.1 8.1 0.7-0.3 0.1 0.8 1.3-4.5 1.1v-0.3l-1.6 0.1 0.2-0.2-1-0.2v-0.1l-0.5-0.2h0.2l-1.2-0.4 0.3-0.3-0.8-0.5 0.5-0.2-1.1-0.3z"/><path class="d" d="m61.6 61.1l-0.2 0.5z"/><path class="d" d="m57.1 84.9l0.8 0.4-1 0.2 0.1-0.4-0.3 0.2z"/><path class="d" d="m73.7 76.4l-0.9 0.1 0.2-0.5-0.7 0.4 0.9-1-0.4 0.2 0.6-0.7-0.5 0.2 0.8-1.3-0.5 0.1 7.2-10.6 0.1 0.5 0.5-0.8-0.1 0.8 0.6-0.1v-0.1l0.6 0.6 0.5-0.4-0.1 1.3 0.6-0.1-3.3 9.9-0.6-0.4-1.7 1.6-0.3-0.2-0.7 0.9v-0.5l-2.3 1.3 0.3-0.9-1.2 0.9 0.4-0.7-1.1 0.6z"/><path class="d" d="m40.3 41.1h0.8l-0.2 0.4 0.8-0.2-1.1 0.8 0.4-0.1-0.8 0.6 0.6-0.1-1 1.1h0.5l-9.1 9.3v-0.6l-0.6 0.8 0.2-0.8h-0.6v0.1l-0.5-0.7-0.6 0.3 0.4-1.2-0.6-0.1 5.2-9.3 0.5 0.5 2-1.3 0.2 0.3 0.9-0.7-0.2 0.4 2.5-0.8-0.4 0.8 1.3-0.7-0.5 0.6 1.2-0.4z"/><path class="d" d="m53 52.8l-0.7 0.3-0.3-1.1z"/><path class="d" d="m51.6 53.4l-0.1 0.3z"/><path class="d" d="m51.4 54.4v-0.5h0.1v-0.1l0.1 0.1z"/><path class="d" d="m51.7 55.1l0.1-0.1v0.2l0.3-0.2-0.4 2-2.5-0.4 0.2-0.1-0.6-0.2 0.3-2.1 0.9 0.4-0.1-0.2 0.7 0.3-0.2-0.7z"/><path class="d" d="m51.4 54.6v0.2z"/><path class="d" d="m47.9 56.1h0.2z"/><path class="a" d="m26.2 66.2l-0.1 0.2 0.2-0.2z"/><path class="a" d="m26 66.5l0.1-0.1z"/><path class="a" d="m43.2 37.8h0.5l0.1 0.2z"/><path class="a" d="m9.9 58.4h0.1v0.2h-0.1z"/><path class="a" d="m41.8 38.1v-0.2l0.3 0.2z"/><path class="a" d="m9.2 61.2h-0.3l0.5-1z"/><path class="a" d="m40 34.3l0.6-0.4 0.2 0.6z"/><path class="a" d="m34.3 57.8l0.1 0.1-1-1.6 1.1 1.6z"/><path class="a" d="m30.5 73h-0.1l-0.2-1.1 1.7 0.3-0.3 1.6z"/><path class="a" d="m33.9 55.2l0.3-0.4z"/><path class="a" d="m32.6 55.9l0.1-0.3 0.2 0.5z"/><path class="a" d="m32.8 55.8v0.1z"/><path class="a" d="m32 56.6v0.1z"/><path class="a" d="m32.3 45l0.3-0.1-0.2 0.2z"/><path class="a" d="m31.1 43.7l-0.2-0.6 1.4 1z"/><path class="a" d="m28 43.9l-0.4 0.2 0.1 0.4-1.5-1.1 1.5-0.5-0.1 0.1 0.5 0.8z"/><path class="a" d="m27.1 39.4l1.4 0.1z"/><path class="a" d="m27.5 39.4l0.2-0.3 0.1 0.4-0.1-0.3z"/><path class="a" d="m26 38.4l0.1 0.1-0.2 0.1z"/><path class="a" d="m24.1 38.1l-0.3-0.2 0.3-0.4 1.1 0.2v-0.1l-0.2 0.2 0.3 0.1z"/><path class="a" d="m24.5 37.8l0.3 0.1z"/><path class="a" d="m23.1 37.2l-1.2 0.3-0.2-0.5 1.7-0.2z"/><path class="a" d="m22.7 37.3l-0.1-0.1h0.1z"/><path class="a" d="m14.3 25.4l-0.2-0.2 2.5-1.1z"/><path class="a" d="m7.3 43.6l-0.3 0.2 0.1-1.4 0.1 0.2 0.4-0.3z"/><path class="a" d="m11.4 37.8l0.2-0.3z"/><path class="a" d="m35.8 58.3l0.5 0.1z"/><path class="a" d="m20.4 61.9v0.1h-0.2l0.2-0.1z"/><path class="a" d="m20.5 62.7l-0.3-0.2v-0.3h0.2l-0.2 0.3h0.3v-0.4h0.1v-0.2z"/><path class="a" d="m16.6 69.6l-0.2 0.2z"/><path class="a" d="m19.8 72.4l-0.1 0.1z"/><path class="a" d="m19.8 72.6l-0.1 0.2 0.3-0.1h-0.1l0.3-0.2h-0.4 0.1l0.4 0.2-0.2 0.3-0.4-0.4z"/><path class="a" d="m19.8 72.9l0.2-0.1z"/><path class="a" d="m18.5 79l0.7 0.6-1 0.1z"/><path class="a" d="m18.9 79.3l-0.2-0.1 0.2-0.1-0.2 0.6-0.4-0.2z"/><path class="a" d="m18.8 79.5l-0.3 0.2 0.1-0.1 0.1-0.2z"/><path class="a" d="m21.1 77.8l-0.3 0.3 0.1-0.1-0.3 0.2-0.1-0.2 0.1 0.1v-0.1h0.1l0.2-0.2-0.4-0.2z"/><path class="a" d="m38.2 91.9l-0.7 0.6 0.2-0.8-0.5 0.9 0.3-1.9h-0.3l0.2-1.7-0.3 0.2 3.1-5.5 0.8 6.7v-0.4l-0.3 0.1 0.1 0.9-0.4-0.6-0.4 0.9v-0.4l-1.9 2.3z"/><path class="a" d="m22.3 80.6l-0.1 0.2 0.3 0.2 0.1-0.2-0.2-0.2 0.5 0.1h-0.9z"/><path class="a" d="m25.5 82l0.6 1.8-2.1-0.6 0.2-0.2-0.2-0.2z"/><path class="a" d="m40.4 51.1h0.1l-0.5 0.2 0.1 0.3 0.1-0.1-0.4 0.3h0.1l-2.2-0.1-0.2-3.1 2.9-0.5-0.4 0.2 0.5 0.1-0.3 0.1 0.1 0.2-0.3 0.1 0.1 0.2-0.2 0.1 0.7 0.8-0.2 0.1 0.3 0.2-0.2 0.2 0.4 0.2z"/><path class="a" d="m26.1 88.1h0.3z"/><path class="a" d="m45.4 71.7l-0.3-0.8h-0.1l0.9-2 1.1 2.7-0.1-0.2-0.3 0.5-0.1-0.2-0.3 0.3-0.2-0.2-0.1 0.2z"/><path class="a" d="m48.3 72.4l-0.2 0.6z"/><path class="a" d="m61.3 57.6h-0.1v-0.6z"/><path class="a" d="m48.6 45.4l-1.5-0.7 0.3-0.6 1.3 1.4z"/><path class="a" d="m45.6 44.5l0.3-0.1 0.2 0.4z"/><path class="a" d="m62.5 48.2l-0.5-1.8 0.8 1.5-0.3 0.1z"/><path class="a" d="m62.3 47.3l-0.1-0.2 0.3 0.7z"/><path class="a" d="m41.5 35.4l-0.3 0.3 0.2 0.2-1.3-0.1 0.1 0.5-6.2-3.4 7.1-0.7-0.3 0.5h0.9l-0.1 0.7 0.9 0.2-0.7 0.3 0.8 0.4-0.7 0.2 0.8 0.6z"/><path class="a" d="m22 32.1h0.2l-6.4 5 0.2-0.3-1.5-0.4 2.5-3.9 0.3 0.2 1-1.1v0.3l0.9-0.6v0.1l0.5-0.2-0.1 0.1 1.2-0.5v0.4l0.9-0.2-0.2 0.5 1-0.5z"/><path class="a" d="m32.2 59.8l-0.2-0.6z"/><path class="a" d="m19.1 39.4l-0.8 0.3 0.5-0.9 0.2 0.4 0.2-0.3z"/><path class="a" d="m12.9 57l0.5-0.7 0.3 0.4 0.2-0.7v1.3l0.2-0.4v1l0.3-0.5 0.3 1.4 0.3-0.4 2.1 12.7-0.5-0.3 0.2 0.9-0.5-0.6-0.4 0.4 0.1 0.2-0.9-0.1v0.7l-0.8-1.1-0.4 0.5-4.5-9.5 0.8-0.1 0.1-2.4h0.4l-0.1-1.1 0.3 0.4 0.8-2.6 0.4 0.9 0.3-1.4 0.2 0.7 0.4-1.2z"/><path class="a" d="m61.4 59.7l-0.6 0.6-0.1-0.5-0.4 0.7 0.2-1.3-0.2 0.3 0.2-0.9-0.4 0.4v-1.5l-0.4 0.3 0.2-13 0.4 0.4-0.1-0.9 0.4 0.7 0.5-0.4-0.1-0.1 0.8 0.2 0.2-0.7 0.6 1.3 0.5-0.5 2.6 10.4h-0.7l-0.5 2.3-0.4-0.1-0.1 1.1-0.3-0.4-1.2 2.4-0.2-1-0.5 1.4-0.1-0.7-0.6 1.1z"/><path class="a" d="m44.1 60l0.3-0.8 1 0.6z"/><path class="a" d="m44.8 58.5l-0.2-0.3z"/><path class="a" d="m44.2 57.7l0.3 0.3 0.1 0.1h-0.2z"/><path class="a" d="m43.6 57.4l-0.1 0.1-0.2-0.2v0.3l-1.1-1.7 2.1-1.4-0.1 0.3 0.6-0.3 1.2 1.7-0.9 0.3 0.2 0.1-0.7 0.3 0.6 0.4z"/><path class="a" d="m44.1 57.5l-0.2-0.2z"/><path class="a" d="m45.6 53.9v0.1l-0.2 0.1z"/><path class="a" d="m106.6 51.8l-2.8 0.6 0.7 5.4 2.9-2.3z"/><path class="a" d="m105.8 42l-2.1 1.9 3.3 4.3 1.4-3.4z"/><path class="b" d="m72.8 26.8c-0.2-0.2-0.5-0.2-0.7 0-0.2 0.3-0.1 0.6 0.1 0.7 0.2 0.2 0.5 0.2 0.7 0 0.1-0.3 0.1-0.6-0.1-0.7z"/><path class="b" d="m68.6 38.8c-0.1-0.1-0.3-0.1-0.4 0-0.1 0.1-0.1 0.3 0 0.4 0.2 0.1 0.4 0.1 0.5 0 0.1-0.1 0-0.3-0.1-0.4z"/><path class="b" d="m93.4 33.7c0.2-0.1 0.2-0.3 0.1-0.5-0.2-0.1-0.4-0.1-0.6 0-0.1 0.1-0.1 0.4 0 0.5 0.2 0.2 0.4 0.2 0.5 0z"/><path class="e" d="m79.1 41.3c-0.4-0.6-1.3-0.8-1.9-0.3-0.6 0.4-0.7 1.3-0.2 1.9 0.4 0.6 1.3 0.8 1.9 0.3 0.6-0.4 0.7-1.3 0.2-1.9z"/><path class="e" d="m27.3 50.7c0.1 0.7 0.8 1.3 1.6 1.3 0.7 0 1.3-0.6 1.2-1.4-0.2-0.7-0.9-1.3-1.6-1.3-0.8 0-1.4 0.7-1.2 1.4z"/><path class="b" d="m86.1 37.6c0.1-0.3 0-0.7-0.3-0.9-0.3-0.2-0.7 0-0.9 0.3-0.1 0.3 0 0.7 0.3 0.9 0.3 0.1 0.7 0 0.9-0.3z"/><path class="b" d="m58.1 94.8c0.1-0.1 0.1-0.3 0-0.5-0.2-0.1-0.4-0.1-0.5 0-0.2 0.1-0.2 0.4 0 0.5 0.1 0.2 0.3 0.2 0.5 0z"/><path class="b" d="m93.3 33.8c0.1-0.2 0.1-0.4 0-0.5-0.1-0.2-0.4-0.2-0.5-0.1-0.2 0.2-0.2 0.4 0 0.6 0.1 0.1 0.3 0.1 0.5 0z"/><path class="f" d="m89.5 25c0.1-0.2 0.1-0.4-0.1-0.5-0.2-0.1-0.4 0-0.5 0.1-0.1 0.2 0 0.4 0.1 0.5 0.2 0.1 0.5 0.1 0.5-0.1z"/><path class="f" d="m55.6 17.3c-0.1-0.2-0.4-0.1-0.5 0-0.1 0.2-0.1 0.4 0.1 0.5 0.1 0.2 0.4 0.1 0.5 0 0.1-0.2 0.1-0.4-0.1-0.5z"/><path class="f" d="m15.5 65.2c0.3 0 0.4-0.2 0.3-0.5 0-0.2-0.3-0.4-0.5-0.3-0.3 0-0.4 0.2-0.4 0.5 0.1 0.2 0.4 0.4 0.6 0.3z"/><path class="f" d="m19.3 42.1c-0.2 0.2-0.1 0.5 0.1 0.7 0.2 0.2 0.5 0.2 0.6 0 0.2-0.2 0.2-0.5 0-0.7-0.2-0.1-0.5-0.1-0.7 0z"/><path class="e" d="m52.6 74.1c-0.5 0.5-0.5 1.4 0 2 0.6 0.5 1.4 0.5 2 0 0.5-0.5 0.5-1.4 0-2-0.5-0.5-1.4-0.5-2 0z"/><path class="b" d="m48.6 69.6c-0.3 0.3-0.3 0.8 0 1.1 0.3 0.3 0.8 0.3 1.1 0 0.3-0.3 0.4-0.8 0-1.1-0.3-0.3-0.8-0.3-1.1 0z"/><path class="b" d="m29.5 39.2c-0.1 0.2-0.1 0.5 0 0.6 0.2 0.2 0.5 0.2 0.7 0 0.2-0.1 0.2-0.4 0-0.6-0.2-0.2-0.5-0.2-0.7 0z"/><path class="f" d="m48 58.8c-0.3 0.3-0.3 0.8 0 1.1 0.3 0.3 0.8 0.3 1.1 0 0.3-0.3 0.3-0.8 0-1.1-0.3-0.3-0.8-0.3-1.1 0z"/><path class="f" d="m53.1 76.6c-0.1 0.1-0.1 0.2 0 0.3 0.1 0.1 0.2 0.1 0.3 0 0.1-0.1 0.1-0.2 0-0.3-0.1-0.1-0.2-0.1-0.3 0z"/><path class="b" d="m79.5 30.4c-0.1-0.1-0.4-0.1-0.5 0.1-0.1 0.1-0.1 0.4 0.1 0.5 0.1 0.1 0.4 0.1 0.5 0 0.1-0.2 0.1-0.4-0.1-0.6z"/><path class="b" d="m44.6 49.8c-0.2-0.1-0.4 0-0.4 0.2-0.1 0.2 0 0.4 0.2 0.5 0.2 0 0.4-0.1 0.5-0.3 0-0.2-0.1-0.4-0.3-0.4z"/><path class="e" d="m57.4 41.1c-0.6-0.2-1.2 0.2-1.4 0.8-0.2 0.5 0.2 1.2 0.8 1.3 0.6 0.2 1.2-0.1 1.4-0.7 0.1-0.6-0.2-1.2-0.8-1.4z"/><path class="e" d="m51.5 61.2c-0.5-0.1-1.2 0.2-1.3 0.8-0.2 0.6 0.2 1.2 0.8 1.3 0.6 0.2 1.2-0.1 1.3-0.7 0.2-0.6-0.2-1.2-0.8-1.4z"/><path class="b" d="m32.4 31.9c-0.3-0.1-0.7 0.1-0.8 0.4-0.1 0.3 0.2 0.7 0.5 0.8 0.4 0.1 0.7-0.1 0.8-0.4 0.1-0.4-0.1-0.7-0.5-0.8z"/><path class="b" d="m35.1 44.9c-0.2-0.1-0.4 0-0.5 0.2 0 0.2 0.1 0.4 0.3 0.5 0.2 0 0.4-0.1 0.5-0.3 0-0.2-0.1-0.4-0.3-0.4z"/><path class="b" d="m38.9 41.7c-0.2-0.1-0.4 0-0.4 0.2-0.1 0.2 0.1 0.4 0.3 0.5 0.2 0.1 0.4-0.1 0.4-0.3 0.1-0.2-0.1-0.4-0.3-0.4z"/><path class="f" d="m43.2 18.6c-0.4-0.1-0.7 0.1-0.8 0.4-0.1 0.4 0.1 0.7 0.4 0.8 0.4 0.1 0.7-0.1 0.8-0.4 0.1-0.4-0.1-0.7-0.4-0.8z"/><path class="f" d="m20.9 46.6c0-0.1-0.2-0.2-0.3-0.1-0.2 0-0.2 0.2-0.2 0.3 0.1 0.2 0.3 0.2 0.4 0.2 0.2-0.1 0.2-0.2 0.1-0.4z"/><path class="f" d="m29.4 37.7c-0.1 0-0.2 0.1-0.2 0.2 0 0.1 0 0.2 0.1 0.2 0.1 0 0.2 0 0.2-0.1 0.1-0.1 0-0.2-0.1-0.3z"/><path class="b" d="m49.9 32c-0.2-0.1-0.4 0-0.4 0.2-0.1 0.2 0 0.4 0.2 0.5 0.2 0 0.4-0.1 0.5-0.3 0-0.2-0.1-0.4-0.3-0.4z"/><path class="b" d="m22.2 51.5c-0.1-0.2-0.3-0.3-0.5-0.2-0.2 0-0.3 0.2-0.1 0.4 0.1 0.2 0.3 0.3 0.5 0.2 0.2-0.1 0.2-0.3 0.1-0.4z"/><path class="b" d="m66.9 76.3c0.3 0.1 0.6 0 0.7-0.2 0.1-0.3 0-0.5-0.2-0.7-0.3-0.1-0.5 0-0.7 0.2-0.1 0.3 0 0.5 0.2 0.7z"/><path class="b" d="m29.3 55.5c0.1 0.3 0.3 0.4 0.6 0.4 0.2-0.1 0.4-0.3 0.3-0.6-0.1-0.2-0.4-0.4-0.6-0.3-0.3 0-0.4 0.3-0.3 0.5z"/><path class="b" d="m63.8 81.7c0.2 0.1 0.5 0 0.6-0.2 0.1-0.2 0-0.5-0.2-0.6-0.2-0.2-0.5-0.1-0.6 0.1-0.1 0.3 0 0.5 0.2 0.7z"/><path class="b" d="m74.3 72.8c0.2 0.2 0.5 0.1 0.6-0.1 0.1-0.3 0-0.5-0.2-0.7-0.2-0.1-0.5 0-0.6 0.2-0.1 0.3-0.1 0.5 0.2 0.6z"/><path class="f" d="m44.8 68c0.1 0.2 0.4 0.4 0.6 0.3 0.2 0 0.4-0.2 0.3-0.5-0.1-0.2-0.3-0.4-0.6-0.4-0.2 0.1-0.4 0.3-0.3 0.6z"/><path class="b" d="m44.2 60.6c0.1 0.3 0.3 0.4 0.6 0.4 0.2 0 0.4-0.3 0.3-0.5-0.1-0.3-0.4-0.4-0.6-0.4-0.3 0.1-0.4 0.3-0.3 0.5z"/><path class="b" d="m29.1 47c0.1 0.2 0.4 0.4 0.6 0.4 0.3-0.1 0.4-0.3 0.3-0.6-0.1-0.2-0.3-0.4-0.6-0.3-0.2 0-0.4 0.3-0.3 0.5z"/><path class="b" d="m38.5 64.3c-0.1-0.1-0.3-0.2-0.4-0.1-0.2 0-0.2 0.2-0.1 0.4 0 0.1 0.2 0.2 0.4 0.1 0.1 0 0.2-0.2 0.1-0.4z"/><path class="b" d="m85.3 66c0.2 0.1 0.5 0 0.6-0.2 0.1-0.3 0-0.5-0.2-0.7-0.2-0.1-0.5 0-0.6 0.2-0.1 0.3 0 0.5 0.2 0.7z"/><path class="b" d="m57.7 28.2c0.3 0.2 0.5 0.1 0.6-0.2 0.2-0.2 0.1-0.5-0.2-0.6-0.2-0.1-0.5 0-0.6 0.2-0.1 0.2 0 0.5 0.2 0.6z"/><path class="b" d="m92.6 62.5c0.2 0.2 0.5 0.1 0.6-0.2 0.1-0.2 0.1-0.5-0.2-0.6-0.2-0.1-0.5 0-0.6 0.2-0.1 0.2 0 0.5 0.2 0.6z"/><path class="f" d="m89.9 60.9c0.3 0.1 0.5 0 0.7-0.2 0.1-0.2 0-0.5-0.3-0.6-0.2-0.2-0.5-0.1-0.6 0.1-0.1 0.3 0 0.6 0.2 0.7z"/><path class="b" d="m84.1 56c0.2 0.2 0.5 0.1 0.6-0.2 0.1-0.2 0-0.5-0.2-0.6-0.2-0.1-0.5 0-0.6 0.2-0.1 0.2 0 0.5 0.2 0.6z"/><path class="b" d="m69.7 27.6c-0.1-0.1-0.3 0-0.3 0.2-0.1 0.1 0 0.3 0.2 0.3 0.1 0.1 0.3 0 0.4-0.2 0-0.1-0.1-0.3-0.3-0.3z"/><path class="b" d="m55 96.6c-0.2 0-0.4 0.2-0.4 0.5 0 0.2 0.2 0.4 0.4 0.4 0.3 0 0.5-0.2 0.5-0.4 0-0.3-0.2-0.5-0.5-0.5z"/><path class="b" d="m88.5 47.4c0.3 0 0.4-0.3 0.3-0.5 0-0.3-0.3-0.4-0.5-0.3-0.3 0-0.4 0.3-0.3 0.5 0 0.3 0.3 0.4 0.5 0.3z"/><path class="e" d="m82.2 23c-0.6-0.2-1.2 0.2-1.4 0.7-0.2 0.6 0.2 1.2 0.8 1.4 0.6 0.2 1.2-0.2 1.4-0.8 0.1-0.5-0.2-1.2-0.8-1.3z"/><path class="e" d="m78.6 13.5c0.7 0.3 1.5 0.1 1.9-0.6 0.3-0.7 0-1.5-0.7-1.9-0.6-0.3-1.5-0.1-1.8 0.6-0.4 0.7-0.1 1.5 0.6 1.9z"/><path class="b" d="m70.8 8.6c-0.3-0.1-0.5 0.1-0.5 0.4-0.1 0.3 0.1 0.5 0.4 0.5 0.3 0.1 0.5-0.1 0.5-0.4 0-0.3-0.1-0.5-0.4-0.5z"/><path class="b" d="m73.6 21.1c-0.2-0.1-0.4 0.1-0.4 0.2 0 0.2 0.1 0.3 0.3 0.3 0.2 0.1 0.3 0 0.3-0.2 0-0.2-0.1-0.3-0.2-0.3z"/><path class="f" d="m73.7 6.3c-0.1 0-0.3 0.1-0.3 0.3 0 0.1 0.1 0.3 0.3 0.3 0.1 0 0.3-0.1 0.3-0.3 0-0.1-0.1-0.3-0.3-0.3z"/><path class="f" d="m55.3 94.8c0.3-0.1 0.4-0.3 0.3-0.6 0-0.2-0.3-0.4-0.5-0.3-0.3 0.1-0.4 0.3-0.4 0.6 0.1 0.2 0.4 0.4 0.6 0.3z"/><path class="b" d="m49.8 16.5c-0.1-0.1-0.3 0-0.4 0.2-0.1 0.2 0.1 0.4 0.3 0.5 0.2 0.1 0.4-0.1 0.4-0.3 0.1-0.2-0.1-0.4-0.3-0.4z"/><path class="a" d="m11.4 40.8c-4 0.9-6.4 8.5-5.4 17 1 8.4 5 14.5 9 13.5 3.9-0.9 6.3-8.5 5.4-17-1-8.4-5-14.5-9-13.5z"/><path class="d" d="m51.1 59.9l0.2 0.3-0.3-0.3z"/><path class="d" d="m51.3 60.3h0.1l-0.2-0.2z"/><path class="d" d="m25.9 30.2l0.1-0.6 0.2 0.1z"/><path class="d" d="m36.2 75.2v-0.1l0.2 0.1v0.1z"/><path class="d" d="m25.6 31.9l-0.2-0.1 0.4-0.2z"/><path class="d" d="m39 77.1v0.3l-1-0.9z"/><path class="d" d="m20.8 32.5l-0.3-0.8h0.8z"/><path class="d" d="m44.8 47.7h0.1l-2.1 0.5 2.1-0.7z"/><path class="d" d="m60.3 57.7l-0.1 0.2-1.3-0.2 1.1-1.8 1.5 0.9z"/><path class="d" d="m41.7 47.2l-0.3-0.4z"/><path class="d" d="m42 48.9l-0.3-0.2 0.6-0.1z"/><path class="d" d="m42 48.7h0.1z"/><path class="d" d="m42.5 49.9h0.1z"/><path class="d" d="m29.7 45.2v-0.4l0.1 0.2z"/><path class="d" d="m27.8 46l-0.7-0.1 1.7-1.1z"/><path class="d" d="m26.9 49.6v0.4l0.5 0.1-1.8 1.3 0.1-1.9v0.2l1.1-0.3z"/><path class="d" d="m21.5 48.8l0.7-1.5z"/><path class="d" d="m21.7 48.4l-0.3-0.4h0.5l-0.4 0.1z"/><path class="d" d="m58.2 82.7l0.3 0.2-4.1 0.2z"/><path class="d" d="m19.9 49.7l0.3-0.1v0.2z"/><path class="d" d="m19 51.6l-0.4 0.3-0.4-0.5 0.7-1.1h-0.1l0.1 0.2 0.3-0.3z"/><path class="d" d="m18.7 51.1l0.2-0.3z"/><path class="d" d="m17.5 52.4l-0.1 1.5h-0.6l0.4-2z"/><path class="d" d="m17.4 52.9l-0.1 0.1v-0.1z"/><path class="d" d="m1.1 57.7l-0.3 0.2-0.3-3.2z"/><path class="d" d="m18.7 72.5l0.1 0.4-1.5-0.7h0.2l-0.1-0.5z"/><path class="d" d="m13.7 65.7l-0.2-0.3z"/><path class="d" d="m25.1 78.7h0.2l-0.3-0.3 2 1.4-1.9-0.5h0.1l-0.4-0.9z"/><path class="d" d="m29.9 84.4l0.9 0.8-1.6-0.2z"/><path class="d" d="m30.6 86.9v-0.4l0.3 0.4-0.8-0.3z"/><path class="d" d="m45.9 46.3l0.3-0.5z"/><path class="d" d="m36.3 89.4l1 0.8h-1.6z"/><path class="d" d="m49.7 94.6l2.4 0.2-1.8 0.8 0.1-0.1-0.9-0.4z"/><path class="d" d="m44.1 64.9v-0.1 0.1h0.1v0.1l-0.2-0.2z"/><path class="d" d="m52.7 98.3v-0.3l2.6 0.5-2.1 1 0.1-0.1-0.8-0.4v-0.1l-0.4-0.2z"/><path class="d" d="m44.9 65l-0.2 0.3-0.4-0.2 0.1-0.1 0.2 0.3 0.1-0.3-0.4-0.2 0.1-0.1-0.3-0.1z"/><path class="d" d="m51.2 72l0.2 0.3z"/><path class="d" d="m61.2 90l0.2 0.1-0.3 0.3-0.3-0.3z"/><path class="d" d="m55.5 69.5l0.1-0.1 0.1 0.3z"/><path class="d" d="m55.8 69.5l0.2 0.2-0.1-0.3h0.1l-0.2-0.3-0.1 0.4-0.1-0.1 0.5-0.3 0.3 0.3-0.6 0.3z"/><path class="d" d="m56.1 69.7v-0.2z"/><path class="d" d="m78.2 79.2l1 0.2-0.9 1.8v-0.3l-0.7 0.5 0.1-0.3-0.4 0.1z"/><path class="d" d="m62.5 73.4l0.9-0.5-0.3 1.2z"/><path class="d" d="m63 73.1l-0.3 0.2v-0.3l0.5 0.4-0.3 0.4z"/><path class="d" d="m63.1 73.3l0.1 0.3h-0.1l0.1-0.1-0.3-0.1z"/><path class="d" d="m76.9 84.3l0.4 0.2-0.8 1.2 0.3-0.7-0.7 0.4z"/><path class="d" d="m62.1 70.1l0.2 0.4-0.1-0.1 0.1 0.4h-0.2l0.1-0.1-0.1-0.1h0.1l-0.2-0.3-0.3 0.4z"/><path class="d" d="m84.3 56.4l0.4 1-0.8-0.6 0.8 1-2-1.2-0.1 0.5-1.9-0.9 0.2 0.3-5-5.4 7.7 1.6-0.4-0.2v0.3l1.1 0.3-0.9 0.2 0.9 0.8-0.4-0.2 1.8 3.1z"/><path class="d" d="m65.6 69.8l0.2 0.2 0.4-0.2-0.2-0.2-0.3 0.1 0.3-0.5-0.3 1z"/><path class="d" d="m68.4 66.8l2.3-0.1-1.5 2.2-0.2-0.3-0.2 0.2z"/><path class="d" d="m39.6 38.4v-0.1l0.1 0.7 0.3-0.1v-0.1l0.1 0.5h0.1l-0.9 2.4-3.6-1 0.6-3.5v0.6l0.3-0.5v0.4h0.3v0.3l0.3-0.1v0.4l1.2-0.5v0.3l0.3-0.3 0.1 0.2 0.4-0.3z"/><path class="d" d="m75.5 68.4h-0.1l0.1-0.3h0.1z"/><path class="d" d="m64.5 40.6l-1 0.1-2-1.6 3.5-0.3-0.2 0.1 0.4 0.5-0.3 0.1 0.2 0.4-0.2 0.1 0.1 0.2z"/><path class="d" d="m66.4 37.7l0.5 0.4z"/><path class="d" d="m54.7 17.6v0.1l-0.7-0.2 0.1-0.1z"/><path class="d" d="m36.4 27.2l-1.4 1.4-0.5-0.7 2.1-0.8z"/><path class="d" d="m34.3 30.1l-0.1-0.4h0.6z"/><path class="d" d="m44.8 12.7l-2.2-0.1 1.9-0.3v0.3z"/><path class="d" d="m43.7 12.6l-0.3-0.1 0.9 0.1z"/><path class="d" d="m22.5 31.2l0.3 0.5 0.2-0.1-0.6 1.3 0.7 0.1-6.2 5.6 1.9-8.1 0.5 0.5 0.3-1 0.8 0.4 0.5-1 0.1 0.9 0.8-0.7-0.1 0.8 0.9-0.7z"/><path class="d" d="m11.4 51.8l0.1-0.3 3.2 9-0.3-0.3-1 1.5-3.4-4.3 0.3-0.2-0.8-1.6 0.3 0.1-0.3-1.1h0.2l-0.1-0.7 0.1 0.2-0.2-1.5 0.5 0.2 0.1-1.2 0.5 0.5-0.2-1.4z"/><path class="d" d="m46.2 50.9l-0.7-0.1z"/><path class="d" d="m18.5 57.7v1l-0.8-0.9 0.5-0.1-0.3-0.2z"/><path class="d" d="m35.7 71.3l-0.5-0.9 0.5-0.1-0.7-0.5 1.5 0.5-0.4-0.3 1.1 0.3-0.5-0.5 1.7 0.2-0.2-0.5 14.9 2.6-0.6 0.4h1.1l-0.9 0.4 0.4 0.6 0.2-0.1-0.4 1 0.7 0.3-1.4 0.5 0.4 0.6-12.3 1.4 0.1-1-2.6-1 0.2-0.4-1.3-0.3 0.5-0.2-2.5-1.9 1.1-0.1-1.5-0.8h0.8l-1.1-0.9z"/><path class="d" d="m57.2 18.2l0.4 0.9h-0.6l0.7 0.7-1.4-0.8 0.3 0.4-1-0.5 0.3 0.6-1.6-0.6 0.1 0.6-14.4-5.2 0.6-0.3-1-0.3 0.9-0.2-0.3-0.6h-0.2l0.6-0.8-0.6-0.5 1.5-0.1-0.3-0.7 12.6 0.9-0.3 0.9 2.4 1.4-0.2 0.4 1.2 0.6-0.6 0.1 2.2 2.2-1.2-0.1 1.4 1.1-0.8-0.2 1 1z"/><path class="d" d="m50.9 37.6l-0.7-0.6 1-0.8z"/><path class="d" d="m49.5 36.3l-0.4 0.1z"/><path class="d" d="m48.4 36.6l0.5-0.2v0.1l0.1-0.1v0.2z"/><path class="d" d="m47.8 37.3h0.1l-0.2 0.2 0.3 0.2-2.3 0.6-0.8-3 0.3 0.2-0.1-0.7 2.3-0.7v1.2l0.2-0.2 0.1 0.8 0.6-0.5z"/><path class="d" d="m48.2 36.7l-0.3 0.1z"/><path class="d" d="m44.8 33.7l0.1 0.2z"/><path class="g" d="m76.2 16c-3.9-11-20.8-15.2-37.6-9.5-16.8 5.8-27.2 19.4-23.2 30.4 4 10.9 20.8 15.1 37.6 9.4 16.8-5.8 27.2-19.4 23.2-30.3z"/></svg>