<svg version="1.2" xmlns="http://www.w3.org/2000/svg" viewBox="0 0 236 222" width="236" height="222"><style>.a{fill:#e09b92}.b{fill:#ffdad4}.c{fill:#f4bab0}.d{opacity:.4;fill:#f9dcd7}.e{fill:#f9dcd7}.f{fill:#ce715b}.g{fill:#ffc8bd}.h{opacity:.4;fill:#f7bab0}.i{fill:#ed9e91}.j{opacity:.5;fill:#ed9e91}</style><path class="a" d="m168.2 203.4c-2.2 0.3-10.3-20.7-14.6-26.5-3.3-4.5-14.1-19.4-16.6-23.6-1.6-2.7 22.1-25.8 43.5 3.8 16.2 22.4-8.8 45.8-12.3 46.3z"/><path class="b" d="m168 202.4c-2.2 0.3-10.1-20.2-14.3-25.9-3.2-4.4-13.8-19-16.3-23.1-1.5-2.6 21.2-24.8 40.3 2.9 1.3 1.9-6.3 45.6-9.7 46.1z"/><path class="c" d="m168.5 202.8c-2.1 0.3-10.1-20.2-14.2-25.9-3.2-4.3-13.8-18.9-16.3-23-1.5-2.6 21.2-24.9 40.3 2.9 1.3 1.9-6.4 45.5-9.8 46z"/><path class="d" d="m146.3 151.2c0.6 2 2.4 3.6 7.6 2.1 0.9-0.3 1.7-0.8 2.6-1.1 1.8-0.5 3.4 0.5 5 1.1 0.7 1.7 3.4 4.8 4 5.2 1.4 0.8 5.1-0.3 5.9-1.6q0.2-0.4 0.4-0.9c0.4-0.9 0.8-1.9 0.9-3 0-0.1 0-0.4-0.2-0.5-0.3-0.2-1.1-0.4-2.1-0.7q0.3-0.2 0.5-0.4c0.1-0.1 0.3-0.3 0.2-0.5-0.3-1.2-5.1-3.4-7.9-2.7q-0.3 0.1-0.5 0.2c-1-0.4-2.4-0.5-2.7-1.6-0.1-0.4 0-0.9-0.1-1.3-0.4-1.2-3.3-1.2-5.9-0.4q-0.7 0.2-1.4 0.4c0 0-0.6-1.3-3.1-0.5-2.1 0.6-1.8 0.9-1.2 3.1-0.4 0.1-0.9 0.2-1.4 0.3-1.1 0.4-0.9 1.7-0.6 2.8z"/><path class="d" d="m157.1 154.5q-0.5 0.2-0.9 0.4c-0.9 0.4-1.9 0.9-2.6 1.7-0.1 0.1-0.3 0.3-0.2 0.5 0.3 1.1 5.2 3.2 8 2.4 1.1-0.3 1.4-1.4 1.1-2.3-0.4-1.5-3.9-3.1-5.4-2.7z"/><path class="e" d="m166.8 156.8c0.4 0.1 1.4 0.1 1.8-0.4 0.3-0.5-0.3-0.9-0.6-1.1 0-0.2-0.2-0.2-0.2-0.3-2.2-0.6-2.3 1.4-1 1.8z"/><path class="e" d="m164.4 151.8c1.1 3.7 2.6 2.1 3.1 1.7 2.1-1.7-1.6-3-1.9-3.2 0-0.2-0.2-0.2-0.3-0.2-2.1-0.6-1.3 0.4-0.9 1.7z"/><path class="f" d="m168 202.5c-2.2 0.3-9.8-19.5-13.8-25-3.1-4.2-14.3-20.2-16.7-24.2-1.4-2.5 30.4-11.5 45.6 11.3 14.4 21.7-11.9 37.4-15.1 37.9z"/><path class="b" d="m137.1 152.9c-2.2-0.8 14 21.3 17.8 27.3 2.8 4.6 11 24.1 14.9 26.8 1.4 1 26.7-18.3 12.8-41.6-14-23.3-43.1-11.6-45.5-12.5z"/><path class="g" d="m138.9 153.4c-2.1-0.8 13.6 21 17.2 27 2.8 4.5 10.7 23.8 14.4 26.5 1.4 1 25.7-18 12.2-41.1-13.5-23-41.5-11.5-43.8-12.4z"/><path class="h" d="m182.7 165.8c-2.7-4.7-6.1-7.9-9.7-10.2q0.4 3.2 0.5 6.6c0 12.2-4.9 22.8-12.2 28.6 3.2 6.9 7 14.5 9.2 16.1 1.4 1 25.7-18 12.2-41.1z"/><g style="opacity:.5"><path class="i" d="m183.5 171.5c-1.1-1.7-3.2-1.7-4.6-0.7-1.8 1.2-2.9 5.6-2.6 8.7-0.7 0.9-0.9 2.6-2.2 2.7-0.4 0.1-0.9-0.1-1.3-0.1-1.3 0.2-1.7 3.1-1.4 5.7q0.1 0.8 0.2 1.5c0 0-1.3 0.5-1 3 0.3 2.2 0.6 2 2.9 1.7 0.1 0.4 0 0.9 0.1 1.4 0.1 1.2 1.5 1.2 2.6 1 2.1-0.2 4-1.7 3.3-7.1-0.1-0.9-2.4-3.8-2.5-4.7-0.3-2.7 4-2.6 4.4-5 0.1 1 0 1.9 1.2 2.5 0.3 0.1 0.6 5.1 0.9 4.9 1.9-1.2 3-11 0-15.5z"/><path class="i" d="m169.8 195.3q-0.3-0.1-0.7-0.1c-0.9-0.1-1.8-0.2-2.6 0.1-0.1 0-0.3 0.1-0.4 0.2-0.2 1 2.3 4.6 4.6 5.2 0.9 0.2 1.6-0.4 1.8-1.2 0.3-1.2-1.4-3.8-2.7-4.2z"/><path class="i" d="m173.9 172.1c-0.3-0.1-2.2-2-2.5-1.9-0.9-0.1 0.8 2.4-0.3 3-0.2 0.1 0 2.3-0.2 2.6-0.3 0.6-0.6 1.4-0.7 2.2q0 0 0 0c0-0.1 0-0.2-0.1-0.2-0.5-0.4-2.4-0.6-2.8 0-0.1 0.2 0.3 0.6 0.7 0.9 0.6 0.5 2 0.8 2.2 0.4q0 0 0 0c0.1 1 0.5 1.8 1.6 2 0.9 0.3 2-0.9 2.7-2.3 1.1-2.1 0.6-6.4-0.6-6.7z"/></g><path class="j" d="m179.6 168.4c0.3-0.1 0.5-0.7 0.5-1.2 0-0.9-0.8-2.1-1.3-2q-0.1 0-0.2 0.1c-0.3 0.1-0.6 0.3-0.9 0.7 0 0-0.1 0.1-0.1 0.2 0 0.7 1.2 2.3 2 2.2z"/><path class="d" d="m174.4 163.6c-0.2-2.1-1.6-4-7-3.4-0.9 0.1-1.9 0.5-2.8 0.6-1.9 0.2-3.2-1.1-4.7-2-0.4-1.8-2.5-5.3-3-5.8-1.2-1.1-5-0.7-6.1 0.4q-0.3 0.4-0.5 0.8c-0.6 0.9-1.2 1.8-1.5 2.9 0 0.1 0 0.3 0.1 0.5 0.3 0.2 1 0.6 2 1q-0.3 0.2-0.6 0.4c-0.1 0.1-0.3 0.2-0.3 0.4 0.1 1.2 4.4 4.3 7.4 4.1q0.2-0.1 0.4-0.1c1 0.6 2.3 0.9 2.4 2 0 0.5-0.2 0.9-0.1 1.4 0.1 1.2 3 1.7 5.6 1.4q0.8 0 1.5-0.1c0 0 0.4 1.3 3 1.1 2.2-0.3 2-0.6 1.7-2.9 0.4-0.1 0.9 0 1.4-0.1 1.2-0.1 1.3-1.4 1.1-2.6z"/><path class="d" d="m164.4 158.4q0.5-0.1 1-0.2c1-0.3 2-0.6 2.9-1.2 0.1-0.1 0.3-0.3 0.3-0.5-0.1-1.2-4.6-4.1-7.5-3.8-1.1 0.1-1.6 1.1-1.5 2.1 0.2 1.5 3.3 3.8 4.8 3.6z"/><path class="e" d="m170.2 161.8c-0.9 0.1-2.8 0.8-3.1 2.1-0.3 1.2 1.1 1.5 2 1.6 0.1 0.4 0.4 0.2 0.6 0.3 4.5-0.4 3.3-4.3 0.5-4z"/><path class="e" d="m166.6 163.2c-0.7 0.3-2 1.2-2 2.3 0 0.9 1.2 0.9 1.8 0.8 0.2 0.3 0.4 0.1 0.6 0.2 3.4-1.3 1.7-4.1-0.4-3.3z"/><path class="e" d="m164.8 174.3c-0.6 0.4-1.7 1.6-1.5 2.6 0.2 1 1.4 0.7 2 0.4 1.1-0.6 0.3-1.5 0.4-1.5 3.1-1.9 1-2.7-0.9-1.5z"/><path class="d" d="m181.9 186.8c-0.1-1.2-0.6-3.7-1.6-4-0.9-0.4-1.2 1.6-1.3 2.7 0.1 2 1.2 1.4 1.1 1.7 0.2 6 1.9 3.4 1.8-0.4z"/><path class="d" d="m175.7 192.1c0.8-0.8 1.6-3 0.4-4.9-1.2-1.7-3-1.1-3.9-0.6-1.3 1.2 0.9 2.8 0.6 2.8-3.8 3.8 0.5 5 2.9 2.7z"/><path class="e" d="m164.4 154.3c-0.7-0.3-2.3-0.3-2.9 0.5-0.6 0.8 0.3 1.5 0.9 1.8 0 0.3 0.3 0.3 0.4 0.5 3.4 1.1 3.8-2.1 1.6-2.8z"/><path class="e" d="m165.6 161.6c-0.5 0.1-1.4 0.4-1.5 1-0.2 0.6 0.5 0.8 0.9 0.8 0.1 0.2 0.2 0.1 0.3 0.2 2.2-0.3 1.6-2.1 0.3-2z"/><path class="e" d="m163.7 165.7c-0.4-0.2-1.3-0.4-1.8 0.1-0.4 0.4 0.1 0.9 0.4 1.1-0.1 0.2 0.1 0.2 0.2 0.3 1.9 1 2.5-0.9 1.2-1.5z"/><path class="e" d="m155.3 154.4c-0.4-0.2-1.3-0.3-1.8 0.1-0.4 0.4 0.1 0.9 0.4 1.1-0.1 0.2 0.1 0.3 0.2 0.4 1.9 0.9 2.4-1 1.2-1.6z"/><path class="a" d="m208.4 76.2c2.3-0.2 8.7 21.4 12.5 27.5 2.9 4.7 12.6 20.5 14.7 24.9 1.3 2.8-24.1 23.9-43.1-7.2-14.4-23.6 12.4-45 15.9-45.2z"/><path class="b" d="m208.6 77.2c2.2-0.1 8.5 20.9 12.2 26.9 2.8 4.6 12.3 20 14.4 24.3 1.3 2.7-23.1 23.1-39.9-6.1-1.2-1.9 9.9-44.9 13.3-45.1z"/><path class="c" d="m208.1 76.7c2.2-0.1 8.4 20.9 12.1 26.9 2.9 4.6 12.3 20 14.4 24.3 1.3 2.7-23 23.1-39.9-6.1-1.1-1.9 9.9-44.9 13.4-45.1z"/><path class="d" d="m226.1 129.9c-0.4-2-2-3.8-7.3-2.7-0.9 0.2-1.8 0.7-2.7 0.9-1.9 0.4-3.4-0.8-4.9-1.5-0.6-1.7-3-5-3.6-5.4-1.3-1-5.1-0.2-6 1q-0.3 0.4-0.5 0.9c-0.5 0.9-1 1.9-1.1 2.9 0 0.2 0 0.4 0.1 0.5 0.3 0.2 1.1 0.6 2.1 0.9q-0.3 0.2-0.6 0.4c-0.1 0.1-0.3 0.3-0.2 0.5 0.2 1.1 4.8 3.8 7.7 3.2q0.3 0 0.5-0.1c1 0.5 2.3 0.7 2.6 1.8 0.1 0.4-0.1 0.9 0 1.4 0.2 1.2 3.1 1.4 5.8 0.8q0.7-0.1 1.4-0.3c0 0 0.6 1.3 3.1 0.8 2.1-0.5 1.9-0.8 1.4-3.1 0.4 0 0.9-0.1 1.4-0.2 1.2-0.2 1.1-1.5 0.8-2.7z"/><path class="d" d="m215.6 125.8q0.5-0.1 0.9-0.4c1.1-0.3 2-0.7 2.9-1.4 0-0.2 0.2-0.3 0.2-0.5-0.3-1.2-5-3.7-7.9-3.1-1.1 0.3-1.4 1.3-1.2 2.3 0.3 1.5 3.6 3.4 5.1 3.1z"/><path class="e" d="m206.2 122.8c-0.5-0.2-1.4-0.3-1.8 0.2-0.4 0.5 0.1 0.9 0.5 1.1-0.1 0.2 0.1 0.2 0.2 0.3 2 0.8 2.3-1.2 1.1-1.6z"/><path class="e" d="m208.2 127.9c-0.8-3.8-2.5-2.3-3-1.9-2.2 1.4 1.3 3.1 1.7 3.3-0.1 0.2 0.1 0.2 0.2 0.3 2 0.7 1.3-0.3 1.1-1.7z"/><path class="f" d="m208.6 77.1c2.1-0.2 8.2 20.2 11.8 26 2.7 4.4 12.7 21.3 14.7 25.4 1.2 2.6-31.3 9.1-44.6-14.9-12.7-22.8 14.8-36.3 18.1-36.5z"/><path class="b" d="m235.5 128.9c2.1 1-12.3-22.3-15.6-28.6-2.5-4.8-9.1-24.8-12.7-27.9-1.3-1.1-28.1 16.2-16.1 40.5 12.1 24.3 42.1 14.9 44.4 16z"/><path class="g" d="m233.7 128.4c2.1 0.9-11.9-22.1-15-28.3-2.4-4.8-8.8-24.6-12.3-27.7-1.2-1-27 16-15.4 40.1 11.6 24 40.5 14.8 42.7 15.9z"/><path class="h" d="m191 112.5c2.4 4.9 5.5 8.4 8.9 10.9q-0.2-3.2 0.1-6.6c0.9-12.1 6.6-22.3 14.4-27.6-2.7-7-5.9-14.9-8-16.8-1.2-1-27 16-15.4 40.1z"/><g style="opacity:.5"><path class="i" d="m190.7 106.8c0.9 1.8 3 1.9 4.5 1 1.9-1 3.3-5.3 3.2-8.4 0.9-0.9 1.2-2.6 2.5-2.6 0.4 0 0.9 0.2 1.3 0.2 1.3-0.1 1.9-2.9 1.8-5.6q0-0.7-0.1-1.5c0 0 1.4-0.3 1.3-2.9-0.1-2.2-0.5-2-2.8-1.9 0-0.4 0.1-0.9 0-1.4 0-1.2-1.3-1.3-2.5-1.2-2.1 0.1-4.1 1.4-3.8 6.8 0 0.9 2 3.9 2.1 4.9 0.1 2.7-4.2 2.3-4.8 4.6 0-1 0.2-1.9-1-2.6-0.2-0.1-0.2-5.1-0.5-4.9-2 1.1-3.8 10.8-1.2 15.5z"/><path class="i" d="m206.2 84.1q0.4 0.1 0.7 0.1c0.9 0.2 1.8 0.4 2.6 0.2 0.2-0.1 0.3-0.1 0.4-0.2 0.3-1-1.9-4.7-4.2-5.5-0.9-0.3-1.6 0.2-1.8 1-0.5 1.2 1.1 3.9 2.3 4.4z"/><path class="i" d="m200.3 106.9c0.3 0.1 2 2.1 2.3 2.1 0.9 0.1-0.6-2.5 0.6-2.9 0.1-0.1 0.2-2.4 0.4-2.6 0.3-0.6 0.7-1.4 0.8-2.2q0 0 0 0c0.1 0.1 0.1 0.2 0.2 0.3 0.4 0.4 2.3 0.8 2.7 0.2 0.1-0.2-0.2-0.7-0.6-1-0.6-0.6-2-0.9-2.2-0.6q0 0 0 0c0-0.9-0.3-1.8-1.4-2.1-0.8-0.3-2.1 0.8-2.8 2.1-1.3 2-1.2 6.3 0 6.7z"/></g><path class="j" d="m194.3 110.2c-0.3 0-0.5 0.6-0.6 1.1 0 0.9 0.7 2.2 1.1 2.1q0.2 0 0.3-0.1c0.3-0.1 0.6-0.2 0.9-0.6 0.1 0 0.1-0.1 0.1-0.2 0.1-0.7-0.9-2.4-1.8-2.3z"/><path class="d" d="m199.1 115.3c0.1 2.1 1.3 4.2 6.7 4 1 0 1.9-0.3 2.8-0.3 2-0.1 3.2 1.3 4.6 2.3 0.3 1.8 2.1 5.5 2.6 6 1 1.2 4.9 1.1 6 0q0.4-0.3 0.6-0.7c0.7-0.8 1.4-1.7 1.7-2.7 0-0.2 0.1-0.4-0.1-0.5-0.2-0.3-0.9-0.7-1.8-1.2q0.3-0.2 0.6-0.3c0.1-0.1 0.3-0.2 0.3-0.4 0-1.2-4.1-4.7-7-4.7q-0.2 0-0.4 0.1c-1-0.7-2.2-1.1-2.3-2.3 0-0.4 0.3-0.9 0.3-1.3-0.1-1.3-2.9-2-5.6-1.9q-0.7 0-1.5 0.1c0 0-0.3-1.4-2.8-1.4-2.2 0.1-2 0.5-2 2.8-0.4 0-0.9-0.1-1.4-0.1-1.2 0-1.3 1.4-1.3 2.5z"/><path class="d" d="m208.7 121.3q-0.5 0-1 0.2c-1 0.1-2.1 0.4-3 0.9-0.1 0.1-0.3 0.2-0.3 0.4 0 1.2 4.2 4.5 7.1 4.5 1.1-0.1 1.7-1 1.7-2-0.1-1.5-3-4-4.5-4z"/><path class="e" d="m203.2 117.5c0.9 0 2.8-0.6 3.2-1.9 0.4-1.2-1-1.6-1.8-1.7-0.1-0.4-0.4-0.3-0.6-0.4-4.6 0.1-3.7 4.1-0.8 4z"/><path class="e" d="m206.9 116.3c0.7-0.2 2.1-1 2.2-2 0-1-1.1-1.1-1.8-1-0.1-0.3-0.4-0.2-0.5-0.2-3.6 0.9-2.1 3.8 0.1 3.2z"/><path class="e" d="m209.5 105.4c0.7-0.3 1.8-1.4 1.7-2.4-0.1-1-1.3-0.8-1.9-0.6-1.1 0.5-0.4 1.5-0.6 1.5-3.2 1.6-1.2 2.6 0.8 1.5z"/><path class="d" d="m193.5 91.6c0 1.3 0.3 3.7 1.2 4.2 0.9 0.4 1.4-1.5 1.5-2.6 0.2-2.1-1.1-1.6-0.9-1.8 0.2-6.1-1.6-3.5-1.8 0.2z"/><path class="d" d="m200.1 86.9c-0.9 0.7-1.9 2.8-0.8 4.7 1 1.9 2.9 1.4 3.8 1 1.4-1.1-0.6-2.9-0.3-2.9 4.1-3.4-0.2-5-2.7-2.8z"/><path class="e" d="m208.3 125.4c0.7 0.3 2.3 0.5 3-0.3 0.7-0.7-0.2-1.5-0.8-1.9 0.1-0.3-0.2-0.3-0.3-0.4-3.4-1.4-4 1.8-1.9 2.6z"/><path class="e" d="m207.8 118c0.4 0 1.3-0.3 1.6-0.9 0.1-0.5-0.5-0.8-0.9-0.8-0.1-0.2-0.2-0.1-0.3-0.2-2.2 0-1.8 2-0.4 1.9z"/><path class="e" d="m209.9 114.1c0.4 0.2 1.3 0.5 1.8 0.1 0.5-0.4 0-1-0.3-1.2 0.1-0.2-0.1-0.2-0.1-0.3-1.9-1.2-2.5 0.7-1.4 1.4z"/><path class="e" d="m217.4 126c0.4 0.2 1.3 0.5 1.8 0.1 0.5-0.4 0-1-0.3-1.2 0.1-0.2-0.1-0.2-0.1-0.3-1.9-1.2-2.6 0.7-1.4 1.4z"/><path class="a" d="m182.2 50.6c-1.2 1.8-22.2-6.3-29.4-7-5.5-0.6-23.9-2.5-28.7-3.5-3-0.6-4.2-33.7 32.1-29.7 27.5 3 28 37.2 26 40.2z"/><path class="b" d="m181.3 50.1c-1.2 1.8-21.7-6.1-28.7-6.8-5.4-0.6-23.4-2.5-28-3.5-3-0.6-4.3-32.3 29.1-27.8 2.3 0.3 29.6 35.2 27.6 38.1z"/><path class="c" d="m182.1 49.9c-1.3 1.9-21.8-6-28.8-6.7-5.4-0.6-23.3-2.5-28-3.5-3-0.6-4.2-32.3 29.1-27.9 2.3 0.3 29.6 35.3 27.7 38.1z"/><path class="d" d="m128.9 31.8c1.9 0.8 4.2 0.7 6.6-4.2 0.4-0.9 0.6-1.9 1-2.7 0.8-1.7 2.6-2.2 4.1-3 1.7 0.6 5.8 0.7 6.6 0.5 1.5-0.4 3.2-3.9 2.7-5.4q-0.1-0.4-0.4-0.9c-0.3-0.9-0.8-1.9-1.6-2.7-0.1 0-0.3-0.2-0.5-0.2-0.3 0.1-1 0.5-1.9 1.1q0-0.3 0-0.7c0-0.1 0-0.3-0.2-0.4-1.1-0.6-6 1.5-7.3 4.1q-0.1 0.2-0.2 0.4c-1 0.5-2 1.5-3 1-0.4-0.2-0.7-0.6-1.1-0.8-1.1-0.6-3 1.6-4.2 4q-0.3 0.7-0.6 1.4c0 0-1.4-0.4-2.5 1.9-0.9 2-0.5 2 1.5 3-0.2 0.4-0.5 0.8-0.7 1.2-0.5 1.1 0.6 1.8 1.7 2.4z"/><path class="d" d="m138.6 26q-0.2 0.4-0.3 0.9c-0.4 1-0.6 2.1-0.6 3.1 0.1 0.2 0.1 0.4 0.3 0.5 1 0.5 5.9-1.7 7.2-4.4 0.5-1-0.1-1.9-1-2.3-1.4-0.7-5 0.8-5.6 2.2z"/><path class="e" d="m146.7 20.3c0.4-0.2 1.1-0.9 0.9-1.6-0.1-0.5-0.8-0.4-1.2-0.2-0.1-0.2-0.2 0-0.3-0.1-1.9 1.2-0.5 2.7 0.6 1.9z"/><path class="e" d="m141.4 18.8c3.5 1.7 3.3-0.6 3.4-1.2 0.2-2.6-3.3-0.8-3.7-0.7-0.1-0.1-0.2 0-0.3 0-1.9 1.2-0.6 1.3 0.6 1.9z"/><path class="f" d="m181.4 50.2c-1.2 1.7-21-5.9-27.7-6.6-5.2-0.5-24.6-3-29.2-3.9-2.8-0.6 11.9-30.3 39-26.2 25.8 3.9 19.8 33.9 17.9 36.7z"/><path class="b" d="m123.9 39.8c-2 1.1 25.2 3.8 32.2 5.1 5.4 1 25.2 8 29.9 6.9 1.7-0.3 4.3-32.1-22.3-37.4-26.6-5.2-37.5 24.2-39.8 25.4z"/><path class="g" d="m125.5 38.8c-2 1 24.7 4 31.6 5.3 5.2 1 24.8 8.1 29.3 7.1 1.7-0.3 3.9-31.1-22.3-36.6-26.1-5.5-36.4 23-38.6 24.2z"/><path class="h" d="m164.1 14.6c-5.3-1.1-10-0.8-14.1 0.4q2.7 1.8 5.2 4c9.1 8.2 13.7 19 13.1 28.3 7.2 2.2 15.4 4.5 18.1 3.9 1.7-0.3 3.9-31.1-22.3-36.6z"/><g style="opacity:.5"><path class="i" d="m168.9 17.8c-2-0.3-3.4 1.2-3.7 3-0.3 2.1 2.3 5.9 4.8 7.7 0.2 1.2 1.3 2.4 0.5 3.5-0.2 0.4-0.7 0.6-0.9 0.9-0.8 1.1 1.1 3.3 3.3 4.8q0.6 0.5 1.2 0.9c0 0-0.6 1.3 1.5 2.8 1.8 1.2 1.9 0.8 3.2-1.1 0.4 0.3 0.7 0.6 1.1 0.9 1 0.7 1.9-0.3 2.6-1.3 1.2-1.7 1.4-4-3.1-7.1-0.7-0.6-4.4-0.8-5.1-1.3-2.3-1.6 0.7-4.8-0.8-6.6 0.8 0.5 1.4 1.2 2.6 0.8 0.3-0.2 4.2 2.9 4.3 2.5 0.3-2.2-6.2-9.6-11.5-10.4z"/><path class="i" d="m177.4 44q-0.4 0.2-0.6 0.5c-0.7 0.5-1.3 1.1-1.7 1.9-0.1 0.1-0.2 0.3-0.1 0.4 0.6 0.9 4.9 1.4 6.9 0.1 0.8-0.5 0.8-1.4 0.4-2.1-0.7-1.1-3.9-1.5-4.9-0.8z"/><path class="i" d="m162.9 25.4c-0.3 0.1-2.9 0.2-3.1 0.5-0.6 0.6 2.3 1 2 2.2 0 0.2 1.7 1.6 1.8 1.9 0.3 0.7 0.7 1.4 1.2 2.1q0-0.1 0-0.1c-0.1 0-0.2 0-0.3 0-0.6 0.1-2.1 1.4-1.8 2 0.1 0.3 0.6 0.3 1.1 0.2 0.8-0.2 1.9-1 1.8-1.4q0 0 0 0c0.7 0.6 1.6 0.8 2.6 0.2 0.7-0.5 0.6-2.2 0.1-3.6-0.9-2.2-4.4-4.7-5.4-4z"/></g><path class="j" d="m163.9 18.6c0.2-0.3-0.1-0.8-0.5-1.1-0.6-0.6-2.1-0.8-2.4-0.4q0 0.1 0 0.3c-0.1 0.3-0.2 0.6-0.1 1 0 0.1 0 0.2 0.1 0.3 0.5 0.4 2.5 0.6 2.9-0.1z"/><path class="d" d="m156.9 19.3c-1.6-1.3-4-1.5-7.2 2.9-0.6 0.7-0.9 1.7-1.5 2.4-1.1 1.6-2.9 1.7-4.6 2.2-1.6-0.9-5.6-1.7-6.3-1.7-1.6 0.2-3.9 3.3-3.7 4.8q0 0.5 0.2 1c0.2 1 0.5 2 1.1 2.9 0.1 0.1 0.2 0.3 0.5 0.3 0.3 0 1-0.3 2-0.7q-0.1 0.3-0.1 0.7c0 0.1-0.1 0.3 0.1 0.5 0.9 0.7 6.2-0.5 8-2.8q0.1-0.2 0.2-0.4c1.1-0.3 2.2-1 3.2-0.4 0.3 0.3 0.5 0.8 0.8 1 1.1 0.8 3.4-1 4.9-3.2q0.5-0.6 0.9-1.2c0 0 1.3 0.6 2.8-1.5 1.3-1.7 0.9-1.8-1-3.2 0.3-0.3 0.7-0.7 0.9-1.1 0.7-0.9-0.2-1.8-1.2-2.5z"/><path class="d" d="m146.4 23.2q0.2-0.4 0.4-0.9c0.5-0.9 1-1.9 1.1-2.9 0-0.2 0-0.4-0.1-0.5-1-0.8-6.2 0.6-7.9 2.9-0.7 0.9-0.2 2 0.5 2.5 1.3 0.9 5 0.1 6-1.1z"/><path class="e" d="m152.7 21.2c-0.5 0.7-1.2 2.6-0.5 3.7 0.7 1 1.9 0.2 2.5-0.4 0.4 0.2 0.5-0.2 0.7-0.2 2.7-3.7-1-5.5-2.7-3.1z"/><path class="e" d="m151.4 24.8c-0.3 0.7-0.5 2.3 0.3 3 0.7 0.7 1.5-0.2 1.9-0.8 0.3 0.1 0.3-0.2 0.4-0.3 1.4-3.4-1.8-4-2.6-1.9z"/><path class="e" d="m158.4 33.5c-0.1 0.8 0 2.4 0.9 2.9 0.9 0.5 1.5-0.5 1.7-1.2 0.2-1.1-1-1.2-0.9-1.3 0.7-3.6-1.3-2.6-1.7-0.4z"/><path class="d" d="m179.1 29.3c-0.9-0.8-3.1-2-4-1.6-0.9 0.5 0.4 2 1.2 2.8 1.5 1.4 1.8 0.1 1.9 0.3 4.7 4 3.8 0.9 0.9-1.5z"/><path class="d" d="m178.9 37.4c-0.1-1.1-1.1-3.2-3.3-3.5-2.1-0.3-2.9 1.4-3.1 2.4 0 1.8 2.7 1.3 2.5 1.5 0.2 5.3 4 2.9 3.9-0.4z"/><path class="e" d="m143.3 20.4c-0.6 0.4-1.7 1.5-1.6 2.6 0.2 0.9 1.4 0.7 2 0.5 0.2 0.2 0.4 0 0.6 0 3.1-1.8 1-4.3-1-3.1z"/><path class="e" d="m149.5 24.5c-0.3 0.4-0.6 1.3-0.2 1.8 0.3 0.5 0.9 0.1 1.2-0.2 0.1 0.1 0.2-0.1 0.3-0.1 1.3-1.8-0.5-2.6-1.3-1.5z"/><path class="e" d="m151.3 28.6c-0.4 0.2-1.2 0.8-1.2 1.4 0 0.6 0.8 0.6 1.2 0.5 0.1 0.1 0.2 0 0.3 0.1 2-0.9 1-2.5-0.3-2z"/><path class="e" d="m137.3 27.3c-0.4 0.1-1.2 0.7-1.2 1.4 0 0.6 0.8 0.5 1.2 0.4 0.1 0.2 0.2 0.1 0.3 0.1 2-0.8 1-2.4-0.3-1.9z"/><path class="a" d="m103.3 21.5c0.2 2.2-21.2 9.1-27.3 13-4.6 3.1-20.2 13-24.5 15.3-2.7 1.4-24.4-23.6 6.3-43.2 23.3-14.9 45.2 11.4 45.5 14.9z"/><path class="b" d="m102.3 21.7c0.2 2.2-20.7 8.9-26.7 12.7-4.5 3-19.7 12.8-23.9 14.9-2.7 1.4-23.6-22.5 5.2-40 1.9-1.2 45.1 9 45.4 12.4z"/><path class="c" d="m102.8 21.1c0.2 2.2-20.7 8.9-26.7 12.8-4.5 2.9-19.7 12.7-24 14.9-2.6 1.4-23.5-22.5 5.3-40 1.9-1.2 45.1 8.9 45.4 12.3z"/><path class="d" d="m50 40.3c2-0.4 3.7-2.1 2.5-7.4-0.2-0.9-0.7-1.7-0.9-2.6-0.5-1.9 0.6-3.4 1.3-5 1.7-0.6 5-3.1 5.4-3.7 0.9-1.3 0.1-5.1-1.2-5.9q-0.4-0.3-0.8-0.5c-1-0.5-1.9-0.9-3-1.1-0.2 0.1-0.4 0-0.5 0.2-0.2 0.2-0.5 1-0.8 2q-0.2-0.2-0.4-0.5c-0.2-0.1-0.3-0.3-0.5-0.2-1.2 0.2-3.7 4.9-3.1 7.8q0 0.2 0.1 0.4c-0.4 1-0.6 2.4-1.7 2.7-0.4 0-0.9-0.1-1.4 0-1.2 0.3-1.3 3.2-0.7 5.8q0.2 0.7 0.3 1.4c0 0-1.3 0.6-0.7 3.1 0.5 2.1 0.9 1.9 3.1 1.4 0.1 0.4 0.1 0.9 0.2 1.4 0.3 1.1 1.6 1 2.8 0.7z"/><path class="d" d="m53.9 29.8q0.1 0.4 0.3 0.9c0.4 1 0.8 1.9 1.6 2.7 0.1 0.1 0.2 0.3 0.5 0.3 1.1-0.3 3.5-5.1 2.8-8-0.2-1-1.3-1.4-2.2-1.2-1.5 0.4-3.4 3.8-3 5.3z"/><path class="e" d="m56.7 20.2c0.1-0.4 0.2-1.4-0.3-1.8-0.5-0.3-0.9 0.2-1.1 0.6-0.2-0.1-0.2 0.1-0.3 0.2-0.7 2 1.2 2.3 1.7 1z"/><path class="e" d="m51.6 22.3c3.8-0.8 2.2-2.4 1.8-3-1.4-2.1-3 1.4-3.2 1.8-0.2-0.1-0.2 0.1-0.3 0.2-0.7 2.1 0.3 1.3 1.7 1z"/><path class="f" d="m102.4 21.7c0.2 2.1-20 8.6-25.7 12.3-4.4 2.9-21 13.1-25.1 15.3-2.6 1.3-9.8-31.1 13.9-44.9 22.5-13.2 36.7 14 36.9 17.3z"/><path class="b" d="m51.2 49.7c-1 2.1 22-12.8 28.2-16.2 4.8-2.6 24.7-9.6 27.6-13.4 1.1-1.3-16.7-27.7-40.8-15.1-24 12.6-14 42.3-15 44.7z"/><path class="g" d="m51.7 47.9c-0.9 2.1 21.8-12.3 28-15.6 4.7-2.6 24.4-9.3 27.3-12.9 1.1-1.3-16.5-26.7-40.3-14.5-23.8 12.1-14 40.7-15 43z"/><path class="h" d="m66.7 4.9c-4.9 2.4-8.3 5.6-10.8 9.1q3.2-0.3 6.6-0.1c12.2 0.7 22.5 6.2 27.9 13.8 7-2.8 14.8-6.1 16.6-8.3 1.1-1.3-16.5-26.7-40.3-14.5z"/><g style="opacity:.5"><path class="i" d="m72.3 4.4c-1.7 1-1.8 3.1-0.9 4.6 1.1 1.9 5.4 3.2 8.5 3 0.9 0.8 2.6 1.1 2.7 2.4 0 0.4-0.3 0.9-0.2 1.3 0.1 1.3 2.9 1.9 5.6 1.7q0.7-0.1 1.5-0.1c0 0 0.3 1.3 2.9 1.2 2.2-0.2 2-0.6 1.8-2.8 0.4-0.1 1 0 1.4 0 1.2-0.1 1.3-1.5 1.2-2.6-0.1-2.1-1.4-4.1-6.9-3.7-0.9 0.1-3.9 2.2-4.8 2.2-2.7 0.2-2.4-4.1-4.7-4.6 1-0.1 1.8 0.1 2.5-1.1 0.1-0.2 5.1-0.3 4.9-0.7-1.1-1.9-10.8-3.5-15.5-0.8z"/><path class="i" d="m95.4 19.4q-0.1 0.4-0.2 0.8c-0.1 0.8-0.3 1.7-0.1 2.6 0.1 0.1 0.1 0.3 0.3 0.3 0.9 0.3 4.6-2 5.4-4.3 0.3-0.8-0.3-1.6-1.1-1.8-1.2-0.4-3.9 1.2-4.3 2.4z"/><path class="i" d="m72.4 14.1c-0.1 0.2-2.1 2-2 2.3-0.2 0.9 2.4-0.7 2.9 0.5 0.1 0.1 2.3 0.1 2.6 0.3 0.6 0.3 1.4 0.7 2.2 0.8q0 0 0 0c-0.1 0.1-0.2 0.1-0.2 0.2-0.5 0.5-0.8 2.3-0.2 2.7 0.2 0.1 0.7-0.2 1-0.6 0.5-0.6 0.8-2 0.5-2.2q0 0 0 0c1 0 1.8-0.4 2.1-1.5 0.3-0.8-0.8-2-2.1-2.8-2.1-1.2-6.4-1-6.8 0.3z"/></g><path class="j" d="m69 8.1c0-0.3-0.6-0.5-1.1-0.5-0.9-0.1-2.2 0.7-2.1 1.1q0 0.1 0.1 0.3c0.1 0.3 0.3 0.6 0.6 0.9 0.1 0 0.1 0.1 0.3 0.1 0.6 0 2.3-1.1 2.2-1.9z"/><path class="d" d="m64 13c-2.1 0.1-4.1 1.4-3.9 6.8 0.1 0.9 0.4 1.9 0.5 2.8 0.1 1.9-1.3 3.2-2.3 4.6-1.8 0.3-5.4 2.2-6 2.7-1.1 1.1-0.9 5 0.2 6.1q0.3 0.3 0.7 0.6c0.8 0.6 1.7 1.3 2.8 1.6 0.1 0 0.3 0 0.5-0.1 0.2-0.2 0.6-0.9 1.1-1.9q0.2 0.3 0.3 0.7c0.1 0.1 0.3 0.3 0.5 0.3 1.2-0.1 4.5-4.2 4.5-7.2q-0.1-0.2-0.1-0.4c0.6-0.9 1-2.2 2.2-2.3 0.4 0 0.9 0.2 1.3 0.2 1.3 0 1.9-2.9 1.8-5.6q-0.1-0.7-0.1-1.5c0 0 1.4-0.3 1.3-2.8-0.1-2.2-0.5-2-2.8-1.9 0-0.5 0-1 0-1.5 0-1.1-1.4-1.3-2.5-1.2z"/><path class="d" d="m58.2 22.7q0-0.5-0.2-1c-0.2-1-0.4-2.1-1-3-0.1-0.1-0.2-0.3-0.4-0.3-1.2 0.1-4.4 4.4-4.3 7.3 0.1 1.1 1 1.7 2 1.6 1.5-0.1 4-3.1 3.9-4.6z"/><path class="e" d="m61.9 17.1c0 1 0.7 2.8 1.9 3.2 1.2 0.4 1.6-1 1.7-1.8 0.5-0.1 0.3-0.5 0.4-0.6-0.2-4.6-4.2-3.6-4-0.8z"/><path class="e" d="m63.1 20.8c0.2 0.7 1.1 2.1 2.1 2.1 1 0.1 1.1-1.1 1-1.7 0.3-0.2 0.1-0.4 0.2-0.6-1-3.5-3.9-2-3.3 0.2z"/><path class="e" d="m74.1 23.2c0.3 0.7 1.5 1.8 2.5 1.6 1-0.1 0.8-1.3 0.6-1.9-0.6-1.1-1.6-0.4-1.6-0.5-1.7-3.2-2.6-1.2-1.5 0.8z"/><path class="d" d="m87.6 6.9c-1.3 0-3.7 0.3-4.2 1.3-0.4 0.9 1.6 1.3 2.7 1.5 2 0 1.5-1.2 1.7-1.1 6.1 0.2 3.5-1.6-0.2-1.7z"/><path class="d" d="m92.5 13.4c-0.8-0.9-3-1.8-4.8-0.7-1.8 1.1-1.4 2.9-0.9 3.8 1.1 1.4 2.9-0.7 2.8-0.4 3.6 4 5.1-0.2 2.9-2.7z"/><path class="e" d="m54.1 22.4c-0.3 0.7-0.4 2.3 0.4 3 0.7 0.7 1.5-0.2 1.8-0.8 0.3 0.1 0.3-0.3 0.5-0.3 1.3-3.4-1.9-4-2.7-1.9z"/><path class="e" d="m61.5 21.7c0 0.5 0.3 1.4 0.9 1.6 0.6 0.2 0.8-0.5 0.8-0.9 0.2-0.1 0.1-0.2 0.2-0.3-0.1-2.2-2-1.7-1.9-0.4z"/><path class="e" d="m65.4 23.8c-0.2 0.4-0.4 1.3 0 1.8 0.4 0.5 0.9 0 1.2-0.3 0.2 0.1 0.2-0.1 0.3-0.2 1.1-1.9-0.8-2.5-1.5-1.3z"/><path class="e" d="m53.7 31.6c-0.2 0.4-0.4 1.3 0 1.8 0.4 0.4 0.9 0 1.1-0.4 0.2 0.1 0.3-0.1 0.4-0.1 1-1.9-0.8-2.5-1.5-1.3z"/><path class="a" d="m35.2 67.9c2.1 0.9-1.9 23-1.2 30.2 0.4 5.6 2 24 1.9 28.9 0 3-32.2 10.5-35.2-25.8-2.3-27.6 31.3-34.7 34.5-33.3z"/><path class="b" d="m34.9 68.9c2 0.9-1.8 22.5-1.2 29.5 0.5 5.4 2 23.4 1.9 28.2 0 3-30.9 10.3-32.9-23.4-0.1-2.2 29-35.6 32.2-34.3z"/><path class="c" d="m34.6 68.2c2.1 0.9-1.8 22.5-1.2 29.6 0.5 5.3 2 23.3 2 28.1-0.1 3-31 10.3-33-23.3-0.1-2.3 29.1-35.7 32.2-34.4z"/><path class="d" d="m26.9 123.9c0.5-2-0.1-4.3-5.4-5.7-0.9-0.2-1.9-0.2-2.8-0.5-1.8-0.4-2.6-2.1-3.7-3.5 0.2-1.8-0.4-5.8-0.8-6.5-0.7-1.4-4.4-2.4-5.8-1.7q-0.4 0.2-0.8 0.6c-0.9 0.5-1.7 1.2-2.3 2.1-0.1 0.1-0.2 0.3-0.1 0.5 0.1 0.3 0.7 0.9 1.4 1.7q-0.3 0-0.7 0.1c-0.1 0-0.3 0.1-0.4 0.3-0.3 1.1 2.6 5.6 5.5 6.4q0.2 0.1 0.4 0.1c0.7 0.9 1.8 1.6 1.5 2.8-0.1 0.4-0.5 0.7-0.6 1.2-0.3 1.2 2.2 2.7 4.8 3.3q0.7 0.2 1.5 0.4c0 0-0.2 1.4 2.3 2.1 2.1 0.5 2.1 0.1 2.7-2.1 0.4 0.1 0.8 0.3 1.3 0.4 1.2 0.3 1.7-0.9 2-2z"/><path class="d" d="m19.4 115.5q0.4 0.1 0.9 0.1c1.1 0.1 2.1 0.2 3.2-0.1 0.1-0.1 0.4-0.1 0.4-0.3 0.3-1.2-2.8-5.5-5.6-6.3-1.1-0.2-1.9 0.5-2.2 1.5-0.4 1.5 1.8 4.7 3.3 5.1z"/><path class="e" d="m12.2 108.5c-0.3-0.3-1.1-0.8-1.7-0.6-0.5 0.3-0.2 0.9 0 1.3-0.1 0.1 0 0.2 0 0.3 1.5 1.6 2.7 0 1.7-1z"/><path class="e" d="m11.7 114c1.1-3.7-1.1-3.1-1.8-3-2.6 0.3-0.2 3.3 0.1 3.7-0.2 0.1 0 0.2 0 0.3 1.5 1.6 1.4 0.3 1.7-1z"/><path class="f" d="m35 68.8c1.9 0.8-1.8 21.7-1.2 28.5 0.5 5.2 1.8 24.7 1.7 29.3 0 2.9-32-5.9-33.1-33.2-1.1-26.1 29.5-25.9 32.6-24.6z"/><path class="b" d="m35.7 127.2c1.4 1.8-1-25.5-1.1-32.5-0.1-5.5 3.1-26.3 1.2-30.7-0.7-1.6-32.4 1.8-32.6 29-0.1 27.1 30.9 32.2 32.5 34.2z"/><path class="g" d="m34.4 125.9c1.4 1.8-0.7-25-0.8-32 0-5.4 3.3-25.9 1.5-30.2-0.7-1.6-31.3 2.1-31.8 28.8-0.4 26.7 29.5 31.4 31.1 33.4z"/><path class="h" d="m3.3 92.5c0 5.5 1.2 10 3.1 13.8q1.2-3 3-5.9c6.3-10.4 16-17 25.3-18.2 0.7-7.5 1.5-15.9 0.4-18.5-0.7-1.6-31.3 2.1-31.8 28.8z"/><g style="opacity:.5"><path class="i" d="m5.6 87.3c0 2 1.8 3 3.6 3 2.2-0.1 5.4-3.4 6.7-6.1 1.1-0.5 2.1-1.8 3.3-1.3 0.4 0.2 0.7 0.6 1.1 0.8 1.2 0.5 3-1.7 4.1-4.2q0.3-0.6 0.6-1.3c0 0 1.4 0.3 2.4-2 0.9-2 0.5-2-1.6-3 0.2-0.4 0.5-0.8 0.7-1.2 0.4-1.1-0.7-1.8-1.8-2.3-1.9-0.8-4.2-0.6-6.4 4.4-0.4 0.8 0 4.4-0.3 5.3-1.2 2.5-4.8 0.2-6.4 2 0.4-0.9 1-1.6 0.3-2.8-0.2-0.2 2.1-4.6 1.7-4.6-2.2 0.1-8.2 7.9-8 13.3z"/><path class="i" d="m29.6 74q0.3 0.2 0.7 0.4c0.6 0.6 1.3 1.1 2.2 1.4 0.1 0 0.3 0 0.4-0.1 0.7-0.7 0.4-5.1-1.3-6.8-0.6-0.6-1.5-0.4-2 0.1-1 0.9-0.8 4 0 5z"/><path class="i" d="m14.2 91.7c0.2 0.2 0.8 2.8 1 2.9 0.8 0.6 0.6-2.4 1.9-2.3 0.2-0.1 1.2-2 1.5-2.2 0.6-0.4 1.2-0.9 1.7-1.6q0 0.1 0 0.1c0 0.1 0 0.2 0 0.3 0.3 0.5 1.8 1.7 2.4 1.4 0.2-0.2 0.1-0.7-0.1-1.2-0.3-0.7-1.3-1.7-1.7-1.5q0 0 0 0c0.4-0.8 0.5-1.7-0.3-2.5-0.6-0.7-2.2-0.2-3.5 0.6-2 1.3-3.8 5.1-2.9 6z"/></g><path class="j" d="m7.3 92c-0.3-0.1-0.7 0.3-1 0.7-0.4 0.7-0.4 2.2 0 2.4q0.2 0 0.3 0c0.4 0.1 0.7 0.1 1.1-0.1 0.1 0 0.2-0.1 0.2-0.2 0.4-0.5 0.2-2.6-0.6-2.8z"/><path class="d" d="m9.3 98.7c-0.9 1.9-0.7 4.3 4.2 6.6 0.8 0.4 1.8 0.5 2.7 0.9 1.7 0.8 2.2 2.6 3 4.1-0.6 1.8-0.6 5.9-0.4 6.6 0.4 1.5 3.9 3.2 5.4 2.7q0.5-0.1 0.9-0.4c0.9-0.4 1.9-0.9 2.7-1.6 0-0.2 0.2-0.3 0.1-0.5 0-0.3-0.5-1-1.1-1.9q0.4 0 0.7 0c0.2 0 0.4 0 0.5-0.2 0.5-1.1-1.6-6-4.2-7.3q-0.2-0.1-0.4-0.2c-0.5-1-1.5-1.9-1-3 0.2-0.4 0.6-0.7 0.8-1.1 0.5-1.1-1.7-3-4.1-4.1q-0.7-0.4-1.4-0.7c0 0 0.4-1.3-1.9-2.4-2-1-2-0.6-3 1.5-0.4-0.2-0.8-0.5-1.2-0.7-1.1-0.5-1.8 0.6-2.3 1.7z"/><path class="d" d="m15.1 108.3q-0.4-0.2-0.9-0.2c-1-0.4-2-0.6-3.1-0.6-0.2 0.1-0.4 0.1-0.5 0.3-0.5 1.1 1.8 5.9 4.4 7.2 1 0.4 2-0.2 2.4-1 0.6-1.4-0.9-5-2.3-5.7z"/><path class="e" d="m11.9 102.5c0.9 0.4 2.9 0.7 3.8-0.2 0.9-0.9-0.2-1.9-0.9-2.4 0.2-0.4-0.2-0.5-0.3-0.6-4.2-2-5.2 2-2.6 3.2z"/><path class="e" d="m15.8 103.1c0.7 0.2 2.3 0 2.8-0.9 0.6-0.8-0.4-1.4-1.1-1.6 0.1-0.4-0.3-0.3-0.4-0.5-3.5-0.7-3.5 2.6-1.3 3z"/><path class="e" d="m23 94.6c0.8-0.1 2.3-0.5 2.6-1.5 0.4-0.9-0.8-1.3-1.4-1.4-1.2 0-1 1.2-1.2 1.1-3.6 0-2.3 1.8 0 1.8z"/><path class="d" d="m14.9 75c-0.6 1.1-1.4 3.4-0.8 4.2 0.6 0.8 1.9-0.7 2.6-1.6 1-1.7-0.3-1.9-0.1-2 3-5.3 0.2-3.9-1.7-0.6z"/><path class="d" d="m22.9 73.7c-1 0.3-2.9 1.7-2.8 3.9 0.1 2.1 2 2.6 3 2.6 1.7-0.4 0.7-2.9 0.9-2.7 5.2-1.3 2.2-4.6-1.1-3.8z"/><path class="e" d="m13 111.9c0.5 0.5 1.8 1.4 2.8 1 0.9-0.3 0.5-1.4 0.1-2 0.2-0.2 0-0.4 0-0.6-2.4-2.7-4.4-0.1-2.9 1.6z"/><path class="e" d="m15.8 105c0.4 0.2 1.4 0.3 1.8-0.1 0.5-0.4-0.1-0.9-0.4-1.1 0.1-0.2-0.1-0.2-0.1-0.3-2-1-2.5 0.9-1.3 1.5z"/><path class="e" d="m19.5 102.5c0.3 0.3 1 1 1.6 0.8 0.6-0.1 0.4-0.8 0.3-1.1 0.1-0.2 0-0.3 0-0.4-1.2-1.8-2.6-0.5-1.9 0.7z"/><path class="e" d="m20.9 116.5c0.2 0.3 0.9 1 1.6 0.8 0.5-0.1 0.4-0.8 0.2-1.1 0.2-0.2 0-0.3 0-0.4-1.2-1.8-2.6-0.5-1.8 0.7z"/><path class="a" d="m114.7 141.7c-2.2 0.4-11.4-20.1-16-25.6-3.5-4.3-15.2-18.6-17.9-22.7-1.7-2.6 20.7-27 43.6 1.4 17.5 21.4-6.2 46.2-9.7 46.9z"/><path class="b" d="m114.4 140.7c-2.1 0.4-11.2-19.6-15.6-25-3.5-4.2-14.9-18.2-17.5-22.2-1.7-2.5 19.7-26 40.3 0.7 1.4 1.8-3.8 45.8-7.2 46.5z"/><path class="c" d="m115 141.1c-2.1 0.4-11.2-19.6-15.6-25-3.5-4.2-14.9-18.2-17.5-22.2-1.7-2.5 19.7-25.9 40.3 0.7 1.4 1.8-3.8 45.9-7.2 46.5z"/><path class="d" d="m90 90.8c0.7 2 2.5 3.5 7.6 1.7 0.9-0.3 1.7-0.9 2.6-1.2 1.8-0.7 3.4 0.3 5.1 0.7 0.8 1.7 3.6 4.6 4.3 5 1.3 0.7 5-0.5 5.7-1.9q0.3-0.4 0.4-0.9c0.4-0.9 0.7-2 0.7-3.1 0-0.1 0-0.3-0.2-0.4-0.3-0.2-1.1-0.4-2.1-0.6q0.2-0.2 0.5-0.5c0.1-0.1 0.2-0.3 0.2-0.5-0.4-1.1-5.4-3.1-8.2-2.2q-0.2 0.1-0.4 0.2c-1-0.3-2.4-0.3-2.8-1.4-0.1-0.4 0-1-0.2-1.4-0.4-1.1-3.3-0.9-5.8 0q-0.7 0.2-1.4 0.5c0 0-0.7-1.3-3.2-0.4-2 0.8-1.7 1-1 3.2-0.4 0.1-0.9 0.2-1.3 0.4-1.2 0.4-0.9 1.7-0.5 2.8z"/><path class="d" d="m101 93.5q-0.5 0.2-0.9 0.5c-0.9 0.4-1.9 1-2.6 1.8 0 0.1-0.2 0.3-0.1 0.5 0.4 1.1 5.4 3 8.2 2 1-0.4 1.2-1.5 0.9-2.4-0.5-1.5-4.1-2.9-5.5-2.4z"/><path class="e" d="m110.8 95.2c0.4 0.1 1.4 0.1 1.7-0.5 0.3-0.5-0.3-0.8-0.7-1 0.1-0.2-0.1-0.2-0.2-0.3-2.1-0.4-2.2 1.5-0.8 1.8z"/><path class="e" d="m108.1 90.4c1.2 3.7 2.7 1.9 3.2 1.5 2-1.7-1.8-2.9-2.1-3 0-0.2-0.2-0.2-0.3-0.3-2.1-0.5-1.3 0.5-0.8 1.8z"/><path class="f" d="m114.4 140.8c-2.1 0.4-10.8-18.9-15.1-24.1-3.3-4.1-15.4-19.5-18-23.3-1.6-2.4 29.8-13.2 46.2 8.8 15.6 20.9-9.8 38-13.1 38.6z"/><path class="b" d="m80.8 93.1c-2.2-0.7 15.3 20.4 19.3 26.2 3.2 4.4 12.4 23.4 16.4 25.9 1.4 0.9 25.7-19.7 10.5-42.2-15.2-22.5-43.7-9.2-46.2-9.9z"/><path class="g" d="m82.7 93.4c-2.2-0.7 14.7 20.2 18.7 26 3 4.4 11.9 23.2 15.8 25.7 1.4 0.9 24.7-19.4 9.9-41.7-14.7-22.3-42-9.3-44.4-10z"/><path class="h" d="m127.1 103.4c-3-4.6-6.5-7.6-10.3-9.6q0.7 3.1 0.9 6.5c0.7 12.1-3.6 23-10.6 29.3 3.6 6.6 7.8 14 10.1 15.5 1.4 0.9 24.7-19.4 9.9-41.7z"/><g style="opacity:.5"><path class="i" d="m128.3 109c-1.2-1.7-3.3-1.5-4.7-0.5-1.8 1.3-2.6 5.8-2.1 8.9-0.6 1-0.8 2.6-2.1 2.9-0.4 0-0.9-0.1-1.3-0.1-1.2 0.3-1.5 3.2-1 5.8q0.1 0.7 0.3 1.5c0 0-1.4 0.5-0.9 3 0.4 2.1 0.7 1.9 3 1.5 0.1 0.4 0.1 0.9 0.2 1.4 0.2 1.2 1.5 1.1 2.7 0.9 2-0.4 3.8-1.9 2.9-7.3-0.2-0.9-2.6-3.6-2.8-4.5-0.5-2.7 3.8-2.9 4.1-5.2 0.2 0.9 0.1 1.8 1.3 2.4 0.3 0 0.9 5 1.2 4.8 1.8-1.4 2.4-11.2-0.8-15.5z"/><path class="i" d="m115.9 133.6q-0.4-0.1-0.8-0.1c-0.8-0.1-1.7-0.1-2.6 0.2-0.1 0.1-0.2 0.1-0.3 0.3-0.2 0.9 2.6 4.4 4.9 4.9 0.9 0.1 1.5-0.5 1.7-1.3 0.3-1.2-1.6-3.8-2.9-4z"/><path class="i" d="m118.7 110.2c-0.3-0.1-2.3-1.9-2.6-1.8-0.9 0 0.9 2.4-0.1 3-0.2 0.1 0.1 2.3-0.1 2.6-0.3 0.6-0.5 1.5-0.6 2.3q0-0.1 0-0.1c0 0 0-0.1-0.1-0.2-0.6-0.3-2.5-0.5-2.7 0.2-0.1 0.2 0.2 0.6 0.6 0.9 0.7 0.5 2.1 0.6 2.3 0.3q0 0 0 0c0.1 0.9 0.6 1.7 1.7 1.9 0.9 0.2 1.9-1.1 2.5-2.5 1-2.2 0.3-6.4-0.9-6.6z"/></g><path class="j" d="m124.2 106.1c0.3-0.1 0.4-0.7 0.4-1.2-0.1-0.8-0.9-2.1-1.4-1.9q-0.1 0-0.2 0.1c-0.3 0.2-0.6 0.4-0.9 0.7 0 0.1-0.1 0.2 0 0.3 0 0.6 1.3 2.2 2.1 2z"/><path class="d" d="m118.7 101.6c-0.3-2-1.8-3.9-7.1-3-1 0.2-1.9 0.6-2.8 0.7-1.9 0.3-3.3-0.9-4.8-1.6-0.5-1.8-2.8-5.2-3.4-5.7-1.2-1-5-0.4-6 0.8q-0.3 0.4-0.5 0.8c-0.6 0.9-1.1 1.8-1.3 2.9 0.1 0.2 0 0.4 0.2 0.5 0.2 0.2 1 0.6 2 1q-0.4 0.1-0.6 0.3c-0.1 0.1-0.3 0.3-0.3 0.5 0.2 1.2 4.7 4 7.6 3.6q0.2 0 0.4-0.1c1 0.6 2.4 0.8 2.5 2 0.1 0.4-0.1 0.9 0 1.3 0.2 1.2 3.1 1.6 5.7 1.1q0.8-0.1 1.5-0.2c0 0 0.5 1.3 3 0.9 2.2-0.3 2-0.7 1.6-2.9 0.4-0.1 0.9-0.1 1.4-0.2 1.2-0.2 1.1-1.5 0.9-2.7z"/><path class="d" d="m108.5 97q0.5-0.1 0.9-0.3c1-0.3 2-0.7 2.9-1.3 0.1-0.2 0.3-0.3 0.2-0.5-0.2-1.2-4.8-3.9-7.7-3.4-1.1 0.2-1.5 1.2-1.4 2.1 0.3 1.6 3.6 3.6 5.1 3.4z"/><path class="e" d="m114.4 100c-0.9 0.2-2.7 1-3 2.3-0.2 1.3 1.3 1.5 2.1 1.5 0.1 0.4 0.5 0.2 0.6 0.3 4.6-0.7 3.1-4.5 0.3-4.1z"/><path class="e" d="m110.9 101.7c-0.7 0.3-1.9 1.3-1.9 2.3 0.1 1 1.2 0.9 1.9 0.8 0.2 0.3 0.4 0.1 0.5 0.1 3.4-1.4 1.6-4.1-0.5-3.2z"/><path class="e" d="m109.7 112.8c-0.6 0.5-1.5 1.7-1.3 2.7 0.3 1 1.4 0.6 2 0.4 1-0.7 0.2-1.6 0.3-1.6 3-2.1 0.9-2.8-1-1.5z"/><path class="d" d="m127.5 124.4c-0.1-1.2-0.8-3.6-1.8-3.9-0.9-0.3-1.1 1.6-1.1 2.7 0.1 2 1.2 1.4 1.2 1.7 0.5 6 2 3.2 1.7-0.5z"/><path class="d" d="m121.6 130c0.7-0.8 1.5-3.1 0.1-4.9-1.3-1.6-3-0.9-3.9-0.4-1.2 1.3 1.1 2.8 0.7 2.8-3.5 4 0.9 5 3.1 2.5z"/><path class="e" d="m108.3 92.9c-0.8-0.2-2.4-0.2-2.9 0.7-0.6 0.8 0.4 1.5 1 1.7-0.1 0.4 0.2 0.3 0.3 0.5 3.6 0.9 3.8-2.4 1.6-2.9z"/><path class="e" d="m109.8 100.1c-0.5 0.1-1.3 0.5-1.5 1.1-0.1 0.6 0.6 0.7 1 0.8 0.1 0.2 0.3 0.1 0.3 0.1 2.2-0.3 1.5-2.2 0.2-2z"/><path class="e" d="m108.2 104.3c-0.4-0.2-1.4-0.3-1.8 0.2-0.4 0.4 0.1 0.9 0.4 1.1 0 0.2 0.2 0.2 0.2 0.3 2 0.9 2.4-1 1.2-1.6z"/><path class="e" d="m99.2 93.5c-0.5-0.1-1.4-0.3-1.9 0.2-0.4 0.4 0.2 0.9 0.5 1.1-0.1 0.2 0.1 0.2 0.2 0.3 2 0.9 2.4-1 1.2-1.6z"/><path class="a" d="m47.8 175.4c1.6-1.7 21.2 9.3 28.2 11.1 5.3 1.4 23.2 6 27.8 7.6 2.9 1.1-0.6 34-35.9 24.8-26.8-6.9-22.4-40.9-20.1-43.5z"/><path class="b" d="m48.7 176c1.5-1.6 20.6 9.1 27.5 10.9 5.2 1.3 22.7 5.8 27.2 7.4 2.8 1-0.5 32.6-32.9 23.4-2.2-0.6-24.1-39.2-21.8-41.7z"/><path class="c" d="m47.9 176c1.5-1.6 20.7 9.2 27.5 10.9 5.3 1.3 22.8 5.8 27.3 7.4 2.8 1-0.5 32.6-32.9 23.4-2.2-0.6-24.2-39.1-21.9-41.7z"/><path class="d" d="m97.9 201.7c-1.7-1.2-4.1-1.4-7.1 3.1-0.5 0.8-0.8 1.8-1.3 2.5-1.1 1.6-2.9 1.8-4.6 2.4-1.6-0.8-5.6-1.5-6.4-1.4-1.5 0.2-3.7 3.4-3.5 4.9q0.1 0.5 0.3 1c0.2 1 0.5 2 1.2 2.9 0.1 0.1 0.2 0.3 0.4 0.2 0.4 0 1.1-0.3 2.1-0.8q-0.1 0.3-0.1 0.7c0 0.1-0.1 0.4 0.1 0.5 1 0.7 6.2-0.7 7.9-3q0.1-0.2 0.2-0.4c1.1-0.4 2.2-1.2 3.1-0.5 0.4 0.2 0.6 0.7 0.9 0.9 1.1 0.7 3.3-1.2 4.8-3.4q0.4-0.6 0.8-1.2c0 0 1.3 0.5 2.8-1.6 1.2-1.8 0.8-1.9-1.1-3.2 0.2-0.3 0.6-0.7 0.9-1.1 0.6-1-0.4-1.9-1.4-2.5z"/><path class="d" d="m87.5 206q0.3-0.4 0.4-0.9c0.5-0.9 1-1.9 1-3 0-0.1 0-0.4-0.1-0.5-1-0.7-6.2 0.9-7.8 3.3-0.6 0.9-0.1 1.9 0.6 2.5 1.3 0.8 5.1-0.1 5.9-1.4z"/><path class="e" d="m78.6 210.4c-0.4 0.2-1.1 0.8-1.1 1.5 0 0.6 0.8 0.5 1.2 0.4 0.1 0.2 0.2 0 0.3 0.1 2-0.9 0.9-2.5-0.4-2z"/><path class="e" d="m83.7 212.7c-3.2-2.2-3.4 0.1-3.5 0.7-0.6 2.6 3.1 1.3 3.5 1.2 0.1 0.2 0.2 0 0.3 0.1 2-0.9 0.8-1.2-0.3-2z"/><path class="f" d="m48.6 175.9c1.4-1.6 19.9 8.8 26.5 10.5 5.1 1.3 24 6.5 28.3 8 2.7 1-16.1 28.3-42.3 20.4-25-7.6-14.7-36.5-12.5-38.9z"/><path class="b" d="m104 194.4c2.2-0.7-24.4-7.4-31.1-9.6-5.2-1.8-23.8-11.6-28.6-11.2-1.7 0.1-8.9 31.1 16.7 40.2 25.5 9.1 40.5-18.5 43-19.4z"/><path class="g" d="m102.3 195.2c2.2-0.7-23.9-7.5-30.5-9.8-5-1.7-23.4-11.6-28-11.3-1.7 0.1-8.3 30.3 16.8 39.5 25.1 9.1 39.3-17.6 41.7-18.4z"/><path class="h" d="m60.6 213.6c5.1 1.8 9.8 2.2 14 1.6q-2.4-2.1-4.6-4.7c-7.7-9.4-10.7-20.7-8.8-29.9-6.9-3.2-14.6-6.7-17.4-6.5-1.7 0.1-8.3 30.3 16.8 39.5z"/><g style="opacity:.5"><path class="i" d="m56.4 209.7c1.9 0.6 3.5-0.7 4-2.4 0.6-2.1-1.4-6.2-3.6-8.3 0-1.2-0.9-2.6 0-3.6 0.2-0.3 0.8-0.4 1.1-0.7 0.8-1-0.7-3.5-2.6-5.3q-0.6-0.5-1.1-1c0 0 0.7-1.2-1.1-3-1.6-1.4-1.8-1.1-3.3 0.6-0.3-0.3-0.7-0.7-1-1-0.9-0.8-1.9 0-2.7 0.9-1.4 1.5-2 3.8 2 7.5 0.7 0.7 4.2 1.4 4.9 2 2 1.9-1.4 4.6-0.2 6.7-0.7-0.7-1.2-1.5-2.5-1.2-0.3 0.1-3.7-3.5-3.8-3.1-0.7 2.1 4.7 10.4 9.9 11.9z"/><path class="i" d="m51.7 182.6q0.4-0.1 0.7-0.4c0.7-0.4 1.4-1 2-1.7 0-0.1 0.1-0.2 0-0.4-0.4-0.9-4.6-2-6.8-1-0.8 0.3-0.9 1.3-0.6 2 0.5 1.1 3.6 2.1 4.7 1.5z"/><path class="i" d="m63.4 203.1c0.2-0.1 2.9 0.2 3.1-0.1 0.7-0.5-2.2-1.3-1.6-2.5 0-0.2-1.5-1.8-1.6-2.1-0.1-0.7-0.4-1.5-0.9-2.2q0.1 0 0.1 0c0 0.1 0.1 0.1 0.2 0.1 0.7 0 2.3-1 2.1-1.7 0-0.3-0.6-0.4-1.1-0.4-0.8 0.1-2 0.8-1.9 1.1q0 0 0 0c-0.7-0.6-1.5-1-2.6-0.5-0.8 0.4-0.9 2.1-0.5 3.5 0.5 2.4 3.5 5.3 4.7 4.8z"/></g><path class="j" d="m61.4 209.6c-0.2 0.3 0 0.8 0.3 1.2 0.6 0.7 2 1.1 2.3 0.8q0.1-0.1 0.1-0.3c0.2-0.3 0.3-0.6 0.3-1 0-0.1 0-0.2-0.1-0.3-0.4-0.5-2.4-1-2.9-0.4z"/><path class="d" d="m68.4 210c1.5 1.4 3.8 2.1 7.6-1.8 0.6-0.7 1.1-1.6 1.8-2.2 1.3-1.4 3.1-1.3 4.8-1.6 1.5 1.2 5.3 2.6 6.1 2.6 1.5 0.1 4.3-2.6 4.4-4.2q0-0.5-0.1-1c-0.1-1-0.2-2.1-0.7-3-0.1-0.2-0.2-0.4-0.4-0.4-0.3 0-1.2 0.2-2.2 0.4q0.2-0.3 0.3-0.6c0-0.2 0.1-0.4-0.1-0.5-0.8-0.9-6.2-0.5-8.3 1.5q-0.1 0.2-0.2 0.4c-1.2 0.1-2.4 0.7-3.2-0.1-0.3-0.3-0.5-0.8-0.8-1.1-0.9-0.9-3.4 0.6-5.3 2.5q-0.5 0.5-1 1.1c0 0-1.2-0.8-3 1-1.5 1.6-1.1 1.7 0.5 3.3-0.3 0.3-0.7 0.6-1 1-0.9 0.8-0.1 1.9 0.8 2.7z"/><path class="d" d="m79.4 207.7q-0.3 0.3-0.6 0.7c-0.6 0.9-1.2 1.8-1.5 2.8 0 0.2-0.1 0.4 0.1 0.5 0.9 0.9 6.2 0.3 8.2-1.8 0.8-0.8 0.5-1.9-0.1-2.5-1.2-1.1-5-0.9-6.1 0.3z"/><path class="e" d="m72.8 208.7c0.7-0.6 1.6-2.4 1.1-3.6-0.6-1.1-1.9-0.5-2.6 0-0.3-0.2-0.5 0.1-0.7 0.2-3.2 3.2 0.2 5.5 2.2 3.4z"/><path class="e" d="m74.7 205.3c0.4-0.6 0.8-2.2 0.1-3-0.6-0.8-1.5 0-2 0.5-0.3-0.1-0.3 0.2-0.5 0.2-1.8 3.2 1.2 4.3 2.4 2.3z"/><path class="e" d="m69 195.7c0.2-0.8 0.3-2.3-0.5-3-0.8-0.6-1.5 0.3-1.8 0.9-0.5 1.1 0.8 1.4 0.6 1.5-1.1 3.4 1 2.7 1.7 0.6z"/><path class="d" d="m47.9 196.9c0.8 0.9 2.7 2.4 3.7 2.1 0.9-0.3-0.1-2-0.7-2.9-1.3-1.6-1.9-0.4-1.9-0.6-4.1-4.6-3.6-1.5-1.1 1.4z"/><path class="d" d="m49.3 188.9c-0.1 1.1 0.6 3.3 2.7 3.9 2 0.6 3.1-1 3.4-1.9 0.3-1.8-2.5-1.7-2.2-1.8 0.5-5.4-3.6-3.5-3.9-0.2z"/><path class="e" d="m82 210.8c0.7-0.2 2-1.2 1.9-2.3 0-1-1.2-0.9-1.8-0.8-0.2-0.3-0.4 0-0.6-0.1-3.3 1.4-1.6 4.1 0.5 3.2z"/><path class="e" d="m76.5 205.9c0.3-0.3 0.8-1.2 0.5-1.8-0.3-0.5-0.9-0.2-1.2 0.1-0.2-0.2-0.3 0-0.4 0-1.5 1.6 0.1 2.7 1.1 1.7z"/><path class="e" d="m75.3 201.6c0.4-0.1 1.3-0.6 1.4-1.2 0-0.6-0.7-0.7-1.1-0.7-0.1-0.2-0.2-0.1-0.3-0.1-2.1 0.5-1.3 2.3 0 2z"/><path class="e" d="m89 204.9c0.4-0.1 1.2-0.6 1.3-1.2 0.1-0.6-0.6-0.7-1-0.7-0.1-0.1-0.2 0-0.3-0.1-2.2 0.5-1.4 2.3 0 2z"/></svg>