<svg version="1.2" xmlns="http://www.w3.org/2000/svg" viewBox="0 0 68 50" width="68" height="50"><style>.a{fill:#e09b92}.b{fill:#ffdad4}.c{fill:#f4bab0}.d{opacity:.4;fill:#f9dcd7}.e{fill:#f9dcd7}.f{fill:#ce715b}.g{fill:#ffc8bd}.h{opacity:.4;fill:#f7bab0}.i{fill:#ed9e91}.j{opacity:.5;fill:#ed9e91}</style><path class="a" d="m63.3 21.5c0.2 2.2-21.2 9.1-27.3 13-4.6 3.1-20.2 13-24.5 15.3-2.7 1.4-24.4-23.6 6.3-43.2 23.3-14.9 45.2 11.4 45.5 14.9z"/><path class="b" d="m62.3 21.7c0.2 2.2-20.7 8.9-26.7 12.7-4.5 3-19.7 12.8-23.9 14.9-2.7 1.4-23.6-22.5 5.2-40 1.9-1.2 45.1 9 45.4 12.4z"/><path class="c" d="m62.8 21.1c0.2 2.2-20.7 8.9-26.7 12.8-4.5 2.9-19.7 12.7-24 14.9-2.6 1.4-23.5-22.5 5.3-40 1.9-1.2 45.1 8.9 45.4 12.3z"/><path class="d" d="m10 40.3c2-0.4 3.7-2.1 2.5-7.4-0.2-0.9-0.7-1.7-0.9-2.6-0.5-1.9 0.6-3.4 1.3-5 1.7-0.6 5-3.1 5.4-3.7 0.9-1.3 0.1-5.1-1.2-5.9q-0.4-0.3-0.8-0.5c-1-0.5-1.9-0.9-3-1.1-0.2 0.1-0.4 0-0.5 0.2-0.2 0.2-0.5 1-0.8 2q-0.2-0.2-0.4-0.5c-0.2-0.1-0.3-0.3-0.5-0.2-1.2 0.2-3.7 4.9-3.1 7.8q0 0.2 0.1 0.4c-0.4 1-0.6 2.4-1.7 2.7-0.4 0-0.9-0.1-1.4 0-1.2 0.3-1.3 3.2-0.7 5.8q0.2 0.7 0.3 1.4c0 0-1.3 0.6-0.7 3.1 0.5 2.1 0.9 1.9 3.1 1.4 0.1 0.4 0.1 0.9 0.2 1.4 0.3 1.1 1.6 1 2.8 0.7z"/><path class="d" d="m13.9 29.8q0.1 0.4 0.3 0.9c0.4 1 0.8 1.9 1.6 2.7 0.1 0.1 0.2 0.3 0.5 0.3 1.1-0.3 3.5-5.1 2.8-8-0.2-1-1.3-1.4-2.2-1.2-1.5 0.4-3.4 3.8-3 5.3z"/><path class="e" d="m16.7 20.2c0.1-0.4 0.2-1.4-0.3-1.8-0.5-0.3-0.9 0.2-1.1 0.6-0.2-0.1-0.2 0.1-0.3 0.2-0.7 2 1.2 2.3 1.7 1z"/><path class="e" d="m11.6 22.3c3.8-0.8 2.2-2.4 1.8-3-1.4-2.1-3 1.4-3.2 1.8-0.2-0.1-0.2 0.1-0.3 0.2-0.7 2.1 0.3 1.3 1.7 1z"/><path class="f" d="m62.4 21.7c0.2 2.1-20 8.6-25.7 12.3-4.4 2.9-21 13.1-25.1 15.3-2.6 1.3-9.8-31.1 13.9-44.9 22.5-13.2 36.7 14 36.9 17.3z"/><path class="b" d="m11.2 49.7c-1 2.1 22-12.8 28.2-16.2 4.8-2.6 24.7-9.6 27.6-13.4 1.1-1.3-16.7-27.7-40.8-15.1-24 12.6-14 42.3-15 44.7z"/><path class="g" d="m11.7 47.9c-0.9 2.1 21.8-12.3 28-15.6 4.7-2.6 24.4-9.3 27.3-12.9 1.1-1.3-16.5-26.7-40.3-14.5-23.8 12.1-14 40.7-15 43z"/><path class="h" d="m26.7 4.9c-4.9 2.4-8.3 5.6-10.8 9.1q3.2-0.3 6.6-0.1c12.2 0.7 22.5 6.2 27.9 13.8 7-2.8 14.8-6.1 16.6-8.3 1.1-1.3-16.5-26.7-40.3-14.5z"/><g style="opacity:.5"><path class="i" d="m32.3 4.4c-1.7 1-1.8 3.1-0.9 4.6 1.1 1.9 5.4 3.2 8.5 3 0.9 0.8 2.6 1.1 2.7 2.4 0 0.4-0.3 0.9-0.2 1.3 0.1 1.3 2.9 1.9 5.6 1.7q0.7-0.1 1.5-0.1c0 0 0.3 1.3 2.9 1.2 2.2-0.2 2-0.6 1.8-2.8 0.4-0.1 1 0 1.4 0 1.2-0.1 1.3-1.5 1.2-2.6-0.1-2.1-1.4-4.1-6.9-3.7-0.9 0.1-3.9 2.2-4.8 2.2-2.7 0.2-2.4-4.1-4.7-4.6 1-0.1 1.8 0.1 2.5-1.1 0.1-0.2 5.1-0.3 4.9-0.7-1.1-1.9-10.8-3.5-15.5-0.8z"/><path class="i" d="m55.4 19.4q-0.1 0.4-0.2 0.8c-0.1 0.8-0.3 1.7-0.1 2.6 0.1 0.1 0.1 0.3 0.3 0.3 0.9 0.3 4.6-2 5.4-4.3 0.3-0.8-0.3-1.6-1.1-1.8-1.2-0.4-3.9 1.2-4.3 2.4z"/><path class="i" d="m32.4 14.1c-0.1 0.2-2.1 2-2 2.3-0.2 0.9 2.4-0.7 2.9 0.5 0.1 0.1 2.3 0.1 2.6 0.3 0.6 0.3 1.4 0.7 2.2 0.8q0 0 0 0c-0.1 0.1-0.2 0.1-0.2 0.2-0.5 0.5-0.8 2.3-0.2 2.7 0.2 0.1 0.7-0.2 1-0.6 0.5-0.6 0.8-2 0.5-2.2q0 0 0 0c1 0 1.8-0.4 2.1-1.5 0.3-0.8-0.8-2-2.1-2.8-2.1-1.2-6.4-1-6.8 0.3z"/></g><path class="j" d="m29 8.1c0-0.3-0.6-0.5-1.1-0.5-0.9-0.1-2.2 0.7-2.1 1.1q0 0.1 0.1 0.3c0.1 0.3 0.3 0.6 0.6 0.9 0.1 0 0.1 0.1 0.3 0.1 0.6 0 2.3-1.1 2.2-1.9z"/><path class="d" d="m24 13c-2.1 0.1-4.1 1.4-3.9 6.8 0.1 0.9 0.4 1.9 0.5 2.8 0.1 1.9-1.3 3.2-2.3 4.6-1.8 0.3-5.4 2.2-6 2.7-1.1 1.1-0.9 5 0.2 6.1q0.3 0.3 0.7 0.6c0.8 0.6 1.7 1.3 2.8 1.6 0.1 0 0.3 0 0.5-0.1 0.2-0.2 0.6-0.9 1.1-1.9q0.2 0.3 0.3 0.7c0.1 0.1 0.3 0.3 0.5 0.3 1.2-0.1 4.5-4.2 4.5-7.2q-0.1-0.2-0.1-0.4c0.6-0.9 1-2.2 2.2-2.3 0.4 0 0.9 0.2 1.3 0.2 1.3 0 1.9-2.9 1.8-5.6q-0.1-0.7-0.1-1.5c0 0 1.4-0.3 1.3-2.8-0.1-2.2-0.5-2-2.8-1.9 0-0.5 0-1 0-1.5 0-1.1-1.4-1.3-2.5-1.2z"/><path class="d" d="m18.2 22.7q0-0.5-0.2-1c-0.2-1-0.4-2.1-1-3-0.1-0.1-0.2-0.3-0.4-0.3-1.2 0.1-4.4 4.4-4.3 7.3 0.1 1.1 1 1.7 2 1.6 1.5-0.1 4-3.1 3.9-4.6z"/><path class="e" d="m21.9 17.1c0 1 0.7 2.8 1.9 3.2 1.2 0.4 1.6-1 1.7-1.8 0.5-0.1 0.3-0.5 0.4-0.6-0.2-4.6-4.2-3.6-4-0.8z"/><path class="e" d="m23.1 20.8c0.2 0.7 1.1 2.1 2.1 2.1 1 0.1 1.1-1.1 1-1.7 0.3-0.2 0.1-0.4 0.2-0.6-1-3.5-3.9-2-3.3 0.2z"/><path class="e" d="m34.1 23.2c0.3 0.7 1.5 1.8 2.5 1.6 1-0.1 0.8-1.3 0.6-1.9-0.6-1.1-1.6-0.4-1.6-0.5-1.7-3.2-2.6-1.2-1.5 0.8z"/><path class="d" d="m47.6 6.9c-1.3 0-3.7 0.3-4.2 1.3-0.4 0.9 1.6 1.3 2.7 1.5 2 0 1.5-1.2 1.7-1.1 6.1 0.2 3.5-1.6-0.2-1.7z"/><path class="d" d="m52.5 13.4c-0.8-0.9-3-1.8-4.8-0.7-1.8 1.1-1.4 2.9-0.9 3.8 1.1 1.4 2.9-0.7 2.8-0.4 3.6 4 5.1-0.2 2.9-2.7z"/><path class="e" d="m14.1 22.4c-0.3 0.7-0.4 2.3 0.4 3 0.7 0.7 1.5-0.2 1.8-0.8 0.3 0.1 0.3-0.3 0.5-0.3 1.3-3.4-1.9-4-2.7-1.9z"/><path class="e" d="m21.5 21.7c0 0.5 0.3 1.4 0.9 1.6 0.6 0.2 0.8-0.5 0.8-0.9 0.2-0.1 0.1-0.2 0.2-0.3-0.1-2.2-2-1.7-1.9-0.4z"/><path class="e" d="m25.4 23.8c-0.2 0.4-0.4 1.3 0 1.8 0.4 0.5 0.9 0 1.2-0.3 0.2 0.1 0.2-0.1 0.3-0.2 1.1-1.9-0.8-2.5-1.5-1.3z"/><path class="e" d="m13.7 31.6c-0.2 0.4-0.4 1.3 0 1.8 0.4 0.4 0.9 0 1.1-0.4 0.2 0.1 0.3-0.1 0.4-0.1 1-1.9-0.8-2.5-1.5-1.3z"/></svg>