<svg version="1.2" xmlns="http://www.w3.org/2000/svg" viewBox="0 0 224 236" width="224" height="236"><style>.a{fill:#d36139}.b{fill:#ea8559}.c{fill:#dd714b}.d{fill:#f9baa0}.e{fill:#eaa086}.f{fill:#ffe0d2}.g{fill:#ffd2bb}.h{fill:#ffede6}</style><path class="a" d="m101.2 233.4c-6.9 3.9-17 3-23.4 0.1-6.4-2.8-14.4-3.6-18.7-8.5-4.4-4.9-9.5-10.3-10-21.5-0.6-11.1 9-19.4 12.1-24 1.2-1.8 11.5 2.4 17.9 5.3 6.4 2.9 9.6 3.5 11.1 5.3 1.6 1.8 8.1 10.1 11.4 12.6 5.3 3.8 12.9 7.1 13.8 10.5 0.6 2.3-6.3 15.8-14.2 20.2z"/><path class="b" d="m100.9 233.3c-6.8 3.8-16.8 2.9-23.2 0.1-6.3-2.9-14.2-3.6-18.5-8.5-4.3-4.8-9.3-10.2-9.9-21.2-0.5-11 8.3-18.8 12.1-23.1 1.4-1.7 11.3 1.7 17.6 4.5 6.4 2.9 9.5 3.6 11.1 5.3 1.5 1.7 7.9 10 11.3 12.4 5.2 3.9 12.7 7.1 13.6 10.5 0.6 2.2-6.2 15.6-14.1 20z"/><path class="c" d="m101.5 203.2c-3.4-2.5-9.9-10.7-11.5-12.5-0.9-1.1-2.3-1.9-5.1-3 1.3 6.6 1 13.5-1.1 20.9-2.8 9.6-8.2 17.5-14.6 21.9 2.9 1 5.9 1.8 8.6 3 6.4 2.9 16.5 3.8 23.4-0.1 7.9-4.4 14.3-17.9 13.7-20.2-0.9-3.4-8.1-6.1-13.4-10z"/><path class="d" d="m49.1 203.5c0.5 11.2 5.6 16.6 10 21.5 4.3 4.9 12.3 5.7 18.7 8.5 6.4 2.9 16.5 3.8 23.4-0.1 5.7-3.2 10.9-11.1 13.1-16.1-8.6-7-22.4-11.9-24.9-13.7-2.9-2.3-9.2-9.8-13.4-12.4-2.9-1.8-12.4-3.7-19.8-5.4-3.6 4.6-7.5 10.6-7.1 17.7z"/><path class="e" d="m89.4 203.6c-2.9-2.3-9.2-9.8-13.4-12.4-1.9-1.1-6.7-2.4-11.8-3.6 4 4.4 7.4 10.7 9.3 18.1 2.6 10 2 19.6-1.2 25.8 1.9 0.6 3.8 1.2 5.5 2 6.4 2.9 16.5 3.8 23.4-0.1 5.7-3.2 10.9-11.1 13.1-16.1-8.6-7-22.4-11.9-24.9-13.7z"/><path class="f" d="m49.7 203.1c0.6 11 5.6 16.3 9.9 21.2 4.3 4.8 12.2 5.5 18.5 8.4 6.3 2.8 16.3 3.7 23.1-0.1 5.6-3.2 11.4-11.6 13.6-16.5-8.5-6.8-22.8-11.1-25.2-13-3-2.2-9.2-9.5-13.3-12.1-2.9-1.8-12.2-3.7-19.6-5.4-3.5 4.6-7.3 10.5-7 17.5z"/><path class="g" d="m89.9 202.3c-3-2.2-10.6-7.7-14.7-10.2-2.9-1.7-11.9-4.8-18.9-5.7-1.2 1.5-2.5 3.2-3.6 5.1 13.3 2.5 15.4 13.5 24.9 20.3 8.9 6.4 12.4 16.3 13.9 23.4 3.3-0.2 6.5-1 9.3-2.5 5.7-3.2 11.3-10.3 13.7-16-8.4-5.1-22.2-12.5-24.6-14.4z"/><path class="b" d="m80.5 204.9c7.1 0.4 12.9 4.4 19.7 9.4 3.6 2.6 8.4 5 12.2 6.7q0.1-0.2 0.3-0.4c-7.6-3.3-14.1-9-18.6-12-5.7-3.9-7.5-3.2-12.6-4.8-7.9-2.6-8.7-9.5-15.3-12.2-4.3-1.8-7.6-2.1-12.2-2.9q-0.3 0.4-0.5 0.9c2.6 0.2 6.2 1 10.5 2.7 2.8 1 6.7 11.9 16.5 12.6z"/><path class="b" d="m73.3 204.4c5.1 1.5 9.4 1.7 12.5 4.3 3 2.6 8.7 7.7 13.2 11 0 0-10.6-7.2-13.5-9.9-2.9-2.5-12.2-5.4-12.2-5.4z"/><path class="b" d="m52.7 191.6c3.7 1.1 6.9 1.2 9.1 3.1 2.2 1.9 6.3 5.6 9.6 8 0 0-7.7-5.3-9.8-7.2-2.1-1.9-8.9-3.9-8.9-3.9z"/><path class="b" d="m66.2 189.6c12.8 5.7 12.9 10.5 16.9 11.3 0 0-6.4-8.1-16.9-11.3z"/><path class="b" d="m92.1 209.9c11.6 10.8 15.9 8.3 18.6 12.1 0 0-10.4-2.4-18.6-12.1z"/><path class="f" d="m86.5 215.2c2.4 2.6 12.1 9.1 17 11.1 0 0-7.7-6.4-10.5-8.1-2.8-1.6-7.8-6.3-11.1-7.3-3.3-0.9 4.6 4.3 4.6 4.3z"/><path class="f" d="m71.7 207.8c2.4 2.6 12 9.1 16.9 11.2 0 0-7.7-6.5-10.5-8.1-2.8-1.7-7.8-6.4-11-7.4-3.3-0.9 4.6 4.3 4.6 4.3z"/><path class="g" d="m80.1 215.1c0 0-7.7-6.4-10.5-8.1-2.8-1.6-7.8-6.4-11-7.3 2 1.6 10.5 10.7 21.5 15.4z"/><path class="b" d="m87.4 197.2c-0.1-0.3-0.3-0.6-0.4-0.5-0.1 0-0.2 0.3-0.1 0.7 0.1 0.3 0.3 0.6 0.4 0.6 0.2-0.1 0.2-0.4 0.1-0.8z"/><path class="b" d="m86.8 194.2c-0.1-0.3-0.3-0.6-0.4-0.5-0.2 0-0.2 0.3-0.1 0.7 0.1 0.3 0.3 0.6 0.4 0.5 0.1 0 0.2-0.3 0.1-0.7z"/><path class="b" d="m88.6 195.8c-0.1-0.4-0.3-0.6-0.4-0.6-0.1 0-0.2 0.3-0.1 0.7 0.1 0.4 0.3 0.6 0.4 0.6 0.2-0.1 0.2-0.4 0.1-0.7z"/><path class="b" d="m86.7 198c-0.1-0.4-0.3-0.6-0.4-0.6-0.2 0-0.2 0.4-0.1 0.7 0.1 0.4 0.3 0.6 0.4 0.6 0.1 0 0.2-0.4 0.1-0.7z"/><path class="b" d="m86.7 191c-0.1-0.4-0.3-0.7-0.4-0.6-0.1 0-0.2 0.3-0.1 0.7 0.1 0.3 0.3 0.6 0.4 0.6 0.2-0.1 0.2-0.4 0.1-0.7z"/><path class="c" d="m84.6 190.9c0-0.4-0.2-0.7-0.4-0.6-0.1 0-0.1 0.3 0 0.7 0.1 0.3 0.2 0.6 0.4 0.6 0.1-0.1 0.1-0.4 0-0.7z"/><path class="c" d="m112.1 216.6c-2.8-1.2-8.6-3.4-9.8-4.7-1.2-1.3 9.8 4.7 9.8 4.7z"/><path class="f" d="m93.5 233.4c-1.8-0.6-3.8-5.7-3.4-7.7 0.5-2 5.9 4.1 6.1 5.1 0.1 0.9 1.3 4.1-2.7 2.6z"/><path class="e" d="m102.7 231.6c-2.8 0.5-2.1-3.7-4.3-5.5-2.2-1.9-5-2.5-5-2.5 2.9 2 4.9 1.7 5.5 3.8 0.7 2.2 2.9 4.2 2.4 5.5z"/><path class="h" d="m66.2 227.3c-3.2-1.7-9.1-6.4-10.4-9-1.2-2.5-4.5-8.6-3.7-11 0.4-1.1 3.9 5.4 8.9 10.8 5.8 6.3 12.7 11.5 5.8 9.3"/><path class="g" d="m76.2 218.3c-2.8-2.3-4.2-3.6-3.2-2.9 1.1 0.7 9.2 5.6 10.1 6.6 0.9 1.1-6.2-3.1-6.9-3.7z"/><path class="a" d="m53.6 94c2.3-7.5 10.3-13.8 16.9-16.1 6.7-2.3 13-7.3 19.5-6.6 6.6 0.6 14 1 22 8.7 8 7.8 6.8 20.4 7.7 25.8 0.3 2.2-10 6.2-16.7 8.4-6.6 2.3-9.4 4.1-11.7 3.8-2.4-0.2-12.8-1.8-16.9-1.3-6.6 0.8-14.3 3.7-17.3 1.8-2-1.2-6.2-15.8-3.5-24.5z"/><path class="b" d="m53.9 93.9c2.3-7.4 10.2-13.6 16.8-15.9 6.5-2.3 12.8-7.2 19.2-6.6 6.5 0.6 13.9 1 21.8 8.7 8 7.6 6.9 19.3 7.1 25.1 0.1 2.2-9.4 6.5-16 8.8-6.5 2.2-9.3 3.9-11.6 3.7-2.3-0.2-12.7-1.8-16.8-1.3-6.4 0.8-14 3.6-17 1.8-2-1.3-6.2-15.6-3.5-24.3z"/><path class="c" d="m74.1 116.2c4.1-0.5 14.5 1 16.9 1.2 1.5 0.2 3-0.2 5.8-1.3-5.5-3.8-10-9.1-13.6-16-4.5-8.8-6-18.2-4.4-25.9-2.7 1.3-5.5 2.7-8.3 3.7-6.6 2.3-14.6 8.6-16.9 16.1-2.7 8.7 1.9 22.9 3.9 24.1 3 1.9 10.1-1.1 16.6-1.9z"/><path class="d" d="m112 80c-8-7.7-15.4-8.1-22-8.7-6.5-0.7-12.8 4.3-19.5 6.6-6.6 2.3-14.6 8.6-16.9 16.1-2 6.3-0.3 15.6 1.5 20.8 11-0.9 24.4-6.8 27.5-7.1 3.7-0.4 13.4 0.7 18.2-0.3 3.4-0.6 11.6-5.7 18.2-9.6-0.5-5.8-1.8-12.8-7-17.8z"/><path class="e" d="m82.6 107.7c3.7-0.4 13.4 0.7 18.2-0.3 2.3-0.4 6.5-2.7 11.1-5.4-5.9-0.5-12.7-2.7-19.1-6.8-8.9-5.5-15-12.9-16.9-19.6-1.8 0.9-3.6 1.7-5.4 2.3-6.6 2.3-14.6 8.6-16.9 16.1-2 6.3-0.3 15.6 1.5 20.8 11-0.9 24.4-6.8 27.5-7.1z"/><path class="f" d="m111.8 80.8c-7.9-7.6-15.2-8-21.7-8.6-6.4-0.6-12.6 4.3-19.2 6.5-6.5 2.3-14.4 8.5-16.7 16-2 6.2-0.4 16.2 1.4 21.3 10.8-0.9 24.2-7.5 27.2-7.9 3.7-0.4 13.2 0.7 18-0.3 3.3-0.6 11.4-5.7 17.9-9.5-0.5-5.7-1.8-12.6-6.9-17.5z"/><path class="g" d="m83.1 108.9c3.7-0.4 13-1.6 17.7-2.6 3.3-0.7 12-4.7 17.7-8.8-0.1-2-0.4-4.1-0.9-6.2-11.4 7.3-20.4 0.7-32.1 2.3-10.8 1.5-20.2-3.4-26.1-7.5-2.2 2.4-4.1 5.2-5 8.2-2 6.2-1.2 15.2 1 21 9.5-2 24.7-6.1 27.7-6.4z"/><path class="b" d="m88.2 100.6c-5.5 4.5-12.4 5.6-20.8 6.7-4.4 0.5-9.5 2.1-13.5 3.4q0.1 0.3 0.2 0.6c7.7-2.9 16.3-3.2 21.7-4 6.8-1.1 7.6-2.9 12.4-5.2 7.5-3.5 12.8 0.9 19.6-1.6 4.3-1.7 6.9-3.7 10.8-6.3q-0.1-0.5-0.2-1c-2.1 1.6-5.2 3.5-9.6 5.3-2.7 1.1-13-4.2-20.6 2.1z"/><path class="b" d="m93.8 96c-4.7 2.4-8.1 5.3-12 5.5-4 0.2-11.6 0.3-17.2 1 0 0 12.7-2 16.6-2.1 3.9-0.1 12.6-4.4 12.6-4.4z"/><path class="b" d="m117.5 91.2c-3.4 1.8-5.8 3.9-8.7 4-2.9 0.1-8.4 0.3-12.4 0.8 0 0 9.2-1.5 12-1.6 2.8 0 9.1-3.2 9.1-3.2z"/><path class="b" d="m109.1 102c-13.2 4.6-16.6 1.1-20 3.3 0 0 10.2 1.6 20-3.3z"/><path class="b" d="m76.4 104.9c-15.9 0.1-17.3 4.9-21.9 3.9 0 0 9.1-5.3 21.9-3.9z"/><path class="f" d="m76.8 97.3c-3.6-0.3-15 1.6-20 3.4 0 0 10-0.5 13.2-1.3 3.2-0.7 10-0.6 13-2.2 3.1-1.6-6.2 0.1-6.2 0.1z"/><path class="f" d="m92.6 92.4c-3.5-0.2-15 1.7-19.9 3.5 0 0 10-0.5 13.1-1.3 3.2-0.7 10.1-0.7 13.1-2.2 3-1.6-6.3 0-6.3 0z"/><path class="g" d="m81.5 92.9c0 0 10-0.6 13.2-1.3 3.1-0.7 10-0.7 13-2.3-2.5 0.3-15-0.5-26.2 3.6z"/><path class="b" d="m88.4 110.9c0.3 0.2 0.6 0.3 0.7 0.2 0.1-0.2-0.1-0.4-0.4-0.6-0.3-0.2-0.6-0.3-0.7-0.2-0.1 0.2 0.1 0.4 0.4 0.6z"/><path class="b" d="m91 112.7c0.3 0.1 0.6 0.2 0.6 0.1 0.1-0.1-0.1-0.4-0.4-0.6-0.3-0.2-0.6-0.2-0.7-0.1-0.1 0.1 0.1 0.4 0.5 0.6z"/><path class="b" d="m88.6 112.8c0.3 0.2 0.6 0.3 0.6 0.1 0.1-0.1-0.1-0.3-0.4-0.5-0.3-0.2-0.6-0.3-0.7-0.2-0.1 0.2 0.1 0.4 0.5 0.6z"/><path class="b" d="m88.5 109.9c0.3 0.2 0.6 0.2 0.6 0.1 0.1-0.1-0.1-0.4-0.4-0.6-0.3-0.2-0.6-0.2-0.7-0.1-0.1 0.1 0.1 0.4 0.5 0.6z"/><path class="b" d="m93.2 115c0.4 0.2 0.7 0.2 0.7 0.1 0.1-0.1-0.1-0.3-0.4-0.5-0.3-0.2-0.6-0.3-0.7-0.2-0.1 0.1 0.1 0.4 0.4 0.6z"/><path class="c" d="m94.8 113.7c0.3 0.2 0.6 0.2 0.7 0.1 0.1-0.1-0.1-0.4-0.4-0.6-0.3-0.1-0.6-0.2-0.7-0.1-0.1 0.1 0.1 0.4 0.4 0.6z"/><path class="c" d="m57.2 113.8c2.9-1 8.6-3.4 10.4-3.3 1.7 0.1-10.4 3.3-10.4 3.3z"/><path class="f" d="m59.2 88.8c1.7-0.8 6.7 1.5 7.7 3.3 1 1.7-7.1 1.1-7.8 0.4-0.8-0.6-3.9-2 0.1-3.7z"/><path class="e" d="m53.8 96.4c1.6-2.2 4 1.2 6.8 1.1 2.9-0.2 5.4-1.7 5.4-1.7-3.5 0.6-4.8 2.2-6.7 1-1.9-1.1-4.9-1-5.4-2.3z"/><path class="h" d="m83.2 74.5c3.6-1 11.1-1.6 13.7-0.6 2.7 1 9.3 3.2 10.3 5.5 0.5 1-6.6-1.3-13.9-1.8-8.5-0.6-17.1 0.4-10.6-2.8"/><path class="g" d="m82.1 87.9c3.7-0.3 5.6-0.3 4.4-0.1-1.3 0.3-10.6 2.3-12 2.1-1.4-0.1 6.7-2 7.6-2z"/><path class="a" d="m98.1 53.5c-4.2-6.6-3.9-16.8-1.4-23.3 2.6-6.6 2.9-14.6 7.5-19.2 4.7-4.6 9.8-10 20.9-11.1 11.1-1.2 19.9 7.9 24.7 10.8 1.9 1.1-1.8 11.6-4.3 18.1-2.6 6.6-3 9.8-4.7 11.4-1.7 1.7-9.7 8.6-11.9 12.1-3.6 5.5-6.4 13.2-9.8 14.3-2.3 0.8-16.1-5.4-21-13.1z"/><path class="b" d="m98.2 53.3c-4.2-6.6-3.8-16.7-1.3-23.2 2.5-6.4 2.8-14.4 7.4-19 4.7-4.5 9.7-9.8 20.7-11 11-1.1 19.2 7.2 23.7 10.8 1.8 1.3-1.1 11.4-3.6 17.9-2.5 6.5-3 9.7-4.6 11.3-1.7 1.6-9.6 8.5-11.8 11.9-3.6 5.5-6.4 13.1-9.7 14.2-2.2 0.7-15.9-5.3-20.8-12.9z"/><path class="c" d="m128.3 52.2c2.3-3.5 10.2-10.5 11.8-12.1 1.1-1.1 1.8-2.5 2.7-5.3-6.4 1.7-13.4 1.8-20.9 0-9.7-2.2-17.8-7.2-22.6-13.4-0.8 3-1.5 6-2.6 8.8-2.5 6.5-2.8 16.7 1.4 23.3 4.9 7.7 18.7 13.3 20.9 12.6 3.4-1.1 5.7-8.4 9.3-13.9z"/><path class="d" d="m125.1-0.1c-11.1 1.1-16.2 6.5-20.9 11.1-4.6 4.6-4.9 12.6-7.5 19.2-2.5 6.5-2.8 16.7 1.4 23.3 3.5 5.6 11.7 10.3 16.9 12.3 6.4-9 10.6-23 12.3-25.6 2.1-3.1 9.2-9.8 11.6-14.1 1.6-3 3-12.6 4.3-20.1-4.7-3.4-10.9-6.9-18.1-6.1z"/><path class="e" d="m127.3 40.2c2.1-3.1 9.2-9.8 11.6-14.1 1.1-2 2-6.8 2.9-12-4.1 4.2-10.2 7.9-17.5 10.3-9.9 3.2-19.5 3-25.9 0.2-0.5 1.9-1 3.8-1.7 5.6-2.5 6.5-2.8 16.7 1.4 23.3 3.5 5.6 11.7 10.3 16.9 12.3 6.4-9 10.6-23 12.3-25.6z"/><path class="f" d="m125.6 0.5c-11 1.1-16 6.5-20.6 11-4.6 4.5-4.9 12.5-7.4 18.9-2.5 6.5-2.8 16.5 1.4 23.1 3.5 5.5 12.1 10.7 17.2 12.6 6.3-8.8 9.8-23.2 11.5-25.8 2.1-3.1 9.1-9.7 11.4-13.9 1.7-3 3-12.4 4.3-19.8-4.7-3.3-10.8-6.8-17.8-6.1z"/><path class="g" d="m128.5 40.5c2.1-3 7.2-10.9 9.5-15.1 1.6-3 4.1-12.2 4.7-19.2-1.6-1.2-3.4-2.4-5.3-3.4-1.8 13.5-12.7 16.1-19 26-5.9 9.3-15.6 13.3-22.6 15.1 0.4 3.3 1.4 6.5 3 9.2 3.5 5.5 10.9 10.7 16.7 12.8 4.6-8.6 11.4-22.8 13-25.4z"/><path class="b" d="m125.5 31.4c-0.1 7-3.7 13.1-8.4 20.1-2.4 3.7-4.5 8.6-6 12.5q0.2 0.2 0.5 0.3c2.8-7.7 8.1-14.6 11-19.2 3.5-5.9 2.7-7.6 4.1-12.8 2.1-8 8.9-9.2 11.3-16 1.5-4.4 1.6-7.7 2.2-12.3q-0.4-0.3-0.9-0.5c-0.1 2.7-0.7 6.2-2.1 10.7-0.9 2.8-11.6 7.3-11.7 17.2z"/><path class="b" d="m125.6 24.1c-1.2 5.2-1.2 9.5-3.6 12.7-2.5 3.2-7.2 9.1-10.3 13.8 0 0 6.6-11 9.1-14 2.4-3 4.8-12.5 4.8-12.5z"/><path class="b" d="m137.3 2.9c-0.9 3.7-0.9 6.9-2.6 9.2-1.8 2.3-5.3 6.6-7.5 10 0 0 4.8-8 6.6-10.2 1.8-2.2 3.5-9 3.5-9z"/><path class="b" d="m140 16.2c-5 13.1-9.8 13.5-10.4 17.5 0 0 7.8-6.8 10.4-17.5z"/><path class="b" d="m121.1 43.2c-10.2 12.2-7.4 16.3-11.1 19.2 0 0 1.8-10.5 11.1-19.2z"/><path class="f" d="m115.5 37.9c-2.4 2.6-8.4 12.5-10.2 17.5 0 0 6-8 7.5-10.9 1.5-2.9 6-8.1 6.7-11.4 0.8-3.4-4 4.8-4 4.8z"/><path class="f" d="m122.1 22.7c-2.5 2.5-8.4 12.5-10.2 17.5 0 0 6-8 7.5-10.9 1.5-2.9 5.9-8.1 6.7-11.5 0.8-3.3-4 4.9-4 4.9z"/><path class="g" d="m115.2 31.5c0 0 6.1-8 7.6-10.9 1.4-2.9 5.9-8.1 6.7-11.4-1.5 2-10.2 11.1-14.3 22.3z"/><path class="b" d="m133.5 37.8c0.3-0.1 0.6-0.3 0.5-0.4 0-0.1-0.3-0.2-0.7 0-0.3 0.1-0.6 0.3-0.5 0.4 0 0.1 0.3 0.1 0.7 0z"/><path class="b" d="m136.5 37c0.3-0.1 0.6-0.3 0.5-0.4 0-0.2-0.3-0.2-0.7-0.1-0.3 0.2-0.6 0.3-0.5 0.5 0 0.1 0.3 0.1 0.7 0z"/><path class="b" d="m135 38.9c0.4-0.1 0.6-0.3 0.6-0.4-0.1-0.1-0.4-0.1-0.7 0-0.4 0.1-0.6 0.3-0.6 0.4 0.1 0.1 0.4 0.1 0.7 0z"/><path class="b" d="m132.7 37.1c0.4-0.1 0.6-0.3 0.6-0.4-0.1-0.2-0.4-0.2-0.7-0.1-0.4 0.2-0.6 0.4-0.6 0.5 0 0.1 0.4 0.1 0.7 0z"/><path class="b" d="m139.7 36.8c0.4-0.1 0.6-0.3 0.6-0.5-0.1-0.1-0.4-0.1-0.7 0-0.4 0.1-0.6 0.3-0.6 0.4 0.1 0.2 0.4 0.2 0.7 0.1z"/><path class="c" d="m139.7 34.7c0.4-0.1 0.6-0.3 0.6-0.4-0.1-0.2-0.4-0.2-0.7-0.1-0.4 0.2-0.6 0.3-0.6 0.5 0.1 0.1 0.4 0.1 0.7 0z"/><path class="c" d="m115.5 63.5c1.1-2.8 3-8.8 4.2-10 1.2-1.3-4.2 10-4.2 10z"/><path class="f" d="m97.7 45.9c0.5-1.9 5.5-4.2 7.5-3.8 2 0.3-3.7 6.1-4.7 6.3-1 0.2-4.1 1.6-2.8-2.5z"/><path class="e" d="m100.1 54.9c-0.7-2.7 3.5-2.3 5.2-4.6 1.7-2.2 2.2-5.1 2.2-5.1-1.9 3.1-1.4 5-3.5 5.8-2.1 0.7-4 3-5.4 2.6z"/><path class="h" d="m102.3 18.2c1.6-3.3 5.9-9.4 8.4-10.8 2.5-1.3 8.4-5 10.8-4.3 1.2 0.3-5.2 4.2-10.3 9.5-5.9 6.1-10.7 13.3-9 6.3"/><path class="g" d="m111.8 27.7c2.2-2.9 3.5-4.4 2.8-3.3-0.6 1.1-5.1 9.5-6.1 10.5-1 1 2.8-6.4 3.3-7.2z"/><path class="a" d="m161.9 106c7.8 1.5 14.9 8.8 17.9 15.1 3 6.3 8.6 12.1 8.8 18.6 0.1 6.6 0.5 14-6.4 22.8-6.8 8.9-19.4 9-24.8 10.5-2.1 0.6-7.1-9.3-10.2-15.6-3-6.4-5-9-5-11.3 0-2.4 0.4-12.9-0.6-17-1.5-6.4-5.1-13.7-3.6-16.9 1-2.1 15-8 23.9-6.2z"/><path class="b" d="m162 106.3c7.7 1.4 14.8 8.6 17.7 14.9 3 6.3 8.6 12 8.7 18.5 0.1 6.5 0.5 13.8-6.2 22.6-6.8 8.7-18.5 8.9-24.2 9.8-2.2 0.3-7.5-8.7-10.5-15-3-6.2-5-8.8-5-11.1 0-2.4 0.4-12.8-0.5-16.8-1.5-6.3-5.2-13.6-3.7-16.8 1.1-2.1 14.9-7.9 23.7-6.1z"/><path class="c" d="m142.1 128.8c1 4.1 0.6 14.6 0.6 16.9 0.1 1.5 0.6 3 2 5.6 3.2-5.8 8-10.9 14.4-15.2 8.3-5.5 17.5-7.9 25.3-7.2-1.6-2.6-3.3-5.1-4.6-7.8-3-6.3-10.1-13.6-17.9-15.1-8.9-1.8-22.5 4.4-23.5 6.5-1.5 3.2 2.2 9.9 3.7 16.3z"/><path class="d" d="m182.2 162.5c6.9-8.8 6.5-16.2 6.4-22.8-0.2-6.5-5.8-12.3-8.8-18.6-3-6.3-10.1-13.6-17.9-15.1-6.4-1.3-15.5 1.4-20.4 3.8 2 10.8 9.3 23.5 10 26.6 0.8 3.6 0.8 13.4 2.3 18 1 3.3 7 10.9 11.5 17 5.8-1.1 12.6-3.2 16.9-8.9z"/><path class="e" d="m151.5 136.4c0.8 3.6 0.8 13.4 2.3 18 0.7 2.2 3.5 6.2 6.6 10.4-0.2-5.8 1.3-12.8 4.6-19.7 4.5-9.4 11.2-16.3 17.7-19-1.1-1.6-2.1-3.3-2.9-5-3-6.3-10.1-13.6-17.9-15.1-6.4-1.3-15.5 1.4-20.4 3.8 2 10.8 9.3 23.5 10 26.6z"/><path class="f" d="m181.5 162.4c6.7-8.7 6.3-16 6.2-22.5-0.1-6.4-5.7-12.1-8.7-18.3-2.9-6.3-10-13.5-17.6-14.9-6.4-1.3-16.2 1.3-21 3.7 2 10.7 10.1 23.2 10.7 26.2 0.8 3.6 0.8 13.2 2.3 17.8 1 3.2 6.9 10.7 11.4 16.8 5.6-1.1 12.4-3.2 16.7-8.8z"/><path class="g" d="m150.4 137c0.8 3.6 3 12.7 4.5 17.3 1.1 3.2 6 11.4 10.7 16.6 2-0.4 4-0.8 6.1-1.5-8.5-10.6-2.9-20.3-5.8-31.7-2.7-10.6 1.1-20.5 4.6-26.7-2.7-2-5.7-3.6-8.7-4.2-6.4-1.2-15.3 0.5-20.8 3.3 3 9.3 8.7 23.9 9.4 26.9z"/><path class="b" d="m159.2 141.1c-5.1-4.9-7-11.7-8.9-19.9-1-4.3-3.1-9.2-4.9-13q-0.3 0.1-0.6 0.2c3.7 7.3 5 15.9 6.4 21.1 1.8 6.6 3.7 7.3 6.5 11.8 4.3 7.1 0.5 12.9 3.8 19.2 2.1 4.2 4.4 6.5 7.4 10.1q0.5-0.1 0.9-0.3c-1.8-1.9-4-4.8-6.2-8.9-1.4-2.6 2.7-13.4-4.4-20.3z"/><path class="b" d="m164.3 146.2c-2.8-4.5-6.1-7.4-6.7-11.4-0.6-3.9-1.6-11.5-2.9-16.9 0 0 3.4 12.4 3.9 16.2 0.5 3.9 5.7 12.1 5.7 12.1z"/><path class="b" d="m171.7 169.3c-2.1-3.2-4.4-5.4-4.9-8.3-0.4-2.8-1.2-8.3-2.1-12.3 0 0 2.5 9 2.8 11.8 0.4 2.8 4.2 8.8 4.2 8.8z"/><path class="b" d="m160.1 162.1c-6-12.7-3-16.5-5.5-19.6 0 0-0.4 10.3 5.5 19.6z"/><path class="b" d="m153.6 129.8c-1.8-15.8-6.7-16.6-6.3-21.3 0 0 6.3 8.5 6.3 21.3z"/><path class="f" d="m161.3 129.4c-0.2-3.6-3.3-14.7-5.7-19.5 0 0 1.7 9.9 2.7 13 1.1 3.1 1.8 9.9 3.7 12.7 1.9 2.9-0.7-6.2-0.7-6.2z"/><path class="f" d="m167.8 144.6c-0.2-3.5-3.3-14.7-5.7-19.4 0 0 1.7 9.8 2.8 12.9 1.1 3.1 1.8 9.9 3.6 12.8 1.9 2.8-0.7-6.3-0.7-6.3z"/><path class="g" d="m166.1 133.6c0 0 1.7 9.9 2.8 13 1 3 1.7 9.9 3.6 12.7-0.5-2.5-1-15-6.4-25.7z"/><path class="b" d="m149 142.5c-0.2 0.3-0.2 0.6-0.1 0.7 0.1 0 0.4-0.2 0.5-0.5 0.2-0.3 0.2-0.7 0.1-0.7-0.1-0.1-0.4 0.1-0.5 0.5z"/><path class="b" d="m147.5 145.2c-0.1 0.3-0.2 0.6-0.1 0.7 0.2 0 0.4-0.2 0.6-0.5 0.1-0.3 0.1-0.7 0-0.7-0.1-0.1-0.3 0.2-0.5 0.5z"/><path class="b" d="m147.1 142.8c-0.2 0.3-0.2 0.7-0.1 0.7 0.2 0.1 0.4-0.1 0.5-0.5 0.2-0.3 0.2-0.6 0.1-0.7-0.1 0-0.3 0.2-0.5 0.5z"/><path class="b" d="m150 142.4c-0.1 0.3-0.2 0.6 0 0.7 0.1 0.1 0.3-0.2 0.5-0.5 0.1-0.3 0.1-0.6 0-0.7-0.1-0.1-0.3 0.2-0.5 0.5z"/><path class="b" d="m145.4 147.7c-0.1 0.4-0.2 0.7 0 0.7 0.1 0.1 0.3-0.1 0.5-0.5 0.1-0.3 0.2-0.6 0-0.7-0.1 0-0.3 0.2-0.5 0.5z"/><path class="c" d="m146.9 149.1c-0.1 0.4-0.2 0.7 0 0.7 0.1 0.1 0.3-0.1 0.5-0.5 0.1-0.3 0.2-0.6 0-0.7-0.1 0-0.3 0.2-0.5 0.5z"/><path class="c" d="m142.7 111.7c1.3 2.8 4.3 8.2 4.4 10 0.1 1.7-4.4-10-4.4-10z"/><path class="f" d="m167.8 111c0.9 1.6-0.8 6.8-2.5 8-1.6 1.3-1.8-6.9-1.3-7.7 0.6-0.9 1.7-4.1 3.8-0.3z"/><path class="e" d="m159.6 106.5c2.4 1.3-0.8 4.1-0.3 6.9 0.5 2.8 2.2 5.1 2.2 5.1-0.9-3.4-2.6-4.5-1.7-6.5 0.9-2 0.5-5 1.7-5.7z"/><path class="h" d="m184.6 133.3c1.3 3.5 2.8 10.8 2.1 13.6-0.7 2.7-2.1 9.5-4.3 10.8-1 0.6 0.5-6.7 0.2-14-0.4-8.5-2.3-17 1.6-10.9"/><path class="g" d="m171.2 133.7c0.6 3.6 0.8 5.5 0.5 4.3-0.4-1.2-3.4-10.2-3.4-11.6 0-1.4 2.7 6.4 2.9 7.3z"/><path class="b" d="m222.5 122.1q-0.1-0.1-0.1-0.3c-0.3-3.3-0.4-7.3-0.4-11.5q-0.1-2.3-0.1-4.6 0-0.9 0-1.8 0-2.6-0.1-5.1 0-0.7-0.1-1.5 0-1.6-0.2-3.2 0-1-0.1-1.9-0.2-1.2-0.2-2.4 0-0.6 0-1.1 0-1.3 0-2.7c0.3-6.4 1.4-13.6 0.9-21.6q0-0.6-0.1-1.2c-5.1 1-11.5 4.3-16.8 9.3q0.2 0.5 0.3 1 0.4 1.1 0.8 2.1c0.9 2.5 1.7 5 2.5 7.4q0.7 2.3 1.3 4.4 0 0.1 0 0.2 0.6 1.9 0.9 3.5 0.3 1.4 0.5 2.4 0.1 0.8 0.1 1.4 0 0.8-0.1 1.8 0 0.2 0 0.4-0.2 1.7-0.5 3.9 0 0.3-0.1 0.7-0.1 1.2-0.3 2.5-0.1 0.7-0.2 1.5c-0.3 1.7-0.6 3.6-0.9 5.4q-0.1 0.5-0.2 0.9c-0.4 2.2-0.7 4.3-1.1 6.3q-0.1 0.2-0.1 0.4 0 0.2-0.1 0.4 1.8 0 3.5 0.1c2.6 0.2 7.2 1.9 11 3.5q0-0.3 0-0.6z"/><path class="a" d="m208.1 118.7q0 0.2-0.1 0.4 1.8 0 3.5 0.1c2.6 0.2 7.2 1.9 11 3.5q0-0.3 0-0.6c-3.8-1.5-8.3-3.2-10.8-3.4q-1.8-0.1-3.6 0z"/><path class="b" d="m208.2 118.3q-0.1 0.2-0.1 0.4 1.8-0.1 3.6 0c2.5 0.2 7 1.9 10.8 3.4q-0.1-0.1-0.1-0.3c-3.8-1.6-8.4-3.2-11-3.4q-1.6-0.1-3.2-0.1z"/><path class="c" d="m215.4 110.7c-1.9 0.4-3.9 0.9-6.1 1.3-0.4 2.2-0.7 4.3-1.1 6.3q1.6 0 3.2 0.1c2.6 0.2 7.2 1.8 11 3.4-0.3-3.3-0.4-7.3-0.4-11.5-1.6 0-3.9 0.2-6.6 0.4z"/><path class="e" d="m205.5 73.5q0.9-0.8 1.8-1.6 0 0.1 0 0.1c4.9-4 10.3-6.7 14.8-7.6q0-0.6-0.1-1.2c-5.1 1-11.5 4.3-16.8 9.3q0.2 0.5 0.3 1z"/><path class="f" d="m209.5 111.1q-0.1 0.5-0.2 0.9c2.2-0.4 4.2-0.9 6.1-1.3-1.8 0.1-3.8 0.3-5.9 0.4z"/><path class="f" d="m221.2 86c0.3-6.4 1.4-13.6 0.9-21.6-4.5 0.9-9.9 3.6-14.8 7.6 3.1 4.9 7.7 10.5 13.9 14z"/><path class="g" d="m211.5 93.5q0.1 0.8 0.1 1.4 0 0.8-0.1 1.8c3.2 0.1 7.2 0.3 10.2 0.6q0-1.6-0.2-3.2c-3-0.2-6.1-0.7-8.2-0.6q-0.7 0.1-1.8 0z"/><path class="g" d="m211 101c2.3 0.3 4.6 0.9 7 1.9-2.7-0.6-5-1-7.1-1.2q-0.1 1.2-0.3 2.5c4 0.2 7.7 0.2 11.3-0.3q0-2.6-0.1-5.1c-3-0.5-6.7-1.2-10.3-1.7q-0.2 1.7-0.5 3.9z"/><path class="g" d="m216.6 106.1c-1.8-0.1-3.9-0.2-6.2-0.4-0.3 1.7-0.6 3.6-0.9 5.4 2.1-0.1 4.1-0.3 5.9-0.4 2.7-0.2 5-0.4 6.6-0.4q-0.1-2.3-0.1-4.6c-1.4 0.3-3.1 0.5-5.3 0.4z"/><path class="g" d="m207.3 72q0 0 0-0.1-0.9 0.8-1.8 1.6 0.4 1.1 0.8 2.1c2.2-0.1 6.2 4.1 6.6 6.7 0.2 1.4-1.9 1.3-4.1 0.7q0.7 2.3 1.3 4.4 0.2 0 0.4 0 0 0-0.4 0.2 0.6 1.9 0.9 3.5c4.4 0.1 8.5 0.4 10.4 1.1q-0.2-1.2-0.2-2.4c-2.1-0.3-3.7-0.6-3.7-0.6 1.1-0.2 2.3-0.4 3.7-0.5q0-1.3 0-2.7c-6.2-3.5-10.8-9.1-13.9-14z"/><path class="b" d="m210.6 104.2q-0.1 0.7-0.2 1.5c2.3 0.2 4.4 0.3 6.2 0.4 2.2 0.1 3.9-0.1 5.3-0.4q0-0.9 0-1.8c-3.6 0.5-7.3 0.5-11.3 0.3z"/><path class="b" d="m211.5 97.1c3.6 0.5 7.3 1.2 10.3 1.7q0-0.7-0.1-1.5c-3-0.3-7-0.5-10.2-0.6q0 0.2 0 0.4z"/><path class="b" d="m211 101q0 0.3-0.1 0.7c2.1 0.2 4.4 0.6 7.1 1.2-2.4-1-4.7-1.6-7-1.9z"/><path class="f" d="m211.5 93.5q1.1 0.1 1.8 0c2.1-0.1 5.2 0.4 8.2 0.6q0-1-0.1-1.9c-1.9-0.7-6-1-10.4-1.1q0.3 1.4 0.5 2.4z"/><path class="f" d="m221.2 89.8q0-0.6 0-1.1c-1.4 0.1-2.6 0.3-3.7 0.5 0 0 1.6 0.3 3.7 0.6z"/><path class="f" d="m212.9 82.3c-0.4-2.6-4.4-6.8-6.6-6.7 0.9 2.5 1.7 5 2.5 7.4 2.2 0.6 4.3 0.7 4.1-0.7z"/><path class="e" d="m210.1 87.4q0 0.1 0 0.2 0.4-0.2 0.4-0.2-0.2 0-0.4 0z"/><path class="b" d="m177.3 226q-0.1-0.1-0.2-0.3c-2.3-2.4-4.8-5.5-7.4-8.9q-1.4-1.8-2.8-3.6-0.6-0.7-1.1-1.4-1.6-2.1-3.2-4-0.4-0.6-0.9-1.1-1.1-1.3-2.1-2.4-0.7-0.8-1.3-1.5-0.8-0.8-1.6-1.8-0.4-0.4-0.7-0.9-0.8-1-1.6-2.1c-3.6-5.2-7.1-11.7-12.3-17.7q-0.5-0.5-0.9-1c-3.5 4-6.5 10.5-7.7 17.7q0.4 0.3 0.9 0.6 0.9 0.6 1.8 1.2c2.3 1.4 4.5 2.9 6.5 4.4q2 1.3 3.7 2.6 0.1 0.1 0.1 0.1 1.7 1.3 2.9 2.3 1.1 0.9 1.8 1.7 0.6 0.6 1 1 0.4 0.6 1 1.5 0.1 0.2 0.2 0.3 0.9 1.5 2 3.4 0.2 0.3 0.4 0.6 0.6 1.1 1.2 2.2 0.3 0.6 0.7 1.3c0.8 1.6 1.7 3.2 2.6 4.9q0.2 0.4 0.4 0.8c1 1.9 2 3.9 2.9 5.7q0.1 0.2 0.2 0.3 0.1 0.2 0.2 0.4 1.4-1.1 2.7-2c2.2-1.5 6.9-2.9 11-3.9q-0.2-0.2-0.4-0.4z"/><path class="a" d="m163.8 231.9q0.1 0.2 0.2 0.4 1.4-1.1 2.7-2c2.2-1.5 6.9-2.9 11-3.9q-0.2-0.2-0.4-0.4c-4 1-8.5 2.4-10.6 3.8q-1.5 1-2.9 2.1z"/><path class="b" d="m163.6 231.6q0.1 0.2 0.2 0.3 1.4-1.1 2.9-2.1c2.1-1.4 6.6-2.8 10.6-3.8q-0.1-0.1-0.2-0.3c-4.1 1.1-8.7 2.6-10.9 4q-1.3 0.9-2.6 1.9z"/><path class="c" d="m164.7 221.1c-1.2 1.5-2.5 3.1-4 4.8 1 1.9 2 3.9 2.9 5.7q1.3-1 2.6-1.9c2.2-1.4 6.8-2.9 10.9-4-2.3-2.4-4.8-5.5-7.4-8.9-1.2 1-2.9 2.5-5 4.3z"/><path class="e" d="m134.4 197.6q0.1-1.2 0.4-2.3 0 0 0.1 0c1.4-6.1 4.1-11.6 7.2-15q-0.5-0.5-0.9-1c-3.5 4-6.5 10.5-7.7 17.7q0.4 0.3 0.9 0.6z"/><path class="f" d="m160.3 225.1q0.2 0.4 0.4 0.8c1.5-1.7 2.8-3.3 4-4.8-1.3 1.3-2.8 2.6-4.4 4z"/><path class="f" d="m154.4 198c-3.6-5.2-7.1-11.7-12.3-17.7-3.1 3.4-5.8 8.9-7.2 15 5.4 2 12.5 3.7 19.5 2.7z"/><path class="g" d="m151.2 209.9q0.6 0.6 1 1 0.4 0.6 1 1.5c2.6-1.8 5.9-4.1 8.5-5.7q-1.1-1.3-2.1-2.4c-2.6 1.6-5.4 3.1-6.9 4.5q-0.6 0.5-1.5 1.1z"/><path class="g" d="m155.4 216.1c2-1.1 4.2-2.1 6.7-2.7-2.5 1.1-4.6 2.2-6.3 3.3q0.6 1.1 1.2 2.2c3.3-2.3 6.3-4.5 8.8-7.1q-1.6-2.1-3.2-4c-2.7 1.4-6.1 3.1-9.2 4.9q0.9 1.5 2 3.4z"/><path class="g" d="m162.9 216.8c-1.5 1-3.3 2.2-5.2 3.4 0.8 1.6 1.7 3.2 2.6 4.9 1.6-1.4 3.1-2.7 4.4-4 2.1-1.8 3.8-3.3 5-4.3q-1.4-1.8-2.8-3.6c-1 1.1-2.2 2.3-4 3.6z"/><path class="g" d="m134.9 195.3q-0.1 0-0.1 0-0.3 1.1-0.4 2.3 0.9 0.6 1.8 1.2c1.7-1.5 7.4-0.5 9.4 1.3 1 1-0.8 2.2-2.9 3.1q2 1.3 3.7 2.6 0.2-0.1 0.3-0.2 0 0-0.2 0.3 1.7 1.3 2.9 2.3c3.5-2.6 7-4.8 8.9-5.4q-0.8-0.8-1.6-1.8c-1.9 1.1-3.3 1.8-3.3 1.8 0.7-0.8 1.6-1.7 2.6-2.7q-0.8-1-1.6-2.1c-7 1-14.1-0.7-19.5-2.7z"/><path class="b" d="m157 218.9q0.3 0.6 0.7 1.3c1.9-1.2 3.7-2.4 5.2-3.4 1.8-1.3 3-2.5 4-3.6q-0.6-0.7-1.1-1.4c-2.5 2.6-5.5 4.8-8.8 7.1z"/><path class="b" d="m153.4 212.7c3.1-1.8 6.5-3.5 9.2-4.9q-0.4-0.6-0.9-1.1c-2.6 1.6-5.9 3.9-8.5 5.7q0.1 0.2 0.2 0.3z"/><path class="b" d="m155.4 216.1q0.2 0.3 0.4 0.6c1.7-1.1 3.8-2.2 6.3-3.3-2.5 0.6-4.7 1.6-6.7 2.7z"/><path class="f" d="m151.2 209.9q0.9-0.6 1.5-1.1c1.5-1.4 4.3-2.9 6.9-4.5q-0.7-0.8-1.3-1.5c-1.9 0.6-5.4 2.8-8.9 5.4q1.1 0.9 1.8 1.7z"/><path class="f" d="m156.7 201q-0.4-0.4-0.7-0.9c-1 1-1.9 1.9-2.6 2.7 0 0 1.4-0.7 3.3-1.8z"/><path class="f" d="m145.6 200.1c-2-1.8-7.7-2.8-9.4-1.3 2.3 1.4 4.5 2.9 6.5 4.4 2.1-0.9 3.9-2.1 2.9-3.1z"/><path class="e" d="m146.4 205.8q0.1 0.1 0.1 0.1 0.2-0.3 0.2-0.3-0.1 0.1-0.3 0.2z"/><path class="b" d="m158.2 71.6c4.9-2.1 9.8-4.6 14.3-6.9q0.5-0.2 0.9-0.5 2-1 4-2 0.3-0.2 0.6-0.4 0.3-0.1 0.6-0.3 0.9-0.4 1.8-0.9 2.7-1.4 5.1-2.5 0.6-0.3 1.1-0.5 1-0.5 1.9-0.9 0.6-0.2 1.2-0.5 1.1-0.4 2.2-0.8 1.8-0.6 3.9-1.3c3.2-1 6.8-2 10.2-2.9q0.2-0.1 0.3-0.1 0.2-0.1 0.4-0.1c-0.1-1.7-0.2-3.1-0.3-3.8-0.2-2.6-2.5-5.3-6.1-11.5q-0.2 0-0.4 0.1c-2.7 0.5-5.4 1.1-7.8 2.1q-0.9 0.3-1.7 0.7-0.8 0.4-1.6 0.9-0.4 0.2-0.7 0.4-0.6 0.3-1.1 0.7-1 0.9-2.5 1.8-1.7 1.1-3.9 2.3-0.8 0.5-1.7 1 0 0 0 0-1.1 0.6-2.4 1.3-0.2 0.1-0.5 0.3-0.7 0.3-1.5 0.7-0.3 0.2-0.6 0.3-0.9 0.5-1.7 0.9c-4.8 2.3-9.8 4.6-14.1 6.3-1.7 0.7-3.3 1.3-4.7 1.8q-0.8 0.3-1.4 0.5-0.6 0.2-1.1 0.4 0.1 0.4 0.1 0.8c0.4 4.6 3 8.6 6 12.7q0 0 0 0.1 0.1 0.1 0.2 0.2 0.5-0.2 1-0.4z"/><path class="a" d="m206.1 47.3c0 0.8 0.1 2.1 0.2 3.8q0.2-0.1 0.4-0.1c-0.1-1.7-0.2-3.1-0.3-3.8-0.2-2.6-2.5-5.3-6.1-11.5q-0.2 0-0.4 0.1c3.6 6.2 5.9 8.9 6.2 11.5z"/><path fill-rule="evenodd" class="b" d="m192.2 38.1q-0.1-0.1-0.1-0.2c2.4-1 5.1-1.6 7.8-2.1 3.6 6.2 5.9 8.9 6.2 11.5 0 0.8 0.1 2.1 0.2 3.8q-0.1 0-0.3 0.1c-0.1-1.6-0.1-2.9-0.2-3.6-0.2-1.8-1-3.5-2.9-6.5q-2.8 6.2-7.5 11.6-0.2-0.4-0.3-0.8c-0.7-4.9-1.6-10.5-2.9-13.8zm7.7 5.6c-0.2 0.4-0.2 0.8 0 0.8 0.1 0.1 0.4-0.2 0.5-0.6 0.2-0.4 0.2-0.8 0.1-0.8-0.2-0.1-0.5 0.2-0.6 0.6z"/><path class="c" d="m157 71.7q0 0 0 0.1 0-0.1 0-0.1z"/><path fill-rule="evenodd" class="c" d="m205.8 47.6c0.1 0.7 0.1 2 0.2 3.6-3.4 0.9-7 1.9-10.2 2.9q-0.2-0.7-0.4-1.4 4.7-5.4 7.5-11.6c1.9 3 2.7 4.7 2.9 6.5zm-8.5 4.7c0.2-0.4 0.2-0.8 0-0.8-0.1-0.1-0.4 0.2-0.5 0.6-0.2 0.4-0.2 0.8-0.1 0.9 0.2 0 0.5-0.3 0.6-0.7zm1.3-0.2c0.1-0.4 0.1-0.8 0-0.8-0.2-0.1-0.4 0.2-0.6 0.6-0.1 0.4-0.2 0.8 0 0.9 0.2 0 0.4-0.2 0.6-0.7zm1.5-3.4c0.2-0.4 0.2-0.8 0-0.8-0.1-0.1-0.4 0.2-0.6 0.6-0.1 0.4-0.1 0.8 0 0.9 0.2 0 0.4-0.3 0.6-0.7zm2.3-3.2c0.1-0.4 0.1-0.8 0-0.9-0.2 0-0.4 0.3-0.6 0.7-0.1 0.4-0.2 0.8 0 0.8 0.1 0.1 0.4-0.2 0.6-0.6zm-1.6 6.1c0.2-0.5 0.2-0.8 0-0.9-0.1-0.1-0.4 0.2-0.6 0.6-0.1 0.5-0.1 0.8 0 0.9 0.2 0.1 0.4-0.2 0.6-0.6z"/><path class="d" d="m157 71.7q0 0 0 0.1 0.1 0.1 0.2 0.2 0.5-0.2 1-0.4c-3-4.1-5.7-8.3-6.2-12.9q0-0.4 0-0.9-0.6 0.2-1.1 0.4 0.1 0.4 0.1 0.8c0.4 4.6 3 8.6 6 12.7z"/><path class="f" d="m195.1 51.9c-0.7-4.9-1.6-10.5-2.9-13.8q-0.1-0.1-0.1-0.2-0.9 0.3-1.7 0.7c1.4 3.4 3.2 8.7 4.7 13.3z"/><path class="f" d="m178 61.8q0.3-0.1 0.6-0.3c-1.5-4.2-2.7-8.3-3-10.3 0 0-0.5-1.5-1.1-3.2q-0.3 0.2-0.6 0.3 0.1 0.4 0.3 0.7c1.1 2.6 2.9 9.2 3.8 12.8z"/><path class="f" d="m158.2 71.6c4.9-2.1 9.8-4.6 14.3-6.9-1.1-4.3-1.5-6.6-1-5.1 0.2 0.5 1 2.4 1.9 4.6q2-1 4-2c-2.3-4.3-4-8.9-5.2-13-4.8 2.3-9.8 4.6-14.1 6.3 1.3 9.6 3.7 18.1-1.3 11.4l-0.5-0.5c-1-2.2-2.2-5.7-2.9-9.1q-0.8 0.3-1.4 0.5 0 0.5 0 0.9c0.5 4.6 3.2 8.8 6.2 12.9z"/><path class="f" d="m176.5 47q-0.2 0.1-0.5 0.3 0.4 0.9 0.7 1.9-0.1-1.1-0.2-2.2z"/><path class="g" d="m179.7 58.8q0.4 0.7 0.7 1.8 2.7-1.4 5.1-2.5c-2.4-4.4-5.8-9-5.8-9 2.5 3.2 5.1 5.8 6.9 8.5q1-0.5 1.9-0.9-1-1.1-2.1-2c-3.4-2.8-5-6.4-5.8-10q-0.8 0.5-1.7 1 0.1 0.1 0.1 0.3c0 0 0-0.1-0.1-0.3q-1.1 0.6-2.4 1.3 0.1 1.1 0.2 2.2c1.1 3.4 2.1 7.4 3 9.6z"/><path class="g" d="m188.2 54.3q0.8 1.1 1.5 1.9 1.1-0.4 2.2-0.8 1.8-0.6 3.9-1.3-0.2-0.7-0.4-1.4-0.2-0.4-0.3-0.8c-1.5-4.6-3.3-9.9-4.7-13.3q-0.8 0.4-1.6 0.9c2.7 7.1 2.9 13.1 2.9 13.1-2.3-2.5-1.3-5.7-3.6-12.7q-0.6 0.3-1.1 0.7-1 0.9-2.5 1.8c0.3 3.8 0.7 7.8 3.7 11.9z"/><path class="b" d="m186.4 54.7q1.1 0.9 2.1 2 0.6-0.2 1.2-0.5-0.7-0.8-1.5-1.9c-3-4.1-3.4-8.1-3.7-11.9q-1.7 1.1-3.9 2.3c0.8 3.6 2.4 7.2 5.8 10z"/><path class="b" d="m185.5 58.1q0.6-0.3 1.1-0.5c-1.8-2.7-4.4-5.3-6.9-8.5 0 0 3.4 4.6 5.8 9z"/><path class="b" d="m178.9 45.7q0 0 0 0c0.1 0.2 0.1 0.3 0.1 0.3q0-0.2-0.1-0.3z"/><path class="b" d="m191.7 52.6c0 0-0.2-6-2.9-13.1q-0.4 0.2-0.7 0.4c2.3 7 1.3 10.2 3.6 12.7z"/><path class="f" d="m178.6 61.5q0.9-0.4 1.8-0.9-0.3-1.1-0.7-1.8c-0.9-2.2-1.9-6.2-3-9.6q-0.3-1-0.7-1.9-0.7 0.3-1.5 0.7c0.6 1.7 1.1 3.2 1.1 3.2 0.3 2 1.5 6.1 3 10.3z"/><path class="g" d="m177.4 62.2q0.3-0.2 0.6-0.4c-0.9-3.6-2.7-10.2-3.8-12.8q-0.2-0.3-0.3-0.7-0.9 0.5-1.7 0.9c1.2 4.1 2.9 8.7 5.2 13z"/><path class="b" d="m198.6 51.3c-0.2-0.1-0.4 0.2-0.6 0.6-0.1 0.4-0.2 0.8 0 0.9 0.2 0 0.4-0.2 0.6-0.7 0.1-0.4 0.1-0.8 0-0.8z"/><path class="b" d="m200.1 47.9c-0.1-0.1-0.4 0.2-0.6 0.6-0.1 0.4-0.1 0.8 0 0.9 0.2 0 0.4-0.3 0.6-0.7 0.2-0.4 0.2-0.8 0-0.8z"/><path class="b" d="m200.8 50.7c-0.1-0.1-0.4 0.2-0.6 0.6-0.1 0.5-0.1 0.8 0 0.9 0.2 0.1 0.4-0.2 0.6-0.6 0.2-0.5 0.2-0.8 0-0.9z"/><path class="b" d="m197.3 51.5c-0.1-0.1-0.4 0.2-0.5 0.6-0.2 0.4-0.2 0.8-0.1 0.9 0.2 0 0.5-0.3 0.6-0.7 0.2-0.4 0.2-0.8 0-0.8z"/><path class="b" d="m202.4 44.6c-0.2 0-0.4 0.3-0.6 0.7-0.1 0.4-0.2 0.8 0 0.8 0.1 0.1 0.4-0.2 0.6-0.6 0.1-0.4 0.1-0.8 0-0.9z"/><path class="c" d="m199.9 44.5c0.1 0.1 0.4-0.2 0.5-0.6 0.2-0.4 0.2-0.8 0.1-0.8-0.2-0.1-0.5 0.2-0.6 0.6-0.2 0.4-0.2 0.8 0 0.8z"/><path class="h" d="m156.3 66.4l0.5 0.5c5 6.7 2.6-1.8 1.3-11.4-1.7 0.7-3.3 1.3-4.7 1.8 0.7 3.4 1.9 6.9 2.9 9.1z"/><path class="g" d="m171.5 59.6c-0.5-1.5-0.1 0.8 1 5.1q0.5-0.2 0.9-0.5c-0.9-2.2-1.7-4.1-1.9-4.6z"/><path class="b" d="m67.7 141.7c-5.3 0.5-10.6 1.3-15.7 2.1q-0.5 0-1 0.1-2.2 0.4-4.4 0.7-0.3 0.1-0.7 0.1-0.3 0.1-0.7 0.2-1 0.1-2 0.3-2.9 0.4-5.6 0.8-0.6 0.1-1.2 0.1-1.1 0.1-2.1 0.2-0.6 0.1-1.2 0.1-1.3 0.1-2.4 0.1-1.9 0.1-4.1 0c-3.4 0-7.1-0.2-10.6-0.4q-0.2 0-0.3 0-0.2 0-0.4 0c-0.5 1.7-0.8 3-1 3.7-0.6 2.5 0.7 5.8 2.3 12.8q0.2 0 0.4 0.1c2.7 0.3 5.4 0.5 8 0.4q1-0.1 1.9-0.2 0.9-0.1 1.8-0.3 0.4 0 0.7-0.1 0.7-0.2 1.3-0.4 1.3-0.5 3-0.9 2-0.5 4.4-1 0.9-0.2 1.9-0.4 0 0 0 0 1.3-0.2 2.7-0.5 0.3 0 0.6-0.1 0.8-0.1 1.6-0.2 0.3-0.1 0.7-0.1 0.9-0.2 1.9-0.3c5.3-0.7 10.8-1.3 15.4-1.6 1.8-0.2 3.5-0.2 5-0.3q0.8 0 1.5 0 0.6 0 1.1 0 0.1-0.4 0.2-0.8c1-4.5-0.2-9.2-1.7-13.9q0-0.1 0-0.1-0.1-0.2-0.1-0.3-0.6 0-1.2 0.1z"/><path class="a" d="m14.7 149.7c0.2-0.7 0.5-2 1-3.6q-0.2 0-0.4 0c-0.5 1.7-0.8 3-1 3.7-0.6 2.5 0.7 5.8 2.3 12.8q0.2 0 0.4 0.1c-1.5-7.1-2.9-10.4-2.3-13z"/><path fill-rule="evenodd" class="b" d="m25 162.9q0 0.1 0 0.2c-2.6 0.1-5.3-0.1-8-0.4-1.5-7.1-2.9-10.4-2.3-13 0.2-0.7 0.5-2 1-3.6q0.1 0 0.3 0c-0.4 1.6-0.8 2.8-0.9 3.4-0.4 1.8-0.2 3.7 0.7 7.2q4.6-5 10.8-8.7 0 0.4 0 0.9c-0.8 4.8-1.8 10.4-1.6 14zm-5.5-7.8c0.2-0.3 0.4-0.7 0.2-0.8-0.1-0.1-0.4 0.1-0.7 0.5-0.3 0.3-0.4 0.7-0.3 0.8 0.1 0.1 0.5-0.1 0.8-0.5z"/><path class="c" d="m69 142q0-0.1 0-0.1 0 0 0 0.1z"/><path fill-rule="evenodd" class="c" d="m15.1 149.5c0.1-0.6 0.5-1.8 0.9-3.4 3.5 0.2 7.2 0.4 10.6 0.4q0 0.7 0 1.5-6.2 3.7-10.8 8.7c-0.9-3.5-1.1-5.4-0.7-7.2zm9.5-1.8c-0.3 0.4-0.4 0.7-0.3 0.9 0.1 0.1 0.5-0.1 0.8-0.5 0.2-0.3 0.4-0.7 0.2-0.8-0.1-0.1-0.4 0.1-0.7 0.4zm-1.2-0.2c-0.3 0.4-0.5 0.7-0.3 0.8 0.1 0.1 0.4 0 0.7-0.4 0.3-0.3 0.4-0.7 0.3-0.8-0.1-0.1-0.5 0.1-0.7 0.4zm-2.6 2.8c-0.2 0.3-0.4 0.7-0.2 0.8 0.1 0.1 0.4-0.1 0.7-0.4 0.3-0.4 0.4-0.7 0.3-0.8-0.1-0.1-0.5 0.1-0.8 0.4zm-3.1 2.4c-0.3 0.3-0.5 0.7-0.3 0.8 0.1 0.1 0.4-0.1 0.7-0.5 0.3-0.3 0.4-0.7 0.3-0.8-0.1-0.1-0.5 0.1-0.7 0.5zm3.4-5.3c-0.3 0.3-0.5 0.7-0.3 0.8 0.1 0.1 0.4-0.1 0.7-0.4 0.3-0.4 0.4-0.7 0.3-0.8-0.1-0.2-0.5 0-0.7 0.4z"/><path class="d" d="m69 142q0-0.1 0-0.1-0.1-0.2-0.1-0.3-0.6 0-1.2 0.1c1.6 4.8 2.9 9.6 1.9 14.2q-0.1 0.4-0.2 0.8 0.6 0 1.1 0 0.1-0.4 0.2-0.8c1-4.5-0.2-9.2-1.7-13.9z"/><path class="f" d="m26.6 148.9c-0.8 4.8-1.8 10.4-1.6 14q0 0.1 0 0.2 1-0.1 1.9-0.2c-0.3-3.6-0.3-9.2-0.3-14z"/><path class="f" d="m45.9 144.7q-0.3 0.1-0.7 0.2c0.2 4.5 0 8.7-0.4 10.7 0 0 0.1 1.6 0.1 3.4q0.3-0.1 0.7-0.1 0-0.4-0.1-0.7c-0.2-2.8 0.2-9.7 0.4-13.5z"/><path class="f" d="m67.7 141.7c-5.3 0.5-10.6 1.3-15.7 2.1-0.3 4.4-0.6 6.7-0.7 5.1 0-0.5-0.1-2.6-0.3-5q-2.2 0.4-4.4 0.7c0.8 4.9 1 9.7 0.9 14 5.3-0.7 10.8-1.3 15.4-1.6 1.7-9.5 2.1-18.3 4.7-10.5l0.3 0.7c0.3 2.4 0.3 6.1 0 9.5q0.8 0 1.5 0 0.1-0.4 0.2-0.8c1-4.6-0.3-9.4-1.9-14.2z"/><path class="f" d="m42.7 159.3q0.3 0 0.6-0.1-0.1-0.9-0.1-2-0.3 1.1-0.5 2.1z"/><path class="g" d="m43.3 147.1q-0.1-0.8-0.1-1.9-2.9 0.4-5.6 0.8c0.9 4.9 2.7 10.4 2.7 10.4-1.3-3.9-3-7.2-3.9-10.3q-1.1 0.1-2.1 0.2 0.6 1.4 1.4 2.6c2.3 3.7 2.7 7.7 2.4 11.3q0.9-0.2 1.9-0.4 0-0.2 0-0.3c0 0 0 0.1 0 0.3q1.3-0.2 2.7-0.5 0.2-1 0.5-2.1c0-3.7 0.3-7.7 0.1-10.1z"/><path class="g" d="m33.9 148.7q-0.4-1.2-0.8-2.3-1.3 0.1-2.4 0.1-1.9 0.1-4.1 0 0 0.7 0 1.5 0 0.4 0 0.9c0 4.8 0 10.4 0.3 14q0.9-0.1 1.8-0.3c-0.4-7.6 1.3-13.4 1.3-13.4 1.4 3.2-0.5 5.9-0.6 13.3q0.7-0.2 1.3-0.4 1.3-0.5 3-0.9c0.9-3.8 1.8-7.6 0.2-12.5z"/><path class="b" d="m35.7 148.9q-0.8-1.2-1.4-2.6-0.6 0.1-1.2 0.1 0.4 1.1 0.8 2.3c1.6 4.9 0.7 8.7-0.2 12.5q2-0.5 4.4-1c0.3-3.6-0.1-7.6-2.4-11.3z"/><path class="b" d="m37.6 146q-0.6 0.1-1.2 0.1c0.9 3.1 2.6 6.4 3.9 10.3 0 0-1.8-5.5-2.7-10.4z"/><path class="b" d="m40 159.8q0 0 0 0c0-0.2 0-0.3 0-0.3q0 0.1 0 0.3z"/><path class="b" d="m30 149.2c0 0-1.7 5.8-1.3 13.4q0.4 0 0.7-0.1c0.1-7.4 2-10.1 0.6-13.3z"/><path class="f" d="m45.2 144.9q-1 0.1-2 0.3 0 1.1 0.1 1.9c0.2 2.4-0.1 6.4-0.1 10.1q0 1.1 0.1 2 0.8-0.1 1.6-0.2c0-1.8-0.1-3.4-0.1-3.4 0.4-2 0.6-6.2 0.4-10.7z"/><path class="g" d="m46.6 144.6q-0.3 0.1-0.7 0.1c-0.2 3.8-0.6 10.7-0.4 13.5q0.1 0.3 0.1 0.7 0.9-0.2 1.9-0.3c0.1-4.3-0.1-9.1-0.9-14z"/><path class="b" d="m23.1 148.3c0.1 0.1 0.4 0 0.7-0.4 0.3-0.3 0.4-0.7 0.3-0.8-0.1-0.1-0.5 0.1-0.7 0.4-0.3 0.4-0.5 0.7-0.3 0.8z"/><path class="b" d="m20.6 151.1c0.1 0.1 0.4-0.1 0.7-0.4 0.3-0.4 0.4-0.7 0.3-0.8-0.1-0.1-0.5 0.1-0.8 0.4-0.2 0.3-0.4 0.7-0.2 0.8z"/><path class="b" d="m20.8 148.2c0.1 0.1 0.4-0.1 0.7-0.4 0.3-0.4 0.4-0.7 0.3-0.8-0.1-0.2-0.5 0-0.7 0.4-0.3 0.3-0.5 0.7-0.3 0.8z"/><path class="b" d="m24.3 148.6c0.1 0.1 0.5-0.1 0.8-0.5 0.2-0.3 0.4-0.7 0.2-0.8-0.1-0.1-0.4 0.1-0.7 0.4-0.3 0.4-0.4 0.7-0.3 0.9z"/><path class="b" d="m17.4 153.5c0.1 0.1 0.4-0.1 0.7-0.5 0.3-0.3 0.4-0.7 0.3-0.8-0.1-0.1-0.5 0.1-0.7 0.5-0.3 0.3-0.5 0.7-0.3 0.8z"/><path class="c" d="m19.7 154.3c-0.1-0.1-0.4 0.1-0.7 0.5-0.3 0.3-0.4 0.7-0.3 0.8 0.1 0.1 0.5-0.1 0.8-0.5 0.2-0.3 0.4-0.7 0.2-0.8z"/><path class="h" d="m67.9 147.2l-0.3-0.7c-2.6-7.8-3 1-4.7 10.5 1.8-0.2 3.5-0.2 5-0.3 0.3-3.4 0.3-7.1 0-9.5z"/><path class="g" d="m51.3 148.9c0.1 1.6 0.4-0.7 0.7-5.1q-0.5 0-1 0.1c0.2 2.4 0.3 4.5 0.3 5z"/><path class="b" d="m7.5 67.7c4.9-2.1 9.7-4.6 14.3-6.9q0.4-0.2 0.9-0.5 2-1 4-2 0.3-0.2 0.6-0.3 0.3-0.2 0.6-0.4 0.9-0.4 1.8-0.9 2.7-1.4 5.1-2.5 0.6-0.3 1.1-0.5 1-0.5 1.9-0.9 0.6-0.2 1.1-0.5 1.2-0.4 2.3-0.8 1.8-0.6 3.9-1.3c3.2-1 6.7-2 10.2-2.9q0.2-0.1 0.3-0.1 0.2 0 0.4-0.1c-0.1-1.7-0.2-3.1-0.3-3.8-0.2-2.6-2.5-5.3-6.1-11.5q-0.2 0-0.5 0.1c-2.6 0.5-5.3 1.2-7.7 2.1q-0.9 0.3-1.7 0.7-0.9 0.4-1.6 0.9-0.4 0.2-0.7 0.4-0.6 0.4-1.1 0.8-1.1 0.8-2.5 1.7-1.7 1.1-3.9 2.3-0.8 0.5-1.7 1 0 0 0 0-1.2 0.6-2.4 1.3-0.2 0.1-0.5 0.3-0.8 0.3-1.5 0.7-0.3 0.2-0.6 0.3-0.9 0.5-1.8 0.9c-4.7 2.3-9.8 4.6-14.1 6.3-1.7 0.7-3.2 1.4-4.6 1.9q-0.8 0.2-1.5 0.5-0.5 0.1-1 0.3 0 0.4 0.1 0.8c0.4 4.6 3 8.7 5.9 12.7q0.1 0 0.1 0.1 0.1 0.1 0.2 0.2 0.5-0.2 1-0.4z"/><path class="a" d="m55.3 43.5c0.1 0.7 0.2 2 0.3 3.7q0.2 0 0.4-0.1c-0.1-1.7-0.2-3.1-0.3-3.8-0.2-2.6-2.5-5.3-6.1-11.5q-0.2 0-0.5 0.1c3.7 6.2 6 8.9 6.2 11.6z"/><path fill-rule="evenodd" class="b" d="m41.5 34.2q-0.1-0.1-0.1-0.2c2.4-0.9 5.1-1.6 7.7-2.1 3.7 6.2 6 8.9 6.2 11.6 0.1 0.7 0.2 2 0.3 3.7q-0.1 0-0.3 0.1c-0.1-1.6-0.2-2.9-0.2-3.5-0.2-1.8-1-3.6-2.9-6.6q-2.9 6.2-7.6 11.6-0.1-0.4-0.2-0.8c-0.8-4.9-1.6-10.5-2.9-13.8zm7.7 5.6c-0.2 0.4-0.2 0.8-0.1 0.9 0.2 0 0.5-0.3 0.6-0.7 0.2-0.4 0.2-0.8 0-0.8-0.1-0.1-0.4 0.2-0.5 0.6z"/><path class="c" d="m6.2 67.8q0.1 0 0.1 0.1 0-0.1-0.1-0.1z"/><path fill-rule="evenodd" class="c" d="m55.1 43.8c0 0.6 0.1 1.9 0.2 3.5-3.5 0.9-7 1.9-10.2 2.9q-0.2-0.7-0.5-1.4 4.7-5.4 7.6-11.6c1.9 3 2.7 4.8 2.9 6.6zm-8.5 4.6c0.2-0.4 0.2-0.8 0-0.8-0.1-0.1-0.4 0.2-0.6 0.6-0.1 0.4-0.1 0.8 0 0.9 0.2 0 0.4-0.2 0.6-0.7zm1.2-0.1c0.2-0.5 0.2-0.8 0.1-0.9-0.2-0.1-0.4 0.2-0.6 0.6-0.2 0.4-0.2 0.8 0 0.9 0.1 0.1 0.4-0.2 0.5-0.6zm1.6-3.5c0.1-0.4 0.1-0.8 0-0.8-0.2-0.1-0.4 0.2-0.6 0.6-0.1 0.4-0.2 0.8 0 0.9 0.1 0 0.4-0.2 0.6-0.7zm2.2-3.2c0.2-0.4 0.2-0.8 0.1-0.9-0.2 0-0.4 0.3-0.6 0.7-0.2 0.4-0.2 0.8 0 0.8 0.1 0.1 0.4-0.2 0.5-0.6zm-1.5 6.1c0.1-0.4 0.1-0.8 0-0.9-0.2 0-0.4 0.2-0.6 0.7-0.1 0.4-0.1 0.8 0 0.8 0.2 0.1 0.4-0.2 0.6-0.6z"/><path class="d" d="m6.2 67.8q0.1 0 0.1 0.1 0.1 0.1 0.2 0.2 0.5-0.2 1-0.4c-3-4.1-5.8-8.3-6.2-12.9q0-0.4-0.1-0.8-0.5 0.1-1 0.3 0 0.4 0.1 0.8c0.4 4.6 3 8.7 5.9 12.7z"/><path class="f" d="m44.4 48c-0.8-4.9-1.6-10.5-2.9-13.8q-0.1-0.1-0.1-0.2-0.9 0.3-1.7 0.7c1.3 3.4 3.2 8.7 4.7 13.3z"/><path class="f" d="m27.3 58q0.3-0.2 0.6-0.4c-1.5-4.2-2.7-8.3-3-10.3 0 0-0.5-1.5-1.1-3.2q-0.3 0.2-0.6 0.3 0.1 0.4 0.3 0.7c1.1 2.6 2.8 9.2 3.8 12.9z"/><path class="f" d="m7.5 67.7c4.9-2.1 9.7-4.6 14.3-6.9-1.1-4.3-1.5-6.6-1-5.1 0.2 0.5 1 2.4 1.9 4.6q2-1 4-2c-2.3-4.3-4-8.9-5.3-13-4.7 2.3-9.8 4.6-14.1 6.3 1.4 9.6 3.7 18.1-1.2 11.4l-0.5-0.5c-1-2.2-2.2-5.7-2.9-9q-0.8 0.2-1.5 0.5 0.1 0.4 0.1 0.8c0.4 4.6 3.2 8.8 6.2 12.9z"/><path class="f" d="m25.8 43.1q-0.2 0.1-0.5 0.3 0.3 0.9 0.7 1.9-0.1-1.1-0.2-2.2z"/><path class="g" d="m29 54.9q0.3 0.8 0.7 1.8 2.7-1.4 5.1-2.5c-2.4-4.4-5.9-9-5.9-9 2.6 3.3 5.2 5.8 7 8.5q1-0.5 1.9-0.9-1-1-2.1-2c-3.4-2.8-5-6.4-5.8-10q-0.8 0.5-1.7 1 0.1 0.2 0.1 0.3c0 0 0-0.1-0.1-0.3q-1.2 0.6-2.4 1.3 0.1 1.1 0.2 2.2c1.1 3.4 2.1 7.4 3 9.6z"/><path class="g" d="m37.4 50.4q0.8 1.1 1.5 1.9 1.2-0.4 2.3-0.8 1.8-0.6 3.9-1.3-0.2-0.7-0.5-1.4-0.1-0.4-0.2-0.8c-1.5-4.6-3.4-9.9-4.7-13.3q-0.9 0.4-1.6 0.9c2.7 7.2 2.9 13.1 2.9 13.1-2.4-2.5-1.3-5.7-3.6-12.7q-0.6 0.4-1.1 0.8-1.1 0.8-2.5 1.7c0.2 3.9 0.6 7.8 3.6 11.9z"/><path class="b" d="m35.7 50.8q1.1 1 2.1 2 0.6-0.2 1.1-0.5-0.7-0.8-1.5-1.9c-3-4.1-3.4-8-3.6-11.9q-1.7 1.1-3.9 2.3c0.8 3.6 2.4 7.2 5.8 10z"/><path class="b" d="m34.8 54.2q0.6-0.3 1.1-0.5c-1.8-2.7-4.4-5.2-7-8.5 0 0 3.5 4.6 5.9 9z"/><path class="b" d="m28.2 41.8q0 0 0 0c0.1 0.2 0.1 0.3 0.1 0.3q0-0.1-0.1-0.3z"/><path class="b" d="m41 48.7c0 0-0.2-5.9-2.9-13.1q-0.4 0.2-0.7 0.4c2.3 7 1.2 10.2 3.6 12.7z"/><path class="f" d="m27.9 57.6q0.9-0.4 1.8-0.9-0.4-1-0.7-1.8c-0.9-2.2-1.9-6.2-3-9.6q-0.4-1-0.7-1.9-0.8 0.3-1.5 0.7c0.6 1.7 1.1 3.2 1.1 3.2 0.3 2 1.5 6.1 3 10.3z"/><path class="g" d="m26.7 58.3q0.3-0.2 0.6-0.3c-1-3.7-2.7-10.3-3.8-12.9q-0.2-0.3-0.3-0.7-0.9 0.5-1.8 0.9c1.3 4.1 3 8.7 5.3 13z"/><path class="b" d="m47.9 47.4c-0.2-0.1-0.4 0.2-0.6 0.6-0.2 0.4-0.2 0.8 0 0.9 0.1 0.1 0.4-0.2 0.5-0.6 0.2-0.5 0.2-0.8 0.1-0.9z"/><path class="b" d="m49.4 44c-0.2-0.1-0.4 0.2-0.6 0.6-0.1 0.4-0.2 0.8 0 0.9 0.1 0 0.4-0.2 0.6-0.7 0.1-0.4 0.1-0.8 0-0.8z"/><path class="b" d="m50.1 46.8c-0.2 0-0.4 0.2-0.6 0.7-0.1 0.4-0.1 0.8 0 0.8 0.2 0.1 0.4-0.2 0.6-0.6 0.1-0.4 0.1-0.8 0-0.9z"/><path class="b" d="m46.6 47.6c-0.1-0.1-0.4 0.2-0.6 0.6-0.1 0.4-0.1 0.8 0 0.9 0.2 0 0.4-0.2 0.6-0.7 0.2-0.4 0.2-0.8 0-0.8z"/><path class="b" d="m51.7 40.7c-0.2 0-0.4 0.3-0.6 0.7-0.2 0.4-0.2 0.8 0 0.8 0.1 0.1 0.4-0.2 0.5-0.6 0.2-0.4 0.2-0.8 0.1-0.9z"/><path class="c" d="m49.1 40.7c0.2 0 0.5-0.3 0.6-0.7 0.2-0.4 0.2-0.8 0-0.8-0.1-0.1-0.4 0.2-0.5 0.6-0.2 0.4-0.2 0.8-0.1 0.9z"/><path class="h" d="m5.6 62.5l0.5 0.5c4.9 6.7 2.6-1.8 1.2-11.4-1.7 0.7-3.2 1.4-4.6 1.9 0.7 3.3 1.9 6.8 2.9 9z"/><path class="g" d="m20.8 55.7c-0.5-1.5-0.1 0.8 1 5.1q0.4-0.2 0.9-0.5c-0.9-2.2-1.7-4.1-1.9-4.6z"/></svg>