<svg version="1.2" xmlns="http://www.w3.org/2000/svg" viewBox="0 0 1466 118" width="1466" height="118"><style>.a{fill:#fff}</style><path class="a" d="m17.2 57.2c0 4.7-0.3 24.6-0.3 29.9l-0.1 23.6c0 2.4-2 1.8-4.3 1.8-1.8 0-5.1 0.5-7.2 0.5-3.2 0-3.1-1.4-2.9-5.2 0-2.9-0.5-21.9-0.5-28.2 0-6.2 1.5-26.9 1.5-32.4 0-5.4 0.4-24 0.4-28.4 0-2.2-0.2-5.3-0.2-8.2 0-2.9 0.2-5.5 0.8-6.1 0.4-0.4 0.7-0.4 1-0.4 0.8 0 1.5 0.7 3.7 0.4 1.3-0.1 2.5-0.1 3.7-0.1 1.6 0 2.9 0 4.3 0.3 2.6 0.9 2.9 5.7 3.8 9.5 1.2 6.2 6.5 18.8 8.9 24.1 2.9 4.8 8.8 18.5 10.7 24.5 1.1 2.9 3.2 7.5 4.9 11.5l3.2 7.2c2.2-4.4 4.4-8.5 6.3-12.6l9.9-19.7c4.8-9.4 10.7-22 13.9-27.7 2.9-5.8 8.5-16.1 10.6-16.1 0.9 0 1.2 0.8 1.2 2 0 2.3-1 5.9-1.3 8.6-0.6 4.1-0.6 29.9-0.6 36.4 0 7-0.7 26-1.1 30.7-0.2 2-0.3 6.8-0.3 11.7 0 6.5 0.1 13.5 0.1 14.7 0 0.3 0 0.6 0 0.7 0 1.5-0.4 1.7-0.9 1.5-0.1 0-0.1 0-0.3 0-0.9 0-2.5 0.3-3.8 0.3-0.9-0.1-1-1-1-2.8 0 6.6-0.3-21.5 0.3-27.1 0.4-4.6 1-21.4 1-25.8-0.1-2.2 0.2-8 0.3-13.9l0.3-10.9q-1.1 1.6-1.8 3.2c-1 1.8-2.1 3.9-2.8 5.6-1.7 3.3-11.2 22.5-13.2 26.2-2 3.6-12.1 24.7-13.3 27.5-1.3 2.9-4 9.3-4.6 9.3-0.6 0-1.2-1.2-2.6-3.5-1.6-2.4-5.4-12.1-6.9-16.5-1.5-4.4-11.5-21.7-13.5-26.2-1.1-2.3-2.7-6.5-4.1-10.2-0.9-2.1-1.8-4.4-2.6-6.6l-0.3 6.6c-0.1 3.7-0.3 8.1-0.3 10.3z"/><path fill-rule="evenodd" class="a" d="m106.7 95.1c0.5-2.4 1.7-7 2.9-11.1 1.2-4.2 4.1-13 4.8-17.4 1.1-4.7 3.2-10.9 4-14.4 0.7-3.6 2.8-11 4.1-15.6 1.3-4.4 2.4-8.3 3.4-10.6 0.8-2.2 4-10.7 4.7-14.8 1.2-4.2 2.5-7.3 5.3-7.3 1.4 0 2.5 3.4 4.1 7.6 1.7 3.9 4.7 16.2 5.5 18.6 0.4 2.8 7.1 20.5 7.9 23.2 1.2 3 6.5 17.9 8.1 21.6 1.2 3.7 5 14.7 6.2 19.4 1.2 4.9 5.3 14.6 6.1 16.5 0.3 0.8 0.4 1.2 0.4 1.6 0 0.4-0.3 0.6-1.6 0.6h-8.5c-0.8 0-1.2-0.2-1.7-1.4-0.7-2-1.2-3.8-1.6-5.5-1.1-2.8-1.7-5.7-1.8-6.8-0.5-2.2-2-7.8-3.2-10.3-0.6-1.3-1.7-4.1-2.4-6.5l-1.4-4.4c-1.1-2.4-1.4-2.4-2.4-2.4-1.7 0-3.2 0-4.7 0.2-2.6 0.1-5.5 0.3-6.5 0.3-1.3 0.1-6.4 0.1-11.2 0.1-0.2 0-9.4 0-9.6 0-0.6 0-1 0.5-1.3 1.7l-0.4 1.5-0.6 2.9c-0.7 2.4-3 14.2-3.4 15.4-0.2 1.2-0.8 3.8-1.4 5-0.5 0.6-0.9 2.9-1.5 4.9-0.5 1.2-0.8 2.5-1.1 3.9-0.4 1.2-0.3 1.4-1.6 1.4h-3.1c-1 0-1.2-0.6-0.7-2 0-0.2 0-0.5 0.1-0.8 0.2-0.4 0.2-1 0.6-2.1l1.4-5.6c0.4-1.7 1.7-4.5 2.1-7.4zm40.7-30.3c0-0.6-0.4-1.8-1-3.3-1.2-2.8-3.8-12.6-5.5-17.1-1.5-4.6-4.8-16.2-5.3-18.8-0.7-2.7-2.2-8-3-8-0.6 0-1.4 3.9-2.4 7.4-0.8 3.3-4.6 16.9-5.8 20.6-0.7 3.6-3.8 15-5 18.1-0.1 0.5-0.3 0.8-0.3 1.1 0 2 2.9 1.5 4.3 1.5 1.5 0 6.8-0.3 8.8-0.3 0.9-0.1 2.8-0.3 5.1-0.3 3 0 6.5 0.2 8.2 0.2 1.5 0 1.9-0.3 1.9-1.1z"/><path class="a" d="m208.2 110.8c0 2.6-1.7 2.2-2.9 2.2-1.4 0-5.8-0.5-8-0.5-2.2 0-10.2 0.5-11.7 0.5-1.7 0-1.5-1.1-1.5-3.5l-0.2-37.1c0-3.1 0-8.5 0-14.3 0-8.6 0-18-0.3-21.3-0.1-1.8-0.1-3.8-0.1-5.8 0-4.1 0.1-8 0.1-10l0.2-11.9c0-1.1 0.6-1.4 1.5-1.4 1.1 0 2.4 0.5 3.3 0.5l17.3 0.1c2.3 0 2.4 1.1 2.4 2.1 0 1.1 0.2 3.1 0.2 7.5 0 4.2-1.7 16-1.7 20.9v10c0 1.9 0 4 0.1 6.3q2.1-2.3 3.7-4.5l5.6-7.3c2.9-3.6 14.8-20.3 16.3-22.6 1.6-2.2 7.8-9 8.7-11.6 0.7-2.4 3-2 4.4-2.1 1.3 0 4.1-0.3 6.3-0.5 0.3 0 0.5 0 0.6 0 1.8 0 2.8 0.5 2.8 1.1 0 0.7-0.8 1.3-1.6 2.1-0.7 0.7-11.8 14.2-14.6 17.9-2.5 3.6-15.5 21.3-17.6 23.7-2 2.4-7.7 12-7.7 12.7 0 1.1 1.6 2.2 3.9 4.6 2 2.4 9.8 10.6 11.5 12.3 1.7 1.6 10.6 12.1 15.9 16.9 5.2 4.7 12.7 13 13.9 14.2 0.2 0.2 0.3 0.5 0.3 0.7 0 0.9-1.6 1.3-3 1-1.7 0-9.7 0.5-12.6 0.5-3 0.1-4.6-0.6-5.9-1.7-1-1.1-3.3-3-5.6-5.6-2.2-2.4-6.3-6.7-10.4-10.8-2-1.9-5.6-4.8-8.6-7.7l-5.8-4.8v12.7c0 3.2 0.8 11.8 0.8 14.5z"/><path class="a" d="m280.8 65.4c0 3.5 0.6 5 0.6 8.5l0.2 18c0 2.6-0.2 5.3-0.2 7.6-0.1 1.3-0.1 2.6-0.1 3.8 2 0.1 3.9 0.1 5.7 0.1 3.2 0.2 7 0.2 9.9 0.2 5.6 0 10.6 0.3 16 0.3 5.5 0 10.6-0.5 14.7-0.5 4.1 0 8.1 0.3 9.7 0.3 1.7 0 1.7 0.8 1.7 2.4 0 1.4-0.3 3.1-0.3 4.7 0 1.4-0.9 1.9-3.2 1.9-0.8 0-1.7 0-2.7-0.2-2.7-0.3-9.6-0.5-16.5-0.5-3.8 0-7.6 0-10.9 0.2-2.6 0.2-5.5 0.2-8.5 0.2-8 0-16.7-0.4-19.8-0.4-3.1 0-3.5-0.9-3.5-2.2 0-0.8 0.1-1.5 0.1-2.4 0.2-0.7 0.2-1.1 0.2-1.4 0-1.1-0.3-2-0.3-8.6 0-9.3-0.8-21.1-0.8-31.2 0-10.2 1.2-25.2 1.2-31.4 0-6 0-17.5-0.4-23.1-0.5-5.7 7.2-3.1 11.9-3.1 4.7 0 17.3-0.9 25.5-0.9 7.8 0 23.1 0.5 26.3 0.5 3.2 0 2.6 2.4 2.6 4.1 0 0.4 0 0.9 0 1.6 0 1.5 0 3.5-0.6 3.5-1.7 0-2-0.4-4.9-0.4h-24.2l-18.8-0.2c-2.2 0-4.8 0.3-6.8 0.5l-3.5 0.3-0.3 4c-0.1 2.3-0.1 4.9-0.1 7.2 0 4.2 0.6 8.1 0.6 11.6v6.1c0 1.2 0 2.4 0.1 3.8 1.4 0.1 2.8 0.1 4.1 0.1h6.1c2.6 0 5.7-0.6 10.4-0.6 4.9 0 10 0.6 11.8 0.6 1.9 0 4.3-0.4 7.9-0.4 2.7 0 7.4 0.4 10.5 0.4 0.9 0 1.6 0 2.2-0.1 0.3 0 0.6-0.2 1-0.2 1.6 0 1.9 1.4 1.8 2-0.2 0.7-0.2 4.2-0.3 5.4-0.2 1.4 0 1.7-2.3 1.7-2.1 0-15.1-1.7-20.9-1.7-5.6 0-12.9 0-18.9 0.5-3.1 0.4-6.4 0.3-9 0.3-1.5 0-2.8 0-4.2-0.2l-0.5 2.5c-0.1 1.3-0.3 3.1-0.3 4.8z"/><path class="a" d="m414.4 113.3c-3 0.1-4.9 0.1-5.6 0.1-1.4 0-1.8-0.3-1.8-0.9 0-0.5 0.4-1.1 0.6-1.7 0.4-1.3 4.5-12.2 5.3-14.7 0.6-2.5 3-8.3 4.1-11.2 1-2.5 2.1-4 1.3-5.7-0.7-1.7-2.7-9.6-4.4-13.2-1.6-4.1-2.7-8.9-4.4-13.6-1.6-4.6-10.4-30-11.6-33.9-1.2-4.1-3.1-6.4-3.1-8.1 0-1.6 2.3-1.8 4.6-1.9 0.6-0.2 1.4-0.2 2.4-0.2 0.9 0 2.3 0 3.6 0.2 2.9 0 5 0 6.3 0.1 2.5 0.5 1.6 1.5 2.1 3.2 0.4 1.7 2.1 7.3 3.9 12.6 1.2 3.8 3 10.3 4.7 14.2 1.2 2.9 2.9 7.4 4.3 11.5 0.7 2.3 1.6 4.7 2.4 7.3l1.2-3.8c0.6-2.3 1.3-4.5 2.1-6.5l1.7-4.6 1.5-3.9c0.1-0.6 0.7-2 1.5-3.9 0.8-2.2 1.4-3.7 1.8-4.4 1.7-3.4 4.4-12.3 5.6-17.4 1.2-5.2 3.7-4.4 5.8-4.4 1.2 0 6.6-0.2 9.5 0.1 2.4 0.3 3.2 0.8 3.2 1.5 0 0.5-0.2 0.8-0.3 1.4-0.8 1.8-3.8 11.8-6.2 17.6-2.4 5.6-10.8 27.2-13.2 33.9-2.3 7-13.5 33.5-14.1 36-0.9 2.6-1.8 9-2.2 11.1-0.5 2.1-1.3 3.2-2.5 3h-4.1c-0.9 0.2-2.8 0.2-6 0.2z"/><path fill-rule="evenodd" class="a" d="m542.9 61c0 22-9.7 55.3-33.4 55.3-33.3 0-35.9-41.1-35.9-57.4 0-43.6 21.5-54.1 34.8-54.1 32.9 0 34.5 34.1 34.5 56.2zm-26.6 1.4c0-7.7-2.6-15.2-7-15.2-5.6 0-7.6 10-7.6 16.5 0 6.1 0.5 14.1 6.6 14.1 5.9 0 8-7.8 8-15.4z"/><path class="a" d="m597.1 80.4c9.1 0 10.2-9.5 10.2-14.2 0-3.5 0.6-17.1 0.6-26.4 0-2.3 0-4.2-0.2-5.7 0-7.5-0.9-20.9-0.9-24.6 0-3.6 0.8-4.8 3.7-4.8h19.2c0.6 0 1.4-0.2 2.3-0.2 1.6 0 3.3 0.6 3.8 4.6 0.3 2.6 0.3 9.7 0.3 17.8 0 12.3-0.2 27-0.2 32.6 0 9.2-3 52.5-38.8 52.5-35.9 0-38.1-26.6-38.7-34.5-0.2-1.5-0.2-3.6-0.2-6 0-10.8 0.9-28.8 0.6-36.8 0-10.2-0.4-22.1-0.4-25 0-3-0.8-5.6 3.3-5.5 2.6 0.2 5.3 0.3 7.9 0.3 1.6 0 3.3-0.1 5-0.3 1.6-0.1 3.6-0.3 5.4-0.3 2.6 0 5 0.2 6.1 0.2 2 0 2.1 0.9 2.3 3.2v60.5c0 3.7-0.5 12.6 8.7 12.6z"/><path fill-rule="evenodd" class="a" d="m661.2 63c0.6 6.6 0.7 44.1 0.7 47.8 0 3.8-4 3.8-6 3.8-1.8 0-1.7-2.6-1.8-4.2-0.2-1.2-0.3-4-0.3-7.1 0-1.6 0-3.1 0.1-4.6 0.2-3.3 0.8-40.9 0.8-65.1 0-10.4-0.2-18.3-0.5-20.3-0.1-1.2-0.1-2.3-0.1-3.2 0-3.1 1-3.4 2.7-3.4 2 0 16.2 0.4 22.4 0.4 6.4 0 28.8 1.7 28.8 15 0 17.9-25.2 20.6-32.7 20.6-1.2 0-2 0-2.2-0.2 1.4 1.4 43.4 58.8 48.8 64.2 3.3 3.4 4.1 4.7 4.1 5.7 0 0.4-0.5 0.7-0.8 1-0.9 0.6-3.9 0.9-6.8 0.9-6.3 0-5.9-0.9-7.4-4.1-1.2-2.4-15.3-20-22.6-30.4-3.6-5.3-10.3-13.6-15.9-20.8l-10.4-13-0.6 6.1c-0.5 3.5-0.5 7.7-0.3 10.9zm11.9-20.5q0 0 0 0 0 0 0 0zm-3.9-6.2c4.3-0.1 9.5-0.4 13.6-1.2 8.1-1.3 14.1-3.3 14.1-10 0-6.5-12.5-9.7-18.6-9.7-3.8-0.1-7.6-0.1-10.6-0.1h-5.2l-0.9 21.2c2.6 0 5 0 7.6-0.2z"/><path fill-rule="evenodd" class="a" d="m850.2 61c0 22-9.7 55.3-33.5 55.3-33.3 0-35.9-41.1-35.9-57.4 0-43.6 21.5-54.1 34.8-54.1 32.9 0 34.6 34.1 34.6 56.2zm-26.7 1.4c0-7.7-2.6-15.2-7-15.2-5.6 0-7.5 10-7.5 16.5 0 6.1 0.4 14.1 6.5 14.1 5.9 0 8-7.8 8-15.4z"/><path class="a" d="m894.5 56.6c1.2-2.7 3.5-11.9 4.7-16.3 1.2-4.7 6.7-19.9 7.9-23.5 1.2-3 4.1-10 5.7-10 1.7 0 1.5 0.3 2.2 2.6 0.4 2.3 1 3.2 1.5 6.3 1.2 3.2 5.3 14.1 7.2 18.8l4.7 10.2 2.8 6c0.1-0.4 0.3-0.9 0.6-1.3l1.5-3.8c1-3.2 1.3-9.9 3-15.8 1.2-5.1 4.9-13.6 5.3-17.2 0.5-4.3 2-5.3 3.6-5.3 1.3-0.3 3.7-0.6 5.5-0.6 0.8 0 1.5 0 2 0.1 1.3 0 1.8 0.5 1.8 1.4 0 0.4-0.2 1-0.3 1.8-1.1 2.6-1.5 5.7-3.2 10.4-1.5 4.7-6.2 23.5-7.9 28.8-1.2 5.2-3 17.4-3 18.9 0 1.7-0.5 4.7-2.1 8.8-1.8 4.9-5.6 30-6.4 31.5-0.4 2.3-0.4 4.7-1.5 4.7-1.7 0-2.1-0.9-3.2-3.2-1.2-1.5-5-11.5-6.2-14.7-1.2-2.8-5.1-14.2-6.4-17.7-0.6-2.3-1.8-5.6-3-8.6l-2.1-5.6-2.1 4.2c-1.1 2.3-3.2 7.7-5.8 14.3-2.1 6.2-6.3 24.5-6.8 26-0.6 2.3-2.1 5.3-3.2 5.3-1.6 0-2.1-1.5-2.5-3.2-0.8-1.2-4.1-18.3-5.8-22.4-1.7-4.1-4.1-13.2-5.3-17.4-1.5-3.6-8.3-29.4-10-35-1.7-5.7-5-19.4-6.2-23-0.5-1.5-0.6-2.4-0.6-3 0-0.8 0.4-0.8 1.1-0.8h4.7c1.3 0 2.5 0 3.6-0.1l1.7-0.3c2.2-0.6 2.5 1 3.1 4.2 1.2 4.1 5 18.3 9.4 29.2 1.8 5.6 3.7 10.8 5.3 14.9l2.6 6.6 0.6-1.9z"/><path class="a" d="m1011.3 7c0-4.4 4.5-4.1 7.7-4.1 3.2 0 12.4-0.5 16.6-1.2 4.3-0.5 4.3 2.1 3.7 6.8-0.3 2.2-0.3 15.9-0.3 30.1 0 14.1 0 29.1 0 34.2 0 12.9 1 44.7 1 37.9 0 1.8-0.9 2.4-2.4 2.4-0.5 0-1.1 0-1.8-0.1-0.6-0.2-1.5-0.2-2.4-0.2-3.4 0-8.4 0.6-11.7 0.6-4.1 0-5.5-1.7-7.3-5.6-2.1-4.1-6-13.3-10.6-21-2.2-3.8-6.3-11.6-10-18.4l-6.6-12.5v5.7c0 3.5-0.2 7.1 0 10.6 0 6.8 0.1 31.8 0.9 35.9 0.1 0.8 0.1 1.4 0.1 1.8 0 2.3-1 2.3-2.8 2.1-2.5 0-8.5 0.5-11.9 1-3.1 0.4-3.6-0.6-3.4-5.5 0-4.7-0.8-25.9-1.2-44.2 0-12.9 0.7-29.7 0.7-40.9 0-4.4-0.1-8-0.4-10.1-0.2-1.4-0.3-2.5-0.3-3.5 0-4.3 1.8-4.9 3.9-4.7 2.4 0.1 4.1 0.1 8.9-0.9 1.7-0.3 2.6-0.3 3.4-0.3 1.6 0 2.5 0.3 6.9 0.3 6.4 0 9.6 8.3 12.4 13.1 1.4 2.6 3.1 5.2 4.4 7.2l2.3 3.4v-8.3c0-4.4 0-9.4 0.2-11.6z"/><path fill-rule="evenodd" class="a" d="m1173 38.9c0 22.6-18.2 27.1-24.7 27.1-3.2 0-9 0.5-13.8 0.9-2.9 0.3-5.9 0.6-9.1 0.8-0.1 6.9-0.3 13.3-0.3 18.9 0 9.7 0 19.7 0.5 21.4 0.7 3.1-3.1 5-5 4-0.5-0.1-1.4-0.1-2.6-0.1-2.7 0-7.1 0.3-9.7 0.6-3.6 0.5-3.9-2.1-3.9-5 0-2.9 0.3-12.4 0.3-18.8 0-5.4 1.2-50.2 1.2-68 0-3.1 0-5.4-0.2-6.5-0.1-1.6-0.3-2.9-0.3-3.9 0-3.2 0.8-4.1 1.8-3.9 1.4 0.1 5.8 0.3 9.6 0.3 1.6 0 8.6-0.3 16.6-0.3 5 0 10.5 0.1 15.3 0.4 12.5 0.8 24.3 9.5 24.3 32.1zm-29 16.2c5.3 0 15.3-2.3 15.3-15.3 0-12.9-5.6-18.3-14.8-20.1-9.2-1.8-15.5-2-17.9-1.8 0 2.1 0 4.2-0.1 6.3-0.2 3.7-0.3 8-0.8 12.1-0.4 4.1-0.4 8.5-0.3 12l0.3 5.9 7.1 0.5c4.1 0.4 8.4 0.4 11.2 0.4z"/><path class="a" d="m1190.5 28.9c0 8.2-1.2 34.1-1.2 41.8 0 7.9 0.5 34.4 0.9 38.2 0.2 0.9 0.2 1.5 0.2 2.1 0 1.7-0.6 2-1.5 2.4-1 0.6-2.9 0.6-4.7 0.6-5 0-3.7 0.6-3.7-6.3 0-5.8 0.6-41.7 0.6-51.7 0-10 1.5-39.4 1.1-43 0-1-0.2-2.1-0.2-3.2 0-2.1 0.5-3.9 2.5-3.9 1 0 3.3 0.1 5.6 0.1 1.2 0 1.5 1 1.5 2.2 0 1-0.3 2.4-0.3 3.6-0.5 3-0.6 8.8-0.8 17.1z"/><path class="a" d="m1246.7 15.1c-3.9 0-20.6-0.4-31.5-0.4-4.4 0-7.9 0.1-9.2 0.3-5 0.4-5.8-1.1-5.8-2.1 0-1.1 0-3.1 0.6-5.9 0.2-1.1 0.9-1.4 1.8-1.4 1.5 0 3.5 0.8 5.5 0.8l14.8-0.2c4.1 0 11.8 0.2 16.5 0.2 4.7 0 15.8 0 20.5 0.4 3.5 0.3 8.5 0.8 12.2 0.8 1.2 0 2.5 0 3.2-0.2 0.5 0 0.8-0.1 1.1-0.1 1.9 0 1.3 1.2 1.3 2.1 0 1-0.1 2.4-0.6 5.6-0.4 3.2-4.5 6.5-8.3 11.2-3.6 4.8-12.3 17.4-15.6 22.4-3.2 4.8-14.5 19.5-17 22.7-2.4 3.2-9.3 12.4-12.2 16.1-1.7 1.8-3.8 5.7-6.1 9.2l-3.9 6.5c7.1 0.2 13.6 0.2 19.2 0.2 9.7 0 19.7 0.1 21.1 0.1 2.4 0 10.6 0.6 13.4 0.6l10-0.1c0.2 0 0.2 0 0.3 0 1.4 0 1.1 0.9 1.1 1.5 0 0.6 0.2 3 0.2 4.8 0 1.4-0.6 1.8-2 1.8-0.6 0-1.4-0.1-2.3-0.3-2.9-0.4-6.2-0.6-9.7-0.4-3.6 0-29.8 0.7-35.3 0.7-5.4 0-22.5 0-26.3 0.5-0.3 0-0.8 0-0.9 0-2.6 0-2-1.7-2-2.7 0-1.2 0.8-3.4 2.7-6.2 1.9-2.5 18.1-24.9 21.7-29.1 3.8-4.5 18.8-24.2 26.2-33.3 3.8-4.7 8.2-11.1 11.7-16.4l6-9.5h-9.1c-4.8 0-10.4 0-13.3-0.2z"/><path class="a" d="m1320 18.2c-2.4 0-6.4 0.3-9.3 0.3-1 0-2.1 0-2.7-0.2-1.3-0.3-6.3-0.3-10.7-0.3-2.9 0-5.5 0-6.4 0-2.3-0.1-1.7-0.9-1.7-2q0-1.5-0.4-5.9c-0.2-2.8 2.3-2.1 4.5-2.1 4.9 0 12.9-0.6 19.1-0.6 6.1 0 22.1 0.6 25.4 0.6 1.6 0 5 0 9 0 6 0 13 0 15.1-0.3 0.5 0 0.8-0.1 1.1-0.1 2.3 0 2 1.3 2 2.4 0 1.2 0.3 5.4-1.4 7.9-1.7 2.4-15.3 22.4-20.9 29.9-2.9 4.1-10.8 15.3-18.5 25.5l-14.4 19.7c2.2 0.3 4.3 0.6 6.2 0.7 3.5 0.5 7.8 0.6 10.9 0.6 6.6 0 10.6-0.3 16.6-0.3 5.9 0 21.8-0.9 25.1-0.9 3.2 0 2.7 2.4 2.9 4.7 0 2.3-0.3 8.5-0.3 11.1q0 0.4 0 0.9c0 1.9-0.2 2.1-2.2 2.2-1.9 0.5-4.8 0-11.3 1.1-2.1 0.3-5.3 0.3-8.8 0.3-6.8 0-15.1-0.3-19.2-0.3h-37.1c-5.8 0-4.7-2.6-4.7-5 0-2 0.7-10.7 0.7-13.3 0-2.4 3.4-5.3 6.5-9.1 2.9-3.8 18.1-23.9 20.9-28.8 2.8-4.7 12.6-17.5 16.2-22.4 1.9-2.6 3.8-6.3 5.5-9.8l2.7-5.9c-0.4 0-0.9 0-1.3-0.2l-3.1-0.3z"/><path fill-rule="evenodd" class="a" d="m1413.7 4.2c0.6-1.5 1.4-1.8 2.1-1 1.1 0.7 1.4 2.4 2 4.2 0.4 2.1 5.9 13.6 8 18.2 2.3 4.7 4.4 10.1 6.5 16.2 2 5.9 9.7 21.5 12.9 28.8 3.2 6.9 10.9 21.6 13 25.7 2 3.9 5 11.2 7.1 13.6 0.5 0.9 0.8 1.5 0.8 2 0 1.1-1.4 1.2-2.7 1.2h-10.9c-1.2 0-2-2.7-3.1-5-1.2-2.3-5.1-13.2-5.9-15.6-0.7-2.3-2.7-6.2-3.7-8.6-0.8-2.6-1.6-3-2.8-3-1 0-3.5 0.3-6 0.4-2.5 0.5-12 0.2-16.2 0.6-1.4 0.2-3.2 0.2-4.9 0.2-3.6 0-7.2-0.2-8-0.2-1.4 0-1.5 1.7-2 3.3-0.3 1.6-2.7 11.1-3.2 14l-1.6 6.5-1.2 4.4c-0.6 2.3-0.9 2.9-2 2.9h-8.9c-0.6 0-0.8-0.2-0.8-0.6 0-0.5 0.3-1.3 0.6-2.2 0.6-1.3 0.9-1.6 2.1-5.7 1.2-4.1 5.5-18.2 6.7-24.6 1.2-6.8 3.9-14.8 5.6-19.5 1.2-5 2-7.4 3.9-14.5 2-7.1 4.1-14.4 5.8-19.9l3.8-12.1c1.2-4.7 2.4-8 3-9.7zm15.5 55c0-0.3-0.2-0.6-0.5-1.2-1.1-1.8-5.8-12.7-7.3-17.1-1.9-4.7-3.2-8.7-3.6-9.4-1.1-2.3-1.2-3.2-2-3.2-0.6 0-1 2.9-1.8 5.8-0.7 2.4-3.2 10.4-3.9 13.3-0.8 3.2-2.6 7.7-3.4 10-0.3 1-0.4 1.8-0.4 2.4 0 0.6 0.3 0.9 1.3 0.9 1.9 0 15.5-0.3 18.1-0.7 2.1-0.3 3.5 0 3.5-0.8z"/></svg>