<svg version="1.2" xmlns="http://www.w3.org/2000/svg" viewBox="0 0 66 50" width="66" height="50"><style>.a{fill:#e09b92}.b{fill:#ffdad4}.c{fill:#f4bab0}.d{opacity:.4;fill:#f9dcd7}.e{fill:#f9dcd7}.f{fill:#ce715b}.g{fill:#ffc8bd}.h{opacity:.4;fill:#f7bab0}.i{fill:#ed9e91}.j{opacity:.5;fill:#ed9e91}</style><path class="a" d="m7.8 3.4c1.6-1.7 21.2 9.3 28.2 11.1 5.3 1.4 23.2 6 27.8 7.6 2.9 1.1-0.6 34-35.9 24.8-26.8-6.9-22.4-40.9-20.1-43.5z"/><path class="b" d="m8.7 4c1.5-1.6 20.6 9.1 27.5 10.9 5.2 1.3 22.7 5.8 27.2 7.4 2.8 1-0.5 32.6-32.9 23.4-2.2-0.6-24.1-39.2-21.8-41.7z"/><path class="c" d="m7.9 4c1.5-1.6 20.7 9.2 27.5 10.9 5.3 1.3 22.8 5.8 27.3 7.4 2.8 1-0.5 32.6-32.9 23.4-2.2-0.6-24.2-39.1-21.9-41.7z"/><path class="d" d="m57.9 29.7c-1.7-1.2-4.1-1.4-7.1 3.1-0.5 0.8-0.8 1.8-1.3 2.5-1.1 1.6-2.9 1.8-4.6 2.4-1.6-0.8-5.6-1.5-6.4-1.4-1.5 0.2-3.7 3.4-3.5 4.9q0.1 0.5 0.3 1c0.2 1 0.5 2 1.2 2.9 0.1 0.1 0.2 0.3 0.4 0.2 0.4 0 1.1-0.3 2.1-0.8q-0.1 0.3-0.1 0.7c0 0.1-0.1 0.4 0.1 0.5 1 0.7 6.2-0.7 7.9-3q0.1-0.2 0.2-0.4c1.1-0.4 2.2-1.2 3.1-0.5 0.4 0.2 0.6 0.7 0.9 0.9 1.1 0.7 3.3-1.2 4.8-3.4q0.4-0.6 0.8-1.2c0 0 1.3 0.5 2.8-1.6 1.2-1.8 0.8-1.9-1.1-3.2 0.2-0.3 0.6-0.7 0.9-1.1 0.6-1-0.4-1.9-1.4-2.5z"/><path class="d" d="m47.5 34q0.3-0.4 0.4-0.9c0.5-0.9 1-1.9 1-3 0-0.1 0-0.4-0.1-0.5-1-0.7-6.2 0.9-7.8 3.3-0.6 0.9-0.1 1.9 0.6 2.5 1.3 0.8 5.1-0.1 5.9-1.4z"/><path class="e" d="m38.6 38.4c-0.4 0.2-1.1 0.8-1.1 1.5 0 0.6 0.8 0.5 1.2 0.4 0.1 0.2 0.2 0 0.3 0.1 2-0.9 0.9-2.5-0.4-2z"/><path class="e" d="m43.7 40.7c-3.2-2.2-3.4 0.1-3.5 0.7-0.6 2.6 3.1 1.3 3.5 1.2 0.1 0.2 0.2 0 0.3 0.1 2-0.9 0.8-1.2-0.3-2z"/><path class="f" d="m8.6 3.9c1.4-1.6 19.9 8.8 26.5 10.5 5.1 1.3 24 6.5 28.3 8 2.7 1-16.1 28.3-42.3 20.4-25-7.6-14.7-36.5-12.5-38.9z"/><path class="b" d="m64 22.4c2.2-0.7-24.4-7.4-31.1-9.6-5.2-1.8-23.8-11.6-28.6-11.2-1.7 0.1-8.9 31.1 16.7 40.2 25.5 9.1 40.5-18.5 43-19.4z"/><path class="g" d="m62.3 23.2c2.2-0.7-23.9-7.5-30.5-9.8-5-1.7-23.4-11.6-28-11.3-1.7 0.1-8.3 30.3 16.8 39.5 25.1 9.1 39.3-17.6 41.7-18.4z"/><path class="h" d="m20.6 41.6c5.1 1.8 9.8 2.2 14 1.6q-2.4-2.1-4.6-4.7c-7.7-9.4-10.7-20.7-8.8-29.9-6.9-3.2-14.6-6.7-17.4-6.5-1.7 0.1-8.3 30.3 16.8 39.5z"/><g style="opacity:.5"><path class="i" d="m16.4 37.7c1.9 0.6 3.5-0.7 4-2.4 0.6-2.1-1.4-6.2-3.6-8.3 0-1.2-0.9-2.6 0-3.6 0.2-0.3 0.8-0.4 1.1-0.7 0.8-1-0.7-3.5-2.6-5.3q-0.6-0.5-1.1-1c0 0 0.7-1.2-1.1-3-1.6-1.4-1.8-1.1-3.3 0.6-0.3-0.3-0.7-0.7-1-1-0.9-0.8-1.9 0-2.7 0.9-1.4 1.5-2 3.8 2 7.5 0.7 0.7 4.2 1.4 4.9 2 2 1.9-1.4 4.6-0.2 6.7-0.7-0.7-1.2-1.5-2.5-1.2-0.3 0.1-3.7-3.5-3.8-3.1-0.7 2.1 4.7 10.4 9.9 11.9z"/><path class="i" d="m11.7 10.6q0.4-0.1 0.7-0.4c0.7-0.4 1.4-1 2-1.7 0-0.1 0.1-0.2 0-0.4-0.4-0.9-4.6-2-6.8-1-0.8 0.3-0.9 1.3-0.6 2 0.5 1.1 3.6 2.1 4.7 1.5z"/><path class="i" d="m23.4 31.1c0.2-0.1 2.9 0.2 3.1-0.1 0.7-0.5-2.2-1.3-1.6-2.5 0-0.2-1.5-1.8-1.6-2.1-0.1-0.7-0.4-1.5-0.9-2.2q0.1 0 0.1 0c0 0.1 0.1 0.1 0.2 0.1 0.7 0 2.3-1 2.1-1.7 0-0.3-0.6-0.4-1.1-0.4-0.8 0.1-2 0.8-1.9 1.1q0 0 0 0c-0.7-0.6-1.5-1-2.6-0.5-0.8 0.4-0.9 2.1-0.5 3.5 0.5 2.4 3.5 5.3 4.7 4.8z"/></g><path class="j" d="m21.4 37.6c-0.2 0.3 0 0.8 0.3 1.2 0.6 0.7 2 1.1 2.3 0.8q0.1-0.1 0.1-0.3c0.2-0.3 0.3-0.6 0.3-1 0-0.1 0-0.2-0.1-0.3-0.4-0.5-2.4-1-2.9-0.4z"/><path class="d" d="m28.4 38c1.5 1.4 3.8 2.1 7.6-1.8 0.6-0.7 1.1-1.6 1.8-2.2 1.3-1.4 3.1-1.3 4.8-1.6 1.5 1.2 5.3 2.6 6.1 2.6 1.5 0.1 4.3-2.6 4.4-4.2q0-0.5-0.1-1c-0.1-1-0.2-2.1-0.7-3-0.1-0.2-0.2-0.4-0.4-0.4-0.3 0-1.1 0.2-2.2 0.4q0.2-0.3 0.3-0.6c0-0.2 0.1-0.4-0.1-0.5-0.8-0.9-6.2-0.5-8.3 1.5q-0.1 0.2-0.2 0.4c-1.2 0.1-2.4 0.7-3.2-0.1-0.3-0.3-0.5-0.8-0.8-1.1-0.9-0.9-3.4 0.6-5.3 2.5q-0.5 0.5-1 1.1c0 0-1.2-0.8-3 1-1.5 1.6-1.1 1.7 0.5 3.3-0.3 0.3-0.7 0.6-1 1-0.9 0.8-0.1 1.9 0.8 2.7z"/><path class="d" d="m39.4 35.7q-0.3 0.3-0.6 0.7c-0.6 0.9-1.2 1.8-1.5 2.8 0 0.2-0.1 0.4 0.1 0.5 0.9 0.9 6.2 0.3 8.2-1.8 0.8-0.8 0.5-1.9-0.1-2.5-1.2-1.1-5-0.9-6.1 0.3z"/><path class="e" d="m32.8 36.7c0.7-0.6 1.6-2.4 1.1-3.6-0.6-1.1-1.9-0.5-2.6 0-0.3-0.2-0.5 0.1-0.7 0.2-3.2 3.2 0.2 5.5 2.2 3.4z"/><path class="e" d="m34.7 33.3c0.4-0.6 0.8-2.2 0.1-3-0.6-0.8-1.5 0-2 0.5-0.3-0.1-0.3 0.2-0.5 0.2-1.8 3.2 1.2 4.3 2.4 2.3z"/><path class="e" d="m29 23.7c0.2-0.8 0.3-2.3-0.5-3-0.8-0.6-1.5 0.3-1.8 0.9-0.5 1.1 0.8 1.4 0.6 1.5-1.1 3.4 1 2.7 1.7 0.6z"/><path class="d" d="m7.9 24.9c0.8 0.9 2.7 2.4 3.7 2.1 0.9-0.3-0.1-2-0.7-2.9-1.3-1.6-1.9-0.4-1.9-0.6-4.1-4.6-3.6-1.5-1.1 1.4z"/><path class="d" d="m9.3 16.9c-0.1 1.1 0.6 3.3 2.7 3.9 2 0.6 3.1-1 3.4-1.9 0.3-1.8-2.5-1.7-2.2-1.8 0.5-5.4-3.6-3.5-3.9-0.2z"/><path class="e" d="m42 38.8c0.7-0.2 2-1.2 1.9-2.3 0-1-1.2-0.9-1.8-0.8-0.2-0.3-0.4 0-0.6-0.1-3.3 1.4-1.6 4.1 0.5 3.2z"/><path class="e" d="m36.5 33.9c0.3-0.3 0.8-1.2 0.5-1.8-0.3-0.5-0.9-0.2-1.2 0.1-0.2-0.2-0.3 0-0.4 0-1.5 1.6 0.1 2.7 1.1 1.7z"/><path class="e" d="m35.3 29.6c0.4-0.1 1.3-0.6 1.4-1.2 0-0.6-0.7-0.7-1.1-0.7-0.1-0.2-0.2-0.1-0.3-0.1-2.1 0.5-1.3 2.3 0 2z"/><path class="e" d="m49 32.9c0.4-0.1 1.2-0.6 1.3-1.2 0.1-0.6-0.6-0.7-1-0.7-0.1-0.1-0.2 0-0.3-0.1-2.2 0.5-1.4 2.3 0 2z"/></svg>