<svg version="1.2" xmlns="http://www.w3.org/2000/svg" viewBox="0 0 178 210" width="178" height="210"><style>.a{fill:#e0463b}.b{fill:#ce322e}.c{fill:#b52424}.d{fill:#b5b13e}.e{fill:#96912d}.f{fill:#d8d14c}.g{fill:#ef5848}.h{fill:#ffd2bb}.i{fill:#c3ce57}.j{fill:#a8b751}.k{fill:#848c37}.l{fill:#a09a32}.m{fill:#898125}.n{fill:#bcb34a}.o{fill:#dbd561}.p{fill:#c4bd43}.q{fill:#e2d756}.r{fill:#dd526d}.s{fill:#cc4465}.t{fill:#af4556}.u{fill:#f2b8c3}.v{fill:#ffdee7}.w{fill:#f9cad5}.x{opacity:.5;mix-blend-mode:overlay;fill:#f2b8c3}</style><path class="a" d="m77.5 192.9c0.4-1.2 12 5.7 21.4 5 9.4-0.7 21.4-2.3 27.3-8 6-5.8 11.3-11.1 13.1-11.5 1.9-0.5 2.6-8.5 7.4-8.7 4.8-0.3 13.7 1.4 6.7 14-2.1 3.6 1.8 16.3-18.9 20.9-4.1 0.9-13.3 1.4-18.1 1.8-5.1 0.5-13.6 3.2-18 0.5-4.3-2.8-10.3-6.7-14.2-8.3-2.6-1-6.9-5-6.7-5.7z"/><path class="b" d="m131.8 186.8c8.9-6.9 18.6-9.6 23.3-6.8 3.4-9.2-4.1-10.5-8.4-10.3-4.8 0.2-5.5 8.2-7.4 8.7-1.8 0.4-7.1 5.7-13.1 11.5-5.9 5.7-17.9 7.3-27.3 8-9.4 0.7-21-6.2-21.4-5-0.2 0.7 4.1 4.7 6.7 5.7 3.9 1.6 9.9 5.5 14.2 8.3 4.4 2.7 12.9 0 18-0.5q1.2-0.1 2.8-0.2c-0.3-5.3 4.5-13.1 12.6-19.4z"/><path class="a" d="m124.3 201.9c0.1-1 1.6-6.6 0.3-7.6-0.8-0.7-7.1 1.8-11.3 3.2-7 2.4-13.8 1.2-14.3 2.6-0.8-1.1-7.8-1.8-7.8-0.6-0.1 2.6 14.1 6.2 21.6 5.5 6-0.7 11.3-1.4 11.5-3.1z"/><path class="b" d="m146.7 169.7c-1.9 0-3.1 1.3-4 2.8 3.7 3.2 3.9 5.7 3.9 9.7 0 11.6-15.7 22.4-37.4 22.4-6.6 0-12.9-0.9-18.4-2.5 2.7 1.6 5.4 3.3 7.6 4.8 4.4 2.7 12.9 0 18-0.5 4.8-0.4 14-0.9 18.1-1.8 20.7-4.6 16.8-17.3 18.9-20.9 7-12.6-1.9-14.3-6.7-14z"/><path class="c" d="m153.7 171.2c2.1 1.9 2.7 5.5-0.9 12-2.1 3.7 1.8 16.3-18.9 20.9-4.1 0.9-13.3 1.4-18.1 1.9-5.1 0.4-13.6 3.2-17.9 0.4-2-1.3-4.4-2.8-6.7-4.2q-0.2 0-0.4-0.1c2.7 1.6 5.4 3.3 7.6 4.8 4.4 2.7 12.9 0 18-0.5 4.8-0.4 14-0.9 18.1-1.8 20.7-4.6 16.8-17.3 18.9-20.9 3.9-7.1 2.8-10.7 0.3-12.5z"/><path class="a" d="m147.7 176.5c2.5-1.6 4.2-2.5 3.1-3.6-1-1-4.2-1.8-6.7-0.1-2.5 1.6-3.3 5-2.3 6 1 1.1 3.4-0.6 5.9-2.3z"/><path class="d" d="m142.2 172.8c1-1.5 5.2-7.8 9.1-2.6 0 0 6.5-2.2 5.1 7.1 0 0-1.7-6.8-5.4-6.2-3-2-5.8-0.4-8.8 1.7z"/><path class="e" d="m150.8 171c-4.3-3.6-7.1 0.6-8.6 1.8 1.4-0.9 4-3.1 8.6-1.4 3.1-0.7 5.2 4.5 5.5 5.9-0.2-7.2-5.5-6.3-5.5-6.3z"/><path class="d" d="m150.5 170.6c0 0 1.1-1.9 1-3.1h0.6c0 0 0.1 1.8-0.8 3.2z"/><path class="d" d="m150.8 167.6c0.2 1.3 2.1 1.5 2-0.4-0.1-1.9 0.2-6.8-0.2-9.2-0.5-3.5 5.2-10.3 5-10.9-0.2-0.6-6.2 6.5-6.5 10.3-0.7 7.5-0.4 9.2-0.3 10.2z"/><path class="f" d="m151.5 167.8c-0.1-1-0.5-2.7 0.2-10.2 0.3-3.1 4.4-8.8 5.9-10.4q0-0.1 0-0.1c-0.2-0.6-6.2 6.5-6.5 10.3-0.7 7.5-0.4 9.2-0.3 10.2 0.1 0.6 0.6 1 1.1 1-0.2-0.2-0.4-0.4-0.4-0.8z"/><path class="d" d="m150.4 170.4c-0.9 0.5-1.3 4.1-1.4 6.4 0 0 3-5 2.5-6.1-0.5-1-0.6-0.6-1.1-0.3z"/><path class="a" d="m90.2 199c0.1-0.3 0.1-1.4-1.9-1.8-1.9-0.5-4.6-1.6-4.7-1.3-0.1 0.3 1.2 1.2 2.8 2.4 1.7 1.1 3.7 0.9 3.8 0.7z"/><path class="f" d="m150.1 169.2c0-0.1-0.6-0.5-1.4-0.7-0.7-0.2-1.4 0-1.4 0.1 0 0.2 0.6 0.2 1.3 0.4 0.8 0.1 1.4 0.4 1.5 0.2z"/><path class="c" d="m152.4 185.7c-0.3-1-1.5-3.7-2.5-4.4 0 0 2.8 2.3 3.5 1.3z"/><path class="g" d="m124.2 195.6c1.3 2.9 11.4-0.4 13.1-2.1 1.9-1.8 10.5-13.6 6.9-13.3-3.5 0.2-13.8 7.1-14.8 8.2-1 1.1-6.1 5.2-5.2 7.2z"/><path class="a" d="m143.9 200.3c-0.4-0.7 3-5.5 3.7-7.1 2.6-5.8 1.9-11.2 3-10.6 3 1.7 1.2 7.8-0.6 11.4-2.1 4.2-5.8 6.9-6.1 6.3z"/><path class="h" d="m142.3 181.5c-0.1-0.2-0.6-0.1-1.1 0.2-0.6 0.3-0.9 0.7-0.8 0.9 0.1 0.2 0.7 0.1 1.2-0.2 0.5-0.3 0.8-0.7 0.7-0.9z"/><path class="h" d="m143.7 173.9c-0.2-0.2-0.7 0.1-1.1 0.5-0.3 0.5-0.4 1-0.2 1.2 0.2 0.2 0.7-0.1 1.1-0.5 0.3-0.5 0.4-1 0.2-1.2z"/><path class="h" d="m139.2 183.3c-0.2-0.2-3.2 0.9-5.1 2.1-2.7 1.7-6.9 6-6.7 6.3 0.2 0.3 5.8-4.5 7.3-5.3 1.6-0.9 4.7-2.8 4.5-3.1z"/><path class="a" d="m133.6 203.3c-0.4-0.3 5-3.5 5.8-3.9 0.9-0.3 3.3-1.1 3.3-0.7 0 0.3-0.1 1.6-0.7 2.1-0.6 0.6-7 3.4-8.4 2.5z"/><path class="g" d="m123.1 194.6c-0.2-1.3-6.2 2.3-12.4 3.5-5.8 1.3-11.1 0.7-10.9 2 0.2 1.3 8.8 4.1 14.7 3.4 6-0.6 8.8-7.6 8.6-8.9z"/><path class="e" d="m151.5 170.7c-0.2-0.5-0.4-0.6-0.5-0.6q0 0.1 0.1 0.2c0.3 0.7-1.2 3.6-2 5.1q-0.1 0.7-0.1 1.4c0 0 3-5 2.5-6.1z"/><path class="h" d="m105.4 199.2c-0.1-0.2-1.3-0.2-2.7 0-1.5 0.2-2.7 0.6-2.6 0.8 0 0.2 1.2 0.2 2.7 0 1.4-0.2 2.6-0.6 2.6-0.8z"/><path class="i" d="m171.1 99.1c-17.6-6.8-48.4-23.9-62.2-32.4-9.4-5.8-31.7-14.9-38.1-17.3-7-2.5-23-3.8-33.1-4.3-16.2-0.8-32.5-7.8-36-11.8-4.8-5.3 14 3.8 18.8 5.5 8.2 3 37.1 3.2 45.6 3.8 8.5 0.7 92.1 39.5 105.7 48.5 2.7 1.1 2.9 7.4-0.7 8z"/><path class="j" d="m171.8 91.1c-13.6-9-97.2-47.8-105.7-48.5-8.5-0.6-37.4-0.8-45.6-3.8-4.8-1.7-23.6-10.8-18.8-5.5q0.2 0.3 0.6 0.7c4.7 1.4 13.5 5.5 16.5 6.6 8.3 3 37.2 3.2 45.7 3.9 8.5 0.6 92 39.4 105.7 48.4 1.8 0.8 2.5 3.9 1.7 6 2.8-1.3 2.4-6.8-0.1-7.8z"/><path class="k" d="m172.3 92.6q-0.5 0.8-1 1.8-0.9 1.8-1.3 3.5c0.3 0.1 0.6 0.2 1 0.4 2.4-0.4 2.6-4.1 1.3-5.7z"/><path class="i" d="m173.2 90.8c-15.1-9.2-42.2-32.8-55.3-40.9-12.4-7.7-22.9-11.7-28.4-14.8-6-3.5-22.8-7.4-31-11.8-18.4-10-27.8-16.1-30.4-20.8-3.4-6.3 12.3 5.5 16.4 7.8 7.1 4.1 34.1 15.4 41.8 17 7.7 1.5 77.8 43.8 88.8 54.9 2.3 1.5 1.5 8.3-1.9 8.6z"/><path class="j" d="m175.1 82.2c-11-11.1-81.1-53.4-88.8-54.9-7.7-1.6-34.7-12.9-41.8-17-4.1-2.3-19.8-14.1-16.4-7.8q0.2 0.4 0.5 0.8c4.1 2 11.5 7.3 14.1 8.8 7.1 4.1 34.1 15.4 41.8 17 7.7 1.5 77.8 43.8 88.9 54.9 1.5 1 1.6 4.4 0.5 6.6 2.8-1.1 3.3-7 1.2-8.4z"/><path class="k" d="m175.4 83.8q-0.7 0.9-1.3 1.9-1.1 1.8-1.8 3.6c0.3 0.2 0.6 0.4 0.9 0.5 2.3-0.2 3.1-4.1 2.2-6z"/><path class="i" d="m161.6 111.4c-13.6-3.1-38-12.1-49-16.8-7.6-3.2-24.9-7.4-29.9-8.4-5.3-1.1-17.2-0.3-24.7 0.5-11.9 1.2-24.6-2.1-27.6-4.6-4.1-3.4 10.7 1.2 14.4 1.9 6.3 1.3 27.5-1.8 33.8-2.3 6.3-0.4 71.7 18.7 82.7 23.7 2 0.6 2.9 5.1 0.3 6z"/><path class="j" d="m161.3 105.4c-11-5-76.4-24.1-82.7-23.7-6.3 0.5-27.5 3.6-33.8 2.3-3.7-0.7-18.5-5.3-14.4-1.9q0.2 0.2 0.6 0.4c3.5 0.5 10.4 2.5 12.8 3 6.3 1.3 27.5-1.8 33.8-2.3 6.3-0.4 71.7 18.7 82.7 23.7 1.4 0.4 2.2 2.6 1.9 4.2 1.9-1.2 1-5.2-0.9-5.7z"/><path class="k" d="m161.8 106.5q-0.3 0.6-0.6 1.4-0.4 1.4-0.5 2.7 0.4 0.1 0.7 0.2c1.8-0.6 1.5-3.3 0.4-4.3z"/><path class="i" d="m162.2 105c-12-5-34.5-19.3-45-23.7-9.9-4.3-18-6-22.4-7.7-4.8-1.8-17.5-2.8-24-5.2-14.5-5.2-22-8.6-24.5-11.8-3.2-4.2 9.6 2.6 12.9 3.9 5.6 2.2 26.6 7.4 32.4 7.7 5.9 0.3 61.8 23.5 71.1 30.3 1.8 0.9 2 6-0.5 6.5z"/><path class="j" d="m162.7 98.5c-9.3-6.8-65.2-30-71.1-30.3-5.8-0.3-26.8-5.5-32.4-7.7-3.3-1.3-16.1-8.1-12.9-3.9q0.2 0.3 0.5 0.5c3.2 1 9.2 4.1 11.3 4.9 5.6 2.2 26.6 7.5 32.4 7.8 5.8 0.2 61.8 23.4 71.1 30.3 1.2 0.5 1.7 3 1.1 4.7 2-1.1 1.7-5.5 0-6.3z"/><path class="k" d="m163.1 99.7q-0.4 0.7-0.7 1.5-0.7 1.5-0.9 2.9 0.3 0.1 0.6 0.2c1.7-0.3 1.8-3.3 1-4.6z"/><path class="d" d="m29.7 178.7c-10.6-2.9-12.9-13.1-4.6-25.2 8.5-12.1 17.2-23 32.3-22.6 15.2 0.4 19.5 0.8 20.9 2.9 1.9 2.8-5.1-0.4-7.8 1.1-3.4 2-6.5 10-10.5 11.3-4 1.3-13.6 5.6-13.7 12.1 0 6.4 5.6 12.3 0.1 16.2-4.3 3.1-11.1 5.8-16.7 4.2z"/><path class="l" d="m32.5 143.8c-2.6 3-5 6.3-7.4 9.7-8.3 12.1-6 22.3 4.6 25.2q0.5 0.1 1 0.2c-13.9-13.9-6.3-22.6 1.8-35.1z"/><path class="l" d="m78.3 133.8c-1.4-2.1-5.7-2.5-20.9-2.9-10.3-0.3-17.6 4.7-23.9 11.7q0.5 0 0.9 0.1c5.7 0.9 9.4 8.9 8.2 17.9-1.1 9-6.7 15.6-12.4 14.7-5.2-0.8-8.8-7.6-8.5-15.6-3.8 9.2-0.8 16.6 8 19 5.6 1.6 12.4-1.1 16.7-4.2 5.5-3.9-0.1-9.8-0.1-16.2 0.1-6.5 9.7-10.8 13.7-12.1 4-1.3 7.1-9.3 10.5-11.3 2.7-1.5 9.7 1.7 7.8-1.1z"/><path class="m" d="m78.3 133.8c-0.3-0.5-0.8-0.9-1.6-1.2q0.4 0.3 0.7 0.7c1.9 2.7-5.1-0.5-7.8 1.1-3.4 2-6.6 10-10.5 11.3-4.1 1.3-13.7 5.6-13.7 12.1 0 6.4 5.6 12.3 0.1 16.2-4.3 3.1-11.1 5.8-16.7 4.2q-1.9-0.5-3.4-1.3 1.8 1.1 4.3 1.8c5.6 1.6 12.4-1.1 16.7-4.2 5.5-3.9-0.1-9.8-0.1-16.2 0.1-6.5 9.7-10.8 13.7-12.1 4-1.3 7.1-9.3 10.5-11.3 2.7-1.5 9.7 1.7 7.8-1.1z"/><path class="m" d="m25.2 177c-3-2.2-5.4-8.2-3.8-15.6q-0.6 1.4-1.1 2.7c-1.3 6.4 1.9 11.4 4.9 12.9z"/><path class="d" d="m54.3 145.1c8.7 0.9 10.2-9.7 7.9-12.2-2.2-2.6-15-0.7-26.1 7.5-7.1 5.2-3.4 7.5-1.2 10.1 2.2 2.5 12.7-6.1 19.4-5.4z"/><path class="d" d="m64.2 132.4c1.1-0.8 3.3-0.4 6.2 0.1-2.2 1.1-4.3 4.5-5.3 4.5-0.9 0.1-1.7-3.9-0.9-4.6z"/><path class="n" d="m32.6 177.3c-5-0.5-9-3.3-9.3-1.3-0.1 1.1 3.4 3.9 9.2 4.8 6.7 1.1 11.8-2.1 9.7-3.9-0.9-0.9-4.5 1-9.6 0.4z"/><path class="o" d="m30.6 179.1c-1.4 3.3 3.3 13.7 5.7 16.4 2.5 2.8-3 9.9-7.9 13.6l0.5 0.9c0 0 13.1-9.6 9.4-15.3-3.8-5.7-4.3-13.9-3.1-16z"/><path class="l" d="m27 151.7c2-2.5 5.2-5.2 7.9-5.6 0.9-1-4.6 0.6-4.6 0.6z"/><path class="l" d="m55.5 143.1c-2.9 1.4-6.9 2.4-9.5 1.6-1.3 0.5 4.4 1.5 4.4 1.5z"/><path class="l" d="m39.8 158.8c0.1 5.8-1.4 13.1-4.5 16.7-0.2 2.5 5.6-5.9 5.6-5.9z"/><path class="p" d="m35 161.3c0.3-6.8 3.7-12.8 0.9-13.3-2.8-0.4-9.8 6.2-10.9 11.8-1.2 5.5 0.2 10.3 2.9 10.8 2.8 0.4 6.9-3.7 7.1-9.3z"/><path class="p" d="m45.3 141.2c6.1-0.4 16.2 0.6 16.7-4.4 0.5-6.1-8.4-3.4-13.1-2.3-4.6 1.2-10.1 5.5-10.7 7.5-0.7 2.1 2-0.5 7.1-0.8z"/><path class="n" d="m38.3 194.7c-3.8-5.7-3.9-13.9-2.7-16.1l-5.5 0.2c-0.3 0.8 0.2 2.3 0.4 3.7 1.6 0.7 2.9 4.1 4.4 7.8 2 4.7 3.8 7.7 2.5 9.5-4.7 6.4-7.3 9.2-8.7 9.7l0.2 0.5c0 0 13.1-9.6 9.4-15.3z"/><path class="o" d="m27.5 178.1c0.3-0.5-0.4-1.4-1.6-2.1-1.2-0.7-2.4-0.8-2.7-0.3-0.3 0.5 0.5 1.4 1.6 2.1 1.2 0.7 2.4 0.8 2.7 0.3z"/><path class="o" d="m46.7 173.4c-0.1-0.5-5.7 2.8-6.8 3.6-1.6 1.2-1.9 1.7-2.3 2.1-0.9 0.9-0.5 1.8 0.9 1.7 4.7-0.6 8.3-6.8 8.2-7.4z"/><path class="o" d="m34.5 177.4c-0.4-0.5-2-0.7-3.3-1.1-1.3-0.4-3-0.6-3.1-0.1-0.2 0.6 3.1 3.6 4.4 4 1.3 0.5 2.6-2.2 2-2.8z"/><path class="q" d="m25.1 168.4c-0.5 0-1-2.5-1-5.5 0-3.1 0.5-5.6 1-5.6 0.5 0 1 2.5 1 5.6 0 3-0.5 5.5-1 5.5z"/><path class="q" d="m41 139.6c1.5-1.3 2.8-2 2.7-2.2-0.2-0.2-1.8 0.2-3.3 1.5-1.4 1.2-2.1 2.8-2 3 0.2 0.2 1.2-1.1 2.6-2.3z"/><path class="q" d="m28.4 154.8c0.4-0.6 0.6-1.3 0.3-1.5-0.3-0.2-0.9 0.2-1.3 0.9-0.5 0.6-0.6 1.3-0.3 1.5 0.3 0.2 0.9-0.2 1.3-0.9z"/><path class="r" d="m127.3 153.7c8.3-7.9 8.4-21.4 0.1-30.1-8.3-8.7-21.8-9.3-30.1-1.3-8.3 7.9-8.3 21.4 0 30 8.3 8.7 21.7 9.3 30 1.4z"/><path class="s" d="m126.9 153.2c8-7.6 8-20.5 0-28.9-8-8.3-20.9-8.9-28.9-1.3-8 7.6-8 20.6 0 28.9 8 8.4 20.9 8.9 28.9 1.3z"/><path class="t" d="m125.9 152.9c8.2-7.1 8.9-19.7 1.6-28.1-7.4-8.4-20-9.4-28.2-2.3-8.2 7.2-8.9 19.8-1.6 28.2 7.4 8.4 20 9.4 28.2 2.2z"/><path class="u" d="m122.4 153.9c9.1-5.6 12.1-17.3 6.7-26.2-5.5-8.9-17.2-11.7-26.3-6.1-9.1 5.5-12.1 17.3-6.7 26.2 5.5 8.9 17.2 11.6 26.3 6.1z"/><path class="v" d="m121.9 153c8.4-5.1 11-16.1 5.9-24.5-5.1-8.4-16.1-11.1-24.5-6-8.4 5.1-11 16.1-5.9 24.5 5.1 8.4 16.1 11.1 24.5 6z"/><path class="u" d="m121 151.5c7.5-4.7 9.9-14.5 5.3-22.1-4.6-7.6-14.5-10-22.1-5.4-7.5 4.6-9.9 14.5-5.3 22.1 4.6 7.5 14.5 10 22.1 5.4z"/><path class="w" d="m120.8 150.7c7.2-4.4 9.5-13.7 5.1-21-4.4-7.2-13.8-9.5-21-5.1-7.2 4.4-9.5 13.8-5.1 21 4.4 7.2 13.8 9.5 21 5.1z"/><path class="u" d="m119.4 148.9c5.7-3.5 7.3-11.3 3.5-17.5-3.7-6.1-11.4-8.3-17.1-4.8-5.7 3.4-7.3 11.3-3.5 17.4 3.7 6.2 11.4 8.4 17.1 4.9z"/><path class="v" d="m119 148.2c5.3-3.2 6.8-10.4 3.3-16.2-3.5-5.7-10.6-7.7-15.9-4.5-5.3 3.2-6.7 10.5-3.2 16.2 3.4 5.7 10.5 7.7 15.8 4.5z"/><path class="u" d="m118.2 147c4.8-2.9 6.1-9.4 3-14.5-3.2-5.1-9.5-6.9-14.2-4-4.8 2.9-6.1 9.3-3 14.4 3.2 5.1 9.5 7 14.2 4.1z"/><path class="w" d="m117.9 146.4c4.4-2.7 5.6-8.7 2.7-13.4-2.9-4.7-8.7-6.4-13.1-3.7-4.4 2.6-5.6 8.6-2.7 13.4 2.9 4.7 8.7 6.4 13.1 3.7z"/><path class="u" d="m117 145c3.7-2.3 4.7-7.3 2.3-11.4-2.4-4-7.4-5.4-11.1-3.1-3.7 2.2-4.7 7.3-2.3 11.3 2.4 4 7.4 5.4 11.1 3.2z"/><path class="v" d="m116.8 144.5c3.4-2.1 4.4-6.8 2.1-10.5-2.3-3.7-6.9-5-10.3-2.9-3.4 2.1-4.4 6.8-2.1 10.5 2.2 3.7 6.8 5 10.3 2.9z"/><path class="u" d="m115.6 142.7c2.5-1.6 3.2-5 1.6-7.7-1.7-2.8-5.1-3.7-7.6-2.2-2.5 1.5-3.2 5-1.6 7.7 1.7 2.7 5.1 3.7 7.6 2.2z"/><path class="v" d="m115.4 142.4c2.4-1.5 3-4.7 1.5-7.2-1.6-2.5-4.7-3.4-7-2-2.4 1.5-3 4.6-1.5 7.2 1.6 2.5 4.7 3.4 7 2z"/><path class="w" d="m115.3 140.3c1.3-1.3 1.2-3.5-0.3-4.9-1.4-1.4-3.7-1.5-5-0.2-1.3 1.4-1.1 3.6 0.3 5 1.4 1.4 3.7 1.5 5 0.1z"/><path class="v" d="m114.9 140c1.2-1.2 1.1-3.1-0.2-4.3-1.3-1.2-3.2-1.3-4.3-0.1-1.2 1.1-1.1 3.1 0.2 4.3 1.3 1.2 3.2 1.3 4.3 0.1z"/><path class="x" d="m97.9 121.7q-1.8 1.7-3 3.7c0.3 4.5 2.1 8.9 5.4 12.4 7.3 7.7 19.2 8.2 26.5 1.2q1.8-1.7 3-3.7c-0.2-4.5-2-8.9-5.4-12.5-7.3-7.6-19.2-8.1-26.5-1.1z"/></svg>