<svg version="1.2" xmlns="http://www.w3.org/2000/svg" viewBox="0 0 38 68" width="38" height="68"><style>.a{fill:#e09b92}.b{fill:#ffdad4}.c{fill:#f4bab0}.d{opacity:.4;fill:#f9dcd7}.e{fill:#f9dcd7}.f{fill:#ce715b}.g{fill:#ffc8bd}.h{opacity:.4;fill:#f7bab0}.i{fill:#ed9e91}.j{opacity:.5;fill:#ed9e91}</style><path class="a" d="m35.2 5.9c2.1 0.9-1.9 23-1.2 30.2 0.4 5.6 2 24 1.9 28.9 0 3-32.2 10.5-35.2-25.8-2.3-27.6 31.3-34.7 34.5-33.3z"/><path class="b" d="m34.9 6.9c2 0.9-1.8 22.5-1.2 29.5 0.5 5.4 2 23.4 1.9 28.2 0 3-30.9 10.3-32.9-23.4-0.1-2.2 29-35.6 32.2-34.3z"/><path class="c" d="m34.6 6.2c2.1 0.9-1.8 22.5-1.2 29.6 0.5 5.3 2 23.3 2 28.1-0.1 3-31 10.3-33-23.3-0.1-2.3 29.1-35.7 32.2-34.4z"/><path class="d" d="m26.9 61.9c0.5-2-0.1-4.3-5.4-5.7-0.9-0.2-1.9-0.2-2.8-0.5-1.8-0.4-2.6-2.1-3.7-3.5 0.2-1.8-0.4-5.8-0.8-6.5-0.7-1.4-4.4-2.4-5.8-1.7q-0.4 0.2-0.8 0.6c-0.9 0.5-1.7 1.2-2.3 2.1-0.1 0.1-0.2 0.3-0.1 0.5 0.1 0.3 0.7 0.9 1.4 1.7q-0.3 0-0.7 0.1c-0.1 0-0.3 0.1-0.4 0.3-0.3 1.1 2.6 5.6 5.5 6.4q0.2 0.1 0.4 0.1c0.7 0.9 1.8 1.6 1.5 2.8-0.1 0.4-0.5 0.7-0.6 1.2-0.3 1.2 2.2 2.7 4.8 3.3q0.7 0.2 1.5 0.4c0 0-0.2 1.4 2.3 2.1 2.1 0.5 2.1 0.1 2.7-2.1 0.4 0.1 0.8 0.3 1.3 0.4 1.2 0.3 1.7-0.9 2-2z"/><path class="d" d="m19.4 53.5q0.4 0.1 0.9 0.1c1.1 0.1 2.1 0.2 3.2-0.1 0.1-0.1 0.4-0.1 0.4-0.3 0.3-1.2-2.8-5.5-5.6-6.3-1.1-0.2-1.9 0.5-2.2 1.5-0.4 1.5 1.8 4.7 3.3 5.1z"/><path class="e" d="m12.2 46.5c-0.3-0.3-1.1-0.8-1.7-0.6-0.5 0.3-0.2 0.9 0 1.3-0.1 0.1 0 0.2 0 0.3 1.5 1.6 2.7 0 1.7-1z"/><path class="e" d="m11.7 52c1.1-3.7-1.1-3.1-1.8-3-2.6 0.3-0.2 3.3 0.1 3.7-0.2 0.1 0 0.2 0 0.3 1.5 1.6 1.4 0.3 1.7-1z"/><path class="f" d="m35 6.8c1.9 0.8-1.8 21.7-1.2 28.5 0.5 5.2 1.8 24.7 1.7 29.3 0 2.9-32-5.9-33.1-33.2-1.1-26.1 29.5-25.9 32.6-24.6z"/><path class="b" d="m35.7 65.2c1.4 1.8-1-25.5-1.1-32.5-0.1-5.5 3.1-26.3 1.2-30.7-0.7-1.6-32.4 1.8-32.6 29-0.1 27.1 30.9 32.2 32.5 34.2z"/><path class="g" d="m34.4 63.9c1.4 1.8-0.7-25-0.8-32 0-5.4 3.3-25.9 1.5-30.2-0.7-1.6-31.3 2.1-31.8 28.8-0.4 26.7 29.5 31.4 31.1 33.4z"/><path class="h" d="m3.3 30.5c0 5.5 1.2 10 3.1 13.8q1.2-3 3-5.9c6.3-10.4 16-17 25.3-18.2 0.7-7.5 1.5-15.9 0.4-18.5-0.7-1.6-31.3 2.1-31.8 28.8z"/><g style="opacity:.5"><path class="i" d="m5.6 25.3c0 2 1.8 3 3.6 3 2.2-0.1 5.4-3.4 6.7-6.1 1.1-0.5 2.1-1.8 3.3-1.3 0.4 0.2 0.7 0.6 1.1 0.8 1.2 0.5 3-1.7 4.1-4.2q0.3-0.6 0.6-1.3c0 0 1.4 0.3 2.4-2 0.9-2 0.5-2-1.6-3 0.2-0.4 0.5-0.8 0.7-1.2 0.4-1.1-0.7-1.8-1.8-2.3-1.9-0.8-4.2-0.6-6.4 4.4-0.4 0.8 0 4.4-0.3 5.3-1.2 2.5-4.8 0.2-6.4 2 0.4-0.9 1-1.6 0.3-2.8-0.2-0.2 2.1-4.6 1.7-4.6-2.2 0.1-8.2 7.9-8 13.3z"/><path class="i" d="m29.6 12q0.3 0.2 0.7 0.4c0.6 0.6 1.3 1.1 2.2 1.4 0.1 0 0.3 0 0.4-0.1 0.7-0.7 0.4-5.1-1.3-6.8-0.6-0.6-1.5-0.4-2 0.1-1 0.9-0.8 4 0 5z"/><path class="i" d="m14.2 29.7c0.2 0.2 0.8 2.8 1 2.9 0.8 0.6 0.6-2.4 1.9-2.3 0.2-0.1 1.2-2 1.5-2.2 0.6-0.4 1.2-0.9 1.7-1.6q0 0.1 0 0.1c0 0.1 0 0.2 0 0.3 0.3 0.5 1.8 1.7 2.4 1.4 0.2-0.2 0.1-0.7-0.1-1.2-0.3-0.7-1.3-1.7-1.7-1.5q0 0 0 0c0.4-0.8 0.5-1.7-0.3-2.5-0.6-0.7-2.2-0.2-3.5 0.6-2 1.3-3.8 5.1-2.9 6z"/></g><path class="j" d="m7.3 30c-0.3-0.1-0.7 0.3-1 0.7-0.4 0.7-0.4 2.2 0 2.4q0.2 0 0.3 0c0.4 0.1 0.7 0.1 1.1-0.1 0.1 0 0.2-0.1 0.2-0.2 0.4-0.5 0.2-2.6-0.6-2.8z"/><path class="d" d="m9.3 36.7c-0.9 1.9-0.7 4.3 4.2 6.6 0.8 0.4 1.8 0.5 2.7 0.9 1.7 0.8 2.2 2.6 3 4.1-0.6 1.8-0.6 5.9-0.4 6.6 0.4 1.5 3.9 3.2 5.4 2.7q0.5-0.1 0.9-0.4c0.9-0.4 1.9-0.9 2.7-1.6 0-0.2 0.2-0.3 0.1-0.5 0-0.3-0.5-1-1.1-1.9q0.4 0 0.7 0c0.2 0 0.4 0 0.5-0.2 0.5-1.1-1.6-6-4.2-7.3q-0.2-0.1-0.4-0.2c-0.5-1-1.5-1.9-1-3 0.2-0.4 0.6-0.7 0.8-1.1 0.5-1.1-1.7-3-4.1-4.1q-0.7-0.4-1.4-0.7c0 0 0.4-1.3-1.9-2.4-2-1-2-0.6-3 1.5-0.4-0.2-0.8-0.5-1.2-0.7-1.1-0.5-1.8 0.6-2.3 1.7z"/><path class="d" d="m15.1 46.3q-0.4-0.2-0.9-0.2c-1-0.4-2-0.6-3.1-0.6-0.2 0.1-0.4 0.1-0.5 0.3-0.5 1.1 1.8 5.9 4.4 7.2 1 0.4 2-0.2 2.4-1 0.6-1.4-0.9-5-2.3-5.7z"/><path class="e" d="m11.9 40.5c0.9 0.4 2.9 0.7 3.8-0.2 0.9-0.9-0.2-1.9-0.9-2.4 0.2-0.4-0.2-0.5-0.3-0.6-4.2-2-5.2 2-2.6 3.2z"/><path class="e" d="m15.8 41.1c0.7 0.2 2.3 0 2.8-0.9 0.6-0.8-0.4-1.4-1.1-1.6 0.1-0.4-0.3-0.3-0.4-0.5-3.5-0.7-3.5 2.6-1.3 3z"/><path class="e" d="m23 32.6c0.8-0.1 2.3-0.5 2.6-1.5 0.4-0.9-0.8-1.3-1.4-1.4-1.2 0-1 1.2-1.2 1.1-3.6 0-2.3 1.8 0 1.8z"/><path class="d" d="m14.9 13c-0.6 1.1-1.4 3.4-0.8 4.2 0.6 0.8 1.9-0.7 2.6-1.6 1-1.7-0.3-1.9-0.1-2 3-5.3 0.2-3.9-1.7-0.6z"/><path class="d" d="m22.9 11.7c-1 0.3-2.9 1.7-2.8 3.9 0.1 2.1 2 2.6 3 2.6 1.7-0.4 0.7-2.9 0.9-2.7 5.2-1.3 2.2-4.6-1.1-3.8z"/><path class="e" d="m13 49.9c0.5 0.5 1.8 1.4 2.8 1 0.9-0.3 0.5-1.4 0.1-2 0.2-0.2 0-0.4 0-0.6-2.4-2.7-4.4-0.1-2.9 1.6z"/><path class="e" d="m15.8 43c0.4 0.2 1.4 0.3 1.8-0.1 0.5-0.4-0.1-0.9-0.4-1.1 0.1-0.2-0.1-0.2-0.1-0.3-2-1-2.5 0.9-1.3 1.5z"/><path class="e" d="m19.5 40.5c0.3 0.3 1 1 1.6 0.8 0.6-0.1 0.4-0.8 0.3-1.1 0.1-0.2 0-0.3 0-0.4-1.2-1.8-2.6-0.5-1.9 0.7z"/><path class="e" d="m20.9 54.5c0.2 0.3 0.9 1 1.6 0.8 0.5-0.1 0.4-0.8 0.2-1.1 0.2-0.2 0-0.3 0-0.4-1.2-1.8-2.6-0.5-1.8 0.7z"/></svg>