<svg version="1.2" xmlns="http://www.w3.org/2000/svg" viewBox="0 0 280 284" width="280" height="284"><style>.a{fill:#ffe5a4}</style><path class="a" d="m277.2 159.7c1.6-13.9 3.7-30.1 1.4-43.1-2.3-13.4-9-26.4-14.8-38.3-8.4-17.2-17.8-32.3-32.4-44.6-10.5-9-24.5-14.4-37.6-19.9-11.7-5-22.3-10.4-35.7-11.9-21.6-2.5-42.5 0.2-61.8 7.2-19.2 6.9-40.5 15.7-54.9 30.2-9.6 9.6-16.2 21.6-22.7 33.9-8.3 15.4-15.7 31.7-17.8 50.2-1.6 14.2-0.4 30.8 2.1 44.1 2.4 13.5 10.2 27 16.3 39 9.1 17.9 18.7 33.5 34.4 46 19.5 15.5 43.9 23.8 70.4 26.8 15.8 1.8 32.9 5.6 47.6 2.3 16.7-3.9 35.1-13.9 49.1-23.4 16.4-11.1 32.2-22 42.8-39.1 10.6-17.2 11.2-38 13.6-59.4z"/></svg>