<svg version="1.2" xmlns="http://www.w3.org/2000/svg" viewBox="0 0 250 256" width="250" height="256"><style>.a{fill:#bc2020}</style><path class="a" d="m244.3 117.6c-3.1-14.3-4.1-29.5-3.4-40.6-2.4-7.1-5.4-13.8-9.4-20.3-5.9-5.4-12.3-10.3-19.4-14.7-9.2-6.3-17.9-18.7-26.5-22.1-7.3-2.9-15.6 0.8-21.3-1.4-1.3-0.5-1.3-1-0.7-2.5 0.6-1.6 1.9-2.9 2.5-4.5 0.9-2.4-2.7-5.2-7.5-7.9-13.5-3.6-33.8 2.5-47.3 3.6-7.6 0.7-15.9-12.2-17-4.2-0.9 7.1 11.9 11.7 32 7.9 1.4 0 2.8 0 4 0.5 0.6 0.2 1.1 0.5 0.9 1.1-1.6 4.1-18 8.8-31.8 3.3-2.4-0.9-4.6-2.4-7-3.3-3.1-1.2-18.3-1.5-19.4-1.4-2.9 0.1-6.7 1.4-10 2.5-10.4 6-18.8 14.8-27.2 23.7-5.3 5.7-10.3 11.8-14.7 18.5-2.1 9.8-8.7 19.3-7.8 29.7 7.9-10.7 9.4-25.1 18.9-34.7-0.5 4.9-1.9 9.5-3.7 14-2 5.1-4.5 10.1-6.5 15.3-5.7 14.2-8.8 31.8-7.5 41.5 1.1 8.6-3.8 5.5-4.1-9.8 0.9-7 2.2-15.4 0-15.1-2.5 0.4-3.4 17.2-5 16.6-3.5-1.4-0.5-8-2.9-10.9q-0.2-0.1-0.4-0.3c-0.9 4.5-1.6 8.9-2 13.2-1 12.2 2.6 25.7 5 37.5q0.6 2.5 1.2 5.1c0.4 0.7 0.7 1.4 1 2.1 4.4 14.7 9.3 17 12.6 29.1 7.2 15.8 19.8 29 35.3 35.1 1.1 0.4 2.1 1.1 1.1-1.2-2.9-5.3-19.1-3.7-25.6-24.3 3 2.5 6.5 4.6 10.6 6.2 10.4 4.1 13.6-4 19.9 6.3 7.1 10.8 16.3 21.7 28.4 26.5 6.2 2.5 17.8 13.4 30 15.7 14.6 2.7 27.1 1.2 43.6-8.3 2.3-1.4-0.2-4.9-10.6 0.6-6.7 3.5-10.9-1.6-19.9-3.4-10.3-4.1 19.7-2.7 25.8-4.6 9.5-3.1 17.7-7.4 28.1-9.4 1.1-0.2 13.2-6.9 11.6-2.8 0 0-0.8 2-0.8 2-1.3 3.3-18.4 8.7-14.9 11.7 2 3 16.4-9.1 31-18.4 7.9-5 11.5-14.2 15.5-22.8 0.9-5.4-9.3 2.2 0.1-14.1 1.6-2.9 6.2-7.4 4.1-9.3-1.4-1.1-9.1 11.6-5.7-3.6 2-8.8 8.4-6.2 10.8-12.1 2.5-8.8-2.2-4.1 4.8-23.7q0.2 0.9 0.2 2c0 2.6-0.9 4.8-0.3 7.1 3.8 8.7-2.7 18.4 0.6 20.8 0.4 0.1 1.3 0.5 1.5 0.1 6-15.4 4.3-32.3-0.8-47.6z"/></svg>