<svg version="1.2" xmlns="http://www.w3.org/2000/svg" viewBox="0 0 280 282" width="280" height="282"><style>.a{fill:#e57f39}</style><path class="a" d="m277.8 152.3c0.9-13.9 2.1-30.2-0.9-43.1-3-13.1-9.1-30.4-15.6-41.9-9.3-16.7-17.8-25-32.9-36.6-11-8.4-23.9-15.6-37.2-20.4-12-4.4-27.1-8.1-40.4-8.9-21.8-1.3-43.2 0.9-62.1 8.9-18.8 8-29.2 11.3-52.3 34.6-9.5 9.6-14.9 22.5-20.8 35-7.4 15.8-12.5 33.1-13.6 51.6-0.9 14.2-0.1 30 3 43.2 3.2 13.4 11.7 26.4 18.4 37.9 9.9 17.4 20.4 32.4 36.7 44 20.2 14.5 45 21.4 71.6 23 15.8 1 33.1 3.8 47.5-0.3 16.5-4.7 34.2-15.7 47.7-25.8 15.7-12 30.9-23.7 40.5-41.3 9.6-17.7 9.2-38.4 10.4-59.9z"/></svg>