<svg version="1.2" xmlns="http://www.w3.org/2000/svg" viewBox="0 0 250 256" width="250" height="256"><style>.a{fill:#c13616}</style><path class="a" d="m245.4 118.1c-3.1-14.3-4.1-29.5-3.4-40.6-2.4-7.1-5.4-13.8-9.5-20.3-5.8-5.4-12.2-10.3-19.4-14.8-9.1-6.2-17.9-18.6-26.4-22-7.3-2.9-15.6 0.8-21.3-1.4-1.3-0.5-1.4-1-0.7-2.6 0.6-1.5 1.8-2.9 2.5-4.4 0.9-2.5-2.7-5.2-7.5-8-13.5-3.5-33.8 2.5-47.3 3.7-7.7 0.6-15.9-12.2-17-4.3-0.9 7.2 11.9 11.8 31.9 8 1.4 0 2.8 0 4.1 0.4 0.6 0.3 1.1 0.6 0.9 1.2-0.9 2.1-5.9 4.5-12.5 5.4q3.2-0.2 6.5-0.2c58.7 0 96.8 48.3 96.8 106.7 0 58.3-36.8 96.8-95.5 96.8-58.7 0-98.8-37.2-98.8-95.5 0-54.7 32.9-101.9 86.4-107.4-4.7 0.1-9.9-0.6-14.7-2.5-2.4-1-4.7-2.4-7-3.3-3.1-1.3-18.3-1.6-19.4-1.5-2.9 0.2-6.7 1.5-10 2.5-10.4 6.1-18.8 14.9-27.2 23.8-5.3 5.7-10.3 11.8-14.7 18.4-2.1 9.9-8.7 19.3-7.8 29.8 7.9-10.8 9.4-25.1 18.9-34.7-0.5 4.9-1.9 9.5-3.7 14-2.1 5.1-4.5 10.1-6.6 15.2-5.6 14.2-8.7 31.9-7.5 41.6 1.2 8.6-3.7 5.5-4-9.8 0.8-7.1 2.2-15.5 0-15.1-2.5 0.4-3.5 17.2-5 16.5-3.5-1.3-0.5-8-2.9-10.9q-0.2-0.1-0.4-0.2c-0.9 4.5-1.6 8.9-2 13.1-1 12.3 2.6 25.8 5 37.5q0.6 2.6 1.1 5.2c0.5 0.7 0.8 1.4 1.1 2 4.4 14.8 9.3 17 12.6 29.2 7.2 15.8 19.8 28.9 35.3 35.1 1.1 0.4 2.1 1.1 1.1-1.2-2.9-5.3-19.2-3.7-25.6-24.3 3 2.5 6.5 4.6 10.6 6.2 10.3 4.1 13.6-4 19.9 6.3 7.1 10.8 16.3 21.7 28.4 26.5 6.2 2.5 17.7 13.4 30 15.6 14.6 2.7 27.1 1.3 43.5-8.3 2.4-1.3-0.1-4.8-10.5 0.7-6.7 3.5-11-1.6-19.9-3.5-10.3-4.1 19.7-2.6 25.8-4.5 9.5-3.1 17.7-7.4 28.1-9.5 1.1-0.1 13.2-6.8 11.6-2.7l-0.9 1.9c-1.3 3.3-18.3 8.8-14.8 11.8 2 3 16.4-9.2 31-18.4 7.9-5 11.5-14.2 15.5-22.8 0.9-5.4-9.3 2.2 0-14.1 1.7-2.9 6.3-7.5 4.1-9.3-1.3-1.2-9.1 11.5-5.6-3.6 2-8.8 8.4-6.2 10.8-12.2 2.5-8.7-2.2-4 4.8-23.6q0.2 0.8 0.2 2c0 2.5-0.9 4.8-0.3 7.1 3.8 8.6-2.7 18.4 0.5 20.7 0.5 0.2 1.4 0.6 1.6 0.1 6-15.3 4.2-32.2-0.8-47.5z"/></svg>