<svg version="1.2" xmlns="http://www.w3.org/2000/svg" viewBox="0 0 252 252" width="252" height="252"><style>.a{fill:#ffda7d}.b{fill:#ffcd69}</style><path fill-rule="evenodd" class="a" d="m250.8 142.2c0 1.6-1.2 3.5-2.7 3.4-0.5 0-1.1-0.1-1.6-0.1-3.7-0.1-5.5 21.7-7.5 29.6-1.9 9.8-12.5 36.1-24.8 35.9-4.3 0-3.7-5.1-7.2-5.2-2.2 0-3.6 2.3-4.1 3.8-11.3 25.2-42.7 39.9-46.4 39.9-2.6-0.1-5.3-1.4-7.9-1.4-6.4 0.3-12.8 2.7-19.1 2.6-13.5-0.2-10.8-9.9-22-10.1-5.6-0.1-11.6 2.7-16.9 4.2 0 1.5 0.9 3.5-5.4 3.4-7.9-0.1-30.8-12.1-30.6-25.3-22.3-6.9-19.2-19.2-33.4-35.7-4.8-5.5-14.1-9.4-14-16.1 0-2.3 0.8-4.5 0.9-6.6 0-3.4-5.7-9.6-5.6-22.1 0.3-19.1 12.2-21.3 12.3-30.9 0.1-6.7-1.2-13.8-8.1-13.9-2.4 0-5.1 2-5.1-0.9 0.1-9.1 9.9-17.6 13.2-26.8 3.8-14.2-1.3-14.9 17.2-24.7 1.4 0 2 1.4 3.4 1.4 5.7 0.1 4.9-8.4 12.4-8.3 11.5-7.3 4.1-15.3 19-20 31-3.6 35.5-17.7 55.7-17.4 8.6 0.2 13 12.4 25.3 13.1 7.8 2.5 12.2-2.6 19.4 3.5 8.8 7.3 13.6 19.3 19.9 19.4 1.9 0 4-0.5 6-0.5 6.3 0.1 8.5 7.4 13.6 9.7 7.3 3.6 11.4 8.5 17.4 13.3 3.6 2.4 2.3 7.2 4.1 10.8 4.7 12 17.9 20.5 18.3 34.2 1 22.4 4.3 37.8 4.3 37.8zm-208.8-42.3q-0.3 0.6-0.5 1.2c-0.7 1-2.2 1.6-2.7 2.5-4.5 9.8-4.6 20.9-11 30.1-0.7 1.8-1 3.8-1.1 5.8-0.1 9 10.7 22.7 9.7 20.8-1.7-4.2-2.2-8.8-2.1-13.5 0.1-12.9 4.8-5.3 5.8-4.3-0.3-8.1-1.3-16.5-1.2-24.7 0.1-5.7 0.8-11.3 2.6-16.7 0.3-0.3 0.4-0.7 0.5-1.2zm48.9 114.5c-9.8-4.5-20.9-5.9-30.8-10.4 12.6 6.9 16.3 21.7 33.1 22 2 0 4-0.1 6.2-0.4 1.5 0 3.1 0.1 4.6 0.1 4.6 0.1 9.1-0.2 13.3-2.9 9.1-8.9-15.8-4-26.4-8.4zm31.5-21.2c-19.5-7.6-33.7-14.7-46.5-30.9-8.1-9.5-7.2-30.4-7.6-42.3 0-1.7-1.4-5.3-2.5-5.3-1.8 0-1.2 1.9-1.2 3.6 0 7.6-2.6 11.2-2.6 15.8 0 5 2.1 10.1 2.5 14.9q0.7 5.2 2.6 9.9l-1.2-1.3c2.9 10.7 10.4 17.4 16.5 21.6q2.1 1.6 4.4 3.1c4.3 2.4 10.4 0.5 15.2 3.8 9.1 7.2 20.5 11.1 21.9 11.1 4.7 0-0.2-3.6-1.5-4zm66.1-124.1c-3.8-4-16.8-21.8-28.8-23.2-8.5-1.5-15.8-10-33.5-13.6-2.4-2.1-5-4.1-7.8-5.7q0.4 0.1 0.8 0.2l-1.1-0.4c-2.9-1.6-6-2.8-9-3l9 3q0.2 0.1 0.3 0.2-3.2-0.8-6.4-0.9c-11.7-0.1-22.8 6.8-32.4 13.8q-1.6 1.1-3.2 2.4 1.6-1.2 3.2-2.4c9.5-6.4 20.3-8.9 31.4-8.7 5.8 0.1 10.8 0.6 15.2 1.5 5.5 4.9 9.4 10.1 9.9 10.5 7.7 6.1 35.4 16.3 35.4 16.3 1 0.8 9.2 10.9 14.8 10.9 0.8 0.1 1.5-0.2 2.2-0.9zm15 62.6c0.5-3.2 0.8-6.7 0.9-10.4-3.1-0.1-3.9-6.9-6.3-9-3.5-1.8-9.8 17.5 5.4 19.4zm5.9 31c1.8-10 3.7-23 1.1-38.4-0.8 3.9-1.8 7.8-2.8 11.7 0.2 1.3 0.3 2.5 0.3 2.9-0.1 3.6-4.2 12.3-7.4 22.3-1.5 5.7-2.8 11.4-3.4 17q-0.1 0-0.1 0 0 0.6 0 1.3c5.9-4.1 8.3-11.1 12.3-16.8zm15.2-26.8q0.1-2.8-0.4-5.6c-0.7-1.9-0.5-5.1-2.3-6.2 0.3 11-1.7 20.7-4.2 29.9 4.5-5.1 6.8-11.5 6.9-18.1zm5.4-28.5c0 0-1.4-5.7-3.3-20.1-0.4-3.3-3.6-5.6-4.9-9.4q-1 3.9-1 7.7c-0.2 9 3.1 17.9 6.9 26.2 0.1-2.1 2.2-1.5 2.3-4.4z"/><path fill-rule="evenodd" class="b" d="m247.2 115.3c1.3 16.4 3.6 26.9 3.6 26.9 0 1.6-1.2 3.5-2.7 3.4-0.5 0-1.1-0.1-1.6-0.1-3.7-0.1-5.5 21.7-7.5 29.6-1.9 9.8-12.5 36.1-24.8 35.9-4.3 0-3.7-5.1-7.2-5.2-2.2 0-3.6 2.3-4.1 3.8-11.3 25.2-42.7 39.9-46.4 39.9-2.6-0.1-5.3-1.4-7.9-1.4-6.4 0.3-12.8 2.7-19.1 2.6-13.5-0.2-10.8-9.9-22-10.1-5.6-0.1-11.6 2.7-16.9 4.2 0 1.5 0.9 3.5-5.4 3.4-7.9-0.1-30.8-12.1-30.6-25.3-9.6-3-14.5-7-18.1-11.8-1.9-5.8-2.9-11.6-2.9-17 0-12.5 5.9-24.6 18-24.6 4.3 0 8.5 2.2 12.9 2.2 1.2 0 4.5-0.4 7.8-1.7 3.1 3.9 6.8 6.9 10.1 9.2q2.1 1.6 4.4 3.1c4.3 2.4 10.4 0.5 15.2 3.8 9.1 7.2 20.5 11.1 21.9 11.1 4.7 0-0.2-3.6-1.5-4-18-7-31.5-13.7-43.6-27.4 1-1.3 1.7-2.8 1.7-4.6 0-5.3-9-18.4-9-29.3 0-12.3 8.8-19.6 21.1-19.6 11.5 0 23.4 7.8 38.7 15.5 13.6 6.5 27.7 8.5 40.8 16.6 12.6 8 18.7 22.5 25.8 29.1q-0.4 2.4-0.7 4.7-0.1 0-0.1 0 0 0.6 0 1.3c1.5-1.1 2.8-2.3 4-3.7 1.3 0.7 2.7 1.1 4.2 1.1 9.4 0 15.9-10.1 20.9-17.8 7.3-14.2 1.9-37.9 9.1-41.4 3.3-1.8 7.6-2.1 11.9-2.4zm-156.3 99.1c-9.8-4.5-20.9-5.9-30.8-10.4 12.6 6.9 16.3 21.7 33.1 22 2 0 4-0.1 6.2-0.4 1.5 0 3.1 0.1 4.6 0.1 4.6 0.1 9.1-0.2 13.3-2.9 9.1-8.9-15.8-4-26.4-8.4z"/><path class="a" d="m178.4 59.6c0.5-0.6 2.1-3.6 1.4-4-0.3-0.1-2.3 0.5-3.3 1.7-1.4 1.7-1.4 4.3-0.3 6.3 0.4 0.9-0.6 2.2 0.6 3.2 0.7 0.3 2.5 0.5 3.1-0.3 0.4-0.4-1.8-5.4-1.5-6.9z"/><path class="a" d="m159.3 48.6c-0.7-0.4-3.8-1-3.9 0-0.1 0.5 0.9 2.6 2.3 3.3 1.9 1 4.2-0.2 5.8-2.4 0.7-1 2.1-0.2 2.7-2.2 0.1-1.1-0.1-3.4-1-3.8-0.4-0.2-4.5 4.7-5.9 5.1z"/><path class="a" d="m144.1 40.9c-0.6-1.8-3.9-9.3-4.5-9.1-0.3 0.1-0.1 3.5 1.1 7.1 1.7 4.9 4.9 9.8 7.8 12.3 1.3 1.2 2.6 4.9 4.1 5.2 0.7-0.2 1.4-2 0.6-4.3-0.3-1.1-7.3-8.1-9.1-11.2z"/><path class="b" d="m140.6 82.4c0.4-0.4 1.7-2.4 1.1-3-0.2-0.3-1.6-0.5-2.4 0.2-1.1 1-1.1 3.3-0.4 5.5 0.3 1-0.5 1.8 0.4 3.1 0.6 0.6 1.9 1.4 2.4 1 0.2-0.2-1.3-5.6-1.1-6.8z"/><path class="b" d="m155.5 89.1c0.3 0.4 2.3 1.7 2.9 1.3 0.3-0.2 0.5-1.7-0.1-2.5-0.9-1.2-3.2-1.3-5.5-0.7-1 0.3-1.7-0.6-3 0.2-0.7 0.5-1.6 1.8-1.2 2.3 0.2 0.3 5.6-0.9 6.9-0.6z"/><path class="b" d="m188.2 94.1c0.3-1 0.5-5.5-0.2-5.6-0.3-0.1-1.8 1.4-2.3 3.3-0.7 2.7 0.3 6 2.1 8.2 0.7 1.1 0.2 3.1 1.6 3.9 0.8 0.2 2.5-0.3 2.8-1.5 0.1-0.6-3.7-6.3-4-8.3z"/><path class="b" d="m116.9 76.4c0.6 0.1 2.2-0.1 2-1-0.2-0.3-1.4-2.1-2.6-2.7-2-1.1-3.4 0.7-3.3 4 0 1.5-2.6 1.3-1.4 4.2 0.9 1.4 2.9 3.3 4 2.9 0.4-0.1 0.6-6.7 1.3-7.4z"/><path class="b" d="m116.8 49.4c0.2 1 1.7 3.7 2.4 3.2 0.3-0.2 1.4-2.4 1.3-4.3-0.2-3.3-3.2-5.6-7-5.4-1.7 0-3.3-4.3-5.7-2.3-0.9 1.5-1.6 5-0.4 6.7 0.5 0.7 8 1 9.4 2.1z"/><path class="b" d="m63 99.4c0.3 0 1.2-0.4 1.2-1 0-0.2-0.2-1.6-0.7-2.3-1.3-1.7-3.5 0.2-4.4 4.7-0.5 1.9-6.9 4.4-4.1 7.2 1.5 0.5 4.1-0.2 5.3-1.5 0.4-0.5 2.1-6.3 2.7-7.1z"/><path class="b" d="m97.2 180.1c-0.1-0.9-7-22.2-8.8-24.2-0.9-1-0.3 11.8-2.3 12-4.9 0.7 5.7 14.9 14 21.9 2.2 2 3.3 7.1 5.5 6.6 0.6-0.6 1-2.4 0.4-4.1-0.2-0.7-7-9-8.8-12.2z"/><path class="b" d="m61.9 121.6c0.1-1-0.6-4-1.4-3.7-0.4 0.1-2 1.9-2.4 3.7-0.7 3.3 1.6 6.3 5.2 7.1 1.7 0.5 2.1 5.1 4.9 3.7 1.3-1.1 2.9-4.3 2.2-6.3-0.2-0.8-7.4-3.1-8.5-4.5z"/><path class="b" d="m64.3 135.7c-0.9 0.2-3.8 1.4-3.4 2.1 0.2 0.4 2.3 1.6 4.2 1.7 3.3 0.1 5.9-2.7 6-6.4 0.2-1.7 4.6-2.9 2.8-5.5-1.4-1.1-4.7-2-6.6-1.1-0.8 0.5-1.7 7.9-3 9.2z"/><path class="b" d="m65.8 154.8c-2-2.5-9.3-9.8-10.1-8.6-0.4 0.6 0.8 6.1 4 11.1 5.7 8.8 15.7 15.1 23.3 14.9 3.7 0.2 13.8 11.7 15.7 6.6-0.3-3.8-4.3-12.9-9.5-17.6-2.2-2-18.6-3.3-23.4-6.4z"/><path class="b" d="m63.9 145.8c1-2.2 3.1-10.7 1.6-10.9-0.7-0.1-4.2 2.4-6 5.9-2.8 5.4-2.8 13.7 0 21.5 1.3 4.3-1.7 12.2 2.3 18 2.9 2.5 9.6 3.1 11.2-3.1 0.7-2.8-9.2-26.4-9.1-31.4z"/><path class="b" d="m163 151.3c0.1 5.1 2.7 21.6 4.8 19.2 0.9-1 3.9-11.2 4-19.8 0.7-37.1-24.3-54.2-27.9-54.7-5.3 1.7-9.6 3.3-7.7 15.5 0.9 5.5 23.7 32.2 26.8 39.8z"/><path class="b" d="m83.1 65.6c3.3 0.6 14.3 1 13-0.7-0.5-0.7-6.7-3.9-12.2-5.1-23.8-5.2-38 8.7-38.8 10.9 0.4 3.7 0.9 6.6 9 7 3.6 0.1 23.7-11.1 29-12.1z"/><path class="b" d="m102.3 95.1c2.9 1.6 25.6 7.8 24.9 5.8-0.3-0.8-5.1-5.9-9.9-8.8-20.8-12.7-38.7-4.1-40.2-2.2-0.8 3.5-6.4 2.3 1.2 5.2 3.3 1.4 2.8-5 24 0z"/><path class="a" d="m205.8 181.6c-2.7 2.1-17.6 21.2-15.5 21.3 0.9 0.1 7.4-2.5 12.1-5.9 20.1-14.8 19.7-35.1 18.5-37.2-2.9-2.2 0.6-6.9-5.3-0.9-2.6 2.6 3.5 4.6-9.8 22.7z"/><path class="b" d="m164.5 58.8c4.3 4.1 13.9 22 15.1 18.8 0.5-1.4 1.1-10.6-0.1-16.5-5-26-39.2-18.8-41.9-16.5-4.2 6 16.2 4.1 26.9 14.2z"/><path class="b" d="m223.5 92.2c-0.7-6.4 2-28.3-0.2-26.3-1 0.8-5.8 8.3-7.9 14.3-9.3 25.8 14.9 42.5 17.7 42.2 5.4-2.3-8-14.3-9.6-30.2z"/><path class="b" d="m223.1 81.4c2.6 5.9 6.9 27.5 8.4 24.9 0.7-1.1 2.9-9.7 3.1-16.1 0.8-27.4-27.4-35.7-30-34.6-4.5 3.9 12 11.1 18.5 25.8z"/><path class="a" d="m153.5 223.1c-6.8 3.5-31.5 10.4-28.5 11.9 1.2 0.6 18.8 4.3 26 3.9 31.1-1.8 33.3-36.2 32.1-38.9-4.2-4.6-12.9 14.5-29.6 23.1z"/><path class="a" d="m82.1 148.4c-2.9-4.9-9.5-22.2-10.2-20.4-0.3 0.8-1.1 12.2-0.2 17.1 4 21.1 26.3 26.3 27.9 25.8 2.6-2.4-10.5-10.3-17.5-22.5z"/><path class="b" d="m99.7 51.4c3.3 0.6 14.3 1 13-0.7-0.6-0.7-6.7-3.9-12.2-5.1-23.8-5.2-38 8.7-38.8 10.9 0.4 3.7 0.9 6.6 9 7 3.6 0.1 23.7-11.1 29-12.1z"/><path class="b" d="m58.1 66.1c4.1-1.6 16.9-8.7 14.3-9.7-1.1-0.4-10.3 0.2-17.3 2.6-30.6 10.3-37.2 35.9-36.5 38.9 2.8 3.9 5.4 6.9 14.9 1.7 4.2-2.3 19.3-28.8 24.6-33.5z"/><path class="a" d="m39.5 178.3c-2.9-3.3-14-12.8-14-10-0.1 1.2 3.7 9.6 8.5 15.3 20.5 25 46.7 22 49.3 20.3 2.7-4.1 4.5-7.5-3.6-14.5-3.7-3.2-33.9-7.9-40.2-11.1z"/><path class="a" d="m52.2 162c-0.5-3.1-3.5-13.1-4.6-11.4-0.5 0.7-1.4 7.2-0.8 12.5 2.9 22.9 19.7 31.2 22 31.1 3.1-1.4 5.6-2.8 3.3-10.1-1-3.3-17.3-17.7-19.9-22.1z"/><path class="a" d="m88 139.1c-1.4-14.5 20.3 1.3 37.9 5.3 17.6 4 34.1 10.3 40.7 23.5 6.6 13.2 19.7 26.3-6 35.4-11.1 3.9-18.1 0.9-30.3-14.8-12.3-15.6-39.3-17-42.3-49.4z"/><path class="a" d="m98.7 127.3c-2.8-3.5 1.9-10.2 12.9-5.6 11.1 4.5 41.1 20.3 45.8 23.8 4.6 3.5-44.6-0.2-58.7-18.2z"/><path class="a" d="m88 203.7c-2.4-2.8 0.6-10.5 9.3-8.6 8.8 1.9 32.9 10.2 36.7 12.6 3.8 2.4-33.8 10.5-46-4z"/></svg>