<svg version="1.2" xmlns="http://www.w3.org/2000/svg" viewBox="0 0 288 292" width="288" height="292"><style>.a{fill:#e57f39}.b{fill:#ffbd52}.c{fill:#ffe5a4}.d{fill:#ffecae}</style><path class="a" d="m286.3 160.7c1.3-14.3 3-31.1 0.3-44.5-2.7-13.8-9.9-27.1-16.3-39.2-9.2-17.6-19.3-32.9-34.6-45.3-11.1-9-25.7-14.2-39.4-19.5-12.3-4.8-23.3-10.2-37.2-11.4-22.4-2-43.9 1.3-63.6 9-19.7 7.7-41.5 17.3-56 32.6-9.7 10.2-16.2 22.9-22.6 35.6-8.1 16.2-14 33.9-15.7 53.1-1.3 14.7-1 31.1 1.9 44.9 2.9 13.9 11.3 27.6 17.9 39.8 9.8 18.3 20.2 34.1 36.7 46.6 20.5 15.6 46 23.5 73.5 25.9 16.3 1.5 34.1 5 49.2 1.1 17.2-4.4 35.9-15.2 50.1-25.4 16.7-11.8 32.8-23.5 43.2-41.5 10.5-18.1 10.6-39.5 12.6-61.8z"/><path class="b" d="m284.5 164.1c1.6-14.2 3.7-30.8 1.4-44.1-2.4-13.7-9.2-27-15.1-39.2-8.7-17.6-18.3-33-33.2-45.7-10.8-9.2-25.2-14.6-38.5-20.3-12.1-5.1-22.9-10.7-36.5-12.2-22.2-2.5-43.6 0.2-63.3 7.3-19.7 7.2-41.5 16.2-56.3 31-9.8 9.8-16.5 22.2-23.2 34.7-8.4 15.7-14.7 33.2-16.8 52.1-1.7 14.5-1.8 30.8 0.7 44.5 2.5 13.8 10.5 27.6 16.7 39.8 9.3 18.4 19.2 34.3 35.2 47.1 20 16 45 24.4 72.2 27.5 16.1 1.8 33.6 5.7 48.6 2.3 17.2-3.9 36-14.2 50.3-23.9 16.8-11.3 33-22.5 43.8-40.1 10.8-17.6 11.5-38.8 14-60.8z"/><path class="c" d="m281.2 163.7c1.6-13.9 3.7-30.1 1.4-43.1-2.3-13.4-9-26.4-14.8-38.3-8.4-17.2-17.8-32.3-32.4-44.6-10.5-9-24.5-14.4-37.6-19.9-11.7-5-22.3-10.4-35.7-11.9-21.6-2.5-42.5 0.2-61.8 7.2-19.2 6.9-40.5 15.7-54.9 30.2-9.6 9.6-16.2 21.6-22.7 33.9-8.3 15.4-15.7 31.7-17.8 50.2-1.6 14.2-0.4 30.8 2.1 44.1 2.4 13.5 10.2 27 16.3 39 9.1 17.9 18.7 33.5 34.4 46 19.5 15.5 43.9 23.8 70.4 26.8 15.8 1.8 32.9 5.6 47.6 2.3 16.7-3.9 35.1-13.9 49.1-23.4 16.4-11.1 32.2-22 42.8-39.1 10.6-17.2 11.2-38 13.6-59.4z"/><path class="b" d="m278.8 148c0-13.6 0.2-29.5-3.4-41.9-3.7-12.6-11.6-24.5-18.5-35.3-10.1-15.7-20.8-29.2-36.2-39.6-11.2-7.6-25.3-11.2-38.6-15.1-11.9-3.5-22.7-7.6-35.8-7.6-21.2 0-41.1 4.8-58.9 13.7-17.9 8.9-37.5 19.7-49.9 35.2-8.2 10.4-13.2 22.8-18.2 35.3-6.3 15.8-10.3 32.9-10.3 51 0 14 1.6 29.3 5.4 42 3.9 12.8 12.9 24.9 20.1 35.8 10.7 16.4 21.8 30.4 38.3 40.7 20.5 13 45.1 18.2 71.1 18.2 15.4 0 32.4 1.8 46.1-3 15.8-5.5 32.5-17.2 45-27.9 14.6-12.6 28.8-24.9 37.1-42.6 8.3-17.8 6.7-37.9 6.7-58.9z"/><path class="a" d="m275 162.8c1.5-13.2 3.5-28.7 1.4-41.2-2.2-12.7-8.6-25.1-14.2-36.5-8.1-16.4-17-30.8-30.9-42.6-10.1-8.6-23.5-13.7-35.9-19-11.3-4.7-21.4-9.9-34.1-11.4-20.7-2.3-40.6 0.2-59 6.9-18.4 6.7-38.7 15-52.5 28.8-9.1 9.2-15.4 20.7-21.6 32.4-7.9 14.7-13.8 31-15.8 48.6-1.5 13.6-1.6 28.7 0.7 41.5 2.4 12.9 9.9 25.8 15.6 37.2 8.7 17.1 17.9 32 32.8 43.9 18.7 14.9 42 22.8 67.4 25.6 15 1.7 31.3 5.4 45.3 2.2 16-3.7 33.6-13.2 46.9-22.3 15.7-10.6 30.8-21 40.9-37.4 10.1-16.4 10.7-36.2 13-56.7z"/><path class="c" d="m274.5 147.9c0-13.2 0.3-28.6-3.2-40.5-3.6-12.3-11.2-23.8-18-34.3-9.7-15.2-20.1-28.3-35-38.4-10.9-7.3-24.6-10.8-37.4-14.6-11.5-3.4-22-7.4-34.7-7.4-20.5 0-39.8 4.7-57.1 13.3-17.3 8.6-36.3 19.1-48.2 34.2-8 10-12.9 22-17.7 34.1-6.1 15.3-10 31.9-10 49.4 0 13.5 1.6 28.4 5.3 40.7 3.7 12.4 12.5 24.1 19.4 34.7 10.4 15.8 21.1 29.4 37.1 39.4 19.9 12.6 43.7 17.7 68.9 17.7 14.9 0 31.4 1.7 44.7-3 15.3-5.3 31.4-16.7 43.6-27 14.1-12.2 27.8-24.1 35.9-41.2 8.1-17.3 6.4-36.8 6.4-57.1z"/><path class="d" d="m88 180.9c-8.2 0-14.5-4.8-21.3-7.7-17.7-5.9-19-17.3-40.4-17.3-4.5 0-8.8 0.9-12.5 2.7q0.3 3.3 0.8 6.6 0 0.1 0 0.2 0.2 1.5 0.4 2.9 0 0.3 0.1 0.5 0.2 1.5 0.4 2.9 0.1 0.1 0.1 0.2 0.3 1.6 0.6 3.1 0 0.2 0.1 0.4 0.2 1.3 0.5 2.5 0.1 0.4 0.2 0.8 0.2 1.1 0.5 2.1 0.1 0.4 0.2 0.8 0.4 1.4 0.8 2.8c3.7 12.4 12.5 24.1 19.4 34.7 10.4 15.8 21.1 29.4 37.1 39.4 19.9 12.6 43.7 17.7 68.9 17.7 14.9 0 31.4 1.7 44.7-3q1.4-0.4 2.8-1 0.5-0.2 1.1-0.5 0.8-0.3 1.6-0.6 0.7-0.3 1.4-0.7 0.7-0.3 1.3-0.6 0.9-0.4 1.7-0.8 0.5-0.2 1-0.5 0.9-0.4 1.9-0.9 0.4-0.2 0.7-0.5 1.1-0.5 2.1-1.1 0.3-0.1 0.5-0.3 1.2-0.6 2.3-1.3 0.1-0.1 0.3-0.2 1.2-0.7 2.4-1.4c-38.7-53.5-118.8-81.9-121.7-81.9z"/><path class="d" d="m150.3 174.7c9-1.9 38.2-3.3 38.2-21.4 0-3.3-1.1-6.6-2.2-9.6-32.5-69-72.3-85.4-75-87.2-10.4-6.5-20.5-17-30.7-26.1-14.8 7.8-29.7 17.2-39.7 29.8-8 10-12.9 22-17.7 34.1-5.1 12.9-8.7 26.8-9.7 41.3 8.3-1.9 17.7-3.9 31-3.9 44.1 0 63.2 31.8 105.8 43z"/><path class="d" d="m87.5 160.6c-10.1-5.3-18.8-12.6-30-14.5 0.5 3.4 3.4 4.3 5.8 5.8 21.8 11.1 41.2 26.1 65.4 31-2.9-1.5-6.3-2-9.2-3.4-11.1-6.8-20.8-13.6-32-18.9z"/><path class="d" d="m138 42.5c-11.4-4.8-24.3-7-32.5-15 4.1-2 6.8-0.3 9.7 0.7 24.3 10.5 51.6 16.1 70 33.2-3.2-1.5-5.5-4-8.7-5.4-13.6-4.6-26.5-7.9-38.5-13.5z"/><path class="d" d="m191.4 183.3c5-3.2 12.3-14.1 16-18.6-1.7-0.7-5.8 0.5-7.1 1.2-10.6 7-11.6 5.8-24.2 13.6 9 2 10 7.5 15.3 3.8z"/><path class="d" d="m263.3 119.5c-6.1-3.1-47.8-38.9-52.8-43.6 0 0 54.2 25.2 54.2 25.2-8.8 3.1 5 21.9-1.4 18.4z"/><path class="d" d="m219.1 129.4c-6.1 0-7.3 2.7-7.3 5.8 0 7.9 2.7 22 2.7 33.6 0 22.6-7.5 22.9-23.7 22.9-3.8 0-7.8-0.2-11.7-0.2-54.2 0 0.2 17.4 46.9 54.8 7.1-11 18.2-17.3 29.8-22.7 4.8-5.6 9-11.7 12.3-18.6 1.5-3.4 2.7-6.8 3.6-10.2-11.6-23.1-37.1-65.4-52.6-65.4z"/><path class="d" d="m152.4 60.9q4.4 2.9 8.7 5.8c14.1 16.9 24.2 36.3 38.3 53.2 2.8-2.7-0.6-8.2 11.1-8.2 21.6 2.7 40.7 12.6 57.6 25.5-65-54.9-116.2-81.9-130.2-88.9 5.5 3.3 9.3 8.6 14.5 12.6z"/><path class="d" d="m253.3 73.1c-9.7-15.2-20.1-28.3-35-38.4-10.9-7.3-24.6-10.8-37.4-14.6-11.5-3.4-22-7.4-34.7-7.4-12.7 0-25 1.8-36.6 5.3 55.1 12.1 121.2 49.2 151.5 67.4-2.5-4.2-5.2-8.3-7.8-12.3z"/><path class="c" d="m47.1 116c-14.9 3-23.5 2.8-25.4-5.3-2-8.1 26.7-22 36.1-26.1 9.3-4.1 38.6-12.6 54.5-10.3 51.5 7.3 43.5 31.6 25.3 37-18.1 5.4-25.5-16.9-42-18.5-16.5-1.7-16 26.4-26.9 28-11 1.7-14.8-6.1-21.6-4.8z"/><path class="c" d="m108.5 120.3c-2.9 0.6-5.8 0.3-8.4 1.3-0.3 0.3-0.9 0.6-0.9 0.9 0 5.7 6.7 5.8 23.8 16.8 4.9 3.4 6.2 9.2 16.4 9.2 17.3 0 17.7-17.9-30.9-28.2z"/><path class="c" d="m249.5 190c-2.1-2.7-2.8-5.3-5.3-7.7-0.6-0.2-1.4-0.8-1.8-0.8-8.6 0.2-5.9 6.3-15.5 22.4-3.1 4.6-11.3 5.9-7.1 15.3 7 15.8 34 15.5 29.7-29.2z"/><path class="c" d="m64.7 242.5c-2.5-4.2-5.7-7.3-7.6-11.5-0.1-0.8-0.5-2-0.2-2.3 4.7-6.6 11.6 1.4 38.2 9.4 7.8 1.9 13.7-3.2 24.3 9.1 17.7 20.8 3.5 42-54.7-4.7z"/><path class="c" d="m70 187c1.7 3.5 4.1 6.1 5.3 9.5 0 0.7 0.3 1.6 0 1.9-4 4.9-9-1.9-29.4-9.7-6-2-11 1.7-18.6-8.7-12.7-17.4-0.3-33.2 42.7 7z"/><g style="opacity:.6"><path class="b" d="m161.8 99.2c0-2.3-0.7-10.2-1.6-10.2-1 0-1.7 7.9-1.7 10.2 0 2.3 0.7 4.2 1.7 4.2 0.9 0 1.6-1.9 1.6-4.2z"/><path class="a" d="m160.8 98.3c0-1.6-0.3-7.1-0.6-7.1-0.4 0-0.7 5.5-0.7 7.1 0 1.6 0.3 2.9 0.7 2.9 0.3 0 0.6-1.3 0.6-2.9z"/><path class="b" d="m198.1 66.3c0-2.3-0.7-10.2-1.6-10.2-0.9 0-1.7 7.9-1.7 10.2 0 2.3 0.8 4.2 1.7 4.2 0.9 0 1.6-1.9 1.6-4.2z"/><path class="a" d="m197.1 65.4c0-1.6-0.3-7.1-0.6-7.1-0.4 0-0.7 5.5-0.7 7.1 0 1.6 0.3 2.9 0.7 2.9 0.3 0 0.6-1.3 0.6-2.9z"/><path class="b" d="m108.5 56.8c0-2.4-0.7-10.2-1.6-10.2-0.9 0-1.6 7.8-1.6 10.2 0 2.3 0.7 4.2 1.6 4.2 0.9 0 1.6-1.9 1.6-4.2z"/><path class="a" d="m107.6 55.8c0-1.6-0.3-7-0.7-7-0.4 0-0.6 5.4-0.6 7 0 1.7 0.2 3 0.6 3 0.4 0 0.7-1.3 0.7-3z"/><path class="b" d="m43.4 136.8c0-2.3-0.8-10.2-1.7-10.2-0.9 0-1.6 7.9-1.6 10.2 0 2.3 0.7 4.2 1.6 4.2 0.9 0 1.7-1.9 1.7-4.2z"/><path class="a" d="m42.4 135.9c0-1.6-0.3-7.1-0.7-7.1-0.4 0-0.6 5.5-0.6 7.1 0 1.6 0.2 2.9 0.6 2.9 0.4 0 0.7-1.3 0.7-2.9z"/><path class="b" d="m95 231.4c0-2.4-0.7-10.2-1.7-10.2-0.9 0-1.6 7.8-1.6 10.2 0 2.3 0.7 4.2 1.6 4.2 1 0 1.7-1.9 1.7-4.2z"/><path class="a" d="m94 230.5c0-1.7-0.3-7.1-0.7-7.1-0.3 0-0.6 5.4-0.6 7.1 0 1.6 0.3 2.9 0.6 2.9 0.4 0 0.7-1.3 0.7-2.9z"/><path class="b" d="m215.4 236.5c0-2.3-0.8-10.1-1.7-10.1-0.9 0-1.6 7.8-1.6 10.1 0 2.3 0.7 4.2 1.6 4.2 0.9 0 1.7-1.9 1.7-4.2z"/><path class="a" d="m214.4 235.6c0-1.6-0.3-7-0.7-7-0.3 0-0.6 5.4-0.6 7 0 1.6 0.3 2.9 0.6 2.9 0.4 0 0.7-1.3 0.7-2.9z"/><path class="b" d="m248.6 144.1c0-2.3-0.7-10.2-1.6-10.2-0.9 0-1.7 7.9-1.7 10.2 0 2.3 0.8 4.2 1.7 4.2 0.9 0 1.6-1.9 1.6-4.2z"/><path class="a" d="m247.6 143.2c0-1.6-0.3-7.1-0.6-7.1-0.4 0-0.7 5.5-0.7 7.1 0 1.6 0.3 2.9 0.7 2.9 0.3 0 0.6-1.3 0.6-2.9z"/><path class="b" d="m178.7 177.6c0-2.3-0.7-10.1-1.6-10.1-0.9 0-1.6 7.8-1.6 10.1 0 2.3 0.7 4.2 1.6 4.2 0.9 0 1.6-1.9 1.6-4.2z"/><path class="a" d="m177.8 176.7c0-1.6-0.3-7-0.7-7-0.4 0-0.7 5.4-0.7 7 0 1.6 0.3 2.9 0.7 2.9 0.4 0 0.7-1.3 0.7-2.9z"/><path class="b" d="m116.3 157.3c0-2.3-0.7-10.2-1.7-10.2-0.9 0-1.6 7.9-1.6 10.2 0 2.3 0.7 4.2 1.6 4.2 1 0 1.7-1.9 1.7-4.2z"/><path class="a" d="m115.3 156.4c0-1.6-0.3-7.1-0.7-7.1-0.3 0-0.6 5.5-0.6 7.1 0 1.6 0.3 2.9 0.6 2.9 0.4 0 0.7-1.3 0.7-2.9z"/></g></svg>