<svg version="1.2" xmlns="http://www.w3.org/2000/svg" viewBox="0 0 244 250" width="244" height="250"><style>.a{fill:#dd526d}.b{fill:#a33b4f}.c{fill:#f2b8c3}.d{opacity:.5;mix-blend-mode:overlay;fill:#f2b8c3}.e{fill:#cc4465}.f{fill:#af4556}.g{fill:#ffdee7}</style><path class="a" d="m182.5 47c-9.3-10.1-23.9-11.4-34.6-1.5q-0.4 0.3-0.8 0.8l1.2 1c9.2-7.7 24.9-7.7 33.9 2.1q0.3 0.4 0.6 0.7l1.3-1.1q-0.7-1-1.6-2z"/><path class="b" d="m182.7 47.5c-9.2-10-24.2-11.2-34.5-1.5q-0.4 0.4-0.8 0.8l1.2 1.1c9.1-7.8 24.8-7.8 33.9 2.1q0.3 0.3 0.6 0.7l1.3-1.2q-0.8-1-1.7-2z"/><path class="c" d="m182.3 48c-9.8-9.5-24.7-10.1-33.3-1.3q-0.4 0.5-0.8 0.9l1.3 1c9.3-9 24-7.8 33.5 2.2l1-0.9q-0.8-1-1.7-1.9z"/><path class="a" d="m149 48.2l0.5 0.4c9.3-9 24-7.8 33.5 2.2l0.4-0.4c-10.7-10-25.1-10.9-34.4-2.2z"/><path class="d" d="m173.4 44.3l-2.9-4.5c-4.1-1.2-8.4-1.2-12.5 0.1l2 3.1c4.4-1 9.1-0.6 13.4 1.3z"/><path class="a" d="m29.1 179.8c-2.5 13.4 5.3 26 19.6 28.5q0.6 0.1 1.1 0.1l0.2-1.6c-11.7-2.6-21.2-15.1-18.8-28.3q0.1-0.4 0.2-0.9l-1.8-0.3q-0.3 1.2-0.5 2.5z"/><path class="b" d="m29.3 179.3c-2.4 13.4 5.7 26.1 19.7 28.4q0.5 0.1 1.1 0.2l0.1-1.6c-11.6-2.6-21.1-15.2-18.7-28.3q0-0.5 0.1-0.9l-1.7-0.3q-0.3 1.2-0.6 2.5z"/><path class="c" d="m30 179.3c-1.7 13.6 6.8 25.8 19.1 27.3q0.6 0.1 1.1 0.1l0.1-1.6c-12.8-2-20.7-14.4-18.6-28l-1.3-0.3q-0.2 1.2-0.4 2.5z"/><path class="a" d="m50.2 205.7l0.1-0.6c-12.8-2-20.7-14.4-18.6-28l-0.5-0.2c-1.4 14.7 6.5 26.7 19 28.8z"/><path class="d" d="m32.4 188.6l-1.8 5.1c1.5 4 4.1 7.4 7.6 9.9l1.3-3.4c-3.5-2.9-6-7-7.1-11.6z"/><path class="a" d="m170.4 24.8c-12.4-5.7-26.5-1.3-32.5 11.9q-0.2 0.5-0.4 1.1l1.5 0.5c5.4-10.7 20-16.7 32.1-11.1q0.4 0.2 0.8 0.4l0.8-1.6q-1.1-0.7-2.3-1.2z"/><path class="b" d="m170.8 25.2c-12.4-5.7-26.7-1-32.4 11.9q-0.3 0.5-0.5 1.1l1.5 0.5c5.5-10.7 20-16.7 32.1-11.1q0.4 0.2 0.9 0.4l0.7-1.6q-1.1-0.7-2.3-1.2z"/><path class="c" d="m170.6 25.8c-12.7-5-26.7 0.2-31.2 11.7q-0.2 0.5-0.4 1.1l1.5 0.4c5.2-11.9 19.2-16.4 31.9-10.9l0.6-1.2q-1.2-0.6-2.4-1.1z"/><path class="a" d="m140 38.8l0.5 0.2c5.2-11.9 19.2-16.4 31.9-10.9l0.2-0.5c-13.8-5.1-27.4-0.4-32.6 11.2z"/><path class="d" d="m161 25.8l-4.5-3c-4.2 0.4-8.2 2.1-11.5 4.9l3.1 2.1c3.6-2.7 8.1-4 12.9-4z"/><path class="a" d="m89.6 1.7c-13.5-1.8-25.7 6.6-27.5 21q-0.1 0.5-0.1 1.1h1.6c2.1-11.7 14.1-21.8 27.4-20q0.4 0 0.9 0.1l0.2-1.7q-1.2-0.3-2.5-0.5z"/><path class="b" d="m90.2 2c-13.6-1.8-25.9 6.9-27.6 20.9q-0.1 0.6-0.1 1.2h1.6c2.1-11.8 14.2-21.8 27.4-20.1q0.5 0.1 0.9 0.2l0.2-1.8q-1.2-0.3-2.4-0.4z"/><path class="c" d="m90.2 2.6c-13.7-1-25.5 8.1-26.5 20.4q0 0.6 0 1.1h1.6c1.4-12.9 13.4-21.4 27.2-19.8l0.2-1.4q-1.3-0.2-2.5-0.3z"/><path class="a" d="m64.7 24.1h0.6c1.4-12.9 13.4-21.4 27.2-19.8v-0.6c-14.6-0.7-26.2 7.8-27.8 20.4z"/><path class="d" d="m80.9 5.4l-5.1-1.5c-3.9 1.6-7.2 4.4-9.6 8.1l3.5 1.1c2.8-3.6 6.7-6.3 11.2-7.7z"/><path class="a" d="m55.4 51.1c-10.5-8.8-25.2-8.3-34.5 2.9q-0.4 0.5-0.7 0.9l1.3 0.9c8.1-8.8 23.7-10.8 33.9-2.2q0.4 0.3 0.7 0.6l1.1-1.4q-0.8-0.8-1.8-1.7z"/><path class="b" d="m55.7 51.6c-10.5-8.8-25.5-8-34.5 2.9q-0.4 0.5-0.7 0.9l1.3 0.9c8.1-8.8 23.7-10.8 33.9-2.2q0.4 0.3 0.7 0.6l1.1-1.4q-0.8-0.9-1.8-1.7z"/><path class="c" d="m55.3 52.2c-10.9-8.2-25.8-6.9-33.2 3q-0.3 0.4-0.7 0.9l1.4 0.8c8.1-10.1 22.8-10.8 33.6-2.1l0.9-1q-0.9-0.8-2-1.6z"/><path class="a" d="m22.3 56.6l0.5 0.3c8.1-10.1 22.8-10.8 33.6-2.1l0.3-0.4c-11.9-8.5-26.3-7.6-34.4 2.2z"/><path class="d" d="m46 49.6l-3.5-4.1c-4.2-0.7-8.4-0.1-12.4 1.8l2.4 2.7c4.2-1.6 9-1.7 13.5-0.4z"/><path class="a" d="m162.8 232.4c13.6-1.4 23.5-12.2 22-26.7q0-0.6-0.1-1.1l-1.6 0.3c0.7 11.9-8.8 24.5-22.1 25.8q-0.5 0-0.9 0l0.1 1.8q1.3 0 2.6-0.1z"/><path class="b" d="m162.2 232.2c13.6-1.3 23.6-12.5 22.1-26.6q-0.1-0.6-0.2-1.1l-1.6 0.3c0.7 11.9-8.8 24.5-22.1 25.7q-0.5 0.1-0.9 0.1l0.2 1.7q1.2 0 2.5-0.1z"/><path class="c" d="m162 231.6c13.6-2.1 23-13.6 21.2-25.8q-0.1-0.6-0.2-1.2l-1.6 0.5c1.5 12.8-8.3 23.8-22 25.4l0.1 1.3q1.3 0 2.5-0.2z"/><path class="a" d="m182 204.9l-0.6 0.2c1.5 12.8-8.3 23.8-22 25.4v0.5c14.5-2.5 23.9-13.4 22.6-26.1z"/><path class="d" d="m170.4 226.8l5.4 0.3c3.4-2.5 6-5.9 7.4-10l-3.6-0.3c-1.9 4.1-5.1 7.6-9.2 10z"/><path fill-rule="evenodd" class="a" d="m226.9 79.2c-8.4 7.9-21.8 7.3-30.1-1.4-8.3-8.7-8.3-22.1 0-30.1 8.4-7.9 21.8-7.3 30.1 1.4 8.3 8.7 8.3 22.1 0 30.1zm-5.5-0.8c8.4-5.1 11.1-16 5.9-24.4-5.1-8.5-16.1-11.1-24.5-6-8.3 5.1-11 16.1-5.9 24.5 5.2 8.4 16.1 11.1 24.5 5.9z"/><path fill-rule="evenodd" class="e" d="m226 78.6c-8 7.6-20.9 7-28.9-1.3-8-8.4-8-21.3 0-28.9 8-7.6 20.9-7 28.9 1.3 8 8.3 7.9 21.3 0 28.9zm-5-0.3c8.4-5.1 11-16 5.9-24.4-5.1-8.5-16.1-11.1-24.5-6-8.4 5.1-11 16.1-5.9 24.5 5.1 8.4 16.1 11.1 24.5 5.9z"/><path fill-rule="evenodd" class="f" d="m224.6 78.1c-8.2 7.1-20.8 6.1-28.2-2.3-7.3-8.4-6.6-21 1.6-28.2 8.2-7.1 20.8-6.1 28.1 2.3 7.4 8.4 6.7 21-1.5 28.2zm1.9-24.5c-5.2-8.4-16.1-11.1-24.5-6-8.4 5.1-11.1 16.1-5.9 24.5 5.1 8.4 16.1 11.1 24.4 6 8.4-5.1 11.1-16.1 6-24.5z"/><path fill-rule="evenodd" class="c" d="m221.4 79.3c-9.1 5.6-20.8 2.8-26.3-6.1-5.4-8.9-2.4-20.6 6.7-26.1 9.1-5.6 20.8-2.9 26.3 6.1 5.4 8.9 2.4 20.6-6.7 26.1zm5.4-25.4c-5.1-8.4-16.1-11.1-24.5-5.9-8.4 5.1-11 16-5.9 24.5 5.1 8.4 16.1 11 24.5 5.9 8.4-5.1 11-16 5.9-24.5z"/><path fill-rule="evenodd" class="g" d="m220.9 78.4c-8.4 5.1-19.4 2.5-24.5-5.9-5.1-8.5-2.5-19.4 5.9-24.5 8.4-5.2 19.4-2.5 24.5 5.9 5.1 8.5 2.5 19.4-5.9 24.5zm5.1-23.9c-4.9-8-15.2-10.5-23.2-5.7-7.9 4.8-10.4 15.2-5.5 23.1 4.8 8 15.1 10.5 23.1 5.7 7.9-4.8 10.4-15.2 5.6-23.1z"/><path fill-rule="evenodd" class="a" d="m218.1 95.7c-8.3 7.9-21.8 7.3-30.1-1.3-8.2-8.7-8.2-22.2 0.1-30.1 8.3-8 21.8-7.4 30 1.3 8.3 8.7 8.3 22.2 0 30.1zm-5.4-0.7c8.4-5.1 11-16.1 5.9-24.5-5.2-8.4-16.1-11.1-24.5-6-8.4 5.1-11 16.1-5.9 24.5 5.1 8.4 16.1 11.1 24.5 6z"/><path fill-rule="evenodd" class="e" d="m217.2 95.1c-8 7.7-20.9 7.1-28.9-1.3-7.9-8.3-7.9-21.3 0.1-28.9 7.9-7.6 20.9-7 28.8 1.3 8 8.4 8 21.3 0 28.9zm-5-0.2c8.4-5.1 11.1-16.1 5.9-24.5-5.1-8.4-16-11.1-24.4-6-8.4 5.1-11.1 16.1-6 24.5 5.2 8.4 16.1 11.1 24.5 6z"/><path fill-rule="evenodd" class="f" d="m215.8 94.6c-8.2 7.2-20.8 6.2-28.1-2.2-7.4-8.5-6.7-21.1 1.5-28.2 8.2-7.2 20.8-6.2 28.2 2.2 7.3 8.4 6.6 21-1.6 28.2zm1.9-24.5c-5.1-8.4-16.1-11.1-24.5-6-8.4 5.1-11 16.1-5.9 24.5 5.1 8.4 16.1 11.1 24.5 6 8.4-5.1 11-16.1 5.9-24.5z"/><path fill-rule="evenodd" class="c" d="m212.7 95.9c-9.1 5.5-20.9 2.8-26.3-6.1-5.5-9-2.5-20.7 6.6-26.2 9.1-5.6 20.9-2.8 26.3 6.1 5.5 8.9 2.5 20.6-6.6 26.2zm5.4-25.4c-5.2-8.4-16.1-11.1-24.5-6-8.4 5.1-11.1 16.1-5.9 24.5 5.1 8.4 16 11.1 24.4 6 8.4-5.2 11.1-16.1 6-24.5z"/><path fill-rule="evenodd" class="g" d="m212.1 95c-8.4 5.1-19.3 2.4-24.4-6-5.2-8.4-2.5-19.4 5.9-24.5 8.4-5.1 19.3-2.4 24.5 6 5.1 8.4 2.4 19.3-6 24.5zm5.1-24c-4.8-8-15.2-10.5-23.1-5.7-7.9 4.9-10.4 15.2-5.6 23.2 4.8 7.9 15.2 10.4 23.1 5.6 7.9-4.8 10.4-15.2 5.6-23.1z"/><path fill-rule="evenodd" class="a" d="m116 76.3c-8.3 7.9-21.8 7.3-30.1-1.4-8.2-8.7-8.2-22.1 0.1-30.1 8.3-7.9 21.8-7.3 30 1.4 8.3 8.7 8.3 22.1 0 30.1zm-5.4-0.8c8.4-5.1 11-16.1 5.9-24.5-5.2-8.4-16.1-11.1-24.5-5.9-8.4 5.1-11 16-5.9 24.4 5.1 8.5 16.1 11.1 24.5 6z"/><path fill-rule="evenodd" class="e" d="m115.1 75.7c-8 7.6-20.9 7-28.9-1.3-7.9-8.4-7.9-21.3 0.1-28.9 7.9-7.7 20.9-7.1 28.8 1.3 8 8.3 8 21.3 0 28.9zm-5-0.3c8.4-5.1 11.1-16 5.9-24.5-5.1-8.4-16-11.1-24.4-5.9-8.4 5.1-11.1 16-6 24.5 5.2 8.4 16.1 11 24.5 5.9z"/><path fill-rule="evenodd" class="f" d="m113.7 75.1c-8.2 7.2-20.8 6.2-28.1-2.2-7.4-8.4-6.7-21 1.5-28.2 8.2-7.2 20.8-6.2 28.2 2.2 7.3 8.4 6.6 21.1-1.6 28.2zm1.9-24.4c-5.1-8.4-16.1-11.1-24.5-6-8.4 5.1-11 16.1-5.9 24.5 5.1 8.4 16.1 11.1 24.5 6 8.4-5.2 11-16.1 5.9-24.5z"/><path fill-rule="evenodd" class="c" d="m110.6 76.4c-9.1 5.6-20.9 2.8-26.3-6.1-5.5-8.9-2.5-20.6 6.6-26.2 9.1-5.5 20.9-2.8 26.3 6.1 5.5 9 2.5 20.7-6.6 26.2zm5.3-25.4c-5.1-8.4-16-11.1-24.4-6-8.4 5.2-11.1 16.1-5.9 24.5 5.1 8.5 16 11.1 24.4 6 8.4-5.1 11.1-16.1 5.9-24.5z"/><path fill-rule="evenodd" class="g" d="m110 75.5c-8.4 5.1-19.3 2.5-24.4-6-5.2-8.4-2.5-19.3 5.9-24.5 8.4-5.1 19.3-2.4 24.4 6 5.2 8.4 2.5 19.4-5.9 24.5zm5.1-24c-4.8-7.9-15.2-10.4-23.1-5.6-7.9 4.8-10.4 15.2-5.6 23.1 4.8 8 15.2 10.5 23.1 5.7 7.9-4.9 10.4-15.2 5.6-23.2z"/><path fill-rule="evenodd" class="a" d="m122.8 101.5c-8.3 8-21.8 7.4-30.1-1.3-8.2-8.7-8.2-22.2 0.1-30.1 8.3-7.9 21.8-7.3 30.1 1.4 8.2 8.6 8.2 22.1-0.1 30zm-5.4-0.7c8.4-5.1 11-16.1 5.9-24.5-5.1-8.4-16.1-11.1-24.5-6-8.4 5.2-11 16.1-5.9 24.5 5.1 8.4 16.1 11.1 24.5 6z"/><path fill-rule="evenodd" class="e" d="m121.9 101c-8 7.6-20.9 7-28.9-1.3-7.9-8.4-7.9-21.3 0.1-29 8-7.6 20.9-7 28.8 1.4 8 8.3 8 21.3 0 28.9zm-5-0.3c8.4-5.1 11.1-16.1 5.9-24.5-5.1-8.4-16-11.1-24.4-6-8.4 5.2-11.1 16.1-5.9 24.5 5.1 8.4 16 11.1 24.4 6z"/><path fill-rule="evenodd" class="f" d="m120.5 100.4c-8.2 7.2-20.8 6.2-28.1-2.2-7.4-8.4-6.7-21 1.5-28.2 8.2-7.2 20.8-6.2 28.2 2.2 7.3 8.4 6.6 21.1-1.6 28.2zm1.9-24.5c-5.1-8.4-16.1-11-24.5-5.9-8.4 5.1-11 16-5.9 24.5 5.1 8.4 16.1 11.1 24.5 5.9 8.4-5.1 11-16 5.9-24.5z"/><path fill-rule="evenodd" class="c" d="m117.4 101.7c-9.1 5.5-20.9 2.8-26.3-6.1-5.4-8.9-2.5-20.6 6.6-26.2 9.1-5.5 20.9-2.8 26.3 6.1 5.5 8.9 2.5 20.7-6.6 26.2zm5.4-25.4c-5.2-8.4-16.1-11.1-24.5-6-8.4 5.1-11.1 16.1-5.9 24.5 5.1 8.4 16 11.1 24.4 6 8.4-5.1 11.1-16.1 6-24.5z"/><path fill-rule="evenodd" class="g" d="m116.8 100.8c-8.4 5.1-19.3 2.4-24.4-6-5.2-8.4-2.5-19.4 5.9-24.5 8.4-5.1 19.3-2.4 24.5 6 5.1 8.4 2.4 19.4-6 24.5zm5.1-24c-4.8-7.9-15.2-10.5-23.1-5.6-7.9 4.8-10.4 15.2-5.6 23.1 4.9 7.9 15.2 10.5 23.1 5.7 7.9-4.9 10.4-15.2 5.6-23.2z"/><path fill-rule="evenodd" class="a" d="m237.5 190.2c-8.3 7.9-21.7 7.3-30-1.4-8.3-8.6-8.3-22.1 0-30 8.3-8 21.8-7.4 30.1 1.3 8.3 8.7 8.3 22.2-0.1 30.1zm-5.4-0.7c8.4-5.1 11-16.1 5.9-24.5-5.1-8.4-16.1-11.1-24.5-6-8.4 5.1-11 16.1-5.9 24.5 5.1 8.4 16.1 11.1 24.5 6z"/><path fill-rule="evenodd" class="e" d="m237.4 189.6c-7.9 7.6-20.9 7-28.9-1.4-8-8.4-8.1-21.4-0.1-29.1 8-7.6 21-6.9 29 1.5 8 8.4 8 21.3 0 29zm-5-0.3c8.4-5.1 11.1-16.1 5.9-24.6-5.2-8.4-16.2-11.1-24.6-6-8.4 5.1-11 16.1-5.8 24.5 5.1 8.5 16.1 11.2 24.5 6.1z"/><path fill-rule="evenodd" class="f" d="m235.5 190.7c-8.7 6.6-21.4 4.6-28.3-4.5-7-9-5.7-21.8 3-28.4 8.6-6.6 21.3-4.6 28.3 4.4 7 9.1 5.6 21.8-3 28.5zm3.1-24.7c-4.7-8.9-15.6-12.4-24.4-7.9-8.7 4.5-11.9 15.4-7.2 24.3 4.7 8.9 15.7 12.5 24.4 8 8.7-4.6 12-15.5 7.2-24.4z"/><path fill-rule="evenodd" class="c" d="m233.6 190.9c-9.1 5.4-21.3 2.3-27.1-7.1-5.9-9.3-3.2-21.3 6-26.7 9.2-5.5 21.4-2.3 27.2 7 5.8 9.3 3.1 21.3-6.1 26.8zm4.8-26c-5.5-8.8-16.8-11.9-25.3-6.9-8.4 5.1-10.9 16.3-5.4 25.1 5.5 8.8 16.9 11.8 25.3 6.8 8.5-5 10.9-16.2 5.4-25z"/><path fill-rule="evenodd" class="g" d="m234.6 188.8c-7.9 5.9-19.5 4-25.9-4.2-6.3-8.2-5.1-19.6 2.8-25.5 8-5.8 19.5-3.9 25.9 4.3 6.4 8.2 5.1 19.6-2.8 25.4zm2-24.9c-6-7.7-16.9-9.5-24.4-3.9-7.5 5.5-8.7 16.3-2.7 24 6.1 7.7 17 9.5 24.5 4 7.5-5.5 8.6-16.3 2.6-24.1z"/><path fill-rule="evenodd" class="a" d="m89.7 193.1c-8.3 7.9-21.7 7.3-30-1.3-8.3-8.7-8.3-22.2 0-30.1 8.3-8 21.8-7.4 30.1 1.3 8.3 8.7 8.2 22.2-0.1 30.1zm-5.4-0.7c8.4-5.1 11-16.1 5.9-24.5-5.1-8.4-16.1-11.1-24.5-6-8.4 5.1-11 16.1-5.9 24.5 5.1 8.4 16.1 11.1 24.5 6z"/><path fill-rule="evenodd" class="e" d="m89.6 192.5c-7.9 7.6-20.9 7-28.9-1.4-8-8.4-8.1-21.4-0.1-29 8-7.7 21-7 29 1.4 8 8.4 8 21.4 0 29zm-5-0.3c8.4-5.1 11.1-16.1 5.9-24.5-5.2-8.5-16.2-11.2-24.6-6.1-8.4 5.1-11 16.1-5.8 24.5 5.1 8.5 16.1 11.2 24.5 6.1z"/><path fill-rule="evenodd" class="f" d="m87.7 193.6c-8.7 6.6-21.4 4.6-28.3-4.5-7-9-5.7-21.8 3-28.4 8.6-6.6 21.3-4.6 28.3 4.4 7 9.1 5.6 21.8-3 28.5zm3.1-24.7c-4.7-8.9-15.6-12.4-24.4-7.9-8.7 4.5-11.9 15.4-7.2 24.4 4.7 8.9 15.7 12.4 24.4 7.9 8.7-4.5 12-15.4 7.2-24.4z"/><path fill-rule="evenodd" class="c" d="m85.8 193.8c-9.2 5.4-21.3 2.3-27.2-7-5.8-9.4-3.1-21.4 6.1-26.8 9.2-5.5 21.4-2.3 27.2 7 5.8 9.4 3.1 21.3-6.1 26.8zm4.8-26c-5.5-8.8-16.8-11.9-25.3-6.9-8.5 5.1-10.9 16.3-5.4 25.1 5.5 8.8 16.9 11.9 25.3 6.8 8.5-5 10.9-16.2 5.4-25z"/><path fill-rule="evenodd" class="g" d="m86.8 191.7c-7.9 5.9-19.5 4-25.9-4.2-6.3-8.2-5.1-19.6 2.8-25.5 8-5.8 19.5-3.9 25.9 4.3 6.4 8.2 5.1 19.6-2.8 25.4zm2-24.8c-6-7.8-16.9-9.6-24.4-4-7.5 5.5-8.7 16.3-2.7 24 6.1 7.8 17 9.6 24.5 4 7.4-5.5 8.6-16.3 2.6-24z"/><path fill-rule="evenodd" class="a" d="m163.6 142.5c-8.3 8-21.7 7.4-30-1.3-8.3-8.7-8.3-22.2 0-30.1 8.3-7.9 21.8-7.3 30.1 1.4 8.3 8.6 8.3 22.1-0.1 30zm-5.4-0.7c8.4-5.1 11-16.1 5.9-24.5-5.1-8.4-16.1-11.1-24.5-6-8.4 5.2-11 16.1-5.9 24.5 5.1 8.5 16.1 11.1 24.5 6z"/><path fill-rule="evenodd" class="e" d="m163.5 141.9c-7.9 7.6-20.9 7-28.9-1.4-8-8.4-8.1-21.4-0.1-29 8-7.6 21-7 29 1.4 8 8.4 8 21.4 0 29zm-5-0.3c8.4-5.1 11.1-16.1 5.9-24.5-5.2-8.5-16.2-11.2-24.6-6.1-8.4 5.1-11 16.1-5.8 24.6 5.1 8.4 16.1 11.1 24.5 6z"/><path fill-rule="evenodd" class="f" d="m161.6 143c-8.7 6.6-21.4 4.7-28.3-4.4-7-9.1-5.7-21.8 3-28.4 8.6-6.7 21.3-4.7 28.3 4.4 7 9.1 5.6 21.8-3 28.4zm3.1-24.6c-4.7-8.9-15.6-12.5-24.4-8-8.7 4.6-11.9 15.5-7.2 24.4 4.7 8.9 15.7 12.4 24.4 7.9 8.7-4.5 12-15.4 7.2-24.3z"/><path fill-rule="evenodd" class="c" d="m159.7 143.2c-9.2 5.5-21.3 2.3-27.2-7-5.8-9.3-3.1-21.3 6.1-26.8 9.2-5.4 21.4-2.3 27.2 7.1 5.8 9.3 3.1 21.3-6.1 26.7zm4.8-26c-5.5-8.8-16.8-11.8-25.3-6.8-8.5 5-10.9 16.2-5.4 25 5.5 8.8 16.9 11.9 25.3 6.9 8.5-5.1 10.9-16.3 5.4-25.1z"/><path fill-rule="evenodd" class="g" d="m160.7 141.2c-7.9 5.8-19.5 3.9-25.9-4.3-6.3-8.1-5.1-19.6 2.8-25.4 8-5.9 19.5-4 25.9 4.2 6.4 8.2 5.1 19.6-2.8 25.5zm2-24.9c-6-7.7-16.9-9.5-24.4-4-7.5 5.5-8.7 16.3-2.7 24.1 6.1 7.7 17 9.5 24.5 3.9 7.4-5.5 8.6-16.3 2.6-24z"/><path fill-rule="evenodd" class="a" d="m37.2 165.9c-8.3 7.9-21.7 7.3-30-1.4-8.3-8.6-8.3-22.1 0-30.1 8.3-7.9 21.8-7.3 30.1 1.4 8.3 8.7 8.2 22.2-0.1 30.1zm-5.4-0.7c8.4-5.2 11-16.1 5.9-24.5-5.1-8.5-16.1-11.1-24.5-6-8.4 5.1-11 16.1-5.9 24.5 5.1 8.4 16.1 11.1 24.5 6z"/><path fill-rule="evenodd" class="e" d="m37.1 165.3c-8 7.6-20.9 6.9-28.9-1.5-8.1-8.4-8.1-21.3-0.1-29 8-7.6 21-7 29 1.4 8 8.4 8 21.4 0 29.1zm-5-0.3c8.4-5.1 11.1-16.1 5.9-24.6-5.2-8.4-16.2-11.2-24.6-6.1-8.4 5.2-11 16.1-5.8 24.6 5.1 8.5 16.1 11.2 24.5 6.1z"/><path fill-rule="evenodd" class="f" d="m35.1 166.3c-8.6 6.7-21.3 4.7-28.3-4.4-6.9-9.1-5.6-21.8 3.1-28.4 8.6-6.6 21.3-4.6 28.3 4.4 6.9 9.1 5.6 21.8-3.1 28.4zm3.2-24.6c-4.7-8.9-15.7-12.4-24.4-7.9-8.7 4.5-12 15.4-7.2 24.3 4.7 8.9 15.7 12.5 24.4 8 8.7-4.6 12-15.5 7.2-24.4z"/><path fill-rule="evenodd" class="c" d="m33.3 166.6c-9.2 5.4-21.3 2.3-27.2-7.1-5.8-9.3-3.1-21.3 6.1-26.7 9.2-5.5 21.4-2.3 27.2 7 5.8 9.3 3.1 21.3-6.1 26.8zm4.8-26c-5.5-8.8-16.8-11.9-25.3-6.9-8.5 5-10.9 16.3-5.4 25.1 5.5 8.8 16.9 11.8 25.3 6.8 8.5-5 10.9-16.2 5.4-25z"/><path fill-rule="evenodd" class="g" d="m34.3 164.5c-7.9 5.9-19.5 4-25.9-4.2-6.3-8.2-5.1-19.6 2.8-25.5 8-5.8 19.5-4 25.9 4.2 6.4 8.2 5.1 19.6-2.8 25.5zm2-24.9c-6-7.7-16.9-9.5-24.4-4-7.5 5.6-8.7 16.4-2.7 24.1 6 7.7 17 9.5 24.5 4 7.4-5.6 8.6-16.3 2.6-24.1z"/><path fill-rule="evenodd" class="a" d="m134.5 243.7c-8.3 7.9-21.8 7.3-30.1-1.4-8.3-8.7-8.3-22.1 0.1-30.1 8.3-7.9 21.7-7.3 30 1.4 8.3 8.7 8.3 22.1 0 30.1zm-5.5-0.8c8.4-5.1 11.1-16 5.9-24.4-5.1-8.5-16-11.1-24.4-6-8.4 5.1-11.1 16.1-6 24.5 5.2 8.4 16.1 11.1 24.5 5.9z"/><path fill-rule="evenodd" class="e" d="m134.4 243c-8 7.7-21 7-29-1.4-8-8.4-8-21.4-0.1-29 8-7.6 21-7 29 1.4 8 8.4 8.1 21.4 0.1 29zm-5-0.2c8.4-5.1 11-16.1 5.8-24.6-5.1-8.4-16.1-11.2-24.5-6.1-8.5 5.1-11.1 16.1-5.9 24.6 5.2 8.5 16.2 11.2 24.6 6.1z"/><path fill-rule="evenodd" class="f" d="m132.4 244.1c-8.7 6.7-21.3 4.7-28.3-4.4-7-9.1-5.7-21.8 3-28.4 8.6-6.6 21.3-4.7 28.3 4.4 7 9.1 5.6 21.8-3 28.4zm3.2-24.6c-4.8-8.9-15.7-12.5-24.5-7.9-8.7 4.5-11.9 15.4-7.2 24.3 4.8 8.9 15.7 12.5 24.4 7.9 8.8-4.5 12-15.4 7.3-24.3z"/><path fill-rule="evenodd" class="c" d="m130.6 244.4c-9.2 5.4-21.4 2.3-27.2-7.1-5.8-9.3-3.1-21.3 6.1-26.7 9.1-5.5 21.3-2.3 27.1 7 5.9 9.3 3.1 21.3-6 26.8zm4.8-26c-5.5-8.9-16.9-11.9-25.3-6.9-8.5 5-10.9 16.3-5.4 25.1 5.5 8.8 16.8 11.8 25.3 6.8 8.4-5 10.9-16.2 5.4-25z"/><path fill-rule="evenodd" class="g" d="m131.5 242.3c-7.9 5.9-19.5 4-25.8-4.2-6.4-8.2-5.1-19.6 2.8-25.5 7.9-5.9 19.5-4 25.8 4.2 6.4 8.2 5.2 19.6-2.8 25.5zm2-24.9c-6-7.7-16.9-9.5-24.4-4-7.5 5.6-8.6 16.3-2.6 24.1 6 7.7 16.9 9.5 24.4 4 7.5-5.6 8.7-16.3 2.6-24.1z"/><path fill-rule="evenodd" class="a" d="m50.8 108.5c-8.3 8-21.7 7.3-30-1.3-8.3-8.7-8.3-22.2 0-30.1 8.3-8 21.8-7.4 30.1 1.3 8.3 8.7 8.3 22.2-0.1 30.1zm-5.4-0.7c8.4-5.1 11-16.1 5.9-24.5-5.1-8.4-16.1-11.1-24.5-6-8.4 5.1-11 16.1-5.9 24.5 5.1 8.4 16.1 11.1 24.5 6z"/><path fill-rule="evenodd" class="e" d="m50.7 107.9c-7.9 7.6-20.9 7-28.9-1.4-8-8.4-8.1-21.4-0.1-29 8-7.7 21-7 29 1.4 8 8.4 8 21.4 0 29zm-5-0.3c8.4-5.1 11.1-16.1 5.9-24.5-5.2-8.5-16.2-11.2-24.6-6.1-8.4 5.1-11 16.1-5.8 24.5 5.1 8.5 16.1 11.2 24.5 6.1z"/><path fill-rule="evenodd" class="f" d="m48.8 109c-8.7 6.6-21.4 4.6-28.3-4.5-7-9-5.7-21.8 3-28.4 8.6-6.6 21.3-4.6 28.3 4.4 7 9.1 5.6 21.8-3 28.5zm3.1-24.7c-4.7-8.9-15.6-12.4-24.4-7.9-8.7 4.5-11.9 15.4-7.2 24.4 4.7 8.9 15.7 12.4 24.4 7.9 8.7-4.5 12-15.4 7.2-24.4z"/><path fill-rule="evenodd" class="c" d="m46.9 109.2c-9.2 5.4-21.3 2.3-27.2-7-5.8-9.4-3.1-21.4 6.1-26.8 9.2-5.5 21.4-2.3 27.2 7 5.8 9.4 3.1 21.3-6.1 26.8zm4.8-26c-5.5-8.8-16.8-11.9-25.3-6.9-8.5 5.1-10.9 16.3-5.4 25.1 5.5 8.8 16.9 11.9 25.3 6.8 8.5-5 10.9-16.2 5.4-25z"/><path fill-rule="evenodd" class="g" d="m47.9 107.1c-7.9 5.9-19.5 4-25.9-4.2-6.3-8.2-5.1-19.6 2.8-25.5 8-5.8 19.5-3.9 25.9 4.3 6.4 8.2 5.1 19.6-2.8 25.4zm2-24.8c-6-7.8-16.9-9.6-24.4-4-7.5 5.5-8.7 16.3-2.7 24 6.1 7.8 17 9.6 24.5 4 7.4-5.5 8.6-16.3 2.6-24z"/></svg>