<svg version="1.2" xmlns="http://www.w3.org/2000/svg" viewBox="0 0 1024 1308" width="1024" height="1308"><style>.a{fill:#e7c09a}.b{fill:#b68a4f}.c{mix-blend-mode:multiply;fill:#e7c09a}.d{mix-blend-mode:screen;fill:#e7c09a}</style><path fill-rule="evenodd" class="a" d="m363.3 996.9c-20.8 19.4-48.5 53.4-64 106.3 0 0-23.9 74.9-21.9 111.7 2 36.7-24.9 110.1-109.9 83.9l-17.5-7.9-23.3-10.6-17.5-8c-75.6-46.8-38-115.3-9-138 29.1-22.6 69.8-89.9 69.8-89.9 32.5-50.9 38.3-97.9 38.2-125.9-188.4-139.7-260.7-395.8-160-617.3 115.9-255 417.2-367.4 673-251.1 255.7 116.3 369.1 417.2 253.2 672.2-106.7 234.6-370.4 348.5-611.1 274.6zm-147.9 233.9c9.1-20.2 0.2-44-20.1-53.2-20.2-9.3-44.1-0.4-53.3 19.8-9.2 20.2-0.2 44.1 20.1 53.3 20.2 9.2 44.1 0.3 53.3-19.9z"/><path fill-rule="evenodd" class="b" d="m201.2 1307c-10.7 0-22.3-1.9-34.4-5.7q-0.2 0-0.4-0.1l-58.3-26.5q-0.1-0.1-0.2-0.2c-28.9-17.8-44.2-40.2-45.6-66.4-1.7-31.3 17.7-61.2 36.3-75.8 28.4-22.1 68.8-88.6 69.2-89.3 31.1-48.7 37.7-93.6 37.8-123.1-91.9-68.6-158.8-167.5-188.4-278.7-30.1-113.2-19.9-234.4 28.6-341.1 41.2-90.8 107.5-166.7 191.5-219.6 82-51.6 176.4-78.9 273.1-78.9 73.3 0 144.6 15.5 211.9 46.1 124.3 56.5 219.2 157.9 267.3 285.6 48.1 127.6 43.5 266.1-12.9 390.1-41.2 90.7-107.5 166.7-191.5 219.6-81.9 51.6-176.3 78.9-273 78.9q-0.1 0 0 0c-50.3 0-100.1-7.4-148.2-22.1-20.3 19.2-47.1 52.6-62.2 104.1-0.2 0.8-23.8 75-21.8 110.8 1.1 20.4-6.2 49.9-25.1 69.9-14.1 14.8-32.1 22.4-53.7 22.4zm-32.7-10.6c11.6 3.5 22.6 5.3 32.7 5.3 20.1 0 36.9-6.9 49.9-20.7 17.8-18.9 24.8-46.7 23.7-66-2-36.8 21-109.5 22-112.6 15.8-53.5 43.9-88 64.7-107.4 0.7-0.6 1.7-0.9 2.6-0.6 48 14.8 97.8 22.3 148 22.3q0.1 0 0.1 0c95.7 0 189.1-27 270.2-78.1 83.2-52.4 148.7-127.6 189.6-217.4 55.8-122.7 60.3-259.8 12.7-386.1-47.6-126.3-141.5-226.7-264.6-282.7-66.6-30.2-137.2-45.6-209.7-45.6-95.7 0-189.2 27-270.3 78.1-83.2 52.4-148.7 127.5-189.6 217.4-48 105.6-58 225.5-28.2 337.6 29.4 110.5 95.9 208.7 187.4 276.5 0.7 0.5 1.1 1.3 1.1 2.1 0.1 30.2-6.4 76.8-38.6 127.3-1.6 2.7-41.3 67.9-70.4 90.6-17.6 13.8-35.9 42-34.3 71.4 1.3 24.4 15.8 45.3 43 62.2zm10.3-39.5c-6.2 0-12.2-1.3-17.8-3.8-10.4-4.8-18.4-13.3-22.4-24-4.1-10.7-3.7-22.3 1.1-32.7 6.9-15.2 22.2-25.1 38.9-25.1 6.2 0 12.2 1.3 17.8 3.9 10.4 4.8 18.4 13.3 22.4 24 4.1 10.7 3.7 22.3-1.1 32.7-6.9 15.2-22.2 25-38.9 25zm-0.2-80.3c-14.7 0-28.1 8.6-34.2 21.9-4.2 9.2-4.5 19.4-1 28.8 3.6 9.4 10.6 16.9 19.7 21 5 2.3 10.3 3.4 15.7 3.4 14.7 0 28.1-8.6 34.2-22 4.1-9.1 4.5-19.3 0.9-28.7-3.5-9.4-10.5-16.9-19.7-21-4.9-2.3-10.2-3.4-15.6-3.4z"/><g style="opacity:.3;mix-blend-mode:multiply"><path class="c" d="m145.5 1125.7c1.6-4.4 4.2-10.4 3-15.1-1.5-6-10.5-4.5-14.8-3.3q-5.3 1.5-10.5 3.6c-7.8 9.4-15.7 17.8-23 23.4-7 5.5-14.6 13.8-20.9 23.8 10.4-6.9 21.7-11.5 34.9-11.1 0.9 0 1.5 0.8 1.3 1.6-6.1 25.9-22.1 50.1-37.7 71.3q-3.8 5.1-7.8 10.3c1.9 4.4 4.3 8.7 7.2 13 14.5-21.5 28.4-43.5 41.5-65.7 9.9-16.6 20.2-33.7 26.8-51.8z"/><path class="c" d="m109.2 1272.3l10.3 4.7c7.7-15.5 14.9-31.2 22.4-46.7-4.5-10.1-4.8-22 0.1-32.9 5.7-12.5 17.1-20.7 29.7-22.9 16.4-29 32.8-58 48.1-87.6 6.7-13.1 13.5-25.8 20.7-38.6 7.1-12.4 14.7-25.3 18.5-39.2 2.7-10.1 2.4-30.9-12.6-30.3-13.1 0.5-25.6 9.2-36.7 15.3q-9.6 5.2-19 10.7c-5.3 12.7-12 26-20.7 39.6 0 0-1.8 3.1-5 8.1 2.6-1.2 5.2-2.4 7.8-3.4 5.9-2.2 13-4.6 19.4-3.1 12.4 2.7 10 16.5 6.9 25.5-6.5 19.1-17.5 36.9-28.1 54-12.1 19.5-25 38.4-37.9 57.4-7.7 11.1-15.4 22.2-21.8 34.1-7.3 13.5-14.3 27.1-21.5 40.6 5.4 5.1 11.8 10 19.4 14.7z"/><path class="c" d="m259.8 927.7c11.9-2.9 27.9-4.9 37.2 5 13.6 14.3 7.7 40.2 4.1 57-15 72.3-58.2 134.4-91.2 199.2 7 8.5 10.2 19.7 8.7 30.8 15.9-40.9 32.7-81.4 49.1-121.9 15.9-39.2 31.9-78.3 47.4-117.7 10.1-25.6 20.8-51.2 28.5-77.7 1.7-5.9 3.2-11.9 4.2-17.9 1.5-8.8 4.3-25.2-4.8-31.3-7.1-4.8-17-2.3-24.5 0.2-11.4 3.7-22.2 9.1-32.8 14.6-13.7 7.2-27.3 14.4-40.1 23.1-13 8.9-25.3 18.6-37.4 28.6 0 8.7-0.6 19.2-2.4 31 17-9.4 35-18.5 54-23z"/><path class="c" d="m187.7 1303.3c7.7-22.3 15.8-44.4 24.2-66.5-7.3 10.8-19.4 17.1-32 17.4-5.9 14.1-11.6 28.2-17.2 42.4l4.8 2.2c7.2 2.2 13.9 3.7 20.2 4.5z"/><path class="c" d="m298.3 1106.3c-19.8 43.5-38.8 87.3-56.4 131.8q-12.6 32.1-24.4 64.6c45.9-9.7 61.5-59.6 59.9-87.8-1.8-32.3 16.5-94.1 20.9-108.6z"/><path class="c" d="m149.2 154.7c-5 35-16.3 68.8-35.6 99.7-18.4 29.5-40 56.8-62.7 83.1-8.6 10-17.6 19.3-27 28.5-6.4 21.3-11.3 42.7-14.7 64.2 7.5-8.9 14.7-18 22.2-26.9 25.7-30.4 52-60.7 73.9-94 35-53.4 60.2-113.9 67.8-177.2-8.2 7.2-16.2 14.8-23.9 22.6z"/><path class="c" d="m207.4 104.2q-0.3 4.3-0.6 8.6c-1.5 24.6-3.4 49-8.4 73.2-15.7 75.5-49.6 147.6-95.4 209.5-29.8 40.3-63.7 77.5-100.2 112-0.1 14.6 0.5 29.1 1.6 43.6 45-48.1 92.4-94 134-145.2 23.3-28.7 45.2-59 62.7-91.7 19-35.7 33-73.5 46.1-111.7 11.6-34.1 22.2-68.2 31.9-102.9 4.4-15.6 9-31.5 14.6-46.8-30.3 14.2-59.2 31.4-86.3 51.4z"/><path class="c" d="m340.9 33.4c-8.5 27.1-18.6 53.9-24.8 81.3-13.1 57.9-30.2 115.3-54.3 169.7-15.6 35.2-33.6 69.4-51.9 103.3-18.4 34-37.8 67.5-58.4 100.3-37.7 59.9-79.2 117.6-126.6 170.2 4.5 14.7 9.6 29.2 15.4 43.4 7.1-10.8 14.5-21.5 21.7-32 24.8-36.8 50.6-72.9 76.4-108.9 25.6-35.5 51.3-70.9 76.7-106.6 15.8-22.3 33-44.6 46.2-68.6 17.7-32.2 30.7-67.6 43.6-101.8 7.1-19 14-38.1 20.8-57.2 6.5-18 13.5-35.9 19.1-54.2 15.2-50 23.2-102.9 40.6-152.4-15 3.8-29.9 8.3-44.5 13.5z"/><path class="c" d="m502.4 4.4c-4.3 10.5-9.1 20.7-13.9 30.3-13.7 27.9-29.9 56.9-52 79.2-0.8 0.8-2.3 0.3-2.2-0.9 1.6-36.2 11.6-71.1 21.9-105.8q-10.5 1.2-21 2.7c-4.5 14.2-8 28.8-11.2 43.2-7 32.1-11.7 64.5-18.6 96.6-4.9 22.6-13.8 44.2-19.8 66.6-3.6 13.2-6.9 26.6-8.2 40.2-0.8 9.2-1.2 19.5 3 28.1 20.2-18.6 33.9-43.4 45.5-68 12.4-26.5 22.5-54 33.2-81.3 12.3-31.4 27.1-61.7 40.8-92.5q8.5-19.1 16.7-38.4-7.2-0.1-14.2 0z"/><path class="c" d="m519.4 4.4c-5.6 13.3-11.4 26.6-17.2 39.7-14.1 31.7-29.3 62.8-41.8 95.1-10.8 27.6-21 55.5-33.9 82.2-11.7 24.1-25.4 48.2-45.6 66.2-0.6 0.6-1.6 0.5-2-0.2-0.7-1.2-1.4-2.5-1.9-3.8-3.5-9.5-3-20.1-1.9-30 1.6-12.8 4.5-25.5 7.9-38 6.3-22.9 15.4-45.2 20.3-68.4 6.9-32.8 11.7-66.1 19.1-98.8 2.9-12.7 6.1-25.5 10-38.1-0.9 0.2-1.8 0.3-2.8 0.4q-4.4 13.7-8.6 27.5c-21.8 72.8-37.9 147.3-59.2 220.2-10.6 36.2-22.3 72.1-36.9 106.9-14.5 34.6-31.8 68-50.8 100.3-38.4 65.2-83.9 126.3-134.9 182.2-20 21.8-38.5 44.9-59.6 65.5-7.5 7.4-15.6 15-24.3 21.8 6.5 13.1 13.4 25.8 21 38.3 5.8-6.7 11.6-13.4 17.6-19.9 23.9-25.8 47.5-51.3 73.5-75.1 14.6-13.5 29.6-26.7 44.8-39.6 14.8-12.7 30.2-24.7 44.5-38 54.2-50.3 92.5-114.7 123.6-181.2 36-77.1 66.7-156.5 97.4-235.7 23.5-60.6 53.1-118.4 80.2-177.4-12.9-1.2-25.7-1.9-38.5-2.1z"/><path class="c" d="m593.2 98.6c9.2-5.6 16.8-15.2 23.5-23.2 11.6-13.8 22.1-28.6 31.7-43.8q2.1-3.5 4.2-7-17.9-5.2-35.8-9c-10.1 27.2-23.8 53.6-23.6 83z"/><path class="c" d="m674 31.4c-8.8 17.8-19.6 34.6-30.4 51.2-14.9 22.7-27.8 46.6-41 70.4-16 28.6-32.9 57.8-56.7 80.8-0.7 0.7-1.8 0.3-2.2-0.6-8.1-22-0.7-47.6 6.3-69 7.4-22.8 15.3-45.3 21.9-68.5 7.9-27.6 15.8-56.5 27-83.7q-7.2-1.3-14.5-2.3c-11.7 34.5-22.3 69.4-32.6 104.3-22 74.7-43 150-72 222.3-14.2 35.3-30 70-49 103-18.6 32.5-39.1 63.9-61.3 94.1-76.6 104.5-170.2 194.3-264.4 282.7q10.7 14.2 22.4 27.8 3.4-3.9 6.7-7.8c32-37.3 72.8-64.2 113.5-91.2 31.6-20.9 62.3-42.8 89.4-69.4 26.5-26.1 50.2-55 72.1-85.1 45-61.8 85.3-126.6 117.6-195.9 33.7-72.1 61.9-146.5 100.4-216.3 19.3-35.1 38.8-70 55.9-106.4 4.9-10.5 9.2-21.3 13.3-32.2-7.4-3-14.9-5.6-22.4-8.2z"/><path class="c" d="m754.7 170.7c-8.1 20.5-16 41.1-21.9 62.4-5.2 18.7-9.9 38.7-7.8 58.3 17.2-11.2 28.2-31.4 37-49.3 10-20.3 17.9-41.5 26.3-62.6 8.8-22.2 19.8-43.4 29.9-65q1.2-2.4 2.3-4.8-14-10.8-28.9-20.6-2.5 5-5 10c-11.7 23.5-22.2 47.2-31.9 71.6z"/><path class="c" d="m704 948.3c3.7-12.2 8.3-24.3 11.7-36.6q7.9-28.8 15.6-57.7c20.6-76.9 39.1-154.5 60.9-231.1 23.3-82 48.4-163.5 71.3-245.7 11.3-40.7 23.2-81.1 36.5-121.2 5.5-16.6 11-33.3 16.3-50q-5.6-7.4-11.5-14.6c-3.2 8.3-6.4 16.6-9.5 24.9-13 35.4-23.4 71.9-34.6 107.9-25.4 81-53 160.9-81.5 240.7-28.2 78.8-56.4 157.7-78.8 238.4-18 65.2-44.6 129.2-50.5 196.8 15.2-4.3 30.2-9.3 44.9-14.9 2.2-12.5 5.5-24.8 9.2-36.9z"/><path class="c" d="m885.9 802.3c27.8-80.3 58.2-159.4 90.9-237.8 13.6-32.7 27.3-65.2 40.8-97.9-2.8-29.4-8.1-58.4-15.8-86.8-6.3 15.5-12.8 30.8-18.9 46.2-20 50.4-37.5 101.7-54.4 153.1-13 39.4-25.3 79.1-38.9 118.3-13.3 38-28.7 75.2-45.3 111.9-16.5 36.6-33.9 72.8-50.7 109.3-3.4 7.4-6.8 14.7-10 22.2 26.9-16.9 52.2-36.5 75.7-58.4 7.8-27 17.4-53.5 26.6-80.1z"/><path class="c" d="m922.9 808.9c10.3-27.8 21.1-55.5 32.3-83 18.9-46 38.7-91.6 58.8-137.1q3.4-22.2 4.7-44.4c-25.4 54.7-49.1 110.1-73.8 165.1-15 33.5-30.2 67.1-43.1 101.5-5.3 14.1-10.1 28.3-14.2 42.8q18.1-19.8 34.1-41.6 0.6-1.7 1.2-3.3z"/><path class="c" d="m617.8 983.1c4.6-16.9 7.4-34.1 10.5-51.3 7.6-41.9 14.5-84 25.1-125.2 21-81.9 48-162 70.5-243.4 22.5-81.6 41.5-164.1 65.5-245.3 17.9-60.8 43.3-118.3 69.3-175.8q-9.4-8.8-19.3-17.2c-9.3 27.2-18.5 54.6-28.9 81.5-14.8 38.3-31.5 75.8-47.5 113.6-33.1 78.4-61.7 158.6-93 237.7-29.7 75-57.7 150.2-78.2 228.4-19.9 75.9-33.8 153.3-39.6 231.6 19.6-1.6 39.1-4.3 58.4-8.2 2.2-8.8 4.8-17.6 7.2-26.4z"/><path class="c" d="m558.6 543.3c-1.1-5.2-2.5-10.5-4.9-15.3-0.9-1.9-1.9-3.8-3.2-5.5-2.3-3.4-1.8-3.3-4.6-0.5-10.1 10.4-18.6 22.3-25.7 34.9-15.1 27.3-24.8 57.4-31.7 87.7-6.5 28.7-10.8 57.9-13.2 87.3-3.3 40.3-9.2 80.4-17.4 120-4.2 20.2-8.8 40.3-14 60.3-3.8 14.6-9.2 28.7-14.5 42.9-5.5 15.1-11.2 30.2-15.3 45.7q-1.2 4.2-2.2 8.4 10.5 2.2 21.1 3.8c4.3-20.7 11.7-40.7 20.5-59.9 0.6-1.3 2.4-0.5 2.5 0.6 2 20.7 0.8 41.8 1.7 62.6q12 1.3 23.9 2c6.4-53.9 15.4-107.5 24.9-160.9 5.7-32.5 11.6-65.1 17.2-97.7 3.6-21.4 7-42.5 12.5-63.4 6.5-25.2 13.3-50.4 18.1-75.9 4.7-24.8 9.3-52 4.3-77.1z"/><path class="c" d="m724.4 51.6c-2.9 5.2-5.6 10.5-8 15.9-18.5 40.4-32.9 82.4-48.3 123.9-27.6 73.9-54.1 148.3-87.3 219.8-32.2 69.3-70.2 136.9-121.9 193.7-49.8 54.8-108.4 100.3-166 146.5-47.4 38-99 74.5-137.1 122.4q4.6 4.5 9.3 9c6.7-4 13.4-8.1 20-12.3 36.3-22.5 72.1-46.1 109.3-67.1 17.1-9.6 34.4-18.8 52.4-26.4 13.9-5.9 28.6-11.4 43.7-12.7 10.1-0.9 21.5 0.1 29.2 7.5 12.4 11.8 11.6 32.4 8.7 47.8-5.6 29.6-19.9 56.9-33.6 83.5-17.6 33.8-32.9 69-49.5 103.3q-6.1 12.7-12.2 25.5c10.3-14.8 20.9-26.4 30.2-35q12.3 3.8 24.6 6.9c5.8-21.8 12.5-43.2 20.3-64.3 0.5-1.2 2.2-1.4 2.6 0 5.6 22.9-0.7 45.8-3.6 68.7q0.9 0.2 1.8 0.4c2.8-11.8 6.9-23.3 10.7-34.2 9.3-26.5 19.2-52.2 25.9-79.6 10-41.1 18.1-82.9 23.2-124.9 3.8-31.2 5.6-62.5 10.8-93.4 9.4-55.8 25.4-119.4 67.9-159.7 0.5-0.4 1.4-0.5 1.9 0 10.9 12.4 13.4 30.2 13.6 46.2 0.3 22.2-3.3 44.5-7.8 66.2-5.1 24.9-11.8 49.4-18.1 74-8.2 31.9-12.1 64.8-17.9 97.2-12.8 72.5-26.4 144.9-35 218.1q17.8 0.9 35.6 0.7c2.6-31.2 4-62.6 7.5-93.5 9.5-83.4 25.6-165.9 45.7-247.3 20.2-82.3 43-163.8 68.1-244.8 23.8-76.7 50.5-152.6 74.6-229.2 14.1-44.6 27.5-90.4 46.4-133.4-12.2-6.9-24.8-13.4-37.7-19.4z"/></g><path class="d" d="m194.5 886.7c-12-9.7-22.3-22.8-33-34-11.8-12.5-23.2-25.4-34-38.8-20.7-25.6-37.9-53.3-53.4-82.2-17.5-32.4-28.5-67-38.6-102.1-5-17.1-10.3-34-13.5-51.5-3.3-18.4-4.4-37.2-7.1-55.8-0.5-3.1-4.8 0.9-4.6 3 1.6 17.5 2.4 35 4.5 52.5 2.3 19.3 8.2 37.9 13.3 56.6 9.5 34.5 20.2 68 36.5 100 15.6 30.7 34.1 59.6 55.6 86.4 10.3 12.7 21.2 24.8 32.5 36.6 11 11.5 23.5 27.2 37.6 34.8 2.5 1.4 6.5-3.6 4.2-5.5z"/><path class="d" d="m167.6 1068.2c-14.1 19-28 38.3-43.2 56.4-13.5 16-30.7 28.4-42.2 46.1-21.3 32.5-0.2 69.7 26.6 91.3 2 1.5 5.5-2.9 4.2-4.7-9.7-12.4-19.6-24.8-26.5-39-11.6-23.9-1.8-44 15.4-61.7 11.4-11.9 23.1-22.8 33.3-35.7 12.7-16.2 23.6-33.6 35.1-50.7 1.8-2.7-0.7-4.7-2.7-2z"/><path class="d" d="m267.3 1214.5c-4.1 14.1-7.7 28.3-14.4 41.5-7.5 14.8-19.9 23.3-34 31.2-2.3 1.2-4 6.8 0.1 5.7 34.6-9.3 49-47.6 53.2-79.6 0.5-3.8-4.3-0.7-4.9 1.2z"/><path class="d" d="m1004.9 516.7c-1-39.1-5.5-78.2-13.5-116.5-15.8-75.5-52.5-144.6-97.5-206.5-1.5-2.1-4.9 1.8-3.8 3.5 38.4 62 74.5 127.2 91.3 198.6 18 76 23.1 158.6 6.1 235-0.9 4.1 3.6 1.9 4.4-0.5 12.9-36.3 13.9-75.4 13-113.6z"/></svg>