<svg version="1.2" xmlns="http://www.w3.org/2000/svg" viewBox="0 0 236 238" width="236" height="238"><style>.a{fill:#aa2f22}.b{fill:#d13f30}.c{fill:#ed4432}.d{fill:#ff5548}.e{fill:#ffa07b}.f{fill:#8e2116}.g{fill:#bc3122}.h{fill:#b22d1b}.i{fill:#ff7d5f}.j{fill:#ed5743}.k{fill:#ff8c64}.l{fill:#ffc1a9}.m{fill:#ffc28f}.n{opacity:.2;mix-blend-mode:multiply;fill:#aa2f22}.o{fill:#ce3925}.p{fill:#ef5c48}.q{fill:#db4b33}.r{fill:#a5271b}.s{fill:#ba3022}</style><path class="a" d="m169.2 212.6c-1.1-13-13-22.8-26.6-21.9-13.7 1-23.8 12.2-22.7 25.2 1.8 21.5 23.6 26.8 38.8 16 6.1-4.4 11.4-9.6 10.5-19.3z"/><path class="b" d="m142.6 190.7c-13.7 1-23.8 12.2-22.7 25.2 0.2 3.2 0.9 6 2 8.5 4 1.8 8.6 2.8 13.4 2.8 16.2 0 29.4-11.3 30.2-25.4-4.8-7.2-13.4-11.7-22.9-11.1z"/><path class="c" d="m168.3 212.6c-1-12.5-12.5-21.9-25.7-21-13.1 0.9-22.9 11.7-21.8 24.3 1.7 20.6 22.7 25.8 37.4 15.3 5.9-4.2 10.9-9.2 10.1-18.6z"/><path class="d" d="m167.3 211.4c-1.7-12-13.2-20.4-25.8-18.8-12.5 1.6-21.3 12.5-19.7 24.5 2.8 19.7 23.2 23.5 36.8 12.7 5.4-4.4 10-9.5 8.7-18.4z"/><path class="e" d="m143.3 193.4c-17.1-0.8-22.4 21.5-19.7 24 2.7 2.5 18.7-1.4 19.1-4.2 0.4-2.7 4.1-19.7 0.6-19.8z"/><path class="e" d="m125.1 224c-0.3 2 9 18.7 32.1 6.8 3-1.5-10.4-12.9-12.7-14.2-2.2-1.2-19 4.3-19.4 7.4z"/><path class="e" d="m162.2 225.3c3.8-1.2 10.6-23.8-10.5-30.5-2.9-1-5.2 16.8-4.9 19.1 0.2 2.4 12.7 12.3 15.4 11.4z"/><path class="e" d="m161.8 213c-0.8-9.1-9.1-15.9-18.6-15.3-9.6 0.7-16.7 8.5-15.9 17.6 1.3 15 16.5 18.7 27.1 11.1 4.3-3 8-6.7 7.4-13.4z"/><path class="f" d="m125.6 224c-0.3 2 8.7 18.2 31.1 6.6 2.9-1.4-10.1-12.5-12.3-13.7-2.1-1.1-18.3 4.2-18.8 7.1z"/><path class="g" d="m126.2 223.9c-0.2 1.8 8.4 17 29.9 6.2 2.7-1.4-9.7-11.8-11.8-12.9-2.1-1.1-17.6 3.9-18.1 6.7z"/><path class="h" d="m148.3 220.2q0.3 1.2 0.3 2.6c0 5.3-3.9 9.7-9.3 11 4.4 0.5 9.9-0.3 16.8-3.7 1.9-1-3.6-6.4-7.8-9.9z"/><path class="f" d="m161.9 224.6c3.6-1.2 10.1-22.7-10-29.1-2.8-0.9-4.9 16-4.7 18.3 0.3 2.2 12.1 11.6 14.7 10.8z"/><path class="h" d="m161.5 224.1c3.4-1.1 9.3-21.9-9.8-28.1-2.6-0.8-4.4 15.5-4.2 17.6 0.3 2.2 11.7 11.3 14 10.5z"/><path class="f" d="m143.1 194.1c-16.5-0.7-21.7 20.6-19.1 23 2.6 2.3 18-1.4 18.4-4.1 0.4-2.6 4-18.8 0.7-18.9z"/><path class="h" d="m143 194.5c-15.9-0.6-20.9 19.9-18.3 22.1 2.5 2.3 17.3-1.3 17.6-3.8 0.4-2.6 3.9-18.2 0.7-18.3z"/><path class="i" d="m146.8 212c0.6-1.2 1 0.7 1.8-0.1 0.9-0.9 0.1-5.7 2.8-6.2 2.7-0.6 6.9 12 3.4 12.4-3.5 0.5-4.4-3.8-5.3-3.8-1.7-0.2-1.2 2.5-1.8 1.1-0.7-1.3-1.3-2.8-0.9-3.4z"/><path class="i" d="m146.1 217.6c0.9 1-0.9 0.1-0.5 1.1 0.4 1.1 4.9 2 4.1 4.6-0.8 2.5-14.2 1-13-2.2 1.3-3.3 5.6-2.3 6.1-3.1 0.9-1.4-1.2-1.7 0.3-1.7 1.6 0 1.4-0.4 3 1.3z"/><path class="i" d="m140 214.8c-1.3 0.4 0.6-1.3-0.5-1.4-1.1-0.2-4.1 3.6-5.9 1.5-1.6-2 5.7-11.6 7.7-9.6 2.1 2.2-0.5 5.2 0 6 0.8 1.4 1.8-0.8 1.2 0.5-0.5 1.4-1.3 2.5-2.5 3z"/><path class="e" d="m146.2 210.3c0.5-1.1 1.4 2 2.1 1.3 0.6-0.7 0-4.6 2.2-5.1 2.3-0.4 6.1 10.9 3.2 11.3-2.9 0.3-3.6-3.2-4.4-3.2-1.3-0.1-1.3 3.4-1.9 2.3-0.5-1-1.9-4.8-1.2-6.6z"/><path class="e" d="m147.6 217.9c0.7 0.9-2.1 0-1.8 0.9 0.3 0.9 3.9 1.5 3.2 3.7-0.6 2.2-12.4 0.4-11.4-2.3 1-2.8 4.4-1.8 4.8-2.5 0.7-1.1-2.4-2.7-1.2-2.7 1.2 0 5.1 1.4 6.4 2.9z"/><path class="e" d="m143.5 210.8c0-1.2-1.8 1.4-2 0.4-0.3-1 1.9-4 0.1-5.4-1.8-1.4-9.5 7.8-7.2 9.6 1.2 1 3.8-1.5 4.5-1.2 1.3 0.5-0.8 1.6 0.4 1.7 1.2 0.1 4-3.1 4.2-5.1z"/><path class="j" d="m156.8 217.5c1.7-0.3 4.4 0.7 3.6 1.9-0.7 1.1-3.4-0.8-3.6-1.9z"/><path class="k" d="m157.2 217.7c1.3-0.2 3.4 0.6 2.8 1.5-0.5 0.9-2.6-0.6-2.8-1.5z"/><path class="l" d="m158.7 218.2c0.5-0.1 1.3 0.2 1 0.6-0.2 0.3-1-0.3-1-0.6z"/><path class="j" d="m157.3 214.9c1.5-0.9 4.3-1 4.1 0.3-0.2 1.3-3.4 0.7-4.1-0.3z"/><path class="k" d="m157.8 215c1.1-0.8 3.3-0.9 3.2 0.2-0.2 1-2.7 0.5-3.2-0.2z"/><path class="l" d="m159.4 214.8c0.4-0.3 1.2-0.3 1.1 0.1 0 0.4-1 0.2-1.1-0.1z"/><path class="j" d="m157.2 211.9c1.3-1.1 4-1.8 4.1-0.5 0 1.4-3.2 1.4-4.1 0.5z"/><path class="k" d="m157.7 211.9c1-0.9 3.1-1.4 3.1-0.4 0.1 1.1-2.5 1.1-3.1 0.4z"/><path class="l" d="m159.2 211.5c0.4-0.4 1.1-0.6 1.2-0.2 0 0.4-1 0.4-1.2 0.2z"/><path class="j" d="m156.7 209.1c0.8-1.4 3.2-2.9 3.6-1.7 0.5 1.3-2.6 2.3-3.6 1.7z"/><path class="k" d="m157.1 209c0.6-1.2 2.5-2.4 2.9-1.4 0.3 1-2.1 1.8-2.9 1.4z"/><path class="l" d="m158.4 208.1c0.2-0.4 0.9-0.9 1-0.5 0.2 0.4-0.7 0.7-1 0.5z"/><path class="j" d="m155 206.6c0.1-1.7 1.7-4.1 2.6-3.1 1 0.9-1.4 3.2-2.6 3.1z"/><path class="k" d="m155.4 206.2c0-1.3 1.2-3.1 2-2.4 0.7 0.8-1.1 2.5-2 2.4z"/><path class="l" d="m156.1 204.9c0.1-0.5 0.5-1.2 0.8-0.9 0.3 0.3-0.4 0.9-0.8 0.9z"/><path class="j" d="m153.2 204c-0.9-1.5-0.9-4.3 0.4-4 1.3 0.2 0.6 3.4-0.4 4z"/><path class="k" d="m153.2 203.5c-0.6-1.1-0.6-3.3 0.4-3.1 1 0.2 0.4 2.7-0.4 3.1z"/><path class="l" d="m153.2 202c-0.3-0.4-0.3-1.3 0.1-1.2 0.4 0.1 0.2 1-0.1 1.2z"/><path class="j" d="m140.9 202.8c-0.9-1.5-0.9-4.3 0.4-4 1.4 0.2 0.6 3.4-0.4 4z"/><path class="k" d="m141 202.3c-0.7-1.1-0.7-3.3 0.3-3.1 1 0.2 0.5 2.7-0.3 3.1z"/><path class="l" d="m140.9 200.8c-0.3-0.5-0.3-1.3 0.1-1.2 0.4 0.1 0.2 1-0.1 1.2z"/><path class="j" d="m138.7 203.1c-1.3-1-2.3-3.7-1-3.9 1.3-0.2 1.8 3 1 3.9z"/><path class="k" d="m138.6 202.7c-1-0.9-1.8-2.9-0.8-3.1 1-0.2 1.4 2.4 0.8 3.1z"/><path class="l" d="m138 201.3c-0.4-0.4-0.7-1.1-0.3-1.2 0.4 0 0.5 0.9 0.3 1.2z"/><path class="j" d="m136.7 204.9c-1.6-0.3-3.7-2.2-2.6-3 1-0.8 2.9 1.9 2.6 3z"/><path class="k" d="m136.4 204.6c-1.3-0.3-2.9-1.8-2-2.4 0.8-0.6 2.2 1.5 2 2.4z"/><path class="l" d="m135.2 203.6c-0.4-0.1-1-0.7-0.7-0.9 0.3-0.3 0.8 0.5 0.7 0.9z"/><path class="j" d="m134 206.6c-1.7 0.1-4.2-1.2-3.4-2.3 0.8-1 3.3 1.1 3.4 2.3z"/><path class="k" d="m133.6 206.3c-1.3 0.1-3.3-0.9-2.6-1.7 0.6-0.9 2.6 0.8 2.6 1.7z"/><path class="l" d="m132.2 205.7c-0.5 0-1.2-0.4-1-0.7 0.3-0.3 1 0.3 1 0.7z"/><path class="j" d="m132.4 209.9c-1.6 0.4-4.3-0.5-3.7-1.6 0.7-1.2 3.5 0.5 3.7 1.6z"/><path class="k" d="m132 209.7c-1.3 0.3-3.4-0.4-2.9-1.3 0.5-0.9 2.7 0.4 2.9 1.3z"/><path class="l" d="m130.5 209.3c-0.5 0.1-1.3-0.1-1.1-0.5 0.2-0.3 1 0.2 1.1 0.5z"/><path class="j" d="m132.1 214.2c-1.5 0.8-4.4 0.7-4-0.6 0.3-1.3 3.4-0.4 4 0.6z"/><path class="k" d="m131.6 214.1c-1.2 0.6-3.4 0.6-3.1-0.5 0.2-1 2.7-0.3 3.1 0.5z"/><path class="l" d="m130.1 214.1c-0.5 0.3-1.3 0.2-1.2-0.1 0.1-0.4 1-0.2 1.2 0.1z"/><path class="j" d="m134.6 222.2c-1 1.4-3.6 2.5-3.9 1.2-0.2-1.3 3-1.9 3.9-1.2z"/><path class="k" d="m134.2 222.3c-0.8 1.1-2.8 2-3 0.9-0.3-1 2.2-1.5 3-0.9z"/><path class="l" d="m132.8 223c-0.3 0.4-1.1 0.7-1.1 0.4-0.1-0.4 0.8-0.6 1.1-0.4z"/><path class="j" d="m136.3 223.7c0 1.7-1.3 4.2-2.3 3.3-1.1-0.9 1.1-3.3 2.3-3.3z"/><path class="k" d="m136 224.1c0 1.3-1 3.2-1.8 2.5-0.8-0.6 0.9-2.5 1.8-2.5z"/><path class="l" d="m135.3 225.4c0 0.5-0.4 1.3-0.7 1-0.2-0.2 0.4-0.9 0.7-1z"/><path class="j" d="m138.7 225.2c0.7 1.6 0.3 4.4-1 4-1.2-0.5-0.1-3.5 1-4z"/><path class="k" d="m138.6 225.7c0.5 1.2 0.2 3.4-0.8 3.1-1-0.4-0.1-2.8 0.8-3.1z"/><path class="l" d="m138.4 227.2c0.2 0.5 0.1 1.3-0.3 1.2-0.3-0.1 0-1 0.3-1.2z"/><path class="j" d="m142.4 226.1c0.8 1.4 0.9 4.3-0.5 4-1.3-0.3-0.5-3.4 0.5-4z"/><path class="k" d="m142.3 226.5c0.7 1.2 0.7 3.4-0.3 3.2-1.1-0.2-0.5-2.7 0.3-3.2z"/><path class="l" d="m142.4 228.1c0.2 0.4 0.2 1.2-0.1 1.1-0.4 0-0.2-1 0.1-1.1z"/><path class="j" d="m146.2 226c1.3 1.1 2.1 3.8 0.7 4-1.3 0.1-1.5-3.2-0.7-4z"/><path class="k" d="m146.3 226.4c0.9 0.9 1.6 3 0.5 3.1-1 0.1-1.2-2.4-0.5-3.1z"/><path class="l" d="m146.8 227.9c0.3 0.3 0.6 1.1 0.2 1.1-0.4 0.1-0.4-0.9-0.2-1.1z"/><path class="j" d="m149.9 225.4c1.6 0.6 3.3 2.8 2.1 3.4-1.2 0.6-2.6-2.3-2.1-3.4z"/><path class="k" d="m150.1 225.8c1.2 0.5 2.6 2.2 1.7 2.7-1 0.5-2-1.8-1.7-2.7z"/><path class="l" d="m151.1 227c0.5 0.2 1 0.8 0.7 1-0.4 0.2-0.8-0.7-0.7-1z"/><path class="m" d="m140 214.7c0.5-1.2-2.8-2.5-1.8-3.7 1.2-1.4 3.2 1.5 4.7 0.8 1-0.5 0.2-4.2 1.9-4.2 1.7-0.1 1.4 4.1 2.1 4.4 2.3 1.1 3.5-1.6 4.2 0 0.5 1.1-2.7 2-3.3 3.1-0.7 1.1 2.6 2.8 1.5 3.6-1 0.8-2.7-1.7-3.9-1-1.1 0.7-0.5 3.7-1.9 3.5-1.1-0.2-0.3-4-0.7-4.8-0.3-0.9-3.3 0.7-3.7 0.1-0.3-0.6 0.5-0.8 0.9-1.8z"/><path class="n" d="m169.2 212.6c-0.6-7.5-4.8-14-11-17.9 0.7 2.5 1.1 5.2 1.1 7.9 0 16.4-12.6 29.7-28.1 29.7q-1.9 0-3.8-0.2c8.2 7 21.2 7 31.3-0.2 6.1-4.4 11.4-9.6 10.5-19.3z"/><path class="a" d="m108.8 45.6c10.9-7.2 13.7-22.3 6.3-33.8-7.4-11.5-22.1-15-33-7.8-17.9 11.9-12.1 33.6 4.7 41.7 6.8 3.3 13.9 5.3 22-0.1z"/><path class="b" d="m115.1 11.8c-7.4-11.5-22.1-15-33-7.8-2.6 1.7-4.8 3.7-6.4 5.8 0.4 4.4 1.7 8.9 4 13.2 7.8 14.1 24 20.3 36.7 14.2 4-7.7 3.8-17.4-1.3-25.4z"/><path class="c" d="m108.3 44.9c10.5-7 13.2-21.6 6.1-32.7-7.1-11-21.3-14.4-31.8-7.5-17.3 11.5-11.7 32.4 4.5 40.2 6.6 3.2 13.4 5.2 21.2 0z"/><path class="d" d="m108.9 43.4c9.7-7.2 11.5-21.4 4.1-31.7-7.4-10.2-21.3-12.7-30.9-5.4-16 11.9-9.5 31.6 6.5 38.3 6.4 2.6 13.1 4.2 20.3-1.2z"/><path class="e" d="m113.1 13.7c-7.5-15.4-29.6-9.3-30.5-5.7-0.9 3.5 10.2 15.7 12.8 14.7 2.6-1 19.3-5.9 17.7-9z"/><path class="e" d="m77.6 12.4c-1.9 0.7-12.1 16.9 9.4 31.5 2.8 1.8 6.3-15.4 6.3-17.9 0-2.6-12.9-14.6-15.7-13.6z"/><path class="e" d="m94.2 45.6c2.9 2.7 26-2.2 21.8-23.9-0.6-3-17.3 3.6-19.2 4.9-1.9 1.3-4.6 17.1-2.6 19z"/><path class="e" d="m104.9 39.3c7.5-5 9.5-15.6 4.4-23.7-5.2-8-15.5-10.4-23.1-5.4-12.5 8.3-8.5 23.5 3.3 29.1 4.8 2.3 9.7 3.8 15.4 0z"/><path class="f" d="m77.8 12.9c-1.9 0.7-11.8 16.4 9.1 30.4 2.7 1.8 6.1-14.8 6.1-17.3 0-2.5-12.5-14.1-15.2-13.1z"/><path class="g" d="m78.2 13.4c-1.7 0.6-10.9 15.5 8.9 29.1 2.6 1.8 5.7-14.1 5.6-16.5 0-2.3-11.9-13.6-14.5-12.6z"/><path class="h" d="m92 30.9q-0.9 0.9-2.1 1.6c-4.6 2.5-10.4 1.2-14.1-2.9 1.6 4.1 5 8.6 11.3 12.9 1.8 1.3 3.9-6.2 4.9-11.6z"/><path class="f" d="m94.7 45c2.8 2.6 24.8-2.1 20.7-22.7-0.5-2.9-16.4 3.4-18.2 4.6-1.9 1.3-4.4 16.3-2.5 18.1z"/><path class="h" d="m95 44.5c2.6 2.4 23.7-2.5 19.9-22.1-0.5-2.8-15.7 3.5-17.5 4.7-1.7 1.3-4.3 15.6-2.4 17.4z"/><path class="f" d="m112.4 13.9c-7.3-14.8-28.5-9.2-29.3-5.8-0.9 3.5 9.9 15.2 12.4 14.2 2.5-0.9 18.4-5.5 16.9-8.4z"/><path class="h" d="m112 14c-7.1-14.3-27.4-8.8-28.2-5.5-0.8 3.3 9.5 14.6 11.9 13.7 2.4-0.9 17.7-5.4 16.3-8.2z"/><path class="i" d="m98.5 25.7c1.3 0-0.2 1.3 1 1.6 1.2 0.3 5-2.7 6.8-0.6 1.8 2.1-7.2 11.8-9.3 9-2.1-2.9 1.2-5.7 0.8-6.6-0.7-1.5-2.7 0.2-1.9-1 0.9-1.2 1.9-2.4 2.6-2.4z"/><path class="i" d="m93.2 27.7c-0.4 1.3-0.4-0.7-1.2 0.2-0.7 0.9 0.7 5.2-2 5.8-2.6 0.5-7.8-12-4.3-12.5 3.5-0.4 4.6 3.8 5.6 3.9 1.6 0.1 0.9-1.9 1.7-0.5 0.7 1.3 1 1 0.2 3.1z"/><path class="i" d="m92.7 21.1c-0.9-1 1.5-0.1 1.1-1.2-0.4-1-5.2-1.8-4.2-4.4 0.9-2.3 12.9-0.5 12.1 2.2-0.9 2.9-4.7 2-5.2 2.8-0.8 1.4 1.5 1.2 0.1 1.4-1.4 0.1-2.8 0-3.9-0.8z"/><path class="e" d="m99.7 24.4c1.1-0.2-1.1 2.2-0.2 2.4 1 0.2 4.1-2.2 5.6-0.4 1.5 1.7-6.6 10.5-8.3 8.1-1.7-2.3 1-4.6 0.6-5.3-0.5-1.3-3.6 0.4-2.9-0.6 0.7-1 3.3-4 5.2-4.2z"/><path class="e" d="m93.7 29.2c-0.4 1.1-1-1.8-1.6-1.1-0.7 0.8 0.5 4.1-1.7 4.6-2.2 0.5-6.4-10.7-3.5-11.1 2.9-0.5 3.7 3 4.5 3 1.3 0.1 1.2-3.4 1.8-2.4 0.6 1.1 1.2 5.2 0.5 7z"/><path class="e" d="m97.9 22.2c1.1-0.5-2-0.8-1.3-1.5 0.7-0.8 4.5-0.3 4.9-2.6 0.3-2.2-11.5-4.5-12-1.6-0.2 1.5 3.2 2.5 3.3 3.3 0.2 1.4-1.8 0.1-1.3 1.2 0.5 1.1 4.6 2 6.4 1.2z"/><path class="j" d="m98.5 37.1c1.1 1.4 1.4 4.2 0.1 4.1-1.3-0.1-1-3.4-0.1-4.1z"/><path class="k" d="m98.5 37.6c0.8 1 1.1 3.2 0.1 3.2-1.1-0.1-0.8-2.6-0.1-3.2z"/><path class="l" d="m98.8 39.1c0.3 0.4 0.4 1.2 0 1.2-0.4 0-0.3-1 0-1.2z"/><path class="j" d="m101 36.3c1.5 0.9 3 3.3 1.7 3.7-1.2 0.5-2.2-2.6-1.7-3.7z"/><path class="k" d="m101.2 36.8c1.2 0.6 2.3 2.5 1.3 2.8-0.9 0.4-1.7-2-1.3-2.8z"/><path class="l" d="m102.1 38.1c0.4 0.2 0.8 0.9 0.5 1-0.4 0.2-0.7-0.7-0.5-1z"/><path class="j" d="m103.6 34.8c1.6 0.5 3.5 2.6 2.4 3.3-1.2 0.7-2.8-2.1-2.4-3.3z"/><path class="k" d="m103.8 35.2c1.3 0.4 2.8 2 1.9 2.6-0.9 0.5-2.2-1.7-1.9-2.6z"/><path class="l" d="m104.9 36.3c0.5 0.2 1 0.8 0.7 1-0.3 0.2-0.8-0.7-0.7-1z"/><path class="j" d="m105.8 33c1.7 0 4.1 1.4 3.2 2.4-0.8 1-3.2-1.2-3.2-2.4z"/><path class="k" d="m106.1 33.3c1.3 0 3.3 1.1 2.6 1.8-0.7 0.8-2.6-0.9-2.6-1.8z"/><path class="l" d="m107.5 34c0.5 0 1.2 0.4 1 0.7-0.3 0.3-1-0.4-1-0.7z"/><path class="j" d="m107.2 30.3c1.5-0.7 4.4-0.5 4 0.8-0.4 1.3-3.5 0.3-4-0.8z"/><path class="k" d="m107.7 30.4c1.2-0.5 3.4-0.4 3.1 0.6-0.3 1-2.7 0.3-3.1-0.6z"/><path class="l" d="m109.2 30.5c0.5-0.2 1.3-0.2 1.2 0.2-0.1 0.4-1 0.1-1.2-0.2z"/><path class="j" d="m108.6 27.4c0.9-1.4 3.3-2.8 3.7-1.5 0.4 1.3-2.7 2.2-3.7 1.5z"/><path class="k" d="m109 27.3c0.7-1.1 2.6-2.2 2.9-1.2 0.4 1-2.1 1.7-2.9 1.2z"/><path class="l" d="m110.3 26.5c0.3-0.5 1-0.8 1.1-0.5 0.2 0.4-0.8 0.7-1.1 0.5z"/><path class="j" d="m103.7 16.1c0.9-1.5 3.4-2.8 3.8-1.6 0.4 1.3-2.8 2.2-3.8 1.6z"/><path class="k" d="m104.2 15.9c0.7-1.1 2.6-2.2 2.9-1.2 0.3 1-2.1 1.7-2.9 1.2z"/><path class="l" d="m105.5 15.1c0.3-0.4 1-0.8 1.1-0.4 0.1 0.3-0.8 0.6-1.1 0.4z"/><path class="j" d="m102.4 14.3c0.3-1.6 2.1-3.8 2.9-2.7 0.9 1-1.8 3-2.9 2.7z"/><path class="k" d="m102.7 14c0.3-1.3 1.7-2.9 2.3-2.1 0.7 0.8-1.4 2.3-2.3 2.1z"/><path class="l" d="m103.7 12.8c0.1-0.5 0.6-1.1 0.8-0.8 0.3 0.3-0.5 0.9-0.8 0.8z"/><path class="j" d="m99.8 13.5c-0.4-1.7 0.2-4.4 1.5-3.8 1.2 0.5-0.3 3.4-1.5 3.8z"/><path class="k" d="m100 13c-0.3-1.2 0.2-3.4 1.1-2.9 1 0.4-0.2 2.7-1.1 2.9z"/><path class="l" d="m100.3 11.5c-0.1-0.5 0.1-1.3 0.4-1.1 0.4 0.2 0 1-0.4 1.1z"/><path class="j" d="m97.1 11.9c-0.9-1.5-1-4.3 0.3-4.1 1.3 0.3 0.7 3.5-0.3 4.1z"/><path class="k" d="m97.1 11.4c-0.6-1.1-0.7-3.3 0.3-3.1 1 0.1 0.5 2.6-0.3 3.1z"/><path class="l" d="m97 9.9c-0.2-0.5-0.3-1.3 0.1-1.2 0.4 0 0.2 1-0.1 1.2z"/><path class="j" d="m93.4 12.1c-1.1-1.3-1.7-4.1-0.3-4 1.3 0 1.2 3.2 0.3 4z"/><path class="k" d="m93.4 11.6c-0.9-1-1.3-3.1-0.3-3.1 1.1 0 1 2.5 0.3 3.1z"/><path class="l" d="m93 10.1c-0.3-0.3-0.5-1.2-0.1-1.1 0.4 0 0.4 0.9 0.1 1.1z"/><path class="j" d="m89.5 13.9c-1.4-1-2.7-3.5-1.4-3.8 1.3-0.4 2 2.8 1.4 3.8z"/><path class="k" d="m89.3 13.4c-1.1-0.7-2.1-2.7-1-2.9 1-0.3 1.5 2.2 1 2.9z"/><path class="l" d="m88.6 12.1c-0.4-0.3-0.8-1-0.4-1.1 0.3-0.1 0.6 0.8 0.4 1.1z"/><path class="j" d="m83.7 19.9c-1.7-0.2-3.9-1.9-2.9-2.8 1-0.9 3.1 1.6 2.9 2.8z"/><path class="k" d="m83.4 19.6c-1.3-0.2-3.1-1.5-2.3-2.2 0.8-0.7 2.4 1.3 2.3 2.2z"/><path class="l" d="m82.1 18.7c-0.5-0.1-1.1-0.6-0.8-0.8 0.3-0.3 0.9 0.5 0.8 0.8z"/><path class="j" d="m83.2 22.1c-1.5 0.9-4.3 0.9-4-0.4 0.2-1.3 3.4-0.6 4 0.4z"/><path class="k" d="m82.7 22c-1.1 0.7-3.3 0.7-3.1-0.3 0.2-1 2.7-0.5 3.1 0.3z"/><path class="l" d="m81.2 22.1c-0.4 0.3-1.3 0.3-1.2-0.1 0.1-0.4 1-0.2 1.2 0.1z"/><path class="j" d="m83 25c-1.1 1.3-3.7 2.3-3.9 1-0.3-1.3 3-1.8 3.9-1z"/><path class="k" d="m82.5 25.1c-0.8 1-2.8 1.8-3 0.8-0.2-1.1 2.3-1.4 3-0.8z"/><path class="l" d="m81.1 25.7c-0.3 0.4-1.1 0.7-1.1 0.3-0.1-0.4 0.9-0.5 1.1-0.3z"/><path class="j" d="m84.1 28.6c-0.9 1.5-3.4 2.8-3.8 1.6-0.4-1.3 2.7-2.2 3.8-1.6z"/><path class="k" d="m83.6 28.8c-0.7 1.1-2.6 2.2-2.9 1.2-0.3-1 2.1-1.7 2.9-1.2z"/><path class="l" d="m82.3 29.6c-0.3 0.4-1 0.8-1.1 0.4-0.1-0.4 0.8-0.6 1.1-0.4z"/><path class="j" d="m86 31.9c-0.4 1.7-2.4 3.7-3.2 2.6-0.7-1.2 2-2.9 3.2-2.6z"/><path class="k" d="m85.6 32.2c-0.3 1.3-1.9 2.8-2.5 2-0.5-0.9 1.6-2.3 2.5-2z"/><path class="l" d="m84.6 33.3c-0.2 0.5-0.7 1.1-0.9 0.8-0.3-0.3 0.5-0.8 0.9-0.8z"/><path class="j" d="m88.3 34.9c0.2 1.6-0.9 4.3-2 3.5-1.2-0.8 0.8-3.4 2-3.5z"/><path class="k" d="m88 35.3c0.2 1.3-0.7 3.3-1.6 2.7-0.8-0.6 0.7-2.6 1.6-2.7z"/><path class="l" d="m87.5 36.7c0 0.5-0.3 1.3-0.6 1-0.3-0.2 0.2-1 0.6-1z"/><path class="m" d="m92.9 21.1c1.3-0.1 0.8-3.7 2.4-3.4 1.8 0.4 0.1 3.5 1.5 4.5 0.9 0.6 3.8-1.9 4.6-0.4 0.9 1.5-3 3.2-2.9 4 0.2 2.5 3.1 2.3 2.1 3.7-0.8 1-3.1-1.4-4.3-1.5-1.3 0-1.2 3.7-2.5 3.2-1.2-0.6 0.2-3.3-1-3.9-1.1-0.7-3.5 1.3-3.9-0.1-0.4-1.1 3.3-2.1 3.9-2.9 0.5-0.7-2.3-2.6-2-3.1 0.4-0.6 1-0.1 2.1-0.1z"/><path class="n" d="m108.8 45.6c6.3-4.1 9.9-10.9 10.4-18.2-1.9 1.8-4.1 3.4-6.5 4.7-14.4 7.9-32.1 3.3-39.5-10.3q-1-1.7-1.6-3.4c-2.3 10.5 4 21.9 15.2 27.3 6.8 3.3 13.9 5.3 22-0.1z"/><path class="a" d="m191 38.8c-1.1-13-13-22.7-26.6-21.8-13.7 0.9-23.8 12.2-22.7 25.2 1.8 21.4 23.5 26.8 38.8 15.9 6.1-4.4 11.3-9.6 10.5-19.3z"/><path class="b" d="m164.4 17c-13.7 0.9-23.8 12.2-22.7 25.2 0.2 3.2 0.9 6 2 8.4 4 1.8 8.6 2.8 13.4 2.8 16.2 0 29.4-11.2 30.2-25.3-4.8-7.2-13.5-11.7-22.9-11.1z"/><path class="c" d="m190.1 38.9c-1-12.5-12.5-22-25.7-21.1-13.1 0.9-22.9 11.8-21.8 24.3 1.7 20.7 22.7 25.8 37.4 15.4 5.9-4.3 10.9-9.3 10.1-18.6z"/><path class="d" d="m189.1 37.6c-1.7-11.9-13.2-20.3-25.8-18.7-12.6 1.5-21.4 12.5-19.7 24.4 2.8 19.7 23.2 23.6 36.7 12.7 5.5-4.3 10-9.4 8.8-18.4z"/><path class="e" d="m165.1 19.7c-17.1-0.8-22.4 21.5-19.7 24 2.7 2.4 18.7-1.4 19.1-4.2 0.3-2.8 4-19.7 0.6-19.8z"/><path class="e" d="m146.9 50.2c-0.3 2 8.9 18.8 32.1 6.9 2.9-1.6-10.4-13-12.7-14.2-2.2-1.2-19 4.3-19.4 7.3z"/><path class="e" d="m183.9 51.6c3.8-1.3 10.7-23.9-10.4-30.6-2.9-0.9-5.2 16.9-4.9 19.2 0.2 2.3 12.7 12.2 15.3 11.4z"/><path class="e" d="m183.6 39.2c-0.8-9-9.1-15.9-18.7-15.2-9.5 0.6-16.6 8.5-15.8 17.6 1.3 14.9 16.5 18.7 27.1 11.1 4.3-3.1 7.9-6.7 7.4-13.5z"/><path class="f" d="m147.4 50.3c-0.3 1.9 8.7 18.1 31.1 6.6 2.8-1.5-10.1-12.5-12.3-13.7-2.1-1.2-18.4 4.2-18.8 7.1z"/><path class="g" d="m148 50.1c-0.2 1.8 8.4 17.1 29.8 6.2 2.8-1.3-9.6-11.7-11.7-12.8-2.1-1.2-17.7 3.9-18.1 6.6z"/><path class="h" d="m170 46.5q0.4 1.2 0.4 2.6c0 5.2-4 9.7-9.3 10.9 4.4 0.6 9.9-0.2 16.7-3.7 2-0.9-3.6-6.3-7.8-9.8z"/><path class="f" d="m183.7 50.9c3.6-1.2 10.1-22.7-10-29.1-2.8-0.9-4.9 16-4.7 18.2 0.2 2.2 12.1 11.7 14.7 10.9z"/><path class="h" d="m183.3 50.4c3.4-1.2 9.3-22-9.8-28.1-2.6-0.9-4.4 15.5-4.2 17.6 0.3 2.1 11.6 11.3 14 10.5z"/><path class="f" d="m164.9 20.3c-16.5-0.6-21.7 20.7-19.1 23 2.6 2.4 18-1.3 18.4-4 0.4-2.6 4-18.8 0.7-19z"/><path class="h" d="m164.8 20.8c-15.9-0.7-20.9 19.8-18.4 22.1 2.5 2.3 17.4-1.3 17.7-3.9 0.4-2.5 3.9-18.1 0.7-18.2z"/><path class="i" d="m168.5 38.3c0.7-1.2 1.1 0.7 1.9-0.2 0.8-0.9 0.1-5.6 2.8-6.2 2.7-0.5 6.9 12 3.4 12.5-3.5 0.4-4.4-3.8-5.4-3.9-1.6-0.1-1.1 2.5-1.7 1.2-0.7-1.3-1.3-2.8-1-3.4z"/><path class="i" d="m167.8 43.9c0.9 0.9-0.8 0-0.4 1.1 0.4 1.1 4.9 1.9 4.1 4.5-0.8 2.6-14.3 1.1-13-2.2 1.3-3.2 5.6-2.2 6.1-3 0.9-1.4-1.2-1.7 0.3-1.7 1.5-0.1 1.4-0.4 2.9 1.3z"/><path class="i" d="m161.8 41.1c-1.3 0.4 0.6-1.3-0.5-1.5-1.2-0.1-4.1 3.7-5.9 1.6-1.6-2 5.7-11.6 7.7-9.6 2.1 2.2-0.5 5.1 0 5.9 0.8 1.4 1.8-0.7 1.2 0.6-0.5 1.3-1.3 2.5-2.5 3z"/><path class="e" d="m168 36.6c0.4-1.1 1.4 2 2 1.3 0.7-0.7 0.1-4.7 2.3-5.1 2.2-0.5 6.1 10.8 3.2 11.2-2.9 0.4-3.6-3.1-4.4-3.1-1.3-0.1-1.3 3.4-1.9 2.3-0.5-1.1-1.9-4.9-1.2-6.6z"/><path class="e" d="m169.4 44.2c0.7 0.8-2.1-0.1-1.8 0.9 0.3 0.9 3.8 1.5 3.2 3.7-0.6 2.1-12.4 0.4-11.4-2.4 1-2.7 4.4-1.7 4.8-2.4 0.7-1.2-2.4-2.8-1.2-2.8 1.2 0.1 5.1 1.5 6.4 3z"/><path class="e" d="m165.2 37.1c0.1-1.2-1.7 1.4-2 0.4-0.2-1 2-4.1 0.2-5.5-1.8-1.4-9.5 7.9-7.2 9.7 1.2 1 3.8-1.6 4.5-1.3 1.3 0.6-0.9 1.7 0.4 1.8 1.2 0 4-3.1 4.1-5.1z"/><path class="j" d="m178.6 43.7c1.7-0.2 4.3 0.8 3.6 1.9-0.7 1.1-3.4-0.7-3.6-1.9z"/><path class="k" d="m179 44c1.3-0.2 3.4 0.6 2.8 1.4-0.6 0.9-2.6-0.5-2.8-1.4z"/><path class="l" d="m180.5 44.5c0.5-0.1 1.2 0.2 1 0.5-0.2 0.3-1-0.2-1-0.5z"/><path class="j" d="m179.1 41.2c1.5-1 4.3-1.1 4.1 0.2-0.2 1.4-3.4 0.8-4.1-0.2z"/><path class="k" d="m179.6 41.2c1.1-0.7 3.3-0.8 3.1 0.2-0.1 1.1-2.6 0.6-3.1-0.2z"/><path class="l" d="m181.1 41.1c0.5-0.3 1.3-0.3 1.2 0.1 0 0.3-1 0.2-1.2-0.1z"/><path class="j" d="m179 38.2c1.2-1.2 4-1.8 4.1-0.5 0 1.3-3.3 1.4-4.1 0.5z"/><path class="k" d="m179.5 38.2c0.9-0.9 3.1-1.5 3.1-0.4 0.1 1-2.5 1-3.1 0.4z"/><path class="l" d="m181 37.7c0.3-0.3 1.1-0.5 1.1-0.1 0.1 0.4-0.9 0.4-1.1 0.1z"/><path class="j" d="m178.5 35.4c0.8-1.5 3.2-3 3.6-1.7 0.5 1.2-2.6 2.3-3.6 1.7z"/><path class="k" d="m178.9 35.2c0.6-1.1 2.5-2.3 2.8-1.3 0.4 1-2 1.8-2.8 1.3z"/><path class="l" d="m180.2 34.4c0.2-0.5 0.9-0.9 1-0.5 0.2 0.3-0.7 0.6-1 0.5z"/><path class="j" d="m176.8 32.8c0.1-1.6 1.7-4 2.6-3.1 1 1-1.4 3.2-2.6 3.1z"/><path class="k" d="m177.1 32.5c0.1-1.3 1.3-3.2 2.1-2.4 0.7 0.7-1.1 2.5-2.1 2.4z"/><path class="l" d="m177.9 31.2c0.1-0.5 0.5-1.2 0.8-0.9 0.3 0.2-0.4 0.9-0.8 0.9z"/><path class="j" d="m175 30.3c-0.9-1.5-0.9-4.3 0.4-4.1 1.3 0.3 0.6 3.5-0.4 4.1z"/><path class="k" d="m175 29.8c-0.6-1.1-0.6-3.4 0.4-3.1 1 0.2 0.4 2.6-0.4 3.1z"/><path class="l" d="m175 28.2c-0.3-0.4-0.3-1.2 0.1-1.1 0.4 0.1 0.2 1-0.1 1.1z"/><path class="j" d="m162.7 29c-0.9-1.4-0.9-4.3 0.4-4 1.3 0.3 0.6 3.5-0.4 4z"/><path class="k" d="m162.8 28.6c-0.7-1.2-0.7-3.4 0.3-3.2 1 0.3 0.5 2.7-0.3 3.2z"/><path class="l" d="m162.7 27c-0.3-0.4-0.3-1.2 0.1-1.1 0.4 0 0.2 1-0.1 1.1z"/><path class="j" d="m160.5 29.4c-1.3-1.1-2.4-3.7-1-3.9 1.3-0.3 1.7 3 1 3.9z"/><path class="k" d="m160.4 28.9c-1-0.8-1.8-2.8-0.8-3 1-0.2 1.4 2.3 0.8 3z"/><path class="l" d="m159.8 27.5c-0.4-0.3-0.7-1.1-0.3-1.1 0.4-0.1 0.5 0.9 0.3 1.1z"/><path class="j" d="m158.5 31.2c-1.7-0.4-3.7-2.3-2.7-3.1 1.1-0.8 3 1.9 2.7 3.1z"/><path class="k" d="m158.2 30.8c-1.3-0.3-2.9-1.8-2.1-2.4 0.9-0.6 2.3 1.5 2.1 2.4z"/><path class="l" d="m157 29.8c-0.5-0.1-1.1-0.6-0.7-0.9 0.3-0.2 0.8 0.6 0.7 0.9z"/><path class="j" d="m155.8 32.8c-1.7 0.1-4.3-1.1-3.4-2.2 0.8-1 3.3 1.1 3.4 2.2z"/><path class="k" d="m155.4 32.6c-1.3 0-3.3-1-2.6-1.8 0.6-0.8 2.6 0.8 2.6 1.8z"/><path class="l" d="m154 31.9c-0.5 0.1-1.2-0.3-1-0.6 0.2-0.3 1 0.3 1 0.6z"/><path class="j" d="m154.2 36.2c-1.7 0.3-4.4-0.5-3.7-1.7 0.7-1.1 3.5 0.5 3.7 1.7z"/><path class="k" d="m153.8 36c-1.3 0.2-3.4-0.4-2.9-1.3 0.5-0.9 2.7 0.4 2.9 1.3z"/><path class="l" d="m152.3 35.6c-0.5 0.1-1.3-0.2-1.1-0.5 0.2-0.4 1 0.1 1.1 0.5z"/><path class="j" d="m153.9 40.5c-1.5 0.8-4.4 0.7-4-0.6 0.3-1.3 3.4-0.5 4 0.6z"/><path class="k" d="m153.4 40.4c-1.2 0.6-3.4 0.5-3.1-0.5 0.2-1 2.7-0.3 3.1 0.5z"/><path class="l" d="m151.9 40.4c-0.5 0.2-1.3 0.2-1.2-0.2 0.1-0.4 1-0.1 1.2 0.2z"/><path class="j" d="m156.4 48.4c-1 1.4-3.6 2.6-3.9 1.3-0.3-1.3 2.9-2 3.9-1.3z"/><path class="k" d="m155.9 48.6c-0.7 1-2.7 1.9-3 0.9-0.2-1 2.3-1.5 3-0.9z"/><path class="l" d="m154.6 49.3c-0.3 0.4-1.1 0.7-1.2 0.3 0-0.4 0.9-0.5 1.2-0.3z"/><path class="j" d="m158.1 50c0 1.6-1.3 4.1-2.4 3.3-1-0.9 1.2-3.3 2.4-3.3z"/><path class="k" d="m157.8 50.3c0 1.3-1 3.3-1.8 2.6-0.8-0.7 0.9-2.6 1.8-2.6z"/><path class="l" d="m157.1 51.7c0 0.5-0.4 1.2-0.7 1-0.3-0.3 0.4-1 0.7-1z"/><path class="j" d="m160.5 51.5c0.6 1.6 0.3 4.4-1 3.9-1.3-0.4-0.1-3.4 1-3.9z"/><path class="k" d="m160.4 52c0.5 1.2 0.2 3.4-0.8 3-1-0.3-0.1-2.7 0.8-3z"/><path class="l" d="m160.2 53.5c0.2 0.5 0.1 1.3-0.3 1.1-0.3-0.1 0-1 0.3-1.1z"/><path class="j" d="m164.2 52.3c0.8 1.5 0.8 4.3-0.5 4.1-1.3-0.3-0.5-3.5 0.5-4.1z"/><path class="k" d="m164.1 52.8c0.7 1.1 0.7 3.3-0.4 3.1-1-0.2-0.4-2.7 0.4-3.1z"/><path class="l" d="m164.2 54.3c0.2 0.5 0.2 1.3-0.2 1.2-0.3-0.1-0.1-1 0.2-1.2z"/><path class="j" d="m168 52.2c1.2 1.2 2.1 3.9 0.7 4-1.3 0.1-1.5-3.1-0.7-4z"/><path class="k" d="m168.1 52.7c0.9 0.9 1.6 3 0.5 3.1-1 0.1-1.2-2.4-0.5-3.1z"/><path class="l" d="m168.6 54.2c0.3 0.3 0.6 1.1 0.2 1.1-0.4 0-0.5-0.9-0.2-1.1z"/><path class="j" d="m171.7 51.7c1.6 0.6 3.3 2.8 2.1 3.4-1.2 0.6-2.6-2.4-2.1-3.4z"/><path class="k" d="m171.9 52.1c1.2 0.5 2.6 2.2 1.7 2.6-1 0.5-2-1.8-1.7-2.6z"/><path class="l" d="m172.9 53.2c0.5 0.2 1 0.9 0.6 1-0.3 0.2-0.7-0.6-0.6-1z"/><path class="m" d="m161.8 40.9c0.5-1.1-2.9-2.4-1.8-3.7 1.2-1.3 3.2 1.6 4.7 0.8 1-0.4 0.2-4.1 1.9-4.2 1.7 0 1.4 4.2 2.1 4.5 2.2 1 3.5-1.6 4.2 0 0.5 1.1-2.7 2-3.3 3-0.7 1.1 2.6 2.9 1.5 3.7-1 0.8-2.8-1.7-3.9-1-1.1 0.7-0.5 3.7-1.9 3.4-1.2-0.2-0.3-3.9-0.7-4.8-0.3-0.8-3.3 0.8-3.7 0.2-0.3-0.6 0.5-0.9 0.9-1.9z"/><path class="n" d="m191 38.8c-0.6-7.5-4.9-13.9-11-17.8 0.7 2.5 1 5.2 1 7.9 0 16.4-12.5 29.7-28.1 29.7q-1.8 0-3.7-0.3c8.2 7.1 21.2 7 31.3-0.2 6.1-4.4 11.3-9.6 10.5-19.3z"/><path class="a" d="m113.8 129.5c-1.1-13-13.1-22.7-26.7-21.8-13.7 0.9-23.8 12.2-22.7 25.2 1.8 21.4 23.6 26.8 38.8 15.9 6.2-4.4 11.4-9.6 10.6-19.3z"/><path class="b" d="m87.1 107.7c-13.7 0.9-23.8 12.2-22.7 25.2 0.2 3.1 1 5.9 2 8.4 4.1 1.8 8.6 2.8 13.5 2.8 16.2 0 29.4-11.2 30.1-25.3-4.8-7.2-13.4-11.8-22.9-11.1z"/><path class="c" d="m112.9 129.6c-1.1-12.6-12.6-22-25.7-21.1-13.2 0.9-23 11.8-21.9 24.3 1.7 20.7 22.7 25.8 37.4 15.3 5.9-4.2 10.9-9.2 10.2-18.5z"/><path class="d" d="m111.8 128.3c-1.7-11.9-13.2-20.3-25.8-18.8-12.5 1.6-21.3 12.6-19.6 24.5 2.7 19.7 23.1 23.5 36.7 12.7 5.4-4.4 10-9.4 8.7-18.4z"/><path class="e" d="m87.9 110.3c-17.2-0.7-22.5 21.6-19.8 24 2.7 2.5 18.7-1.3 19.1-4.1 0.4-2.8 4.1-19.7 0.7-19.9z"/><path class="e" d="m69.6 140.9c-0.3 2 9 18.8 32.1 6.9 3-1.6-10.4-13-12.7-14.2-2.2-1.2-18.9 4.3-19.4 7.3z"/><path class="e" d="m106.7 142.3c3.8-1.3 10.6-23.9-10.5-30.6-2.9-0.9-5.2 16.8-4.9 19.2 0.2 2.3 12.7 12.2 15.4 11.4z"/><path class="e" d="m106.3 129.9c-0.8-9.1-9.1-15.9-18.6-15.2-9.5 0.6-16.6 8.5-15.9 17.6 1.3 14.9 16.5 18.7 27.1 11.1 4.3-3.1 8-6.7 7.4-13.5z"/><path class="f" d="m70.1 141c-0.3 1.9 8.7 18.1 31.1 6.6 2.9-1.5-10.1-12.5-12.3-13.7-2.1-1.2-18.3 4.2-18.8 7.1z"/><path class="g" d="m70.8 140.8c-0.3 1.8 8.3 17.1 29.8 6.2 2.7-1.4-9.7-11.7-11.8-12.9-2.1-1.1-17.6 4-18 6.7z"/><path class="h" d="m92.8 137.1q0.3 1.3 0.3 2.6c0 5.3-3.9 9.8-9.3 11 4.4 0.6 9.9-0.2 16.8-3.7 1.9-0.9-3.6-6.3-7.8-9.9z"/><path class="f" d="m106.4 141.6c3.6-1.2 10.1-22.8-10-29.2-2.8-0.8-4.9 16.1-4.7 18.3 0.3 2.2 12.2 11.7 14.7 10.9z"/><path class="h" d="m106.1 141.1c3.4-1.2 9.2-22-9.8-28.1-2.7-0.9-4.5 15.4-4.2 17.6 0.2 2.1 11.6 11.2 14 10.5z"/><path class="f" d="m87.6 111c-16.5-0.6-21.7 20.7-19.1 23 2.6 2.4 18-1.4 18.4-4 0.4-2.7 4-18.8 0.7-19z"/><path class="h" d="m87.6 111.4c-15.9-0.6-20.9 19.9-18.4 22.2 2.5 2.3 17.3-1.3 17.7-3.9 0.3-2.5 3.8-18.1 0.7-18.3z"/><path class="i" d="m91.3 129c0.6-1.2 1 0.7 1.9-0.2 0.8-0.9 0-5.7 2.7-6.2 2.8-0.5 6.9 12 3.4 12.5-3.5 0.4-4.3-3.8-5.3-3.9-1.7-0.1-1.2 2.5-1.8 1.2-0.7-1.3-1.3-2.8-0.9-3.4z"/><path class="i" d="m90.6 134.5c0.9 1-0.9 0.1-0.5 1.2 0.4 1.1 4.9 1.9 4.1 4.5-0.8 2.6-14.2 1.1-12.9-2.2 1.2-3.2 5.5-2.2 6-3 0.9-1.4-1.2-1.7 0.3-1.8 1.6 0 1.4-0.3 3 1.3z"/><path class="i" d="m84.5 131.8c-1.3 0.4 0.6-1.3-0.5-1.5-1.1-0.1-4.1 3.7-5.9 1.6-1.6-2 5.7-11.6 7.7-9.6 2.1 2.1-0.4 5.1 0 5.9 0.9 1.4 1.8-0.7 1.3 0.6-0.6 1.3-1.3 2.4-2.6 3z"/><path class="e" d="m90.7 127.2c0.5-1 1.4 2.1 2.1 1.4 0.6-0.8 0-4.7 2.3-5.1 2.2-0.5 6 10.8 3.1 11.2-2.9 0.4-3.6-3.1-4.4-3.2-1.3-0.1-1.3 3.5-1.9 2.4-0.5-1.1-1.9-4.9-1.2-6.7z"/><path class="e" d="m92.1 134.9c0.7 0.8-2.1-0.1-1.8 0.9 0.4 0.9 3.9 1.5 3.3 3.6-0.7 2.2-12.4 0.5-11.5-2.3 1-2.7 4.4-1.7 4.8-2.4 0.7-1.2-2.4-2.8-1.2-2.8 1.2 0 5.2 1.5 6.4 3z"/><path class="e" d="m88 127.8c0.1-1.2-1.7 1.3-2 0.4-0.3-1 1.9-4.1 0.1-5.5-1.8-1.4-9.4 7.9-7.2 9.7 1.3 1 3.8-1.6 4.5-1.3 1.3 0.5-0.8 1.7 0.4 1.7 1.3 0.1 4-3 4.2-5z"/><path class="j" d="m101.3 134.4c1.7-0.2 4.4 0.8 3.6 1.9-0.7 1.1-3.4-0.7-3.6-1.9z"/><path class="k" d="m101.8 134.7c1.3-0.2 3.3 0.5 2.7 1.4-0.5 0.9-2.6-0.5-2.7-1.4z"/><path class="l" d="m103.2 135.1c0.5 0 1.3 0.3 1.1 0.6-0.3 0.3-1-0.2-1.1-0.6z"/><path class="j" d="m101.9 131.8c1.4-0.9 4.2-1 4 0.3-0.2 1.3-3.4 0.7-4-0.3z"/><path class="k" d="m102.3 131.9c1.1-0.7 3.3-0.8 3.2 0.2-0.2 1.1-2.7 0.6-3.2-0.2z"/><path class="l" d="m103.9 131.8c0.4-0.3 1.2-0.3 1.1 0 0 0.4-1 0.3-1.1 0z"/><path class="j" d="m101.8 128.9c1.2-1.2 3.9-1.9 4-0.5 0 1.3-3.2 1.4-4 0.5z"/><path class="k" d="m102.2 128.9c1-0.9 3.1-1.5 3.2-0.4 0 1-2.5 1-3.2 0.4z"/><path class="l" d="m103.7 128.4c0.4-0.3 1.2-0.5 1.2-0.1 0 0.4-1 0.4-1.2 0.1z"/><path class="j" d="m101.2 126.1c0.8-1.5 3.2-3 3.7-1.7 0.4 1.2-2.7 2.3-3.7 1.7z"/><path class="k" d="m101.6 125.9c0.6-1.1 2.5-2.3 2.9-1.3 0.3 1-2.1 1.8-2.9 1.3z"/><path class="l" d="m102.9 125c0.2-0.4 0.9-0.8 1.1-0.5 0.1 0.4-0.8 0.7-1.1 0.5z"/><path class="j" d="m99.6 123.5c0.1-1.7 1.6-4 2.6-3.1 0.9 1-1.5 3.2-2.6 3.1z"/><path class="k" d="m99.9 123.2c0.1-1.3 1.3-3.2 2-2.4 0.7 0.7-1.1 2.4-2 2.4z"/><path class="l" d="m100.7 121.9c0-0.5 0.4-1.2 0.7-0.9 0.3 0.2-0.4 0.9-0.7 0.9z"/><path class="j" d="m97.7 120.9c-0.9-1.4-0.9-4.3 0.4-4 1.3 0.3 0.6 3.5-0.4 4z"/><path class="k" d="m97.8 120.5c-0.7-1.2-0.7-3.4 0.3-3.2 1 0.2 0.5 2.7-0.3 3.2z"/><path class="l" d="m97.7 118.9c-0.3-0.4-0.3-1.2 0.1-1.1 0.4 0 0.2 1-0.1 1.1z"/><path class="j" d="m85.4 119.7c-0.8-1.4-0.9-4.3 0.5-4 1.3 0.3 0.5 3.4-0.5 4z"/><path class="k" d="m85.5 119.3c-0.7-1.2-0.7-3.4 0.3-3.2 1.1 0.2 0.5 2.7-0.3 3.2z"/><path class="l" d="m85.4 117.7c-0.2-0.4-0.2-1.2 0.1-1.2 0.4 0.1 0.2 1.1-0.1 1.2z"/><path class="j" d="m83.2 120.1c-1.3-1.1-2.3-3.7-1-3.9 1.3-0.3 1.8 3 1 3.9z"/><path class="k" d="m83.1 119.6c-1-0.8-1.8-2.9-0.8-3 1.1-0.2 1.4 2.3 0.8 3z"/><path class="l" d="m82.5 118.2c-0.4-0.3-0.7-1.1-0.3-1.1 0.4-0.1 0.5 0.8 0.3 1.1z"/><path class="j" d="m81.2 121.9c-1.6-0.4-3.7-2.3-2.6-3.1 1.1-0.8 2.9 1.9 2.6 3.1z"/><path class="k" d="m80.9 121.5c-1.2-0.3-2.9-1.8-2-2.4 0.8-0.6 2.3 1.5 2 2.4z"/><path class="l" d="m79.8 120.5c-0.5-0.1-1.1-0.7-0.8-0.9 0.3-0.2 0.8 0.6 0.8 0.9z"/><path class="j" d="m78.5 123.5c-1.7 0.1-4.2-1.2-3.4-2.2 0.9-1.1 3.3 1.1 3.4 2.2z"/><path class="k" d="m78.1 123.2c-1.3 0.1-3.3-0.9-2.6-1.7 0.6-0.8 2.6 0.8 2.6 1.7z"/><path class="l" d="m76.7 122.6c-0.5 0-1.2-0.3-1-0.6 0.3-0.3 1 0.3 1 0.6z"/><path class="j" d="m76.9 126.9c-1.6 0.3-4.3-0.5-3.7-1.7 0.7-1.2 3.5 0.5 3.7 1.7z"/><path class="k" d="m76.5 126.7c-1.3 0.2-3.4-0.4-2.9-1.3 0.6-1 2.7 0.4 2.9 1.3z"/><path class="l" d="m75 126.3c-0.5 0.1-1.2-0.2-1-0.5 0.1-0.4 1 0.1 1 0.5z"/><path class="j" d="m76.6 131.2c-1.5 0.8-4.3 0.7-4-0.6 0.3-1.3 3.5-0.5 4 0.6z"/><path class="k" d="m76.1 131.1c-1.1 0.6-3.3 0.5-3.1-0.5 0.3-1 2.7-0.3 3.1 0.5z"/><path class="l" d="m74.6 131.1c-0.5 0.2-1.3 0.2-1.2-0.2 0.1-0.4 1-0.1 1.2 0.2z"/><path class="j" d="m79.1 139.1c-1 1.4-3.5 2.6-3.8 1.3-0.3-1.4 2.9-2 3.8-1.3z"/><path class="k" d="m78.7 139.2c-0.8 1.1-2.8 2-3 1-0.3-1 2.2-1.5 3-1z"/><path class="l" d="m77.3 139.9c-0.3 0.4-1 0.8-1.1 0.4-0.1-0.4 0.8-0.6 1.1-0.4z"/><path class="j" d="m80.8 140.6c0.1 1.7-1.3 4.2-2.3 3.3-1-0.8 1.1-3.3 2.3-3.3z"/><path class="k" d="m80.5 141c0.1 1.3-1 3.3-1.8 2.6-0.8-0.7 0.9-2.6 1.8-2.6z"/><path class="l" d="m79.8 142.4c0.1 0.5-0.3 1.2-0.6 1-0.3-0.3 0.3-1 0.6-1z"/><path class="j" d="m83.2 142.2c0.7 1.6 0.3 4.4-1 3.9-1.2-0.4-0.1-3.5 1-3.9z"/><path class="k" d="m83.1 142.6c0.5 1.3 0.2 3.4-0.8 3.1-1-0.3-0.1-2.7 0.8-3.1z"/><path class="l" d="m83 144.2c0.1 0.4 0 1.3-0.3 1.1-0.4-0.1-0.1-1 0.3-1.1z"/><path class="j" d="m86.9 143c0.9 1.5 0.9 4.3-0.4 4-1.4-0.2-0.6-3.4 0.4-4z"/><path class="k" d="m86.8 143.5c0.7 1.1 0.7 3.3-0.3 3.1-1-0.2-0.5-2.7 0.3-3.1z"/><path class="l" d="m86.9 145c0.3 0.4 0.3 1.3-0.1 1.2-0.4-0.1-0.2-1 0.1-1.2z"/><path class="j" d="m90.7 142.9c1.3 1.2 2.1 3.9 0.7 4-1.3 0.1-1.5-3.1-0.7-4z"/><path class="k" d="m90.8 143.4c0.9 0.9 1.6 3 0.5 3.1-1 0.1-1.1-2.5-0.5-3.1z"/><path class="l" d="m91.3 144.8c0.4 0.4 0.6 1.2 0.2 1.2-0.4 0-0.4-0.9-0.2-1.2z"/><path class="j" d="m94.4 142.3c1.6 0.7 3.3 2.9 2.1 3.5-1.2 0.6-2.5-2.4-2.1-3.5z"/><path class="k" d="m94.6 142.8c1.3 0.4 2.6 2.2 1.7 2.6-0.9 0.5-2-1.8-1.7-2.6z"/><path class="l" d="m95.7 143.9c0.4 0.2 0.9 0.8 0.6 1-0.4 0.2-0.8-0.7-0.6-1z"/><path class="m" d="m84.5 131.6c0.6-1.1-2.8-2.4-1.8-3.7 1.2-1.4 3.2 1.6 4.7 0.8 1-0.5 0.2-4.2 1.9-4.2 1.7 0 1.4 4.2 2.1 4.5 2.3 1 3.6-1.6 4.3-0.1 0.4 1.2-2.8 2.1-3.4 3.1-0.6 1.1 2.6 2.9 1.6 3.7-1.1 0.8-2.8-1.7-3.9-1-1.2 0.7-0.6 3.7-2 3.4-1.1-0.2-0.3-3.9-0.6-4.8-0.4-0.8-3.4 0.7-3.8 0.2-0.3-0.6 0.5-0.9 0.9-1.9z"/><path class="n" d="m113.8 129.5c-0.7-7.5-4.9-13.9-11-17.8 0.6 2.5 1 5.1 1 7.9 0 16.4-12.6 29.7-28.1 29.7q-1.9 0-3.7-0.3c8.1 7.1 21.1 7 31.2-0.2 6.2-4.4 11.4-9.6 10.6-19.3z"/><path class="a" d="m235 158.8c-1.1-13-13-22.7-26.7-21.8-13.6 0.9-23.8 12.2-22.7 25.2 1.9 21.4 23.6 26.8 38.9 15.9 6.1-4.3 11.3-9.6 10.5-19.3z"/><path class="b" d="m208.3 137c-13.6 0.9-23.8 12.2-22.7 25.2 0.3 3.2 1 6 2.1 8.4 4 1.8 8.6 2.8 13.4 2.8 16.2 0 29.4-11.2 30.2-25.3-4.8-7.2-13.5-11.7-23-11.1z"/><path class="c" d="m234.1 158.9c-1-12.5-12.5-21.9-25.7-21.1-13.1 0.9-22.9 11.8-21.9 24.3 1.8 20.7 22.8 25.8 37.5 15.4 5.9-4.2 10.9-9.3 10.1-18.6z"/><path class="d" d="m233.1 157.7c-1.7-12-13.3-20.4-25.8-18.8-12.6 1.5-21.4 12.5-19.7 24.4 2.8 19.7 23.2 23.6 36.7 12.7 5.5-4.3 10-9.4 8.8-18.3z"/><path class="e" d="m209.1 139.7c-17.1-0.8-22.4 21.5-19.7 24 2.7 2.4 18.6-1.4 19-4.2 0.4-2.8 4.1-19.7 0.7-19.8z"/><path class="e" d="m190.9 170.2c-0.3 2 8.9 18.8 32.1 6.9 2.9-1.6-10.5-13-12.7-14.2-2.2-1.2-19 4.3-19.4 7.3z"/><path class="e" d="m227.9 171.6c3.8-1.2 10.7-23.9-10.4-30.6-2.9-0.9-5.2 16.9-4.9 19.2 0.2 2.3 12.7 12.2 15.3 11.4z"/><path class="e" d="m227.6 159.2c-0.8-9-9.1-15.9-18.7-15.2-9.5 0.6-16.6 8.5-15.8 17.6 1.2 15 16.5 18.7 27.1 11.1 4.3-3 7.9-6.7 7.4-13.5z"/><path class="f" d="m191.4 170.3c-0.3 1.9 8.7 18.1 31 6.6 2.9-1.5-10-12.5-12.2-13.7-2.2-1.2-18.4 4.2-18.8 7.1z"/><path class="g" d="m192 170.1c-0.3 1.8 8.4 17.1 29.8 6.2 2.8-1.3-9.6-11.7-11.7-12.8-2.1-1.1-17.7 3.9-18.1 6.6z"/><path class="h" d="m214 166.5q0.4 1.2 0.4 2.6c0 5.2-4 9.7-9.3 10.9 4.4 0.6 9.9-0.2 16.7-3.7 2-0.9-3.6-6.3-7.8-9.8z"/><path class="f" d="m227.7 170.9c3.6-1.2 10.1-22.7-10-29.1-2.8-0.9-4.9 16-4.7 18.2 0.2 2.2 12.1 11.7 14.7 10.9z"/><path class="h" d="m227.3 170.4c3.4-1.2 9.3-21.9-9.8-28.1-2.6-0.9-4.4 15.5-4.2 17.6 0.3 2.1 11.6 11.3 14 10.5z"/><path class="f" d="m208.9 140.3c-16.5-0.6-21.8 20.7-19.2 23.1 2.7 2.3 18.1-1.4 18.5-4.1 0.4-2.6 4-18.8 0.7-19z"/><path class="h" d="m208.8 140.8c-15.9-0.7-20.9 19.8-18.4 22.1 2.5 2.3 17.3-1.3 17.7-3.9 0.4-2.5 3.9-18.1 0.7-18.2z"/><path class="i" d="m212.5 158.3c0.7-1.2 1.1 0.7 1.9-0.2 0.8-0.8 0.1-5.6 2.8-6.2 2.7-0.5 6.9 12 3.4 12.5-3.6 0.4-4.4-3.8-5.4-3.9-1.6-0.1-1.1 2.5-1.8 1.2-0.6-1.3-1.2-2.8-0.9-3.4z"/><path class="i" d="m211.8 163.9c0.9 0.9-0.8 0-0.4 1.1 0.4 1.1 4.9 2 4.1 4.5-0.8 2.6-14.3 1.1-13-2.2 1.3-3.2 5.6-2.2 6.1-3 0.9-1.4-1.2-1.7 0.3-1.7 1.5-0.1 1.4-0.4 2.9 1.3z"/><path class="i" d="m205.8 161.1c-1.4 0.4 0.6-1.3-0.6-1.5-1.1-0.1-4.1 3.7-5.8 1.6-1.7-2 5.7-11.6 7.7-9.6 2.1 2.2-0.5 5.1 0 5.9 0.8 1.4 1.8-0.7 1.2 0.6-0.6 1.3-1.3 2.5-2.5 3z"/><path class="e" d="m212 156.6c0.4-1.1 1.4 2 2 1.3 0.7-0.7 0.1-4.7 2.3-5.1 2.2-0.4 6.1 10.9 3.2 11.2-2.9 0.4-3.6-3.1-4.4-3.1-1.4-0.1-1.4 3.4-1.9 2.3-0.5-1.1-1.9-4.8-1.2-6.6z"/><path class="e" d="m213.4 164.2c0.7 0.8-2.2-0.1-1.8 0.9 0.3 0.9 3.8 1.5 3.2 3.7-0.6 2.1-12.4 0.4-11.4-2.4 1-2.7 4.4-1.7 4.8-2.4 0.7-1.2-2.4-2.8-1.2-2.8 1.2 0.1 5.1 1.5 6.4 3z"/><path class="e" d="m209.2 157.1c0.1-1.2-1.7 1.4-2 0.4-0.2-1 2-4.1 0.2-5.5-1.8-1.4-9.5 7.9-7.2 9.7 1.2 1 3.7-1.5 4.5-1.2 1.2 0.5-0.9 1.6 0.4 1.7 1.2 0 4-3.1 4.1-5.1z"/><path class="j" d="m222.6 163.7c1.7-0.2 4.3 0.8 3.6 1.9-0.7 1.2-3.4-0.7-3.6-1.9z"/><path class="k" d="m223 164c1.3-0.2 3.4 0.6 2.8 1.4-0.6 0.9-2.7-0.5-2.8-1.4z"/><path class="l" d="m224.5 164.5c0.5-0.1 1.2 0.2 1 0.5-0.2 0.3-1-0.2-1-0.5z"/><path class="j" d="m223.1 161.2c1.5-0.9 4.3-1.1 4.1 0.2-0.2 1.4-3.5 0.8-4.1-0.2z"/><path class="k" d="m223.6 161.2c1.1-0.7 3.3-0.8 3.1 0.2-0.1 1.1-2.6 0.6-3.1-0.2z"/><path class="l" d="m225.1 161.1c0.4-0.3 1.3-0.3 1.2 0.1-0.1 0.3-1 0.2-1.2-0.1z"/><path class="j" d="m223 158.2c1.2-1.2 4-1.8 4-0.5 0.1 1.3-3.2 1.4-4 0.5z"/><path class="k" d="m223.5 158.2c0.9-0.9 3.1-1.5 3.1-0.4 0.1 1-2.5 1.1-3.1 0.4z"/><path class="l" d="m225 157.7c0.3-0.3 1.1-0.5 1.1-0.1 0.1 0.4-0.9 0.4-1.1 0.1z"/><path class="j" d="m222.4 155.4c0.8-1.5 3.3-3 3.7-1.7 0.5 1.2-2.6 2.3-3.7 1.7z"/><path class="k" d="m222.9 155.2c0.6-1.1 2.5-2.3 2.8-1.3 0.4 1-2 1.8-2.8 1.3z"/><path class="l" d="m224.2 154.4c0.2-0.5 0.9-0.9 1-0.5 0.2 0.3-0.7 0.6-1 0.5z"/><path class="j" d="m220.8 152.8c0.1-1.6 1.7-4 2.6-3.1 1 1-1.4 3.2-2.6 3.1z"/><path class="k" d="m221.1 152.5c0.1-1.3 1.3-3.1 2.1-2.4 0.7 0.7-1.1 2.5-2.1 2.4z"/><path class="l" d="m221.9 151.2c0.1-0.5 0.5-1.2 0.8-0.9 0.3 0.3-0.4 0.9-0.8 0.9z"/><path class="j" d="m218.9 150.3c-0.8-1.5-0.8-4.3 0.5-4.1 1.3 0.3 0.6 3.5-0.5 4.1z"/><path class="k" d="m219 149.8c-0.6-1.1-0.6-3.3 0.4-3.1 1 0.2 0.4 2.6-0.4 3.1z"/><path class="l" d="m218.9 148.3c-0.2-0.5-0.2-1.3 0.2-1.2 0.4 0.1 0.1 1-0.2 1.2z"/><path class="j" d="m206.7 149.1c-0.9-1.5-0.9-4.3 0.4-4.1 1.3 0.3 0.6 3.5-0.4 4.1z"/><path class="k" d="m206.7 148.6c-0.6-1.2-0.6-3.4 0.4-3.1 1 0.2 0.4 2.6-0.4 3.1z"/><path class="l" d="m206.7 147c-0.3-0.4-0.3-1.2 0.1-1.1 0.4 0 0.2 1-0.1 1.1z"/><path class="j" d="m204.5 149.4c-1.3-1.1-2.4-3.7-1-3.9 1.3-0.2 1.7 3 1 3.9z"/><path class="k" d="m204.4 148.9c-1-0.8-1.8-2.8-0.8-3 1-0.2 1.4 2.3 0.8 3z"/><path class="l" d="m203.8 147.5c-0.4-0.3-0.7-1.1-0.3-1.1 0.3-0.1 0.5 0.9 0.3 1.1z"/><path class="j" d="m202.5 151.2c-1.7-0.4-3.8-2.3-2.7-3.1 1.1-0.8 3 1.9 2.7 3.1z"/><path class="k" d="m202.2 150.8c-1.3-0.3-2.9-1.7-2.1-2.4 0.9-0.6 2.3 1.5 2.1 2.4z"/><path class="l" d="m201 149.8c-0.5-0.1-1.1-0.6-0.8-0.9 0.4-0.2 0.9 0.6 0.8 0.9z"/><path class="j" d="m199.8 152.9c-1.7 0-4.3-1.2-3.4-2.3 0.8-1 3.3 1.1 3.4 2.3z"/><path class="k" d="m199.4 152.6c-1.3 0-3.3-1-2.6-1.8 0.6-0.8 2.5 0.9 2.6 1.8z"/><path class="l" d="m198 151.9c-0.5 0.1-1.3-0.3-1-0.6 0.2-0.3 1 0.3 1 0.6z"/><path class="j" d="m198.2 156.2c-1.7 0.4-4.4-0.5-3.7-1.7 0.7-1.1 3.5 0.5 3.7 1.7z"/><path class="k" d="m197.8 156c-1.3 0.3-3.4-0.4-2.9-1.3 0.5-0.9 2.7 0.4 2.9 1.3z"/><path class="l" d="m196.3 155.6c-0.5 0.1-1.3-0.2-1.1-0.5 0.2-0.4 1 0.1 1.1 0.5z"/><path class="j" d="m197.9 160.5c-1.5 0.8-4.4 0.7-4.1-0.6 0.4-1.3 3.5-0.5 4.1 0.6z"/><path class="k" d="m197.4 160.4c-1.2 0.6-3.4 0.5-3.1-0.5 0.2-1 2.7-0.3 3.1 0.5z"/><path class="l" d="m195.8 160.4c-0.4 0.2-1.2 0.2-1.1-0.2 0.1-0.4 1-0.1 1.1 0.2z"/><path class="j" d="m200.4 168.4c-1 1.4-3.6 2.6-3.9 1.3-0.3-1.3 2.9-2 3.9-1.3z"/><path class="k" d="m199.9 168.6c-0.7 1-2.7 1.9-3 0.9-0.2-1 2.3-1.5 3-0.9z"/><path class="l" d="m198.6 169.3c-0.3 0.4-1.1 0.7-1.2 0.3-0.1-0.4 0.9-0.5 1.2-0.3z"/><path class="j" d="m202.1 170c0 1.7-1.3 4.1-2.4 3.3-1-0.9 1.2-3.3 2.4-3.3z"/><path class="k" d="m201.8 170.3c0 1.3-1 3.3-1.8 2.6-0.8-0.7 0.9-2.6 1.8-2.6z"/><path class="l" d="m201.1 171.7c0 0.5-0.4 1.2-0.7 1-0.3-0.3 0.4-1 0.7-1z"/><path class="j" d="m204.5 171.5c0.6 1.6 0.3 4.4-1 4-1.3-0.5-0.1-3.5 1-4z"/><path class="k" d="m204.3 172c0.5 1.2 0.3 3.4-0.7 3-1-0.3-0.1-2.7 0.7-3z"/><path class="l" d="m204.2 173.5c0.2 0.5 0.1 1.3-0.3 1.1-0.3-0.1 0-1 0.3-1.1z"/><path class="j" d="m208.2 172.3c0.8 1.5 0.8 4.3-0.5 4.1-1.3-0.3-0.6-3.5 0.5-4.1z"/><path class="k" d="m208.1 172.8c0.6 1.1 0.7 3.3-0.4 3.1-1-0.2-0.4-2.7 0.4-3.1z"/><path class="l" d="m208.2 174.3c0.2 0.5 0.2 1.3-0.2 1.2-0.3-0.1-0.1-1 0.2-1.2z"/><path class="j" d="m212 172.2c1.2 1.2 2 3.9 0.7 4-1.3 0.1-1.5-3.1-0.7-4z"/><path class="k" d="m212.1 172.7c0.9 0.9 1.5 3 0.5 3.1-1 0.1-1.2-2.4-0.5-3.1z"/><path class="l" d="m212.6 174.2c0.3 0.3 0.6 1.1 0.2 1.1-0.4 0-0.5-0.9-0.2-1.1z"/><path class="j" d="m215.7 171.7c1.5 0.6 3.3 2.8 2.1 3.4-1.2 0.6-2.6-2.3-2.1-3.4z"/><path class="k" d="m215.9 172.1c1.2 0.5 2.6 2.2 1.7 2.7-1 0.4-2.1-1.9-1.7-2.7z"/><path class="l" d="m216.9 173.2c0.5 0.2 1 0.9 0.6 1-0.3 0.2-0.7-0.6-0.6-1z"/><path class="m" d="m205.8 160.9c0.5-1.1-2.9-2.4-1.8-3.7 1.2-1.3 3.1 1.6 4.7 0.8 1-0.4 0.1-4.1 1.8-4.2 1.8 0 1.5 4.2 2.2 4.5 2.2 1 3.5-1.6 4.2 0 0.5 1.1-2.7 2-3.3 3.1-0.7 1 2.6 2.8 1.5 3.6-1.1 0.8-2.8-1.7-3.9-1-1.1 0.7-0.5 3.7-1.9 3.4-1.2-0.2-0.3-3.9-0.7-4.7-0.3-0.9-3.3 0.7-3.7 0.1-0.4-0.6 0.4-0.9 0.9-1.9z"/><path class="n" d="m235 158.8c-0.6-7.5-4.9-13.9-11-17.8 0.7 2.5 1 5.2 1 7.9 0 16.4-12.5 29.7-28.1 29.7q-1.9 0-3.7-0.3c8.1 7.1 21.2 7 31.3-0.2 6.1-4.3 11.3-9.6 10.5-19.3z"/><path class="a" d="m44.7 82.9c-8.6-9.8-24-10.5-34.4-1.7-10.4 8.8-11.9 24-3.3 33.8 14.2 16.1 34.9 7.5 40.7-10.3 2.3-7.2 3.4-14.5-3-21.8z"/><path class="b" d="m10.3 81.2c-10.4 8.8-11.9 24-3.3 33.8 2.1 2.3 4.3 4.2 6.6 5.5 4.3-0.9 8.6-2.8 12.5-5.7 13-9.6 17-26.5 9.2-38.3-8.1-2.9-17.8-1.5-25 4.7z"/><path class="c" d="m44 83.5c-8.3-9.4-23.1-10.2-33.2-1.7-10 8.6-11.4 23.1-3.1 32.6 13.6 15.5 33.6 7.2 39.2-9.9 2.2-6.9 3.3-14-2.9-21z"/><path class="d" d="m42.4 83.1c-8.4-8.6-22.7-8.5-31.9 0.2-9.1 8.7-9.7 22.8-1.3 31.4 14 14.2 32.7 5.1 37.1-11.6 1.8-6.7 2.4-13.5-3.9-20z"/><path class="e" d="m12.5 82.9c-14.3 9.6-5.3 30.6-1.7 31 3.7 0.4 14.3-12.2 12.9-14.6-1.3-2.5-8.4-18.3-11.2-16.4z"/><path class="e" d="m16 118.3c0.9 1.8 18.3 9.8 29.8-13.5 1.5-3-16-4.3-18.6-3.9-2.5 0.3-12.7 14.7-11.2 17.4z"/><path class="e" d="m46.6 97.4c2.3-3.3-5.7-25.5-26.6-18.4-2.9 1 5.9 16.6 7.4 18.4 1.6 1.7 17.5 2.3 19.2 0z"/><path class="e" d="m38.9 87.7c-6-6.9-16.7-7.4-24-1.2-7.3 6.2-8.3 16.7-2.3 23.5 9.9 11.3 24.4 5.3 28.4-7.1 1.6-5 2.4-10.1-2.1-15.2z"/><path class="f" d="m16.4 118c0.9 1.8 17.8 9.5 28.9-13.1 1.5-2.9-15.5-4.1-18-3.7-2.4 0.3-12.3 14.2-10.9 16.8z"/><path class="g" d="m16.8 117.5c0.9 1.7 16.8 8.8 27.7-12.7 1.4-2.7-14.8-3.7-17.1-3.3-2.3 0.3-11.9 13.6-10.6 16z"/><path class="h" d="m32.3 101.5q1.1 0.8 1.9 1.9c3.1 4.3 2.6 10.2-1 14.3 3.9-2.1 7.8-6 11.3-12.9 1-1.9-6.7-2.9-12.2-3.3z"/><path class="f" d="m45.9 97c2.2-3.1-5.3-24.3-25.3-17.5-2.7 0.9 5.6 15.8 7.1 17.5 1.5 1.6 16.7 2.1 18.2 0z"/><path class="h" d="m45.4 96.8c2-3-5.6-23.2-24.6-16.8-2.6 0.9 5.6 15.1 7.1 16.7 1.4 1.5 16 2.1 17.5 0.1z"/><path class="f" d="m12.7 83.6c-13.7 9.3-5.2 29.5-1.7 29.8 3.5 0.4 13.6-11.8 12.4-14.1-1.3-2.4-8-17.6-10.7-15.7z"/><path class="h" d="m12.9 84c-13.2 8.9-5 28.3-1.6 28.7 3.3 0.3 13.1-11.4 11.9-13.6-1.2-2.3-7.7-16.9-10.3-15.1z"/><path class="i" d="m26.3 95.8c-0.2-1.3 1.3 0 1.4-1.2 0.1-1.2-3.3-4.6-1.4-6.7 1.8-2 12.6 5.6 10.1 8.1-2.6 2.4-5.8-0.5-6.6 0-1.4 0.9 0.6 2.7-0.8 2-1.3-0.6-2.6-1.5-2.7-2.2z"/><path class="i" d="m29 100.7c1.3 0.3-0.6 0.6 0.4 1.2 0.9 0.7 5.1-1.3 5.9 1.2 0.9 2.6-10.8 9.3-11.7 6-0.9-3.4 3.1-5.1 3.1-6.1-0.1-1.6-2-0.6-0.8-1.6 1.2-0.9 0.9-1.1 3.1-0.7z"/><path class="i" d="m22.5 102.1c-0.8 1.1-0.3-1.4-1.3-0.9-1 0.6-1.1 5.4-3.8 4.8-2.5-0.6-2.3-12.7 0.5-12.3 3 0.5 2.7 4.4 3.6 4.8 1.5 0.6 0.9-1.7 1.3-0.3 0.3 1.4 0.4 2.7-0.3 3.9z"/><path class="e" d="m24.8 94.8c-0.3-1.1 2.3 0.8 2.5-0.2 0.1-1-2.8-3.7-1.2-5.4 1.5-1.7 11.3 5.1 9.2 7.1-2.1 2-4.8-0.3-5.4 0.1-1.2 0.7 0.9 3.5-0.2 3-1-0.6-4.4-2.8-4.9-4.6z"/><path class="e" d="m30.5 100.1c1.1 0.2-1.8 1.2-0.9 1.8 0.8 0.5 3.9-1.1 4.7 1 0.8 2.1-9.7 7.7-10.5 4.9-0.9-2.8 2.5-4 2.4-4.8-0.1-1.3-3.6-0.8-2.6-1.5 1-0.7 5-1.9 6.9-1.4z"/><path class="e" d="m22.9 96.8c-0.6-1-0.5 2.2-1.3 1.5-0.8-0.6-0.9-4.4-3.2-4.4-2.3-0.1-2.9 11.9 0 12 1.6 0.1 2.1-3.5 2.9-3.7 1.3-0.3 0.2 1.8 1.3 1.2 1-0.7 1.4-4.9 0.3-6.6z"/><path class="j" d="m37.6 94.2c1.2-1.2 4-1.9 4-0.6 0.1 1.4-3.1 1.5-4 0.6z"/><path class="k" d="m38.1 94.2c0.9-0.9 3-1.5 3.1-0.5 0.1 1.1-2.5 1.1-3.1 0.5z"/><path class="l" d="m39.6 93.7c0.3-0.3 1.1-0.6 1.1-0.2 0.1 0.4-0.9 0.5-1.1 0.2z"/><path class="j" d="m36.5 91.9c0.6-1.6 2.8-3.4 3.4-2.2 0.6 1.2-2.3 2.6-3.4 2.2z"/><path class="k" d="m36.9 91.6c0.5-1.2 2.2-2.6 2.7-1.7 0.5 1-1.8 2.1-2.7 1.7z"/><path class="l" d="m38.1 90.6c0.2-0.5 0.8-1 1-0.6 0.1 0.3-0.7 0.7-1 0.6z"/><path class="j" d="m34.7 89.5c0.3-1.6 2.1-3.8 2.9-2.8 0.8 1.1-1.8 3.1-2.9 2.8z"/><path class="k" d="m35 89.2c0.3-1.3 1.7-2.9 2.3-2.1 0.7 0.8-1.4 2.3-2.3 2.1z"/><path class="l" d="m36 88c0-0.5 0.6-1.1 0.8-0.8 0.3 0.3-0.5 0.9-0.8 0.8z"/><path class="j" d="m32.6 87.6c-0.3-1.6 0.8-4.3 1.9-3.5 1.1 0.7-0.8 3.4-1.9 3.5z"/><path class="k" d="m32.8 87.2c-0.2-1.3 0.6-3.3 1.5-2.7 0.9 0.5-0.6 2.6-1.5 2.7z"/><path class="l" d="m33.3 85.8c-0.1-0.5 0.2-1.3 0.6-1.1 0.3 0.2-0.3 1-0.6 1.1z"/><path class="j" d="m29.7 86.5c-0.9-1.4-1.1-4.2 0.3-4 1.3 0.2 0.7 3.4-0.3 4z"/><path class="k" d="m29.8 86.1c-0.8-1.1-0.9-3.3 0.2-3.2 1 0.2 0.5 2.7-0.2 3.2z"/><path class="l" d="m29.6 84.5c-0.3-0.4-0.3-1.2 0.1-1.1 0.4 0 0.2 1-0.1 1.1z"/><path class="j" d="m26.7 85.6c-1.6-0.7-3.3-3-2.1-3.5 1.3-0.6 2.6 2.4 2.1 3.5z"/><path class="k" d="m26.5 85.2c-1.2-0.6-2.6-2.3-1.6-2.8 0.9-0.4 1.9 1.9 1.6 2.8z"/><path class="l" d="m25.5 84c-0.5-0.2-1-0.9-0.6-1.1 0.3-0.1 0.7 0.7 0.6 1.1z"/><path class="j" d="m16.1 91.9c-1.6-0.7-3.3-3-2.1-3.5 1.3-0.6 2.6 2.4 2.1 3.5z"/><path class="k" d="m15.9 91.5c-1.2-0.6-2.6-2.3-1.6-2.8 0.9-0.4 1.9 1.9 1.6 2.8z"/><path class="l" d="m14.9 90.3c-0.5-0.2-1-0.9-0.6-1 0.3-0.2 0.7 0.7 0.6 1z"/><path class="j" d="m14.5 93.5c-1.7-0.1-4.1-1.6-3.1-2.6 0.9-0.9 3.2 1.4 3.1 2.6z"/><path class="k" d="m14.2 93.2c-1.3-0.1-3.2-1.3-2.5-2 0.7-0.8 2.5 1 2.5 2z"/><path class="l" d="m12.8 92.4c-0.5 0-1.2-0.5-0.9-0.8 0.3-0.2 1 0.4 0.9 0.8z"/><path class="j" d="m14 96.1c-1.6 0.7-4.4 0.4-4-0.9 0.4-1.3 3.5-0.2 4 0.9z"/><path class="k" d="m13.5 96c-1.2 0.5-3.4 0.3-3-0.7 0.3-1 2.7-0.2 3 0.7z"/><path class="l" d="m12 95.9c-0.5 0.2-1.3 0.1-1.1-0.3 0.1-0.4 1 0 1.1 0.3z"/><path class="j" d="m12.8 99.1c-1.3 1-4.1 1.5-4.1 0.2 0.1-1.4 3.3-1.2 4.1-0.2z"/><path class="k" d="m12.3 99c-1 0.9-3.2 1.3-3.1 0.2 0-1 2.5-0.9 3.1-0.2z"/><path class="l" d="m10.8 99.4c-0.4 0.3-1.2 0.4-1.2 0 0-0.4 1-0.3 1.2 0z"/><path class="j" d="m13.5 102.7c-1.1 1.2-3.8 2.2-4 0.8-0.1-1.3 3.1-1.6 4-0.8z"/><path class="k" d="m13 102.7c-0.8 1-2.9 1.7-3 0.7-0.2-1 2.4-1.3 3-0.7z"/><path class="l" d="m11.6 103.3c-0.3 0.4-1.1 0.6-1.2 0.3 0-0.4 0.9-0.5 1.2-0.3z"/><path class="j" d="m15.8 106.3c-0.7 1.6-3.1 3.2-3.6 1.9-0.5-1.2 2.5-2.4 3.6-1.9z"/><path class="k" d="m15.4 106.5c-0.6 1.2-2.4 2.5-2.8 1.5-0.4-1 1.9-1.9 2.8-1.5z"/><path class="l" d="m14.1 107.5c-0.2 0.4-0.9 0.9-1 0.5-0.2-0.4 0.7-0.7 1-0.5z"/><path class="j" d="m22.6 111.2c0 1.7-1.4 4.2-2.4 3.3-1-0.9 1.2-3.3 2.4-3.3z"/><path class="k" d="m22.3 111.6c0 1.3-1.1 3.2-1.9 2.5-0.8-0.6 0.9-2.5 1.9-2.5z"/><path class="l" d="m21.6 113c0 0.5-0.4 1.2-0.7 0.9-0.3-0.2 0.3-0.9 0.7-0.9z"/><path class="j" d="m24.8 111.4c1 1.4 1.4 4.2 0.1 4.1-1.4-0.1-1-3.4-0.1-4.1z"/><path class="k" d="m24.8 111.9c0.8 1 1.1 3.2 0.1 3.2-1.1-0.1-0.8-2.6-0.1-3.2z"/><path class="l" d="m25.1 113.4c0.3 0.4 0.4 1.2 0 1.2-0.4 0-0.3-1 0-1.2z"/><path class="j" d="m27.7 111.3c1.4 0.8 2.8 3.3 1.5 3.7-1.3 0.4-2.2-2.7-1.5-3.7z"/><path class="k" d="m27.8 111.7c1.1 0.7 2.2 2.6 1.2 2.9-1 0.3-1.7-2.1-1.2-2.9z"/><path class="l" d="m28.6 113c0.5 0.3 0.9 1 0.5 1.1-0.4 0.1-0.6-0.8-0.5-1.1z"/><path class="j" d="m31.1 109.7c1.6 0.7 3.3 3 2 3.5-1.2 0.6-2.5-2.4-2-3.5z"/><path class="k" d="m31.3 110.1c1.2 0.6 2.6 2.3 1.6 2.8-0.9 0.4-1.9-1.9-1.6-2.8z"/><path class="l" d="m32.3 111.3c0.5 0.2 0.9 0.9 0.6 1.1-0.4 0.1-0.7-0.7-0.6-1.1z"/><path class="j" d="m34.1 107.4c1.7 0.2 4 1.9 3 2.8-1 0.8-3.1-1.7-3-2.8z"/><path class="k" d="m34.5 107.7c1.3 0.2 3 1.5 2.2 2.2-0.7 0.7-2.4-1.3-2.2-2.2z"/><path class="l" d="m35.7 108.6c0.5 0 1.2 0.5 0.9 0.8-0.3 0.3-0.9-0.5-0.9-0.8z"/><path class="j" d="m36.8 104.7c1.6-0.4 4.3 0.3 3.7 1.5-0.6 1.2-3.5-0.3-3.7-1.5z"/><path class="k" d="m37.2 104.9c1.3-0.3 3.4 0.3 2.9 1.2-0.5 0.9-2.7-0.3-2.9-1.2z"/><path class="l" d="m38.7 105.3c0.5-0.2 1.3 0.1 1.1 0.4-0.2 0.3-1-0.1-1.1-0.4z"/><path class="m" d="m22.4 102c-0.2-1.3-3.7-0.3-3.6-1.9 0.1-1.8 3.4-0.7 4.3-2.2 0.5-1-2.4-3.4-1.1-4.5 1.4-1 3.6 2.5 4.4 2.4 2.4-0.6 1.9-3.4 3.4-2.6 1.1 0.6-1 3.3-0.9 4.5 0.2 1.2 3.8 0.7 3.4 2-0.3 1.3-3.2 0.3-3.7 1.5-0.5 1.2 1.8 3.3 0.5 3.9-1 0.5-2.6-3-3.4-3.4-0.8-0.5-2.2 2.5-2.9 2.3-0.6-0.3-0.1-1-0.4-2z"/><path class="n" d="m44.7 82.9c-5-5.6-12.2-8.3-19.4-7.8 2 1.6 3.8 3.6 5.5 5.8 9.7 13.1 7.5 31.3-5 40.5q-1.5 1.2-3.1 2c10.7 0.9 21.1-6.9 25-18.7 2.3-7.2 3.4-14.5-3-21.8z"/><path class="o" d="m149.1 119.4c-2 0.7-5.5 36.9-3.3 39 2.2 2 19.1-1.4 20.3-14.5 1.2-13.9-11.7-26.5-17-24.5z"/><path class="p" d="m149.5 120c-1.9 0.6-5.7 35.9-3.6 37.9 2 2 18.6-1 19.7-13.8 1.1-13.5-11.3-25.9-16.1-24.1z"/><path class="q" d="m165.3 144.2q-2 1.5-4.4 2.3c-5.3 1.8-10.9 0.4-15.3-3.2-0.5 7.4-0.6 13.8 0.3 14.6 2 2 18-1.2 19.4-13.7z"/><path class="e" d="m150.6 123c1.8-2.4 14.3 8.4 14.4 19.5 0.2 12.7-15.8 16.4-16.8 13.9-2.7-6.6 3.9-11.5 4-15.9 0.1-4.4-4.7-13.5-1.6-17.5z"/><path class="f" d="m150.6 123.4c1.8-2.3 14 8.2 14.1 19 0.2 12.4-15.4 16-16.4 13.6-2.6-6.5 4.4-11.4 4.5-15.7 0.1-4.3-5.1-13-2.2-16.9z"/><path class="h" d="m151 124.6c1.7-2.2 13 7.7 13.1 17.7 0.1 11.5-14.3 14.8-15.2 12.6-2.4-6 4.1-10.6 4.1-14.6 0.1-4-4.7-12-2-15.7z"/><path class="r" d="m150.5 130.6c1.2-0.4 3-1.7 3.4-0.9 0.5 0.8-2.4 4.5-2.4 4.5z"/><path class="r" d="m152.6 137.6c1.2-0.3 2.8-2 2.6-2.9-0.1-1-3.8-1-3.8-1z"/><path class="r" d="m152.7 141.7c1.3 0 3.2-1.3 3.2-2.3 0.1-1-3.4-1.8-3.4-1.8 0.7 1.5 0.6 3 0.2 4.1z"/><path class="r" d="m150.7 145.5c1.2 0.4 4.7-0.2 5.1-1 0.5-0.9-3-3.4-3-3.4-0.3 1.7-1.5 3.4-2.1 4.4z"/><path class="r" d="m148.7 149.8c1.2 0.5 4.7-0.1 5.1-1 0.4-0.9-2.8-3.6-2.8-3.6-1.1 1.2-2.2 4-2.3 4.6z"/><path class="s" d="m164.1 142.3c-0.1-9.2-9.5-18.2-12.4-18 2.4 2.3 4.5 5.4 5.7 9.1 3.1 9.2 0.1 18.6-6.8 20.9q-0.9 0.3-1.8 0.4 0 0.1 0.1 0.2c0.9 2.2 15.3-1.1 15.2-12.6z"/><path class="j" d="m152.1 131c-0.2-1.8 2.5-4.2 3.3-2.8 0.7 1.5-2.4 2.9-3.3 2.8z"/><path class="k" d="m152.4 130.6c-0.1-1.3 2-3.2 2.6-2.1 0.6 1.1-1.9 2.2-2.6 2.1z"/><path class="l" d="m154 129.6c-0.1-0.5 0.7-1.2 0.9-0.8 0.2 0.4-0.7 0.8-0.9 0.8z"/><path class="j" d="m154.1 134.8c0.5-1.7 3.9-2.8 4.1-1.2 0.1 1.6-3.4 1.6-4.1 1.2z"/><path class="k" d="m154.6 134.6c0.4-1.3 3-2.1 3.1-0.9 0.1 1.2-2.5 1.2-3.1 0.9z"/><path class="l" d="m156.4 134.3c0.1-0.5 1.1-0.8 1.1-0.3 0.1 0.4-0.9 0.5-1.1 0.3z"/><path class="j" d="m155.3 139.6c0.9-1.5 4.5-2 4.3-0.4-0.2 1.6-3.6 1-4.3 0.4z"/><path class="k" d="m155.9 139.5c0.6-1.2 3.4-1.5 3.2-0.3-0.1 1.3-2.7 0.8-3.2 0.3z"/><path class="l" d="m157.7 139.6c0.3-0.5 1.3-0.6 1.2-0.1 0 0.4-1 0.2-1.2 0.1z"/><path class="j" d="m155.1 144.1c1.4-1 4.8 0.3 3.9 1.6-0.9 1.4-3.6-0.8-3.9-1.6z"/><path class="k" d="m155.6 144.2c1.1-0.7 3.7 0.3 3 1.3-0.7 1-2.8-0.6-3-1.3z"/><path class="l" d="m157.1 145.2c0.5-0.3 1.4 0 1.2 0.4-0.3 0.4-1.1-0.2-1.2-0.4z"/><path class="j" d="m152.7 147.8c1.7-0.2 4.2 2.4 2.8 3.2-1.4 0.8-2.9-2.3-2.8-3.2z"/><path class="k" d="m153.1 148.2c1.3-0.2 3.2 1.8 2.1 2.4-1 0.7-2.2-1.7-2.1-2.4z"/><path class="l" d="m154.1 149.7c0.5 0 1.2 0.7 0.8 0.9-0.4 0.2-0.8-0.6-0.8-0.9z"/><path class="o" d="m85.7 199c-1.5-1.5-36.2 9.7-37.1 12.6-1 2.8 8.9 17 21.4 12.8 13.2-4.5 19.6-21.3 15.7-25.4z"/><path class="p" d="m85.3 199.6c-1.4-1.4-35.2 9.2-36.2 11.9-1.1 2.6 8.3 16.7 20.4 12.6 12.9-4.4 19.4-20.7 15.8-24.5z"/><path class="q" d="m69.4 223.8q-2.2-1.2-4-3.1c-3.7-4.1-4.6-9.8-3.1-15.3-6.9 2.5-12.8 5-13.2 6.1-1.1 2.6 8.3 16 20.3 12.3z"/><path class="e" d="m82.9 201.8c3 0.7-2 16.5-12.1 21.1-11.6 5.2-21.3-8-19.5-9.9 5.1-5.1 12.1-1 16.2-2.7 4.1-1.7 10.5-9.7 15.4-8.5z"/><path class="f" d="m82.6 202.1c2.8 0.7-2 16-11.8 20.5-11.3 5-20.8-7.8-19-9.7 4.9-4.9 12.2-0.5 16.2-2.1 4-1.7 9.8-9.9 14.6-8.7z"/><path class="h" d="m81.6 202.9c2.7 0.7-1.8 14.9-10.9 19-10.5 4.8-19.4-7.2-17.7-8.9 4.6-4.6 11.4-0.5 15.1-2 3.7-1.5 9.1-9.2 13.5-8.1z"/><path class="r" d="m75.9 204.8c0.9 1 2.8 2.1 2.2 2.8-0.6 0.7-5.1-0.4-5.1-0.4z"/><path class="r" d="m70.3 209.5c0.8 1 3 1.8 3.8 1.3 0.8-0.6-0.7-3.9-0.7-3.9z"/><path class="r" d="m66.6 211.3c0.6 1.2 2.5 2.3 3.4 2 0.9-0.3 0.3-3.9 0.3-3.9-1.1 1.2-2.5 1.8-3.7 1.9z"/><path class="r" d="m62.4 211c0 1.3 2 4.2 2.9 4.2 1 0.1 1.9-4.1 1.9-4.1-1.6 0.4-3.6 0-4.8-0.1z"/><path class="r" d="m57.6 210.8c0 1.3 2 4.3 2.9 4.3 1 0.1 2.2-4 2.2-4-1.5-0.5-4.5-0.4-5.1-0.3z"/><path class="s" d="m70.7 221.9c8.3-3.7 12.8-16 11.4-18.5-1 3.1-3.1 6.3-6 8.9-7.2 6.5-17 7.5-21.8 2.1q-0.7-0.7-1.1-1.5-0.1 0-0.2 0.1c-1.7 1.7 7.2 13.7 17.7 8.9z"/><path class="j" d="m76.2 206.4c1.5-0.9 4.8 0.6 3.8 1.9-1 1.3-3.5-1-3.8-1.9z"/><path class="k" d="m76.7 206.6c1.2-0.7 3.7 0.5 2.9 1.5-0.7 0.9-2.7-0.8-2.9-1.5z"/><path class="l" d="m78.2 207.6c0.5-0.2 1.4 0.2 1.1 0.5-0.3 0.4-1-0.2-1.1-0.5z"/><path class="j" d="m73.5 209.7c1.8-0.1 4.1 2.6 2.7 3.3-1.4 0.8-2.8-2.4-2.7-3.3z"/><path class="k" d="m73.9 210.1c1.3-0.1 3.1 2 2.1 2.6-1.1 0.5-2.2-1.9-2.1-2.6z"/><path class="l" d="m74.9 211.7c0.5-0.1 1.1 0.7 0.7 0.9-0.4 0.2-0.8-0.7-0.7-0.9z"/><path class="j" d="m69.6 212.8c1.8 0.2 3.6 3.3 2 3.8-1.5 0.5-2.3-2.9-2-3.8z"/><path class="k" d="m69.9 213.3c1.3 0.1 2.7 2.5 1.6 2.9-1.2 0.3-1.8-2.3-1.6-2.9z"/><path class="l" d="m70.6 215c0.5 0.1 1 0.9 0.6 1.1-0.5 0.1-0.7-0.9-0.6-1.1z"/><path class="j" d="m65.4 214.4c1.4 0.9 1.6 4.5 0 4.2-1.6-0.3-0.7-3.6 0-4.2z"/><path class="k" d="m65.5 214.9c1.1 0.7 1.2 3.5 0 3.3-1.2-0.3-0.6-2.8 0-3.3z"/><path class="l" d="m65.2 216.7c0.4 0.3 0.5 1.3 0 1.2-0.4-0.1-0.2-1 0-1.2z"/><path class="j" d="m61 213.7c0.9 1.5-0.5 4.8-1.8 3.9-1.3-1 1-3.6 1.8-3.9z"/><path class="k" d="m60.8 214.2c0.7 1.2-0.4 3.7-1.4 3-1-0.8 0.8-2.8 1.4-3z"/><path class="l" d="m59.8 215.8c0.3 0.4-0.1 1.3-0.5 1.1-0.3-0.3 0.3-1.1 0.5-1.1z"/><path class="o" d="m63.1 61.2c1.2-1.8-18.8-32.3-21.8-32.5-2.9-0.2-14.1 13.1-6.7 24 7.7 11.6 25.6 13.4 28.5 8.5z"/><path class="p" d="m62.5 61c1-1.7-18.1-31.5-21-31.8-2.8-0.3-13.9 12.4-6.7 23 7.6 11.3 25 13.2 27.7 8.8z"/><path class="q" d="m35 52q0.6-2.4 1.9-4.6c3-4.6 8.3-7.1 14-7.1-4.2-6-8.2-11-9.4-11.1-2.8-0.3-13.3 12.2-6.5 22.8z"/><path class="e" d="m59.7 59.3c0.1 3-16.4 2.4-23.4-6.1-8.1-9.8 2-22.7 4.4-21.4 6.2 3.5 4.1 11.4 6.8 14.8 2.7 3.5 12.1 7.7 12.2 12.7z"/><path class="f" d="m59.4 59c0.1 3-16 2.3-22.9-6-7.8-9.5 2.1-22.1 4.3-20.8 6.1 3.4 3.7 11.6 6.4 15 2.6 3.4 12.1 6.9 12.2 11.8z"/><path class="h" d="m58.3 58.3c0.1 2.8-14.8 2.2-21.2-5.5-7.3-8.9 1.9-20.6 4-19.4 5.6 3.2 3.4 10.8 5.9 14 2.4 3.1 11.2 6.4 11.3 10.9z"/><path class="r" d="m55 53.3c-0.7 1.1-1.2 3.3-2.1 2.9-0.8-0.4-0.9-5-0.9-5z"/><path class="r" d="m49 49.1c-0.8 1.1-0.9 3.4-0.2 4 0.7 0.7 3.6-1.6 3.6-1.6z"/><path class="r" d="m46.3 46.1c-1 0.8-1.6 3-1 3.8 0.5 0.8 3.8-0.7 3.8-0.7-1.5-0.8-2.4-2-2.8-3.1z"/><path class="r" d="m45.5 41.9c-1.2 0.4-3.5 3-3.3 4 0.2 0.9 4.4 0.6 4.4 0.6-0.8-1.4-0.9-3.4-1.1-4.6z"/><path class="r" d="m44.4 37.2c-1.3 0.4-3.6 3.1-3.4 4 0.2 1 4.5 1.1 4.5 1.1 0-1.7-0.8-4.5-1.1-5.1z"/><path class="s" d="m37.1 52.8c5.8 7 18.8 8.1 20.9 6.1-3.3-0.2-6.9-1.3-10.2-3.4-8.1-5.3-11.6-14.4-7.7-20.5q0.5-0.8 1.1-1.5 0-0.1-0.1-0.1c-2.1-1.2-11.3 10.5-4 19.4z"/><path class="j" d="m53.6 54c1.2 1.3 0.6 4.8-0.9 4.2-1.5-0.6 0.1-3.7 0.9-4.2z"/><path class="k" d="m53.5 54.6c0.9 0.9 0.5 3.6-0.6 3.2-1.2-0.5 0-2.9 0.6-3.2z"/><path class="l" d="m52.9 56.3c0.4 0.4 0.2 1.4-0.2 1.2-0.4-0.2 0-1.1 0.2-1.2z"/><path class="j" d="m49.6 52.3c0.6 1.7-1.4 4.7-2.5 3.5-1.1-1.2 1.6-3.4 2.5-3.5z"/><path class="k" d="m49.4 52.8c0.4 1.2-1.1 3.5-1.9 2.6-0.9-0.9 1.2-2.5 1.9-2.6z"/><path class="l" d="m48.1 54.1c0.2 0.5-0.4 1.3-0.7 1-0.3-0.3 0.5-1 0.7-1z"/><path class="j" d="m45.6 49.4c0.3 1.7-2.2 4.3-3.1 2.9-0.9-1.4 2.2-3 3.1-2.9z"/><path class="k" d="m45.3 49.8c0.2 1.3-1.7 3.3-2.4 2.2-0.7-1 1.7-2.3 2.4-2.2z"/><path class="l" d="m43.8 50.8c0.1 0.6-0.6 1.3-0.9 0.9-0.2-0.4 0.6-0.9 0.9-0.9z"/><path class="j" d="m43 45.7c-0.5 1.6-3.9 2.8-4.1 1.1-0.1-1.6 3.4-1.6 4.1-1.1z"/><path class="k" d="m42.5 45.9c-0.4 1.3-3 2.1-3.1 0.9-0.1-1.3 2.5-1.3 3.1-0.9z"/><path class="l" d="m40.7 46.1c-0.1 0.5-1.1 0.8-1.1 0.4-0.1-0.5 0.9-0.5 1.1-0.4z"/><path class="j" d="m42.5 41.3c-1.2 1.2-4.8 0.8-4.2-0.8 0.6-1.5 3.7 0 4.2 0.8z"/><path class="k" d="m42 41.3c-1 0.9-3.7 0.5-3.2-0.6 0.4-1.2 2.8 0 3.2 0.6z"/><path class="l" d="m40.2 40.7c-0.3 0.4-1.3 0.2-1.2-0.2 0.2-0.4 1.1 0 1.2 0.2z"/><path class="o" d="m216.1 107.9c1.2-1.9-18.8-32.3-21.8-32.5-3-0.2-14.1 13.1-6.7 24 7.7 11.6 25.6 13.3 28.5 8.5z"/><path class="p" d="m215.5 107.7c1-1.8-18.1-31.6-21-31.9-2.8-0.3-13.9 12.5-6.7 23.1 7.6 11.3 25 13.2 27.7 8.8z"/><path class="q" d="m188 98.7q0.6-2.4 1.9-4.6c3-4.7 8.3-7.1 13.9-7.1-4.2-6-8.1-11-9.3-11.2-2.8-0.3-13.3 12.3-6.5 22.9z"/><path class="e" d="m212.7 106c0.1 3-16.4 2.3-23.4-6.2-8.1-9.8 2-22.7 4.4-21.4 6.2 3.5 4.1 11.4 6.8 14.9 2.7 3.5 12.1 7.6 12.2 12.7z"/><path class="f" d="m212.4 105.7c0.1 3-16 2.3-22.9-6-7.8-9.5 2.1-22.1 4.3-20.8 6.1 3.4 3.7 11.6 6.4 15 2.6 3.4 12.1 6.9 12.2 11.8z"/><path class="h" d="m211.3 105c0.1 2.7-14.9 2.2-21.2-5.6-7.3-8.8 1.9-20.5 4-19.3 5.6 3.1 3.4 10.8 5.9 14 2.4 3.1 11.2 6.3 11.3 10.9z"/><path class="r" d="m208 100c-0.7 1.1-1.2 3.2-2.1 2.9-0.8-0.4-0.9-5-0.9-5z"/><path class="r" d="m202 95.8c-0.8 1.1-0.9 3.4-0.2 4 0.7 0.7 3.6-1.6 3.6-1.6z"/><path class="r" d="m199.3 92.7c-1 0.9-1.6 3.1-1 3.9 0.5 0.8 3.8-0.8 3.8-0.8-1.5-0.7-2.4-2-2.8-3.1z"/><path class="r" d="m198.5 88.5c-1.2 0.4-3.5 3.1-3.3 4 0.2 1 4.4 0.7 4.4 0.7-0.8-1.4-0.9-3.5-1.1-4.7z"/><path class="r" d="m197.4 83.9c-1.3 0.4-3.6 3-3.4 4 0.2 0.9 4.5 1 4.5 1 0-1.6-0.9-4.4-1.1-5z"/><path class="s" d="m190.1 99.4c5.8 7.1 18.8 8.2 20.9 6.2-3.3-0.2-6.9-1.3-10.2-3.4-8.1-5.3-11.6-14.5-7.7-20.5q0.5-0.9 1.1-1.5 0-0.1-0.1-0.1c-2.1-1.2-11.3 10.5-4 19.3z"/><path class="j" d="m206.6 100.7c1.2 1.3 0.6 4.8-0.9 4.2-1.5-0.6 0.1-3.7 0.9-4.2z"/><path class="k" d="m206.5 101.2c0.9 1 0.5 3.7-0.7 3.2-1.1-0.4 0.1-2.8 0.7-3.2z"/><path class="l" d="m205.9 103c0.4 0.3 0.2 1.3-0.2 1.2-0.5-0.2 0-1.1 0.2-1.2z"/><path class="j" d="m202.6 99c0.6 1.6-1.4 4.6-2.5 3.5-1.1-1.2 1.6-3.4 2.5-3.5z"/><path class="k" d="m202.4 99.4c0.4 1.3-1.1 3.6-2 2.7-0.8-0.9 1.3-2.6 2-2.7z"/><path class="l" d="m201.1 100.8c0.2 0.5-0.4 1.3-0.7 1-0.3-0.4 0.4-1 0.7-1z"/><path class="j" d="m198.6 96c0.3 1.8-2.2 4.3-3.1 3-0.9-1.4 2.2-3 3.1-3z"/><path class="k" d="m198.3 96.4c0.2 1.4-1.8 3.3-2.4 2.3-0.7-1.1 1.7-2.3 2.4-2.3z"/><path class="l" d="m196.8 97.5c0 0.5-0.7 1.3-0.9 0.9-0.3-0.4 0.6-0.9 0.9-0.9z"/><path class="j" d="m196 92.4c-0.5 1.6-4 2.7-4.1 1.1-0.1-1.6 3.4-1.6 4.1-1.1z"/><path class="k" d="m195.5 92.6c-0.4 1.2-3 2.1-3.1 0.8-0.1-1.2 2.5-1.2 3.1-0.8z"/><path class="l" d="m193.7 92.8c-0.2 0.5-1.1 0.8-1.2 0.4 0-0.5 1-0.5 1.2-0.4z"/><path class="j" d="m195.5 88c-1.2 1.2-4.8 0.7-4.2-0.8 0.6-1.5 3.7 0 4.2 0.8z"/><path class="k" d="m195 87.9c-1 1-3.7 0.6-3.2-0.5 0.4-1.2 2.8-0.1 3.2 0.5z"/><path class="l" d="m193.2 87.4c-0.3 0.3-1.3 0.2-1.2-0.2 0.2-0.5 1.1 0 1.2 0.2z"/><path class="o" d="m142 91.3c0.2-2.1-31.5-20-34.3-18.8-2.7 1.2-6.5 18.1 5.1 24.5 12.2 6.7 28.9 0 29.2-5.7z"/><path class="p" d="m141.4 91.4c0.1-2-30.6-19.6-33.3-18.6-2.6 1-6.6 17.5 4.6 23.6 12 6.6 28.3 0.2 28.7-5z"/><path class="q" d="m112.8 96.1q-0.6-2.4-0.4-5c0.5-5.5 4.1-10.1 9.1-12.7-6.5-3.4-12.3-6-13.4-5.6-2.6 1-6.2 17 4.7 23.3z"/><path class="e" d="m138.1 91.2c1.5 2.7-13.5 9.7-23.6 5.3-11.7-5-8.6-21.1-6-21 7.2 0.3 9 8.2 13 10.1 4 1.9 14.2 1.2 16.6 5.6z"/><path class="f" d="m137.7 91.1c1.4 2.6-13.1 9.4-23 5.2-11.4-4.9-8.4-20.6-5.8-20.5 6.9 0.3 8.6 8.7 12.5 10.5 3.9 1.8 13.9 0.5 16.3 4.8z"/><path class="h" d="m136.4 91c1.4 2.4-12.2 8.7-21.4 4.8-10.5-4.5-7.8-19.1-5.3-19 6.4 0.2 8 8 11.6 9.7 3.7 1.7 12.9 0.5 15.1 4.5z"/><path class="r" d="m131.2 88.1c-0.1 1.3 0.4 3.4-0.6 3.5-0.9 0-3.1-4-3.1-4z"/><path class="r" d="m123.9 87.1c-0.1 1.3 0.7 3.4 1.7 3.7 0.9 0.2 2.4-3.2 2.4-3.2z"/><path class="r" d="m120.1 85.6c-0.4 1.2 0 3.4 0.9 3.9 0.8 0.5 3-2.4 3-2.4-1.6 0-3-0.7-3.9-1.5z"/><path class="r" d="m117.5 82.3c-0.9 0.9-1.7 4.3-1.1 5 0.6 0.8 4.2-1.4 4.2-1.4-1.3-0.9-2.4-2.7-3.1-3.6z"/><path class="r" d="m114.3 78.7c-0.9 0.9-1.7 4.3-1.1 5 0.6 0.8 4.5-1.1 4.5-1.1-0.7-1.4-2.8-3.6-3.4-3.9z"/><path class="s" d="m115 95.8c8.4 3.6 20.5-1.4 21.5-4.1-3.1 1.3-6.8 1.9-10.7 1.6-9.7-0.9-17-7.5-16.3-14.7q0.1-0.9 0.4-1.8-0.1 0-0.2 0c-2.5-0.1-5.2 14.5 5.3 19z"/><path class="j" d="m130.2 89.3c1.7 0.6 2.8 4 1.2 4.2-1.6 0.1-1.6-3.4-1.2-4.2z"/><path class="k" d="m130.4 89.9c1.3 0.4 2.1 3 0.9 3.1-1.2 0.1-1.2-2.5-0.9-3.1z"/><path class="l" d="m130.7 91.7c0.5 0.1 0.8 1.1 0.3 1.1-0.4 0.1-0.4-0.9-0.3-1.1z"/><path class="j" d="m125.9 89.6c1.3 1.2 1 4.8-0.6 4.3-1.5-0.6-0.1-3.7 0.6-4.3z"/><path class="k" d="m125.9 90.2c1 0.9 0.7 3.6-0.5 3.2-1.1-0.4-0.1-2.8 0.5-3.2z"/><path class="l" d="m125.4 91.9c0.4 0.4 0.3 1.4-0.1 1.2-0.5-0.1-0.1-1 0.1-1.2z"/><path class="j" d="m121 88.9c1.1 1.4 0 4.8-1.4 4-1.4-0.8 0.6-3.7 1.4-4z"/><path class="k" d="m120.9 89.4c0.8 1.1 0 3.7-1.1 3.1-1-0.6 0.5-2.8 1.1-3.1z"/><path class="l" d="m120.1 91c0.3 0.4 0 1.4-0.4 1.2-0.4-0.3 0.1-1.1 0.4-1.2z"/><path class="j" d="m117.1 86.8c0.2 1.7-2.3 4.3-3.2 2.9-0.8-1.4 2.2-3 3.2-2.9z"/><path class="k" d="m116.7 87.2c0.2 1.3-1.7 3.3-2.4 2.2-0.6-1 1.7-2.2 2.4-2.2z"/><path class="l" d="m115.2 88.3c0.1 0.5-0.6 1.2-0.9 0.8-0.2-0.4 0.6-0.9 0.9-0.8z"/><path class="j" d="m114.6 83.1c-0.5 1.7-3.9 2.9-4.1 1.3-0.2-1.6 3.3-1.7 4.1-1.3z"/><path class="k" d="m114.1 83.3c-0.4 1.3-3 2.2-3.1 1-0.2-1.2 2.5-1.3 3.1-1z"/><path class="l" d="m112.3 83.7c-0.2 0.4-1.1 0.8-1.2 0.3 0-0.4 0.9-0.5 1.2-0.3z"/><path class="o" d="m55.8 179.5c1.8-1.2-4-37.1-6.6-38.5-2.7-1.4-18.2 6.2-16 19.1 2.4 13.8 18 22.7 22.6 19.4z"/><path class="p" d="m55.3 179.1c1.7-1.2-3.7-36.2-6.1-37.7-2.5-1.4-17.8 5.7-15.6 18.4 2.3 13.4 17.5 22.2 21.7 19.3z"/><path class="q" d="m33.9 159.6q1.5-1.9 3.6-3.4c4.7-3 10.4-3.1 15.6-0.8-1.4-7.2-2.9-13.4-3.9-14-2.5-1.4-17.2 5.8-15.3 18.2z"/><path class="e" d="m53.5 176.4c-1.2 2.8-16-4.6-18.9-15.2-3.4-12.2 11.1-19.9 12.7-17.7 4.3 5.7-0.9 12.1 0.2 16.3 1 4.3 7.9 11.9 6 16.6z"/><path class="f" d="m53.3 176c-1.1 2.7-15.6-4.4-18.4-14.8-3.3-11.9 10.8-19.4 12.4-17.3 4.1 5.6-1.4 12.2-0.4 16.4 1.1 4.1 8.3 11.2 6.4 15.7z"/><path class="h" d="m52.6 174.9c-1 2.6-14.5-4.1-17.1-13.7-3.1-11.1 10.1-18 11.5-16.1 3.9 5.2-1.2 11.3-0.3 15.2 1 3.9 7.7 10.4 5.9 14.6z"/><path class="r" d="m51.6 169c-1.1 0.7-2.4 2.4-3.1 1.8-0.6-0.7 1.2-5 1.2-5z"/><path class="r" d="m47.8 162.7c-1.1 0.7-2.2 2.7-1.8 3.6 0.4 0.9 4-0.1 4-0.1z"/><path class="r" d="m46.6 158.8c-1.2 0.4-2.6 2.1-2.5 3.1 0.2 1 3.8 0.9 3.8 0.9-1-1.3-1.3-2.8-1.3-4z"/><path class="r" d="m47.6 154.7c-1.3-0.2-4.4 1.3-4.6 2.3-0.3 0.9 3.7 2.4 3.7 2.4-0.1-1.6 0.6-3.6 0.9-4.7z"/><path class="r" d="m48.5 150c-1.3-0.2-4.5 1.3-4.7 2.2-0.2 1 3.6 2.8 3.6 2.8 0.8-1.4 1.1-4.4 1.1-5z"/><path class="s" d="m35.5 161.2c2.4 8.8 13.8 15.1 16.6 14.2-3-1.6-5.8-4.1-7.9-7.4-5.3-8.1-4.8-17.9 1.3-21.8q0.8-0.6 1.6-0.9 0-0.1-0.1-0.2c-1.4-1.9-14.6 5-11.5 16.1z"/><path class="j" d="m50 169c0.6 1.7-1.4 4.7-2.5 3.5-1.1-1.2 1.6-3.3 2.5-3.5z"/><path class="k" d="m49.7 169.5c0.5 1.3-1 3.6-1.9 2.7-0.8-0.9 1.3-2.6 1.9-2.7z"/><path class="l" d="m48.5 170.9c0.2 0.4-0.4 1.3-0.7 0.9-0.3-0.3 0.4-0.9 0.7-0.9z"/><path class="j" d="m47.1 165.9c-0.1 1.7-3.1 3.7-3.7 2.1-0.5-1.5 2.8-2.4 3.7-2.1z"/><path class="k" d="m46.7 166.2c-0.1 1.3-2.4 2.8-2.8 1.6-0.4-1.1 2.1-1.8 2.8-1.6z"/><path class="l" d="m45 166.9c0 0.5-0.9 1.1-1 0.6-0.2-0.4 0.7-0.7 1-0.6z"/><path class="j" d="m44.7 161.6c-0.5 1.6-3.8 3-4.1 1.4-0.2-1.6 3.2-1.9 4.1-1.4z"/><path class="k" d="m44.2 161.8c-0.4 1.3-2.9 2.3-3.1 1.1-0.2-1.3 2.4-1.4 3.1-1.1z"/><path class="l" d="m42.4 162.2c-0.2 0.5-1.1 0.8-1.2 0.4 0-0.5 0.9-0.6 1.2-0.4z"/><path class="j" d="m43.8 157.2c-1.2 1.2-4.8 0.8-4.2-0.7 0.5-1.5 3.7-0.1 4.2 0.7z"/><path class="k" d="m43.3 157.1c-0.9 1-3.7 0.7-3.3-0.5 0.4-1.1 2.9 0 3.3 0.5z"/><path class="l" d="m41.5 156.6c-0.3 0.4-1.4 0.3-1.2-0.1 0.2-0.5 1.1-0.1 1.2 0.1z"/><path class="j" d="m45.1 152.9c-1.6 0.7-4.7-1.2-3.5-2.4 1.1-1.1 3.4 1.5 3.5 2.4z"/><path class="k" d="m44.6 152.7c-1.2 0.5-3.5-1-2.6-1.9 0.8-0.8 2.5 1.2 2.6 1.9z"/><path class="l" d="m43.3 151.5c-0.5 0.1-1.4-0.4-1-0.7 0.3-0.3 0.9 0.4 1 0.7z"/></svg>