<svg version="1.2" xmlns="http://www.w3.org/2000/svg" viewBox="0 0 226 204" width="226" height="204"><style>.a{fill:#ef9830}.b{fill:#f9c23a}.c{fill:#ffed4a}.d{fill:#ffe048}</style><path class="a" d="m113.8 180.9c-0.1-3.5-28.9-12.7-32.9-5.7-0.9 1.7 3 24 5.3 26.7 0.8 1.1 2.7 0.2 4.5 0.3 2.2 0.2 4.3 1.1 4.9 0.7 1.1-0.7 18.4-17.3 18.2-22z"/><path class="b" d="m113.4 181c-0.1-3.4-28.2-12.5-32.1-5.6-0.9 1.6 2.9 23.5 5.1 26.1 0.8 1 2.7 0.2 4.5 0.3 2.1 0.2 4.1 1.1 4.7 0.7 1-0.7 18-17 17.8-21.5z"/><path class="c" d="m112.3 180.8c-0.2-3.2-26.4-11.6-30-5.2-0.9 1.5 2.5 22.4 4.6 24.9 0.7 1 2.7-0.4 4.3-0.3 2 0.1 3.3 1.6 3.8 1.2 1.1-0.6 17.5-16.4 17.3-20.6z"/><path class="d" d="m92.8 197.2c1.7-0.1 2.3-9.9 1.5-10.5-0.7-0.7-2.8 10.5-1.5 10.5z"/><path class="d" d="m85.1 186.4c1.6-1.6-2-2.1 0.2-4.2 0.4-0.4 1-0.5 1.5 0 0.2 0.3 0.4 0.6 0.7 0.8 0.5 0.6 1.5 0.4 2-0.1 0.4-0.3 0.5-1.1 0-1.6-0.7-0.7-0.4-4.3 0.1-4.8 1-1 0.9 0.1 1.8 0.3 1.2 0 2.6-2.5 5.7-0.3 0.6 0.5 1.6 0.2 2.6 0.2 0.6 0.1 1 0.7 1.5 1 0.2 0.1 0.8 0.2 0.9 0.3q0.1 0 0.1 0.1c0 1.6-2.2 3.5-0.6 5.2 0.4 0.4 0.9 0.7 1.3 1.1 1.4 1.4-0.5 1.6 0.7 2.9 0.3 0.4 0.9 0.5 1.3 0.9 0.1 0.2 0.1 0.8 0.2 0.9q0.1 0 0.1 0c1.1 0.5 2.2-0.7 3.3-1.8 0.3-0.3 0.8-0.9 1.5-1.6 1.5-2.1 2.5-3.8 2.4-4.9-0.1-3.2-26.3-11.6-30-5.2-0.3 0.7 0.1 5.1 0.9 10q0.1 0.2 0.2 0.3c0.4 0.4 1.1 0.9 1.6 0.5z"/><path class="d" d="m101.8 189.3c0.2 0.1 0.6 0 0.9-0.4 0.3-0.4 0.4-0.8 0.2-1-0.2-0.2-0.6 0-0.9 0.4-0.4 0.4-0.4 0.8-0.2 1z"/><path class="d" d="m86.9 185.3c0.3 0 0.4-0.5 0.3-0.9-0.1-0.5-0.4-0.9-0.7-0.8-0.2 0.1-0.4 0.5-0.2 1 0.1 0.5 0.4 0.8 0.6 0.7z"/><path class="d" d="m89.1 194.9c0.2 0 0.2-1-0.1-2.2-0.2-1.1-0.7-2-0.9-1.9-0.3 0-0.3 1 0 2.2 0.3 1.1 0.7 2 1 1.9z"/><path class="c" d="m102.5 182.5c0.3 0.3 1 0.1 1.6-0.4 0.6-0.6 0.8-1.3 0.4-1.6-0.3-0.3-1-0.1-1.6 0.4-0.5 0.6-0.7 1.3-0.4 1.6z"/><path class="c" d="m107.7 185.6c0.2 0.2 0.6 0.2 0.9 0 0.2-0.3 0.2-0.6 0-0.9-0.3-0.2-0.7-0.2-0.9 0-0.2 0.2-0.2 0.6 0 0.9z"/><path class="b" d="m90 201c-0.3-1.9-1.1-4.3-1.1-4.3l0.6 4.5z"/><path class="b" d="m92.2 200.5c0.5-3 0.5-6.9 0.5-6.9l-1.3 6.9z"/><path class="b" d="m93.7 201.6c1.3-2.8 2.3-6.5 2.3-6.5l-3.2 6.3z"/><path class="d" d="m92.3 180c-0.1 0.6-0.6 2.2-1.5 0.8-0.8-1.4-1.1-1.6-0.8-2.5 0.2-1 0.7-0.8 1.1-0.1 0.4 0.7 1.3 1.2 1.2 1.8z"/><path class="a" d="m182.4 46c-0.1-3.5-28.9-12.8-32.9-5.7-0.9 1.7 3 24 5.2 26.7 0.9 1 2.8 0.2 4.6 0.3 2.2 0.2 4.2 1.1 4.8 0.7 1.1-0.7 18.5-17.4 18.3-22z"/><path class="b" d="m182 46.1c-0.1-3.4-28.2-12.5-32.1-5.6-1 1.6 2.8 23.5 5 26.1 0.8 1 2.7 0.2 4.5 0.3 2.1 0.2 4.1 1.1 4.7 0.7 1.1-0.7 18.1-17 17.9-21.5z"/><path class="c" d="m180.9 45.9c-0.2-3.2-26.4-11.6-30-5.2-0.9 1.5 2.5 22.4 4.6 24.9 0.7 1 2.7-0.4 4.3-0.3 2 0.1 3.3 1.6 3.8 1.2 1-0.6 17.4-16.4 17.3-20.6z"/><path class="d" d="m161.4 62.2c1.7 0 2.2-9.8 1.5-10.4-0.7-0.7-2.8 10.5-1.5 10.4z"/><path class="d" d="m153.6 51.4c1.6-1.5-1.9-2 0.3-4.1 0.4-0.4 1-0.5 1.5 0 0.2 0.3 0.4 0.6 0.6 0.8 0.6 0.6 1.6 0.4 2.1-0.1 0.3-0.3 0.5-1.1 0-1.6-0.7-0.7-0.4-4.3 0-4.8 1.1-1 1 0.1 1.9 0.3 1.2 0 2.6-2.5 5.6-0.3 0.6 0.5 1.7 0.2 2.7 0.2 0.6 0 0.9 0.7 1.5 1 0.2 0.1 0.8 0.1 0.9 0.3q0.1 0 0 0.1c0 1.6-2.2 3.5-0.5 5.2 0.3 0.4 0.9 0.7 1.3 1.1 1.3 1.4-0.6 1.6 0.6 2.9 0.4 0.4 0.9 0.5 1.3 0.9 0.2 0.2 0.2 0.7 0.3 0.9q0 0 0.1 0c1.1 0.5 2.2-0.7 3.3-1.8 0.3-0.3 0.8-0.9 1.5-1.7 1.5-2 2.5-3.7 2.4-4.8-0.1-3.2-26.3-11.6-30-5.2-0.4 0.7 0.1 5.1 0.9 10q0.1 0.1 0.2 0.3c0.4 0.4 1.1 0.9 1.5 0.4z"/><path class="d" d="m170.3 54.4c0.2 0.1 0.7 0 1-0.4 0.3-0.4 0.4-0.8 0.2-1-0.2-0.2-0.7 0-1 0.4-0.3 0.3-0.4 0.8-0.2 1z"/><path class="d" d="m155.5 50.4c0.3 0 0.4-0.5 0.3-1-0.1-0.4-0.4-0.8-0.7-0.7-0.3 0.1-0.4 0.5-0.3 1 0.2 0.4 0.5 0.8 0.7 0.7z"/><path class="d" d="m157.7 60c0.2 0 0.2-1-0.1-2.2-0.3-1.1-0.7-2-1-1.9-0.2 0-0.2 1 0.1 2.2 0.3 1.1 0.7 2 1 1.9z"/><path class="c" d="m171.1 47.6c0.3 0.3 1 0.1 1.6-0.4 0.5-0.6 0.7-1.3 0.4-1.6-0.3-0.3-1-0.2-1.6 0.4-0.5 0.5-0.7 1.3-0.4 1.6z"/><path class="c" d="m176.3 50.7c0.2 0.2 0.6 0.2 0.8 0 0.3-0.3 0.3-0.7 0-0.9-0.2-0.2-0.6-0.2-0.8 0-0.3 0.2-0.3 0.6 0 0.9z"/><path class="b" d="m158.6 66.1c-0.3-1.9-1.1-4.4-1.1-4.4l0.6 4.6z"/><path class="b" d="m160.8 65.6c0.5-3 0.5-6.9 0.5-6.9l-1.4 6.9z"/><path class="b" d="m162.3 66.7c1.3-2.8 2.3-6.5 2.3-6.5l-3.2 6.3z"/><path class="d" d="m160.8 45.1c-0.1 0.6-0.5 2.2-1.4 0.8-0.8-1.4-1.1-1.6-0.8-2.5 0.2-1 0.6-0.8 1-0.1 0.4 0.7 1.3 1.1 1.2 1.8z"/><path class="a" d="m85.2 83.4c-3.3-1.2-23.2 21.5-18.3 27.9 1.1 1.6 23.2 6.9 26.6 5.9 1.2-0.4 1.2-2.5 2.1-4.1 1-2 2.7-3.4 2.5-4.2-0.2-1.3-8.6-23.8-12.9-25.5z"/><path class="b" d="m85.1 83.8c-3.2-1.2-22.7 21-17.9 27.3 1.1 1.5 22.7 6.7 26 5.7 1.2-0.3 1.2-2.4 2-4 1-1.9 2.7-3.3 2.5-4-0.2-1.3-8.4-23.4-12.6-25z"/><path class="c" d="m84.5 84.8c-3-1.1-21.2 19.6-16.7 25.4 1 1.4 21.6 6.6 24.7 5.8 1.1-0.4 0.7-2.7 1.4-4.2 0.9-1.7 2.8-2.3 2.6-3-0.2-1.2-8.1-22.5-12-24z"/><path class="d" d="m91.7 109.2c0.7-1.6-8.1-6-9-5.6-0.8 0.4 8.5 6.7 9 5.6z"/><path class="d" d="m78.7 112c-0.8-2.1-2.6 1-3.7-1.9-0.2-0.5 0-1.1 0.7-1.4 0.3-0.1 0.6-0.1 0.9-0.3 0.8-0.3 1-1.2 0.8-1.8-0.2-0.5-0.8-1-1.5-0.7-0.9 0.3-4.1-1.3-4.4-1.9-0.5-1.4 0.5-0.9 1-1.7 0.5-1-1.3-3.3 2-5.2 0.7-0.4 0.8-1.5 1.2-2.4 0.3-0.5 1-0.6 1.5-1 0.2-0.1 0.5-0.6 0.6-0.7q0.1 0 0.1 0c1.6 0.7 2.4 3.4 4.6 2.6 0.5-0.2 1-0.6 1.5-0.8 1.8-0.7 1.3 1.2 2.9 0.6 0.5-0.2 0.9-0.6 1.4-0.8 0.3-0.1 0.7 0.1 0.9 0q0.1 0 0.1 0c0.8-0.8 0.2-2.3-0.4-3.8-0.1-0.3-0.5-1.1-0.9-2-1.3-2.2-2.5-3.8-3.5-4.1-3-1.2-21.1 19.5-16.7 25.4 0.5 0.6 4.7 2 9.6 3.2q0.1 0 0.3-0.1c0.5-0.2 1.2-0.7 1-1.2z"/><path class="d" d="m88 97.8c0.3-0.1 0.3-0.6 0.1-1-0.2-0.4-0.6-0.7-0.8-0.6-0.3 0.2-0.3 0.6-0.1 1 0.2 0.5 0.6 0.7 0.8 0.6z"/><path class="d" d="m78.5 109.8c0.1-0.2-0.3-0.5-0.7-0.6-0.5-0.1-1 0.1-1 0.4 0 0.2 0.3 0.5 0.8 0.6 0.5 0.1 0.9-0.1 0.9-0.4z"/><path class="d" d="m88.2 111.7c0-0.3-0.9-0.6-2-0.8-1.2-0.2-2.2-0.2-2.2 0.1-0.1 0.2 0.8 0.6 2 0.8 1.2 0.2 2.2 0.2 2.2-0.1z"/><path class="c" d="m82.1 94.4c0.4-0.1 0.6-0.9 0.3-1.6-0.3-0.7-0.9-1.2-1.3-1-0.4 0.2-0.5 0.9-0.3 1.6 0.3 0.7 0.9 1.2 1.3 1z"/><path class="c" d="m87 90.9c0.3-0.1 0.5-0.5 0.4-0.8-0.2-0.3-0.5-0.5-0.8-0.3-0.4 0.1-0.5 0.4-0.4 0.8 0.1 0.3 0.5 0.4 0.8 0.3z"/><path class="b" d="m94.2 113.3c-1.9-0.6-4.5-0.8-4.5-0.8l4.4 1.3z"/><path class="b" d="m94.6 111c-2.6-1.6-6.2-3.2-6.2-3.2l5.8 4z"/><path class="b" d="m96.2 110.1c-2.1-2.3-5.1-4.7-5.1-4.7l4.5 5.4z"/><path class="d" d="m75.8 102.9c0.5 0.3 1.8 1.4 0.2 1.6-1.7 0.2-2 0.4-2.7-0.3-0.8-0.6-0.5-0.9 0.3-1 0.9 0 1.6-0.7 2.2-0.3z"/><path class="a" d="m125 8.3c-0.4-3.5-29.6-11.2-33.2-4-0.9 1.7 4.2 23.8 6.6 26.4 0.9 1 2.8 0.1 4.6 0.1 2.2 0 4.3 0.9 4.9 0.4 1.1-0.7 17.5-18.3 17.1-22.9z"/><path class="b" d="m124.6 8.4c-0.4-3.4-28.9-11-32.5-3.9-0.8 1.7 4.2 23.3 6.5 25.8 0.9 1 2.7 0.1 4.5 0.1 2.1 0 4.2 0.8 4.8 0.4 1-0.8 17.1-17.9 16.7-22.4z"/><path class="c" d="m123.4 8.3c-0.3-3.2-26.9-10.3-30.2-3.6-0.8 1.5 3.7 22.2 5.9 24.6 0.8 0.9 2.7-0.6 4.3-0.6 2 0.1 3.3 1.5 3.9 1.1 1-0.7 16.5-17.4 16.1-21.5z"/><path class="d" d="m104.8 25.6c1.7-0.1 1.7-9.9 1-10.5-0.8-0.6-2.2 10.6-1 10.5z"/><path class="d" d="m96.5 15.2c1.5-1.6-2.1-1.9 0-4.1 0.4-0.4 1-0.6 1.5-0.1 0.3 0.3 0.5 0.5 0.7 0.8 0.6 0.5 1.6 0.3 2-0.2 0.4-0.4 0.5-1.1 0-1.6-0.7-0.7-0.7-4.3-0.2-4.8 0.9-1.1 0.9 0 1.9 0.2 1.1-0.1 2.4-2.7 5.6-0.6 0.6 0.4 1.6 0 2.6 0 0.6 0 1 0.6 1.6 0.9 0.2 0.1 0.8 0.1 0.9 0.3q0.1 0 0 0.1c0.1 1.6-2 3.6-0.3 5.2 0.4 0.3 1 0.6 1.4 1 1.4 1.3-0.4 1.7 0.8 2.9 0.4 0.3 1 0.5 1.4 0.9 0.2 0.1 0.2 0.7 0.3 0.8q0 0 0.1 0c1.1 0.4 2.1-0.8 3.2-2 0.2-0.3 0.8-0.9 1.4-1.7 1.4-2.1 2.2-3.9 2.1-5-0.3-3.1-26.9-10.2-30.2-3.6-0.3 0.7 0.3 5.1 1.4 10q0.1 0.1 0.2 0.2c0.4 0.4 1.2 0.9 1.6 0.4z"/><path class="d" d="m113.3 17.3c0.3 0.1 0.7-0.1 1-0.5 0.2-0.3 0.3-0.8 0.1-1-0.2-0.1-0.6 0.1-0.9 0.5-0.3 0.3-0.4 0.8-0.2 1z"/><path class="d" d="m98.3 14.1c0.3-0.1 0.4-0.5 0.2-1-0.1-0.4-0.4-0.8-0.7-0.7-0.2 0.1-0.3 0.5-0.2 1 0.1 0.5 0.5 0.8 0.7 0.7z"/><path class="d" d="m101 23.6c0.2-0.1 0.2-1.1-0.2-2.2-0.3-1.1-0.8-2-1.1-1.9-0.2 0.1-0.2 1 0.2 2.2 0.3 1.1 0.8 2 1.1 1.9z"/><path class="c" d="m113.7 10.4c0.4 0.4 1.1 0.1 1.6-0.4 0.5-0.6 0.7-1.3 0.3-1.7-0.3-0.3-1 0-1.5 0.5-0.6 0.6-0.7 1.3-0.4 1.6z"/><path class="c" d="m119.1 13.2c0.2 0.3 0.6 0.3 0.8 0 0.3-0.2 0.2-0.6 0-0.9-0.3-0.2-0.7-0.2-0.9 0.1-0.2 0.2-0.2 0.6 0.1 0.8z"/><path class="b" d="m102.3 29.6c-0.5-1.9-1.4-4.3-1.4-4.3l0.8 4.6z"/><path class="b" d="m104.4 29c0.4-3 0.1-6.9 0.1-6.9l-1 7z"/><path class="b" d="m105.9 30c1.2-2.8 2-6.6 2-6.6l-2.8 6.4z"/><path class="d" d="m103.4 8.5c-0.1 0.6-0.5 2.3-1.4 0.9-1-1.4-1.2-1.5-1-2.5 0.2-1 0.6-0.8 1.1-0.1 0.4 0.7 1.3 1.1 1.3 1.7z"/><path class="a" d="m153.9 180.3c-1.3 3.3 20.8 23.8 27.4 19.1 1.6-1.1 7.5-23 6.6-26.4-0.3-1.3-2.4-1.3-4-2.2-1.9-1.1-3.4-2.8-4.1-2.7-1.3 0.2-24.1 8-25.9 12.2z"/><path class="b" d="m154.3 180.4c-1.3 3.2 20.3 23.3 26.8 18.7 1.5-1.1 7.3-22.5 6.4-25.8-0.3-1.3-2.4-1.3-3.9-2.2-1.9-1-3.3-2.7-4-2.6-1.3 0.2-23.6 7.8-25.3 11.9z"/><path class="c" d="m155.3 181.1c-1.2 3 18.9 21.7 25 17.4 1.4-1 7.1-21.4 6.3-24.5-0.3-1.2-2.6-0.8-4-1.6-1.8-0.9-2.3-2.8-3-2.7-1.2 0.2-22.7 7.5-24.3 11.4z"/><path class="d" d="m179.9 174.5c-1.6-0.7-6.3 8-5.9 8.9 0.4 0.8 7-8.4 5.9-8.9z"/><path class="d" d="m182.3 187.6c-2.1 0.7 0.9 2.6-2 3.7-0.5 0.1-1.1 0-1.3-0.7-0.1-0.3-0.2-0.7-0.3-1-0.3-0.8-1.2-1-1.9-0.8-0.5 0.2-0.9 0.8-0.7 1.5 0.3 0.9-1.4 4-2 4.3-1.4 0.4-0.9-0.5-1.6-1.1-1-0.5-3.4 1.3-5.2-2.1-0.4-0.7-1.5-0.8-2.4-1.2-0.5-0.4-0.5-1.1-0.9-1.6-0.2-0.2-0.7-0.5-0.7-0.7q0 0 0-0.1c0.7-1.5 3.5-2.2 2.7-4.4-0.2-0.5-0.5-1-0.7-1.6-0.6-1.8 1.2-1.2 0.6-2.9-0.2-0.5-0.6-0.9-0.7-1.4-0.1-0.2 0.1-0.7 0.1-0.9q-0.1 0-0.1 0c-0.8-0.9-2.3-0.3-3.8 0.2-0.3 0.2-1.1 0.5-2 0.9-2.2 1.2-3.8 2.4-4.2 3.3-1.3 3 18.9 21.7 24.9 17.4 0.7-0.4 2.1-4.6 3.5-9.4q0-0.2-0.1-0.3c-0.2-0.6-0.6-1.3-1.2-1.1z"/><path class="d" d="m168.4 177.9c-0.1-0.3-0.6-0.3-1-0.1-0.5 0.2-0.7 0.6-0.6 0.8 0.1 0.3 0.6 0.3 1 0.1 0.4-0.2 0.7-0.6 0.6-0.8z"/><path class="d" d="m180.1 187.7c-0.2 0-0.5 0.3-0.6 0.8-0.1 0.5 0 0.9 0.3 0.9 0.3 0.1 0.6-0.2 0.7-0.7 0.1-0.5-0.1-0.9-0.4-1z"/><path class="d" d="m182.3 178.1c-0.3 0-0.7 0.9-0.9 2-0.3 1.2-0.2 2.2 0 2.2 0.3 0.1 0.7-0.8 0.9-2 0.3-1.1 0.2-2.1 0-2.2z"/><path class="c" d="m164.8 183.7c-0.1-0.4-0.8-0.6-1.6-0.3-0.7 0.3-1.2 0.8-1 1.3 0.1 0.4 0.9 0.5 1.6 0.3 0.7-0.3 1.2-0.9 1-1.3z"/><path class="c" d="m161.4 178.7c-0.1-0.3-0.4-0.5-0.7-0.3-0.4 0.1-0.5 0.4-0.4 0.7 0.1 0.4 0.5 0.5 0.8 0.4 0.3-0.1 0.5-0.5 0.3-0.8z"/><path class="b" d="m184 172.2c-0.6 1.9-0.8 4.4-0.8 4.4l1.4-4.4z"/><path class="b" d="m181.8 171.7c-1.8 2.5-3.4 6.1-3.4 6.1l4.2-5.7z"/><path class="b" d="m180.9 170.1c-2.3 2-4.8 4.9-4.8 4.9l5.5-4.3z"/><path class="d" d="m173.1 190.3c0.3-0.5 1.4-1.8 1.6-0.1 0.2 1.6 0.3 1.9-0.3 2.6-0.6 0.8-0.9 0.5-1-0.4 0-0.8-0.7-1.6-0.3-2.1z"/><path class="a" d="m151.4 116.1c-1.3 3.2 20.8 23.8 27.5 19.1 1.5-1.1 7.4-23 6.5-26.5-0.3-1.2-2.4-1.3-4-2.2-1.9-1-3.4-2.8-4.1-2.6-1.3 0.1-24.1 7.9-25.9 12.2z"/><path class="b" d="m151.8 116.2c-1.3 3.1 20.4 23.2 26.8 18.6 1.5-1.1 7.3-22.4 6.5-25.8-0.4-1.2-2.4-1.3-4-2.1-1.8-1.1-3.3-2.8-4-2.7-1.2 0.2-23.5 7.8-25.3 12z"/><path class="c" d="m152.8 116.8c-1.2 3 19 21.7 25 17.4 1.4-1 7.2-21.4 6.4-24.5-0.3-1.2-2.7-0.8-4.1-1.5-1.7-1-2.3-2.9-2.9-2.8-1.2 0.2-22.8 7.5-24.4 11.4z"/><path class="d" d="m177.4 110.3c-1.6-0.7-6.2 7.9-5.8 8.8 0.3 0.9 6.9-8.3 5.8-8.8z"/><path class="d" d="m179.8 123.3c-2.1 0.8 1 2.7-2 3.7-0.5 0.2-1 0-1.3-0.7-0.1-0.3-0.2-0.6-0.3-1-0.3-0.7-1.2-1-1.8-0.8-0.5 0.2-1 0.8-0.8 1.5 0.4 0.9-1.4 4.1-2 4.3-1.4 0.5-0.8-0.5-1.6-1-1-0.5-3.4 1.2-5.2-2.1-0.4-0.7-1.4-0.9-2.3-1.3-0.6-0.3-0.6-1-1-1.5-0.1-0.2-0.6-0.5-0.7-0.7q0-0.1 0-0.1c0.7-1.5 3.5-2.3 2.7-4.5-0.1-0.5-0.5-1-0.7-1.5-0.6-1.9 1.2-1.3 0.7-2.9-0.2-0.6-0.6-0.9-0.8-1.4-0.1-0.3 0.2-0.8 0.1-1q0 0 0 0c-0.9-0.9-2.4-0.3-3.8 0.3-0.4 0.1-1.2 0.4-2.1 0.8-2.2 1.2-3.8 2.4-4.2 3.4-1.2 2.9 18.9 21.7 25 17.4 0.6-0.5 2.1-4.6 3.4-9.5q0-0.1 0-0.3c-0.2-0.5-0.7-1.3-1.3-1.1z"/><path class="d" d="m165.9 113.6c-0.1-0.2-0.5-0.3-1-0.1-0.4 0.3-0.7 0.6-0.6 0.9 0.1 0.2 0.6 0.2 1 0 0.5-0.2 0.7-0.5 0.6-0.8z"/><path class="d" d="m177.7 123.5c-0.3-0.1-0.6 0.3-0.7 0.7-0.1 0.5 0.1 0.9 0.3 1 0.3 0 0.6-0.3 0.7-0.8 0.1-0.5-0.1-0.9-0.3-0.9z"/><path class="d" d="m179.8 113.9c-0.3-0.1-0.7 0.8-0.9 2-0.2 1.1-0.2 2.1 0.1 2.2 0.2 0 0.6-0.9 0.9-2 0.2-1.2 0.2-2.2-0.1-2.2z"/><path class="c" d="m162.4 119.4c-0.2-0.4-0.9-0.5-1.6-0.3-0.8 0.3-1.3 0.9-1.1 1.3 0.2 0.4 0.9 0.6 1.6 0.3 0.8-0.3 1.2-0.8 1.1-1.3z"/><path class="c" d="m159 114.5c-0.1-0.4-0.5-0.5-0.8-0.4-0.3 0.1-0.5 0.5-0.4 0.8 0.1 0.3 0.5 0.5 0.8 0.3 0.3-0.1 0.5-0.4 0.4-0.7z"/><path class="b" d="m181.5 107.9c-0.5 1.9-0.8 4.5-0.8 4.5l1.4-4.4z"/><path class="b" d="m179.3 107.4c-1.7 2.6-3.3 6.1-3.3 6.1l4.1-5.7z"/><path class="b" d="m178.5 105.8c-2.4 2-4.9 5-4.9 5l5.5-4.4z"/><path class="d" d="m170.6 126c0.3-0.5 1.5-1.7 1.6-0.1 0.2 1.6 0.4 1.9-0.3 2.7-0.6 0.7-0.9 0.4-1-0.4 0-0.9-0.7-1.6-0.3-2.2z"/><path class="a" d="m0.9 100.4c-1.3 3.2 20.8 23.8 27.4 19.1 1.6-1.1 7.5-23 6.6-26.5-0.3-1.2-2.4-1.3-4-2.2-1.9-1-3.4-2.7-4.1-2.6-1.3 0.2-24.1 7.9-25.9 12.2z"/><path class="b" d="m1.3 100.5c-1.3 3.2 20.3 23.2 26.8 18.6 1.5-1 7.3-22.4 6.4-25.8-0.3-1.2-2.3-1.3-3.9-2.1-1.9-1.1-3.3-2.8-4-2.6-1.3 0.1-23.6 7.7-25.3 11.9z"/><path class="c" d="m2.3 101.1c-1.2 3 18.9 21.7 25 17.4 1.4-1 7.2-21.4 6.4-24.5-0.3-1.1-2.7-0.7-4.1-1.5-1.8-1-2.3-2.8-3-2.8-1.2 0.2-22.7 7.6-24.3 11.4z"/><path class="d" d="m26.9 94.6c-1.6-0.7-6.2 7.9-5.9 8.8 0.4 0.9 7-8.3 5.9-8.8z"/><path class="d" d="m29.3 107.6c-2.1 0.8 0.9 2.7-2 3.7-0.5 0.2-1.1 0-1.3-0.7-0.1-0.3-0.2-0.6-0.3-0.9-0.3-0.8-1.2-1.1-1.8-0.8-0.6 0.1-1 0.7-0.8 1.4 0.3 0.9-1.4 4.1-2 4.3-1.4 0.5-0.9-0.5-1.6-1-1-0.5-3.4 1.2-5.2-2.1-0.4-0.7-1.5-0.9-2.3-1.3-0.6-0.3-0.6-1-1-1.5-0.2-0.2-0.6-0.5-0.7-0.7q0-0.1 0-0.1c0.7-1.5 3.5-2.3 2.7-4.5-0.2-0.5-0.5-1-0.7-1.5-0.6-1.9 1.2-1.3 0.6-2.9-0.2-0.5-0.6-0.9-0.7-1.4-0.1-0.3 0.1-0.7 0.1-0.9q0-0.1-0.1-0.1c-0.8-0.9-2.3-0.2-3.7 0.3-0.4 0.1-1.2 0.4-2.1 0.8-2.2 1.2-3.8 2.4-4.2 3.4-1.3 2.9 18.9 21.7 24.9 17.4 0.7-0.4 2.1-4.6 3.5-9.5q0-0.1-0.1-0.3c-0.2-0.5-0.6-1.3-1.2-1.1z"/><path class="d" d="m15.4 97.9c-0.1-0.2-0.6-0.2-1 0-0.4 0.2-0.7 0.5-0.6 0.8 0.1 0.2 0.6 0.3 1 0 0.5-0.2 0.7-0.5 0.6-0.8z"/><path class="d" d="m27.2 107.8c-0.3-0.1-0.6 0.3-0.7 0.7-0.1 0.5 0.1 0.9 0.3 1 0.3 0 0.6-0.3 0.7-0.8 0.1-0.4-0.1-0.9-0.3-0.9z"/><path class="d" d="m29.3 98.2c-0.3-0.1-0.7 0.8-0.9 2-0.2 1.1-0.2 2.1 0.1 2.2 0.2 0 0.6-0.9 0.8-2 0.3-1.2 0.2-2.2 0-2.2z"/><path class="c" d="m11.9 103.8c-0.2-0.5-0.9-0.6-1.7-0.4-0.7 0.3-1.2 0.9-1 1.3 0.1 0.4 0.9 0.6 1.6 0.3 0.7-0.2 1.2-0.8 1.1-1.2z"/><path class="c" d="m8.5 98.8c-0.2-0.3-0.5-0.5-0.8-0.4-0.3 0.1-0.5 0.5-0.4 0.8 0.1 0.3 0.5 0.5 0.8 0.4 0.3-0.2 0.5-0.5 0.4-0.8z"/><path class="b" d="m31 92.2c-0.6 1.9-0.8 4.5-0.8 4.5l1.4-4.4z"/><path class="b" d="m28.8 91.7c-1.7 2.6-3.4 6.1-3.4 6.1l4.2-5.7z"/><path class="b" d="m27.9 90.1c-2.3 2-4.8 5-4.8 5l5.5-4.4z"/><path class="d" d="m20.1 110.3c0.3-0.4 1.4-1.7 1.6-0.1 0.2 1.6 0.4 1.9-0.3 2.7-0.6 0.7-0.9 0.4-1-0.4 0-0.8-0.7-1.6-0.3-2.2z"/><path class="a" d="m190 84.3c-1.3 3.3 20.8 23.8 27.4 19.1 1.6-1.1 7.5-23 6.6-26.4-0.3-1.3-2.5-1.3-4-2.2-1.9-1.1-3.4-2.8-4.1-2.7-1.3 0.2-24.1 7.9-25.9 12.2z"/><path class="b" d="m190.4 84.4c-1.3 3.2 20.3 23.3 26.8 18.7 1.5-1.1 7.3-22.5 6.4-25.8-0.3-1.3-2.4-1.3-3.9-2.2-1.9-1-3.3-2.7-4-2.6-1.3 0.2-23.6 7.8-25.3 11.9z"/><path class="c" d="m191.4 85.1c-1.2 2.9 18.9 21.7 24.9 17.4 1.5-1 7.2-21.4 6.4-24.6-0.3-1.1-2.6-0.7-4-1.5-1.8-1-2.3-2.8-3-2.7-1.2 0.1-22.7 7.5-24.3 11.4z"/><path class="d" d="m216 78.5c-1.6-0.7-6.3 7.9-5.9 8.8 0.4 0.9 7-8.3 5.9-8.8z"/><path class="d" d="m218.4 91.6c-2.1 0.7 0.9 2.6-2 3.6-0.5 0.2-1.1 0.1-1.3-0.6-0.1-0.3-0.2-0.7-0.3-1-0.3-0.8-1.2-1-1.9-0.8-0.5 0.2-0.9 0.8-0.7 1.5 0.3 0.9-1.4 4-2 4.3-1.4 0.4-0.9-0.5-1.6-1.1-1.1-0.5-3.4 1.2-5.2-2.1-0.4-0.7-1.5-0.8-2.4-1.2-0.5-0.4-0.5-1.1-0.9-1.6-0.2-0.2-0.7-0.5-0.7-0.7q0 0 0-0.1c0.7-1.5 3.5-2.3 2.7-4.4-0.2-0.5-0.5-1-0.7-1.6-0.7-1.8 1.2-1.3 0.6-2.9-0.2-0.5-0.6-0.9-0.8-1.4 0-0.3 0.2-0.7 0.1-0.9q0 0 0-0.1c-0.8-0.8-2.3-0.2-3.8 0.3-0.3 0.1-1.1 0.4-2 0.9-2.2 1.2-3.9 2.4-4.3 3.3-1.2 3 19 21.7 25 17.4 0.7-0.4 2.1-4.6 3.5-9.4q0-0.2-0.1-0.3c-0.2-0.6-0.6-1.3-1.2-1.1z"/><path class="d" d="m204.5 81.9c-0.1-0.3-0.6-0.3-1-0.1-0.5 0.2-0.7 0.6-0.6 0.8 0.1 0.3 0.6 0.3 1 0.1 0.4-0.2 0.7-0.6 0.6-0.8z"/><path class="d" d="m216.2 91.7c-0.2 0-0.5 0.3-0.6 0.8-0.1 0.4 0 0.9 0.3 0.9 0.3 0.1 0.6-0.3 0.7-0.7 0-0.5-0.1-0.9-0.4-1z"/><path class="d" d="m218.4 82.1c-0.3-0.1-0.7 0.8-0.9 2-0.3 1.2-0.2 2.2 0 2.2 0.3 0.1 0.7-0.8 0.9-2 0.3-1.2 0.2-2.1 0-2.2z"/><path class="c" d="m200.9 87.7c-0.1-0.4-0.8-0.6-1.6-0.3-0.7 0.2-1.2 0.8-1 1.2 0.1 0.5 0.8 0.6 1.6 0.4 0.7-0.3 1.2-0.9 1-1.3z"/><path class="c" d="m197.5 82.7c-0.1-0.3-0.4-0.5-0.7-0.4-0.4 0.2-0.5 0.5-0.4 0.8 0.1 0.3 0.5 0.5 0.8 0.4 0.3-0.1 0.5-0.5 0.3-0.8z"/><path class="b" d="m220.1 76.1c-0.6 2-0.9 4.5-0.9 4.5l1.5-4.4z"/><path class="b" d="m217.9 75.7c-1.8 2.5-3.4 6-3.4 6l4.2-5.6z"/><path class="b" d="m217 74.1c-2.3 2-4.9 4.9-4.9 4.9l5.6-4.3z"/><path class="d" d="m209.2 94.3c0.3-0.5 1.4-1.8 1.6-0.2 0.2 1.7 0.3 2-0.3 2.7-0.6 0.8-0.9 0.4-1-0.4-0.1-0.8-0.7-1.6-0.3-2.1z"/><path class="a" d="m19.9 135.9c-3.4 0.9-6.6 31.4 1.2 33.9 1.9 0.5 23.2-8 25.5-10.8 0.8-1-0.4-2.8-0.7-4.6-0.3-2.2 0.2-4.4-0.3-5-1-0.9-21.1-14.7-25.7-13.5z"/><path class="b" d="m19.9 136.4c-3.4 0.9-6.5 30.6 1.2 33.1 1.8 0.6 22.6-7.8 24.9-10.5 0.8-1-0.5-2.7-0.7-4.5-0.3-2.1 0.2-4.3-0.3-4.8-0.9-1-20.7-14.4-25.1-13.3z"/><path class="c" d="m20.2 137.7c-3.1 0.8-5.9 28.2 1.1 30.4 1.7 0.6 21.4-7.1 23.5-9.6 0.7-0.9-1-2.5-1.2-4.2-0.3-1.9 0.8-3.5 0.4-4-0.9-0.8-19.7-13.6-23.8-12.6z"/><path class="d" d="m40.2 153.4c-0.3-1.6-10-0.2-10.5 0.7-0.5 0.8 10.8 0.5 10.5-0.7z"/><path class="d" d="m31.3 163.2c-1.9-1.2-1.6 2.4-4.2 0.7-0.4-0.3-0.6-0.9-0.2-1.5 0.2-0.3 0.4-0.6 0.6-0.8 0.5-0.7 0.1-1.6-0.5-2-0.4-0.3-1.2-0.3-1.6 0.3-0.5 0.8-4.1 1.3-4.7 0.9-1.1-0.7-0.1-0.9-0.1-1.9-0.2-1.1-3-1.9-1.4-5.4 0.3-0.7-0.2-1.6-0.4-2.6-0.1-0.6 0.5-1.1 0.6-1.7 0.1-0.2 0.1-0.8 0.2-1q0 0 0.1 0c1.6-0.3 3.9 1.4 5.1-0.5 0.4-0.5 0.6-1 0.9-1.5 1-1.6 1.7 0.2 2.6-1.2 0.4-0.5 0.4-1.1 0.7-1.5 0.2-0.3 0.7-0.3 0.8-0.5q0 0 0 0c0.2-1.2-1.2-2.1-2.4-2.9-0.4-0.2-1.1-0.7-2-1.1-2.3-1.1-4.2-1.7-5.2-1.4-3.1 0.8-6 28.2 1.1 30.4 0.7 0.3 4.9-1.1 9.6-2.9q0.1-0.1 0.2-0.2c0.4-0.5 0.7-1.3 0.2-1.7z"/><path class="d" d="m30 148.9c0-0.4-0.8-0.7-1.7-0.5-1 0.1-1.6 0.6-1.6 1 0.1 0.4 0.9 0.7 1.8 0.5 0.9-0.1 1.6-0.6 1.5-1z"/><path class="d" d="m23.6 158.9c0-0.5-0.5-0.8-1.1-0.8-0.5 0.1-0.9 0.6-0.8 1.1 0.1 0.5 0.6 0.9 1.1 0.8 0.5-0.1 0.9-0.6 0.8-1.1z"/><path class="d" d="m34.2 159.4c-0.1-0.6-1-0.8-2.1-0.7-1.2 0.2-2 0.8-1.9 1.3 0.1 0.5 1 0.8 2.1 0.6 1.2-0.2 2-0.7 1.9-1.2z"/><path class="b" d="m44.4 152.1c-0.8-0.2-2.9-0.4-2.7-0.8 0.1-0.5 2.9 0 2.9 0z"/><path class="b" d="m45.5 157.1c-0.8 0.4-2.5 1.6-2.7 1.1-0.2-0.4 2.2-1.8 2.2-1.8z"/><path class="b" d="m44.4 154.6c-0.8 0-4.5 0.3-4.5-0.2 0.1-0.5 4.5-0.6 4.5-0.6z"/><path class="a" d="m30.7 29.3c-3.4 0.9-6.6 31.4 1.2 33.9 1.8 0.6 23.2-8 25.4-10.8 0.9-1-0.4-2.8-0.6-4.6-0.3-2.2 0.2-4.4-0.3-4.9-1-1-21.2-14.7-25.7-13.6z"/><path class="b" d="m30.7 29.8c-3.4 0.9-6.5 30.7 1.2 33.1 1.8 0.6 22.6-7.7 24.8-10.5 0.8-1-0.4-2.7-0.6-4.5-0.3-2.1 0.2-4.3-0.3-4.8-1-0.9-20.7-14.4-25.1-13.3z"/><path class="c" d="m31 31.2c-3.1 0.8-5.9 28.1 1.1 30.4 1.6 0.5 21.4-7.1 23.4-9.7 0.8-0.9-0.9-2.5-1.2-4.1-0.2-2 0.9-3.6 0.4-4-0.8-0.9-19.6-13.7-23.7-12.6z"/><path class="d" d="m51 46.9c-0.4-1.7-10.1-0.2-10.5 0.6-0.5 0.8 10.8 0.6 10.5-0.6z"/><path class="d" d="m42 56.7c-1.8-1.3-1.5 2.3-4.1 0.6-0.4-0.3-0.7-0.9-0.2-1.5 0.1-0.3 0.4-0.5 0.6-0.8 0.4-0.7 0-1.6-0.5-2-0.5-0.3-1.2-0.3-1.6 0.3-0.6 0.8-4.1 1.4-4.7 1-1.2-0.8-0.1-1-0.1-1.9-0.2-1.1-3-2-1.4-5.5 0.3-0.7-0.2-1.6-0.4-2.6-0.1-0.6 0.5-1.1 0.6-1.6 0.1-0.3 0-0.9 0.1-1q0.1-0.1 0.1-0.1c1.7-0.3 3.9 1.4 5.2-0.5 0.3-0.4 0.5-1 0.9-1.5 1-1.6 1.7 0.2 2.6-1.2 0.3-0.5 0.4-1 0.7-1.5 0.1-0.2 0.7-0.3 0.8-0.5q0 0 0 0c0.2-1.2-1.2-2-2.5-2.9-0.3-0.2-1-0.6-1.9-1.1-2.3-1.1-4.2-1.6-5.2-1.4-3.1 0.8-6 28.2 1.1 30.4 0.7 0.3 4.9-1.1 9.6-2.9q0.1-0.1 0.2-0.2c0.3-0.5 0.6-1.3 0.1-1.6z"/><path class="d" d="m40.8 42.3c-0.1-0.4-0.9-0.6-1.8-0.5-0.9 0.1-1.6 0.6-1.5 1 0.1 0.5 0.9 0.7 1.8 0.6 0.9-0.2 1.6-0.6 1.5-1.1z"/><path class="d" d="m34.4 52.4c-0.1-0.6-0.6-0.9-1.1-0.8-0.5 0.1-0.9 0.5-0.8 1.1 0.1 0.5 0.6 0.8 1.1 0.7 0.5 0 0.9-0.5 0.8-1z"/><path class="d" d="m45 52.8c-0.1-0.5-1.1-0.8-2.2-0.6-1.1 0.1-1.9 0.7-1.8 1.2 0 0.5 1 0.8 2.1 0.6 1.1-0.1 2-0.7 1.9-1.2z"/><path class="b" d="m55.2 45.6c-0.8-0.2-2.9-0.5-2.8-0.9 0.2-0.5 2.9 0 2.9 0z"/><path class="b" d="m56.3 50.5c-0.8 0.4-2.5 1.6-2.7 1.2-0.2-0.5 2.2-1.9 2.2-1.9z"/><path class="b" d="m55.2 48c-0.9 0-4.5 0.3-4.5-0.2 0-0.5 4.5-0.6 4.5-0.6z"/></svg>