<svg version="1.2" xmlns="http://www.w3.org/2000/svg" viewBox="0 0 260 214" width="260" height="214"><style>.a{fill:#a55c42}.b{fill:#723421}.c{fill:#97a546}.d{fill:#ffb850}.e{fill:#e5543c}.f{fill:#7f4138}</style><path class="a" d="m107.6 156.4l-3.3 1.1 2.9 10.4 5.1-1.6z"/><path class="b" d="m102 118.9l-1.8 0.6 3.4 11.1 2.7-1z"/><path class="c" d="m148.3 132.5l-4 1.3 3.8 13.3 6-2z"/><path class="c" d="m146.7 133.2l-3.5-2.3-8.3 11 5.2 3.6z"/><path class="c" d="m148.6 129l-2.5 3.4 10.9 8.6 3.7-5.1z"/><path class="c" d="m143.7 123.4l-1.8 0.6 3.4 11.1 2.7-0.9z"/><path class="c" d="m59 131.1l-2.7-1.7-5.7 8.4 3.9 2.5z"/><path class="c" d="m57.8 130.5l-0.3-3.1-10.2 0.4 0.4 4.6z"/><path class="c" d="m61.1 129.6l-3.1 0.2 0.2 10.2 4.6-0.3z"/><path class="c" d="m62 124.2l-1.2-0.8-4.7 7.1 1.8 1.2z"/><path class="c" d="m107.9 44.6l2.6-1.6-5.2-8.8-3.9 2.5z"/><path class="c" d="m108.9 43.8l2.9 1.1 3.9-9.4-4.3-1.6z"/><path class="c" d="m108.3 47.2l1.2-2.9-9.4-4.1-1.6 4.3z"/><path class="c" d="m112.9 50.3l1.1-0.8-4.4-7.3-1.8 1.2z"/><path class="c" d="m186.3 15.2l2.6-1.7-5.2-8.8-3.9 2.6z"/><path class="c" d="m187.3 14.4l2.9 1.1 4-9.4-4.4-1.6z"/><path class="c" d="m186.7 17.8l1.2-2.9-9.4-4.2-1.6 4.4z"/><path class="c" d="m191.3 20.9l1.1-0.8-4.4-7.3-1.8 1.2z"/><path class="b" d="m151.8 22.8l-0.5 1.9 15.1 4.4 0.7-2.8z"/><path class="a" d="m65.9 96.4l-3.6-3.7-5.8 4.6 5.4 5.5z"/><path class="d" d="m131.4 96.4c-0.6-1.8-2.2-2.8-3.5-2.4-1.4 0.5-2 2.3-1.5 4.1 0.6 1.7 2.2 2.8 3.6 2.3 1.4-0.4 2-2.2 1.4-4z"/><path class="d" d="m213.4 87.8c-1.1-3.3-3.9-5.3-6.2-4.6-2.4 0.8-3.4 4.2-2.3 7.5 1.2 3.3 4 5.4 6.3 4.6 2.4-0.8 3.4-4.1 2.2-7.5z"/><path class="e" d="m179.5 60.2c-0.6-1.6-2.3-2.6-3.8-2.1-1.5 0.5-2.3 2.3-1.7 3.9 0.5 1.7 2.2 2.6 3.7 2.1 1.5-0.5 2.3-2.2 1.8-3.9z"/><path class="e" d="m161.7 170.6c-0.6-1.7-2.3-2.6-3.8-2.1-1.5 0.5-2.3 2.3-1.7 3.9 0.5 1.7 2.2 2.6 3.7 2.1 1.6-0.5 2.3-2.3 1.8-3.9z"/><path class="e" d="m91.5 70.4c-0.6-1.7-2.3-2.6-3.8-2.1-1.5 0.5-2.3 2.3-1.7 3.9 0.5 1.7 2.2 2.6 3.7 2.1 1.5-0.5 2.3-2.2 1.8-3.9z"/><path class="f" d="m48.8 172.5c-0.5-1.6-2.2-2.6-3.7-2.1-1.5 0.5-2.3 2.3-1.7 4 0.5 1.6 2.2 2.6 3.7 2.1 1.5-0.5 2.3-2.3 1.7-4z"/><path class="f" d="m172.3 100c-0.5-1.6-2.2-2.6-3.7-2.1-1.6 0.6-2.3 2.3-1.8 4 0.6 1.6 2.3 2.6 3.8 2.1 1.5-0.5 2.3-2.3 1.7-4z"/><path class="f" d="m102.2 2.6c-0.5-1.7-2.2-2.6-3.7-2.1-1.5 0.5-2.3 2.2-1.8 3.9 0.6 1.7 2.3 2.6 3.8 2.1 1.5-0.5 2.3-2.3 1.7-3.9z"/><path class="d" d="m81.8 157.2c-1.1-3.4-3.9-5.4-6.2-4.6-2.4 0.7-3.4 4.1-2.3 7.4 1.1 3.3 3.9 5.4 6.3 4.6 2.3-0.8 3.3-4.1 2.2-7.4z"/><path class="d" d="m81.9 43.9c-0.8-2.3-2.9-3.6-4.8-3-1.8 0.6-2.7 3-2 5.2 0.8 2.3 2.9 3.6 4.8 3 1.8-0.7 2.7-3 2-5.2z"/><path class="d" d="m35.5 80.7c-0.7-2.1-2.5-3.3-4.1-2.8-1.5 0.5-2.3 2.6-1.6 4.7 0.7 2 2.5 3.3 4.1 2.7 1.6-0.5 2.3-2.6 1.6-4.6z"/><path class="b" d="m20.1 50.2c-0.4 0.8-0.1 1.7 0.7 2.1 0.8 0.4 1.7 0.1 2.1-0.7 0.4-0.8 0.1-1.8-0.6-2.1-0.8-0.4-1.7-0.1-2.2 0.7z"/><path class="b" d="m61.2 56.3c-0.2 0.5-0.1 1.1 0.4 1.3 0.5 0.3 1.1 0.1 1.3-0.4 0.3-0.5 0.1-1.1-0.4-1.3-0.4-0.3-1-0.1-1.3 0.4z"/><path class="b" d="m248.7 42.7c-1.6-1.2-3.9-0.8-5.1 0.8-1.1 1.6-0.8 3.9 0.9 5 1.6 1.2 3.8 0.8 5-0.8 1.2-1.6 0.8-3.9-0.8-5z"/><path class="b" d="m124.7 181.8c2.3-0.8 3.8-3.4 3.2-5.9-0.5-2.5-2.8-3.8-5.2-3-2.3 0.8-3.8 3.5-3.2 5.9 0.5 2.5 2.8 3.8 5.2 3z"/><path class="b" d="m247.7 56c-0.5-0.4-1.3-0.3-1.7 0.3-0.4 0.5-0.2 1.2 0.3 1.6 0.5 0.4 1.3 0.3 1.7-0.2 0.4-0.6 0.2-1.3-0.3-1.7z"/><path class="b" d="m252.3 12.1c0.3-0.7 0-1.6-0.7-2-0.8-0.3-1.7 0-2 0.8-0.4 0.7-0.1 1.6 0.7 2 0.7 0.3 1.6 0 2-0.8z"/><path class="b" d="m178.5 210.7c-0.3-0.8-1.1-1.1-1.8-0.8-0.8 0.4-1.1 1.3-0.9 2.1 0.3 0.8 1.1 1.2 1.9 0.8 0.7-0.4 1.1-1.3 0.8-2.1z"/><path class="b" d="m102 212.6c0.7 0.4 1.6 0.2 2-0.6 0.5-0.8 0.3-1.7-0.3-2.2-0.7-0.4-1.6-0.2-2.1 0.6-0.4 0.8-0.3 1.7 0.4 2.2z"/><path class="b" d="m226.8 120.2c2 1.4 4.8 0.9 6.2-1.1 1.5-2.1 1-4.9-1.1-6.3-2-1.4-4.8-0.9-6.2 1.2-1.5 2-1 4.8 1.1 6.2z"/><path class="b" d="m214.6 136c1.2 0.8 2.8 0.5 3.7-0.7 0.8-1.2 0.5-2.8-0.7-3.7-1.2-0.8-2.8-0.5-3.6 0.7-0.9 1.2-0.6 2.9 0.6 3.7z"/><path class="b" d="m86.3 181.5c0.7 0.5 1.6 0.3 2.1-0.4 0.5-0.7 0.3-1.6-0.4-2.1-0.6-0.4-1.6-0.3-2.1 0.4-0.4 0.7-0.3 1.6 0.4 2.1z"/><path class="b" d="m180.3 144.4c1.1 0.8 2.7 0.5 3.5-0.7 0.8-1.1 0.5-2.7-0.6-3.5-1.2-0.8-2.7-0.5-3.5 0.7-0.8 1.1-0.6 2.7 0.6 3.5z"/><path class="b" d="m234.5 117.3c0.3 0.2 0.8 0.1 1-0.2 0.2-0.4 0.2-0.8-0.2-1.1-0.3-0.2-0.8-0.1-1 0.2-0.3 0.4-0.2 0.8 0.2 1.1z"/><path class="b" d="m236.7 30.7c0.4-0.8 0-1.7-0.7-2-0.8-0.3-1.7 0.1-2 0.9-0.3 0.7 0 1.6 0.8 1.9 0.7 0.3 1.6 0 1.9-0.8z"/><path class="b" d="m250.3 3.3c-0.5-0.4-1.3-0.2-1.7 0.3-0.4 0.6-0.2 1.3 0.3 1.7 0.5 0.4 1.3 0.3 1.7-0.3 0.4-0.5 0.3-1.3-0.3-1.7z"/><path class="b" d="m111.1 126.6c-0.1 0.7 0.4 1.3 1.1 1.3 0.6 0 1.2-0.5 1.3-1.1 0-0.7-0.5-1.3-1.1-1.3-0.7-0.1-1.3 0.4-1.3 1.1z"/><path class="b" d="m79.1 94.9c-2 0-3.6-1.7-3.6-3.7 0-2 1.6-3.6 3.6-3.6 2 0 3.6 1.6 3.6 3.6 0 2-1.6 3.7-3.6 3.7z"/><path class="b" d="m189.6 135.5c-2 0-3.6-1.6-3.6-3.6 0-2 1.6-3.7 3.6-3.7 2 0 3.6 1.7 3.6 3.7 0 2-1.6 3.6-3.6 3.6z"/><path class="b" d="m63.1 178.9c-1.1 0-2.1-0.9-2.1-2.1 0-1.2 1-2.1 2.1-2.1 1.2 0 2.1 0.9 2.1 2.1 0 1.2-0.9 2.1-2.1 2.1z"/><path class="b" d="m101.1 160.2c0 0.7 0.5 1.3 1.1 1.3 0.7 0.1 1.3-0.4 1.3-1.1 0.1-0.7-0.4-1.3-1.1-1.3-0.6-0.1-1.2 0.4-1.3 1.1z"/><path class="b" d="m88.6 149.8c0 0.6 0.5 1.2 1.1 1.3 0.7 0 1.3-0.5 1.3-1.2 0.1-0.6-0.4-1.2-1.1-1.2-0.6-0.1-1.2 0.4-1.3 1.1z"/><path class="b" d="m115.4 204.6c-0.4 0.3-0.5 0.9-0.2 1.3 0.3 0.4 0.8 0.5 1.2 0.2 0.4-0.4 0.5-1 0.2-1.4-0.2-0.4-0.8-0.4-1.2-0.1z"/><path class="b" d="m81.7 182.8c0 0.3 0.3 0.6 0.6 0.7 0.3 0 0.6-0.3 0.6-0.6 0.1-0.3-0.2-0.6-0.5-0.7-0.3 0-0.6 0.3-0.7 0.6z"/><path class="b" d="m50.7 120.4c0 0.7 0.4 1.2 1.1 1.3 0.7 0 1.2-0.5 1.3-1.1 0.1-0.7-0.4-1.3-1.1-1.3-0.7-0.1-1.2 0.4-1.3 1.1z"/><path class="b" d="m130.2 197.6c-0.6 0.4-0.7 1.2-0.4 1.7 0.4 0.6 1.1 0.7 1.6 0.2 0.6-0.4 0.7-1.2 0.4-1.8-0.4-0.5-1.1-0.6-1.6-0.1z"/><path class="b" d="m182.6 38.8c0.3-0.8-0.2-1.6-1-1.9-0.8-0.2-1.6 0.3-1.8 1.1-0.3 0.8 0.2 1.6 1 1.8 0.7 0.3 1.6-0.2 1.8-1z"/><path class="b" d="m138.9 172.4c0.7-0.4 1.1-1.4 0.8-2.1-0.3-0.8-1.2-1.1-1.9-0.7-0.7 0.4-1.1 1.3-0.8 2.1 0.3 0.8 1.1 1.1 1.9 0.7z"/><path class="b" d="m202.3 46.5c0.2-0.9-0.2-1.7-1.1-1.9-0.7-0.1-1.6 0.4-1.8 1.2-0.1 0.8 0.3 1.6 1.1 1.8 0.8 0.2 1.6-0.3 1.8-1.1z"/><path class="b" d="m167.2 17.3c0.2-0.8-0.2-1.6-1-1.8-0.8-0.3-1.6 0.2-1.9 1-0.2 0.8 0.2 1.6 1 1.9 0.8 0.2 1.7-0.3 1.9-1.1z"/><path class="b" d="m211.8 149.1c0.8-0.4 1.1-1.3 0.8-2.1-0.3-0.8-1.1-1.1-1.9-0.7-0.7 0.4-1.1 1.4-0.8 2.2 0.3 0.7 1.2 1 1.9 0.6z"/><path class="b" d="m199.2 11.7c0.2-0.8-0.3-1.7-1-1.9-0.8-0.2-1.7 0.2-1.9 1-0.2 0.8 0.2 1.7 1 1.9 0.8 0.2 1.6-0.2 1.9-1z"/><path class="b" d="m188.7 155.6c0.7-0.4 1.1-1.3 0.8-2.1-0.3-0.8-1.2-1.1-1.9-0.7-0.8 0.4-1.1 1.4-0.8 2.1 0.3 0.8 1.1 1.1 1.9 0.7z"/><path class="b" d="m111.7 178.1c0.7-0.4 1-1.4 0.8-2.1-0.3-0.8-1.2-1.1-1.9-0.7-0.8 0.4-1.1 1.3-0.8 2.1 0.3 0.8 1.1 1.1 1.9 0.7z"/><path class="b" d="m204 171.6c-0.5 0.4-0.6 1-0.3 1.4 0.3 0.5 0.9 0.6 1.3 0.2 0.4-0.4 0.6-1 0.3-1.5-0.3-0.4-0.9-0.5-1.3-0.1z"/><path class="b" d="m34 97.6c0.2-0.8-0.2-1.6-1-1.8-0.8-0.3-1.6 0.2-1.8 1-0.3 0.8 0.2 1.6 0.9 1.9 0.8 0.2 1.7-0.3 1.9-1.1z"/><path class="b" d="m256.2 22.1c0.7-2.4-0.7-4.9-3-5.6-2.4-0.7-4.9 0.7-5.6 3.1-0.7 2.4 0.6 4.9 3 5.6 2.3 0.7 4.8-0.7 5.6-3.1z"/><path class="b" d="m24.5 59.4c0 0.6 0.4 1.1 0.9 1.1 0.5 0 1-0.4 1.1-0.9 0-0.6-0.4-1-0.9-1.1-0.6 0-1 0.4-1.1 0.9z"/><path class="b" d="m255.2 64.7c0.2 0.9 0.9 1.4 1.8 1.2 0.8-0.1 1.3-0.9 1.2-1.8-0.2-0.8-1-1.3-1.8-1.1-0.8 0.1-1.3 0.9-1.2 1.7z"/><path class="b" d="m228.7 31.6c-0.4-0.7-1.3-1-2-0.5-0.7 0.4-1 1.3-0.6 2 0.5 0.7 1.4 1 2.1 0.6 0.7-0.5 0.9-1.4 0.5-2.1z"/><path class="b" d="m1.3 51.1c0 0.6 0.5 1 1 0.9 0.6 0 1-0.5 0.9-1 0-0.6-0.5-1-1-0.9-0.5 0-0.9 0.5-0.9 1z"/><path class="b" d="m249.2 64.9c-0.4-0.8-1.3-1.1-2-0.7-0.7 0.4-1 1.3-0.6 2 0.3 0.8 1.2 1.1 2 0.7 0.7-0.4 1-1.3 0.6-2z"/></svg>