<svg version="1.2" xmlns="http://www.w3.org/2000/svg" viewBox="0 0 98 96" width="98" height="96"><style>.a{fill:#f4e1be}.b{fill:#fff6cf}.c{fill:#d8c09a}.d{opacity:.6;mix-blend-mode:multiply;fill:#e2c79c}.e{fill:#5b2824}.f{fill:#754039}.g{fill:#894742}.h{fill:#66322e}.i{opacity:.2;mix-blend-mode:overlay;fill:#f2b8c3}.j{fill:#f2b8c3}</style><path class="a" d="m94.7 35.6c-7.2-25.3-33.6-39.9-58.9-32.7-25.3 7.2-39.9 33.5-32.7 58.8 7.2 25.2 33.5 39.9 58.8 32.6 25.3-7.2 40-33.5 32.8-58.7z"/><path class="b" d="m92.9 36.1c-6.9-24.4-32.2-38.4-56.6-31.5-24.3 6.9-38.4 32.3-31.5 56.6 6.9 24.3 32.3 38.3 56.6 31.4 24.3-6.9 38.4-32.2 31.5-56.5z"/><path class="a" d="m87.9 37.5c-6.1-21.6-28.6-34.1-50.2-27.9-21.5 6.1-34.1 28.6-27.9 50.1 6.1 21.6 28.6 34.1 50.2 27.9 21.6-6.1 34.1-28.6 27.9-50.1z"/><path class="c" d="m29.5 70c-4.5-20 9.2-40.1 30.5-44.9 8-1.8 15.8-1.3 22.8 1.2-9.5-14.4-27.6-21.7-45.1-16.7-21.5 6.1-34.1 28.6-27.9 50.1 4.2 14.9 16.2 25.5 30.4 28.6-5.2-4.8-9-11-10.7-18.3z"/><path class="d" d="m94.7 35.6c-1.8-6.3-4.7-11.8-8.5-16.6 25.6 61-35.5 97-79.1 52.5 10.5 19.1 33 29.1 54.8 22.8 25.3-7.2 40-33.5 32.8-58.7z"/><path class="e" d="m86.1 38c-5.8-20.6-27.3-32.5-47.8-26.6-20.6 5.9-32.5 27.3-26.7 47.8 5.9 20.6 27.3 32.5 47.9 26.6 20.5-5.9 32.5-27.3 26.6-47.8z"/><path class="f" d="m83.4 40.8c-1.9-6.7-4.7-12.6-9.6-16.6-4-3.4-8.7-3.4-13.9-4.5-6-1.3-12.6-3.1-18.9-0.8-5.8 2.1-10.7 6.8-14.7 11.1-4.6 5.1-7.5 10.6-8.9 17.3-1 4.9-0.6 10.3 0.6 15.4 1 4.1 3.1 7.1 5.2 10.3 2.4 3.6 5.2 6.1 8.7 8.4 4.3 2.9 8.4 3 13.8 3.6 4.1 0.4 8 1 12.4-0.2 7.5-2.2 14.3-5.1 19-11 7.5-9.2 9.6-21.2 6.3-33z"/><path class="e" d="m19.8 71.7c1.3-1.3 5.6-13.8 8.3-17 3.7-4.4 8.1-8.2 5.5-6.8-4.5 2.4-4 3.7-7.4 7.3-3.5 3.6-6.4 5.8-9.4 6-3 0.3 3 10.5 3 10.5z"/><path class="e" d="m52.6 33.6c-5 3.6-8.7 5.6-10.1 13.7-1.1 6.3-0.2 0.7 2.5-3.2 2.6-4 0.7-4.4 7.9-8.8 7.2-4.3 3.3-4.3-0.3-1.7z"/><path class="g" d="m64.7 58.2l-0.8 0.4 0.5 3 1.6-1.1z"/><path class="g" d="m36.1 22.8l-0.8-0.2-1.7 2.6 1.9 0.2z"/><path class="g" d="m49 20.3l-0.8 0.2-0.1 3.1 1.8-0.8z"/><path class="g" d="m35 62.5l-0.9 0.2-0.1 3.1 1.8-0.8z"/><path class="g" d="m60.6 73.4l-0.9-0.3-1.9 2.4 1.9 0.4z"/><path class="h" d="m73.1 72l0.5-0.7-2.1-2.3-0.8 1.8z"/><path class="h" d="m78.1 53.7l0.5-0.7-2-2.4-0.8 1.8z"/><path class="h" d="m51 77.1v-0.9l-3.1-0.5 0.5 1.9z"/><path class="i" d="m32.8 75.3c-0.1-1.9 14.8-8 25.6-17.5 11-9.8 17.8-23.1 19.3-22.8 3 0.8 11.9 26.8-3.2 39.4-13 10.9-41.1 12.1-41.7 0.9z"/><path class="j" d="m76.8 72.8c-0.3-0.5-1.6-0.1-2.9 0.8-1.2 0.9-1.9 2-1.6 2.5 0.3 0.4 1.6 0 2.8-0.9 1.3-0.9 2-2 1.7-2.4z"/><path class="j" d="m69.2 77.7c-0.3-0.5-1.1-0.5-1.9 0-0.8 0.4-1.2 1.2-0.9 1.7 0.3 0.5 1.2 0.5 1.9 0 0.8-0.4 1.2-1.2 0.9-1.7z"/><path class="j" d="m82.4 58.1c-0.3-0.2-1.6 2.5-2.8 6.1-1.3 3.7-2 6.8-1.7 7 0.4 0.2 3.6-3.2 4.8-6.8 1.2-3.6 0-6.1-0.3-6.3z"/><path class="i" d="m63.1 47.9c-1.3 0.9-3.3-2.7 1.1-6.1 4.3-3.5 7.8-9 8.5-9.9 0.7-0.8-1.1 9.8-9.6 16z"/><path class="i" d="m41.4 54c1.4-0.7 2.9 3.1-1.9 5.9-4.8 2.8-9 7.9-9.8 8.6-0.8 0.8 2.4-9.5 11.7-14.5z"/><path class="i" d="m59.3 26.2c0.8 0.8-3.4 2.1-5.9 3.8-4.2 3-7.3 5.1-8.5 5.8-1.3 0.7 7.5-9.8 14.4-9.6z"/><path class="g" d="m51.7 57.3l-0.9 0.1-0.4 3.1 1.8-0.7z"/><path class="h" d="m61.7 33v-0.9l-3.1-0.6 0.5 1.9z"/><path class="h" d="m52.7 45.3l-0.6-0.7-2.7 1.6 1.6 1.1z"/><path class="h" d="m31.4 42.6l-0.5-0.8-3 1 1.4 1.4z"/><path class="e" d="m50 15.8c-1.8 1.3-4.4 5.2-8.1 8.6-5.2 4.6-11.2 8.5-7.8 7 6-2.5 5.5-3.8 10.3-7.6 4.8-3.7 8.7-6 12.5-6.3 3.8-0.4-6.9-1.7-6.9-1.7z"/></svg>