<svg version="1.2" xmlns="http://www.w3.org/2000/svg" viewBox="0 0 96 96" width="96" height="96"><style>.a{fill:#f4e1be}.b{fill:#fff6cf}.c{fill:#d8c09a}.d{opacity:.6;mix-blend-mode:multiply;fill:#e2c79c}.e{fill:#a52620}.f{fill:#bc3b31}.g{opacity:.2;mix-blend-mode:overlay;fill:#f2b8c3}.h{fill:#ffe1e8}</style><path class="a" d="m93.8 35.1c-7.2-25.2-33.6-39.9-58.9-32.7-25.3 7.2-39.9 33.6-32.7 58.8 7.2 25.3 33.5 39.9 58.8 32.7 25.3-7.2 40-33.5 32.8-58.8z"/><path class="b" d="m92 35.6c-6.9-24.3-32.2-38.4-56.6-31.4-24.3 6.9-38.4 32.2-31.5 56.5 6.9 24.3 32.3 38.4 56.6 31.5 24.3-7 38.5-32.3 31.5-56.6z"/><path class="a" d="m87 37c-6.1-21.5-28.6-34-50.2-27.9-21.5 6.2-34 28.7-27.9 50.2 6.1 21.6 28.6 34.1 50.2 27.9 21.6-6.1 34.1-28.6 27.9-50.2z"/><path class="c" d="m28.7 69.6c-4.6-20 9.1-40.2 30.4-45 8-1.8 15.8-1.2 22.8 1.3-9.5-14.5-27.5-21.7-45.1-16.8-21.5 6.2-34 28.7-27.9 50.2 4.2 14.9 16.2 25.4 30.4 28.5-5.2-4.8-9-11-10.6-18.2z"/><path class="d" d="m93.8 35.1c-1.8-6.2-4.7-11.7-8.5-16.5 25.6 60.9-35.5 97-79.1 52.5 10.5 19 33 29 54.8 22.8 25.3-7.2 40-33.5 32.8-58.8z"/><path class="e" d="m85.9 38.4c-5.9-20.6-27.3-32.5-47.9-26.6-20.5 5.8-32.5 27.2-26.6 47.8 5.8 20.5 27.3 32.4 47.8 26.6 20.6-5.9 32.5-27.3 26.7-47.8z"/><path class="f" d="m83.1 41.2c-1.9-6.7-4.7-12.7-9.5-16.7-4.1-3.3-8.8-3.3-13.9-4.4-6-1.3-12.6-3.2-18.9-0.9-5.9 2.2-10.8 6.8-14.7 11.2-4.6 5.1-7.6 10.6-8.9 17.2-1.1 5-0.6 10.3 0.6 15.5 0.9 4.1 3 7 5.2 10.3 2.4 3.5 5.2 6.1 8.6 8.4 4.4 2.9 8.4 3 13.8 3.5 4.2 0.4 8.1 1.1 12.4-0.2 7.6-2.1 14.3-5 19.1-10.9 7.4-9.2 9.6-21.2 6.2-33z"/><path class="g" d="m39.7 39.6c-1.3 0.9-3.3-2.7 1.1-6.1 4.3-3.5 7.8-9 8.5-9.9 0.7-0.9-1.1 9.8-9.6 16z"/><path class="g" d="m50.4 44.8c1.3-0.9 3.1 2.7-1.3 6-4.5 3.4-8.2 8.8-8.9 9.6-0.7 0.9 1.5-9.7 10.2-15.6z"/><path class="g" d="m32.8 74.5c-0.2-2 14.8-8 25.6-17.6 10.9-9.8 17.7-23.1 19.2-22.7 3 0.7 11.9 26.7-3.1 39.3-13.1 10.9-41.1 12.1-41.7 1z"/><path class="e" d="m46.8 35.7c0 0-17.2 17.3-17.2 17.3-7 8.8 4.3 11.5 0.4 18.6-1.2 2.2-7.5-8.8-8.8-7.5-3.4 1.2-5-1.2-8.9-1.7 5.5 5 4.8 9.3 10.9 13.7 1.7 0.7-10.3-13.1 5.9-1.1 7.1 5.3 5.5-7 2.8-9.8-7.9-8 10.7-19.9 14.9-29.4q0-0.1 0-0.1z"/><path class="e" d="m53.4 72.3c9.7-4.4 17-9 19-14.2-6.3 5.5-12.7 10.1-19 14.2z"/><path class="e" d="m61.6 17.5c1.5 2 2.5 4.3 3.1 6.7 1.7 7.8-3.4 15-7.5 24.6 5.1-8.3 15.3-19.3 14.1-24.5-0.8-3.8-6.3-5.4-9.7-6.8z"/><path class="e" d="m26.9 43.9q0 0.5 0.1 1-0.1-0.5-0.1-1z"/><path class="e" d="m36.1 31.2c-1.6 1.4-3.5 3-5.4 5.6 1.6-1.3 3.5-2.9 5.4-5.6z"/><path class="e" d="m45.7 15.3c-0.9 0.2-2 0.2-2.9 0.4-0.7 0.2-1.3 0.5-1.4 1.2-1.2 7-3.2 11.3-5.3 14.3 4.4-3.6 7.4-4.8 8.4-13.3 0-1.6 2.5-2.9 1.2-2.6z"/><path class="e" d="m26.9 43.9c-0.1-0.8 0-1.6 0.4-2.1 1.2-2 2.3-3.6 3.4-5-2.5 2-4.2 3.4-3.8 7.1z"/><path class="h" d="m72.6 74.9c-0.3-0.5-1.6-0.3-3 0.4-1.3 0.8-2.2 1.8-1.9 2.3 0.3 0.5 1.6 0.3 3-0.5 1.3-0.7 2.2-1.7 1.9-2.2z"/><path class="h" d="m64.5 78.9c-0.2-0.5-1.1-0.6-1.9-0.3-0.8 0.4-1.3 1.1-1.1 1.6 0.2 0.5 1.1 0.7 1.9 0.3 0.8-0.4 1.3-1.1 1.1-1.6z"/><path class="h" d="m79.8 60.9c-0.3-0.2-1.8 2.3-3.5 5.8-1.6 3.5-2.7 6.5-2.4 6.7 0.3 0.3 3.9-2.7 5.5-6.2 1.7-3.5 0.8-6 0.4-6.3z"/></svg>