<svg version="1.2" xmlns="http://www.w3.org/2000/svg" viewBox="0 0 288 290" width="288" height="290"><style>.a{fill:#ffecae}.b{fill:#ffbd52}.c{fill:#e57f39}.d{fill:#ffe5a4}</style><path class="a" d="m287.3 148.2c0-14.4 0.3-31.3-3.6-44.4-3.9-13.5-11.3-30.9-18.7-42.4-10.7-16.8-20-24.8-36.3-35.9-11.9-8-25.7-14.7-39.7-18.8-12.7-3.8-28.6-6.7-42.4-6.7-22.6 0-44.7 3.5-63.6 13-19 9.4-29.6 13.5-52 39-9.3 10.6-14.1 24.1-19.4 37.4-6.6 16.8-10.9 35-10.9 54.3 0 14.8 1.7 31.1 5.8 44.5 4.1 13.6 13.7 26.5 21.3 38.1 11.4 17.4 23.1 32.2 40.6 43.2 21.9 13.8 48 19.4 75.6 19.4 16.3 0 34.4 1.9 49-3.2 16.8-5.9 34.5-18.4 47.8-29.7 15.5-13.3 30.5-26.4 39.4-45.2 8.8-18.9 7.1-40.3 7.1-62.6z"/><path class="b" d="m283.4 156.4c0.9-14 2.1-30.5-0.9-43.5-3-13.3-9.2-30.8-15.7-42.4-9.5-16.9-18-25.4-33.4-37-11.1-8.5-24.1-15.9-37.6-20.8-12.1-4.3-27.4-8.1-40.9-8.9-22-1.3-43.7 0.9-62.8 8.9-19 8.1-29.5 11.5-52.9 35.1-9.6 9.7-15.1 22.7-21 35.4-7.5 15.9-12.7 33.5-13.8 52.2-0.9 14.4-0.1 30.4 3 43.7 3.2 13.5 11.9 26.7 18.6 38.4 10.1 17.6 20.7 32.8 37.1 44.5 20.5 14.7 45.6 21.7 72.5 23.2 16 1 33.5 3.9 48-0.3 16.7-4.7 34.7-15.8 48.3-26.1 15.9-12.1 31.3-24 41-41.8 9.7-17.9 9.2-38.8 10.5-60.6z"/><path class="c" d="m281.8 156.3c0.9-13.9 2.1-30.2-0.9-43.1-3-13.1-9.1-30.4-15.6-41.9-9.3-16.7-17.8-25-32.9-36.6-11-8.4-23.9-15.6-37.2-20.4-12-4.4-27.1-8.1-40.4-8.9-21.8-1.3-43.2 0.9-62.1 8.9-18.8 8-29.2 11.3-52.3 34.6-9.5 9.6-14.9 22.5-20.8 35-7.4 15.8-12.5 33.1-13.6 51.6-0.9 14.2-0.1 30 3 43.2 3.2 13.4 11.7 26.4 18.4 37.9 9.9 17.4 20.4 32.4 36.7 44 20.2 14.5 45 21.4 71.6 23 15.8 1 33.1 3.8 47.5-0.3 16.5-4.7 34.2-15.7 47.7-25.8 15.7-12 30.9-23.7 40.5-41.3 9.6-17.7 9.2-38.4 10.4-59.9z"/><path class="d" d="m279.8 140.5c-0.7-13.7-1.4-29.8-5.7-42.1-4.5-12.6-12.4-28.8-20-39.3-11.1-15.4-20.3-22.6-36.5-32.2-11.7-7-25.2-12.7-38.7-15.9-12.3-2.9-27.5-4.8-40.7-4.1-21.4 1.2-42.3 5.7-59.8 15.7-17.6 10-27.4 14.4-47.4 39.9-8.2 10.5-12.1 23.7-16.4 36.6-5.5 16.3-8.6 33.9-7.6 52.2 0.8 14 3.3 29.4 7.9 42 4.6 12.7 14.4 24.5 22.2 35.1 11.8 15.9 23.7 29.5 41 39 21.5 11.9 46.6 15.9 72.8 14.5 15.6-0.9 32.9 0 46.5-5.7 15.6-6.5 31.8-19.2 43.9-30.8 14.1-13.4 27.6-26.6 35.1-45 7.4-18.4 4.6-38.7 3.4-59.9z"/><path class="a" d="m157.2 77.7c5.6-5.6 13.3-6.6 19.9-9.3 16.2-8.1 25-1.2 39.6-15.9 3.1-3 5.4-6.6 6.7-10.4q-2.4-2-5-4-0.1-0.1-0.2-0.2-1.1-0.8-2.2-1.7-0.2-0.1-0.4-0.2-1.2-0.9-2.3-1.7-0.1-0.1-0.2-0.1-1.3-0.9-2.5-1.7-0.2-0.2-0.4-0.3-1-0.6-2-1.3-0.4-0.2-0.8-0.4-0.8-0.6-1.7-1.1-0.4-0.2-0.7-0.4-1.2-0.7-2.4-1.4c-11.1-5.9-25.2-8-37.2-10.5-18-3.7-34.7-5.6-52.5-1.6-22.3 5.1-42.1 17.9-59.4 35.2-10.2 10.2-22.7 20.3-28.7 32.7q-0.6 1.3-1.2 2.6-0.2 0.5-0.4 1.1-0.3 0.7-0.7 1.5-0.2 0.8-0.5 1.5-0.2 0.6-0.5 1.2-0.3 0.9-0.6 1.8-0.1 0.5-0.3 1-0.3 1-0.6 1.9-0.2 0.5-0.3 0.9-0.3 1.1-0.6 2.2-0.1 0.2-0.2 0.5-0.3 1.2-0.6 2.5-0.1 0.1-0.1 0.3-0.3 1.3-0.7 2.7c63.3 10 137.7-25.4 139.7-27.4z"/><path class="a" d="m118.8 124.8c-4.9 7.4-24.1 28.4-11.6 40.9 2.3 2.3 5.3 3.7 8.1 5 69.6 25 108.2 9 111.3 8.3 11.6-2.6 25.7-2.3 39-3.1 4.8-15.5 8.6-32.2 6.8-47.7-1.4-12.3-6.3-23.9-11.3-35.5-5.3-12.4-12.4-24.4-21.6-35-4.5 7-9.6 14.8-18.7 23.9-30.2 30.3-65.2 21.5-102 43.2z"/><path class="a" d="m171.5 91.3c10.6-3.3 21.6-4.3 30.5-10.6-2.6-2-5.3-0.7-7.9 0-22.6 7.3-46.2 10.3-66.1 23.6 2.9-1 5.6-3 8.6-4 12.3-3 23.6-5 34.9-9z"/><path class="a" d="m217.9 207c11.2-4.5 21.5-11.9 32.6-12-1.4 4.2-4.5 4.8-7.2 6.2-23.8 9.4-46.5 24.3-70.8 25.3 3.2-1.2 6.5-1.1 9.7-2.3 12.5-6.3 23.6-12.8 35.7-17.2z"/><path class="a" d="m84.6 147c-1.2 5.7 1.3 18.1 1.8 23.8 1.6-0.7 3.6-4.3 4-5.7 2.5-12.1 4-12 7.3-25.9-7.6 4.7-12 1.7-13.1 7.8z"/><path class="a" d="m79.1 240.2c6.3-2 59.5-6.1 66.1-6.3 0 0-54.5 19.9-54.5 19.9 4-8.2-18.4-11.7-11.6-13.6z"/><path class="a" d="m102.7 203c4.1-4.1 3-6.8 0.9-9-5.4-5.4-16.9-13.2-24.9-21.1-15.5-15.5-10.5-20.9 0.6-32 2.6-2.6 5.4-5.3 8.1-7.9 37.2-37.3-12.1-11.9-69.7-5.5 2.6 12.5-0.7 24.4-4.9 36.1 0.5 7.1 1.8 14.1 4.4 21.2 1.2 3.3 2.7 6.5 4.4 9.5 23.8 7.9 70.4 19.4 81.1 8.7z"/><path class="a" d="m195.4 204.3q-5 1-10 2c-21.2-2-41.5-8.3-62.8-10.3 0 3.8 6.1 5.2-2 13.3-16.6 13-36.5 19.2-56.9 22 82.2-6.9 135.9-23.5 150.3-28.3-6.1 1.4-12.3 0.5-18.6 1.3z"/><path class="a" d="m117.7 265.2c17.2 3.7 33.3 5.6 50.4 2.2 12.5-2.4 24.3-9.4 35.7-15.6 10.2-5.6 20.2-10 28.9-18.7 8.7-8.8 15.9-18.4 21.5-28.7-46.1 29.5-116.9 49.3-150.2 57.6 4.6 1.2 9.3 2.2 13.7 3.2z"/><g style="opacity:.5"><path class="b" d="m152.4 99c0-2.3-0.7-10.1-1.7-10.1-0.9 0-1.6 7.8-1.6 10.1 0 2.4 0.7 4.2 1.6 4.2 1 0 1.7-1.8 1.7-4.2z"/><path class="c" d="m151.4 98.1c0-1.6-0.3-7-0.7-7-0.3 0-0.6 5.4-0.6 7 0 1.6 0.3 2.9 0.6 2.9 0.4 0 0.7-1.3 0.7-2.9z"/><path class="b" d="m188.7 66.1c0-2.3-0.7-10.1-1.6-10.1-1 0-1.7 7.8-1.7 10.1 0 2.3 0.7 4.2 1.7 4.2 0.9 0 1.6-1.9 1.6-4.2z"/><path class="c" d="m187.7 65.2c0-1.6-0.3-7-0.6-7-0.4 0-0.7 5.4-0.7 7 0 1.6 0.3 2.9 0.7 2.9 0.3 0 0.6-1.3 0.6-2.9z"/><path class="b" d="m99.1 56.6c0-2.3-0.7-10.2-1.6-10.2-0.9 0-1.7 7.9-1.7 10.2 0 2.3 0.8 4.2 1.7 4.2 0.9 0 1.6-1.9 1.6-4.2z"/><path class="c" d="m98.1 55.7c0-1.6-0.2-7.1-0.6-7.1-0.4 0-0.7 5.5-0.7 7.1 0 1.6 0.3 2.9 0.7 2.9 0.4 0 0.6-1.3 0.6-2.9z"/><path class="b" d="m33.9 136.6c0-2.3-0.7-10.1-1.6-10.1-0.9 0-1.6 7.8-1.6 10.1 0 2.4 0.7 4.2 1.6 4.2 0.9 0 1.6-1.8 1.6-4.2z"/><path class="c" d="m33 135.7c0-1.6-0.3-7-0.7-7-0.4 0-0.7 5.4-0.7 7 0 1.6 0.3 2.9 0.7 2.9 0.4 0 0.7-1.3 0.7-2.9z"/><path class="b" d="m85.6 231.2c0-2.3-0.8-10.2-1.7-10.2-0.9 0-1.6 7.9-1.6 10.2 0 2.3 0.7 4.2 1.6 4.2 0.9 0 1.7-1.9 1.7-4.2z"/><path class="c" d="m84.6 230.3c0-1.6-0.3-7.1-0.7-7.1-0.3 0-0.6 5.5-0.6 7.1 0 1.6 0.3 2.9 0.6 2.9 0.4 0 0.7-1.3 0.7-2.9z"/><path class="b" d="m206 236.4c0-2.4-0.8-10.2-1.7-10.2-0.9 0-1.6 7.8-1.6 10.2 0 2.3 0.7 4.2 1.6 4.2 0.9 0 1.7-1.9 1.7-4.2z"/><path class="c" d="m205 235.5c0-1.7-0.3-7.1-0.7-7.1-0.3 0-0.6 5.4-0.6 7.1 0 1.6 0.3 2.9 0.6 2.9 0.4 0 0.7-1.3 0.7-2.9z"/><path class="b" d="m239.2 143.9c0-2.3-0.7-10.1-1.6-10.1-1 0-1.7 7.8-1.7 10.1 0 2.4 0.7 4.2 1.7 4.2 0.9 0 1.6-1.8 1.6-4.2z"/><path class="c" d="m238.2 143c0-1.6-0.3-7-0.6-7-0.4 0-0.7 5.4-0.7 7 0 1.6 0.3 2.9 0.7 2.9 0.3 0 0.6-1.3 0.6-2.9z"/><path class="b" d="m169.3 177.5c0-2.4-0.7-10.2-1.6-10.2-0.9 0-1.7 7.8-1.7 10.2 0 2.3 0.8 4.2 1.7 4.2 0.9 0 1.6-1.9 1.6-4.2z"/><path class="c" d="m168.3 176.5c0-1.6-0.2-7-0.6-7-0.4 0-0.7 5.4-0.7 7 0 1.7 0.3 3 0.7 3 0.4 0 0.6-1.3 0.6-3z"/><path class="b" d="m106.9 157.1c0-2.3-0.8-10.1-1.7-10.1-0.9 0-1.6 7.8-1.6 10.1 0 2.4 0.7 4.2 1.6 4.2 0.9 0 1.7-1.8 1.7-4.2z"/><path class="c" d="m105.9 156.2c0-1.6-0.3-7-0.7-7-0.3 0-0.6 5.4-0.6 7 0 1.6 0.3 2.9 0.6 2.9 0.4 0 0.7-1.3 0.7-2.9z"/></g></svg>