<svg version="1.2" xmlns="http://www.w3.org/2000/svg" viewBox="0 0 96 96" width="96" height="96"><style>.a{fill:#f4e1be}.b{fill:#fff6cf}.c{fill:#d8c09a}.d{fill:#e0962b}.e{fill:#efbb3a}.f{opacity:.2;mix-blend-mode:overlay;fill:#fff9e9}.g{fill:#fff9e9}.h{fill:#ffcf64}</style><path class="a" d="m94.1 35c-7.2-25.3-33.5-39.9-58.8-32.7-25.3 7.2-40 33.5-32.8 58.8 7.2 25.3 33.5 39.9 58.8 32.7 25.3-7.2 40-33.5 32.8-58.8z"/><path class="b" d="m92.4 35.5c-7-24.3-32.3-38.4-56.6-31.5-24.4 7-38.5 32.3-31.6 56.6 7 24.3 32.3 38.4 56.6 31.5 24.4-7 38.5-32.3 31.6-56.6z"/><path class="a" d="m87.4 36.9c-6.2-21.5-28.6-34-50.2-27.9-21.6 6.2-34.1 28.6-28 50.2 6.2 21.5 28.6 34 50.2 27.9 21.6-6.2 34.1-28.6 28-50.2z"/><path class="c" d="m29 69.5c-4.5-20 9.1-40.2 30.5-45 7.9-1.8 15.8-1.2 22.8 1.2-9.5-14.4-27.6-21.7-45.1-16.7-21.6 6.2-34.1 28.6-28 50.2 4.3 14.9 16.3 25.4 30.4 28.5-5.2-4.8-9-11-10.6-18.2z"/><path class="d" d="m85.7 37.1c-5.9-20.6-27.3-32.5-47.8-26.6-20.6 5.8-32.5 27.2-26.7 47.8 5.9 20.5 27.3 32.4 47.9 26.6 20.5-5.9 32.5-27.3 26.6-47.8z"/><path class="e" d="m83 39.9c-1.9-6.7-4.7-12.7-9.6-16.7-4-3.3-8.7-3.4-13.9-4.4-6-1.3-12.6-3.2-18.9-0.9-5.8 2.2-10.7 6.8-14.7 11.2-4.6 5.1-7.5 10.6-8.9 17.2-1 5-0.6 10.3 0.6 15.5 1 4.1 3.1 7 5.2 10.3 2.4 3.5 5.2 6.1 8.7 8.4 4.3 2.9 8.4 3 13.8 3.5 4.1 0.4 8 1.1 12.4-0.2 7.5-2.1 14.3-5.1 19-10.9 7.5-9.2 9.6-21.2 6.3-33z"/><path class="f" d="m32.1 74c-0.1-2 14.8-8 25.6-17.6 10.9-9.7 17.7-23.1 19.2-22.7 3 0.7 12 26.8-3.1 39.3-13 10.9-41.1 12.1-41.7 1z"/><path class="d" d="m38.7 67.8c-11.9 1.9-18.8-13.9-19.7-19.6-2.1-12.6 24.4-42.1-4.7-4.9-1.2 1.7-2.2 3.8-1.9 5.9q0.2 0.7 0.6 1.5c0 0 8.9 21.6 27.4 18.6 7.1-1.2 17.4-6.6 21-13-5.1 3.8-16.5 10.4-22.7 11.5z"/><path class="d" d="m73.3 42.1c-1.9-8.6-15.3-16.1-26.8-13.5q-2.1 0.5-4.1 1.3c12.6-2.7 27.9 7.1 29.1 10.2 2.9 7.4-0.6 11-0.4 15.7 2.2-4.1 3.2-9.2 2.2-13.7z"/><path class="d" d="m36.5 32.9c1.9-1.1 3.8-2.1 5.9-3q-0.1 0-0.1 0c-2.1 0.5-4.1 1.6-5.8 3z"/><g style="opacity:.2;mix-blend-mode:overlay"><path class="g" d="m36.8 35.2c-1.7 2-3.4 4.4-4.5 6.9 1.3-2.4 3-4.8 4.5-6.9z"/><path class="g" d="m41.7 62.1q0 0-0.1-0.1 0 0 0 0c0 0.3 0.2 0.6 0.1 0.1z"/><path class="g" d="m32.3 42.1c-1.7 3.2-2.8 6.6-2 10.2 1 4.4 4.3 6.4 8.5 7.5-2.7-2.4-6.6-6.4-7.5-10.4-0.6-2.4 0-4.9 1-7.3z"/><path class="g" d="m42.7 60.5q-2.1-0.3-3.9-0.7c1.3 1.2 2.4 2 2.8 2.2-0.2-0.9 1.2-1.3 1.1-1.5q0 0 0 0z"/></g><path class="h" d="m53.1 34.6c0.1-0.6-1-1.3-2.5-1.7-1.5-0.4-2.8-0.3-2.9 0.3-0.2 0.5 0.9 1.3 2.4 1.7 1.5 0.4 2.8 0.2 3-0.3z"/><path class="h" d="m49.6 54.1c-0.2-0.5-1.1-0.7-1.9-0.3-0.8 0.4-1.3 1.1-1 1.6 0.2 0.5 1 0.6 1.9 0.3 0.8-0.4 1.2-1.1 1-1.6z"/><path class="h" d="m35.2 45.8c0.2 0.3 2-2.2 4-5.5 1.9-3.3 3.2-6.2 3-6.5-0.3-0.3-4.1 2.5-6.1 5.8-1.9 3.3-1.2 5.9-0.9 6.2z"/></svg>